<svg width="350" height="69" viewBox="0 0 350 69" fill="none" xmlns="http://www.w3.org/2000/svg">
<g opacity="0.25">
<path d="M349.994 42.0623C349.983 41.9161 349.973 41.6634 349.771 41.6528C349.235 41.6262 349.09 41.2379 348.702 41.0864C348.394 40.964 348.352 40.7566 348.412 40.504C348.521 40.0386 348.631 39.5706 348.663 39.0999C348.694 38.6584 348.793 38.1851 348.235 37.8447C348.077 37.749 348.073 37.5974 348.115 37.4698C348.348 36.7837 347.911 36.4858 347.077 36.3183C346.615 36.2252 346.24 35.9566 346.113 35.5737C345.88 34.8743 345.668 34.1696 344.863 33.6829C344.772 33.2734 344.383 33.1564 343.907 33.0926C343.582 33.05 343.306 32.9516 343.126 32.6964C342.36 31.614 341.131 30.9279 339.623 30.5264C339.041 30.3722 338.561 30.1328 338.102 29.835C337.607 29.5159 337.117 29.1595 336.537 28.9601C335.831 28.7181 335.157 28.3937 334.437 28.2208C333.18 27.9203 332.131 27.3246 330.916 26.9736C330.334 26.8061 329.726 26.6625 329.182 26.4258C327.989 25.9046 326.781 25.41 325.514 25.0004C324.363 24.6281 323.25 24.1308 322.05 23.9101C320.154 23.5591 318.462 22.8198 316.584 22.4475C315.384 22.2082 314.338 21.6152 313.095 21.4131C312.898 21.3812 312.704 21.2961 312.531 21.211C312.223 21.0567 311.891 20.9849 311.538 20.9184C310.331 20.6898 309.236 20.2058 308 20.0276C307.75 19.9904 307.527 19.8361 307.287 19.7457C307.047 19.6526 306.8 19.5729 306.556 19.4851C305.624 19.15 304.593 19.0596 303.629 18.7591C302.323 18.3523 300.96 18.0039 299.593 17.6901C297.799 17.2779 296.009 16.8551 294.24 16.3924C292.75 16.0041 291.274 15.5866 289.749 15.2728C288.834 15.084 287.867 15.0574 286.984 14.7676C286.324 14.5495 285.632 14.4192 284.922 14.3235C283.979 14.1985 283.047 14.0309 282.214 13.6507C281.935 13.5257 281.642 13.5523 281.345 13.5443C280.289 13.515 279.283 13.3315 278.362 12.938C277.881 12.7332 277.376 12.6082 276.836 12.5763C276.472 12.555 276.144 12.4806 275.802 12.3875C274.372 12.0046 272.899 11.736 271.416 11.4887C270.562 11.3451 269.668 11.2759 268.927 10.8372C268.634 10.6643 268.196 10.643 267.8 10.7042C267.56 10.7414 267.324 10.776 267.105 10.6616C266.402 10.2947 265.459 10.4196 264.778 10.0154C263.595 9.99948 262.532 9.58198 261.378 9.45433C260.442 9.35062 259.503 9.22563 258.62 8.94907C258.066 8.77356 257.479 8.75494 256.897 8.73101C256.72 8.72303 256.533 8.78419 256.367 8.71505C255.488 8.35073 254.443 8.44647 253.542 8.11406C253.151 7.97046 252.674 7.86143 252.247 7.88004C251.24 7.91993 250.312 7.64071 249.334 7.57423C248.186 7.49711 247.091 7.11683 245.902 7.20725C245.792 7.21523 245.665 7.17268 245.563 7.12747C245.114 6.92536 244.606 6.88548 244.115 6.79506C242.921 6.577 241.689 6.53711 240.481 6.38553C239.984 6.32171 239.521 6.14354 239.002 6.15684C238.137 6.17811 237.311 6.0026 236.474 5.87229C235.076 5.65423 233.702 5.33512 232.272 5.22343C231.947 5.19684 231.619 5.16227 231.301 5.14365C230.461 5.09047 229.694 4.77933 228.858 4.77136C227.957 4.76338 227.085 4.61446 226.206 4.51075C224.409 4.29801 222.611 4.10388 220.796 3.98687C220.055 3.939 219.296 3.8938 218.59 3.74222C217.636 3.53745 216.662 3.46565 215.691 3.38056C214.66 3.29014 213.629 3.2077 212.622 3.02421C211.224 2.76892 209.776 2.83275 208.364 2.64926C207.697 2.5615 207.04 2.35674 206.344 2.41258C205.825 2.45247 205.324 2.35408 204.844 2.25834C204.462 2.18123 204.092 2.12272 203.703 2.10943C201.775 2.03497 199.865 1.82754 197.948 1.66267C196.179 1.51109 194.417 1.30367 192.641 1.184C191.221 1.08826 189.809 0.904775 188.375 0.979235C188.199 0.987213 188.012 0.973916 187.842 0.931368C187.118 0.753197 186.377 0.747878 185.628 0.753197C183.757 0.769152 181.9 0.535137 180.035 0.537796C178.729 0.540455 177.422 0.362284 176.109 0.537796C175.586 0.606937 175.035 0.564389 174.516 0.45004C173.962 0.330373 173.397 0.34101 172.832 0.359625C172.624 0.364943 172.419 0.436744 172.211 0.386217C171.434 0.197409 170.618 0.253254 169.824 0.181454C168.231 0.0378529 166.621 0.0936976 165.018 0.12295C164.598 0.130927 164.213 0.0272158 163.786 0.04849C162.511 0.106994 161.226 0.0857198 159.944 0.0857198C159.083 0.0857198 158.217 0.0405122 157.356 0.0644456C155.82 0.106994 154.288 0.218683 152.741 0.0963569C151.646 0.00860093 150.541 0.019238 149.44 0.000623113C148.963 -0.0073547 148.483 0.0644456 148.013 0.0351936C146.791 -0.0366067 145.58 0.109653 144.362 0.112313C142.914 0.114972 141.463 0.0325344 140.008 0.0857198C139.006 0.12295 138.017 0.282506 137 0.271869C136.53 0.26655 136.078 0.168157 135.609 0.197409C133.935 0.298461 132.254 0.359625 130.574 0.263891C130.249 0.245276 129.899 0.226661 129.592 0.290484C129.006 0.41281 128.406 0.391536 127.816 0.444721C126.421 0.575026 125.023 0.601618 123.625 0.678737C122.35 0.750538 121.079 0.915412 119.808 0.907435C118.487 0.899457 117.202 1.13613 115.885 1.11752C115.348 1.10954 114.812 1.16804 114.275 1.21059C112.407 1.35951 110.536 1.48981 108.671 1.67065C107.312 1.80361 105.935 1.80095 104.589 2.05092C103.848 2.1892 103.057 2.22643 102.308 2.25569C101.673 2.28228 100.984 2.50566 100.324 2.25569C100.215 2.2158 100.031 2.26632 99.8897 2.29823C99.067 2.47906 98.2443 2.62001 97.3863 2.68915C95.4266 2.85136 93.4881 3.13324 91.5249 3.29546C90.6069 3.36992 89.6606 3.38588 88.7814 3.58C87.6267 3.83795 86.4368 3.92305 85.2681 4.09856C84.0993 4.27407 82.8988 4.32992 81.7371 4.5267C80.8297 4.68094 79.9187 4.77401 79.0042 4.86177C78.3474 4.92559 77.7012 5.01335 77.0586 5.1277C75.3178 5.43883 73.5806 5.74997 71.8363 6.03983C71.0242 6.17545 70.1944 6.24725 69.3823 6.37224C68.5349 6.50254 67.6981 6.64348 66.8189 6.59296C66.5258 6.577 66.2009 6.59296 65.9361 6.67539C65.1946 6.91473 64.3931 6.99717 63.6233 7.11683C62.7618 7.25246 61.8649 7.30564 60.9822 7.3934C60.5655 7.43595 60.1877 7.62209 59.757 7.57423C59.0578 7.49445 58.3869 7.62209 57.7125 7.72315C56.4873 7.90664 55.2656 8.10608 54.0404 8.28425C53.5178 8.35871 52.9881 8.28957 52.4479 8.37999C51.6605 8.51029 50.8872 8.68048 50.1104 8.83206C49.3866 8.97566 48.6027 8.9278 47.9318 9.14851C47.0138 9.45167 46.0392 9.49422 45.0929 9.65644C43.2957 9.96491 41.4914 10.2654 39.6694 10.4888C38.8679 10.5872 38.1299 10.8239 37.346 10.9542C36.2444 11.1376 35.0862 11.1802 34.0552 11.5977C33.6385 11.7652 33.1724 11.8955 32.7064 11.9487C31.3893 12.1056 30.104 12.3636 28.8153 12.6109C28.215 12.7279 27.6041 12.8369 26.9933 12.8768C26.4813 12.9087 25.9622 12.938 25.4962 13.0656C24.0555 13.4592 22.6008 13.5682 21.1001 13.3422C20.9342 13.3156 20.7364 13.3448 20.5705 13.3847C20.0055 13.5177 19.3841 13.5204 18.8792 13.8102C18.6638 13.9325 18.3778 13.9166 18.0988 13.9086C17.2867 13.882 16.4922 13.9937 15.7225 14.1825C15.2988 14.2889 14.9351 14.4963 14.5043 14.608C13.1802 14.951 11.7996 15.1531 10.5108 15.5893C9.78697 15.8339 8.98545 15.935 8.34281 16.3259C7.53069 16.8205 6.59146 17.1848 5.67342 17.5252C4.90014 17.8124 4.25751 18.1688 3.63606 18.5942C3.41714 18.7458 3.36418 18.8602 3.46657 19.0516C3.61134 19.3229 3.72786 19.5995 3.80554 19.8893C3.87616 20.1579 3.79848 20.3068 3.47717 20.4318C3.00755 20.6153 2.51322 20.7908 2.51322 21.2934C2.51322 21.3838 2.36845 21.4929 2.25546 21.5593C1.96592 21.7322 1.75406 21.9502 1.60929 22.2002C1.48218 22.4236 1.26679 22.5858 0.99844 22.6736C0.211038 22.9315 0.00977415 23.4368 0.016836 24.0005C0.0238979 24.5989 -0.110278 25.2158 0.278126 25.7902C0.401709 25.9764 0.33109 26.1865 0.278126 26.3859C0.115703 26.963 0.239286 27.548 0.165136 28.1277C0.140419 28.3219 0.267533 28.4761 0.40524 28.6224C0.973723 29.226 1.5528 29.8243 2.12481 30.428C2.36845 30.6833 2.64386 30.9306 2.53793 31.2869C2.46731 31.5183 2.67917 31.6832 2.85925 31.8188C3.35358 32.1964 3.63959 32.6698 3.97856 33.1192C4.08096 33.2575 4.13392 33.4383 4.28575 33.5261C4.81186 33.8319 5.00607 34.2893 5.33091 34.6908C5.65223 35.0897 5.7511 35.587 6.30546 35.8848C6.44669 35.9593 6.49613 36.1055 6.49613 36.2518C6.49613 36.6161 6.76095 36.8847 7.06108 37.1453C7.35415 37.398 7.59425 37.6798 7.83789 37.9644C8.43462 38.6584 8.96073 39.3844 9.76225 39.9828C10.7085 40.6901 11.4395 41.5491 12.1351 42.4054C12.8165 43.2457 13.4733 44.1046 13.9676 45.0301C14.1901 45.4476 14.3525 45.8837 14.6102 46.2906C15.4365 47.5776 16.3157 48.8488 16.8383 50.2396C16.9654 50.5773 17.1137 50.9363 17.3644 51.2395C18 52.0106 18.286 52.8962 18.8615 53.6833C19.3205 54.3083 19.776 54.9146 20.6411 55.3347C21.3861 55.6964 22.2053 56.0714 22.5302 56.7814C22.5761 56.8771 22.7385 56.9383 22.8268 57.0287C23.2752 57.4941 24.0379 57.7068 24.4581 58.1961C24.5216 58.2679 24.6311 58.3238 24.7299 58.369C25.3231 58.6508 25.768 59.0311 26.1529 59.4699C26.6155 59.9964 27.244 60.3634 28.1338 60.4006C28.3103 60.4086 28.4904 60.4405 28.6634 60.4751C29.0095 60.5469 29.2248 60.6905 29.2248 60.999C29.2248 61.2915 29.246 61.592 29.3414 61.8712C29.7015 62.9057 30.5701 63.4083 31.8907 62.9216C32.0849 62.8498 32.2332 62.9163 32.3956 62.9004C33.8998 62.7355 35.2381 62.3526 36.0325 61.2809C36.2232 61.0256 36.4139 60.7783 36.714 60.5735C37.6144 59.9672 38.6419 59.5257 39.7577 59.1933C40.4215 58.9939 41.0782 58.7758 41.735 58.5551C42.7449 58.2174 43.6911 57.7839 44.7081 57.4568C46.4912 56.8851 48.3838 56.5314 50.1033 55.84C50.8378 55.5448 51.6464 55.3773 52.4832 55.2523C53.3836 55.1193 54.1957 54.7444 55.1102 54.6034C56.5932 54.3747 57.9279 53.6993 59.5098 53.7365C59.6193 53.7365 59.7358 53.6833 59.8452 53.6434C61.0634 53.1834 62.3663 52.9733 63.7151 52.8988C64.1353 52.8749 64.6085 52.8988 64.9404 52.7233C65.8125 52.2659 66.9566 52.5026 67.8005 52.0213C68.9939 51.9229 70.1132 51.5719 71.282 51.415C73.5277 51.1171 75.6109 50.4098 77.8213 50.0268C79.0712 49.8088 80.2894 49.4764 81.5606 49.3301C82.4433 49.229 83.3578 49.1918 84.1876 48.9684C85.1304 48.7131 86.1226 48.7477 87.0688 48.527C87.7362 48.3701 88.46 48.3302 89.1556 48.1893C90.0137 48.0164 90.9105 47.9446 91.7862 47.8223C92.6583 47.7 93.594 47.7718 94.3744 47.3516C94.4627 47.3037 94.6039 47.2931 94.7204 47.2931C95.5325 47.2984 96.2493 46.9075 97.0791 46.9873C97.1885 46.9979 97.3086 46.9447 97.4216 46.9128C98.6645 46.5724 99.9851 46.474 101.27 46.3304C102.93 46.147 104.547 45.8305 106.178 45.5752C107.079 45.4343 107.997 45.3146 108.897 45.1471C109.444 45.046 109.96 44.8306 110.511 44.8067C112.103 44.7402 113.611 44.3519 115.161 44.1365C115.426 44.0993 115.645 44.0089 115.885 43.9158C116.404 43.7111 116.997 43.5754 117.541 43.4398C118.307 43.2483 119.112 43.0489 119.946 42.9984C120.207 42.9824 120.479 42.908 120.712 42.8149C121.598 42.4612 122.548 42.299 123.529 42.174C124.649 42.0304 124.945 41.7379 124.815 40.871C124.794 40.738 124.744 40.5997 124.762 40.4694C124.79 40.2593 125.083 40.129 125.369 40.1982C125.676 40.2726 125.591 40.4082 125.44 40.5572C125.341 40.6582 125.351 40.7779 125.524 40.8364C125.772 40.9188 125.994 40.847 126.195 40.738C126.312 40.6742 126.273 40.5971 126.216 40.504C125.976 40.0998 125.987 40.0652 126.485 39.9774C127.53 39.7966 128.579 39.6291 129.624 39.4562C130.853 39.2515 132.106 39.1823 133.342 39.0281C134.956 38.826 136.573 38.6425 138.176 38.3845C138.727 38.2968 139.281 38.1452 139.842 38.1505C140.926 38.1612 141.982 37.9724 143.063 37.9644C143.423 37.9644 143.903 38.0282 144.168 37.8022C144.323 37.6692 144.433 37.608 144.645 37.6001C145.478 37.5655 146.315 37.5309 147.148 37.4777C147.596 37.4511 148.038 37.3953 148.483 37.3448C148.567 37.3341 148.719 37.2863 148.716 37.265C148.702 37.132 148.539 37.1719 148.44 37.1746C147.759 37.1905 147.07 37.2623 146.396 37.2224C145.912 37.1932 145.432 37.1826 144.969 37.257C144.468 37.3368 143.97 37.3368 143.465 37.3581C142.943 37.3793 142.452 37.015 141.929 37.3129C141.269 37.0655 140.545 37.2224 139.857 37.1347C139.623 37.1054 139.345 37.0788 139.147 37.148C138.568 37.3527 137.971 37.1294 137.395 37.2331C137.286 37.2517 137.152 37.2012 137.113 37.1054C137.106 37.0921 137.244 37.0283 137.325 37.0124C138.246 36.8289 139.168 36.6534 140.139 36.6746C140.856 36.6906 141.576 36.6746 142.293 36.6454C143.508 36.6002 144.705 36.4007 145.923 36.3981C146.279 36.3981 146.636 36.4087 146.993 36.3981C147.081 36.3954 147.257 36.3795 147.204 36.2518C147.187 36.2119 147.06 36.1773 146.986 36.1773C146.304 36.1773 145.63 36.0151 144.941 36.1242C144.74 36.1561 144.524 36.1268 144.316 36.1188C144.263 36.1188 144.175 36.0896 144.168 36.0657C144.147 35.9726 144.27 35.9752 144.334 35.9699C144.807 35.93 145.284 35.9034 145.757 35.8662C147.286 35.7465 148.811 35.5338 150.343 35.5285C152.762 35.5178 155.181 35.454 157.6 35.4221C159.33 35.4008 161.053 35.4806 162.783 35.4514C165.894 35.3955 169.001 35.6162 172.115 35.5099C172.74 35.4886 173.358 35.6242 173.994 35.571C174.672 35.5125 175.346 35.4833 176.028 35.6455C176.465 35.7519 176.967 35.7625 177.316 35.4248C177.369 35.3742 177.433 35.329 177.489 35.2812C177.415 35.2493 177.345 35.1934 177.267 35.1881C176.674 35.1429 176.077 35.0897 175.48 35.0764C174.884 35.0631 174.28 35.1482 173.69 35.095C172.034 34.9434 170.375 34.8451 168.704 34.8876C168.196 34.9009 167.687 34.8956 167.197 34.7679C167.087 34.7387 166.957 34.7227 166.882 34.6669C166.402 34.3132 166.406 34.3292 166.031 34.3212C165.396 34.3079 164.792 34.5126 164.167 34.4781C162.409 34.3823 160.65 34.3132 158.888 34.3185C158.542 34.3185 158.172 34.3265 157.854 34.1669C158.165 34.0127 158.518 33.9967 158.874 33.9781C160.4 33.8983 161.918 34.0047 163.443 33.9967C163.761 33.9967 164.1 34.0951 164.393 33.9196C164.174 33.7441 163.878 33.7042 163.581 33.6697C163.514 33.6617 163.45 33.6484 163.464 33.5952C163.468 33.5739 163.56 33.558 163.613 33.5526C163.991 33.5021 164.382 33.4808 164.746 33.3931C164.909 33.3532 165.428 33.3372 165.004 33.0155C164.926 32.957 165.018 32.9118 165.089 32.8692C165.233 32.7841 165.579 32.9543 165.541 32.7043C165.53 32.6299 165.195 32.5687 165 32.5288C164.859 32.4996 164.704 32.4996 164.556 32.5049C163.044 32.5661 161.526 32.4411 160.025 32.598C159.52 32.6512 159.079 32.3932 158.616 32.4916C157.935 32.6352 157.321 32.3613 156.667 32.3799C156.505 32.3852 156.508 32.2948 156.579 32.1964C156.717 32.0103 157.049 31.9518 157.112 31.7231C156.826 31.6991 156.533 31.7736 156.247 31.6566C155.728 31.4412 155.199 31.6566 154.672 31.6672C153.422 31.6885 152.176 31.7284 150.93 31.747C150.432 31.755 149.86 31.9278 149.468 31.8108C148.68 31.5768 147.953 31.7337 147.201 31.755C147.081 31.7576 146.784 31.7896 146.908 31.6779C147.067 31.5396 146.827 31.2923 147.162 31.2577C147.279 31.2471 147.402 31.2577 147.522 31.2497C147.699 31.2417 147.971 31.2444 147.978 31.1088C147.988 30.9279 147.716 30.9918 147.554 30.9811C147.406 30.9705 147.254 30.9865 147.109 30.9652C147.038 30.9545 146.94 30.8854 146.933 30.8375C146.925 30.7657 147.038 30.7365 147.127 30.7338C147.607 30.7205 148.084 30.7046 148.564 30.7019C148.786 30.7019 149.097 30.561 149.196 30.7471C149.249 30.8455 148.86 30.8482 148.702 30.9333C148.638 30.9678 148.571 31.029 148.56 31.0822C148.543 31.1965 148.677 31.162 148.751 31.1566C149.288 31.1194 149.824 31.0875 150.354 31.0263C150.626 30.9944 150.509 30.8934 150.372 30.8136C150.301 30.7737 150.23 30.7391 150.156 30.6992C150.23 30.6806 150.305 30.6514 150.379 30.6461C151.152 30.6142 151.925 30.5902 152.699 30.5556C154.309 30.4838 155.922 30.5636 157.536 30.5078C160.22 30.4147 162.91 30.4333 165.597 30.3668C166.441 30.3456 167.264 30.444 168.101 30.4493C170.696 30.4679 173.291 30.5291 175.883 30.5131C176.889 30.5078 177.91 30.5477 178.912 30.3535C179.456 30.2472 180.042 30.2339 180.607 30.2365C182.454 30.2472 184.301 30.1355 186.147 30.2232C186.274 30.2286 186.401 30.1887 186.405 30.085C186.412 29.9493 186.239 29.9759 186.14 29.9812C185.36 30.0265 184.611 30.0025 183.891 29.702C183.633 29.5957 183.266 29.5956 182.927 29.6143C182.238 29.6568 181.557 29.5478 180.897 29.4228C180.547 29.3563 180.205 29.3005 179.845 29.2819C177.934 29.1861 176.024 29.1755 174.117 29.2712C173.506 29.3031 172.903 29.2473 172.352 29.125C171.596 28.9574 170.851 29.0266 170.145 29.101C168.997 29.2207 167.875 29.4148 166.709 29.2446C166.628 29.2313 166.526 29.2234 166.455 29.2473C165.657 29.5238 164.803 29.3723 163.976 29.4334C163.715 29.452 163.387 29.5106 163.154 29.3164C163.39 29.2021 163.719 29.2154 163.976 29.1569C164.054 29.125 164.241 29.0798 164.238 29.0505C164.227 28.9335 164.086 28.9494 163.969 28.9441C162.13 28.8378 160.29 28.7101 158.458 28.9787C158.108 29.0292 157.751 29.0665 157.395 29.0904C157.282 29.0984 157.144 29.0345 157.335 28.9494C157.751 28.7633 157.423 28.734 157.239 28.6888C156.95 28.617 156.777 28.9361 156.494 28.8404C156.042 28.6888 155.612 28.8138 155.174 28.859C154.905 28.8856 154.634 28.8856 154.376 28.8085C154.143 28.7394 153.896 28.7261 153.666 28.7713C152.985 28.9042 152.296 28.8351 151.611 28.8617C149.581 28.9335 147.554 29.0133 145.524 29.0798C145.047 29.0957 144.57 29.0665 144.09 29.0585C144.016 29.0585 143.959 29.0319 143.974 28.9787C143.981 28.9468 144.041 28.9069 144.087 28.9016C144.263 28.8723 144.44 28.8431 144.62 28.8378C145.485 28.8085 146.336 28.7234 147.194 28.6303C148.352 28.5053 149.514 28.1862 150.718 28.4575C150.852 28.4867 151.021 28.4708 151.159 28.4362C151.276 28.407 151.498 28.4203 151.473 28.282C151.456 28.1969 151.269 28.2394 151.156 28.2368C151.043 28.2368 150.877 28.2846 150.855 28.1729C150.834 28.0692 151.004 28.0639 151.11 28.0533C151.374 28.024 151.611 27.9017 151.897 27.9336C153.338 28.0985 154.672 27.8166 155.958 27.3539C156.395 27.197 156.84 27.088 157.342 27.1491C157.571 27.1784 157.917 27.2395 158.006 27.0614C158.186 26.697 158.528 26.8353 158.825 26.8433C159.414 26.8593 160.022 26.8726 160.587 26.9337C161.586 27.0401 162.536 27.0002 163.503 26.8353C163.835 26.7795 164.301 26.6279 164.457 27.0773C164.471 27.1172 164.605 27.1598 164.683 27.1598C165.209 27.1465 165.724 27.33 166.272 27.1491C166.586 27.0454 166.978 27.0693 167.334 27.0534C167.458 27.0481 167.557 27.1172 167.567 27.2236C167.574 27.298 167.504 27.3805 167.43 27.3725C167.013 27.3246 166.649 27.6225 166.215 27.4603C165.643 27.2502 165.177 27.5081 164.697 27.6836C164.647 27.7022 164.608 27.7368 164.566 27.7661C164.633 27.8086 164.69 27.8671 164.764 27.8857C164.905 27.9203 165.078 27.9735 165.198 27.9416C165.989 27.7209 166.815 27.774 167.631 27.7395C168.192 27.7155 168.775 27.6863 169.287 27.8405C169.548 27.9203 169.64 28.0825 169.901 27.8326C170.011 27.7262 170.346 27.7368 170.583 27.7235C171.536 27.673 172.49 27.6304 173.443 27.5906C174.372 27.5507 175.293 27.4496 176.236 27.5374C177.059 27.6145 177.888 27.7368 178.732 27.6411C178.895 27.6225 179.131 27.6969 179.11 27.8591C179.096 27.9682 178.884 27.9948 178.729 27.9815C177.931 27.9123 177.119 28.1437 176.324 27.9309C176.222 27.9017 176.081 27.915 175.971 27.9389C175.145 28.1277 174.308 28.0187 173.471 27.9974C173.175 27.9895 172.874 27.9921 172.578 28.0027C172.419 28.0081 172.299 28.0719 172.281 28.2075C171.995 27.9549 171.568 28.0187 171.204 27.9442C171.13 27.9283 171.028 27.9363 171.003 28.0107C170.996 28.032 171.067 28.0799 171.116 28.1011C171.395 28.2235 171.677 28.3458 171.963 28.4628C172.094 28.516 172.235 28.5825 172.384 28.5293C172.557 28.4681 172.603 28.383 172.38 28.3139C172.79 28.1011 173.249 28.0267 173.605 28.3139C173.853 28.5133 174.096 28.524 174.393 28.5319C175.939 28.5772 177.486 28.6303 179.032 28.6729C179.212 28.6782 179.393 28.649 179.562 28.7128C180.222 28.9707 180.96 28.9441 181.663 28.9707C183.813 29.0532 185.946 29.2792 188.089 29.4148C189.456 29.5026 190.822 29.6648 192.185 29.6648C193.718 29.6648 195.229 29.7685 196.74 29.9121C198.936 30.1195 201.136 30.2179 203.343 30.2711C204.805 30.3057 206.267 30.3323 207.728 30.3642C207.905 30.3668 208.067 30.3961 208.247 30.327C208.827 30.1009 209.483 30.0823 210.112 30.0504C210.85 30.0132 211.595 30.085 212.333 30.0637C213.12 30.0397 213.865 30.2206 214.646 30.2498C215.857 30.295 217.078 30.2578 218.275 30.4706C218.862 30.5743 219.455 30.4307 220.048 30.436C221.252 30.4466 221.637 30.9599 221.397 31.8241C221.372 31.9172 221.347 31.9757 221.231 32.0315C220.56 32.3533 219.893 32.4437 219.066 32.34C217.513 32.1459 215.941 31.997 214.345 32.0315C213.53 32.0502 212.693 31.989 211.881 31.8082C211.319 31.6832 210.726 31.6034 210.112 31.6167C209.218 31.6353 208.325 31.6034 207.432 31.5928C206.983 31.5874 206.56 31.4704 206.101 31.4837C204.37 31.5396 202.658 31.7975 200.914 31.6965C200.575 31.6779 200.2 31.6592 199.869 31.7789C200.751 32.1406 201.733 31.8986 202.654 32.0369C204 32.2363 205.394 32.1725 206.736 32.4012C206.881 32.4251 207.033 32.4464 207.181 32.4437C208.498 32.4198 209.794 32.6006 211.097 32.6777C211.923 32.7256 212.781 32.8931 213.583 32.7017C214.444 32.4943 215.285 32.5262 216.15 32.574C217.128 32.6299 218.131 32.8586 219.126 32.7416C219.345 32.7628 220.302 33.2787 220.26 33.3692C220.136 33.6244 219.751 33.5686 219.515 33.6962C219.465 33.7228 219.409 33.7415 219.363 33.768C219.313 33.7946 219.275 33.8265 219.229 33.8558C219.289 33.8983 219.345 33.9728 219.412 33.9781C220.366 34.0606 221.252 34.3557 222.209 34.4515C223.985 34.6297 225.796 34.5419 227.548 34.8903C227.714 34.9222 227.904 34.8982 228.081 34.8903C229.073 34.8424 230.055 34.9807 231.012 35.111C231.834 35.2227 232.65 35.3423 233.483 35.3875C233.903 35.4115 234.313 35.4593 234.726 35.5125C235.609 35.6216 236.453 35.8715 237.357 35.9114C239.168 35.9885 240.976 36.0683 242.78 36.2465C244.719 36.4406 246.675 36.5603 248.631 36.6188C248.712 36.6188 248.822 36.6454 248.832 36.5762C248.839 36.5363 248.73 36.4619 248.659 36.4459C247.882 36.2837 247.102 36.1215 246.318 35.9806C245.997 35.9247 245.481 35.8928 245.548 35.6668C245.608 35.462 246.124 35.6083 246.431 35.6614C247.279 35.805 248.112 36.055 248.963 36.0869C250.142 36.1321 251.24 36.4406 252.395 36.5496C253.041 36.6108 253.687 36.6986 254.326 36.8182C254.958 36.9352 255.583 37.1772 256.247 37.1001C256.78 37.039 257.328 36.9991 257.691 37.2836C258.122 37.6187 258.797 37.3474 259.171 37.6878C259.609 37.8314 260.114 37.975 260.573 37.8846C261.092 37.7835 261.579 37.85 262.077 37.9112C262.313 37.9404 262.656 37.9617 262.666 38.1372C262.674 38.2489 262.306 38.1612 262.112 38.1745C262.031 38.1798 261.953 38.2197 261.876 38.2436C261.939 38.2835 262.006 38.3633 262.07 38.3606C262.532 38.35 262.935 38.5095 263.362 38.5866C263.853 38.6744 264.315 38.8446 264.827 38.8738C264.909 38.8792 264.997 38.8499 265.078 38.8366C265.011 38.7941 264.951 38.7382 264.877 38.709C264.612 38.6106 264.669 38.4563 264.753 38.3074C264.845 38.1372 265.036 38.1691 265.202 38.2223C266.36 38.592 267.642 38.6451 268.793 39.0281C269.043 39.1105 269.513 39.0786 269.478 39.3233C269.446 39.528 268.983 39.2089 268.771 39.403C269.149 39.8073 269.788 39.8418 270.329 39.9881C271.112 40.1982 271.935 40.363 272.761 40.4322C273.616 40.504 274.297 40.8896 275.106 41.0225C275.283 41.0518 275.456 41.0943 275.632 41.0997C276.275 41.1156 276.886 41.2539 277.429 41.4879C278.008 41.7379 278.633 41.8655 279.248 42.0304C279.774 42.1713 280.251 42.4213 280.84 42.424C280.876 42.424 280.936 42.4878 280.939 42.525C280.946 42.6101 280.865 42.6208 280.773 42.6048C280.219 42.5197 279.65 42.4692 279.11 42.3442C277.426 41.9506 275.685 41.7219 273.994 41.3337C272.913 41.0864 271.812 40.871 270.685 40.7247C269.665 40.5917 268.609 40.5093 267.645 40.1636C267.306 40.0439 266.932 40.0945 266.603 40.2221C266.399 40.3019 266.19 40.3418 266.01 40.2381C265.604 40.0067 265.209 39.9881 264.767 40.1796C264.661 40.2248 264.464 40.2035 264.333 40.1636C263.719 39.9721 263.051 39.9296 262.43 39.7727C260.837 39.3738 259.174 39.2089 257.564 38.8765C256.992 38.7568 256.371 38.8074 255.838 38.5866C255.343 38.3819 254.81 38.3739 254.273 38.35C254.125 38.3447 253.966 38.3845 253.832 38.3526C252.935 38.1505 252.01 38.1027 251.088 38.0707C250.17 38.0362 249.337 37.8633 248.589 37.4698C248.416 37.3793 248.264 37.2863 248.045 37.2623C246.929 37.132 245.817 36.9991 244.705 36.8528C244.185 36.7837 243.645 36.8235 243.151 36.5869C242.904 36.4699 242.494 36.4645 242.187 36.5124C241.64 36.6002 241.114 36.5257 240.58 36.5124C240.164 36.5018 239.744 36.4646 239.327 36.4406C239.179 36.4326 238.907 36.4087 238.914 36.4592C238.935 36.6214 239.179 36.6241 239.345 36.6294C240.135 36.6613 240.866 36.8555 241.611 37.0336C241.866 37.0948 242.134 37.1347 242.402 37.156C244.161 37.2916 245.838 37.7463 247.596 37.8846C247.681 37.8926 247.762 37.9351 247.847 37.9537C248.956 38.2197 250.086 38.4404 251.24 38.4936C252.473 38.5494 253.595 38.9297 254.803 39.0706C255.756 39.1823 256.696 39.4217 257.66 39.5706C258.857 39.7541 260.039 40.0014 261.24 40.1902C261.883 40.2912 262.5 40.4668 263.182 40.371C263.468 40.3311 263.803 40.3232 264.072 40.4003C264.923 40.6396 265.83 40.5465 266.706 40.7008C267.479 40.8364 268.249 41.0571 269.054 41.0651C269.545 41.0704 270.004 41.1369 270.463 41.2459C272.172 41.6475 273.881 42.0543 275.59 42.4532C276.356 42.6314 277.143 42.7564 277.913 42.9239C278.605 43.0755 279.272 43.2271 279.926 43.4637C280.328 43.61 280.763 43.7563 281.285 43.6738C281.61 43.6233 282.224 43.7217 282.221 43.9318C282.221 44.2695 282.507 44.2376 282.701 44.3333C283.146 44.5487 283.856 44.4158 284.092 44.9237C284.106 44.9556 284.258 44.9742 284.339 44.9636C285.063 44.8732 285.671 45.1896 286.324 45.3146C286.712 45.3891 287.228 45.3704 287.493 45.5672C287.888 45.8598 288.368 45.8358 288.81 45.9289C289.064 45.9821 289.286 46.0406 289.53 46.123C290.455 46.4288 291.422 46.6629 292.344 46.982C292.499 47.0352 292.715 47.0617 292.87 47.0245C293.209 46.9447 293.439 47.0671 293.7 47.1814C294.378 47.4766 295.091 47.7053 295.9 47.6973C296.175 47.6946 296.419 47.7611 296.673 47.8436C297.019 47.9553 297.256 48.1255 297.411 48.3728C297.796 48.2584 298.156 48.3329 298.537 48.418C299.424 48.6121 300.232 48.9658 301.15 49.0987C301.489 49.1493 301.955 49.1732 302.093 49.5295C301.694 49.5535 301.249 49.6279 300.907 49.495C299.741 49.0509 298.449 48.9312 297.231 48.6334C295.995 48.3329 294.777 47.9207 293.435 47.9207C293.354 47.9207 293.276 47.8622 293.195 47.8489C292.609 47.7532 292.143 47.4766 291.67 47.2319C291.105 46.9421 290.441 46.8916 289.827 46.732C289.724 46.7054 289.572 46.7027 289.533 46.8171C289.495 46.9235 289.632 46.958 289.717 47.0165C290.067 47.2665 290.547 47.2505 290.953 47.3862C292.044 47.7505 293.146 48.0962 294.219 48.4871C294.883 48.7291 295.638 48.7371 296.285 49.0376C297.284 49.503 298.449 49.6758 299.526 50.0082C299.925 50.1332 300.352 50.2289 300.727 50.2156C301.055 50.205 301.246 50.2795 301.507 50.3699C302.368 50.673 303.226 51.0374 304.141 51.181C305.486 51.3937 306.489 52.0665 307.69 52.4574C307.778 52.4867 307.923 52.5585 307.841 52.6648C307.82 52.6941 307.675 52.6941 307.601 52.6781C306.902 52.5079 306.228 52.25 305.454 52.3111C305.377 52.3165 305.296 52.2553 305.211 52.2314C305.101 52.1995 304.992 52.1729 304.882 52.1436C304.967 52.1941 305.045 52.25 305.133 52.2925C305.617 52.5239 306.147 52.6595 306.687 52.8031C307.432 52.9999 308.406 53.0424 308.668 53.803C308.816 53.8535 309.038 54.0051 309.035 53.7365C309.031 53.5397 309.074 53.3855 309.367 53.5743C309.642 53.7525 309.978 53.7525 310.292 53.7924C310.871 53.8668 311.397 54.0344 311.828 54.3136C312.075 54.4731 312.322 54.537 312.619 54.5715C313.523 54.6806 314.25 55.1114 315.087 55.3454C315.14 55.3613 315.182 55.3986 315.228 55.4278C315.32 55.489 315.405 55.5687 315.362 55.6592C315.348 55.6937 315.193 55.7177 315.115 55.7017C314.307 55.5395 313.413 55.6299 312.661 55.3454C310.867 54.6673 308.894 54.3561 307.054 53.7551C305.755 53.3323 304.374 53.0052 303.025 52.6409C301.874 52.3298 300.677 52.0931 299.568 51.7155C298.883 51.4814 298.198 51.2421 297.475 51.1411C295.204 50.8193 293.047 50.197 290.801 49.8061C288.884 49.471 287.034 48.9392 285.144 48.5164C282.454 47.9154 279.774 47.2798 277.101 46.6309C276.451 46.474 275.773 46.4022 275.138 46.1762C274.082 45.8012 272.878 45.8012 271.762 45.5672C271.688 45.5513 271.533 45.5699 271.515 45.6018C271.458 45.7135 271.621 45.7215 271.706 45.764C271.755 45.788 271.812 45.8092 271.868 45.8199C273.436 46.0991 274.936 46.5645 276.533 46.7745C276.942 46.8277 277.341 46.9368 277.733 47.0458C278.828 47.3489 279.887 47.7133 281.013 47.9526C281.931 48.1467 282.839 48.3914 283.718 48.6733C284.685 48.9844 285.664 49.2503 286.684 49.4338C286.974 49.487 287.291 49.5056 287.546 49.612C288.449 49.9869 289.456 50.1172 290.423 50.3486C291.193 50.5321 292.005 50.6411 292.729 50.8938C293.855 51.2873 295.07 51.4229 296.239 51.6915C297.549 51.9947 298.912 52.1383 300.193 52.5398C300.995 52.7898 301.747 53.1169 302.563 53.3376C304.162 53.7711 305.758 54.2205 307.354 54.6593C308.332 54.9252 309.321 55.1699 310.292 55.4464C310.68 55.5581 311.037 55.731 311.464 55.7788C311.662 55.8028 311.997 55.8427 311.951 56.0022C311.884 56.2389 311.616 56.0288 311.443 56.0182C311.051 55.9942 310.684 55.9012 310.331 55.7682C309.61 55.497 308.802 55.4065 308.043 55.2071C307.464 55.0555 306.779 55.0369 306.175 54.8481C305.998 54.7949 305.815 54.8162 305.645 54.8561C304.678 55.0848 303.823 54.8507 302.983 54.5157C302.612 54.3668 302.217 54.2684 301.807 54.1859C300.423 53.904 299.071 53.553 297.704 53.2313C296.461 52.9387 295.402 52.3377 294.025 52.242C293.022 52.1729 292.023 51.8245 291.076 51.4815C290.543 51.2873 289.961 51.0985 289.41 51.0294C288.209 50.8778 287.182 50.4018 286.031 50.1625C285.342 50.0215 284.682 49.8141 283.958 49.7582C283.072 49.6864 282.154 49.6785 281.32 49.471C280.229 49.1998 279.061 49.1413 278.012 48.7663C277.959 48.7477 277.902 48.7264 277.846 48.7158C277.789 48.7052 277.729 48.7052 277.673 48.6999C277.719 48.7451 277.751 48.8036 277.807 48.8328C278.005 48.9312 278.178 49.0748 278.429 49.0961C279.177 49.1626 279.813 49.4737 280.515 49.6412C281.37 49.8433 282.182 50.1784 283.072 50.2529C284.237 50.3513 285.293 50.6198 286.366 50.9815C287.235 51.274 288.17 51.5107 289.145 51.6649C290.451 51.875 291.705 52.2872 292.909 52.7499C293.52 52.9839 294.148 53.2206 294.805 53.3616C296.013 53.6195 297.21 53.8642 298.336 54.3056C299.124 54.6141 300.084 54.7045 300.801 55.0741C301.705 55.5422 302.764 55.6858 303.678 56.082C304.141 56.2841 304.692 56.2203 305.108 56.425C306.097 56.909 307.156 57.26 308.279 57.51C308.526 57.5659 308.678 57.7041 308.872 57.8079C308.94 57.8451 308.989 57.9036 309.045 57.9515C308.971 57.9488 308.894 57.9515 308.819 57.9408C307.52 57.7015 306.161 57.5898 305.031 56.9702C304.748 56.8159 304.406 56.8292 304.081 56.792C304 56.784 303.837 56.8106 303.837 56.8292C303.827 56.9356 303.964 56.9516 304.063 56.9835C304.254 57.0473 304.448 57.1111 304.642 57.167C305.278 57.3478 305.829 57.7041 306.57 57.6776C306.697 57.6722 306.828 57.7813 306.962 57.8265C307.859 58.1243 308.671 58.579 309.699 58.6402C310.059 58.6615 310.398 58.7838 310.691 58.938C311.39 59.305 312.184 59.5763 312.982 59.6454C313.855 59.7199 314.451 60.1294 315.189 60.3554C315.493 60.4485 315.765 60.6932 315.705 60.9405C315.634 61.233 315.772 61.2117 316.058 61.2357C316.736 61.2942 317.484 61.2995 318.025 61.6239C319.176 62.318 320.694 62.4057 321.866 63.0413C321.909 63.0652 321.979 63.0652 322.039 63.0706C322.633 63.1025 323.13 63.3152 323.582 63.5705C324.271 63.9561 325.009 64.2779 325.74 64.6076C325.803 64.6369 325.93 64.6315 325.874 64.714C325.856 64.7432 325.704 64.7432 325.627 64.722C325.143 64.5943 324.642 64.5385 324.137 64.5199C324.024 64.5145 323.868 64.5012 323.826 64.597C323.773 64.7193 323.893 64.8283 324.02 64.8762C324.677 65.1235 325.355 65.3416 326.005 65.5969C326.877 65.9372 327.767 66.2457 328.663 66.5489C329.454 66.8148 330.199 67.1579 330.944 67.4982C331.259 67.6418 331.569 67.6232 331.894 67.6073C332.247 67.5913 332.484 67.4849 332.36 67.1791C332.233 66.86 332.498 66.8786 332.738 66.9398C333.077 67.0275 333.398 67.1552 333.723 67.2695C333.967 67.3573 334.207 67.4504 334.447 67.5408C334.373 67.344 334.299 67.1446 334.221 66.9478C334.189 66.8733 334.059 66.7962 334.186 66.7244C334.228 66.7005 334.348 66.7483 334.433 66.7696C335.376 67.0036 335.923 66.8866 336.499 66.3228C336.552 66.2723 336.583 66.2058 336.608 66.142C336.693 65.9479 336.869 65.9798 337.025 66.0596C337.169 66.134 337.279 66.2484 337.403 66.3441C337.53 66.4398 337.678 66.5755 337.854 66.493C338.077 66.3867 337.946 66.2058 337.883 66.0649C337.837 65.9638 337.717 65.8841 337.632 65.7936C337.501 65.65 337.184 65.5251 337.304 65.3522C337.417 65.1926 337.72 65.323 337.939 65.3336C338.501 65.3602 338.691 65.2299 338.712 64.8071C338.716 64.7166 338.709 64.6289 338.716 64.5385C338.79 63.8417 338.663 63.1982 337.893 62.7142C337.805 62.6584 337.756 62.568 337.699 62.4882C337.674 62.4536 337.685 62.4057 337.678 62.3632C337.731 62.3765 337.798 62.3765 337.837 62.4031C338.437 62.778 339.239 62.9057 339.807 63.3205C339.892 63.3817 340.005 63.4242 340.114 63.4588C340.351 63.5306 340.482 63.4349 340.432 63.2727C340.241 62.6424 340.248 61.9909 340.022 61.3606C339.895 61.007 339.761 60.7304 339.277 60.5921C339.055 60.5283 338.857 60.4193 338.652 60.3235C338.557 60.2783 338.416 60.2251 338.479 60.1214C338.72 59.7092 338.342 59.5896 337.95 59.5178C337.611 59.4539 337.498 59.2971 337.544 59.0763C337.618 58.7333 337.611 58.4115 337.381 58.0977C337.282 57.9621 337.29 57.7919 337.335 57.6323C337.353 57.5632 337.388 57.5047 337.48 57.4808C337.59 57.4515 337.639 57.518 337.696 57.5685C337.925 57.7759 338.144 57.9887 338.381 58.1908C338.539 58.3264 338.783 58.2812 338.808 58.1509C338.882 57.752 338.893 57.3425 338.663 56.9622C338.592 56.8452 338.412 56.8505 338.264 56.8665C337.734 56.9197 337.321 56.6989 336.958 56.4809C336.643 56.2947 336.273 56.215 335.965 56.0607C335.143 55.6485 334.013 55.5342 333.575 54.7258C333.54 54.6619 333.356 54.6566 333.285 54.5928C332.816 54.178 332.095 54.1062 331.509 53.8455C330.439 53.3669 329.285 53.0079 328.07 52.7898C327.202 52.6329 326.344 52.4361 325.662 52.0133C325.094 51.657 324.589 51.274 323.805 51.2129C323.671 51.2022 323.519 51.1171 323.431 51.0347C322.979 50.5933 322.202 50.5082 321.7 50.0747C321.361 49.7822 320.789 49.4817 320.097 49.5934C319.822 49.6386 319.61 49.4445 319.377 49.3487C318.639 49.0509 317.968 48.6387 317.167 48.4632C316.697 48.3595 316.517 48.1042 316.252 47.8755C316.16 47.7957 316.107 47.6601 316.227 47.5643C316.362 47.458 316.51 47.5484 316.626 47.6042C318.028 48.2823 319.702 48.5908 320.984 49.4391C321.291 49.6439 321.704 49.7582 322.078 49.9018C322.237 49.963 322.442 50.0189 322.467 49.7981C322.491 49.5668 322.622 49.5189 322.929 49.5163C323.346 49.5109 323.762 49.4604 324.179 49.5295C324.43 49.5721 324.691 49.5508 324.793 49.354C324.952 49.0562 325.228 49.112 325.535 49.1493C326.16 49.2264 326.7 49.4897 327.315 49.5801C327.827 49.6545 328.113 49.9524 328.452 50.1997C328.639 50.3353 328.568 50.4177 328.339 50.4842C328.095 50.5534 327.865 50.5268 327.636 50.4709C327.463 50.4284 327.297 50.3779 327.113 50.4231C327.032 50.4417 326.919 50.4284 326.905 50.5188C326.894 50.5959 326.972 50.6278 327.06 50.6491C327.954 50.8592 328.872 51.0241 329.589 51.5267C329.631 51.5559 329.687 51.5798 329.744 51.5931C330.478 51.7421 330.997 52.3058 331.859 52.2101C331.933 52.2021 332.078 52.2526 332.092 52.2952C332.261 52.8058 332.855 52.7898 333.36 52.9015C333.522 52.9361 333.681 53.0345 333.797 53.1329C334.391 53.6355 335.16 53.9173 335.951 54.1992C336.707 54.4652 337.448 54.7816 337.982 55.2895C338.14 55.4411 338.321 55.5209 338.575 55.5555C338.804 55.5874 339.034 55.6645 339.235 55.7522C339.51 55.8719 339.754 56.3772 339.549 56.5075C339.104 56.792 339.355 56.9649 339.645 57.1457C339.924 57.3212 340.157 57.5233 340.368 57.7414C340.467 57.8424 340.563 58.0073 340.775 57.9222C340.923 57.861 341.039 57.7121 340.997 57.5818C340.877 57.2255 341.025 56.9383 341.255 56.6298C341.534 56.2495 341.396 56.0953 340.81 56.1112C340.284 56.1245 339.761 56.0022 339.616 55.6671C339.397 55.1645 338.882 54.9385 338.416 54.6433C338.095 54.4412 337.819 54.2338 337.328 54.3854C337.067 54.4678 336.785 54.3269 336.647 54.1381C336.499 53.936 336.428 53.7073 336.781 53.553C336.94 53.4839 336.954 53.3695 336.873 53.2632C336.562 52.8483 336.188 52.4867 335.482 52.585C335.093 52.6382 334.705 52.6276 334.32 52.6143C333.72 52.593 333.617 52.5452 333.639 52.1011C333.66 51.6384 333.423 51.2182 333.367 50.7741C333.331 50.4762 333.109 50.4497 332.805 50.5241C332.523 50.5933 332.251 50.697 331.961 50.7448C331.527 50.8166 331.213 50.6996 331.096 50.431C330.927 50.0481 330.711 49.6652 330.644 49.2689C330.574 48.8435 330.316 48.6148 329.79 48.5217C329.677 48.5031 329.529 48.5297 329.479 48.4313C329.44 48.3515 329.433 48.2531 329.454 48.1707C329.483 48.0643 329.638 48.0164 329.73 48.0749C330.079 48.2983 330.436 48.3276 330.856 48.1999C330.955 48.1707 331.139 48.2584 331.259 48.3222C331.7 48.5509 332.166 48.7637 332.403 49.1572C332.551 49.4019 332.742 49.5907 333.165 49.4258C333.374 49.3461 333.603 49.3992 333.734 49.5322C334.009 49.8088 334.44 49.9497 334.73 50.2103C335.026 50.4789 335.277 50.8299 335.874 50.5773C335.912 50.5613 336.022 50.58 336.036 50.6039C336.319 51.1038 336.898 51.149 337.505 51.1623C337.572 51.1623 337.657 51.2368 337.699 51.2926C337.876 51.508 337.996 51.4176 338.165 51.274C338.575 50.9283 338.79 51.0799 338.942 51.3884C339.097 51.7048 339.376 51.8883 339.691 52.1064C340.118 52.4016 340.676 52.5319 341.082 52.835C341.17 52.9015 341.276 52.9281 341.407 52.9201C341.929 52.8909 342.194 53.1595 342.307 53.4679C342.469 53.92 342.823 54.1593 343.423 54.1966C343.553 54.2045 343.659 54.2152 343.719 54.3003C343.914 54.5742 344.051 54.4306 344.238 54.2817C344.768 53.8668 344.782 53.8668 345.442 54.2524C345.728 54.4173 345.81 54.3083 345.841 54.1141C345.93 53.577 346.064 53.0451 345.99 52.4973C345.93 52.0479 345.905 51.5958 345.905 51.1464C345.905 50.7741 345.93 50.7741 346.413 50.8725C347.06 51.0028 347.554 50.8991 347.801 50.5374C348.098 50.1013 348.348 49.6466 348.62 49.2025C348.694 49.0775 348.779 48.9445 348.726 48.8115C348.55 48.3541 348.815 47.9686 349.058 47.583C349.199 47.3543 349.312 47.1256 349.362 46.8783C349.387 46.7666 349.45 46.6123 349.327 46.5565C348.677 46.2666 349.002 45.9262 349.196 45.5779C349.252 45.4768 349.302 45.3412 349.256 45.2508C349.132 45.0168 349.323 44.8705 349.436 44.6897C349.952 43.852 350.05 42.9611 349.98 42.057L349.994 42.0623ZM125.027 29.3217C124.405 29.4414 123.805 29.6488 123.134 29.5717C123.053 29.5611 122.947 29.5877 122.922 29.5052C122.915 29.476 122.954 29.4201 122.996 29.4042C123.649 29.1516 124.342 29.0984 125.058 29.1675C125.097 29.1728 125.129 29.226 125.164 29.2579C125.118 29.2792 125.072 29.3138 125.023 29.3217H125.027ZM128.031 29.1117C127.752 29.2366 127.473 29.2446 127.127 29.1436C127.029 29.0957 126.997 28.9787 127.029 28.875C127.11 28.6064 127.576 28.407 127.947 28.4814C128.176 28.5266 128.42 28.5931 128.441 28.8138C128.462 29.0266 128.201 29.0319 128.031 29.109V29.1117ZM131.379 28.1836C131.015 28.5878 130.478 28.8112 129.878 28.9521C129.758 28.9814 129.557 28.9707 129.493 28.8431C129.408 28.6755 129.638 28.6915 129.744 28.6357C130.136 28.4229 130.528 28.2341 131.043 28.2527C131.199 28.258 131.273 28.141 131.361 28.0506C131.273 28.0613 131.202 28.0772 131.114 28.0745C130.916 28.0745 130.69 28.1224 130.567 27.9469C130.556 27.9309 130.623 27.8618 130.662 27.8591C130.906 27.8299 131.16 27.6969 131.386 27.8724C131.421 27.899 131.375 27.9895 131.361 28.0533C131.372 28.0958 131.4 28.1623 131.375 28.1862L131.379 28.1836ZM161.134 29.2021C161.198 29.2021 161.258 29.2765 161.325 29.3217C161.261 29.3563 161.219 29.3882 161.166 29.4068C160.806 29.5265 159.693 29.5238 159.619 29.4122C160.092 29.1888 160.611 29.1888 161.134 29.2021ZM142.727 36.2598C142.678 36.1933 142.688 36.1348 142.773 36.0922C142.988 35.9912 143.229 36.0204 143.465 36.0337C143.497 36.0337 143.553 36.1055 143.546 36.1348C143.504 36.2624 142.89 36.3529 142.731 36.2598H142.727ZM147.293 29.4334C147.829 29.4201 148.363 29.3749 148.903 29.3856C149.56 29.3989 150.213 29.3643 150.863 29.2526C152.003 29.0585 153.175 29.0957 154.333 29.0611C154.87 29.0452 155.407 29.0478 155.944 29.0558C156.053 29.0558 156.166 29.109 156.208 29.2234C156.106 29.2579 155.993 29.3297 155.891 29.3244C154.955 29.2765 154.062 29.5106 153.136 29.5584C151.562 29.6435 149.966 29.6488 148.43 29.9626C147.388 30.1754 146.308 30.1913 145.266 30.3934C144.835 30.4785 144.39 30.5131 144.009 30.7125C143.839 30.803 143.645 30.8375 143.416 30.8296C142.099 30.7764 140.803 30.912 139.507 31.0715C139.069 31.1247 138.614 31.1035 138.169 31.1354C137.162 31.2098 136.16 31.2976 135.153 31.3774C135.04 31.3853 134.892 31.4173 134.857 31.3056C134.85 31.279 135.019 31.1965 135.118 31.1779C136.442 30.9146 137.759 30.6381 139.154 30.7099C140.266 30.7684 141.332 30.4918 142.431 30.4253C142.491 30.4227 142.6 30.4227 142.6 30.4227C142.618 30.1594 143.19 30.1913 143.116 29.9999C143.02 29.7605 142.639 29.8749 142.399 29.9201C141.993 29.9972 141.597 30.1009 141.177 30.1195C141.046 30.1248 141.029 30.069 141.022 29.9999C141.015 29.9227 141.071 29.8589 141.167 29.8642C141.795 29.8935 142.381 29.6807 143.003 29.6887C144.447 29.7127 145.859 29.4627 147.296 29.4308L147.293 29.4334ZM135.98 29.7499C136.022 29.6595 136.262 29.601 136.424 29.5744C136.742 29.5238 137.039 29.4893 137.297 29.2952C137.583 29.0798 137.904 29.2686 138.201 29.3537C138.31 29.3856 138.303 29.4441 138.239 29.5052C138.151 29.601 138.042 29.6861 137.886 29.6887C137.427 29.6914 137.042 29.8111 136.696 30.0397C136.612 30.0956 136.35 30.2286 136.308 29.9866C136.276 29.8084 135.912 29.8908 135.98 29.7499ZM150.75 27.1624C150.008 27.205 149.263 27.2289 148.521 27.2555C147.462 27.2927 146.389 27.2821 145.34 27.4523C145.075 27.4948 144.825 27.4975 144.553 27.4815C143.557 27.4283 142.544 27.3167 141.59 27.6783C141.541 27.6969 141.474 27.6943 141.414 27.6916C140.425 27.6544 139.458 27.8299 138.472 27.8645C137.805 27.8884 137.24 27.782 136.7 27.5134C136.488 27.8857 136.068 28.032 135.573 28.0559C135.256 28.0719 134.896 28.2607 134.613 28.0107C134.557 27.9602 135.475 27.4416 135.644 27.4736C135.997 27.54 136.35 27.4736 136.7 27.5134C136.919 27.3459 137.215 27.4097 137.473 27.3911C139.782 27.2395 142.092 27.0268 144.404 26.9816C145.729 26.955 147.063 26.8008 148.408 26.9975C149.023 27.088 149.701 26.947 150.351 26.9098C150.471 26.9018 150.591 26.8593 150.704 26.8726C150.93 26.8991 151.314 26.8486 151.322 27.0295C151.329 27.2183 150.951 27.1491 150.75 27.1598V27.1624ZM168.701 27.2661C168.436 27.205 168.115 27.3353 167.896 27.1358C167.878 27.1199 167.924 27.0321 167.942 27.0321C168.281 27.0241 168.602 26.83 168.952 26.9603C169.05 26.9975 169.128 27.0773 169.093 27.181C168.98 27.2608 168.835 27.298 168.697 27.2688L168.701 27.2661ZM176.257 24.5696C175.738 24.7079 175.155 24.7957 174.583 24.7265C174.523 24.6813 174.495 24.6335 174.573 24.6175C175.071 24.5005 175.494 24.1761 176.081 24.309C176.229 24.3436 176.349 24.4021 176.257 24.5696ZM250.933 30.295C251.156 30.1621 251.449 30.1115 251.696 30.1328C252.614 30.2126 253.528 30.1328 254.443 30.1594C254.711 30.1674 254.969 30.2312 255.22 30.3163C255.661 30.4626 256.117 30.5636 256.611 30.5477C256.851 30.5397 257.081 30.5876 257.314 30.6407C258.059 30.8083 258.814 30.9359 259.602 30.9333C259.838 30.9333 260.096 30.9519 260.304 31.0237C261.067 31.2869 261.851 31.4997 262.666 31.6486C262.779 31.6699 262.942 31.7231 262.924 31.8108C262.899 31.9518 262.695 31.9438 262.571 31.9225C261.702 31.7709 260.816 31.8241 259.941 31.8215C258.26 31.8161 256.625 31.5635 254.983 31.3481C254.446 31.279 253.92 31.3561 253.384 31.3189C252.9 31.2843 252.441 31.2683 252.024 31.0636C251.841 31.0077 251.59 31.0343 251.48 30.8668C251.41 30.7551 251.844 30.6753 251.547 30.5636C251.413 30.5131 251.201 30.5902 251.028 30.5849C250.915 30.5796 250.778 30.5317 250.771 30.4307C250.771 30.3881 250.873 30.3323 250.94 30.2924L250.933 30.295ZM224.737 23.0964C224.779 23.0033 224.931 23.0193 225.048 23.0086C225.62 22.9634 226.181 22.9953 226.693 23.2107C226.838 23.2719 227.198 23.2081 227.057 23.4713C226.944 23.6814 226.774 23.8702 226.386 23.7479C225.92 23.599 225.45 23.4607 224.97 23.3118C224.871 23.2586 224.673 23.2373 224.733 23.0937L224.737 23.0964ZM226.464 24.6441C226.089 24.6574 225.687 24.6308 225.33 24.5324C225.284 24.4739 225.245 24.4234 225.21 24.3755C225.263 24.3595 225.313 24.3356 225.369 24.3303C225.426 24.325 225.482 24.3409 225.539 24.3516C225.878 24.4101 226.209 24.4473 226.464 24.6441ZM185.596 27.0454C184.862 27.0986 184.128 27.1252 183.39 27.0667C183.319 27.0614 183.27 27.0348 183.284 26.9816C183.294 26.9497 183.347 26.9071 183.39 26.8992C183.591 26.8646 183.796 26.8141 183.997 26.8167C184.523 26.8167 185.049 26.838 185.575 26.8593C185.649 26.8619 185.741 26.8965 185.741 26.9816C185.695 27.0029 185.649 27.0427 185.596 27.0454ZM202.04 29.3989C201.719 29.4334 201.415 29.4627 201.083 29.351C200.568 29.1808 200.02 29.0558 199.438 29.1835C199.381 29.1968 199.293 29.218 199.265 29.1968C198.675 28.7793 197.972 29.0771 197.33 29.0133C196.8 28.9627 196.27 28.9149 195.748 28.7952C195.066 28.6383 194.353 28.5878 193.626 28.6596C192.238 28.7952 190.829 28.7287 189.442 28.9069C189.385 28.9149 189.315 28.9229 189.265 28.9069C188.269 28.625 187.245 28.5984 186.204 28.6888C186.115 28.6968 186.017 28.6782 186.006 28.5958C186.006 28.5771 186.091 28.5426 186.144 28.5293C186.454 28.4468 186.765 28.3538 187.097 28.3724C188.05 28.4229 188.993 28.4123 189.947 28.3086C190.557 28.2421 191.168 28.4708 191.807 28.4495C192.962 28.4149 194.12 28.4522 195.275 28.3405C195.79 28.2899 196.338 28.3857 196.867 28.4335C197.369 28.4761 197.863 28.5825 198.329 28.3219C198.435 28.2634 198.615 28.2634 198.76 28.2687C199.59 28.2899 200.419 28.3165 201.249 28.3458C201.366 28.3511 201.507 28.3511 201.592 28.399C201.747 28.4921 201.977 28.617 201.98 28.7314C201.98 28.8723 201.694 28.8378 201.528 28.867C201.44 28.883 201.352 28.8963 201.27 28.9202C201.196 28.9388 201.21 29.0053 201.246 29.0452C201.5 29.0691 201.8 29.1117 202.061 29.1489C202.132 29.1595 202.181 29.2367 202.241 29.2845C202.174 29.3244 202.111 29.3909 202.037 29.3989H202.04ZM186.698 26.8752C186.772 26.8486 186.839 26.8141 186.917 26.7954C188.05 26.5162 189.191 26.5029 190.339 26.7369C190.48 26.7662 190.635 26.7609 190.783 26.7715C190.872 26.7768 190.992 26.7715 190.978 26.8593C190.974 26.8912 190.836 26.9284 190.755 26.9364C190.074 27.0108 189.389 26.9204 188.704 26.9789C188.142 27.0268 187.57 26.9763 187.002 26.9656C186.913 26.9656 186.825 26.9497 186.744 26.9417C186.723 26.9124 186.709 26.8938 186.695 26.8752H186.698ZM205.218 28.6622C205.066 28.7606 204.904 28.7473 204.72 28.7261C204.197 28.6676 203.678 28.5639 203.142 28.6436C203.064 28.6543 202.951 28.6649 202.965 28.5639C202.969 28.5319 203.043 28.4761 203.085 28.4761C203.76 28.4628 204.43 28.4149 205.105 28.4841C205.154 28.4894 205.218 28.5186 205.239 28.5506C205.257 28.5798 205.229 28.6277 205.221 28.6649L205.218 28.6622ZM211.404 28.9654C210.483 28.9494 209.572 29.0478 208.639 28.883C207.954 28.7606 207.216 28.8112 206.5 28.8457C206.256 28.8564 205.836 28.9362 205.843 28.6702C205.85 28.4415 206.238 28.4867 206.507 28.5133C207.665 28.633 208.834 28.6197 209.999 28.6569C210.532 28.6755 211.062 28.7686 211.605 28.7075C211.704 28.6968 211.736 28.7739 211.711 28.8776C211.623 28.9042 211.514 28.9654 211.408 28.9654H211.404ZM237.508 27.4895C237.434 27.5267 237.346 27.5507 237.286 27.5959C236.989 27.8166 236.739 27.774 236.605 27.4948C236.477 27.2316 236.273 27.1837 235.92 27.189C234.631 27.2129 233.356 27.1278 232.095 26.9071C231.781 26.8513 231.446 26.8699 231.121 26.8513C229.454 26.7555 227.788 26.6598 226.121 26.5641C226.036 26.5588 225.952 26.5641 225.863 26.5641C225.93 26.604 225.99 26.6545 226.065 26.6837C226.407 26.83 226.788 26.8965 227.17 26.9577C227.311 26.9789 227.537 26.9869 227.541 27.0959C227.541 27.1731 227.3 27.1598 227.166 27.1491C226.481 27.0959 225.8 27.1305 225.115 27.1305C224.522 27.1305 224.137 27.3459 223.833 27.6251C223.678 27.7687 223.671 27.9921 223.328 28.0081C223.243 28.0107 223.162 28.0985 223.226 28.157C223.522 28.4309 223.286 28.9016 223.844 29.0771C223.988 29.1223 223.988 29.2021 223.808 29.2393C221.99 29.6249 220.154 29.7632 218.282 29.4813C217.852 29.4148 217.393 29.4388 216.965 29.3616C216.185 29.218 215.369 29.2101 214.628 28.9096C214.25 28.758 213.752 28.7899 213.3 28.8085C213.223 28.8112 213.092 28.7819 213.071 28.742C213 28.6144 213.198 28.6277 213.268 28.5745C213.427 28.4575 213.632 28.399 213.848 28.4468C214.646 28.6277 215.196 28.1676 215.843 27.9815C216.026 27.9283 216.033 27.5055 216.093 27.2475C216.107 27.1943 215.977 27.1731 215.881 27.1731C214.684 27.1704 213.526 26.8513 212.326 26.9124C211.743 26.9417 211.348 26.5854 210.807 26.5455C210.779 26.5455 210.726 26.471 210.74 26.4471C210.754 26.4152 210.825 26.3886 210.874 26.3806C211.139 26.346 211.404 26.3141 211.672 26.2928C212.192 26.2556 212.181 26.2609 212.026 25.8753C211.997 25.8062 211.987 25.7291 211.906 25.7397C211.129 25.8594 210.377 25.5748 209.603 25.6706C209.501 25.6839 209.402 25.7238 209.303 25.753C209.409 25.7902 209.508 25.8408 209.617 25.8647C209.995 25.9498 210.384 25.9578 210.776 25.9285C210.892 25.9205 211.033 25.9179 211.058 26.0322C211.058 26.0482 210.864 26.1147 210.762 26.112C210.165 26.0934 209.579 26.12 209.031 26.3301C208.94 26.3673 208.791 26.362 208.685 26.3354C207.693 26.1067 206.669 26.2157 205.659 26.1466C205.543 26.1386 205.416 26.1386 205.303 26.1652C204.452 26.3673 203.587 26.3194 202.718 26.2742C202.178 26.2476 201.655 26.2875 201.118 26.3726C200.395 26.487 199.635 26.588 198.908 26.5375C197.983 26.4737 197.065 26.729 196.15 26.5136C196.069 26.4949 195.97 26.5136 195.924 26.4364C195.995 26.4152 196.069 26.3673 196.133 26.3753C196.408 26.4072 196.669 26.4471 196.839 26.2131C196.924 26.0961 197.1 26.1413 197.234 26.1093C197.446 26.0615 197.782 26.3247 197.874 25.9737C197.471 25.8594 197.919 25.511 197.577 25.3647C197.418 25.2956 197.27 25.2398 197.083 25.2265C196.221 25.1653 195.356 25.0988 194.494 25.0323C193.721 24.9712 192.87 25.0403 192.189 24.8169C191.2 24.4925 190.257 24.7185 189.297 24.6787C188.527 24.6467 187.75 24.559 187.002 24.4207C186.493 24.3276 185.995 24.317 185.49 24.3356C183.407 24.4101 181.324 24.4074 179.241 24.325C179.124 24.3197 178.986 24.333 178.937 24.2292C178.881 24.1069 179.036 24.0856 179.135 24.0511C179.46 23.9394 179.788 23.8436 179.982 23.583C180.113 23.4049 180.402 23.4394 180.628 23.3969C181.423 23.2533 182.242 23.3676 183.036 23.2427C183.503 23.1682 183.955 23.0405 184.442 23.131C184.53 23.1469 184.65 23.1496 184.636 23.2294C184.629 23.2692 184.505 23.3198 184.428 23.3277C184.131 23.365 183.834 23.3916 183.538 23.4128C183.301 23.4288 183.149 23.5033 183.1 23.6894C183.065 23.825 183.001 23.9793 183.206 24.0431C183.436 24.1149 183.51 23.9872 183.534 23.833C183.566 23.6309 183.764 23.607 183.99 23.583C184.403 23.5378 184.876 23.5458 185.204 23.3889C185.508 23.2453 185.897 23.2161 186.14 23.0033C186.207 22.9448 186.296 22.9315 186.38 22.9555C186.829 23.0804 187.277 22.9182 187.701 22.9501C188.654 23.0219 189.593 22.8704 190.554 22.9422C191.37 23.006 192.213 22.8225 193.05 22.8863C193.393 22.9129 193.841 22.7454 194.039 23.1363C194.057 23.1709 194.212 23.1948 194.286 23.1788C194.985 23.0326 195.72 23.1895 196.419 23.0086C197.019 22.8544 197.658 22.8597 198.287 22.889C199.72 22.9555 201.154 22.9714 202.591 22.9953C203.558 23.0113 204.554 23.0405 205.518 23.2267C206.207 23.3597 206.916 23.4421 207.63 23.3118C207.778 23.2852 207.919 23.2613 208.067 23.2985C208.156 23.3198 208.247 23.3464 208.247 23.4235C208.247 23.4527 208.18 23.4979 208.131 23.5086C207.404 23.6575 206.641 23.7851 205.921 23.6309C205.384 23.5166 204.89 23.4873 204.356 23.5431C204.12 23.5671 203.88 23.5458 203.64 23.5538C203.572 23.5538 203.438 23.5299 203.481 23.6415C203.491 23.6735 203.569 23.7107 203.618 23.7107C204.303 23.7293 204.985 23.8596 205.652 23.8835C206.874 23.9314 208.071 24.1149 209.286 24.1867C210.32 24.2479 211.355 24.3728 212.375 24.5191C213 24.6095 213.629 24.6122 214.247 24.5909C215.599 24.543 216.93 24.6467 218.261 24.7877C218.611 24.8249 218.967 24.8302 219.324 24.8276C220.313 24.8249 221.284 24.9393 222.244 25.1095C222.438 25.144 222.625 25.1334 222.654 24.9552C222.678 24.8116 222.488 24.8169 222.361 24.7638C221.835 24.543 221.171 24.5005 220.811 24.0644C220.712 23.9447 220.525 23.8729 220.341 23.9367C219.893 24.0856 219.607 23.8835 219.299 23.7027C219.229 23.6628 219.147 23.6229 219.186 23.5511C219.204 23.5192 219.282 23.4873 219.335 23.4873C219.984 23.4713 220.638 23.4634 221.287 23.4448C221.69 23.4315 222.032 23.6176 222.424 23.6229C222.502 23.6229 222.527 23.6176 222.442 23.4767C222.357 23.341 222.382 23.2666 222.562 23.2214C222.851 23.1496 224.786 23.349 225.171 23.5139C225.214 23.5378 225.344 23.5937 225.457 23.6681C225.563 23.7399 225.468 23.8038 225.387 23.7931C224.896 23.732 224.709 24.0085 224.748 24.2452C224.783 24.4766 224.349 24.426 224.486 24.5936C224.575 24.6999 224.769 24.7531 224.906 24.8356C225.108 24.9552 225.111 24.9579 225.178 25.6573C225.185 25.7477 225.224 25.7636 225.313 25.7743C225.542 25.8062 225.849 25.7743 225.923 25.987C226.04 26.3221 226.4 26.3035 226.704 26.3194C227.943 26.3886 229.186 26.4391 230.425 26.4816C230.69 26.4896 230.951 26.5295 231.202 26.5455C231.725 26.5774 232.233 26.697 232.791 26.596C233.268 26.5082 233.804 26.5827 234.295 26.6891C235.076 26.8566 235.859 26.9842 236.675 27.0135C236.94 27.0215 237.208 27.0826 237.466 27.1358C237.611 27.1651 237.752 27.2369 237.759 27.3619C237.766 27.4868 237.586 27.447 237.498 27.4922L237.508 27.4895ZM238.472 27.3565C238.557 27.3406 238.642 27.306 238.723 27.3113C238.871 27.3193 239.02 27.3379 239.161 27.3725C239.899 27.5533 240.655 27.5959 241.421 27.5746C241.647 27.5693 241.83 27.6118 241.986 27.7288C242.025 27.7581 242.053 27.7927 242.085 27.8246C242.032 27.8432 241.982 27.8724 241.929 27.8804C241.555 27.9442 241.184 28.04 240.792 27.9522C240.082 27.7927 239.369 27.6358 238.663 27.4736C238.592 27.4576 238.539 27.3964 238.476 27.3565H238.472ZM241.156 35.0073C241.039 35.0099 240.919 35.0179 240.806 34.9966C240.584 34.9541 240.33 35.0551 240.139 34.9089C240.111 34.8849 240.104 34.7998 240.121 34.7919C240.361 34.6935 240.612 34.6749 240.87 34.7573C241.004 34.7998 241.142 34.8371 241.272 34.8849C241.301 34.8956 241.308 34.9461 241.322 34.9727C241.262 34.986 241.209 35.0073 241.152 35.0099L241.156 35.0073ZM242.303 31.1646C241.982 31.1247 241.65 31.1141 241.364 30.9678C241.682 30.8721 242.003 30.8375 242.349 30.8482C243.568 30.8827 244.786 30.9014 246.004 30.9173C247.091 30.9306 248.13 31.1008 249.161 31.3667C250.029 31.5901 250.951 31.6805 251.841 31.8587C252.593 32.0103 253.394 31.9491 254.125 32.1884C254.259 32.2336 254.411 32.2549 254.521 32.2789C254.623 32.3347 254.694 32.3746 254.764 32.4145C254.676 32.4118 254.584 32.4012 254.496 32.4065C254.259 32.4251 254.026 32.4916 253.8 32.3719C253.539 32.2336 253.267 32.2097 252.953 32.2895C252.692 32.3533 252.377 32.3134 252.176 32.1911C251.713 31.9066 251.177 31.9464 250.647 31.9225C249.884 31.8879 249.111 31.7949 248.387 31.6672C246.375 31.3082 244.316 31.4172 242.3 31.1673L242.303 31.1646ZM266.904 37.3235C265.498 37.0336 264.079 36.7837 262.67 36.5124C261.759 36.3369 260.866 36.0258 259.888 36.0736C259.595 36.0869 259.407 35.8981 259.139 35.8768C258.606 35.8343 258.08 35.7519 257.547 35.7013C256.985 35.6481 256.297 35.7731 255.936 35.212C255.816 35.0232 255.396 34.9674 255.047 34.9647C254.118 34.9647 253.225 34.8451 252.331 34.627C251.636 34.4568 250.877 34.3903 250.121 34.4089C249.341 34.4275 248.578 34.385 247.911 34.0074C247.663 33.8691 247.342 33.8664 247.049 33.9542C246.572 34.0951 246.177 33.909 245.778 33.8133C245.672 33.7361 245.513 33.667 245.524 33.6191C245.552 33.5128 245.686 33.4064 245.834 33.4064C246.099 33.4064 246.382 33.4144 246.625 33.4808C247.282 33.6617 247.946 33.6936 248.631 33.6484C248.839 33.6351 249.062 33.6138 249.256 33.6564C250.195 33.8638 251.131 33.7308 252.07 33.6697C252.13 33.667 252.194 33.6484 252.247 33.659C253.617 33.9409 255.114 33.7601 256.406 34.3504C256.812 34.5366 257.335 34.7041 257.769 34.2946C257.829 34.2361 258.013 34.2494 258.087 34.3292C258.154 34.401 258.03 34.4302 257.97 34.4701C257.727 34.6323 258.02 34.6509 258.097 34.6749C258.768 34.869 259.464 35.0019 260.177 35.0684C260.385 35.087 260.594 35.0897 260.792 35.1535C262.416 35.6827 264.167 35.8875 265.851 36.2571C267.454 36.6082 269.075 36.9219 270.622 37.4059C271.141 37.5681 271.607 37.8341 272.193 37.874C272.26 37.8793 272.317 37.9591 272.38 38.0043C272.309 38.0335 272.242 38.0734 272.168 38.0894C272.115 38.1027 272.048 38.0894 271.992 38.0814C270.293 37.8341 268.567 37.6612 266.904 37.3182V37.3235ZM274.626 40.4375C274.216 40.3817 273.807 40.3311 273.404 40.2513C273.118 40.1955 272.846 40.0785 272.543 40.1796C272.267 40.27 272.257 40.0891 272.193 39.9828C272.147 39.9056 271.995 39.7886 272.327 39.8046C273.199 39.8498 273.976 40.1264 274.788 40.3178C274.827 40.3258 274.848 40.3763 274.891 40.4242C274.792 40.4295 274.707 40.4508 274.626 40.4375ZM287.108 43.1765C287.019 43.1845 286.917 43.2031 286.843 43.1765C285.805 42.8122 284.65 42.767 283.577 42.5197C282.952 42.3761 282.355 42.1846 281.691 42.1607C281.469 42.1527 281.31 42.041 281.158 41.9453C280.971 41.8044 280.734 41.7645 280.505 41.7166C279.417 41.4879 278.33 41.2512 277.239 41.0305C276.882 40.9587 276.596 40.7938 276.285 40.6609C276.218 40.6316 276.098 40.6024 276.158 40.5279C276.194 40.4827 276.303 40.4614 276.384 40.4481C276.469 40.4348 276.575 40.4189 276.653 40.4428C277.595 40.7327 278.644 40.7247 279.573 41.0571C280.978 41.5597 282.472 41.8868 283.955 42.2325C284.837 42.4399 285.755 42.5543 286.603 42.8468C286.79 42.9106 286.981 42.9744 287.168 43.0436C287.21 43.0595 287.238 43.1021 287.274 43.134C287.217 43.15 287.164 43.1739 287.108 43.1792V43.1765ZM282.21 40.7034C282.281 40.6768 282.352 40.629 282.422 40.6263C283.058 40.5891 283.665 40.6768 284.233 40.8922C284.318 40.9241 284.361 40.9933 284.329 41.0624C284.315 41.0917 284.241 41.1236 284.198 41.1209C283.644 41.0704 283.089 41.0146 282.599 40.964C282.468 40.8869 282.397 40.847 282.33 40.8018C282.288 40.7726 282.249 40.7353 282.21 40.7034ZM311.044 46.0087C310.62 45.9768 310.242 45.8278 309.893 45.663C309.497 45.4742 309.113 45.3891 308.654 45.4343C308.809 45.5008 308.95 45.5672 309.102 45.6417C309.197 45.6869 309.335 45.7427 309.264 45.8438C309.19 45.9475 309.056 45.8837 308.954 45.8518C308.11 45.5991 307.238 45.4662 306.327 45.5034C306.178 45.5087 305.998 45.5194 305.885 45.4635C305.229 45.1418 304.469 45.1098 303.738 45.0593C302.909 45.0035 302.185 44.7535 301.433 44.5354C301.267 44.4876 301.104 44.4264 300.931 44.3865C300.787 44.3546 300.617 44.3413 300.571 44.4902C300.539 44.5913 300.645 44.6551 300.762 44.6897C301.401 44.8811 302.029 45.1019 302.686 45.2481C303.269 45.3784 303.823 45.5087 304.268 45.8385C304.551 46.0486 304.967 46.0884 305.303 46.2347C305.341 46.2533 305.363 46.2959 305.394 46.3278C305.341 46.3464 305.278 46.3889 305.236 46.3783C304.392 46.1789 303.47 46.1709 302.7 45.7773C302.146 45.4928 301.465 45.4582 300.843 45.3146C300.331 45.1976 299.794 45.1364 299.265 45.062C298.612 44.9716 298.057 44.695 297.436 44.5381C296.168 44.2163 294.964 43.7509 293.647 43.5355C293.29 43.477 293.146 43.2164 292.838 43.1367C292.443 43.0329 292.04 42.9452 291.631 42.8867C290.19 42.6793 288.863 42.19 287.433 41.9453C286.571 41.799 285.759 41.4799 284.873 41.3549C284.731 41.3337 284.583 41.2539 284.629 41.1156C284.678 40.9747 284.866 40.9561 284.989 41.0146C285.635 41.3124 286.412 40.9694 287.055 41.2672C287.69 41.5624 288.435 41.5836 289.138 41.6262C290.148 41.6847 291.112 41.9746 292.136 41.94C292.333 41.9347 292.538 42.0144 292.74 42.0517C293.982 42.283 295.282 42.3389 296.475 42.7271C296.609 42.7723 296.797 42.775 296.867 42.6553C296.941 42.5303 296.8 42.4452 296.659 42.3974C296.112 42.2139 295.578 42.0038 295.013 41.8602C293.855 41.5677 292.715 41.2379 291.532 41.0039C290.614 40.8204 289.749 40.4907 288.792 40.4029C288.555 40.3817 288.322 40.3444 288.086 40.3258C287.694 40.2966 287.372 40.2753 287.224 39.8897C287.083 39.5227 286.546 39.3924 286.077 39.3392C284.558 39.169 283.206 38.5707 281.695 38.3899C281.109 38.0176 280.364 38.0601 279.679 37.9697C278.496 37.8128 277.44 37.3474 276.246 37.2278C275.219 37.124 274.262 36.8049 273.249 36.6374C272.204 36.4645 271.137 36.3954 270.103 36.1933C269.478 36.0683 268.814 36.079 268.171 35.9885C267.444 35.8901 266.914 35.478 266.194 35.4141C266.155 35.4115 266.102 35.3503 266.095 35.3131C266.077 35.2333 266.166 35.1908 266.25 35.1828C266.663 35.1429 267.08 35.1216 267.493 35.1828C267.758 35.22 268.037 35.2466 268.27 35.337C269.209 35.704 270.258 35.5604 271.236 35.7386C271.346 35.7572 271.494 35.7625 271.582 35.7226C271.932 35.5577 272.267 35.6482 272.617 35.7093C273.143 35.8024 273.669 35.8822 274.199 35.9593C274.403 35.9912 274.693 35.9354 274.615 36.2199C275.042 36.3688 275.473 36.5204 275.939 36.3103C276.105 36.2359 276.257 36.2146 276.444 36.2598C277.991 36.6161 279.587 36.7757 281.186 36.9246C281.716 36.9751 282.193 37.2198 282.743 37.2331C282.832 37.2331 282.916 37.2437 283.005 37.2464C282.941 37.2038 282.885 37.1427 282.811 37.1214C281.914 36.8821 281.042 36.5683 280.07 36.5443C279.732 36.5364 279.428 36.4539 279.11 36.3981C278.979 36.3768 278.912 36.3023 278.916 36.2013C278.916 36.0896 279.05 36.0205 279.145 36.0205C279.968 36.0311 280.71 35.7279 281.515 35.688C281.755 35.6774 281.995 35.7067 282.21 35.6003C282.327 35.5444 282.535 35.5604 282.539 35.4115C282.542 35.2466 282.369 35.1748 282.193 35.1509C282.051 35.1296 281.882 35.1243 281.751 35.1642C281.306 35.2971 280.868 35.2333 280.431 35.1615C280.258 35.1323 280.081 35.0658 279.908 35.1429C279.753 35.212 279.463 35.3051 279.442 35.22C279.389 34.9887 278.965 34.9036 279.078 34.6403C279.227 34.2893 278.926 34.2706 278.591 34.1669C278.051 33.9967 277.542 33.8718 276.963 34.018C276.787 34.0632 276.571 34.0313 276.455 33.9303C276.137 33.659 275.731 33.6962 275.311 33.6564C274.064 33.5393 272.846 33.3106 271.639 33.0554C271.557 33.0367 271.448 33.0208 271.466 32.949C271.473 32.9197 271.628 32.9224 271.699 32.8878C272.225 32.6325 272.85 32.7416 273.415 32.6059C273.867 32.4969 274.315 32.4331 274.714 32.1991C275.378 31.8108 276.109 31.7576 276.882 32.0821C277.638 32.4012 278.471 32.5794 279.308 32.7495C280.085 32.9091 280.83 33.1484 281.592 33.3479C281.875 33.4223 282.182 33.4516 282.447 33.55C282.673 33.6324 283.072 33.659 282.842 34.0154C282.747 34.1643 283.022 34.2254 283.181 34.2467C284.371 34.3903 285.48 34.7307 286.603 35.0445C286.797 35.1003 286.995 35.1588 287.178 35.2306C287.281 35.2705 287.365 35.337 287.461 35.3902C287.348 35.3849 287.231 35.3769 287.118 35.3716C286.578 35.345 286.052 35.2519 285.543 35.119C285.219 35.0339 284.933 34.9674 284.632 35.1588C284.53 35.2227 284.272 35.1402 284.237 35.2546C284.191 35.4168 284.449 35.4301 284.587 35.4913C284.71 35.5471 284.862 35.6216 284.996 35.6136C286.267 35.5498 287.348 36.0497 288.506 36.2944C288.933 36.3848 289.473 36.4007 289.759 36.7385C289.848 36.8422 289.89 36.7624 289.95 36.7385C290.296 36.6055 290.699 36.7278 290.865 36.8581C291.136 37.0682 291.497 37.0948 291.769 37.257C292.454 37.6692 293.287 37.7437 294.106 37.858C294.339 37.8899 294.572 37.9378 294.798 37.9936C294.862 38.0096 294.9 38.0814 294.95 38.1266C294.893 38.1425 294.833 38.1771 294.788 38.1718C294.184 38.0867 293.58 38.1425 292.951 38.0229C292.115 37.8633 291.267 37.6852 290.402 37.5921C290.317 37.5841 290.225 37.6107 290.137 37.624C290.201 37.6612 290.257 37.7197 290.328 37.733C291.627 37.9803 292.81 38.4803 294.117 38.7276C294.59 38.818 295.049 38.7356 295.522 38.8313C295.889 38.9058 296.253 38.951 296.609 39.0839C296.97 39.2196 297.316 39.3658 297.789 39.3179C298.241 39.2701 298.619 39.5546 298.958 39.7727C299.145 39.8923 298.88 39.8764 298.809 39.8977C298.728 39.9216 298.562 39.9083 298.555 39.9296C298.527 40.0386 298.682 40.028 298.763 40.0599C299.021 40.1663 299.268 40.3125 299.522 40.0333C299.688 39.8525 299.964 39.9402 300.193 39.9588C301.383 40.0519 302.524 40.3178 303.657 40.5864C304.854 40.871 306.034 41.1927 307.223 41.4985C307.308 41.5198 307.407 41.5198 307.481 41.5544C308.237 41.9081 308.989 42.2644 309.741 42.6208C309.893 42.6926 310.084 42.7777 309.985 42.9319C309.921 43.0329 309.723 43.0356 309.579 42.9931C309.331 42.9186 309.109 42.9665 308.894 43.0595C308.827 43.0888 308.77 43.134 308.706 43.1712C308.781 43.2005 308.851 43.2377 308.929 43.2616C309.038 43.2936 309.211 43.3042 309.197 43.4052C309.176 43.5355 308.992 43.5462 308.844 43.5542C308.343 43.5781 307.87 43.5675 307.368 43.4372C306.496 43.2085 305.571 43.1074 304.699 42.8681C304.533 42.8229 304.325 42.8282 304.236 42.6926C303.876 42.1341 303.195 42.1128 302.506 42.0862C302.361 42.0809 302.199 42.065 302.075 42.0118C301.355 41.7086 300.55 41.8602 299.794 41.7459C299.738 41.7379 299.639 41.7352 299.621 41.7565C299.406 42.0331 298.707 41.8256 298.735 42.0517C298.777 42.3867 299.335 42.182 299.653 42.2591C300.19 42.3894 300.716 42.3788 301.235 42.2511C301.708 42.1341 302.114 42.3096 302.541 42.3814C302.965 42.4506 302.291 42.5915 302.559 42.6926C302.799 42.783 303.032 42.8867 303.276 42.9691C304.6 43.4185 306.016 43.7111 307.248 44.3121C307.333 44.3546 307.51 44.3307 307.478 44.4557C307.46 44.5248 307.344 44.5221 307.252 44.5168C307.206 44.5168 307.036 44.5275 307.121 44.5541C307.552 44.687 307.266 45.0939 307.601 45.2268C307.937 45.3572 308.29 45.4183 308.671 45.4236C308.533 45.3784 308.406 45.3439 308.283 45.2854C308.187 45.2401 308.039 45.1285 308.06 45.1019C308.124 45.0088 308.269 45.0859 308.375 45.07C309.346 44.9423 310.207 45.1072 310.956 45.5938C311.023 45.6364 311.118 45.6497 311.192 45.6869C311.362 45.772 311.754 45.7667 311.704 45.881C311.634 46.0459 311.295 46.014 311.058 45.9954L311.044 46.0087ZM334.595 63.9189C334.352 63.762 334.083 63.5891 333.819 63.4109C333.727 63.3498 333.649 63.2567 333.727 63.1769C333.815 63.0839 333.932 63.1557 334.016 63.2088C334.288 63.3817 334.56 63.5519 334.818 63.7354C334.92 63.8072 335.069 63.98 335.054 63.9907C334.888 64.105 334.783 63.9322 334.592 63.9162L334.595 63.9189ZM333.85 56.0501C333.96 55.8905 334.161 55.9863 334.324 56.0394C334.828 56.2043 335.234 56.4649 335.609 56.7601C335.697 56.8292 335.757 56.9143 335.69 56.9941C335.665 57.0234 335.521 57.0154 335.439 56.9968C335.27 56.9569 335.107 56.8984 334.973 56.8558C334.694 56.675 334.444 56.5208 334.105 56.4623C333.815 56.4091 333.716 56.2362 333.847 56.0474L333.85 56.0501ZM333.706 57.9674C333.819 57.7866 334.052 57.9541 334.232 58.0286C334.292 58.0578 334.373 58.0871 334.433 58.1323C334.486 58.1722 334.592 58.2174 334.486 58.2865C334.451 58.3078 334.376 58.3105 334.327 58.3025C334.242 58.2865 334.158 58.2599 334.087 58.2227C333.939 58.1456 333.586 58.1536 333.702 57.9674H333.706ZM333.921 60.4219C334.454 60.3873 334.906 60.5416 335.249 60.741C335.902 61.0256 336.559 61.2197 336.693 61.818C336.707 61.8872 336.859 61.9377 336.947 61.9989C337.067 62.0786 337.275 62.1079 337.229 62.2808C337.074 62.2276 336.891 62.1983 336.77 62.1159C336.34 61.8234 335.828 61.6665 335.284 61.5388C334.645 61.3872 334.175 61.0468 333.762 60.6639C333.713 60.616 333.706 60.5442 333.677 60.4831C333.759 60.4645 333.84 60.4299 333.921 60.4246V60.4219ZM328.716 58.4886C328.752 58.4541 328.886 58.4567 328.96 58.4727C329.098 58.5046 329.221 58.5631 329.359 58.611C329.433 58.6562 329.603 58.6695 329.543 58.7705C329.49 58.8609 329.338 58.8397 329.232 58.8051C329.101 58.7625 328.967 58.712 328.861 58.6402C328.805 58.6003 328.586 58.611 328.713 58.486L328.716 58.4886ZM327.067 48.1201C326.972 48.2531 326.785 48.2744 326.608 48.2185C326.45 48.168 326.301 48.0909 326.121 48.0164C325.976 47.9287 325.595 47.9154 325.68 47.7186C325.779 47.4899 326.128 47.5909 326.379 47.6228C326.548 47.6468 326.732 47.6681 326.88 47.7319C327.071 47.8117 327.184 47.9553 327.067 48.1201Z" fill="#FFC300"/>
<path d="M231.285 37.8503C230.423 37.8982 229.643 37.6562 228.824 37.5524C227.93 37.4381 227.033 37.3955 226.137 37.244C225.141 37.0738 224.099 36.9408 223.061 36.8929C222.697 36.877 222.366 36.7946 222.03 36.6855C221.366 36.4675 220.671 36.3212 219.936 36.4887C219.661 36.5526 219.403 36.4861 219.138 36.4701C216.935 36.3478 214.802 35.8691 212.599 35.7601C211.384 35.6989 210.18 35.4463 208.951 35.6803C208.761 35.7176 208.531 35.6803 208.33 35.6457C206.395 35.3293 204.418 35.2602 202.451 35.1245C201.123 35.0341 199.785 34.9889 198.482 34.7708C197.306 34.5767 196.113 34.5767 194.93 34.473C193.952 34.3879 192.956 34.4757 191.975 34.3533C191.738 34.3241 191.505 34.3081 191.261 34.3188C190.124 34.3613 188.984 34.2656 187.882 34.114C187.233 34.0236 186.601 33.997 185.958 33.9704C185.661 33.9571 185.333 34.0316 185.072 33.9571C183.815 33.6034 182.491 33.8481 181.205 33.6805C180.16 33.5449 179.073 33.6167 178.003 33.5768C176.781 33.5316 175.559 33.5742 174.338 33.5901C174.239 33.5901 174.055 33.5795 174.059 33.6673C174.059 33.7497 174.235 33.755 174.355 33.7683C175.863 33.9252 177.385 33.8747 178.9 33.989C179.807 34.0582 180.725 34.1193 181.65 34.1326C183.525 34.1619 185.379 34.481 187.268 34.4092C187.617 34.3959 187.988 34.4384 188.327 34.5129C188.656 34.5847 188.973 34.5714 189.302 34.5767C190.068 34.5874 190.845 34.5767 191.6 34.6512C192.066 34.6964 192.533 34.8001 193.009 34.84C195.205 35.0261 197.423 35.0767 199.605 35.3772C201.342 35.6165 203.111 35.683 204.863 35.8611C206.448 36.0234 208.03 36.2308 209.636 36.2893C210.103 36.3052 210.586 36.3079 211.056 36.3824C212.61 36.6217 214.181 36.768 215.763 36.8637C216.773 36.9249 217.807 36.9195 218.778 37.1057C221.101 37.5498 223.534 37.4115 225.84 37.9168C225.893 37.9301 225.96 37.9088 226.02 37.9114C227.058 37.954 228.114 37.8423 229.134 38.0816C229.212 38.1003 229.322 38.1056 229.389 38.0816C230.165 37.7758 230.727 38.2252 231.327 38.3396C231.567 38.6241 231.896 38.5656 232.185 38.5869C232.291 38.5949 232.351 38.5098 232.259 38.4779C231.846 38.3396 231.814 37.8237 231.288 37.8529L231.285 37.8503Z" fill="#FFC300"/>
<path d="M270.689 45.3918C269.753 45.1073 268.842 44.7775 267.854 44.602C266.809 44.4158 265.774 44.2004 264.746 43.9505C264.273 43.8361 263.79 43.6713 263.26 43.7989C263.112 43.8335 262.949 43.8095 262.833 43.7377C262.328 43.416 261.703 43.3761 261.099 43.2484C260.435 43.1075 259.75 43.041 259.1 42.8761C256.639 42.2512 254.09 41.8736 251.565 41.4348C251.103 41.355 250.577 41.2779 250.086 41.4295C250.919 41.7486 251.813 41.9055 252.727 42.0331C253.253 42.1076 253.783 42.1794 254.305 42.2751C255.432 42.4879 256.519 42.799 257.667 42.9506C258.341 43.0383 259.005 43.1819 259.665 43.3282C261.427 43.7165 263.175 44.1499 264.987 44.4079C266.042 44.5568 267.091 44.7163 268.115 44.9796C268.931 45.1897 269.771 45.3439 270.604 45.5168C270.685 45.5354 270.784 45.5168 270.873 45.5168C270.813 45.4742 270.76 45.4157 270.689 45.3945V45.3918Z" fill="#FFC300"/>
<path d="M324.181 65.4611C323.436 65.3095 322.642 65.1686 322.08 64.775C321.519 64.3814 320.809 64.2378 320.177 64.1208C319.291 63.9586 318.539 63.6421 317.726 63.3868C316.858 63.1129 316.01 62.7593 315.05 62.6821C314.821 62.6635 314.679 62.5625 314.496 62.488C314.075 62.3205 313.641 62.0625 313.207 62.0546C312.55 62.0439 311.904 62.0253 311.258 61.9322C311.169 61.9189 311.057 61.9322 311.067 62.012C311.074 62.0599 311.166 62.1264 311.24 62.145C311.717 62.2673 312.179 62.4455 312.713 62.3231C312.91 62.2779 313.179 62.363 313.129 62.4721C312.924 62.9055 313.405 62.8603 313.652 62.8975C314.241 62.9906 314.792 63.1608 315.364 63.2831C315.947 63.4081 316.371 63.7804 316.996 63.8256C317.868 63.8895 318.648 64.1554 319.404 64.4612C319.877 64.6527 320.346 64.8681 320.883 64.9266C321.402 64.9851 321.844 65.1446 322.214 65.3574C322.359 65.4185 322.469 65.4558 322.564 65.5089C323.132 65.8094 323.863 65.8307 324.439 66.1259C324.545 66.1791 324.686 66.1286 324.767 66.0701C324.859 66.0036 324.82 65.9105 324.778 65.8227C324.675 65.61 324.474 65.5169 324.188 65.4611H324.181Z" fill="#FFC300"/>
<path d="M219.374 35.6429C220.083 35.3822 220.754 35.4514 221.4 35.7678C221.63 35.8795 221.873 35.9008 222.163 35.8902C222.89 35.8662 223.628 35.8343 224.338 36.0231C224.391 36.0364 224.458 36.0284 224.518 36.0364C226.082 36.2093 227.661 36.2704 229.218 36.5045C229.861 36.6002 230.535 36.6986 231.213 36.6374C231.294 36.6294 231.439 36.5975 231.439 36.5789C231.439 36.4938 231.333 36.4965 231.241 36.4885C230.916 36.4619 230.577 36.4593 230.267 36.3928C229.063 36.1322 227.823 35.9939 226.591 35.8556C226.001 35.7891 225.412 35.72 224.822 35.6535C223.886 35.5471 222.947 35.4647 222.004 35.3849C221.577 35.3477 221.083 35.454 220.864 35.0286C220.839 34.9834 220.722 34.9541 220.641 34.9355C220.133 34.8211 219.631 34.8876 219.137 34.9807C219.017 35.002 218.925 35.0738 218.968 35.1828C219.035 35.3477 219.119 35.5099 219.194 35.6748C219.257 35.6668 219.321 35.6694 219.37 35.6508L219.374 35.6429Z" fill="#FFC300"/>
<path d="M184.047 32.9407C184.604 32.9407 185.166 32.9673 185.734 33.0417C186.222 33.1055 186.779 33.2279 187.302 32.9992C187.454 32.9327 187.715 32.9699 187.913 33.0045C189.06 33.1933 190.229 33.063 191.38 33.1481C191.469 33.1534 191.56 33.1375 191.645 33.1242C191.691 33.1162 191.733 33.0869 191.776 33.0683C191.737 33.0391 191.698 32.9885 191.656 32.9859C190.713 32.9088 189.816 32.6402 188.838 32.6801C187.863 32.7226 186.868 32.7386 185.911 32.6348C185.053 32.5418 184.202 32.4966 183.34 32.4593C182.246 32.4115 181.148 32.5205 180.046 32.3078C179.559 32.2147 178.923 32.1748 178.457 32.5099C178.514 32.5285 178.563 32.5444 178.619 32.5498C180.424 32.7093 182.214 32.9407 184.039 32.9433L184.047 32.9407Z" fill="#FFC300"/>
<path d="M224.89 38.9909C224.759 38.9537 224.59 38.967 224.445 38.9856C223.531 39.1133 222.648 38.9112 221.832 38.6984C220.731 38.4139 219.558 38.4431 218.446 38.3208C218.28 38.3314 218.118 38.374 218.121 38.5202C218.121 38.6319 218.206 38.6771 218.34 38.6878C218.665 38.7091 218.979 38.7835 219.304 38.8181C220.003 38.8925 220.731 38.85 221.401 38.9776C222.044 39.1 222.69 39.1452 223.336 39.209C223.485 39.2223 223.633 39.2356 223.778 39.2622C225.081 39.5042 226.405 39.5733 227.739 39.6052C227.817 39.6052 227.895 39.5919 228.018 39.5786C227.905 39.5228 227.838 39.4643 227.761 39.4563C226.793 39.3313 225.812 39.2648 224.886 38.9909H224.89Z" fill="#FFC300"/>
<path d="M249.278 41.0571C248.059 40.746 246.771 40.7008 245.531 40.4721C244.267 40.2381 242.989 40.036 241.697 39.9003C240.842 39.8099 240.012 39.5945 239.144 39.5706C239.055 39.5706 238.967 39.5573 238.879 39.5493C238.904 39.6557 239.031 39.6743 239.13 39.6876C240.683 39.9003 242.177 40.2833 243.745 40.4747C245.655 40.7061 247.53 41.1023 249.419 41.4294C249.645 41.4693 249.871 41.5916 250.09 41.4294C249.881 41.2247 249.602 41.1422 249.278 41.0598V41.0571Z" fill="#FFC300"/>
<path d="M199.637 33.6429C199.563 33.6509 199.457 33.6482 199.457 33.7306C199.457 33.7546 199.545 33.7785 199.644 33.829C199.789 33.8636 199.987 33.9354 200.188 33.9514C201.403 34.0418 202.617 34.1242 203.832 34.1987C203.941 34.2066 204.072 34.1668 204.164 34.1189C204.443 33.9779 204.729 33.9966 205.025 34.0604C205.661 34.196 206.325 34.1588 206.971 34.2226C207.045 34.2306 207.183 34.196 207.193 34.1668C207.215 34.0923 207.109 34.0551 207.024 34.0391C206.939 34.0232 206.844 34.0338 206.759 34.0178C205.442 33.8024 204.079 33.8716 202.762 33.6189C201.731 33.4222 200.679 33.5365 199.641 33.6429H199.637Z" fill="#FFC300"/>
<path d="M329.712 68.4634C329.416 68.3969 329.034 68.4634 328.837 68.2108C328.547 67.8385 328.053 67.9953 327.643 67.9448C327.597 67.9395 327.537 67.9794 327.484 67.998C327.513 68.0352 327.527 68.0858 327.566 68.1097C327.915 68.3171 328.268 68.5192 328.607 68.716C328.932 68.8144 329.229 68.9261 329.539 68.9899C329.875 69.0591 330.27 68.9048 330.246 68.7293C330.21 68.5006 329.942 68.5166 329.712 68.466V68.4634Z" fill="#FFC300"/>
<path d="M221.352 38.0125C221.408 38.0151 221.468 37.9965 221.514 37.9912C221.56 37.8875 221.468 37.8556 221.397 37.8635C221.041 37.8955 220.773 37.7173 220.472 37.6375C219.773 37.4514 219.074 37.4434 218.364 37.5497C218.248 37.5684 218.085 37.579 218.068 37.6694C218.05 37.7705 218.202 37.7997 218.322 37.8077C219.332 37.8768 220.342 37.946 221.352 38.0125Z" fill="#FFC300"/>
<path d="M213.746 38.1401C212.927 37.93 212.08 37.8874 211.232 37.8236C211.155 37.8183 211.073 37.8396 210.992 37.8475C211.052 37.8954 211.112 37.9433 211.162 37.9858C211.363 38.0656 211.557 38.1055 211.765 38.1268C212.613 38.2092 213.46 38.3049 214.311 38.3953C214.456 38.4113 214.604 38.4219 214.753 38.4219C214.799 38.4219 214.848 38.3847 214.894 38.3661C214.855 38.3342 214.823 38.2943 214.777 38.2677C214.463 38.0895 214.075 38.2278 213.746 38.1454V38.1401Z" fill="#FFC300"/>
<path d="M340.641 59.7862C340.595 59.8314 340.57 59.8553 340.626 59.9005C340.951 60.1558 341.276 60.4111 341.569 60.6425C341.746 60.7036 341.838 60.6664 341.859 60.5574C341.905 60.2861 341.869 60.0176 341.65 59.7915C341.414 59.5469 340.881 59.5548 340.641 59.7862Z" fill="#FFC300"/>
<path d="M295.401 53.9415C295.038 53.8378 294.663 53.7554 294.31 53.6383C293.89 53.4974 293.406 53.5213 292.965 53.4814C293.043 53.516 293.078 53.5931 293.156 53.625C293.893 53.8006 294.617 54 295.359 54.1649C295.472 54.1888 295.687 54.2713 295.726 54.133C295.758 54.0213 295.539 53.9787 295.405 53.9388L295.401 53.9415Z" fill="#FFC300"/>
<path d="M235.792 38.8928C235.648 38.8475 235.439 38.9007 235.263 38.9193C235.189 38.9273 235.079 38.9406 235.1 39.0257C235.107 39.0576 235.182 39.0975 235.231 39.1055C236.05 39.2198 236.883 39.2916 237.685 39.4751C237.734 39.4858 237.798 39.4592 237.854 39.4485C237.918 39.3688 237.84 39.3315 237.763 39.3129C237.113 39.1534 236.428 39.0949 235.792 38.8954V38.8928Z" fill="#FFC300"/>
<path d="M267.992 39.3736C267.85 39.3869 267.656 39.4587 267.578 39.3496C267.264 38.9135 266.636 39.222 266.23 39.0092C266.205 38.9959 266.127 39.0412 266.074 39.0598C266.106 39.0917 266.127 39.1422 266.17 39.1502C266.646 39.2672 267.151 39.355 267.585 39.5145C268.083 39.6953 268.412 39.6315 268.768 39.4002C268.514 39.2991 268.253 39.347 267.988 39.3762L267.992 39.3736Z" fill="#FFC300"/>
<path d="M270.504 47.0567C269.995 46.9716 269.483 46.9024 268.978 46.804C268.657 46.7402 268.314 46.6232 267.954 46.6392C267.898 46.6418 267.841 46.6578 267.781 46.6684C267.813 46.703 267.88 46.7535 267.912 46.7854C268.745 46.9344 269.614 47.1019 270.451 47.2428C270.518 47.2535 270.659 47.2083 270.67 47.171C270.694 47.1019 270.592 47.07 270.504 47.0567Z" fill="#FFC300"/>
<path d="M340.027 53.96C339.911 54.1089 340.027 54.5184 340.218 54.6408C340.299 54.6939 340.913 54.6115 340.956 54.545C340.606 54.4147 340.603 54.069 340.331 53.8988C340.239 53.8403 340.098 53.8722 340.027 53.96Z" fill="#FFC300"/>
<path d="M246.547 42.424C246.417 42.3522 246.12 42.3788 245.827 42.3761C245.668 42.3761 245.425 42.2884 245.41 42.4745C245.4 42.6181 245.654 42.6367 245.824 42.6607C246.078 42.6979 246.346 42.6261 246.6 42.7218C246.678 42.7511 246.83 42.8415 246.865 42.6899C246.886 42.5969 246.77 42.5384 246.544 42.424H246.547Z" fill="#FFC300"/>
<path d="M150.226 36.087C149.675 36.0338 149.121 35.9141 148.563 36.0498C148.496 36.0657 148.376 36.079 148.408 36.1668C148.418 36.1934 148.499 36.2173 148.549 36.2199C149.082 36.2386 149.612 36.2519 150.145 36.2652C150.201 36.2652 150.258 36.2386 150.314 36.2253C150.381 36.1428 150.283 36.0923 150.226 36.087Z" fill="#FFC300"/>
<path d="M178.46 32.5076C177.895 32.2736 177.312 32.1858 176.688 32.3666C177.252 32.598 177.839 32.6751 178.46 32.5076Z" fill="#FFC300"/>
<path d="M204.724 37.2971C204.283 37.2705 203.884 37.0445 203.418 37.1376C203.347 37.1509 203.238 37.1269 203.234 37.212C203.234 37.2386 203.316 37.2652 203.361 37.2918C203.792 37.3955 204.237 37.4141 204.686 37.3982C204.742 37.3982 204.795 37.3876 204.852 37.3822C204.809 37.353 204.77 37.2998 204.724 37.2971Z" fill="#FFC300"/>
<path d="M150.935 36.1455C150.899 36.1695 150.892 36.2492 150.871 36.2811C151.404 36.2758 152.019 36.3423 152.541 36.2226C152.026 36.0844 151.457 36.1588 150.935 36.1455Z" fill="#FFC300"/>
<path d="M193.644 36.4698C193.591 36.4618 193.517 36.539 193.453 36.5762C193.513 36.6214 193.57 36.7012 193.633 36.7038C194.043 36.7171 194.449 36.749 194.844 36.8315C194.887 36.8395 194.947 36.7996 195 36.781C194.975 36.7464 194.961 36.6852 194.926 36.6772C194.498 36.6001 194.071 36.5283 193.64 36.4698H193.644Z" fill="#FFC300"/>
<path d="M208.702 37.6775C208.613 37.6721 208.578 37.728 208.642 37.7572C208.981 37.9141 209.369 37.9274 209.75 37.9647C209.839 37.9726 209.927 37.9647 210.015 37.9593C210.072 37.954 210.128 37.9381 210.185 37.9274C210.149 37.8955 210.121 37.8583 210.075 37.8344C209.652 37.6136 209.164 37.7041 208.702 37.6748V37.6775Z" fill="#FFC300"/>
<path d="M198.148 31.6168C198.155 31.6487 198.233 31.6833 198.286 31.6939C198.805 31.7843 199.338 31.7604 199.868 31.779C199.391 31.5503 198.848 31.5742 198.314 31.553C198.258 31.553 198.131 31.5131 198.152 31.6168H198.148Z" fill="#FFC300"/>
<path d="M250.798 42.23C250.53 42.1874 250.265 42.23 250.004 42.2752C249.93 42.2885 249.855 42.3124 249.781 42.3337C249.848 42.3736 249.908 42.4427 249.979 42.4507C250.212 42.4799 250.452 42.4932 250.689 42.4985C250.77 42.4985 250.851 42.4613 250.915 42.4454C250.936 42.4081 250.961 42.3895 250.961 42.3682C250.954 42.2938 250.89 42.2433 250.798 42.23Z" fill="#FFC300"/>
<path d="M203.277 32.5022C203.288 32.3932 203.065 32.3719 202.921 32.3666C202.627 32.356 202.345 32.2469 202.045 32.2948C201.988 32.3028 201.932 32.3241 201.879 32.3373C201.897 32.3666 201.957 32.4065 201.974 32.4357C202.267 32.4703 202.599 32.5182 202.892 32.5421C203.026 32.5528 203.27 32.5847 203.277 32.5022Z" fill="#FFC300"/>
<path d="M193.14 33.154C193.171 33.0689 193.133 32.9998 193.048 32.9865C192.878 32.9599 192.702 32.9439 192.532 32.9466C192.405 32.9492 192.207 32.9359 192.211 33.0875C192.215 33.1992 192.384 33.1779 192.49 33.1939C192.716 33.2258 192.942 33.2737 193.14 33.154Z" fill="#FFC300"/>
<path d="M170.412 33.6962C170.391 33.7228 170.394 33.7866 170.423 33.8052C170.564 33.901 171.235 33.8425 171.323 33.7334C171.32 33.6935 171.334 33.6324 171.305 33.6138C171.118 33.4941 170.529 33.5473 170.412 33.6935V33.6962Z" fill="#FFC300"/>
<path d="M176.687 32.3644C176.277 32.2314 175.846 32.2501 175.412 32.266C175.356 32.266 175.303 32.282 175.246 32.29C175.288 32.3192 175.334 32.3777 175.37 32.375C175.808 32.3272 176.256 32.5772 176.69 32.3618L176.687 32.3644Z" fill="#FFC300"/>
<path d="M172.801 33.5924C172.447 33.5605 172.094 33.5232 171.755 33.6509C171.685 33.6775 171.695 33.728 171.731 33.7705C172.08 33.7413 172.465 33.7253 172.741 33.7014C172.871 33.6509 172.871 33.6004 172.797 33.5924H172.801Z" fill="#FFC300"/>
<path d="M261.256 45.3016C261.193 45.3202 261.313 45.3947 261.376 45.4106C261.599 45.4638 261.825 45.509 262.051 45.5516C262.097 45.5595 262.164 45.5064 262.213 45.4957C262.075 45.3654 261.867 45.3282 261.68 45.2883C261.546 45.259 261.38 45.2644 261.253 45.3016H261.256Z" fill="#FFC300"/>
<path d="M248.272 42.8523C247.993 42.8816 247.756 42.7805 247.495 42.7619C247.446 42.7592 247.393 42.7885 247.34 42.8044C247.382 42.831 247.421 42.8603 247.467 42.8895C247.749 42.8417 247.954 43.0252 248.219 43.0438C248.329 43.0517 248.498 43.089 248.523 43.0039C248.547 42.9188 248.374 42.8443 248.272 42.855V42.8523Z" fill="#FFC300"/>
<path d="M297.67 40.8177C296.678 40.6741 295.792 40.2486 294.75 40.222C294.189 40.2061 293.642 40.0625 293.13 39.863C292.84 39.7487 292.522 39.6716 292.215 39.5865C292.173 39.5732 292.095 39.5918 292.053 39.6157C291.964 39.6689 292.003 39.738 292.053 39.7939C292.169 39.9295 292.335 40.0252 292.526 40.0944C292.579 40.113 292.635 40.1343 292.688 40.1502C294.136 40.581 295.668 40.7911 297.144 41.1528C297.324 41.1953 297.501 41.1714 297.656 41.089C297.727 41.0517 297.787 40.9959 297.85 40.9507C297.79 40.9055 297.737 40.831 297.667 40.8204L297.67 40.8177Z" fill="#FFC300"/>
<path d="M200.134 23.7055C200.081 23.639 199.982 23.663 199.897 23.6816C199.382 23.7986 198.866 23.8757 198.34 23.6949C198.27 23.6709 198.164 23.6869 198.075 23.7002C197.292 23.8278 196.508 23.9581 195.727 24.0911C195.643 24.1044 195.565 24.1363 195.692 24.2613C196.19 24.0326 196.624 24.6469 197.133 24.3623C197.496 24.1576 197.881 24.1709 198.238 24.2054C198.916 24.2719 199.46 24.0778 200 23.8358C200.063 23.8066 200.205 23.8039 200.13 23.7082L200.134 23.7055Z" fill="#FFC300"/>
<path d="M207.835 25.4762C207.486 25.4416 207.136 25.4469 206.79 25.4974C206.727 25.5081 206.582 25.5214 206.667 25.6144C206.797 25.7554 206.928 25.907 207.207 25.9043C207.486 25.899 207.789 25.9841 207.969 25.758C208.135 25.5932 208.068 25.5001 207.835 25.4762Z" fill="#FFC300"/>
<path d="M203.197 25.6651C203.137 25.7369 203.176 25.8247 203.257 25.8274C203.61 25.838 203.963 25.83 204.316 25.8167C204.398 25.8141 204.472 25.7423 204.38 25.6758C204.172 25.5215 203.388 25.5215 203.197 25.6678V25.6651Z" fill="#FFC300"/>
<path d="M204.495 23.9895C204.209 23.9496 203.92 23.9204 203.634 23.8831C203.514 23.8672 203.383 23.8645 203.362 23.9735C203.341 24.0746 203.464 24.1411 203.577 24.1437C203.867 24.1544 204.16 24.1464 204.449 24.1437C204.506 24.1437 204.559 24.1198 204.622 24.1038C204.647 24.0267 204.566 24.0001 204.495 23.9895Z" fill="#FFC300"/>
<path d="M201.373 25.4233C201.031 25.3621 200.685 25.3116 200.332 25.3541C200.257 25.3621 200.141 25.4073 200.137 25.4419C200.127 25.5164 200.236 25.5429 200.325 25.5456C200.671 25.5642 201.024 25.5456 201.359 25.6334C201.391 25.6413 201.451 25.5908 201.493 25.5722C201.514 25.4924 201.458 25.4339 201.377 25.4206L201.373 25.4233Z" fill="#FFC300"/>
<path d="M205.305 25.689C205.199 25.7315 205.256 25.7953 205.316 25.8565C205.588 25.9762 205.807 25.8618 206.008 25.7288C206.093 25.673 206.043 25.5985 205.959 25.5719C205.708 25.4922 205.507 25.6065 205.305 25.689Z" fill="#FFC300"/>
</g>
</svg>
