<svg width="89" height="91" viewBox="0 0 89 91" fill="none" xmlns="http://www.w3.org/2000/svg">
<g clip-path="url(#clip0_607_2429)">
<path d="M13.923 61.7479C24.8216 65.7607 35.3173 70.8215 45.2617 76.82C46.5157 77.5768 47.6496 75.6129 46.3955 74.8561C36.2738 68.752 25.582 63.6353 14.4913 59.5509C13.12 59.0457 12.556 61.2436 13.9217 61.7471L13.923 61.7479Z" fill="#FFC300"/>
<path d="M12.9146 65.4758C22.2888 70.0201 31.6629 74.5643 41.035 79.1091C42.3446 79.744 43.489 77.7846 42.1689 77.1452C32.7947 72.601 23.4206 68.0568 14.0485 63.512C12.7389 62.8771 11.5945 64.8365 12.9146 65.4758Z" fill="#FFC300"/>
<path d="M50.1652 74.6581C59.2431 65.279 68.3198 55.8993 77.3977 46.5203C79.9557 43.8771 82.5145 41.2326 85.0726 38.5894C86.0002 37.6316 84.8533 36.2652 83.7087 36.7933C73.1066 41.688 62.7294 47.0614 52.6228 52.9054C49.7238 54.5822 46.8475 56.2966 43.9926 58.0479C44.5475 58.473 45.103 58.8969 45.6578 59.322C48.1936 47.4187 50.7288 35.5133 53.2646 23.6099C53.9767 20.2645 54.6901 16.9198 55.4022 13.5744C55.6737 12.3016 54.0291 11.655 53.3162 12.7189L32.904 43.1469C30.9717 46.0269 29.0394 48.907 27.1072 51.787L29.1901 52.0644C26.6177 41.2468 25.2004 30.1904 24.9602 19.0818C24.933 17.8395 22.9693 17.4951 22.7228 18.7987C20.5122 30.4805 18.3023 42.161 16.0917 53.8427C15.8228 55.2677 18.0213 55.8574 18.2936 54.418C20.5042 42.7362 22.714 31.0557 24.9246 19.374C24.1791 19.2792 23.4328 19.1857 22.6872 19.0909C22.9317 30.3855 24.3795 41.651 26.9954 52.6494C27.2365 53.6663 28.5583 53.7024 29.0784 52.9268C35.8827 42.7837 42.6863 32.6418 49.4906 22.4987C51.4229 19.6187 53.3552 16.7386 55.2875 13.8586C54.5925 13.5736 53.8964 13.288 53.2015 13.003C50.6657 24.9064 48.1305 36.8117 45.5947 48.7151C44.8826 52.0605 44.1692 55.4052 43.457 58.7507C43.2621 59.6632 44.2545 60.5572 45.1223 60.0248C55.0715 53.9213 65.2994 48.2685 75.7691 43.0991C78.7726 41.617 81.7961 40.1743 84.8383 38.7703C84.3835 38.1719 83.9293 37.5724 83.4745 36.9741C74.3966 46.3531 65.3199 55.7329 56.242 65.1119C53.684 67.7551 51.1252 70.3995 48.5672 73.0427C47.5526 74.0913 49.1498 75.711 50.1663 74.6619L50.1652 74.6581Z" fill="#FFC300"/>
<path d="M36.1072 50.4054C34.5835 52.2817 33.4007 54.3532 32.6428 56.6536C32.2621 57.811 32.0101 59.0018 31.8584 60.2095C31.7248 61.2721 31.618 62.4419 32.3472 63.3362C33.9183 65.2601 36.4022 62.751 37.4346 61.4638C38.7734 59.7968 39.6245 57.8188 39.8735 55.6912C40.121 53.5775 39.8189 49.9708 36.91 50.0567C35.4504 50.0999 35.4582 52.3691 36.9253 52.327C37.6944 52.3043 37.6628 53.7992 37.6747 54.3137C37.6935 55.1891 37.5714 56.0439 37.3297 56.8836C36.8387 58.5881 35.8331 60.1249 34.4605 61.25C34.3165 61.3683 34.0585 61.4879 33.9503 61.6269C33.8908 61.6646 33.83 61.7015 33.7705 61.7392C33.8738 61.8021 33.9809 61.8558 34.0931 61.8976C34.091 61.9013 34.0623 60.804 34.0657 60.7781C34.1812 59.7099 34.409 58.6493 34.7209 57.6225C35.339 55.5869 36.3665 53.6763 37.7068 52.0265C38.0948 51.548 38.1763 50.8975 37.7161 50.4222C37.3251 50.0179 36.4929 49.9337 36.109 50.408L36.1072 50.4054Z" fill="#FFC300"/>
</g>
<defs>
<clipPath id="clip0_607_2429">
<rect width="64" height="67" fill="white" transform="translate(33.5) rotate(30)"/>
</clipPath>
</defs>
</svg>
