<svg width="14" height="18" viewBox="0 0 14 18" fill="none" xmlns="http://www.w3.org/2000/svg">
<path d="M12.3581 17.3326C12.0664 17.3326 11.7747 17.2076 11.5664 16.9659C9.03306 13.9992 5.86639 12.6659 3.31639 11.5909C2.53306 11.2576 1.79139 10.9492 1.15806 10.6242C0.824724 10.4576 0.616391 10.1242 0.599725 9.74923C0.583058 9.38256 0.758058 9.02423 1.06639 8.82423L2.40806 7.94923C6.08306 5.5659 9.88306 3.10756 11.1997 1.12423C11.5164 0.640898 12.1664 0.515898 12.6414 0.832565C13.1164 1.14923 13.2497 1.79923 12.9331 2.27423C11.4081 4.55756 7.56639 7.08256 3.79972 9.52423C3.90806 9.5659 4.01639 9.6159 4.12472 9.65756C6.73306 10.7576 10.2997 12.2576 13.1497 15.5992C13.5247 16.0409 13.4664 16.6909 13.0331 17.0659C12.8331 17.2326 12.5997 17.3159 12.3581 17.3159V17.3326Z" fill="#471A03"/>
</svg>
