<svg width="48" height="49" viewBox="0 0 48 49" fill="none" xmlns="http://www.w3.org/2000/svg">
<rect y="0.0118408" width="48" height="48" rx="24" fill="#FFC300"/>
<g opacity="0.7" clip-path="url(#clip0_607_4669)">
<path d="M38.9064 7.81075C38.9064 8.29633 38.6872 8.689 38.1999 8.689C37.7126 8.689 37.3164 8.29633 37.3164 7.81075C37.3164 7.32517 37.7126 6.7572 38.1999 6.7572C38.6872 6.7572 38.9064 7.32517 38.9064 7.81075Z" fill="#482300"/>
<path d="M24 46.0118C20.7535 46.0118 17.6279 45.3212 14.7074 43.9591C10.9052 42.264 9.77801 40.0534 9.46773 38.6248C8.90677 38.4197 8.27745 38.0918 7.60606 37.5835C6.18263 36.5071 4.89769 34.8663 3.78454 32.7067L3.76876 32.6734C2.59602 29.9317 2 27.0182 2 24.0118C2 11.8812 11.8693 2.01184 24 2.01184C27.2588 2.01184 30.3967 2.70778 33.3241 4.08037C33.5871 4.20308 33.701 4.51686 33.5766 4.77981C33.4521 5.04276 33.1401 5.1567 32.8771 5.03224C30.0899 3.72626 27.1028 3.06363 23.9982 3.06363C12.4496 3.06363 3.05179 12.4614 3.05179 24.0118C3.05179 26.8692 3.61626 29.6372 4.7294 32.2404C6.37371 35.4255 8.08462 36.8262 9.36781 37.4345C9.44494 36.1583 10.1058 35.1451 11.0524 34.8506C11.8693 34.5981 12.7143 34.9365 13.3716 35.7814C13.8309 36.3704 13.9256 37.0558 13.6346 37.6624C13.2647 38.4337 12.3374 38.921 11.2172 38.9368C11.0454 38.9385 10.8508 38.9315 10.637 38.9052C11.0489 40.0745 12.1743 41.6732 15.1439 42.9967C17.9312 44.2974 20.9077 44.9548 24 44.9548C35.5504 44.9548 44.9482 35.557 44.9482 24.0066C44.9482 20.0448 43.8368 16.19 41.7367 12.8541C41.5825 12.6087 41.6561 12.2844 41.9015 12.1283C42.1469 11.9741 42.4712 12.0477 42.6273 12.2931C44.8343 15.7956 46.0018 19.8467 46.0018 24.0048C46.0018 36.1355 36.1324 46.0048 24.0018 46.0048L24 46.0118ZM10.4161 37.8008C10.7579 37.8762 11.0279 37.892 11.2032 37.8885C11.9114 37.878 12.4934 37.6115 12.6862 37.2101C12.8317 36.9068 12.6862 36.6176 12.5407 36.43C12.3216 36.1478 11.8763 35.6973 11.3645 35.8568C10.8561 36.0146 10.4652 36.693 10.4178 37.5046C10.4126 37.5835 10.4108 37.6834 10.4161 37.8008Z" fill="#482300"/>
</g>
<path d="M33.501 30.5119C33.921 29.6685 37.1677 18.5119 34.501 16.1785C32.501 15.5119 28.6377 20.5352 28.6377 20.5352C28.6377 20.5352 26.5143 12.8452 22.8343 12.8452C20.501 12.8452 17.501 17.5119 17.501 17.8452C14.8343 15.5119 12.1677 12.8452 10.6677 17.7985C8.83433 23.8452 11.1677 32.1419 14.751 33.3519C19.1677 34.8419 31.8343 33.8419 33.501 30.5085V30.5119Z" fill="white" fill-opacity="0.5"/>
<path d="M23.6093 34.0218C22.4993 34.0218 21.3426 33.9418 20.1526 33.7718C18.2993 33.5051 15.1059 32.7685 14.5093 30.8085C12.9893 25.6951 11.6493 19.9651 12.0826 18.6718L12.1093 18.6085C12.1726 18.4818 12.3326 18.2618 12.7093 18.1951C13.8226 18.0018 16.6859 19.4018 18.8059 21.0918C19.1193 20.2385 19.4426 19.5118 19.6393 19.0918C20.0259 18.2585 22.0359 14.0985 23.5293 14.0051H23.5659H23.6026C25.1393 14.1418 27.6293 16.7751 28.8926 19.4751C30.6793 17.6851 32.7559 16.1585 33.8059 15.7785C34.3393 15.5851 34.7359 15.6318 34.9759 15.9151C36.1793 17.3185 36.1093 20.6718 35.8393 23.2385C35.5426 26.0785 34.8459 29.0918 34.2226 30.2518L34.2026 30.2885C32.8693 32.3218 28.7726 34.0218 23.6126 34.0218H23.6093ZM15.4426 30.5251C15.7559 31.5485 17.6126 32.4218 20.2926 32.8051C25.1793 33.5051 31.5893 32.4518 33.3726 29.7651C34.4726 27.6851 35.9426 18.8385 34.3059 16.6351C33.6226 16.7318 31.2193 18.4551 29.2859 20.4351C30.1559 22.9218 29.6859 25.1251 28.7493 26.0351C28.2459 26.5285 27.5926 26.6651 26.9626 26.4118C26.1259 26.0785 25.6759 25.4318 25.6893 24.5951C25.7093 23.3718 26.7793 21.7551 28.1626 20.2318C27.0293 17.5518 24.5959 15.1385 23.5593 14.9785C23.0259 15.1085 21.4026 17.3185 20.0826 20.4818C19.8993 20.9218 19.7326 21.3518 19.5893 21.7618C19.6293 21.7985 19.6659 21.8318 19.7026 21.8685C21.8693 23.9285 22.0193 25.3151 21.7659 26.1151C21.5426 26.8185 20.9259 27.2918 20.0726 27.4118C19.1026 27.5518 18.5826 27.1518 18.3159 26.7951C17.5659 25.7818 17.9159 23.8118 18.4659 22.0651C16.3493 20.2818 13.6859 19.1385 12.9726 19.1351C12.8659 20.1418 13.5259 24.0751 15.4426 30.5185V30.5251ZM19.2593 22.8018C18.7826 24.4651 18.7126 25.7251 19.1059 26.2351C19.2093 26.3651 19.4026 26.5318 19.9359 26.4585C20.2093 26.4185 20.6959 26.2851 20.8393 25.8285C21.0593 25.1351 20.4726 24.0185 19.2593 22.8051V22.8018ZM28.5193 21.2618C27.6126 22.3018 26.9093 23.3618 26.7059 24.2518C26.5593 24.9051 26.7426 25.2818 27.3193 25.5151C27.4926 25.5851 27.7593 25.6418 28.0659 25.3451C28.7126 24.7151 29.0126 23.0785 28.5193 21.2651V21.2618Z" fill="#471A03"/>
<defs>
<clipPath id="clip0_607_4669">
<rect width="44" height="44" fill="white" transform="translate(2 2.01184)"/>
</clipPath>
</defs>
</svg>
