<svg width="19" height="28" viewBox="0 0 19 28" fill="none" xmlns="http://www.w3.org/2000/svg">
<path d="M8.79089 3.95536C12.3647 1.88437 15.7412 -0.0711127 17.6698 1.38798L17.6747 1.38114C20.0099 3.14809 18.1765 13.1515 18.1532 13.2552C18.1356 13.343 18.1055 13.4253 18.0692 13.5032C17.9861 13.7014 17.8512 13.8655 17.6698 13.9632C17.6687 13.9638 17.6653 13.9648 17.661 13.9671C17.5979 14.007 17.531 14.0401 17.4608 14.0667C16.9091 14.3412 15.3317 15.0986 13.5721 15.7093C13.482 18.8188 12.891 22.0413 12.8778 22.0999C12.8145 22.4164 12.6189 22.6725 12.3612 22.8265C12.2687 22.9549 12.1484 23.0662 12.0009 23.1477C11.3874 23.4776 10.7365 23.8568 10.0682 24.2444C6.49447 26.3154 3.11791 28.2719 1.18933 26.8128L1.18445 26.8196C-1.14952 25.0538 0.681488 15.0609 0.70691 14.9456C0.770229 14.6284 0.965072 14.37 1.22351 14.2161C1.31589 14.0883 1.43685 13.978 1.58386 13.8968C2.1972 13.567 2.84742 13.1877 3.5155 12.8001C4.20705 12.3993 4.89175 12.0033 5.55945 11.635C5.55654 11.5776 5.55457 11.5187 5.55457 11.4583C5.71127 8.63698 6.20177 5.96763 6.21375 5.91435C6.25701 5.69788 6.36151 5.50879 6.50574 5.36161C6.59712 5.23806 6.7152 5.13119 6.85828 5.05204C7.47172 4.72219 8.12268 4.34302 8.79089 3.95536ZM11.0262 11.9544C10.1646 11.49 6.28734 13.7278 4.61414 14.7005C3.98481 15.0642 3.37419 15.4137 2.79578 15.7347C2.07231 19.6111 2.03672 24.2258 2.55847 25.0911C3.42058 25.555 7.29755 23.3166 8.97058 22.344C9.59981 21.9804 10.2096 21.6298 10.788 21.3089C11.5111 17.4332 11.5477 12.8205 11.0262 11.9544ZM16.3007 3.10966C15.4389 2.64553 11.5628 4.88304 9.88953 5.85575C9.33928 6.17377 8.80243 6.47999 8.28992 6.76689C8.0649 7.98765 7.90734 9.27875 7.81433 10.5013C9.66638 9.69118 11.2742 9.38525 12.3944 10.2327L12.4003 10.2259C13.0581 10.7239 13.3838 11.8758 13.5136 13.2757C14.3796 12.9611 15.2737 12.5859 16.119 12.1673C16.7897 8.35614 16.809 3.95327 16.3007 3.10966Z" fill="#471A03"/>
</svg>
