<svg width="24" height="24" viewBox="0 0 24 24" fill="none" xmlns="http://www.w3.org/2000/svg">
<path d="M12.015 7.72131C11.6714 7.73914 11.3282 7.68009 11.0104 7.54845C10.4436 7.27884 10.3468 6.21328 10.3232 5.69998C10.2874 4.9157 10.5763 4.07381 11.5653 4.00556C12.3206 3.95336 13.3432 4.26604 13.3865 5.06539C13.4417 6.08548 13.3882 7.07574 12.9963 7.44539C12.6938 7.60921 12.3585 7.70348 12.015 7.72131Z" fill="#471A03"/>
<path d="M10.0033 11.8938C9.98547 11.5503 10.0445 11.2071 10.1762 10.8892C10.4458 10.3224 11.5113 10.2256 12.0246 10.202C12.8089 10.1662 13.6508 10.4551 13.7191 11.4441C13.7712 12.1994 13.4586 13.222 12.6592 13.2653C11.6391 13.3205 10.6489 13.267 10.2792 12.8751C10.1154 12.5726 10.0211 12.2373 10.0033 11.8938Z" fill="#471A03"/>
<path d="M12.015 16.2789C11.6714 16.261 11.3282 16.3201 11.0104 16.4517C10.4436 16.7213 10.3468 17.7869 10.3232 18.3002C10.2874 19.0845 10.5763 19.9264 11.5653 19.9946C12.3206 20.0468 13.3432 19.7341 13.3865 18.9348C13.4417 17.9147 13.3882 16.9244 12.9963 16.5548C12.6938 16.391 12.3585 16.2967 12.015 16.2789Z" fill="#471A03"/>
</svg>
