<svg width="10" height="8" viewBox="0 0 10 8" fill="none" xmlns="http://www.w3.org/2000/svg">
<path d="M5.35853 7.75C3.52828 7.75 0.67023 2.07238 0.642749 2.01192C0.477861 1.67115 0.620764 1.25893 0.961531 1.09405C1.3023 0.929158 1.71452 1.07206 1.8794 1.41283C2.97316 3.67728 4.78692 6.12861 5.39151 6.37044C5.99609 6.27701 7.08435 3.69927 7.55153 2.58353C7.7439 2.12734 7.93077 1.68764 8.11215 1.28092C8.26604 0.934654 8.67276 0.780759 9.01903 0.934654C9.36529 1.08855 9.51919 1.49527 9.36529 1.84153C9.18392 2.23726 9.00254 2.67147 8.81567 3.11666C7.81535 5.49654 6.87 7.7445 5.35853 7.7445V7.75Z" fill="#471A03"/>
</svg>
