<svg width="22" height="24" viewBox="0 0 22 24" fill="none" xmlns="http://www.w3.org/2000/svg">
<mask id="mask0_630_4167" style="mask-type:alpha" maskUnits="userSpaceOnUse" x="1" y="2" width="20" height="20">
<path d="M4.5317 13.6338C6.22032 11.4033 8.17098 9.54882 10.0906 7.53573C10.7906 6.78066 11.4999 6.0344 12.2187 5.29694C12.6226 4.88254 13.111 4.26041 13.6211 3.82229C14.2294 3.29985 14.71 3.53369 15.1359 4.04613C15.4453 4.41832 15.7679 4.77919 16.0944 5.13644C16.8669 5.98194 17.7055 6.76335 18.4683 7.61291C19.2014 8.4506 18.0496 9.12229 17.5072 9.65194C16.6866 10.4528 15.8799 11.2675 15.087 12.096C13.5017 13.7528 11.9741 15.4625 10.5043 17.225C9.83835 18.0537 8.98166 18.7089 8.00745 19.1346C7.30148 19.4656 6.50535 19.7728 5.78348 20.0673C4.86235 20.4889 3.07588 20.9847 3.31473 19.2538C3.45251 18.1435 3.64598 17.0359 3.82176 15.9267C3.94176 15.1678 4.06388 14.2842 4.5317 13.6338ZM6.0632 16.7704C6.82526 17.5673 7.0066 17.5827 7.57001 17.4805C7.91773 17.4174 8.5467 16.8823 8.90363 16.5452C9.68766 15.7837 10.4277 14.9781 11.1201 14.1324C11.9375 13.1373 12.6661 12.2378 13.528 11.28C13.7204 11.0663 14.0418 10.6829 14.2802 10.4401C14.6711 10.0416 14.866 9.82901 14.6452 9.52201C14.3637 9.13073 13.1627 8.02657 12.8396 7.65147C12.5089 7.2676 12.2442 7.50394 12.0862 7.67744C11.4237 8.40488 10.6085 9.29207 10.1896 9.72985C9.17538 10.79 7.15001 12.7825 6.09782 14.0165C5.72297 14.4107 5.46922 14.9043 5.36676 15.4385C5.2991 15.9537 5.42235 16.1815 6.0632 16.7704ZM15.7753 8.57376C16.1456 8.73713 16.4246 8.47132 16.6123 8.21272C16.6416 8.17247 16.6562 8.1234 16.6538 8.07366C16.6514 8.02392 16.632 7.97652 16.5989 7.93932C16.0658 7.33473 14.8978 6.07254 14.3355 5.47766C14.3035 5.44348 14.2596 5.4229 14.2129 5.42015C14.1661 5.41741 14.1201 5.43271 14.0844 5.46291C13.7687 5.72498 13.3043 6.12426 13.6219 6.41291C13.9295 6.69251 15.3984 8.40747 15.7753 8.57376Z" fill="#471A03"/>
</mask>
<g mask="url(#mask0_630_4167)">
<rect x="-1" y="1" width="23" height="23" fill="#471A03"/>
</g>
</svg>
