<svg width="20" height="20" viewBox="0 0 20 20" fill="none" xmlns="http://www.w3.org/2000/svg">
<path d="M16.8963 9.24376C16.6863 8.77133 16.1314 8.56136 15.6589 8.77883C15.1265 9.01879 13.3793 9.18377 11.3096 9.22126C11.2421 6.29671 10.7547 3.88957 10.3198 3.01971C10.0873 2.55478 9.52487 2.36731 9.05995 2.59977C8.59502 2.83224 8.40754 3.39465 8.64001 3.85958C8.96246 4.50448 9.3749 6.61166 9.43489 9.22126C7.52268 9.18377 5.55798 9.03379 4.14819 8.74133C3.63827 8.62885 3.14335 8.9588 3.03836 9.46872C2.93338 9.97865 3.25583 10.4736 3.76575 10.5786C5.23553 10.886 7.32771 11.0585 9.41989 11.1035C9.3449 12.7982 9.10494 14.5979 8.58752 16.2927C8.43754 16.7876 8.715 17.3125 9.20992 17.4625C9.29991 17.4925 9.38989 17.5 9.47988 17.5C9.88482 17.5 10.2523 17.2375 10.3797 16.8326C10.9497 14.9579 11.2121 12.9707 11.2946 11.1035C13.5893 11.066 15.6214 10.856 16.4313 10.4886C16.9038 10.2786 17.1137 9.72369 16.8963 9.25126V9.24376Z" fill="#471A03"/>
</svg>
