<svg width="22" height="24" viewBox="0 0 22 24" fill="none" xmlns="http://www.w3.org/2000/svg">
<path d="M21.0889 11.0254C20.6401 10.7085 19.8938 10.7656 19.2443 10.7812C19.0986 10.0508 18.895 9.33307 18.6356 8.63486C18.3068 7.75182 17.8324 6.93013 17.2319 6.20396C16.0813 4.76344 14.4312 3.80815 12.6091 3.5277C12.3447 3.47235 12.0776 3.43072 11.8089 3.40297C11.7414 2.51445 11.9602 1.11052 11.0609 0.991722C10.453 0.911434 9.79885 0.933447 9.74369 1.68123C9.71005 2.28813 9.72301 2.89672 9.78246 3.50163C9.3479 3.60709 8.9246 3.75444 8.51849 3.94162C7.25075 4.53262 6.11261 5.36883 5.16974 6.402C3.87917 7.88529 2.99763 9.67944 2.61209 11.6074C2.09651 11.6334 1.58837 11.7414 1.10676 11.9272C0.314536 12.3508 0.493149 13.8538 1.25594 13.9248C1.70279 13.9663 2.07175 13.9767 2.52899 13.9871C2.62999 15.0147 2.87622 16.0227 3.26031 16.9811C4.08106 18.5716 5.47365 19.7922 7.15795 20.3975C8.12486 20.7459 9.13983 20.9427 10.1669 20.9809C10.2136 21.5888 10.1225 22.3491 10.5956 22.7969C11.032 23.2099 12.5193 23.1174 12.608 22.3551C12.5958 21.8508 12.5536 21.3477 12.4816 20.8484C13.6975 20.5054 15.5315 19.6342 16.3982 18.8193C17.7075 17.6017 18.6165 16.0155 19.0052 14.2703C19.0917 13.9399 19.1299 13.561 19.1923 13.148C19.2043 13.0679 19.3227 13.0205 19.4035 13.0142C19.8914 13.0038 20.3769 12.9441 20.8528 12.836C21.4853 12.6667 21.5978 11.385 21.0889 11.0254ZM15.6937 12.3808C15.821 12.9386 16.3061 13.0455 16.8047 13.1026C16.9333 13.1173 16.9906 13.1635 16.9707 13.4676C16.9012 13.9757 16.7768 14.4747 16.5997 14.956C16.3248 15.6721 15.9342 16.3383 15.4435 16.9281C14.8522 17.6096 13.3703 18.6895 12.2947 18.7596C12.2558 18.4558 12.2168 18.1049 12.1856 17.8009C12.116 17.1222 11.6257 17.0026 11.0166 17.0449C10.4554 17.0839 10.3463 17.458 10.2527 17.8116C10.184 18.1727 10.1552 18.5403 10.167 18.9077C9.52015 18.9934 8.45016 18.6891 7.95126 18.5112C7.25212 18.2653 6.61574 17.8683 6.08738 17.3486C5.55903 16.8288 5.15166 16.1991 4.89426 15.5041C4.7565 15.0269 4.70163 14.5296 4.73204 14.0339C5.61021 13.9767 6.17125 13.9819 6.57966 13.3432C6.71665 13.1241 6.7773 12.8658 6.75216 12.6085C6.67536 11.6801 6.09347 11.5658 4.88275 11.5035C4.92462 11.0642 5.03278 10.6338 5.20356 10.227C5.35452 9.86276 5.52762 9.5081 5.72189 9.165C5.89757 8.81502 6.09984 8.47904 6.32691 8.16C6.96822 7.33181 7.7812 6.65225 8.71 6.168C8.96597 6.03585 9.87175 5.56758 9.89166 5.78793C9.95916 6.53617 10.1268 6.91383 10.3979 7.02461C10.6053 7.10441 10.83 7.12851 11.0496 7.09449C11.2692 7.06046 11.4761 6.96952 11.6496 6.8307C11.9244 6.58597 11.9284 6.09971 11.9646 5.66846C12.5206 5.60096 13.5092 6.00502 13.9869 6.20763C15.6225 6.96202 16.5073 8.53833 16.9248 10.2188C16.9907 10.4356 17.0348 10.6584 17.0567 10.8839C16.7454 10.933 16.4381 11.0043 16.137 11.0972C15.6295 11.2815 15.5848 11.9033 15.6937 12.3808ZM11.2997 10.5682C10.9233 10.5507 10.5505 10.6495 10.2322 10.8514C9.91391 11.0533 9.66556 11.3483 9.52095 11.6964C9.37634 12.0445 9.34249 12.4286 9.42401 12.7966C9.50554 13.1646 9.69847 13.4985 9.97656 13.7529C10.9153 14.6834 12.407 13.9995 12.8309 12.9789C12.9434 12.7205 12.9908 12.4384 12.9689 12.1573C12.947 11.8763 12.8566 11.605 12.7054 11.367C12.5543 11.1291 12.3471 10.9318 12.1021 10.7926C11.857 10.6533 11.5815 10.5763 11.2997 10.5682Z" fill="#471A03"/>
</svg>
