<svg width="10" height="8" viewBox="0 0 10 8" fill="none" xmlns="http://www.w3.org/2000/svg">
<path d="M4.64147 0.874999C6.47172 0.874999 9.32977 6.55262 9.35725 6.61308C9.52214 6.95385 9.37924 7.36607 9.03847 7.53095C8.6977 7.69584 8.28548 7.55294 8.1206 7.21217C7.02684 4.94772 5.21308 2.49639 4.60849 2.25456C4.00391 2.34799 2.91565 4.92573 2.44847 6.04147C2.2561 6.49766 2.06923 6.93736 1.88785 7.34408C1.73396 7.69035 1.32724 7.84424 0.980972 7.69035C0.634708 7.53645 0.480813 7.12973 0.634708 6.78346C0.816084 6.38773 0.99746 5.95353 1.18433 5.50834C2.18465 3.12846 3.13 0.880496 4.64147 0.880496L4.64147 0.874999Z" fill="#471A03"/>
</svg>
