<svg width="40" height="40" viewBox="0 0 40 40" fill="none" xmlns="http://www.w3.org/2000/svg">
<path d="M8.39826 35.4762C9.35064 33.0952 12.903 28.5238 15.4125 28.1904C17.9221 27.8571 18.8745 23.5714 21.2554 23.0952C23.6364 22.619 26.103 21.3095 26.103 21.3095H27.7268C27.7268 21.3095 27.4459 24.0476 28.8745 25C30.303 25.9523 33.6364 27.3809 33.6364 27.3809V24.5571L30.6744 21.9381L26.4935 20.7143C26.4935 20.7143 26.0173 19.2857 24.1125 19.7619C22.2078 20.2381 21.0983 20.1238 21.0983 20.1238L22.2078 17.3809L25.5411 16.4285L27.4459 14.0476L27.9221 13.0952C27.9221 13.0952 28.8745 13.5714 30.303 13.5714C31.7316 13.5714 32.2078 14.0476 33.1602 13.0952C34.1125 12.1428 37.3697 10.4571 36.6935 9.6333C36.0173 8.80949 32.684 8.3333 31.2554 9.76187C29.8268 11.1904 26.4935 14.0476 26.4935 14.0476L25.5411 14.5238L25.1602 13.6952C25.1602 13.6952 26.0173 13.0952 26.4935 11.1904C26.9697 9.28568 26.7649 -1.1667 21.2554 2.61901C17.9221 5.95235 20.7792 9.76187 22.2078 15.4762L16.0173 23.5714L14.5887 24.0476L13.6364 18.8095L13.3983 16.5047C13.3983 16.5047 15.1983 15.8952 16.0173 14.5238C17.3078 12.3571 17.5602 8.8333 15.0649 6.90473C4.58874 -1.19051 -0.173167 21.1904 7.4554 23.9904C3.16493 25 0.922071 30.6476 3.16493 32.1428C4.5935 33.0952 7.45064 35.4762 8.40302 35.4762H8.39826Z" fill="#D2DB93"/>
<path d="M23.7708 19.4667C23.1994 19.562 22.5851 19.6762 21.9994 19.781C22.0423 19.6477 22.0804 19.5286 22.0804 19.5286C22.1423 19.3286 22.4899 18.2239 22.5518 18.0239C22.5947 18.0048 22.6566 17.9762 22.6566 17.9762C23.3423 17.6905 24.0327 17.3953 24.7185 17.1001C25.4518 16.7905 26.1327 16.3191 26.6708 15.7382C26.9994 15.3762 27.9089 14.562 27.7756 13.9572C27.7756 13.9572 28.128 13.5334 28.1708 13.5477C28.4518 13.6477 28.7327 13.7429 29.0137 13.8334C29.3518 13.9429 29.7185 14.0524 30.0566 14.1524C31.4518 14.5524 33.0804 14.0667 34.0851 12.9715C34.1566 12.9001 34.3518 12.7048 34.428 12.6239C34.8804 12.1715 35.347 11.7334 35.8232 11.3048C36.0708 11.0858 36.5661 10.6429 36.8089 10.4239C37.1232 10.1572 37.228 9.68101 37.0661 9.30482C36.9613 9.04291 36.7185 8.82387 36.447 8.74291H36.4375L36.3899 8.72863L36.028 8.63339C35.5423 8.5191 35.0423 8.44768 34.5423 8.44291C33.547 8.4191 32.547 8.61434 31.6375 9.01434C30.7375 9.40006 29.928 9.99529 29.2804 10.7239C28.6042 11.5572 27.1042 13.2001 26.9566 13.2715C26.9232 13.2858 26.8851 13.3143 26.8566 13.3334L26.7994 13.3762L26.5613 13.5477C26.3518 13.7001 26.147 13.8477 25.9375 14.0001C25.8756 14.0477 25.528 13.5667 25.5708 13.5191C25.7613 13.3191 25.9423 13.1191 26.1232 12.9143C26.3566 12.6524 26.6042 12.3572 26.8327 12.0905C27.7613 10.9715 27.9661 9.28577 27.3661 7.92863C27.328 7.83339 27.228 7.57625 27.1899 7.47625C26.9566 6.87625 26.7423 6.27625 26.5423 5.66672C26.4423 5.35244 26.2327 4.72387 26.128 4.40958C26.0042 4.01434 25.6137 3.72863 25.2042 3.72863C24.9232 3.7191 24.6232 3.85244 24.4423 4.07149L24.4327 4.08101L24.4042 4.1191L24.1708 4.41434C23.8708 4.81434 23.6042 5.24291 23.3994 5.70006C22.9756 6.60006 22.7566 7.59529 22.7566 8.59053C22.7518 9.57149 22.9708 10.5477 23.3756 11.4334C23.928 12.5001 24.5423 13.5048 25.1947 14.5096C25.1899 14.5096 25.1804 14.5191 25.1756 14.5191C24.8756 14.6762 24.5185 14.7524 24.1851 14.7905L23.6089 14.8762C23.2327 14.9382 22.8232 14.9858 22.4375 15.062C22.0089 15.1477 21.5899 15.3096 21.1994 15.5143C20.3708 15.9572 19.6804 16.681 19.2518 17.5382C19.2185 17.6096 19.0851 17.8572 19.0518 17.9239C18.7946 18.4239 18.5137 18.9762 18.2613 19.4762C18.0804 19.8382 17.928 20.1334 17.7423 20.4334C17.0375 21.5762 16.0423 22.5286 14.8804 23.2001C14.7899 21.8715 14.6994 20.5429 14.5899 19.2143C14.5137 18.7286 14.1804 18.3382 13.7423 18.1667C13.7089 18.1524 13.5851 17.1572 13.6137 17.1429C13.8804 17.0001 14.147 16.8572 14.4089 16.7048C14.7137 16.5286 15.0423 16.3334 15.347 16.1477C16.5851 15.3858 17.3185 13.8524 17.1851 12.3762C17.1804 12.2715 17.1661 12.0001 17.1613 11.8905C17.1327 11.2477 17.1185 10.6096 17.128 9.97149C17.1327 9.64291 17.1375 8.98101 17.1375 8.64768C17.147 8.23339 16.8661 7.83815 16.4756 7.70482C16.2089 7.60482 15.8804 7.63815 15.6327 7.79053C15.628 7.79053 15.2899 8.01434 15.2756 8.0191C14.8661 8.30482 14.4756 8.62387 14.1327 8.99053C13.447 9.70958 12.9185 10.581 12.5994 11.5239C12.2804 12.4524 12.1756 13.4477 12.2804 14.4191C12.4708 15.6572 12.9851 18.0429 12.9566 18.0382C12.9375 18.0382 12.9232 18.0382 12.9089 18.0334C12.8423 18.0239 12.7756 18.0191 12.7089 18.0191C12.3375 17.1667 11.9423 16.3524 11.4661 15.5429C10.6232 14.2239 9.18513 13.3286 7.63751 13.1048C7.18036 13.0429 6.71846 13.0334 6.25655 13.0762L5.95179 13.1143H5.9137C5.63751 13.1572 5.37084 13.3429 5.23274 13.581C5.03274 13.9048 5.06132 14.3572 5.29941 14.6572C5.42798 14.8143 5.7137 15.1477 5.84227 15.3001C6.23274 15.7429 6.60894 16.2001 6.97084 16.662L7.29941 17.0858C7.84227 17.7762 8.65655 18.2429 9.52798 18.3477C9.81846 18.381 10.1042 18.3762 10.3946 18.3334C10.6708 18.281 10.9756 18.2239 11.247 18.162C11.4566 18.1143 11.6661 18.0667 11.8756 18.0143C11.9089 18.0048 11.9756 18.2429 11.9518 18.262C11.6423 18.481 11.4232 18.8239 11.3899 19.2191C11.2851 20.9524 11.1994 22.6858 11.1185 24.4191C11.1185 24.5286 11.0994 24.6477 11.028 24.7382C10.9756 24.8096 10.9042 24.8667 10.8232 24.9001C10.7327 24.9429 9.3756 25.5858 9.23751 25.6477C9.00893 25.7572 8.39941 26.0477 8.18036 26.1572C5.18989 27.8191 1.83751 32.1524 3.12798 32.7334C3.76608 33.0191 4.68989 31.5762 6.13274 29.7096C7.52798 27.7905 10.3708 26.5382 11.1756 26.2143L11.3566 26.1429L11.4042 26.1239C12.0518 25.862 12.4804 25.2143 12.5232 24.5191C12.6708 23.0334 11.9327 18.8239 12.8804 18.8239C13.828 18.8239 13.6137 23.1096 13.7232 24.6334C13.7518 25.2429 13.9708 25.6334 14.5089 25.3334C14.6804 25.2382 15.1089 25.0143 15.2756 24.9239C16.4946 24.2858 17.5756 23.3858 18.3994 22.2858C19.1613 21.3143 19.6137 20.1572 20.0947 19.0524L20.5518 18.0001C20.9042 17.181 21.6185 16.5048 22.4566 16.1715C22.7089 16.0715 22.947 16.0143 23.228 15.9382C23.5089 15.862 24.0661 15.7143 24.3518 15.6334C25.5327 15.5048 26.5423 14.262 26.7185 14.4429C26.9566 14.681 25.5375 15.981 23.7756 16.3953C23.2708 16.5477 22.7518 16.7048 22.247 16.862L22.0947 16.9096C21.7708 17.0096 21.5042 17.2572 21.3756 17.5715L21.2518 17.8762C21.1613 18.1048 20.728 19.1477 20.647 19.3572C20.6185 19.4286 20.5708 19.5429 20.5423 19.6191C20.2232 20.3858 20.7851 20.8048 21.6185 20.8572C21.7756 20.8715 21.9423 20.8429 22.0994 20.8239L22.7327 20.7429C23.3851 20.6524 25.5375 19.7667 25.5375 20.7143C25.5375 21.662 22.3804 22.0905 22.3804 22.0905C21.2804 22.1334 19.9423 22.3858 18.3566 24.5382C16.0756 27.3382 12.9232 28.3334 10.3946 31.1239C9.18036 32.4667 6.60893 36.3286 8.12322 36.2667C9.44703 36.2143 10.8661 31.5953 13.8851 29.8905C15.0851 29.2905 16.1994 28.5191 17.1804 27.6001C17.7947 27.0096 18.3994 26.3572 18.9946 25.7477C19.4327 25.2905 20.3185 24.362 20.7566 23.9001C21.028 23.6191 21.3946 23.4429 21.7851 23.4048C23.1089 23.0953 26.1708 22.6524 26.7756 21.6191C26.8042 21.5667 26.8327 21.5143 26.847 21.4572C27.0185 21.5477 27.1899 21.6286 27.3661 21.7143C27.3994 22.4477 27.4708 22.7096 27.5566 23.4382C27.7327 24.881 28.8185 26.1858 30.2185 26.681C30.3137 26.7191 30.5708 26.8191 30.6708 26.862C31.2661 27.1001 31.8518 27.3572 32.428 27.6334C32.728 27.7762 33.328 28.0572 33.628 28.1953C33.9994 28.3762 34.4804 28.2858 34.7613 27.9858C34.9613 27.7858 35.0708 27.481 35.0375 27.1953V27.1858L35.028 27.1382L34.9756 26.7667C34.8899 26.2762 34.7613 25.7858 34.5708 25.3239C34.2042 24.4001 33.6327 23.5572 32.9089 22.8762C32.1994 22.2001 31.3375 21.6905 30.4137 21.3762C29.2423 21.0429 28.0756 20.7953 26.8804 20.581C26.4899 18.8143 24.1232 19.4096 23.7661 19.462L23.7708 19.4667ZM24.347 10.1048C24.047 8.63339 24.2613 7.12863 24.9613 5.84291C25.1851 6.46196 25.428 7.54768 25.7185 8.12863C25.8042 8.30006 25.8946 8.48577 25.9851 8.6572C26.4518 9.53815 25.4089 11.862 25.2137 12.3096C25.0375 11.762 24.428 10.4667 24.347 10.1048ZM13.4708 13.9143C13.6566 12.4239 13.7137 10.3048 15.8899 9.12387C15.9042 9.78101 15.6089 12.4239 15.6375 12.6143C15.6089 15.5096 13.4375 15.781 13.4375 15.781C13.4375 15.781 13.4375 14.281 13.4708 13.9143ZM13.4946 19.381C13.4946 19.381 13.4946 19.3953 13.4946 19.4001V19.3858V19.3762V19.381ZM10.3137 17.3429C9.54703 17.2239 8.98513 16.9286 8.0756 16.1382C7.08989 15.0334 6.98036 14.681 6.68513 14.3001C7.63274 14.4191 9.48989 15.2953 10.2137 15.9239C10.4661 16.1334 10.8756 16.9286 11.2232 17.5382C11.0661 17.5143 10.6089 17.3858 10.3137 17.3477V17.3429ZM28.3042 21.9382C28.828 22.1858 30.0566 22.4858 30.3756 22.6715C31.6518 23.462 32.5994 24.6477 33.0566 26.0429C32.4518 25.781 30.2851 25.4477 29.128 24.2239C28.6327 23.7001 28.4994 22.3858 28.3042 21.9382ZM21.8946 20.1239C21.8946 20.1239 21.8946 20.1143 21.9042 20.0905C21.9042 20.1001 21.8994 20.1143 21.8946 20.1239ZM22.4946 18.0572L22.5137 18.0477C22.5137 18.0477 22.5327 18.0382 22.547 18.0334C22.5327 18.0477 22.5137 18.0524 22.4946 18.0572ZM32.8661 12.0096C30.7566 14.0905 29.7804 12.6762 29.2899 12.6762C29.7232 12.2905 30.1518 11.5001 30.447 11.281C31.6994 9.83339 34.0851 9.53339 35.547 9.66196C35.0708 10.1143 32.9899 11.862 32.8661 12.0096Z" fill="#3B1502"/>
</svg>
