<svg width="40" height="40" viewBox="0 0 40 40" fill="none" xmlns="http://www.w3.org/2000/svg">
<path d="M8.19467 34.0476C12.9566 34.0476 30.7994 33.0714 32.5947 33.8C34.3899 34.5286 32.5947 21.7 32.5947 21.7H35.9661C35.9661 21.7 31.9375 10.4905 30.3042 7.74761C28.6709 5.00476 13.909 -1.66667 8.19467 2.14285C2.48039 5.95238 -4.18628 22.619 3.90896 24.5238C12.4804 26.4286 3.43277 34.0476 8.19467 34.0476Z" fill="#F4CF8C"/>
<path d="M32.2325 34.8047C32.0182 34.8047 31.7849 34.7952 31.5182 34.7809C31.2563 34.7666 30.5897 34.7142 29.742 34.6523L29.6325 34.6428C27.6468 34.4952 24.9325 34.2952 23.7468 34.2523C22.2373 34.2 20.7182 34.1714 19.223 34.1714C17.7278 34.1714 16.1801 34.2 14.6611 34.2523C13.5754 34.2904 12.3944 34.3714 11.142 34.4523C9.24204 34.5809 9.69918 34.7095 8.02775 34.7095C7.80871 34.7095 7.59442 34.7095 7.38013 34.7047C6.84204 34.6904 6.42775 34.5761 6.40871 33.2047C6.53728 30.6333 6.59442 28.3523 6.65156 25.938C6.67061 25.0904 6.69442 24.2238 6.71823 23.3238V22.7047C6.73728 22.1571 4.38013 21.9523 3.50871 21.919C3.38013 21.919 3.27061 21.8904 3.17537 21.838C3.08013 21.7857 2.99918 21.7047 2.94204 21.6095C2.8849 21.5142 2.85156 21.4047 2.85156 21.2904C2.85156 21.1809 2.87537 21.0714 2.93251 20.9761C4.23728 17.9381 5.57537 14.9761 7.06109 11.6904C7.24204 11.2952 7.42299 10.9 7.60871 10.5047L7.71823 10.2666C8.19918 9.23329 8.68013 8.19519 9.11347 7.15233L9.19442 6.95233C9.49918 6.20948 9.91823 5.19043 10.6611 5.19043C10.7278 5.19043 10.7992 5.19995 10.8706 5.21424C13.1468 5.68091 15.5373 5.74281 17.8516 5.79995C18.5135 5.81424 19.1087 5.83329 19.7039 5.85233C23.1611 5.94757 26.6468 6.26186 30.0611 6.79043C30.2801 6.79043 30.4516 6.82853 30.6039 6.89043C30.7516 6.95233 30.8849 7.04281 30.9992 7.1571C31.1611 7.49519 31.2992 7.88091 31.3944 8.28567C31.6135 8.89519 31.8278 9.46186 32.0468 10.0238C32.4611 11.1 32.9039 12.2047 33.3658 13.3047C34.2944 15.5095 35.3039 17.7 36.3611 19.819L36.4468 19.9857C36.7563 20.6 37.4039 21.8809 37.0278 22.4381C36.8278 22.7381 36.4135 22.8428 35.4373 22.8428C35.1468 22.8428 34.823 22.8333 34.4611 22.8238C34.3706 22.8238 34.2944 22.8381 34.2182 22.8666C34.1468 22.8904 34.0754 22.938 34.0135 22.9904C33.9468 23.0523 33.8992 23.119 33.8659 23.2C33.8325 23.2761 33.8135 23.3619 33.8135 23.4428C33.8087 25.3428 33.8468 27.3238 33.8801 28.8428C33.8849 29.0809 33.8944 29.3714 33.9039 29.6857V29.7571C33.9373 30.7285 33.9754 31.9333 33.9373 32.6523C33.8373 34.4761 33.8182 34.8 32.223 34.8L32.2325 34.8047ZM10.5373 8.94281C10.123 8.94281 9.87537 9.38091 9.62299 9.90472C9.39442 10.3714 8.96585 11.3761 8.5849 12.2619L8.56109 12.319C8.23728 13.0761 7.89918 13.8619 7.71823 14.2571C6.77537 16.0761 5.9468 17.9857 5.26585 19.9333C5.1849 20.1047 5.17537 20.3238 5.24204 20.5238C5.30871 20.7285 7.82775 20.9 8.01347 21.0095C8.36585 21.2428 8.35632 21.6476 8.34204 22.1619V22.2619C8.32775 22.7809 8.31823 23.3047 8.30871 23.8238C8.2849 25.0047 8.26585 26.2238 8.20394 27.4285L8.16109 29.3714C8.17537 29.8619 8.16109 30.3523 8.15632 30.8238C8.1468 31.2904 8.13728 31.738 8.14204 32.1857V32.2809C8.17061 32.9619 8.42299 33.1904 9.13251 33.1904C11.0325 33.1714 10.5182 33.0428 12.323 32.919C13.8039 32.8142 15.3325 32.7095 16.8373 32.6666C18.0658 32.6333 19.2754 32.6142 20.442 32.6142C22.0849 32.6142 23.6897 32.6523 25.2039 32.7238L25.9182 32.7571C27.4801 32.8285 30.7278 32.9809 31.242 33.0333C31.2944 33.0381 31.342 33.0428 31.3897 33.0428C31.6611 33.0428 31.8754 32.9619 32.0278 32.8047C32.2897 32.5333 32.2754 32.1333 32.2659 31.7761C32.2659 31.7761 32.1706 28.6333 32.1516 27.9047C32.1373 27.419 32.1087 26.7857 32.0754 26.1095C32.0278 25.0857 31.9801 24.0714 31.9658 23.2809C31.9658 23.2095 31.9516 23.1381 31.9182 23.0619C31.8849 22.9857 31.842 22.919 31.7801 22.8666C31.7325 22.819 31.6706 22.7809 31.5992 22.7523C31.5278 22.7238 31.4563 22.7142 31.3849 22.7142C31.2182 22.7142 31.042 22.7142 30.842 22.7142C29.9706 22.7142 28.6944 22.6904 27.5706 22.6666C26.623 22.6476 25.7801 22.6285 25.3039 22.6285H25.2087C24.8468 22.6285 24.4468 22.6381 24.0278 22.6428H23.923C23.2039 22.6523 22.4992 22.6619 21.8278 22.6619C21.1563 22.6619 20.5944 22.6523 20.142 22.6333L19.7801 22.619C18.5182 22.5761 17.6849 22.5476 16.9563 21.4047C16.3658 20.3904 15.8373 19.3238 15.3849 18.2428L13.8468 15.038C13.5992 14.519 13.0706 13.4095 12.5516 12.3047C12.0373 11.2142 11.523 10.1285 11.2801 9.619C11.1278 9.30472 10.9087 8.94757 10.5373 8.94757V8.94281ZM30.4849 17.7238C30.2039 17.7238 29.9611 17.8428 29.8135 18.0523C29.6801 18.238 29.6516 18.4714 29.7278 18.6857C29.7992 18.8809 29.9182 19.219 30.0278 19.5238C30.1325 19.8142 30.2182 20.0523 30.2516 20.1523C30.2992 20.3714 30.4373 20.5857 30.6325 20.7571C30.8278 20.9285 31.0706 21.0285 31.3278 21.0523C32.1325 21.1095 32.9325 21.1285 33.7039 21.1428L34.0611 21.1523C34.4468 21.1523 34.6325 20.9809 34.7182 20.8333C34.9897 20.3809 34.6325 19.6571 34.2516 18.9523C34.1944 18.8428 34.1563 18.7761 34.1325 18.7285C34.0563 18.4952 33.8944 18.2666 33.6801 18.0952C33.4659 17.9238 33.2039 17.8142 32.9278 17.7857C32.542 17.738 32.1468 17.7142 31.7611 17.7095C31.6801 17.7095 31.5944 17.7095 31.5135 17.7095C31.3611 17.7095 31.2135 17.7095 31.0658 17.7142C30.8706 17.7142 30.7087 17.7238 30.542 17.7238H30.4897H30.4849ZM23.4087 17.4809C23.2992 17.4809 23.1944 17.5047 23.0897 17.5428C22.9468 17.6047 22.823 17.7 22.7373 17.8285C22.6468 17.9619 22.5944 18.1095 22.5897 18.2619C22.5801 18.419 22.6182 18.5714 22.6944 18.7047L23.4278 20.2476C23.6468 20.7142 23.9325 20.9428 24.9373 21.0047C25.4658 21.038 25.9897 21.0476 26.5182 21.0619C26.5182 21.0619 27.7039 21.0952 27.7087 21.0952C28.0992 21.0952 28.3801 20.9857 28.523 20.7714C28.5992 20.6523 28.6706 20.4571 28.5563 20.1904C28.4611 19.9619 28.3706 19.7333 28.2849 19.5047C28.1992 19.2809 28.123 19.0857 28.0468 18.8952C27.6706 17.9666 27.3897 17.5571 26.3135 17.5C26.042 17.4857 25.7516 17.4809 25.4563 17.4809L24.1944 17.4904C23.9611 17.4904 23.7325 17.4904 23.5135 17.4809C23.5135 17.4809 23.4801 17.4714 23.4135 17.4714L23.4087 17.4809ZM19.3563 21.0238C19.5373 21.0333 19.7325 21.038 19.9325 21.038C20.2278 21.038 20.5325 21.0285 20.8039 21.019C21.1325 21.0047 21.5611 20.9238 21.742 20.6C21.823 20.4571 21.8801 20.219 21.7039 19.8952C21.5706 19.6523 21.4563 19.419 21.342 19.1904C21.1658 18.8333 20.9992 18.5 20.7849 18.1523C20.3373 17.4142 20.1182 17.2857 19.323 17.2857C19.1849 17.2857 19.0135 17.2857 18.8278 17.2952H18.6992C18.4373 17.3047 18.1611 17.3095 17.9944 17.3095H17.9278C17.723 17.3095 17.3278 17.3904 17.1373 17.6904C17.0516 17.8285 16.9754 18.0619 17.1278 18.3714C17.2992 18.7381 17.9135 19.9571 18.123 20.3333C18.242 20.5571 18.4278 20.7428 18.6516 20.8666C18.8468 20.9761 19.0706 21.0333 19.2992 21.0333H19.3611L19.3563 21.0238ZM29.1611 16.0904C29.7658 16.1285 30.3706 16.1666 30.9706 16.1857C31.0182 16.1857 31.0801 16.1952 31.1516 16.2C31.3039 16.2142 31.4849 16.2333 31.6563 16.2333C31.9087 16.2333 32.2659 16.2047 32.4658 15.9523C32.5468 15.8523 32.6325 15.6761 32.5706 15.4142C32.4135 14.919 32.223 14.4428 31.9992 13.9904C31.842 13.4666 31.4658 12.9666 30.9801 12.6381C30.4468 12.4047 29.9325 12.2904 29.3897 12.2904C29.3135 12.2904 29.2373 12.2904 29.1611 12.2952H28.9706C28.7897 12.2952 28.623 12.2904 28.4658 12.2809H28.3706C28.2897 12.2666 28.1992 12.2619 28.1039 12.2619C27.7087 12.2619 27.4373 12.3952 27.2992 12.6523C27.1039 13.019 27.3373 13.3952 27.4944 13.6428C27.5373 13.7095 27.5706 13.7619 27.5897 13.8095C27.8087 14.3095 28.0087 14.819 28.1801 15.3238C28.2182 15.519 28.3516 15.7333 28.5325 15.8761C28.7087 16.0142 28.9278 16.0952 29.1563 16.0952L29.1611 16.0904ZM15.7468 11.5C15.5897 11.5 15.4325 11.5 15.2801 11.5095H15.2087C14.9706 11.5095 14.5754 11.519 14.3801 11.8047C14.3039 11.919 14.2373 12.1095 14.342 12.3857C14.5182 12.838 15.4611 15.0238 15.6897 15.3238C15.7849 15.4904 15.9516 15.6476 16.1468 15.7571C16.3373 15.8619 16.5516 15.9142 16.7658 15.9142C17.3468 15.9142 18.2325 15.8523 18.5754 15.819C18.8944 15.7857 19.1182 15.6571 19.242 15.4285C19.4039 15.1285 19.3468 14.7285 19.0658 14.1904L18.1849 12.5095C18.0706 12.2428 17.8658 12 17.6135 11.8238C17.3563 11.6476 17.0563 11.5476 16.7468 11.5333C16.4278 11.5047 16.0897 11.4857 15.7516 11.4857L15.7468 11.5ZM20.8992 11.919C20.4706 11.919 20.2611 12.0952 20.1563 12.2476C20.023 12.4476 20.0039 12.7 20.1039 12.9571C20.2706 13.3904 20.7754 14.6523 20.9658 15.0476C21.0468 15.2714 21.2135 15.4857 21.423 15.6381C21.6373 15.7952 21.8944 15.8809 22.1611 15.8904C22.3468 15.8904 23.2944 15.9 23.2944 15.9C23.8039 15.9 24.3801 15.9095 24.8325 15.9095C25.1135 15.9095 25.3516 15.9095 25.5039 15.9047C25.8658 15.8952 26.1039 15.7857 26.2373 15.5666C26.4468 15.2285 26.2849 14.8095 26.0658 14.3333C25.8849 13.938 25.3658 12.9 25.2992 12.7761C24.9325 12.0809 24.0325 12.0333 23.4373 12.0047H23.3373C22.523 11.9571 20.9087 11.9238 20.8992 11.9238V11.919ZM26.042 7.74281C25.9468 7.74281 25.6611 7.74281 25.4897 7.96662C25.3706 8.119 25.3468 8.319 25.4135 8.57138C25.5278 9.019 25.6706 9.46662 25.8373 9.90472C26.0897 10.5095 26.2801 10.8809 27.0849 10.9333C27.2944 10.9476 28.0135 10.9904 28.4468 10.9952C28.5706 10.9952 28.6801 10.9952 28.7801 10.9952C29.0897 10.9952 29.3182 10.9857 29.5706 10.9714C29.8468 10.9523 30.0468 10.8666 30.1754 10.7047C30.2944 10.5571 30.3325 10.3666 30.2944 10.138C30.223 9.69519 30.1039 9.25234 29.942 8.819C29.8516 8.5571 29.6706 8.32376 29.4373 8.16662C29.223 8.02376 28.9706 7.94757 28.7135 7.94757H28.6373C28.3754 7.93329 27.8516 7.89043 27.3706 7.85233C27.3373 7.85233 26.7468 7.79995 26.5754 7.79043C26.5135 7.79043 26.4468 7.78091 26.3849 7.77138C26.2658 7.7571 26.1468 7.74757 26.0468 7.74757L26.042 7.74281ZM18.8944 7.35233C18.6373 7.35233 18.4373 7.43805 18.3087 7.59995C18.1706 7.77614 18.1373 8.02376 18.2135 8.32853C18.323 8.83329 18.4849 9.33805 18.6944 9.819C18.8992 10.2523 19.4135 10.2809 19.7563 10.3H19.8659C20.6658 10.3619 21.4706 10.3904 22.2468 10.4142C22.6563 10.4285 23.0611 10.4428 23.4706 10.4571C23.742 10.4571 23.9373 10.3666 24.0468 10.1904C24.2849 9.819 24.0611 9.25234 23.7944 8.6571C23.7468 8.5571 23.723 8.50472 23.7087 8.46662C23.3563 7.52376 22.7182 7.52376 22.042 7.52376H21.9706C21.4468 7.52376 20.8039 7.47614 20.1849 7.42853C19.7278 7.39519 19.3087 7.36186 18.9468 7.34757H18.8992L18.8944 7.35233ZM12.923 7.10948C12.423 7.10948 12.1611 7.18567 12.0182 7.37614C11.8706 7.57138 11.9278 7.78567 11.9516 7.87614C12.1182 8.40472 12.323 8.92376 12.5611 9.41424C12.8087 9.99519 13.4039 10.0142 13.8373 10.0285C13.9182 10.0285 13.9897 10.0333 14.0516 10.038C14.1897 10.0476 14.5516 10.0714 14.9611 10.0714C16.1897 10.0714 16.4849 9.87138 16.6278 9.65234C16.723 9.49995 16.7325 9.32376 16.6563 9.15233C16.5611 8.92852 16.4754 8.70472 16.3897 8.48567C16.3039 8.26186 16.223 8.04757 16.1325 7.83329C15.8801 7.25234 15.3992 7.17138 14.9563 7.17138H14.7944C14.723 7.17138 13.3658 7.119 13.1801 7.10948C13.0849 7.10948 12.9992 7.10472 12.9182 7.10472L12.923 7.10948Z" fill="#3B1502"/>
</svg>
