<svg width="40" height="40" viewBox="0 0 40 40" fill="none" xmlns="http://www.w3.org/2000/svg">
<path d="M11.3286 33.0952C11.3286 33.0952 11.5048 34.0476 15.4667 33.0952C19.4286 32.1429 24.1524 29.2714 24.1524 29.2714L28.7762 22.7381V18.6905L31.3286 16.4286C31.3286 16.4286 32.6953 16.3905 31.3286 13.6952C17.5191 -13.5714 -8.19519 22.619 11.3286 33.0952Z" fill="#B8C6E2"/>
<path d="M21.9471 12.2524C22.3756 10.3952 24.3423 9.04283 25.8042 8.95236C26.0423 7.95712 27.0375 5.96664 28.0375 4.7476C27.9994 4.45712 28.0756 3.7714 28.228 3.51902C28.7375 2.59045 30.1518 2.63807 30.409 3.66188C30.5185 4.16664 30.0709 5.37617 29.2947 5.41902C28.409 6.35712 27.6233 7.96188 27.3804 9.0476C29.6185 9.14283 31.6233 11.3905 32.028 12.7285C32.7518 12.7619 33.9423 11.7524 34.309 11.1524C34.0233 9.74759 35.4566 8.68569 36.4042 9.43331C37.3328 10.1666 36.5661 11.7238 35.5756 11.8285C35.1613 12.3905 34.9613 12.6571 34.4375 13.0619C33.5804 13.719 33.2804 13.9 32.3566 14.3333C32.3423 16.4524 31.4137 18.5905 29.3375 18.9857C29.4518 20.7 29.3566 22.2905 28.4947 23.8571C30.5566 24.5714 32.1375 26.2238 33.0518 28.1905C33.5947 29.2381 32.3994 29.6857 31.7947 28.9666C31.628 28.7714 31.4518 28.5714 31.3518 28.3381C30.8852 27.219 29.2566 25.4524 27.8613 25.3714C27.2947 26.2428 26.8042 27.2285 25.9423 28.019C26.8328 28.9047 28.9756 33.6285 26.9899 34.0095C26.7137 34.0143 26.3566 33.719 26.2661 33.3333C25.8566 32.0333 25.9042 30.5095 24.5994 29.2714C23.8947 29.8095 23.1661 30.3666 22.3899 30.9571C23.1042 32.6285 23.5375 34.5762 22.9709 36.3524C22.9185 36.8285 22.3899 37.1952 21.928 37.1333C21.6566 37.0857 21.4423 36.7857 21.4709 36.3714C21.6471 34.8476 21.809 33.3476 21.1328 31.8905C19.0709 32.9714 17.0661 33.8762 14.7137 33.9857C11.9613 34.1143 9.17563 33.0285 7.55659 30.6905C5.88516 28.2762 6.26135 24.4095 7.8423 21.2571C6.88516 20.0666 5.1804 19.6809 3.77563 19.2285C3.21373 19.0476 2.85659 17.8714 3.60421 17.6809C4.41373 17.4762 7.39468 18.2952 8.72802 19.6476C9.40897 18.7381 10.2566 17.5952 10.8375 16.9571C9.99944 15.7809 7.71373 14.2238 7.72802 13.2571C7.7423 12.3047 8.45659 12.4619 9.21373 13.0143C10.3518 13.8476 11.7613 15.5952 11.9899 15.8524C12.5994 15.319 13.1471 14.8333 13.728 14.3238C13.8042 13.5857 13.5566 12.7666 13.2947 11.9714C12.9518 10.9285 12.3137 10.019 11.9471 9.00474C11.6994 8.36664 12.5994 7.79998 13.0947 8.2714C14.228 9.38093 15.0423 11.8047 15.2185 13.0905C16.2613 12.4 17.5185 11.9333 18.6613 11.8381C19.7137 11.7524 20.8137 11.9 21.9566 12.2619L21.9471 12.2524ZM9.10421 29.8476C9.87087 29.1666 11.2566 27.8905 12.0233 27.219C15.0613 24.5809 22.9756 18.5095 18.809 14.1762C18.1709 13.4762 17.9233 13.6619 17.1328 13.9857C15.2566 14.7714 13.7994 16.2381 12.4804 17.7476C10.7899 19.6762 9.06135 21.8333 8.2804 24.3143C7.90897 25.4809 7.54706 27.7952 9.09944 29.8476H9.10421ZM10.2709 31.1285C11.7994 32.9 15.3852 32.5905 17.9423 31.5619C19.9661 30.7476 21.9994 29.2857 23.628 27.8381C24.4375 27.1143 25.1518 26.2571 25.7804 25.3809C26.028 25.0285 27.3471 23.3905 27.3899 22.5095C27.4328 21.6524 26.6613 21.4285 25.9566 21.2285C24.709 20.8905 23.4947 20.7143 22.2375 21.1905C21.0471 21.6762 19.9375 22.3 18.9756 23.1905C16.0709 25.8857 12.8756 28.1571 10.2756 31.1285H10.2709ZM27.9613 17.5381C28.4471 17.8333 29.0756 17.8285 29.5328 17.4857C31.7423 15.8524 30.6375 12.1857 28.1375 11.0952C26.3375 10.2476 25.0423 10.6 23.7756 12.119C23.1804 12.8381 23.9328 13.6143 24.3804 14.2047C25.3709 15.5143 26.5709 16.7 27.9613 17.5333V17.5381ZM27.5899 18.8714C25.5994 17.7666 23.8042 16.5619 22.609 14.5666C22.1471 13.8285 21.428 13.6333 20.5137 13.5666C22.128 15.4381 21.8661 17.6143 20.9947 19.7857C23.4137 19.0666 25.6233 19.1809 27.7375 20.3238C27.8328 19.9762 27.7947 19.3857 27.5947 18.8762L27.5899 18.8714Z" fill="#3B1502"/>
</svg>
