<svg width="40" height="40" viewBox="0 0 40 40" fill="none" xmlns="http://www.w3.org/2000/svg">
<path d="M22.8256 36.4286C22.8256 36.4286 33.6637 38.1 34.4351 26.7905C35.2066 15.481 24.3113 8.07622 24.5208 4.87146C24.7304 1.6667 22.597 11.8096 18.5399 14.5238C15.4351 17.2381 12.3494 9.76194 12.8256 5.00003C14.2542 -10.2381 -10.9839 15 8.54465 17.7524C14.7304 16.4286 13.778 25.9524 13.778 25.9524L13.897 28.5143L16.7304 33.5191L22.8256 36.4286Z" fill="#A8D1C6"/>
<path d="M19.3155 26.0762C19.3679 25.1429 17.9298 25.081 17.8345 25.9715C17.7631 27.0191 19.2345 27.0572 19.3155 26.0762Z" fill="#3B1502"/>
<path d="M19.3155 29.4096C19.3679 28.4763 17.9298 28.4144 17.8345 29.3049C17.7631 30.3525 19.2345 30.3906 19.3155 29.4096Z" fill="#3B1502"/>
<path d="M21.9829 28.5572C22.0686 27.8286 20.8496 27.6238 20.7591 28.4C20.6306 29.2143 21.902 29.4429 21.9829 28.5572Z" fill="#3B1502"/>
<path d="M24.3676 37.1429C19.3295 37.1429 14.8437 33.5667 13.458 28.4477C12.1914 23.7667 13.7961 18.7619 18.358 13.1572C20.3152 10.7477 22.3437 8.25718 23.1056 5.17623L23.1866 4.82384C23.4104 3.82861 23.5961 3.32384 23.9914 3.32384C24.0723 3.32384 24.1723 3.34289 24.2771 3.37623C25.1533 3.65242 25.4056 4.29051 25.7485 5.17146C25.858 5.45242 25.9818 5.77623 26.139 6.09527C26.8152 7.42384 27.5961 8.71432 28.458 9.92384C28.8009 10.4191 29.1533 10.9191 29.5104 11.4191C31.6342 14.4191 33.639 17.2477 34.4818 20.7619C34.7152 21.7381 34.8676 22.7381 34.9342 23.7381C35.3437 29.8096 32.6104 36.2905 25.5961 37.0762C25.1866 37.1238 24.7723 37.1477 24.3676 37.1477V37.1429ZM24.5628 6.84765C23.9771 6.84765 23.6866 7.5048 23.4914 7.93813C23.1437 8.66194 22.8247 9.31432 22.4676 9.91908C21.7009 11.1477 20.8437 12.3381 19.9199 13.4524L19.7437 13.6715C17.9914 15.8667 16.1866 18.1334 15.3199 20.9524C14.2437 24.4619 14.3342 27.6905 15.5818 30.2762C16.2247 31.6238 17.1818 32.8334 18.3533 33.7715C19.5199 34.7048 20.9104 35.3762 22.3723 35.7096C23.0628 35.8619 23.7723 35.9381 24.4818 35.9381C25.1914 35.9381 25.8533 35.8667 26.5247 35.7238C27.8818 35.4334 29.1914 34.8477 30.3104 34.0238C32.1533 32.5762 33.4247 29.9572 33.7104 27.0143C33.7961 26.0857 33.8009 25.1429 33.7152 24.2096C33.4914 21.7762 32.8009 19.4477 31.6628 17.2905C30.7342 15.5286 29.5818 13.9 28.4676 12.3238C27.7628 11.3238 27.0485 10.3143 26.4057 9.29527C26.0152 8.68099 25.6676 8.02861 25.3295 7.40003C25.1247 7.02384 24.8723 6.84289 24.5676 6.84289L24.5628 6.84765ZM9.74375 18.6905C7.3247 18.6905 5.1247 16.4953 5.02946 13.9953C5.0247 13.8429 5.02946 13.6953 5.02946 13.5429C5.1247 11.7715 6.14375 9.86194 7.03898 8.17623C7.27232 7.73813 7.50089 7.30956 7.70565 6.89527L9.19613 3.9048C9.70089 2.89051 9.71041 2.87146 10.5104 2.85718C10.9485 2.85718 11.1295 3.53813 11.2914 4.71432C11.3485 5.12384 11.3914 5.43337 11.4676 5.67623C11.7818 6.70003 12.2914 7.68099 12.7771 8.63337C13.5866 10.2096 14.4247 11.8381 14.3104 13.5715C14.2057 15.1715 13.2152 17.3477 11.7342 18.2238C11.1676 18.5286 10.5199 18.6905 9.85803 18.6905H9.73898H9.74375ZM9.82946 6.98099C9.46279 6.98099 9.16279 7.21908 8.92946 7.68575C8.69613 8.15718 8.40565 8.65718 8.11994 9.13813C7.24375 10.6429 6.33898 12.1953 6.33898 13.9096C6.35327 14.5048 6.51041 15.0905 6.79613 15.6048C7.32946 16.5619 8.54851 17.5334 9.85327 17.5334C10.1818 17.5334 10.5009 17.4715 10.8009 17.3477C11.3247 17.1048 11.758 16.7334 12.0628 16.2667C13.6342 14.0477 12.658 11.9477 11.7961 10.0905L11.758 10.0048C11.5961 9.65718 11.4342 9.30956 11.2914 8.95718L11.2057 8.72384C10.9437 7.99051 10.5818 6.98099 9.83422 6.98099H9.82946Z" fill="#3B1502"/>
</svg>
