<svg width="40" height="40" viewBox="0 0 40 40" fill="none" xmlns="http://www.w3.org/2000/svg">
<path d="M21.123 33.0953L28.2659 31.6667L32.0754 27.8572L29.8849 21.9953L32.0754 17.2238L29.2182 10.7143L25.6325 10.4143C25.6325 10.4143 25.8849 9.28573 24.4659 6.16668C19.3563 -1.68094 11.5992 -0.71427 7.41823 2.85716C2.3468 7.88573 2.75633 18.2667 6.83728 20.7143C1.59918 25 4.45633 35.9524 21.123 33.0953Z" fill="#B6D5A0"/>
<path d="M20.8152 37.1429C20.5057 37.1429 20.2295 37.0048 20.1533 36.8096C19.9057 36.0048 19.7819 35.1429 19.7819 34.2715V33.8667L19.3819 33.881C19.2723 33.881 19.1295 33.8905 18.9676 33.9C18.6152 33.9191 18.1771 33.9429 17.7676 33.9429C17.6485 33.9429 17.539 33.9429 17.4295 33.9381C16.4628 33.9 15.939 33.8619 14.9152 33.7477C12.72 33.4953 10.7295 32.6667 9.58186 31.5334C8.27234 30.2 7.44853 28.4429 7.27234 26.5762C7.16281 25.7238 7.29138 24.8715 7.64376 24.1C7.99615 23.3286 8.55805 22.6762 9.26757 22.2096C9.31043 22.181 9.39615 22.1477 9.48662 22.1096C9.81519 21.9715 10.1819 21.8191 10.3009 21.4953C10.4628 21.0477 10.0723 20.6334 9.78186 20.3334C9.72948 20.2762 9.68186 20.2286 9.65329 20.1905C8.67234 19.0715 8.04853 17.7191 7.84376 16.2667C7.639 14.2286 8.06757 12.3381 9.01519 11.0905C9.54376 10.4 10.2485 9.86194 11.058 9.53813C11.4914 9.3667 11.9485 9.27623 12.4152 9.27623H12.5152C12.8247 9.27623 13.1438 9.3048 13.4771 9.33337L13.839 9.36194H13.8771C14.0057 9.3429 14.1342 9.29528 14.2438 9.21909C14.3533 9.1429 14.439 9.03813 14.4961 8.92385L14.5104 8.89528L14.52 8.86194C14.6342 8.47623 14.7057 8.07623 14.7723 7.69051C14.8819 7.06194 14.9866 6.47147 15.2676 5.9667C16.3295 4.07147 18.3961 2.84766 20.539 2.84766C21.9247 2.84766 23.1914 3.34766 24.2057 4.28575C24.8104 4.85718 25.2961 5.5667 25.6057 6.34289C25.8533 6.94289 25.9914 7.5667 26.0104 8.20956V8.3667C26.0104 8.82861 26.0057 9.13337 26.22 9.34766C26.4104 9.53813 26.6723 9.5429 26.7628 9.5429C26.858 9.5429 26.9771 9.53337 27.1247 9.51432C27.1247 9.51432 27.2057 9.51432 27.239 9.51432C28.0295 9.51432 28.8104 9.78575 29.4295 10.281C30.0771 10.781 30.62 11.381 31.0533 12.0715C32.62 14.4286 33.5819 18.1667 31.1533 20.9667C30.439 21.7858 31.1485 22.7048 31.6152 23.3096C31.7342 23.4619 31.8438 23.6048 31.9247 23.7334C32.4533 24.5429 32.7438 25.4762 32.7723 26.4334C32.7485 27.4238 32.4152 28.3953 31.82 29.2191C30.9104 30.5096 29.6723 31.5381 28.239 32.2C27.1771 32.6858 26.0581 33.0762 24.9247 33.3667C24.1247 33.5715 22.5914 33.8048 21.7485 33.9286L21.439 33.9715L21.42 34.2858C21.4104 34.4572 21.42 34.8857 21.4295 35.5238C21.439 35.9286 21.4485 36.3238 21.4438 36.5334V36.5572V36.581C21.4628 36.7334 21.4342 36.8524 21.3533 36.9381C21.2438 37.0572 21.0485 37.1334 20.82 37.1334L20.8152 37.1429ZM12.5438 10.7905C12.0057 10.7905 11.5009 10.981 10.9914 11.3667C10.0104 12.1381 9.37234 13.2381 9.19615 14.4715C9.03424 15.8858 9.35329 17.3238 10.0866 18.5286C10.4961 19.2238 11.1009 19.7096 11.6819 20.181C11.9009 20.3572 12.12 20.5334 12.3247 20.7238C12.758 21.1191 13.1485 21.7191 12.9914 22.1048C12.8152 22.5286 11.9676 22.7953 11.3485 22.9905C11.0342 23.0905 10.739 23.181 10.5104 23.2953C10.1485 23.4381 9.80091 23.6667 9.50567 23.9667C9.21043 24.2715 8.98186 24.6191 8.839 25.0096L8.82948 25.0334V25.0619C8.71043 25.5715 8.71043 26.1143 8.82948 26.6334C8.939 27.4953 9.19138 28.3667 9.56757 29.1953C10.039 30.1191 10.8057 30.8572 11.7295 31.2905C13.1057 32.0286 14.6438 32.3762 16.5485 32.3762C17.2247 32.3762 17.9771 32.3334 18.92 32.2429C19.8295 32.1572 19.7914 31.5096 19.7723 31.081C19.7723 31.0048 19.7628 30.9286 19.7628 30.8429C19.7485 30.1048 19.7438 29.4096 19.739 28.7286C19.7295 27.5286 19.72 26.4 19.6723 25.1096C19.6866 24.8524 19.6152 24.5715 19.4723 24.3238C18.9057 23.5524 18.3104 22.8477 17.6819 22.1953C17.5866 22.0953 17.4628 21.981 17.3295 21.8524C16.7961 21.3429 15.9104 20.4905 15.8961 19.8953C15.8961 19.7619 15.939 19.6477 16.0438 19.5381C16.1628 19.3858 16.2914 19.3048 16.4342 19.2762C16.4723 19.2667 16.5104 19.2667 16.5533 19.2667C16.658 19.2667 16.7676 19.2953 16.8581 19.3477C17.539 19.6572 18.0104 20.2 18.5057 20.7715C18.6247 20.9096 18.7438 21.0429 18.8628 21.181L18.9771 21.3096H19.3247L19.4438 21.1858C19.5914 21.0286 19.5914 20.9953 19.4723 19.4667C19.4438 19.1048 19.42 18.7619 19.4104 18.5572C19.4009 18.3762 19.3866 18.181 19.3723 17.981C19.3104 17.0953 19.2295 15.8858 19.658 15.5191C19.7819 15.4143 19.9342 15.3572 20.0914 15.3572C20.4295 15.3572 20.7961 15.6238 20.8438 16.2191C21.0104 18.2334 21.1295 21.0143 21.1914 24.4858C21.2009 24.9715 21.2104 25.4477 21.6961 25.4477C21.7533 25.4477 21.8104 25.4381 21.8723 25.4191L21.9247 25.4L21.9723 25.3667C22.2295 25.1905 22.4581 24.9858 22.6819 24.7905C22.9295 24.5715 23.1676 24.3619 23.4247 24.2048C23.5295 24.1381 23.6247 24.1048 23.7247 24.1048C23.9533 24.1048 24.1866 24.281 24.2961 24.5334C24.3533 24.6667 24.42 24.9286 24.2104 25.1572C23.5438 25.881 22.9342 26.6477 22.3438 27.3953L21.9533 27.8905C21.6914 28.2477 21.4914 28.6191 21.3485 29.0096L21.339 29.0381V29.0667C21.1961 29.7477 21.1723 30.4429 21.2676 31.1286C21.32 31.6381 21.3771 32.181 22.1438 32.181C22.2009 32.181 22.2723 32.181 22.3438 32.1762C23.8009 32.0953 25.2295 31.8238 26.6009 31.3619C27.5628 31.0238 28.4438 30.5238 29.2152 29.8762C29.9533 29.3191 30.558 28.5667 30.9485 27.7048C31.2295 26.8191 31.1961 25.9048 30.8628 25.0858C30.7819 24.7619 30.6342 24.4096 30.439 24.0858C30.1771 23.7381 29.8676 23.481 29.5247 23.3048C29.2819 23.1905 29.0628 23.0572 28.8628 22.9143C28.7152 22.7953 28.6342 22.6524 28.62 22.481C28.5723 21.9191 29.2438 21.1381 29.6866 20.6191C29.7961 20.4905 29.9009 20.3715 29.9819 20.2667C30.4342 19.7 30.7628 19.0572 30.958 18.3524C31.1485 17.6524 31.1961 16.9286 31.0914 16.2096C30.7104 14.6048 29.939 13.1381 28.858 11.9286C28.5247 11.5 28.0247 11.2 27.4628 11.1H27.439C27.439 11.1 27.3057 11.0905 27.2485 11.0905C26.939 11.0905 26.6295 11.1334 26.3342 11.2191C25.8961 11.3143 25.4866 11.3619 25.1438 11.3619C24.6676 11.3619 24.339 11.2667 24.1961 11.0858C24.0771 10.9381 24.0581 10.6953 24.1342 10.3619L24.1819 10.1715C24.42 9.1667 24.6676 8.12385 24.0819 7.01909C23.7771 6.38099 23.3628 5.79528 22.8533 5.28575C22.2295 4.76194 21.5057 4.42861 20.7342 4.3048C20.5723 4.27623 20.4104 4.2667 20.2485 4.2667C19.1819 4.2667 18.1152 4.86194 17.1676 5.98575C16.7819 6.43813 16.4866 6.95242 16.2914 7.50956C16.12 8.13337 16.0295 8.74766 16.0152 9.36194C15.9009 10.7048 15.7009 11.4953 15.0295 11.4953C14.8961 11.4953 14.7438 11.4667 14.5771 11.4143L14.4676 11.3619C13.7819 11.0572 13.1914 10.7953 12.5485 10.7953L12.5438 10.7905ZM24.8533 16.2905C24.739 16.2762 24.6247 16.2286 24.5247 16.1619C24.4295 16.0953 24.3485 16.0048 24.2961 15.9048C24.239 15.7953 24.2104 15.681 24.2057 15.5667C24.2295 15.2762 24.2819 15.0381 24.3581 14.8096C24.4104 14.5858 24.4771 14.4238 24.5771 14.281C24.6057 14.2477 24.6485 14.2143 24.6628 14.2143C24.7295 14.2143 24.9009 14.3 25.0961 14.5381C25.4914 15.0191 25.7104 15.6 25.62 15.9191C25.6009 15.981 25.5581 16.1429 25.2152 16.2572C25.1295 16.2858 25.0438 16.3 24.9628 16.3C24.9295 16.3 24.8961 16.3 24.8628 16.2953L24.8533 16.2905Z" fill="#3B1502"/>
<path d="M25.9483 19.3095C26.0007 18.3762 24.5626 18.3143 24.4674 19.2048C24.3959 20.2524 25.8674 20.2905 25.9483 19.3095Z" fill="#3B1502"/>
<path d="M28.1353 17.0286C28.221 16.3 27.0019 16.0953 26.9115 16.8715C26.7829 17.6857 28.0543 17.9143 28.1353 17.0286Z" fill="#3B1502"/>
</svg>
