<svg width="40" height="40" viewBox="0 0 40 40" fill="none" xmlns="http://www.w3.org/2000/svg">
<path d="M29.3083 6.88575C30.4797 7.88575 31.2369 8.33337 31.2369 8.33337L30.9083 10.7524L32.8892 12.6191L32.1749 17.481L33.3559 19.4286L32.8892 21.6667L31.9369 23.0953L32.8892 25.9524L32.1749 29.0143L33.5988 32.9191C33.5988 32.9191 36.6988 34.0477 34.794 35.4762C32.8892 36.9048 29.0749 35.4762 29.0749 35.4762L17.313 36.1096C-5.20124 36.4286 0.513045 34.0477 1.94162 28.3334C-4.72981 13.0953 8.12733 -11.1904 29.3083 6.88575Z" fill="#D0BEA8"/>
<path d="M18.2759 9.34281C18.3616 8.61424 17.1426 8.40948 17.0521 9.18567C16.9235 9.99996 18.1949 10.2285 18.2759 9.34281Z" fill="#3B1502"/>
<path d="M16.5733 7.62384C16.6257 6.69051 15.1876 6.62861 15.0924 7.51908C15.0209 8.5667 16.4924 8.6048 16.5733 7.62384Z" fill="#3B1502"/>
<path d="M37.1097 34.8476C36.9335 34.1619 36.1049 33.9666 35.5668 33.6762C34.8811 33.3 34.0287 30.3905 32.9287 29.6428C33.7954 26.3857 34.2382 26.1571 32.6001 23.1381C33.9287 22.0809 34.4668 19.1 33.1382 17.6238C33.8382 16.0238 34.9097 12.6238 31.8049 10.3571C32.7287 6.5095 29.3001 4.90474 26.2144 6.71426C24.3763 4.16664 22.8144 3.75236 20.2906 5.12855C19.0811 3.49522 17.4097 2.56188 15.343 2.9476C13.5621 3.27617 12.2811 4.47141 11.6287 6.12855C11.4906 6.47617 11.4954 6.88569 11.1192 7.14283C10.7001 7.43331 8.87157 7.86188 7.54776 9.38569C6.03348 11.1952 5.60015 14.5905 6.25729 16.0524C4.45729 17.0619 3.90491 20.1428 5.443 21.5666C5.83348 21.9285 5.95729 22.2952 5.81919 22.7857C4.85729 26.3666 5.07634 27.3095 6.30967 30.8857C5.20491 32.1762 3.05253 33.3571 2.87157 35.1571C2.69062 36.8286 4.56205 37.1905 5.87157 37.1428C7.6811 37.0762 10.4478 36.2714 12.2668 36.5857C14.1811 36.9143 15.8478 37.3857 17.7763 36.7476C19.1573 36.2905 21.4573 36.8571 22.843 37.0476C26.943 37.6095 28.5192 35.6381 30.9382 36.3666C32.6144 36.8714 34.0335 36.5095 35.7335 36.2619C36.4573 36.1571 37.3192 35.6762 37.1097 34.8524V34.8476ZM8.25729 11.2905C8.87157 9.76188 10.3144 8.91426 11.0811 8.97617C12.2716 9.07141 12.2668 9.1095 12.7382 8.07617C13.2906 6.31902 14.4763 5.3476 16.1763 4.93331C17.7668 4.5476 18.3954 5.9476 19.5049 6.7095C19.6049 6.77617 19.7049 6.83331 19.8192 6.87141C20.343 7.0476 21.0287 6.77141 21.4811 6.50474C22.3763 5.97617 23.3049 6.33807 24.0668 6.91902C24.6192 7.33807 24.8954 8.1095 25.5049 8.42855C26.6192 9.01903 27.8716 7.71903 29.024 7.82855C29.9716 7.89045 30.8192 8.73331 30.2954 9.75712C29.8335 10.6619 29.7859 11.6095 30.6811 12.019C33.0192 13.0952 32.0287 15.9905 31.6001 16.6285C30.8763 16.5857 28.1763 15.4238 24.824 15.4809C22.6763 15.5143 20.5144 16.1428 19.4144 15.9285C19.0906 15.8666 16.443 14.8524 13.9097 15.2238C12.5382 15.4238 10.2811 15.9476 8.8811 15.9047C8.73348 15.9 8.5811 15.8809 8.43348 15.8619C7.11443 13.9285 8.24777 11.3333 8.26681 11.2905H8.25729ZM33.3954 34.8C32.7478 35.2238 31.4097 34.5381 30.7287 34.4333C29.7573 34.2809 28.7763 34.3524 27.8525 34.7047C25.8097 35.4809 22.6859 35.3857 20.5859 34.9857C19.2954 34.7 18.0478 34.6381 16.7668 35.1619C15.6287 35.6285 14.4335 35.3619 13.2954 35.0381C11.0335 34.3857 7.66681 35.1428 5.44776 35.6286C4.66205 35.8 4.81443 35.1143 5.20015 34.7095C5.95253 33.919 6.70491 33.1238 7.4811 32.3476C8.30491 31.5285 8.62396 30.0714 8.47157 28.9476C8.45253 28.8285 8.43348 28.7047 8.36205 28.6095C8.04776 28.1571 7.75729 28.9285 7.3811 28.7619C6.51919 26 7.04776 26.0714 7.51919 23.2619C8.01919 23.1524 8.46681 23.5381 8.80967 23.1905C9.23824 22.7476 9.73348 21.8666 8.97634 21.4809C6.36681 20.319 5.92396 20.1095 6.99062 17.2428C9.10967 17.8714 12.0573 17.1809 14.0763 16.9047C15.9716 16.6 17.8049 17.2238 19.6287 17.3905C21.2382 17.3571 22.8335 17.0524 24.462 17.0762C25.8906 17.1 27.4811 17.1333 28.8573 17.5476C29.724 17.8095 31.4716 18.2762 32.124 18.9095C32.6478 19.419 32.5097 20.9857 31.9382 21.4476C31.8192 21.5428 31.6621 21.6143 31.4525 21.6524C29.0049 22.0905 26.524 22.5333 24.0382 22.3809C23.7335 22.3619 23.4144 22.3333 23.1287 22.4428C22.843 22.5476 22.5906 22.8333 22.6335 23.1381C22.6716 23.4238 22.9382 23.619 23.1954 23.7524C24.3192 24.319 25.6097 24.2905 26.824 24.1333C27.5287 24.0428 28.2287 23.9333 28.9335 23.8285C29.1525 23.7952 30.8097 23.4238 30.9001 23.5619C32.3859 25.719 32.1573 25.6 31.6954 28.0524C31.543 28.7571 31.2573 29.2905 30.4859 29.3619C30.443 29.9905 30.8716 30.2047 31.2097 30.3809C32.124 30.8666 32.6525 31.7714 33.062 32.6905C33.243 33.0952 33.9382 34.4381 33.3954 34.7952V34.8Z" fill="#3B1502"/>
<path d="M14.8431 10.2381C14.8527 9.28572 13.4003 9.58096 13.5098 10.3571C13.6289 11.2333 14.8527 11.1762 14.8431 10.2381Z" fill="#3B1502"/>
</svg>
