<svg width="40" height="40" viewBox="0 0 40 40" fill="none" xmlns="http://www.w3.org/2000/svg">
<path d="M7.38181 3.57141C15.2532 2.83807 15.0009 9.33331 18.3342 9.3095C21.6675 9.28569 29.2866 9.28569 29.2866 9.28569L29.7628 6.42855L32.4151 5.83331L33.1866 6.83807V9.09998L35.4723 8.8095L35.9485 13.5714L33.0818 14.0619L33.0913 15.4762L35.9485 15.9524V20.2381L33.0913 20.7143V23.0952L36.4247 24.0476V27.8571H33.0913V33.0952L31.6628 34.5238L29.758 34.0476L28.8056 27.8571L11.6628 27.3809L10.7104 29.7619C10.7104 29.7619 10.8009 32.1333 10.758 33.5666C10.7247 34.6428 1.66276 39.2857 0.234193 26.9047C0.000859529 24.8333 -0.237236 17.3809 2.14372 14.5238C-0.713426 10.2381 2.41514 4.03331 7.38181 3.57141Z" fill="#ECBB95"/>
<path d="M36.1104 22.5191C35.2961 22.4905 35.4866 22.4762 34.0485 22.4619C34.0771 21.9762 33.9676 21.4762 34.0104 20.9953C34.7819 21.0096 35.0771 21.0381 35.8485 21.0524C36.3057 21.0857 36.758 20.781 36.9247 20.3572C36.9866 20.1905 36.9866 20.0096 37.0009 19.8429V19.2715C37.0152 18.3905 37.0438 17.1524 37.058 16.2762C37.0914 15.6096 36.5152 15.0477 35.8485 15.081C35.3533 15.0667 34.5628 15.0477 34.0485 15.0477C34.0628 14.7762 34.0342 14.5191 34.0485 14.2619L35.2533 14.2762L35.5247 14.2953H35.5723C35.7676 14.2953 35.9771 14.2334 36.1581 14.1096C36.4485 13.9143 36.6438 13.5667 36.6438 13.2191V13.0667L36.6581 12.5238C36.6723 11.981 36.6914 10.8905 36.7057 10.3477C36.7057 10.1953 36.72 9.72384 36.7057 9.57622C36.6914 8.97146 36.1295 8.47146 35.5247 8.48575C35.2819 8.48575 34.458 8.48575 34.0485 8.47146C34.0485 8.01908 34.0676 7.56194 34.0819 7.10956C34.0819 6.01908 33.1104 5.0667 32.0247 5.08099C31.5866 5.08099 31.0723 5.0667 30.6485 5.0667C29.5152 5.02384 28.5009 5.97622 28.4866 7.12384V8.40956C27.0342 8.39527 23.52 8.38099 20.0009 8.3667C16.4819 8.37622 12.9676 8.39527 11.5152 8.40956V7.12384C11.5009 5.97622 10.4866 5.02384 9.35329 5.0667C8.92948 5.0667 8.41519 5.08099 7.9771 5.08099C6.89138 5.0667 5.91996 6.01908 5.91996 7.10956C5.93424 7.56194 5.95329 8.01908 5.95329 8.47146C5.54377 8.48575 4.71996 8.48575 4.4771 8.48575C3.87234 8.47146 3.31043 8.97146 3.29615 9.57622C3.28186 9.72384 3.29615 10.1953 3.29615 10.3477C3.31043 10.8905 3.32948 11.981 3.34376 12.5238L3.35805 13.0667V13.2191C3.35805 13.5667 3.55329 13.9143 3.84376 14.1096C4.02472 14.2334 4.23424 14.2953 4.42948 14.2953H4.4771L4.74853 14.2762L5.95329 14.2619C5.96757 14.5191 5.939 14.7762 5.95329 15.0477C5.439 15.0477 4.64853 15.0667 4.15329 15.081C3.48662 15.0477 2.91043 15.6096 2.94376 16.2762C2.95805 17.1524 2.98662 18.3905 3.00091 19.2715V19.8429C3.01519 20.0096 3.01519 20.1905 3.0771 20.3572C3.24376 20.781 3.69615 21.0857 4.15329 21.0524C4.92472 21.0381 5.21996 21.0096 5.99138 20.9953C6.03424 21.4762 5.92472 21.9762 5.95329 22.4619C4.51519 22.4762 4.70567 22.4905 3.89138 22.5191C3.26757 22.6096 2.81519 23.1857 2.86281 23.8048C2.8771 24.0048 2.8771 25.0905 2.89138 25.3048C2.90567 25.5286 2.90567 26.6191 2.91996 26.8143C2.89138 27.4667 3.39138 28.0286 4.039 28.0286C4.1771 28.0286 5.8771 28.1334 5.95329 28.1477C5.95329 30.2381 6.07234 31.6667 6.07234 33.5C6.07234 35 7.85805 34.8619 8.51996 34.8619C9.28662 34.8619 11.1914 35 11.2104 33.5905L11.6152 28.3429C11.9485 28.3619 15.72 28.4524 20.0009 28.4857C24.2866 28.4572 28.0533 28.3619 28.3866 28.3429L28.7914 33.5905C28.8104 35 30.7152 34.8619 31.4819 34.8619C32.1438 34.8619 33.9295 35 33.9295 33.5C33.9295 31.6667 34.0485 30.2381 34.0485 28.1477C34.1247 28.1334 35.8247 28.0286 35.9628 28.0286C36.6104 28.0286 37.1104 27.4667 37.0819 26.8143C37.0961 26.6191 37.0961 25.5286 37.1104 25.3048C37.1247 25.0905 37.1247 24.0048 37.139 23.8048C37.1866 23.1857 36.7342 22.6096 36.1104 22.5191ZM30.2819 7.15241C30.2819 7.06194 30.3295 6.99051 30.3914 6.9286C30.4485 6.88099 30.5104 6.85241 30.5866 6.83813H32.0676C32.1438 6.83813 32.22 6.8667 32.2819 6.91432C32.3247 6.97146 32.3723 7.04765 32.3866 7.12384L32.4152 8.45718C31.6914 8.43813 30.9485 8.43813 30.2819 8.42384V7.15241ZM7.61519 7.12384C7.62948 7.04765 7.6771 6.97146 7.71995 6.91432C7.78186 6.8667 7.85805 6.83813 7.93424 6.83813H9.41519C9.49138 6.85241 9.55329 6.88099 9.61043 6.9286C9.67234 6.99051 9.71996 7.06194 9.71996 7.15241V8.42384C9.05329 8.43813 8.31043 8.43813 7.58662 8.45718L7.61519 7.12384ZM5.77234 12.9905C5.66281 12.9905 4.91519 12.9762 4.70567 12.9762C4.73424 12.0381 4.74853 10.5572 4.76281 9.61908C5.01996 9.62384 12.7581 9.64289 20.0009 9.66194C27.2438 9.64289 34.9819 9.62384 35.239 9.61908C35.2533 10.5572 35.2676 12.0381 35.2961 12.9762C35.0866 12.9762 34.339 12.9905 34.2295 12.9905C32.7771 13.0238 26.4581 13.0286 20.0009 13.0143C13.5438 13.0334 7.22472 13.0238 5.77234 12.9905ZM32.6152 15.0334C31.8247 15.0191 31.0533 15.0048 30.2676 15.0048V14.1572C30.4961 14.1715 30.7247 14.1715 30.9485 14.1857C31.2961 14.1857 31.9342 14.2048 32.5819 14.2334C32.5961 14.4905 32.5961 14.7619 32.6152 15.0334ZM28.5152 14.9905C25.6819 14.9619 22.839 14.9381 20.0009 14.9238C17.1628 14.9334 14.32 14.9572 11.4866 14.9905C11.4866 14.6857 11.5009 14.4 11.5009 14.1096C12.9057 14.0667 16.4438 14.0524 20.0009 14.0667C23.5581 14.0524 27.1009 14.0667 28.5009 14.1096C28.5009 14.4 28.5152 14.6857 28.5152 14.9905ZM9.73424 14.1572V15.0048C8.94853 15.0048 8.1771 15.0191 7.38662 15.0334C7.40567 14.7619 7.40567 14.4905 7.41996 14.2334C8.06757 14.2048 8.70567 14.1857 9.05329 14.1857C9.2771 14.1715 9.50567 14.1715 9.73424 14.1572ZM4.33424 19.7667C4.36281 18.7857 4.3771 17.5619 4.39138 16.5619C7.99138 16.6381 11.7009 16.681 15.4628 16.7L20.0009 16.6857L24.539 16.7C28.3009 16.681 32.0104 16.6381 35.6104 16.5619C35.6247 17.5619 35.639 18.7857 35.6676 19.7667C33.7961 19.8048 26.9057 19.8143 20.0009 19.8C13.0961 19.8143 6.20091 19.8096 4.33424 19.7667ZM32.1009 22.4619C31.0295 22.4477 30.92 22.4286 30.1485 22.4286C30.1628 21.9143 30.1771 21.4191 30.1771 20.9048C31.1009 20.9334 31.1771 20.9619 32.1009 20.9762C32.1342 21.4762 32.0723 21.9619 32.1009 22.4619ZM28.62 22.4143C25.7485 22.3857 22.8771 22.3667 20.0009 22.3572C17.1247 22.3667 14.2533 22.3857 11.3819 22.4143C11.3961 21.9 11.3961 21.3715 11.4104 20.8572C12.839 20.8191 16.4104 20.8143 20.0009 20.8286C23.5914 20.8143 27.1676 20.8191 28.5914 20.8572C28.6057 21.3715 28.6057 21.9 28.62 22.4143ZM7.90091 20.9762C8.82472 20.9619 8.90091 20.9334 9.82472 20.9048C9.82472 21.4191 9.839 21.9143 9.85329 22.4286C9.08186 22.4286 8.97234 22.4477 7.90091 22.4619C7.92948 21.9619 7.86757 21.4762 7.90091 20.9762ZM10.0295 32.4905C10.0295 32.4905 10.0009 33.5667 9.039 33.5667C8.9771 33.5667 8.30091 33.5286 8.08662 33.4857C7.71043 33.4096 7.43424 33.081 7.43424 32.6953C7.42948 31.181 7.43424 29.2048 7.47234 28.4429C7.81996 28.4572 8.31519 28.4667 8.82948 28.481L9.13424 28.4905C9.64853 28.5 9.89138 28.5143 10.2438 28.5286C10.1961 29.1905 10.0342 32.4857 10.0342 32.4857L10.0295 32.4905ZM32.5723 32.7C32.5723 33.0857 32.2961 33.4143 31.92 33.4905C31.7057 33.5334 31.0247 33.5715 30.9676 33.5715C30.0057 33.5715 29.9771 32.4953 29.9771 32.4953C29.9771 32.4953 29.8152 29.2 29.7676 28.5381C30.12 28.5238 30.3628 28.5096 30.8771 28.5L31.1819 28.4905C31.6961 28.4762 32.1914 28.4667 32.539 28.4524C32.5771 29.2143 32.5819 31.1857 32.5771 32.7048L32.5723 32.7ZM20.0009 26.9048C12.1628 26.8524 4.28186 26.4524 4.28186 26.4524C4.28186 26.1048 4.28186 25.7143 4.29615 25.3334L4.31519 24.1096C4.31519 24.1096 4.32948 24.0477 4.32948 24.0048C4.49615 24.0048 4.79615 24.0048 5.11519 24.0191L20.0009 23.8096L34.8866 24.0191C35.2057 24.0048 35.5057 24.0048 35.6723 24.0048C35.6723 24.0477 35.6866 24.1096 35.6866 24.1096L35.7057 25.3334C35.72 25.7143 35.72 26.1048 35.72 26.4524C35.72 26.4524 27.839 26.8524 20.0009 26.9048Z" fill="#3B1502"/>
</svg>
