<svg width="40" height="40" viewBox="0 0 40 40" fill="none" xmlns="http://www.w3.org/2000/svg">
<path d="M13.5722 30.7143C13.5722 30.7143 28.0103 31.6667 31.0293 30.7143C34.0484 29.7619 37.5912 28.3048 35.3436 24.9857C35.9531 23.0952 37.4293 19.9619 31.6912 16.7667C32.6198 14.0476 24.0484 1.19048 8.81027 6.90477C-6.42782 12.6191 0.238842 32.1429 13.5722 30.7143Z" fill="#81B995"/>
<path d="M29.4512 27.9142C29.0703 27.9142 28.7655 27.6523 28.7084 27.2761C28.6512 26.9 28.8655 26.5571 29.2274 26.4428C29.5512 26.3428 29.837 26.0809 30.0179 25.7333C30.1941 25.3857 30.2322 25 30.1227 24.6809C29.9893 24.2904 30.1989 23.8571 30.5941 23.7238C30.6751 23.6952 30.756 23.6809 30.837 23.6809C31.1608 23.6809 31.4465 23.8857 31.5512 24.1904C31.7893 24.8952 31.7227 25.7047 31.3608 26.4142C30.8703 27.3809 29.9227 27.9142 29.456 27.9142H29.4512Z" fill="#3B1502"/>
<path d="M27.011 18.9905C26.6491 18.9905 26.3348 18.7333 26.2729 18.3762C26.192 17.9476 25.8539 17.5619 25.4348 17.4191C25.2443 17.3572 25.092 17.2238 25.0015 17.0429C24.911 16.8619 24.8967 16.6572 24.9634 16.4667C25.0682 16.1572 25.3539 15.9524 25.6777 15.9524C25.7586 15.9524 25.8396 15.9667 25.9158 15.9905C26.8491 16.3048 27.5729 17.1286 27.7586 18.0952C27.8015 18.3191 27.7443 18.5429 27.5967 18.7191C27.4539 18.8905 27.2396 18.9905 27.0158 18.9905H27.011Z" fill="#3B1502"/>
<path d="M11.3234 31.5238C11.1377 31.5381 10.9567 31.5238 10.7758 31.5238C8.35673 31.5238 3.51863 30.6524 2.92339 26.3476C2.76625 25.1952 2.87101 24 3.5472 23.0857C4.05196 22.4095 4.7472 21.9619 5.54244 21.7905C4.89482 20.6952 4.67101 19.4238 4.91387 18.1476C5.19006 16.6952 6.06149 15.4286 7.29958 14.6714C8.10434 14.1857 9.04244 13.9286 10.0186 13.9286C10.4472 13.9286 10.871 13.981 11.2758 14.081C11.7567 10.8048 14.7472 8.46667 18.5662 8.46667C20.9329 8.46667 23.2043 9.40477 24.9901 11.1143C25.7901 10.8476 26.5805 10.7095 27.3424 10.7095C29.352 10.7095 31.1139 11.7 31.9424 13.2905C32.4901 14.3476 32.5377 15.5 32.0805 16.4857C33.9091 16.6667 35.652 17.8 36.5186 19.4143C37.4329 21.1143 37.3329 23.1857 36.2758 24.8857C36.8043 25.6143 36.8948 26.9095 36.7043 27.6238C36.5091 28.3572 36.1424 28.981 35.6139 29.4714C34.1424 30.8 32.2282 31.5333 30.2282 31.5333M32.4567 29.7C33.5758 29.2524 34.5472 28.6524 34.9234 27.7619C35.1139 27.3095 35.0948 26.7238 34.8805 26.2619C34.771 26.0333 34.571 25.7381 34.2091 25.6286C33.9139 25.5381 33.7139 25.2952 33.6805 24.9905C33.6472 24.6857 33.7901 24.4048 34.0567 24.2524C34.9139 23.7667 35.4329 22.681 35.3282 21.6143C35.2329 20.5762 34.5948 19.5667 33.6186 18.9048C32.7424 18.3095 31.6424 18.0095 30.2662 17.9905C29.8996 17.9572 29.6329 17.7476 29.5424 17.4429C29.4567 17.1524 29.5567 16.8381 29.7996 16.6429C30.352 16.2048 30.5329 15.2905 30.2139 14.5619C29.8567 13.7476 28.9901 13 28.1948 12.8238C27.952 12.7714 27.6758 12.7429 27.3805 12.7429C26.6805 12.7429 25.8472 12.8952 25.1424 13.1524C25.0615 13.181 24.9758 13.2 24.8853 13.2C24.671 13.2 24.4662 13.1095 24.3234 12.9476C22.6139 11.0524 20.471 10.0048 18.2853 10.0048C17.0805 10.0048 15.9424 10.3333 14.9996 10.9524C13.552 11.9048 12.6567 13.5286 12.7282 15.0952C12.7377 15.3048 12.6615 15.5 12.5186 15.6524C12.3758 15.8 12.1758 15.8857 11.971 15.8857C11.8567 15.8857 11.7424 15.8572 11.6377 15.8048C11.152 15.5619 10.5901 15.4333 10.0186 15.4333C9.32339 15.4333 8.65672 15.6143 8.09006 15.9619C7.01387 16.6191 6.35673 17.781 6.33768 19.0667C6.31387 20.3429 6.90911 21.5048 7.92339 22.1762C8.27101 22.4095 8.36625 22.8619 8.1472 23.2095C8.00911 23.4286 7.77101 23.5619 7.50911 23.5619C7.37101 23.5619 7.23768 23.5238 7.11863 23.4524C6.88053 23.3095 6.59006 23.2333 6.28053 23.2333C5.80434 23.2333 5.33292 23.4143 4.99482 23.7238C4.42339 24.2524 4.36149 25.1381 4.3853 25.9857C4.47101 29.2286 9.05196 29.9762 10.7758 30.0048C15.6186 30.0905 20.371 29.9905 24.2234 30.181C27.8424 30.3572 31.3139 30.3048 32.452 29.7048L32.4567 29.7Z" fill="#3B1502"/>
<path d="M13.3389 18.6762C13.3913 17.7429 11.9532 17.681 11.858 18.5715C11.7866 19.6191 13.258 19.6572 13.3389 18.6762Z" fill="#3B1502"/>
<path d="M13.3389 22.0096C13.3913 21.0763 11.9532 21.0143 11.858 21.9048C11.7866 22.9524 13.258 22.9905 13.3389 22.0096Z" fill="#3B1502"/>
<path d="M15.9986 21.1571C16.0843 20.4286 14.8652 20.2238 14.7747 21C14.6462 21.8143 15.9176 22.0429 15.9986 21.1571Z" fill="#3B1502"/>
</svg>
