<svg width="50" height="50" viewBox="0 0 50 50" fill="none" xmlns="http://www.w3.org/2000/svg">
<path d="M10.9238 39.0195C8.47873 35.8541 6.68244 32.441 6.14121 28.4847C5.96761 27.2157 5.74201 25.9238 6.05633 24.6328C6.15609 24.2231 5.88959 24.026 5.59554 23.8309C4.54178 23.1317 3.62689 22.2963 2.99619 21.1804C2.6368 20.5445 2.51421 19.9011 2.7327 19.1785C2.89934 18.6274 3.08857 18.089 3.28671 17.5488C3.86925 15.9605 5.0908 15.3166 6.6604 15.3934C7.88225 15.4532 8.67901 15.135 9.37063 14.0462C10.5514 12.1873 11.915 10.4547 13.7873 9.17403C16.5296 7.29827 19.5062 6.04641 22.7974 5.56907C24.0318 5.39004 25.2757 5.27174 26.5265 5.27318C27.1417 5.27389 27.4586 4.80775 27.8021 4.42675C28.5295 3.61992 29.2947 2.87609 30.2279 2.29475C31.963 1.21383 33.2679 1.47667 34.9995 2.55643C35.8141 3.06437 35.9392 4.01574 36.0889 4.8975C36.2127 5.62704 36.2235 6.37323 36.4603 7.08711C36.6265 7.58801 36.9096 7.9719 37.3403 8.27619C41.2315 11.0253 43.8705 14.7748 45.6476 19.1C46.4447 21.04 46.6317 23.1958 46.4822 25.3245C46.4249 26.1409 46.7039 26.6934 47.4235 27.0946C48.0106 27.4218 48.5231 27.8725 48.989 28.3602C50.227 29.656 50.1653 31.166 49.6663 32.729C49.126 34.4209 47.723 34.9254 46.1703 35.2054C45.8633 35.2607 45.54 35.3735 45.246 35.3259C44.1513 35.1488 43.6516 35.7783 43.1015 36.5959C39.8376 41.4466 35.2537 44.3236 29.5208 45.398C28.5296 45.5838 27.5083 45.6985 26.505 45.5733C25.431 45.4394 24.7353 45.9104 24.1112 46.6926C23.5576 47.3863 22.9091 47.9916 22.2129 48.5563C20.8249 49.6821 19.4163 49.2858 18.0127 48.6767C16.734 48.1219 16.1627 47.0371 16.0694 45.7076C16.0295 45.1393 15.9745 44.5672 16.0095 43.9862C16.0408 43.4665 15.8834 42.993 15.3223 42.6796C13.6483 41.7448 12.2662 40.4411 10.9238 39.0195ZM35.606 8.28462C33.4623 7.19966 31.176 6.57535 28.8102 6.22735C26.6739 5.9131 24.5405 6.05254 22.4235 6.40337C19.9326 6.81615 17.5531 7.60808 15.4507 9.00982C11.5494 11.6109 8.9504 15.2082 7.56518 19.6832C6.40504 23.4311 6.36352 27.2087 7.50449 30.9369C9.01707 35.8793 11.737 39.9404 16.489 42.401C20.3748 44.4131 24.4999 45.3012 28.827 44.7157C33.6404 44.0644 37.7352 41.8806 40.9023 38.1651C43.1738 35.5002 44.8583 32.5169 45.4365 28.9867C45.6674 27.5774 45.5772 26.164 45.7067 24.7613C45.8234 23.4981 45.6516 22.2777 45.397 21.0718C44.8719 18.5846 43.6356 16.4006 42.1662 14.3696C40.4139 11.9476 38.5159 9.64225 35.606 8.28462ZM16.8775 45.6854C17.1364 47.9598 19.8196 49.1911 21.6869 47.9146C22.6308 47.2693 23.3121 46.3871 24.119 45.4998C21.5838 45.0936 19.177 44.5132 16.7556 43.4922C16.8013 44.2861 16.838 44.9215 16.8775 45.6854ZM29.1473 4.14243C28.8438 4.50271 28.5402 4.863 28.1239 5.35712C30.8213 5.66698 33.2488 6.38736 35.7257 7.49271C35.4801 6.73583 35.4594 6.16475 35.3884 5.59952C35.2678 4.63915 35.2209 3.59506 34.2318 3.01878C33.0528 2.33186 31.8468 2.13819 30.6498 2.98142C30.1602 3.32628 29.6969 3.70818 29.1473 4.14243ZM46.6053 27.5371C46.415 27.3759 46.3706 27.4909 46.3535 27.6673C46.1438 29.8322 45.6076 31.9092 44.6797 33.8823C44.6013 34.0491 44.4925 34.2224 44.572 34.4524C45.1109 34.6733 45.6446 34.455 46.1787 34.3898C47.6889 34.2053 48.6318 33.403 49.007 32.0013C49.4284 30.4265 49.0725 29.3781 47.7782 28.4002C47.4142 28.1251 47.0416 27.8612 46.6053 27.5371ZM3.63943 18.7654C3.2255 20.4179 4.38662 22.4874 6.06177 22.9473C6.36589 20.596 7.12727 18.3781 8.06926 16.1907C5.208 16.0534 4.42627 16.5039 3.63943 18.7654Z" fill="#471a03"/>
<path d="M19.9912 1.58812C20.5767 1.77458 20.8385 2.30776 21.3484 2.60054C21.4382 2.26925 21.5013 1.97818 21.5965 1.69782C21.7783 1.162 22.0028 0.647879 22.4789 0.291776C23.2331 -0.27247 23.9516 0.00240675 24.0376 0.936952C24.0997 1.61088 23.9592 2.28498 23.7648 2.93697C23.7109 3.11752 23.6061 3.31879 23.3768 3.26603C23.1057 3.20365 23.1149 2.95223 23.1587 2.74708C23.296 2.10484 23.3778 1.46532 23.1977 0.664955C22.2603 1.50015 22.0946 2.64864 21.5558 3.60656C20.8402 3.3135 20.5585 2.52118 19.812 2.25995C19.9234 2.9961 20.6425 3.43391 20.6427 4.15387C20.2669 4.34092 20.0728 4.13471 19.9238 3.94077C19.6095 3.53179 19.3322 3.09221 19.1785 2.5951C18.9603 1.88978 19.1576 1.63346 19.9912 1.58812Z" fill="#471a03"/>
<path d="M45.5529 8.35742C45.7844 8.59676 45.831 8.82673 45.7023 9.08292C45.3413 9.80206 44.8937 10.4455 44.2747 10.9329C44.1215 11.0535 43.9495 11.1741 43.7784 10.9649C43.6177 10.7683 43.7053 10.5906 43.842 10.4298C44.1891 10.0215 44.5469 9.62256 44.8711 9.01895C44.2127 9.35057 43.6531 9.60746 43.184 10.0592C42.9994 10.2369 42.764 10.4868 42.5194 10.1848C42.2717 9.87909 42.5416 9.67042 42.7312 9.50076C43.5344 8.78197 44.3653 8.1226 45.5529 8.35742Z" fill="#471a03"/>
<path d="M1.31201 31.9331C1.85128 30.6946 3.28819 29.4928 4.19957 29.5983C3.68849 30.4702 2.76456 30.8687 2.17149 31.6331C2.88285 31.9061 3.53148 31.1933 4.37324 31.5857C3.70068 32.1632 3.01917 32.4491 2.22572 32.5005C1.81257 32.5272 1.41416 32.5004 1.31201 31.9331Z" fill="#471a03"/>
<path d="M2.76779 26.2785C3.15967 26.6687 2.79901 26.7333 2.57676 26.7828C2.11822 26.8849 1.64849 26.9361 1.14315 27.0145C1.66264 27.6905 2.71669 27.1289 3.207 27.9988C2.08699 28.3013 1.12562 28.0818 0.247477 27.4958C-0.178646 27.2115 -0.0347618 26.715 0.527789 26.4501C1.2283 26.1202 1.97677 26.2752 2.76779 26.2785Z" fill="#471a03"/>
<path d="M42.3839 5.39355C43.114 5.67836 42.7664 6.28456 42.8213 6.74884C42.8681 7.1437 42.7199 7.52634 42.5427 7.87926C42.4635 8.03702 42.3369 8.17344 42.1467 8.10771C41.9572 8.04222 41.9479 7.86396 41.9581 7.67936C41.9817 7.2501 42.2274 6.84615 42.1234 6.33558C41.358 6.70427 41.4187 7.73258 40.7311 8.16323C40.4426 6.92485 41.2145 5.65176 42.3839 5.39355Z" fill="#471a03"/>
<path d="M10.4186 44.6477C10.7236 44.1058 10.9684 43.5803 11.7134 43.4404C11.8074 44.2815 10.753 44.7012 10.9554 45.5624C11.3925 45.4136 11.5891 45.0729 11.8459 44.7988C12.0858 44.5426 12.2531 44.1985 12.6732 44.1446C12.9452 44.3973 12.8034 44.6509 12.6671 44.8602C12.3087 45.4103 11.848 45.8781 11.2429 46.1841C10.5433 46.5379 10.2272 46.3465 10.205 45.5974C10.1956 45.2808 10.2614 44.9849 10.4186 44.6477Z" fill="#471a03"/>
<path d="M31.8769 48.7552C31.9604 48.1311 31.8193 47.5332 31.9583 46.9585C32.2207 46.8687 32.2635 47.1083 32.3172 47.2736C32.5246 47.9107 32.5384 48.5792 32.4715 49.2434C32.4401 49.5553 32.3533 49.9031 32.0353 49.9865C31.7456 50.0624 31.5704 49.8085 31.4105 49.573C30.8381 48.7296 30.7503 48.0569 31.1491 47.4603C31.5997 47.7528 31.3751 48.5458 31.8769 48.7552Z" fill="#471a03"/>
<path d="M19.8094 8.80879C23.4672 7.53138 27.182 7.0903 30.8281 8.26058C38.0125 10.5665 42.4539 15.4546 43.7756 23.0537C44.3458 26.3319 43.923 29.5065 42.5976 32.4975C40.2629 37.7663 36.2825 41.3297 30.7501 42.8076C26.141 44.0388 21.6001 43.4677 17.3584 41.138C12.8307 38.6512 9.91979 34.8652 8.73237 29.8248C8.24795 27.7686 8.20953 25.6312 8.46443 23.5126C8.89392 19.9428 10.2001 16.7037 12.4216 13.9183C14.3379 11.5159 16.7966 9.77227 19.8094 8.80879ZM35.3538 11.1683C34.0296 10.2989 32.693 9.4277 31.1423 9.04292C26.6911 7.93847 22.3645 8.09432 18.1891 10.2673C13.4444 12.7367 10.681 16.6747 9.43131 21.8068C9.00522 23.5567 9.07322 25.3268 9.13295 27.1103C9.1986 29.0706 9.63529 30.9475 10.4318 32.6905C13.9183 40.3199 22.0125 43.808 29.5803 42.3148C33.9245 41.4577 37.4325 39.1694 40.0091 35.471C43.8643 29.9373 44.2125 24.11 41.4703 18.0497C40.1689 15.1736 38.024 12.9868 35.3538 11.1683Z" fill="#471a03"/>
<path d="M36.7832 22.5099C36.4822 21.5159 36.0206 20.6453 35.5958 19.6961C36.1493 19.5999 36.3287 19.9333 36.5224 20.2107C37.3481 21.3935 37.6304 22.7683 37.8146 24.1623C38.0386 25.8572 37.8117 27.5067 37.2961 29.1376C35.9733 33.3213 33.0137 35.6311 28.9563 36.7099C28.2045 36.9098 27.4432 36.9257 26.6794 36.8002C26.642 36.3161 26.9439 36.3542 27.1893 36.3396C30.9857 36.1131 33.766 34.1055 35.885 31.0875C36.6289 30.0279 36.8871 28.6869 37.1077 27.3954C37.3862 25.7652 37.474 24.1362 36.7832 22.5099Z" fill="#471a03"/>
<path d="M14.5823 23.1498C14.2569 25.574 14.6231 27.8199 15.7261 29.9458C15.8516 30.1878 15.8378 30.1947 15.7856 30.6125C14.3468 30.0577 13.2564 24.8681 14.2044 21.8157C15.1311 18.8316 18.1491 15.4793 19.664 15.7602C19.7533 16.1415 19.4395 16.2578 19.203 16.4027C16.6598 17.9605 15.21 20.2465 14.5823 23.1498Z" fill="#471a03"/>
<path d="M32.1604 23.5566C31.9288 22.6184 31.5917 21.8007 30.9564 21.1314C30.8402 21.0088 30.7102 20.8883 30.6328 20.7422C30.49 20.4726 29.9971 20.1965 30.3745 19.9009C30.7071 19.6404 30.9452 20.1185 31.1616 20.3359C31.9314 21.1091 32.3834 22.0696 32.6534 23.1129C33.257 25.445 32.9527 27.6213 31.451 29.5565C29.9026 31.5519 27.7624 32.0514 25.3817 31.8987C25.1622 31.8846 25.1638 31.8606 24.7812 31.4663C25.6687 31.2861 26.5322 31.4213 27.3788 31.2651C29.8661 30.8061 31.7905 28.892 32.2399 26.4099C32.4121 25.4592 32.3736 24.5418 32.1604 23.5566Z" fill="#471a03"/>
<path d="M20.0767 19.4988C20.4529 19.2915 20.745 19.0084 21.4288 19.1223C19.6014 20.515 18.4876 22.1561 18.0531 24.2044C17.6166 26.2622 18.4068 28.0926 19.2813 30.0291C16.3026 28.8967 16.9177 22.1205 20.0767 19.4988Z" fill="#471a03"/>
<path d="M30.2948 13.5227C31.7455 14.1253 33.0406 14.8594 34.1106 15.9827C33.7765 16.3467 33.5394 16.1305 33.3295 15.957C31.6407 14.5611 29.6824 13.7837 27.5269 13.4489C27.2753 13.4098 27.2768 13.4002 26.9678 13.1007C27.4667 12.6427 28.3254 12.7478 30.2948 13.5227Z" fill="#471a03"/>
<path d="M25.6558 28.8593C25.8162 28.5701 26.1083 28.5627 26.3676 28.4869C28.5431 27.8507 29.1707 26.9569 28.9404 24.8003C28.919 24.5994 28.8444 24.3962 29.1332 24.3488C29.3649 24.3108 29.454 24.5172 29.4783 24.6652C29.6622 25.7838 29.7266 26.9133 28.8353 27.8053C28.0262 28.6151 27.0266 29.1056 25.7962 28.9929C25.7538 28.9891 25.7161 28.939 25.6558 28.8593Z" fill="#471a03"/>
<path d="M31.7209 16.6219C32.1423 16.9281 32.5245 17.1966 32.892 17.4848C33.0243 17.5886 33.1637 17.7423 33.0464 17.9326C32.9029 18.1655 32.7162 18.07 32.5417 17.9539C31.7671 17.4381 31.044 16.8341 30.1494 16.5263C29.5779 16.3297 29.0147 16.1078 28.4258 15.8891C28.5152 15.3314 28.8841 15.4372 29.1991 15.5131C30.0831 15.7263 30.9079 16.0928 31.7209 16.6219Z" fill="#471a03"/>
<path d="M22.2915 23.3555C21.7297 24.33 21.5147 25.327 21.4432 26.3847C20.8196 25.7805 20.9645 25.0948 21.1539 24.4275C21.4713 23.3093 22.0008 22.3158 23.3236 21.8657C23.1622 22.4499 22.5551 22.7743 22.2915 23.3555Z" fill="#471a03"/>
<path d="M21.5535 37.2661C20.5277 36.8829 19.5271 36.5597 19.0962 35.4229C20.3915 36.3122 21.7767 36.9734 23.3236 37.2913C22.7158 37.6156 22.1634 37.4087 21.5535 37.2661Z" fill="#471a03"/>
<path d="M24.029 32.8528C25.0299 32.9758 25.9729 33.0854 26.9679 33.2011C26.2352 33.8502 23.2793 33.453 22.8862 32.6938C23.2804 32.5612 23.6148 32.7872 24.029 32.8528Z" fill="#471a03"/>
<path d="M25.9478 27.2597C26.009 26.6254 26.7878 26.5435 26.9797 25.9478C27.3551 26.6197 26.9215 27.136 25.9478 27.2597Z" fill="#471a03"/>
<path d="M31.0743 39.4647C34.7615 38.2497 37.6207 35.9766 39.6001 32.5669C42.3572 28.0754 42.4964 23.4013 40.2611 18.86C36.7599 11.7469 29.4998 9.07353 22.7882 10.8303C22.7882 10.8303 22.4991 11.5504 22.6981 11.498C25.8698 10.8165 27.3151 10.8496 29.7338 11.4881C32.968 12.342 35.7939 13.8167 37.9048 16.44C39.2082 18.0597 40.0991 19.9095 40.6276 21.9247C41.624 27.7058 40.1022 32.4614 35.5398 36.1561C33.8929 37.4898 32.132 38.6408 30.075 39.1529C25.535 40.2832 21.3241 39.3961 17.5056 36.7775C14.7615 34.8956 13.1513 32.2125 12.1995 29.0687C10.0975 22.1258 13.9661 15.6141 19.5563 12.7242C20.073 12.4571 20.796 12.1529 20.9321 12.0639C21.0683 11.9749 21.1362 11.425 20.9682 11.3931C20.8002 11.3611 19.3704 12.0616 18.6074 12.4948C12.9784 15.6899 10.4025 20.7731 11.1767 27.3032C11.5796 30.7024 12.9569 33.7669 15.4745 36.0162C19.9412 40.0069 25.1865 41.4049 31.0743 39.4647Z" fill="#471a03"/>
<path d="M10.278 6.88285C10.3407 6.96694 10.4028 7.05673 10.4743 7.13393C10.5444 7.20995 10.6396 7.274 10.7344 7.31558C10.8311 7.35973 10.9157 7.37882 11.0232 7.38909C11.056 7.39152 11.1566 7.39292 11.1804 7.36143C11.253 7.26403 11.2519 7.1249 11.2345 7.0007C11.2285 6.95793 11.2199 6.91692 11.2133 6.87986C11.1706 6.67619 11.0273 6.52041 10.9084 6.35837C10.842 6.26777 10.7838 6.17463 10.711 6.08915C10.6487 6.01768 10.5638 5.95642 10.4796 5.91052C10.4063 5.87155 10.3272 5.84182 10.2446 5.82668C10.1911 5.81868 10.0952 5.79976 10.0501 5.84125C10.0088 5.8794 9.98681 5.95424 9.97733 6.00763C9.95756 6.11873 9.96178 6.21945 9.9814 6.32926C10.0187 6.54493 10.1523 6.71193 10.278 6.88285Z" fill="#2F2319"/>
<path d="M8.37131 10.1511C8.41392 10.193 8.45515 10.235 8.49896 10.2753C8.61262 10.3804 8.72444 10.5026 8.86573 10.5729C9.00248 10.6409 9.16053 10.6694 9.31205 10.6412L9.31344 10.641C9.31209 10.6313 9.31073 10.6217 9.30938 10.612C9.29217 10.4892 9.23773 10.373 9.16324 10.2751C9.13033 10.2319 9.09603 10.1888 9.05438 10.1539C9.03978 10.1405 9.02398 10.1286 9.00938 10.1152C8.9492 10.0589 8.89021 10.001 8.82864 9.94491C8.78483 9.90462 8.7448 9.86098 8.70357 9.81892C8.65228 9.76561 8.60254 9.72333 8.54252 9.67828C8.48408 9.63441 8.41528 9.60746 8.34649 9.58052C8.27473 9.55258 8.19224 9.53881 8.11464 9.53984C8.11464 9.53984 8.11326 9.54003 8.11206 9.5416C8.09194 9.7006 8.14247 9.85954 8.23012 9.99078C8.2697 10.0514 8.31902 10.1007 8.36992 10.1513L8.37131 10.1511Z" fill="#2F2319"/>
</svg>
