<svg width="100" height="94" viewBox="0 0 100 94" fill="none" xmlns="http://www.w3.org/2000/svg">
<path d="M46.275 76.0527C46.256 76.4524 46.3868 76.7919 46.6395 77.1029C47.6135 78.3019 47.9727 79.7174 48.1263 81.2299C48.2066 82.0202 48.1109 82.8002 48.0708 83.5722C48.0361 84.2399 47.6816 84.8974 47.4336 85.5458C46.6327 87.6394 45.221 89.2738 43.5129 90.6525C42.8212 91.2108 41.9739 91.5298 41.1376 91.8382C40.1395 92.2063 39.1481 92.5927 38.0781 92.6989" stroke="#471a03" stroke-linecap="round" stroke-linejoin="round"/>
<path d="M74.9555 78.1909C74.5705 78.96 74.8824 79.7105 75.0173 80.4651C75.2718 81.8878 75.2499 83.2964 74.8998 84.7078C74.3639 86.8682 73.2556 88.6728 71.5754 90.1088C70.2953 91.2028 68.839 92.0036 67.227 92.519C66.5806 92.7256 65.9369 92.9239 65.2617 93.0044" stroke="#471a03" stroke-linecap="round" stroke-linejoin="round"/>
<path d="M38.3833 38.4844C38.9498 38.8408 39.6256 38.823 40.2428 38.9498C42.3029 39.3732 43.9569 40.432 45.4341 41.8671C46.4239 42.8286 47.2256 43.9013 47.8504 45.1332C48.3489 46.1158 48.4209 47.1923 48.6892 48.2242C48.7685 48.5293 48.8325 48.8088 49.0735 49.0218" stroke="#471a03" stroke-linecap="round" stroke-linejoin="round"/>
<path d="M83.7404 40.1724C83.2921 40.5149 82.7922 40.5455 82.2652 40.4185C80.1744 39.9148 78.1089 40.184 76.1945 41.0051C73.7709 42.0445 71.6169 43.5367 70.4196 46.0214C70.031 46.8279 69.668 47.6585 69.4014 48.5285C69.2063 49.1652 69.3465 49.8065 69.2025 50.4465C69.0628 51.0672 68.9834 51.7129 68.8671 52.346C68.858 52.3956 68.8845 52.4831 68.8632 52.4945C67.8807 53.0224 67.742 54.1597 67.1042 54.945C66.3768 55.8404 65.4664 56.478 64.5575 57.1333C64.2704 57.3403 64.017 57.5457 63.8872 57.8792" stroke="#471a03" stroke-linecap="round" stroke-linejoin="round"/>
<path d="M86.8864 25.198C87.3039 25.016 87.716 24.9525 88.1084 25.2599C88.3122 25.4196 88.5504 25.3818 88.7809 25.3823C91.6735 25.3889 93.7318 26.8357 95.1213 29.2766C96.2151 31.1981 96.4511 33.292 96.1317 35.4985C95.6898 38.5512 93.9328 40.4987 91.2869 41.7866C90.6482 42.0975 89.9509 42.1283 89.2686 42.2066C88.8764 42.2517 88.4868 42.2835 88.0897 42.4281C87.9413 42.8407 88.1718 43.1248 88.4745 43.3899C90.1255 44.8351 91.0813 46.6878 91.523 48.817C91.7711 50.0131 91.872 51.2618 91.6806 52.448C91.3649 54.404 90.6432 56.2415 89.3908 57.8174C88.6379 58.7648 87.81 59.6398 86.8213 60.3408C86.5489 60.534 86.3857 60.7634 86.3364 61.0866" stroke="#471a03" stroke-linecap="round" stroke-linejoin="round"/>
<path d="M23.0948 68.6642C22.3464 68.6788 21.9036 68.1051 21.3758 67.7298C19.6968 66.5356 17.9083 65.591 15.8792 65.1629C15.5988 65.1038 15.3318 65.0089 15.1535 64.8324C14.8568 64.5387 14.4178 64.5616 14.2358 64.6871C13.5109 65.1867 12.6496 65.2632 11.8675 65.5668C10.7089 66.0166 9.66075 66.5992 8.79021 67.4925C7.84253 68.4648 6.93322 69.4827 6.34264 70.7057C5.74077 71.9521 5.19201 73.2375 5.03062 74.6403C4.67439 77.7369 5.33521 80.526 7.28966 83.0364C8.5361 84.6374 10.1338 85.6445 12.0071 86.1234C13.7774 86.5759 15.6251 86.533 17.4226 86.0376C20.1005 85.2997 22.3356 83.9491 23.7784 81.4822C24.0788 80.9685 24.3445 80.4403 24.4991 79.8734C24.5934 79.5279 24.7294 79.2279 24.9444 78.953" stroke="#471a03" stroke-linecap="round" stroke-linejoin="round"/>
<path d="M65.109 2.9954C65.1032 2.58557 65.4186 2.80504 65.5362 2.82513C66.2605 2.94881 66.9517 3.2062 67.6216 3.49698C68.2751 3.78065 68.9032 4.12744 69.527 4.47426C71.306 5.46319 72.6066 6.88035 73.4097 8.76995C73.6334 9.29635 73.7454 9.84799 73.9424 10.3769C73.9977 10.5252 74.0069 10.6837 74.1308 10.8069C74.4838 11.1584 74.4438 11.5786 74.3879 12.0362C74.2178 13.4267 74.0911 14.8226 73.9493 16.2166C73.9325 16.3812 74.0093 16.5708 73.7652 16.6499C73.314 16.7962 73.1317 17.1915 72.8954 17.5634C72.2366 18.6002 71.6176 19.6746 70.6345 20.4607C70.4409 20.6155 70.4058 20.858 70.3267 21.0745" stroke="#471a03" stroke-linecap="round" stroke-linejoin="round"/>
<path d="M74.5771 11.1365C74.9135 10.9099 75.1216 10.5751 75.2476 10.211C75.6345 9.09326 76.2671 8.16511 77.154 7.3724C78.0394 6.58101 78.8696 5.74591 79.9263 5.1542C81.4689 4.2904 83.0232 3.66642 84.861 3.85009C86.167 3.9806 87.481 3.99826 88.7364 4.43045C90.0831 4.89407 91.3571 5.47575 92.4395 6.44979C93.446 7.35547 94.4181 8.28634 95.0673 9.48088C95.571 10.4078 95.7446 11.4511 95.8767 12.4907C96.0018 13.4743 95.9686 14.4648 95.8658 15.4432C95.7609 16.4428 95.5777 17.4306 95.2771 18.403C94.7963 19.9581 93.7725 21.1112 92.6038 22.1393C91.665 22.9653 90.4788 23.4149 89.3504 23.9325C88.7192 24.222 88.025 24.3984 87.629 25.0455" stroke="#471a03" stroke-linecap="round" stroke-linejoin="round"/>
<path d="M33.9547 39.248C33.775 39.512 33.5191 39.6348 33.2185 39.7521C32.4705 40.0438 31.7016 40.287 31.0984 40.8904C30.6985 41.2903 30.0825 41.4844 29.7054 41.8983C28.0142 43.7547 26.5948 45.7751 26.1653 48.3253C26.1335 48.5143 26.0962 48.7416 25.9744 48.869C25.6069 49.2533 25.6958 49.6645 25.7951 50.1055C26.1004 51.4619 26.1109 52.8674 26.4782 54.2143" stroke="#471a03" stroke-linecap="round" stroke-linejoin="round"/>
<path d="M64.1929 2.7634C63.2715 2.772 62.3465 2.67544 61.4328 2.88503C59.4831 3.33222 57.8461 4.25989 56.712 5.95859C56.1273 6.83429 55.4834 7.65647 54.7553 8.42178C53.8344 9.38985 53.3731 10.5435 53.3832 11.9165C53.3934 13.2879 53.2736 14.6601 53.2197 16.0324C53.215 16.1521 53.1459 16.299 53.2767 16.4002C53.6794 16.7114 53.7673 17.187 53.8826 17.6312C54.1576 18.6907 55.0481 19.1949 55.7875 19.8445C56.3073 20.3011 56.8502 20.7188 57.4453 21.0717C57.8018 21.2831 58.0371 21.6037 58.1826 21.9908" stroke="#471a03" stroke-linecap="round" stroke-linejoin="round"/>
<path d="M14.1013 42.9131C13.471 43.4253 12.6768 43.5308 11.9406 43.7714C11.4002 43.9481 10.8824 44.1361 10.3965 44.4519C8.47145 45.7032 7.01908 47.3428 6.28592 49.5391C5.98661 50.4357 5.85769 51.3898 5.655 52.3186C5.60587 52.5437 5.58549 52.7757 5.52819 52.9984C5.20009 54.2736 5.55217 55.5001 5.85347 56.7079C6.32543 58.5998 7.34199 60.1493 8.84409 61.4331C10.1292 62.5315 11.4949 63.4074 13.1116 63.8998C13.4312 63.9971 13.7722 64.1326 13.978 64.4461" stroke="#471a03" stroke-linecap="round" stroke-linejoin="round"/>
<path d="M14.4769 23.3652C12.7714 23.7592 11.3709 24.627 10.2066 25.9474C9.38315 26.8813 8.58591 27.8105 7.98613 28.9155C7.21654 30.3332 6.86791 31.8666 6.65532 33.4304C6.48494 34.6838 6.93847 35.8684 7.39419 37.0034C8.24992 39.1345 9.84977 40.6399 11.7709 41.8092C12.2435 42.0968 12.8307 42.1967 13.3668 42.3781C13.4462 42.405 13.5266 42.3786 13.6167 42.436C14.6089 43.0675 15.7114 42.6901 16.761 42.7258C17.4391 42.7488 18.0871 42.6429 18.6816 43.1103C19.0487 43.3991 19.5475 43.4572 19.9775 43.6587C22.3065 44.7497 24.0971 46.3693 25.1392 48.745C25.2767 49.0586 25.5072 49.2448 25.7082 49.4798" stroke="#471a03" stroke-linecap="round" stroke-linejoin="round"/>
<path d="M25.881 79.2598C25.8194 80.1413 25.7012 81.0233 25.7083 81.9042C25.7218 83.5793 25.923 85.2371 26.6875 86.76C27.6238 88.6251 28.9906 90.1371 30.7572 91.2369C31.8598 91.9233 33.1056 92.316 34.3797 92.6152C35.6124 92.9046 36.8386 92.9106 38.0781 92.7285" stroke="#471a03" stroke-linecap="round" stroke-linejoin="round"/>
<path d="M80.0174 62.6222C81.8577 62.0497 83.7723 61.7657 85.6061 61.1592C85.9363 61.05 86.3346 61.0503 86.7109 61.253C87.2565 61.5468 87.8751 61.6526 88.4839 61.7574C89.7525 61.9758 90.9359 62.4287 91.9747 63.1858C93.1833 64.0666 94.2619 65.0598 94.8842 66.5005C95.2928 67.4466 95.6157 68.3903 95.8052 69.4051C95.9324 70.0856 95.8632 70.7698 96.0137 71.4487C96.2325 72.4355 96.0375 73.4302 95.8416 74.4058C95.5367 75.9243 94.9696 77.345 94.059 78.5965C93.1328 79.8694 91.9148 80.8248 90.5716 81.6287C89.6808 82.1618 88.7472 82.5676 87.7561 82.8862C87.2633 83.0446 86.7537 83.1211 86.2703 83.1991C83.997 83.5658 81.7419 83.4335 79.6569 82.3511C78.3516 81.6735 77.2778 80.664 76.339 79.5255C75.9216 79.0192 75.5308 78.5119 75.0123 78.0776C74.5568 77.696 74.2125 77.0836 74.3752 76.3815C74.545 75.6492 74.2248 74.9771 74.1128 74.2857C73.8008 72.3612 73.9883 70.4617 74.6656 68.6868C75.0704 67.6258 75.789 66.6481 76.5723 65.7604C77.4357 64.782 78.4892 64.057 79.5226 63.2954C79.7565 63.1231 79.9959 62.9147 79.9561 62.5605" stroke="#471a03" stroke-linecap="round" stroke-linejoin="round"/>
<path d="M32.4274 13.439C32.3197 14.3034 32.4523 15.1758 32.2955 16.0465C32.2213 16.4585 32.1402 16.7632 31.8699 17.1208C31.4912 17.6221 31.3731 18.3108 31.085 18.8905C30.3133 20.4434 29.075 21.5433 27.4804 22.1606C25.8403 22.7954 24.1566 23.3311 22.3926 23.5457C22.0755 23.5843 21.7881 23.7102 21.5845 23.9764" stroke="#471a03" stroke-linecap="round" stroke-linejoin="round"/>
<path d="M53.5025 10.0207C53.0327 9.78112 52.8619 9.31333 52.676 8.88025C52.091 7.51801 51.1851 6.4274 50.0935 5.42171C48.6187 4.06294 46.8867 3.46272 44.9602 3.07232C42.2415 2.52134 39.917 3.36423 37.6773 4.71231C37.363 4.9015 37.1238 5.22366 36.8707 5.50309C36.1281 6.32313 35.1738 6.88638 34.3427 7.59744C33.6863 8.15906 33.1224 8.80435 32.9188 9.68263C32.9143 9.70209 32.9272 9.7334 32.9169 9.74258C31.8146 10.7322 32.514 12.041 32.3023 13.1878C32.2677 13.3754 32.3548 13.462 32.5479 13.4335" stroke="#471a03" stroke-linecap="round" stroke-linejoin="round"/>
<path d="M35.94 21.5327C35.3738 22.1201 34.5934 21.9576 33.9142 22.0701C31.9593 22.394 30.5452 23.5275 29.2519 24.9424C27.9972 26.3151 27.4002 27.9877 26.9366 29.7365C26.8387 30.1061 26.7058 30.4162 26.3188 30.543" stroke="#471a03" stroke-linecap="round" stroke-linejoin="round"/>
<path d="M51.8228 80.9395C51.8992 82.7143 51.918 84.4817 52.548 86.1972C53.3702 88.4362 54.7432 90.1395 56.8205 91.3342C58.1679 92.1091 59.5766 92.6563 61.0951 92.9179C62.3225 93.1294 63.5588 93.2923 64.8037 92.9929" stroke="#471a03" stroke-linecap="round" stroke-linejoin="round"/>
<path d="M16.3895 22.9074C16.3514 22.5134 16.0497 22.2776 15.7655 22.123C14.5248 21.448 13.6322 20.461 12.9992 19.226C12.539 18.3283 11.9774 17.4723 11.766 16.4664C11.6249 15.7953 11.3705 15.1413 11.396 14.443C11.4341 13.4004 11.2516 12.3616 11.4379 11.3117C11.5703 10.5659 11.7075 9.84026 12.0702 9.16711C13.0363 7.3741 14.3037 5.84243 15.9551 4.62543C17.3219 3.61822 18.8214 3.01972 20.5165 2.75218C21.4853 2.59927 22.4566 2.41282 23.4206 2.44759C24.7524 2.49563 26.0431 2.8331 27.2488 3.45817C29.3965 4.57166 30.6843 6.38418 31.5696 8.55217C31.8183 9.16105 31.974 9.81985 32.4274 10.3333" stroke="#471a03" stroke-linecap="round" stroke-linejoin="round"/>
<path d="M62.0547 39.0952C63.1194 39.2945 64.0308 39.8086 64.9464 40.3634C66.7681 41.4672 67.9513 43.0417 68.6065 44.987C68.8137 45.6023 69.0078 46.2601 69.0202 46.9411C69.0259 47.2515 69.0287 47.6108 69.3851 47.8001" stroke="#471a03" stroke-linecap="round" stroke-linejoin="round"/>
<path d="M30.5951 59.1349C30.5072 58.7067 30.2163 58.4486 29.8616 58.2202C29.1081 57.7351 28.5492 57.0857 28.1296 56.2875C27.7448 55.5557 27.244 54.889 26.5193 54.3672C26.1078 54.7488 25.8645 55.2308 25.6937 55.7371C25.2049 57.1865 24.5596 58.568 23.649 59.7925C22.5702 61.2434 21.2817 62.5173 19.5466 63.1864C18.4907 63.5936 17.3618 63.8008 16.2397 63.9883" stroke="#471a03" stroke-linecap="round" stroke-linejoin="round"/>
<path d="M26.7769 33.6093C26.9193 33.7583 27.0931 33.88 27.1451 34.1016C27.4818 35.5386 28.5181 36.4544 29.6012 37.2905C30.586 38.0508 31.75 38.4831 32.9553 38.7837C33.0609 38.8101 33.1695 38.8486 33.2602 38.9073C34.2492 39.5475 35.2592 39.1192 36.2582 38.9589C36.6051 38.9033 36.9416 38.8029 37.2983 38.769C37.7481 38.7263 38.1227 38.5974 38.4943 38.1965C39.0414 37.6062 39.8233 37.2424 40.4764 36.744C41.1488 36.231 41.7861 35.6831 42.2026 34.9073C42.55 34.2598 42.719 33.5477 42.8879 32.8604C42.9982 32.411 43.2285 32.0657 43.4359 31.7115C43.7712 31.1387 43.8624 30.3909 43.4735 29.9188C43.2004 29.5872 43.1831 29.1799 43.1241 28.8043C42.8779 27.2376 42.2668 25.8431 41.2687 24.6252C41.0629 24.3741 40.8571 24.1393 40.7884 23.8182C40.6559 23.1984 40.0311 23.1054 39.6435 22.998C38.5158 22.6856 37.5328 22.008 36.3828 21.7812C36.2731 21.7596 36.1342 21.6886 36.0826 21.5979C35.5562 20.6733 34.4512 20.3914 33.8544 19.5215C33.5022 19.008 33.1791 18.513 33.01 17.9092C32.8917 17.4865 32.6807 17.0992 32.344 16.7988" stroke="#471a03" stroke-linecap="round" stroke-linejoin="round"/>
<path d="M88.0166 42.4551C86.6738 41.8864 85.4149 41.1579 84.1527 40.4357C83.4918 40.0576 83.277 39.3136 82.7994 38.7876C81.9717 37.8761 81.6632 36.7353 81.3345 35.6016C81.2387 35.2715 81.1622 34.9414 80.8538 34.7135C80.0757 35.1274 79.9574 35.9817 79.4914 36.5817C78.395 37.9933 77.1291 39.2753 75.4875 39.9676C74.0769 40.5625 72.5236 40.5478 70.9612 40.3492C69.6919 40.1878 68.5128 39.8499 67.4158 39.2598C65.9183 38.4541 64.4404 37.6323 63.8766 35.797C63.6648 35.1075 63.436 34.3728 62.9553 33.7485C62.6553 33.359 62.9416 32.788 62.943 32.2987C62.9461 31.1769 63.0181 30.0555 63.0495 28.9335C63.0564 28.6874 63.0838 28.4711 63.2327 28.2571C63.6838 27.6088 63.7929 26.8119 64.1431 26.1119C64.519 25.3606 64.969 24.681 65.5713 24.1032C65.8755 23.8114 66.1141 23.5006 66.1204 23.0601" stroke="#471a03" stroke-linecap="round" stroke-linejoin="round"/>
<path d="M26.7772 33.461C26.2784 33.3553 26.3118 33.7935 26.2388 34.0455C26.0393 34.7338 25.9337 35.4458 25.6822 36.1241C24.9897 37.9924 23.7277 39.3871 22.1375 40.5316C21.1814 41.2199 20.2274 41.8825 19.021 42.0685C18.7035 42.1174 18.466 42.3898 18.2251 42.6078" stroke="#471a03" stroke-linecap="round" stroke-linejoin="round"/>
<path d="M54.2661 40.6226C54.1699 41.0808 53.7997 41.3108 53.4536 41.5462C51.763 42.6959 50.9194 44.4669 50.0527 46.195C49.763 46.7726 49.7918 47.5031 49.6465 48.1576C49.5725 48.491 49.4219 48.7952 49.233 49.0959C49.0464 49.3931 49.0165 49.9537 49.1821 50.1052C49.7632 50.6365 49.7803 51.3634 49.9345 51.9959C50.3483 53.694 51.164 55.0818 52.5769 56.1353C52.8993 56.3757 53.2512 56.6426 53.2686 57.116" stroke="#471a03" stroke-linecap="round" stroke-linejoin="round"/>
<path d="M45.7139 57.59C46.1743 57.7467 46.6202 57.6402 47.0714 57.5309C48.3481 57.2216 49.6262 56.9318 50.957 56.9656C51.2967 56.9742 51.6162 57.0975 51.9434 57.0908C53.381 57.0611 54.5726 57.7248 55.7674 58.3892C55.8319 58.425 55.9215 58.4563 55.9483 58.5134C56.511 59.714 57.8844 60.2236 58.4412 61.4502C58.6473 61.9044 58.9043 62.3447 59.0993 62.8108C59.1346 62.8951 59.1609 62.9976 59.2249 63.0533C59.9211 63.6589 59.7315 64.507 59.8289 65.2694C59.8724 65.6101 59.9899 65.9587 59.8478 66.316C59.8084 66.4151 59.8349 66.6064 59.9075 66.6732C60.4665 67.1882 60.6269 67.9137 60.9557 68.5509C61.1987 69.0217 61.6964 69.2632 62.0637 69.6248C62.5917 70.1446 63.1971 70.5868 63.6049 71.224C63.7274 71.4155 63.9617 71.3774 64.1563 71.4108C65.4956 71.6405 66.8558 71.7586 68.1648 72.1501C68.247 72.1747 68.3324 72.0831 68.4172 72.2058C68.8411 72.8193 69.5533 73.042 70.1375 73.4403C71.299 74.2322 72.451 75.0431 73.2783 76.2066C73.5341 76.5663 73.9007 76.6786 74.2719 76.8161" stroke="#471a03" stroke-linecap="round" stroke-linejoin="round"/>
<path d="M73.9663 16.646C74.2008 16.913 74.2991 17.2311 74.4228 17.564C74.8722 18.7738 75.2628 20.0246 76.1338 21.0321C76.182 21.0879 76.2451 21.151 76.2544 21.2172C76.4165 22.3643 77.3968 22.812 78.1965 23.3529C78.7214 23.708 79.0764 24.2243 79.613 24.5473C80.1131 24.3529 80.6577 24.3273 81.148 24.5037C82.5259 24.9995 83.9448 24.9527 85.3655 24.9167C85.8939 24.9033 86.3869 24.985 86.9472 25.2404C86.7145 25.6808 86.3599 26.0071 85.9784 26.1381C84.2207 26.7418 83.2434 28.1071 82.3932 29.6175C82.1957 29.9685 81.9593 30.2846 81.6485 30.5432" stroke="#471a03" stroke-linecap="round" stroke-linejoin="round"/>
<path d="M73.4097 60.9336C73.3713 61.2983 73.3765 61.658 73.5937 61.9742C74.1667 62.8086 74.1886 63.7831 74.2534 64.7321C74.3323 65.8881 74.1625 67.0289 73.6993 68.0936C73.5302 68.4825 73.1642 68.7802 72.926 69.1446C72.3602 70.0103 71.7193 70.814 70.7782 71.2678C70.3308 71.4835 69.8702 71.7354 69.3226 71.7301C69.0228 71.7272 68.6968 71.8268 68.4688 72.0819" stroke="#471a03" stroke-linecap="round" stroke-linejoin="round"/>
<path d="M49.0737 22.1436C49.046 22.6521 48.7855 23.0048 48.3997 23.3295C46.9818 24.5227 45.6419 25.7883 44.9946 27.6034C44.8256 28.0775 44.6402 28.5478 44.5068 29.0322C44.3921 29.4487 44.2303 29.8176 43.8813 30.0848" stroke="#471a03" stroke-linecap="round" stroke-linejoin="round"/>
<path d="M43.2344 59.4067C43.4009 60.0401 42.9554 60.4054 42.6322 60.8163C41.75 61.9378 41.113 63.1658 40.9497 64.6218C40.8738 65.2996 40.6242 65.9843 40.6833 66.6444C40.7789 67.7111 40.8372 68.7959 41.1342 69.8378C41.3758 70.6855 41.7276 71.482 42.2805 72.1642C42.522 72.4622 42.6489 72.7723 42.6343 73.1512" stroke="#471a03" stroke-linecap="round" stroke-linejoin="round"/>
<path d="M49.0738 50.2437C48.604 50.6796 48.6 51.3063 48.4686 51.8587C48.0587 53.5822 47.2463 55.0933 46.3091 56.5816C45.6305 57.6594 44.6619 58.3383 43.6797 59.0431C43.4258 59.2252 43.1985 59.4343 42.8066 59.3172C42.6206 59.2616 42.3468 59.435 42.1338 59.5452C40.5189 60.381 38.7566 60.6277 36.9854 60.7528C36.4269 60.7922 35.8342 60.6558 35.252 60.6533C34.9134 60.6519 34.58 60.6529 34.2603 60.7811" stroke="#471a03" stroke-linecap="round" stroke-linejoin="round"/>
<path d="M62.8182 33.7728C62.4726 33.902 62.3474 34.1828 62.1851 34.5042C61.6449 35.5737 60.889 36.4917 60.0666 37.3674C59.6409 37.8205 59.1347 38.2112 58.816 38.7694C58.6786 39.0099 58.378 38.9917 58.1469 39.0851C56.9961 39.5503 55.8507 40.0295 54.7016 40.4992C54.5642 40.5553 54.3939 40.6518 54.2754 40.6141C53.1105 40.2433 51.8552 40.6357 50.708 40.1875C50.0414 39.9271 49.3607 39.6747 48.7454 39.3165C47.3804 38.5219 46.2876 37.4249 45.4815 36.0558C44.886 35.0445 44.5085 33.9508 44.3829 32.7841C44.3336 32.3261 44.1784 31.947 43.8813 31.6123" stroke="#471a03" stroke-linecap="round" stroke-linejoin="round"/>
<path d="M30.8142 73.7514C30.7675 74.1421 30.4877 74.3531 30.1987 74.5554C28.931 75.443 27.9017 76.5723 26.9316 77.768C26.6059 78.1694 26.5376 78.7486 26.0192 79.0192C25.7931 79.1372 25.3155 79.1578 25.0319 78.946C24.7994 78.7723 24.863 78.4981 24.9815 78.3396C25.1919 78.058 25.2531 77.7038 25.1329 77.4743C24.7175 76.6819 24.9736 75.8531 24.9286 75.0495C24.8853 74.277 24.7073 73.5105 24.7005 72.7611C24.6887 71.4475 23.9548 70.4914 23.4295 69.4209C23.2568 69.0687 23.155 68.7195 23.1667 68.3064C23.1802 67.8342 23.0621 67.358 22.9993 66.8839C22.8113 65.4657 23.308 64.1993 23.9336 62.9919C24.7232 61.4681 25.8876 60.3255 27.552 59.7659C28.1937 59.5501 28.8843 59.5792 29.518 59.3844C31.0896 58.9014 32.2732 59.8772 33.5824 60.3893C33.8131 60.4796 34.0344 60.5937 34.26 60.6969" stroke="#471a03" stroke-linecap="round" stroke-linejoin="round"/>
<path d="M68.7739 52.687C69.3395 53.2211 69.3079 53.998 69.5703 54.6552C69.9891 55.7044 70.5675 56.7078 70.9246 57.749C71.3623 59.0251 72.3859 59.6801 73.1396 60.6157C73.2119 60.7055 73.3157 60.8614 73.3822 60.8504C74.213 60.7121 74.7063 61.3846 75.3404 61.6848C76.1957 62.0898 77.0773 62.2517 77.9942 62.3412C78.1809 62.3595 78.3634 62.4199 78.5478 62.4609" stroke="#471a03" stroke-linecap="round" stroke-linejoin="round"/>
<path d="M71.2175 58.4812C70.6365 58.7156 70.1168 58.3588 69.6314 58.2032C68.1629 57.7326 66.7236 57.8418 65.259 58.109C64.9582 58.1638 64.6632 58.3226 64.335 58.1838C64.2491 58.1475 64.0994 58.1218 64.0273 58.2958C63.7659 58.9275 63.0918 59.076 62.6151 59.4556C61.5876 60.2738 60.7637 61.2276 60.4089 62.5207C60.3186 62.8502 60.1666 63.1408 59.9165 63.3772" stroke="#471a03" stroke-linecap="round" stroke-linejoin="round"/>
<path d="M54.2582 75.5947C54.3197 76.1108 54.0132 76.4947 53.7649 76.8808C52.9468 78.1527 52.3333 79.5202 51.8228 80.9398" stroke="#471a03" stroke-linecap="round" stroke-linejoin="round"/>
<path d="M58.8477 22.4492C58.8444 22.9066 59.0838 23.2968 59.4199 23.5296C60.9275 24.5738 61.7383 26.0743 62.4025 27.6783C62.528 27.9812 62.6838 28.2349 62.971 28.4052" stroke="#471a03" stroke-linecap="round" stroke-linejoin="round"/>
<path d="M59.9165 66.7368C59.3468 67.1286 59.3241 67.7936 59.2604 68.3361C59.1554 69.2311 58.6833 69.9495 58.3256 70.7168C57.9904 71.4358 57.5304 72.1061 56.9623 72.6899C56.7112 72.948 56.7094 73.2804 56.7095 73.6091" stroke="#471a03" stroke-linecap="round" stroke-linejoin="round"/>
<path d="M38.5361 72.082C39.5662 72.2591 40.5767 72.5125 41.5154 72.9892C41.71 73.088 41.9097 73.1956 42.135 73.1703C42.5352 73.1253 42.8371 73.3269 43.1258 73.5438C44.1231 74.2933 45.1106 75.0554 46.1085 75.8041C46.1761 75.8549 46.1887 75.946 46.3524 75.9489C47.7177 75.9734 49.0658 76.3704 50.448 76.1264" stroke="#471a03" stroke-linecap="round" stroke-linejoin="round"/>
<path d="M24.7915 71.8199C25.0981 71.8148 25.3399 71.9187 25.5963 72.1351C26.9002 73.2353 28.4336 73.5196 30.0597 73.6041C31.7551 73.6922 33.0144 72.6565 34.4106 71.9498C34.6168 71.8454 34.8193 71.7328 35.0235 71.624" stroke="#471a03" stroke-linecap="round" stroke-linejoin="round"/>
<path d="M37.394 66.7368C36.9062 66.9561 37.0763 67.4663 36.9973 67.8024C36.7333 68.926 36.1658 69.8685 35.4542 70.7446C35.2372 71.0118 35.1272 71.2936 35.0239 71.6173C35.4766 71.9178 35.9407 72.0492 36.5259 71.9864C37.0281 71.9325 37.5784 71.8165 38.0783 72.0819" stroke="#471a03" stroke-linecap="round" stroke-linejoin="round"/>
<path d="M63.5815 22.7895C63.9311 22.8887 64.2389 22.9235 64.5837 22.7831C64.7456 22.7171 64.9754 22.7125 65.1343 22.7818C65.9304 23.1284 66.5631 22.6773 67.254 22.3931C68.1367 22.0302 68.9995 21.6268 69.8586 21.2099C70.1112 21.0874 70.3636 21.0214 70.668 21.1286C71.1669 21.3043 71.6989 21.1893 72.2164 21.2039C73.3248 21.2351 74.4011 21.4229 75.3782 21.9976C75.7751 22.2311 76.1545 22.2229 76.5625 22.1194" stroke="#471a03" stroke-linecap="round" stroke-linejoin="round"/>
<path d="M64.0399 58.2784C63.7202 57.6234 63.1827 57.9299 62.818 58.1145C60.9946 59.0378 59.1055 58.8696 57.2107 58.5006C56.8138 58.4233 56.468 58.3977 56.0986 58.5205" stroke="#471a03" stroke-linecap="round" stroke-linejoin="round"/>
<path d="M62.9711 22.9111C62.5182 22.6585 62.0217 22.8719 61.5575 22.7838C60.9377 22.6661 60.3088 22.3436 59.7152 22.4049C58.9238 22.4866 58.2476 22.0589 57.4256 22.1821C56.7369 22.2853 55.9776 21.8216 55.2233 21.6833C53.8238 21.4265 52.459 21.5025 51.0992 21.8783C50.9988 21.906 50.8841 21.9579 50.7935 21.934C49.979 21.7194 49.2411 22.1731 48.4545 22.1817C48.2296 22.1841 48.0432 22.2555 47.833 22.3512C46.5708 22.926 45.2558 23.2658 43.8408 23.2267C42.831 23.1988 41.7954 23.0647 40.8271 23.518" stroke="#471a03" stroke-linecap="round" stroke-linejoin="round"/>
<path d="M53.0443 16.3403C52.7294 16.488 52.5445 16.7695 52.4516 17.0799C52.019 18.5264 51.0672 19.6295 50.158 20.7584C49.9301 21.0414 49.7506 21.3269 49.6846 21.6854" stroke="#471a03" stroke-linecap="round" stroke-linejoin="round"/>
<path d="M63.5816 71.3184C62.9507 71.8259 62.1377 71.7056 61.4185 71.9097C60.6114 72.1388 59.833 72.3952 59.0683 72.7519C58.3568 73.0838 57.724 73.6141 56.8604 73.6516C56.5649 73.6645 56.2458 73.9506 56.0047 74.1802C55.662 74.5068 55.2099 74.6919 54.8936 75.0281C54.4104 75.5415 53.7533 75.52 53.1559 75.6096C52.3484 75.7307 51.545 75.8549 50.7534 76.0526" stroke="#471a03" stroke-linecap="round" stroke-linejoin="round"/>
<path d="M79.636 24.5874C79.5962 24.8943 79.6027 25.2377 79.8247 25.4319C80.4998 26.0221 80.4822 26.9029 80.7523 27.65C81.0874 28.5771 81.0113 29.6357 81.554 30.5122C81.645 30.6591 81.5837 30.7888 81.5637 30.9419C81.4001 32.1952 81.202 33.4408 80.8941 34.6667" stroke="#471a03" stroke-linecap="round" stroke-linejoin="round"/>
<path d="M58.8477 38.79C59.3582 39.1725 59.9642 38.9017 60.517 39.0235C60.9154 39.1113 61.3433 38.9644 61.7493 39.0955" stroke="#471a03" stroke-linecap="round" stroke-linejoin="round"/>
<path d="M28.9118 48.2583C28.8708 48.729 28.8381 49.2007 28.7874 49.6704C28.6333 51.097 29.2196 52.3601 29.6449 53.663C30.2083 55.3887 31.5362 56.4317 32.9786 57.327C33.8395 57.8613 34.7708 58.2937 35.7891 58.5308C36.5415 58.706 37.2771 58.6455 38.0031 58.5554C39.0401 58.4265 40.0144 58.0074 41.016 57.7139C41.9293 57.4464 42.5896 56.8427 43.1691 56.1197C43.7072 55.4485 44.3224 54.8349 44.7542 54.0857C44.8816 53.8645 45.2039 53.933 45.2556 53.6616" stroke="#471a03" stroke-width="0.5" stroke-linecap="round" stroke-linejoin="round"/>
<path d="M71.0963 35.9073C71.4254 36.2607 71.6927 35.8003 72.0117 35.8339C72.7075 35.9072 73.3986 35.784 74.018 35.4628C75.806 34.5354 76.8917 32.1354 76.4727 30.0439C76.1988 28.6764 75.7335 27.5074 74.454 26.7945C73.3872 26.2001 72.3119 26.16 71.1551 26.4202C69.2103 26.8577 68.2873 28.2939 67.7576 30.0508C66.9296 32.7969 68.7435 34.8917 70.7324 35.8409C70.7992 35.8727 70.8931 35.8449 70.9744 35.8449" stroke="#471a03" stroke-width="0.5" stroke-linecap="round" stroke-linejoin="round"/>
<path d="M12.2157 71.6872C13.2322 70.8735 14.358 70.2969 15.6994 70.6725C16.9565 71.0246 18.1152 71.6382 18.9307 72.6681C19.5921 73.5033 19.8375 74.4976 19.8951 75.5701C20.0109 77.7299 19.0566 79.3496 17.3111 80.5287C16.2509 81.2448 14.9891 81.359 13.7106 81.1551C12.2731 80.9259 11.1977 80.1363 10.4947 78.956C9.99079 78.11 9.7424 77.1922 9.84991 76.1114C9.94883 75.1169 10.3802 74.3168 10.7205 73.447" stroke="#471a03" stroke-width="0.5" stroke-linecap="round" stroke-linejoin="round"/>
<path d="M68.4686 75.3048C67.5079 74.8051 66.5438 74.2719 65.4537 74.1539C62.3483 73.8179 59.5336 74.4095 57.3333 76.8307C56.8366 77.3773 56.2929 77.8747 55.8499 78.4771C55.1706 79.4009 55.0303 80.4684 54.878 81.5427C54.8262 81.9081 54.8093 82.2787 54.7502 82.6427C54.6302 83.382 54.9521 84.0534 55.1561 84.7121C55.3628 85.3796 55.5672 86.0716 55.971 86.6874C56.6365 87.7025 57.597 88.3246 58.628 88.8809" stroke="#471a03" stroke-width="0.5" stroke-linecap="round" stroke-linejoin="round"/>
<path d="M66.7972 50.1972C67.1705 48.061 66.8274 46.0055 65.6522 44.2256C64.6853 42.7612 63.3208 41.6493 61.4286 41.4809C61.2209 41.4624 61.0072 41.4278 60.8129 41.3558C59.9367 41.0312 59.1017 41.4418 58.2877 41.5837C56.167 41.9534 54.6182 43.2412 53.1839 44.8498C51.4679 46.7744 51.5277 48.9578 51.8457 51.1796C52.0227 52.4164 52.6697 53.5782 53.6533 54.4604C55.3739 56.0036 57.4354 56.7449 59.6989 56.6502C61.4231 56.5781 63.0403 56.0035 64.3456 54.7255C64.7763 54.3038 65.2144 53.9193 65.5791 53.4224C66.2664 52.4855 66.3955 51.37 66.7355 50.3208" stroke="#471a03" stroke-width="0.5" stroke-linecap="round" stroke-linejoin="round"/>
<path d="M29.8353 61.6973C27.6689 61.9689 26.0583 63.0673 25.5374 65.0234C25.1032 66.654 25.0298 68.3746 26.2624 69.7309C27.3353 70.9114 28.6291 71.6012 30.3869 71.4507C32.7056 71.2521 33.8296 69.8284 34.5724 67.9003C35.1455 66.4127 34.8728 65.0387 33.937 63.7101C33.1255 62.5579 32.1184 61.9161 30.7509 61.7416C30.4615 61.7046 30.1672 61.9041 29.8962 61.6973" stroke="#471a03" stroke-width="0.5" stroke-linecap="round" stroke-linejoin="round"/>
<path d="M79.0061 32.0702C78.989 30.866 78.8146 29.6898 78.5244 28.5178C77.809 25.6291 75.657 24.394 73.1032 23.6803C71.4896 23.2293 70.0185 23.7642 68.6842 24.7208C68.5637 24.8072 68.4388 24.8873 68.3159 24.9704" stroke="#471a03" stroke-width="0.5" stroke-linecap="round" stroke-linejoin="round"/>
<path d="M23.1116 29.1686C22.2456 27.9828 21.2367 26.9633 19.926 26.2387C18.6452 25.5305 17.2749 25.4633 15.871 25.5184C13.5215 25.6105 11.8609 26.8204 10.4483 28.6032C9.39999 29.9264 8.94853 31.445 8.67095 33.0091C8.51014 33.9152 8.63267 34.931 9.08456 35.7882C9.28789 36.174 9.30153 36.5881 9.48937 36.9572" stroke="#471a03" stroke-width="0.5" stroke-linecap="round" stroke-linejoin="round"/>
<path d="M24.2744 31.7651C24.4617 33.0056 24.1798 34.1412 23.7518 35.3195C22.9173 37.6163 21.391 39.1301 19.1766 39.9624C17.2193 40.6981 15.2204 40.927 13.2291 40.0856C12.5114 39.7823 11.8029 39.434 11.1997 38.9137" stroke="#471a03" stroke-width="0.5" stroke-linecap="round" stroke-linejoin="round"/>
<path d="M9.86894 82.5831C9.77792 82.3038 9.63357 82.0838 9.38504 81.8955C8.75946 81.4215 8.31073 80.7868 7.90203 80.1178C7.58473 79.5984 7.50548 78.9981 7.31731 78.4406C7.01902 77.5568 6.8917 76.616 6.93067 75.6719C6.95823 75.0042 7.05644 74.3518 7.41106 73.7555C7.74907 73.1871 7.99232 72.563 8.25531 71.9606C8.96254 70.3404 10.0319 69.0976 11.6501 68.3974C13.6075 67.5505 15.5736 67.6571 17.5361 68.4438C18.1686 68.6974 18.8034 68.9314 19.3725 69.3153C21.0818 70.4682 22.1354 72.1126 22.8719 74.0036C23.0678 74.5066 23.3 75.0423 23.26 75.5454C23.2145 76.116 23.1464 76.7183 22.968 77.269C22.8658 77.5845 22.9044 77.8971 22.8114 78.2035C22.1952 80.2327 21.1431 81.8707 19.1993 82.9125C17.2994 83.9308 15.3114 84.119 13.2422 83.9289C12.7786 83.8863 12.3143 83.7399 11.8922 83.5087" stroke="#471a03" stroke-width="0.5" stroke-linecap="round" stroke-linejoin="round"/>
<path d="M90.1692 28.1131C89.0493 28.0829 87.9253 28.0666 86.8619 28.4857C84.9211 29.2506 83.712 30.6266 83.2963 32.7143C82.8897 34.7561 83.1992 36.5918 84.5216 38.248C85.0993 38.9714 85.6444 39.7218 86.5572 40.0091C87.6664 40.3581 88.759 40.4624 89.9333 40.0457C92.0269 39.3028 93.1111 37.6717 93.8129 35.7727C94.3514 34.3157 94.1322 32.7899 93.617 31.299C93.1212 29.8642 92.2203 28.877 90.8421 28.3001C90.6464 28.2182 90.4348 28.1745 90.2305 28.1131" stroke="#471a03" stroke-width="0.5" stroke-linecap="round" stroke-linejoin="round"/>
<path d="M82.8848 56.1998C83.7152 55.5718 84.4691 54.8568 84.9521 53.9293C85.6974 52.4976 85.7993 51.0428 85.1047 49.5165C84.7007 48.6288 84.1994 47.7949 83.4727 47.2289C82.3279 46.3373 80.9983 45.7704 79.4632 46.0318C79.0607 46.1003 78.6494 46.1176 78.2422 46.1584" stroke="#471a03" stroke-width="0.5" stroke-linecap="round" stroke-linejoin="round"/>
<path d="M64.8995 65.4384C64.9399 66.6175 66.41 67.5251 67.57 67.0799C68.3954 66.7631 68.8054 66.0692 69.045 65.3117C69.308 64.4804 68.0015 62.943 67.0137 63.0804C66.7052 63.1233 66.3911 63.1296 66.0735 63.2287C65.088 63.5363 64.9423 64.0715 64.8695 64.8935C64.8591 65.0115 64.7083 65.2362 64.8995 65.3776" stroke="#471a03" stroke-width="0.5" stroke-linecap="round" stroke-linejoin="round"/>
<path d="M59.9011 29.498C60.0133 28.2455 59.5039 27.2398 58.6784 26.3556C57.9631 25.5895 57.2893 24.7854 56.3554 24.2573C55.0157 23.4997 53.6091 23.5892 52.1942 23.8992C50.676 24.2318 49.6796 25.3485 48.5613 26.331C47.2715 27.4641 46.8841 28.996 46.4077 30.4923C46.1899 31.1765 46.4502 31.9303 46.6226 32.6405C46.8381 33.5278 47.0752 34.3936 47.5971 35.1704C48.5316 36.5611 49.8041 37.4221 51.3953 37.8834C53.2279 38.4148 54.9541 38.2448 56.5979 37.2606C57.9697 36.4393 59.0817 35.3785 59.6992 33.7963" stroke="#471a03" stroke-width="0.5" stroke-linecap="round" stroke-linejoin="round"/>
<path d="M18.4501 45.2041C20.5371 46.193 21.9837 47.7872 22.933 49.8993C23.6415 51.4756 23.8872 53.0722 23.6134 54.7917C23.3808 56.2528 22.8518 57.5594 22.0021 58.7453C21.2374 59.8125 20.2565 60.6213 19.0624 61.1573C17.672 61.7813 16.2186 61.9723 14.7124 61.7768" stroke="#471a03" stroke-width="0.5" stroke-linecap="round" stroke-linejoin="round"/>
<path d="M13.8952 54.3596C13.9622 55.179 14.7963 55.7494 15.6563 55.548C16.5415 55.3408 17.1293 54.7564 17.2773 53.8549C17.4111 53.0401 17.1077 52.3133 16.4461 51.7911C15.9991 51.4384 15.2221 51.3686 14.8044 51.5987C14.0676 52.0044 13.5195 52.5371 13.6672 53.4799C13.7094 53.749 13.6531 54.0766 13.8952 54.297" stroke="#471a03" stroke-width="0.5" stroke-linecap="round" stroke-linejoin="round"/>
<path d="M68.0103 6.4213C66.9315 5.3201 65.573 4.89325 64.1007 4.88729C63.0599 4.88308 62.0115 5.03535 61.0481 5.49369C59.5783 6.19296 58.3662 7.22253 57.3798 8.53129C57.0627 8.952 56.7296 9.36021 56.4038 9.77414" stroke="#471a03" stroke-width="0.5" stroke-linecap="round" stroke-linejoin="round"/>
<path d="M51.8803 59.2548C50.9644 59.291 50.0535 59.18 49.1302 59.3635C46.7035 59.8459 44.981 61.2096 43.8142 63.3916C42.9346 65.0364 42.5762 66.7517 42.9727 68.5861C43.5056 71.051 45.3191 72.9936 47.0548 73.5404C48.7698 74.0806 50.458 73.9746 52.1891 73.6107C53.9753 73.2353 55.0419 72.024 56.0418 70.6343C56.9145 69.4213 57.357 68.0256 57.4546 66.6066C57.5929 64.5966 56.9434 62.7677 55.4907 61.2858C55.0733 60.86 54.7508 60.3143 54.1952 60.0698C53.4884 59.7588 52.8218 59.3003 52.0024 59.3167" stroke="#471a03" stroke-width="0.5" stroke-linecap="round" stroke-linejoin="round"/>
<path d="M82.2706 50.2441C82.2588 50.711 82.4006 51.1541 82.3579 51.6424C82.2578 52.7881 81.5987 53.4978 80.696 53.9728C79.2906 54.7124 77.8168 53.6458 77.5834 52.2725C77.4761 51.6417 77.3554 50.9712 77.7585 50.3711" stroke="#471a03" stroke-width="0.5" stroke-linecap="round" stroke-linejoin="round"/>
<path d="M33.8018 42.5737C34.1163 41.9206 34.8257 42.0672 35.3456 41.8638C36.2951 41.4923 37.3536 41.3586 38.343 41.3909C40.4512 41.4596 42.4329 41.9906 43.9402 43.665C44.8772 44.706 45.7844 45.7438 46.0739 47.1581C46.2595 48.0642 46.4503 48.9666 46.216 49.9107C46.076 50.4748 46.1243 51.0837 45.8333 51.6182" stroke="#471a03" stroke-width="0.5" stroke-linecap="round" stroke-linejoin="round"/>
<path d="M80.228 65.8539C80.8808 65.4451 81.5289 65.0284 82.1877 64.6295C82.9001 64.1982 83.7189 64.1031 84.5133 64.0277C87.1528 63.7771 89.4354 64.7469 91.5489 66.2233C91.913 66.4776 92.1723 66.8434 92.3959 67.2097C92.7427 67.7775 93.0643 68.3701 93.3147 68.9856C93.7648 70.0921 93.7106 71.2692 93.5528 72.4135C93.3479 73.8989 92.8514 75.2816 92.2248 76.6757C91.4614 78.3739 90.1042 79.0239 88.6216 79.7331C87.5169 80.2615 86.3576 80.5212 85.1822 80.7401C84.6695 80.8356 84.1244 80.7561 83.594 80.7561" stroke="#471a03" stroke-width="0.5" stroke-linecap="round" stroke-linejoin="round"/>
<path d="M18.0722 45.3406C17.4488 45.2994 16.852 45.113 16.2196 45.0739C15.222 45.0122 14.2958 45.0564 13.3662 45.5052C12.3816 45.9805 11.4687 46.5689 10.5472 47.1332C9.69659 47.654 9.35951 48.6297 8.92709 49.4894C8.45036 50.4372 8.13107 51.4477 7.95553 52.4808C7.7989 53.4027 7.66967 54.3397 7.68952 55.2838" stroke="#471a03" stroke-width="0.5" stroke-linecap="round" stroke-linejoin="round"/>
<path d="M71.9195 65.3706C72.1481 64.2465 71.647 63.3022 71.1087 62.4112C70.2842 61.0467 68.9489 60.3823 67.4373 60.2034C66.2717 60.0656 65.1298 60.362 64.127 61.0433C62.8222 61.9298 62.268 63.1888 62.2116 64.7519C62.168 65.9588 62.4314 67.0349 63.2739 67.8993C64.4107 69.0657 65.6772 69.8985 67.4416 69.7804C69.7035 69.6291 71.3828 67.9941 71.7997 65.9895C71.8393 65.7994 71.9195 65.6179 71.9809 65.4325" stroke="#471a03" stroke-width="0.5" stroke-linecap="round" stroke-linejoin="round"/>
<path d="M45.6697 5.19238C46.9545 5.6306 48.1127 6.29176 49.1632 7.1499C49.9139 7.76307 50.4395 8.54061 50.8121 9.41849C51.7786 11.6959 51.3355 13.9411 50.5614 16.1479C49.914 17.9935 48.6981 19.3899 46.8896 20.1795C45.8214 20.6458 44.6931 21.1182 43.5269 21.0718C42.4488 21.0289 41.3357 21.0909 40.2769 20.7472C40.1645 20.7107 40.0332 20.8365 39.9106 20.743" stroke="#471a03" stroke-width="0.5" stroke-linecap="round" stroke-linejoin="round"/>
<path d="M84.5103 6.26172C83.3299 6.42877 82.1813 6.70179 81.137 7.3043C80.0658 7.92234 79.1218 8.66629 78.5546 9.81253C78.205 10.5191 77.5779 11.0424 77.3104 11.8293C77.0486 12.5997 76.8515 13.326 76.8693 14.1659C76.8901 15.1543 77.0152 16.1209 77.2942 17.0379C77.8817 18.9684 78.8726 20.6577 80.7076 21.7C81.9255 22.3917 83.2124 22.6599 84.6346 22.5923C85.6911 22.5421 86.7645 22.5845 87.755 22.234C90.014 21.4347 91.5008 19.8403 92.3871 17.6059C92.7395 16.7176 93.1494 15.8807 93.1692 14.9005C93.1796 14.3889 93.2585 13.8792 93.1597 13.3687" stroke="#471a03" stroke-width="0.5" stroke-linecap="round" stroke-linejoin="round"/>
<path d="M80.6862 42.6101C78.7017 42.5605 77.0286 43.367 75.4795 44.5139C75.3153 44.6354 75.1644 44.7805 74.9875 44.8788C73.2654 45.8363 72.3799 47.4094 72.0199 49.2483C71.8102 50.3193 71.7964 51.4489 71.8669 52.5579C71.8964 53.0232 71.8448 53.5098 72.1716 53.9089" stroke="#471a03" stroke-width="0.5" stroke-linecap="round" stroke-linejoin="round"/>
<path d="M13.1964 37.0631C14.0682 37.5117 15.0112 37.7235 15.9562 37.9406C16.5443 38.0757 17.151 38.0559 17.6673 37.849C19.1557 37.2525 20.3817 36.2855 20.783 34.6327C21.0314 33.6096 21.2459 32.5461 21.0508 31.4674C20.8816 30.532 20.3682 29.8011 19.7001 29.168C18.7862 28.3019 17.7462 27.6955 16.4495 27.8078C15.0755 27.9269 13.8401 28.3609 12.9424 29.5332C12.4428 30.1856 11.8743 30.7918 11.7907 31.6545C11.6479 33.1304 11.4134 34.6191 12.3844 35.9546C12.5638 36.2015 12.7133 36.2319 12.9509 36.1927" stroke="#471a03" stroke-width="0.5" stroke-linecap="round" stroke-linejoin="round"/>
<path d="M57.8795 44.0134C56.9047 44.4763 56.16 45.2013 55.4863 46.0386C54.8814 46.7905 54.622 47.6373 54.5835 48.5724C54.5598 49.1464 54.5994 49.7231 54.5725 50.2968C54.5515 50.7449 54.7997 51.0746 55.0152 51.4005C55.7892 52.5706 56.745 53.5229 58.1854 53.8073C59.5909 54.0849 60.8954 53.7971 62.0271 52.9347C62.9275 52.2486 63.5363 51.3094 63.9317 50.236C64.3624 49.0667 64.2192 47.9022 63.7961 46.7903C62.9391 44.5377 61.2788 43.7552 58.8577 43.8356C58.5504 43.8458 58.2462 43.9518 57.9406 44.0134" stroke="#471a03" stroke-width="0.5" stroke-linecap="round" stroke-linejoin="round"/>
<path d="M59.633 9.42085C60.4574 8.99955 61.1322 8.32081 62.0498 8.05027C62.1717 8.01433 62.286 7.93755 62.4269 7.94156C63.0892 7.96042 63.7517 7.9637 64.4142 7.9876C65.2683 8.01839 65.9524 8.38057 66.5142 8.93821C67.4011 9.81856 68.0156 10.8412 68.2199 12.1288C68.5562 14.2486 68.0305 15.9818 66.2795 17.3114C65.3317 18.031 64.2538 18.1996 63.1098 18.1703C61.9045 18.1394 60.886 17.6863 60.0007 16.881C59.5426 16.4642 59.0661 16.0736 58.7633 15.5206C58.2937 14.663 58.4054 13.728 58.3916 12.8095C58.3894 12.6657 58.3912 12.522 58.3912 12.3782" stroke="#471a03" stroke-width="0.5" stroke-linecap="round" stroke-linejoin="round"/>
<path d="M55.759 11.7593C55.7182 12.6701 55.6566 13.5806 55.6415 14.4919C55.6195 15.8134 56.0171 17.01 56.9948 17.8949C58.1587 18.9482 59.4578 19.8515 60.9101 20.4351C62.6089 21.1178 64.3315 21.0792 66.0524 20.3432C67.4454 19.7473 68.5429 18.7242 69.7768 17.8994C69.8379 17.8585 69.8229 17.7004 69.8433 17.5969" stroke="#471a03" stroke-width="0.5" stroke-linecap="round" stroke-linejoin="round"/>
<path d="M21.6092 21.3806C21.5479 21.0942 21.3241 21.1416 21.1199 21.1337C19.1232 21.0567 17.2763 20.4546 15.8821 19.024C14.1582 17.255 13.1374 15.1249 13.6035 12.538C13.7331 11.8188 13.9607 11.1221 14.2602 10.4447C14.8915 9.0171 15.9024 7.95621 17.2002 7.12483C17.9006 6.67622 18.4525 6.02209 19.2207 5.65206C20.2897 5.13707 21.4317 4.98999 22.5883 4.9276C23.5739 4.87444 24.5679 4.81523 25.5243 5.16654L25.7078 5.22795C26.8878 5.57541 27.7256 6.43117 28.4298 7.34019C29.0005 8.07699 29.4545 8.93371 29.8289 9.82468C30.1935 10.6919 30.3599 11.5962 30.2619 12.4713C30.1115 13.8137 30.0584 15.1788 29.5222 16.4763C28.9903 17.7635 28.0389 18.6134 26.992 19.4147C26.5867 19.7251 26.1768 20.0294 25.769 20.3365" stroke="#471a03" stroke-width="0.5" stroke-linecap="round" stroke-linejoin="round"/>
<path d="M66.5728 78.5608C67.8853 79.2864 68.4985 80.5562 68.8607 81.8935C69.1899 83.1093 69.2777 84.3615 68.1781 85.4116C67.3024 86.248 66.445 87.075 65.3499 87.6057C64.9103 87.8188 64.4455 87.9026 63.9477 87.9319C62.9717 87.9893 62.0275 88.0081 61.0719 87.6843C59.4093 87.1209 58.2381 86.0925 57.6547 84.4088C57.4946 83.947 57.4523 83.4667 57.4819 82.993C57.5575 81.7843 57.5162 80.5854 58.2388 79.4653C58.9782 78.319 59.8956 77.46 61.1459 77.0476C61.9774 76.7734 62.9093 76.7124 63.758 77.0368C64.7187 77.404 65.659 77.8408 66.5117 78.4377" stroke="#471a03" stroke-width="0.5" stroke-linecap="round" stroke-linejoin="round"/>
<path d="M75.1001 48.2583C75.1481 49.1044 74.7939 49.8933 74.7556 50.7416C74.6845 52.3166 74.6903 53.8657 75.7493 55.1526C76.5206 56.0899 77.4787 56.8685 78.8229 56.9861C79.1397 57.0139 79.4417 57.1547 79.7696 57.1056" stroke="#471a03" stroke-width="0.5" stroke-linecap="round" stroke-linejoin="round"/>
<path d="M32.9575 46.4968C32.3636 47.3942 31.7926 48.3068 31.6044 49.3884C31.0489 52.5815 33.0514 54.6669 35.6119 55.5268C36.9199 55.966 38.2081 55.684 39.4271 55.1046C40.223 54.7262 40.9981 54.3243 41.6581 53.7047C42.3233 53.0802 42.8082 52.4528 42.9769 51.4853C43.2456 49.9436 43.1628 48.4898 42.4387 47.1173C41.6093 45.5452 40.342 44.5706 38.5077 44.3202C37.5632 44.1913 36.7216 44.4727 35.8601 44.6762C35.426 44.7788 34.9828 44.7704 34.56 44.8974" stroke="#471a03" stroke-width="0.5" stroke-linecap="round" stroke-linejoin="round"/>
<path d="M35.5572 9.92627C35.1908 10.8957 35.0457 11.9089 34.9491 12.9382C34.8811 13.6633 34.7894 14.37 35.0104 15.093C35.5367 16.8151 36.4417 18.2383 37.9561 19.2135C38.0118 19.2494 38.0381 19.3332 38.0781 19.3947" stroke="#471a03" stroke-width="0.5" stroke-linecap="round" stroke-linejoin="round"/>
<path d="M16.8505 76.2494C16.7505 76.1872 16.7882 76.0859 16.7917 76.002C16.8677 74.1587 15.7311 73.7213 14.4146 73.6131C13.8522 73.5669 13.3738 74.0239 13.1586 74.5258C12.7884 75.3894 12.8397 76.3202 13.0097 77.2408C13.0356 77.381 13.14 77.3664 13.2032 77.4205C13.8701 77.9904 14.641 78.3014 15.5099 78.1556C16.255 78.0305 16.4838 77.3581 16.7243 76.7426C16.7757 76.6108 16.7694 76.4557 16.7897 76.3113" stroke="#471a03" stroke-width="0.5" stroke-linecap="round" stroke-linejoin="round"/>
<path d="M87.1001 6.90738C87.8819 6.98566 88.674 6.66509 89.4538 7.13559C90.6922 7.88281 91.5625 8.91633 92.1465 10.1884C92.3695 10.674 92.7545 11.1549 92.5299 11.7595" stroke="#471a03" stroke-width="0.5" stroke-linecap="round" stroke-linejoin="round"/>
<path d="M16.5625 35.2773C16.9199 35.1291 17.32 35.0914 17.6403 34.8442C18.4943 34.1849 18.7414 33.1445 18.3477 32.1034C18.2003 31.7138 18.1655 31.2958 17.703 31.1115C17.1731 30.9005 16.6915 30.6015 16.0528 30.7245C15.4171 30.8469 14.5683 31.4926 14.4802 32.1088C14.4217 32.518 14.4298 32.9364 14.41 33.3508C14.3412 34.7913 15.3764 35.3569 16.4992 35.2152" stroke="#471a03" stroke-width="0.5" stroke-linecap="round" stroke-linejoin="round"/>
<path d="M30.6817 87.7968C30.5625 87.7463 30.451 87.8392 30.3008 87.6876C29.4772 86.8568 28.8364 85.8928 28.5627 84.777C28.1405 83.056 28.2112 81.344 28.9551 79.6711C29.7056 77.9834 30.6629 76.4816 32.3439 75.6371C33.2327 75.1906 34.218 74.9398 35.209 74.7499C36.8292 74.4394 38.4107 74.453 40.0515 74.7823C42.2635 75.2261 43.6237 76.6135 44.6183 78.4554C45.5624 80.2037 45.5797 82.0708 45.0937 83.9909C44.968 84.4875 44.8274 85.004 44.7197 85.513C44.5503 86.3135 43.9387 86.9314 43.4065 87.5475C42.1151 89.0425 40.5512 90.1262 38.5736 90.427C37.1317 90.6464 35.6614 90.9935 34.2312 90.3186C33.8673 90.147 33.5411 89.8904 33.1295 89.8268" stroke="#471a03" stroke-width="0.5" stroke-linecap="round" stroke-linejoin="round"/>
<path d="M22.159 18.1734C23.0519 18.1173 23.9488 17.957 24.743 17.5982C25.9013 17.075 26.7181 16.2105 27.0031 14.8811C27.2005 13.9606 27.0928 13.04 27.2253 12.1283C27.2709 11.8147 27.1495 11.5018 27.0795 11.2184C26.7349 9.82367 24.7041 8.08434 23.2704 7.99379C22.1968 7.926 21.0969 7.85053 20.0576 8.28177" stroke="#471a03" stroke-width="0.5" stroke-linecap="round" stroke-linejoin="round"/>
<path d="M13.5565 48.6689C14.4211 48.3417 15.3065 48.1751 16.2335 48.2997C16.9868 48.4009 17.6835 48.5945 18.3104 49.0872C19.3223 49.8826 20.1153 50.8123 20.3632 52.1057C20.6576 53.6417 20.5968 55.0996 19.5352 56.4122C18.8859 57.2151 18.205 57.9698 17.2595 58.3405C16.1587 58.7721 15.0233 58.7009 13.8547 58.3841C11.8353 57.8367 11.0567 56.3363 10.7844 54.4928C10.6094 53.3079 10.9881 52.1412 11.6282 51.1348C12.0219 50.5159 12.2459 49.7782 12.8264 49.2824" stroke="#471a03" stroke-width="0.5" stroke-linecap="round" stroke-linejoin="round"/>
<path d="M65.4141 33.6573C66.3713 35.9214 67.7907 37.6684 70.395 38.1701C72.1598 38.51 73.801 38.3515 75.3299 37.3289C75.5969 37.1503 75.9729 37.0519 76.2918 36.9219C77.8542 36.2849 78.6532 35.0236 78.7004 33.292" stroke="#471a03" stroke-width="0.5" stroke-linecap="round" stroke-linejoin="round"/>
<path d="M72.1338 53.9087C72.8085 55.6226 73.6576 57.2185 75.0351 58.481C75.5784 58.979 76.1941 59.267 76.8881 59.497C77.8632 59.8202 78.8576 60.043 79.8617 60.015C80.9697 59.984 82.0675 59.8297 83.1501 59.4457C84.2639 59.0507 85.3244 58.5793 86.2108 57.8262C86.7433 57.3737 87.2522 56.7987 87.4055 56.0359" stroke="#471a03" stroke-width="0.5" stroke-linecap="round" stroke-linejoin="round"/>
<path d="M70.673 77.5801C71.3586 78.6006 71.7286 79.7445 72.1071 80.9131C72.7671 82.9513 72.3858 84.793 71.4706 86.6186C70.5024 88.5497 68.8849 89.6748 66.9416 90.3842C66.2407 90.6401 65.4838 90.6762 64.7441 90.6933C63.5376 90.7214 62.3247 90.7687 61.1382 90.4546" stroke="#471a03" stroke-width="0.5" stroke-linecap="round" stroke-linejoin="round"/>
<path d="M41.1324 29.3214C40.8084 27.2604 39.6636 25.7511 37.8531 24.8339C36.5761 24.1869 35.096 24.1597 33.748 24.4887C32.6867 24.7477 31.6846 25.3774 30.9004 26.2309" stroke="#471a03" stroke-width="0.5" stroke-linecap="round" stroke-linejoin="round"/>
<path d="M48.4686 13.966C47.9074 15.8714 46.7838 17.3879 44.8281 17.8081C42.5422 18.2992 40.2868 18.0252 38.6358 16.0528C38.1361 15.456 37.8247 14.7269 37.749 13.9054C37.673 13.0804 37.5297 12.2641 37.6985 11.4359C37.8111 10.8836 37.9861 10.3528 38.3179 9.89565C39.1504 8.74854 40.3601 8.17381 41.6326 7.65899C42.7764 7.19626 43.9383 7.24911 45.0089 7.64697C46.0925 8.04967 46.9909 8.82148 47.7423 9.7602C48.7653 11.0382 48.7456 12.4333 48.4071 13.9043" stroke="#471a03" stroke-width="0.5" stroke-linecap="round" stroke-linejoin="round"/>
<path d="M20.5369 11.5772C19.5541 12.1069 18.9727 12.8743 19.4825 14.0028C19.6508 14.3752 19.6383 14.863 20.16 15.044C20.7499 15.2487 21.3235 15.5009 21.9736 15.4024C23.0899 15.2331 23.9456 14.4994 24.0228 13.2804C24.1078 11.9394 23.17 10.8577 21.6591 11.0099C21.1855 11.0577 20.7859 11.0794 20.5369 11.5164" stroke="#471a03" stroke-width="0.5" stroke-linecap="round" stroke-linejoin="round"/>
<path d="M47.7676 63.0512C48.7857 62.5331 49.8724 62.2302 51.001 62.3263C52.0866 62.4187 52.8608 63.084 53.5187 63.9711C54.5885 65.4136 54.6095 66.9983 54.0764 68.5571C53.7377 69.5474 53.0024 70.4129 52.0354 70.9181C49.9149 72.0258 46.5379 70.7126 45.7572 68.5075C45.6241 68.1318 45.5627 67.7386 45.561 67.3306" stroke="#471a03" stroke-width="0.5" stroke-linecap="round" stroke-linejoin="round"/>
<path d="M29.8763 64.4463C28.8741 64.5456 28.2973 65.1268 28.0694 66.1538C27.8675 67.0635 28.0989 67.827 28.742 68.4256C29.2758 68.9225 29.9835 68.9855 30.586 68.7222C31.3136 68.4043 31.7106 67.7178 31.8038 66.852C31.9353 65.6307 31.0239 64.726 29.9364 64.4463" stroke="#471a03" stroke-width="0.5" stroke-linecap="round" stroke-linejoin="round"/>
<path d="M54.6763 26.7635C53.4828 26.3486 52.4277 26.6475 51.3963 27.3037C50.6061 27.8065 50.0764 28.5556 49.6555 29.2984C49.2041 30.0951 49.1168 31.0653 49.3549 32.0329C49.8821 34.1754 51.4933 34.9836 53.4448 35.25C54.7485 35.4279 55.9923 34.7333 56.5761 33.5543C56.7393 33.2247 56.998 32.9703 57.1455 32.6423C57.3554 32.1753 57.5032 31.7119 57.4674 31.1721C57.3598 29.5476 56.8621 28.1243 55.5413 27.0691C55.3587 26.9232 55.1597 26.8463 54.9233 26.886" stroke="#471a03" stroke-width="0.5" stroke-linecap="round" stroke-linejoin="round"/>
<path d="M59.5909 46.8963C60.3355 46.8164 60.8654 47.1199 61.1178 47.797C61.3904 48.5285 61.3519 49.2822 60.9221 49.938C60.7304 50.2305 60.4773 50.5266 60.1467 50.7333C59.5744 51.0913 59.0122 51.0859 58.4241 50.7894C57.8554 50.5028 57.4071 50.1281 57.1206 49.5378C56.9153 49.1147 57.0709 48.7335 57.0748 48.3332" stroke="#471a03" stroke-width="0.5" stroke-linecap="round" stroke-linejoin="round"/>
<path d="M83.4351 43.3716C84.0256 43.6829 84.6242 43.9794 85.205 44.3083C86.8379 45.2331 87.7508 46.7275 88.3188 48.4781C88.6337 49.4485 88.8508 50.4436 88.9329 51.4656" stroke="#471a03" stroke-width="0.5" stroke-linecap="round" stroke-linejoin="round"/>
<path d="M89.8625 16.3612C89.4034 16.9472 89.0029 17.5743 88.5155 18.1428C87.8828 18.881 87.2662 19.5922 86.1663 19.5457C85.4891 19.517 84.8082 19.5881 84.1337 19.4812C83.7837 19.4258 83.419 19.4061 83.0891 19.2907C81.6404 18.7835 80.5562 17.9549 80.1009 16.3692C79.7821 15.2593 79.7069 14.1805 79.8174 13.0561C79.916 12.0539 80.3018 11.2597 81.1665 10.6554C82.0666 10.0263 82.9702 9.48183 84.0684 9.24584C84.8827 9.07083 85.6393 9.20047 86.413 9.38381C88.2007 9.80746 89.1011 11.1759 89.9242 12.6281C90.1403 13.0095 90.166 13.4512 90.1506 13.8513C90.119 14.6704 90.1801 15.5107 89.8625 16.3" stroke="#471a03" stroke-width="0.5" stroke-linecap="round" stroke-linejoin="round"/>
<path d="M40.5213 33.4453C39.8001 35.363 38.2398 36.365 36.3766 36.8843C35.0739 37.2475 33.6953 37.1463 32.3775 36.7727C32.1788 36.7164 31.8488 36.6364 31.8164 36.3048" stroke="#471a03" stroke-width="0.5" stroke-linecap="round" stroke-linejoin="round"/>
<path d="M8.45117 57.1162C9.06617 58.3872 9.89474 59.5144 10.9435 60.4453C11.6941 61.1116 12.7359 61.1982 13.6613 61.5041C13.9964 61.6149 14.3613 61.6358 14.7126 61.6977" stroke="#471a03" stroke-width="0.5" stroke-linecap="round" stroke-linejoin="round"/>
<path d="M42.2014 81.7251C42.1805 82.7463 42.2441 83.7464 41.7956 84.7473C41.0699 86.3667 39.8897 87.3084 38.2053 87.7548C35.3845 88.5025 32.3934 87.2105 31.1442 84.545C30.882 83.9855 30.8483 83.3699 30.9625 82.7008C31.0577 82.1433 31.184 81.589 31.3329 81.0544C31.6173 80.033 32.2791 79.2496 33.1578 78.6501C33.4351 78.461 33.6926 78.2429 33.9591 78.0381" stroke="#471a03" stroke-width="0.5" stroke-linecap="round" stroke-linejoin="round"/>
<path d="M82.2711 70.5552C82.1414 71.2007 81.7087 71.7469 81.7589 72.4654C81.8288 73.4654 83.0474 74.7068 84.0697 74.678C86.0772 74.6216 86.8092 73.5844 87.2354 71.849C87.3156 71.5228 87.0966 71.3058 86.9848 71.0478" stroke="#471a03" stroke-width="0.5" stroke-linecap="round" stroke-linejoin="round"/>
<path d="M89.329 30.8491C89.79 31.0244 90.2229 31.2092 90.6414 31.5197C92.4317 32.8482 92.1605 35.9784 90.1363 37.0068C88.8065 37.6824 88.0792 37.7562 86.7944 37.1876" stroke="#471a03" stroke-width="0.5" stroke-linecap="round" stroke-linejoin="round"/>
<path d="M51.6696 66.6721C51.2354 65.6332 50.4813 65.1766 49.6222 65.4325C49.0146 65.6135 48.6826 66.0624 48.627 66.7339C48.5634 67.5033 48.7469 68.1763 49.4418 68.5839C49.9149 68.8614 50.7594 68.6914 51.1129 68.3473C51.5722 67.9 51.6219 67.3191 51.6696 66.7341" stroke="#471a03" stroke-width="0.5" stroke-linecap="round" stroke-linejoin="round"/>
<path d="M35.8515 80.7902C36.4925 80.314 37.6248 80.3986 38.3254 80.9751C39.1703 81.6702 39.4874 82.5509 39.1913 83.3793C38.7223 84.6914 37.9034 85.3126 36.7178 85.3626C35.912 85.3967 35.1961 85.2931 34.6115 84.6767C33.8587 83.8829 33.9538 82.5549 34.8648 81.6561C35.1442 81.3803 35.3066 80.9766 35.7278 80.8518" stroke="#471a03" stroke-width="0.5" stroke-linecap="round" stroke-linejoin="round"/>
<path d="M76.432 71.6245C76.3277 72.6009 76.6071 73.5557 76.8937 74.4922C77.1695 75.3933 77.6285 76.2113 78.1477 77.0012C78.418 77.4125 78.7292 77.7775 79.1586 78.0386" stroke="#471a03" stroke-width="0.5" stroke-linecap="round" stroke-linejoin="round"/>
<path d="M61.9675 11.6941C61.021 12.8263 61.3985 14.2645 62.7704 14.7531C63.4701 15.0022 64.5558 14.4421 64.7469 13.7334C64.9876 12.8408 64.4369 11.716 63.5713 11.3997C63.011 11.1949 62.4865 11.3154 62.0292 11.6941" stroke="#471a03" stroke-width="0.5" stroke-linecap="round" stroke-linejoin="round"/>
<path d="M88.0172 34.8455C87.9999 35.2944 88.3557 35.4615 88.5606 35.7357C89.15 35.3876 89.4977 34.7367 89.3617 34.2888C89.2007 33.7587 88.8337 33.5451 88.1926 33.6085" stroke="#471a03" stroke-width="0.5" stroke-linecap="round" stroke-linejoin="round"/>
<path d="M66.4832 26.1143C65.7701 27.1677 65.1188 28.269 65.0007 29.5697C64.9118 30.5479 64.9831 31.5416 64.9831 32.5284" stroke="#471a03" stroke-width="0.5" stroke-linecap="round" stroke-linejoin="round"/>
<path d="M17.6353 10.3848C16.6393 11.6043 15.9696 12.9734 16.345 14.5969C16.5542 15.5016 16.9235 16.4142 17.6976 17.0198C18.4555 17.6128 19.2443 18.1556 20.2099 18.326" stroke="#471a03" stroke-width="0.5" stroke-linecap="round" stroke-linejoin="round"/>
<path d="M47.5465 63.0718C46.6076 63.9233 46.1294 65.0857 45.7139 66.2788" stroke="#471a03" stroke-width="0.5" stroke-linecap="round" stroke-linejoin="round"/>
<path d="M42.8124 5.06935C41.8047 4.96072 40.8378 5.15524 39.9631 5.63259C39.0411 6.13583 38.0086 6.4944 37.3421 7.39116C37.1448 7.65666 36.8908 7.8885 36.8564 8.24709" stroke="#471a03" stroke-width="0.5" stroke-linecap="round" stroke-linejoin="round"/>
<path d="M83.1294 12.6162C83.7195 11.7007 84.3087 11.8402 85.3809 12.1311C86.2865 12.3767 86.7398 13.1297 86.7897 14.123C86.8644 15.6124 86.0767 16.2156 85.0807 16.1867C84.754 16.1772 84.4301 16.0695 84.1049 16.0067" stroke="#471a03" stroke-width="0.5" stroke-linecap="round" stroke-linejoin="round"/>
<path d="M69.6904 7.78857C70.2066 8.18836 70.6488 8.65336 71.0279 9.19457C71.4093 9.73913 71.6511 10.3485 71.7129 10.9826C71.7418 11.2793 71.8151 11.5659 71.8849 11.8335C72.1373 12.8014 71.8224 13.7216 71.7461 14.6608" stroke="#471a03" stroke-width="0.5" stroke-linecap="round" stroke-linejoin="round"/>
<path d="M32.1222 43.2192C31.961 43.588 31.5654 43.7284 31.3008 43.9996C30.603 44.715 30.1431 45.5701 29.6787 46.4263" stroke="#471a03" stroke-width="0.5" stroke-linecap="round" stroke-linejoin="round"/>
<path d="M28.9237 30.6958C28.8588 32.2123 29.1529 33.6274 30.0263 34.9055C30.2801 35.2769 30.6072 35.5628 30.9004 35.8882" stroke="#471a03" stroke-width="0.5" stroke-linecap="round" stroke-linejoin="round"/>
<path d="M37.1618 47.9105C36.6771 47.6743 36.0195 47.8154 35.6941 48.3567C35.2481 49.0987 34.5985 49.8133 34.9933 50.8194C35.0293 50.9112 34.9597 51.0455 34.9391 51.1601" stroke="#471a03" stroke-width="0.5" stroke-linecap="round" stroke-linejoin="round"/>
<path d="M43.7274 10.3848C44.4066 10.479 45.1769 11.3624 45.2443 12.1121C45.2988 12.7175 45.1547 13.3231 44.8962 13.8244C44.5893 14.4198 43.9761 14.7216 43.2213 14.6506C42.7577 14.6071 42.3115 14.5449 41.896 14.3331" stroke="#471a03" stroke-width="0.5" stroke-linecap="round" stroke-linejoin="round"/>
<path d="M39.2972 50.3965C39.3356 50.8754 38.9669 51.0813 38.7041 51.3271C38.0066 51.9794 37.1913 52.315 36.2456 52.2102" stroke="#471a03" stroke-width="0.5" stroke-linecap="round" stroke-linejoin="round"/>
<path d="M34.8102 29.6335C35.5793 29.5607 36.143 30.146 36.2354 31.0285C36.3228 31.8629 35.8418 32.4025 35.044 32.7841C34.6542 32.9705 33.7396 32.6107 33.3918 32.1835C33.2418 31.9992 33.0916 31.818 33.0386 31.5756" stroke="#471a03" stroke-width="0.5" stroke-linecap="round" stroke-linejoin="round"/>
<path d="M86.4893 70.097C85.4747 69.0734 84.3039 68.8104 83.2822 69.8086" stroke="#471a03" stroke-width="0.5" stroke-linecap="round" stroke-linejoin="round"/>
<path d="M60.5888 83.1632C61.1058 84.4866 62.0687 84.9143 63.3995 84.709C64.0861 84.6031 64.4952 84.2135 64.9772 83.8509C65.3682 83.5567 65.4565 83.1087 65.3978 82.6624C65.192 81.0978 64.4118 80.4081 62.9063 80.3308C62.5736 80.3137 62.3038 80.4282 62.0557 80.5963C61.181 81.1887 60.5062 81.9232 60.5279 83.1005" stroke="#471a03" stroke-width="0.5" stroke-linecap="round" stroke-linejoin="round"/>
<path d="M39.758 78.1913C38.646 77.2681 37.3744 77.3552 36.0844 77.566C35.8823 77.5991 35.6827 77.6483 35.4819 77.6901" stroke="#471a03" stroke-width="0.5" stroke-linecap="round" stroke-linejoin="round"/>
<path d="M73.3322 32.4455C73.1813 32.4956 73.349 32.6785 73.1526 32.7691C72.5443 33.0498 71.9218 33.3166 71.2879 32.9885C70.4587 32.5593 70.1825 31.8863 70.3463 31.0246C70.3652 30.9252 70.3576 30.8183 70.3475 30.7164C70.2647 29.8758 70.6781 29.2829 71.414 29.0097C71.9765 28.8008 72.6395 28.7673 73.1402 29.2398C73.7542 29.8194 74.152 30.5175 73.8787 31.3917C73.7794 31.7093 73.8097 32.1098 73.4565 32.322" stroke="#471a03" stroke-width="0.5" stroke-linecap="round" stroke-linejoin="round"/>
<path d="M54.3661 29.6274C55.0455 30.268 54.918 31.0668 54.7143 31.8212C54.5774 32.3285 53.8139 32.6413 53.2645 32.4914C52.5244 32.2895 52.0865 31.9739 52.0352 31.2157C52.0228 31.0319 51.9955 30.8491 51.9751 30.6658" stroke="#471a03" stroke-width="0.5" stroke-linecap="round" stroke-linejoin="round"/>
<path d="M30.4423 26.7256C29.5901 27.7787 29.2154 29.0428 29.0679 30.3908" stroke="#471a03" stroke-width="0.5" stroke-linecap="round" stroke-linejoin="round"/>
<path d="M85.84 32.9868C85.9179 33.7135 85.5507 34.4379 85.8359 35.1688C85.902 35.3383 85.8655 35.575 85.9655 35.7025C86.1579 35.9478 86.1654 36.218 86.1837 36.4993" stroke="#471a03" stroke-width="0.5" stroke-linecap="round" stroke-linejoin="round"/>
<path d="M40.8267 79.1074C41.547 79.8302 41.8747 80.7666 42.2011 81.7036" stroke="#471a03" stroke-width="0.5" stroke-linecap="round" stroke-linejoin="round"/>
<path d="M40.4685 11.7593C40.2856 12.5538 40.2998 13.3026 40.9795 13.8973" stroke="#471a03" stroke-width="0.5" stroke-linecap="round" stroke-linejoin="round"/>
<path d="M60.1348 30.3906C60.0527 30.781 60.3746 31.036 60.3747 31.4382C60.3747 32.3086 60.1344 33.0978 59.9165 33.9031" stroke="#471a03" stroke-width="0.5" stroke-linecap="round" stroke-linejoin="round"/>
<path d="M82.6714 12.981C82.8108 13.7169 82.6432 14.4748 82.8588 15.2086C82.9086 15.3781 82.9377 15.5193 83.1295 15.5771" stroke="#471a03" stroke-width="0.5" stroke-linecap="round" stroke-linejoin="round"/>
<path d="M85.4201 77.8382C84.4226 77.9607 83.4625 77.8507 82.5736 77.4308C81.6315 76.9857 80.7694 76.4307 80.2008 75.4775C79.1045 73.6397 78.6005 71.4368 80.0693 69.3498C80.865 68.2193 81.6648 67.1762 82.9969 66.6394C83.5234 66.4272 84.0591 66.335 84.6117 66.2788" stroke="#471a03" stroke-width="0.5" stroke-linecap="round" stroke-linejoin="round"/>
<path d="M78.0896 68.2642C77.6026 68.6586 77.2553 69.1412 77.1733 69.7913" stroke="#471a03" stroke-width="0.5" stroke-linecap="round" stroke-linejoin="round"/>
<path d="M80.3804 48.8691C80.8767 49.1059 81.3061 49.463 81.7548 49.7854" stroke="#471a03" stroke-width="0.5" stroke-linecap="round" stroke-linejoin="round"/>
<path d="M6.66963 5.16762C7.24651 4.69487 7.95286 4.77816 8.58521 4.45191C8.31495 4.14359 8.067 3.88869 7.85106 3.60835C7.43836 3.07254 7.07582 2.50755 7.03877 1.79052C6.98008 0.654374 7.73391 0.104411 8.72295 0.629292C9.43617 1.0078 10.0144 1.59214 10.5344 2.21689C10.6784 2.38989 10.809 2.62832 10.6033 2.82674C10.3601 3.06135 10.1156 2.88724 9.94038 2.7083C9.39182 2.14807 8.809 1.64591 7.89086 1.30457C8.09738 2.80427 9.13158 3.72509 9.72657 4.90026C8.95653 5.43538 7.9786 5.2025 7.21965 5.78987C8.02783 6.15905 8.94451 5.71519 9.66234 6.18665C9.5978 6.6911 9.26263 6.7532 8.96977 6.77756C8.3522 6.82895 7.7288 6.82274 7.1306 6.65326C6.28184 6.4128 6.15808 6.04441 6.66963 5.16762Z" fill="#471a03"/>
<path d="M12.8417 1.80056C12.8545 1.8881 12.8646 1.97964 12.8868 2.06565C12.9084 2.15015 12.9534 2.23585 13.0072 2.30474C13.0612 2.37624 13.1164 2.42434 13.1921 2.47502C13.2155 2.48999 13.2896 2.53132 13.3199 2.5175C13.4129 2.47426 13.4678 2.3705 13.5046 2.27132C13.5173 2.23715 13.5274 2.20327 13.5373 2.17311C13.5873 2.00479 13.5432 1.83166 13.5199 1.66373C13.5069 1.56986 13.501 1.47735 13.4812 1.38472C13.4636 1.30669 13.4251 1.22717 13.381 1.15937C13.3422 1.10106 13.2954 1.0473 13.24 1.00292C13.2036 0.975578 13.1399 0.923087 13.0898 0.935832C13.0439 0.947608 12.9975 0.994353 12.9691 1.03019C12.9099 1.10477 12.8727 1.18124 12.8433 1.27064C12.7845 1.44572 12.8168 1.62327 12.8417 1.80056Z" fill="#2F2319"/>
<path d="M5.70612 9.22144C5.75581 9.21298 5.80495 9.20556 5.85415 9.19551C5.98218 9.16969 6.12101 9.15359 6.23887 9.09167C6.35299 9.03178 6.45058 8.93776 6.50611 8.82016L6.50667 8.81912C6.49939 8.81527 6.49212 8.81143 6.48484 8.80758C6.39234 8.75867 6.28598 8.7385 6.18222 8.74108C6.13639 8.74223 6.09001 8.74443 6.04552 8.75563C6.02912 8.75899 6.01321 8.76393 5.99681 8.76728C5.92857 8.78063 5.85985 8.79239 5.79106 8.80678C5.74186 8.81684 5.69224 8.82266 5.6431 8.83008C5.5813 8.83881 5.52781 8.85194 5.46734 8.87073C5.40846 8.88903 5.35604 8.92277 5.30362 8.95651C5.24906 8.99178 5.19889 9.0414 5.16125 9.09498C5.16125 9.09498 5.1607 9.09602 5.16118 9.09761C5.25998 9.18994 5.39366 9.2339 5.52672 9.2388C5.58771 9.24166 5.64584 9.23232 5.70557 9.22248L5.70612 9.22144Z" fill="#2F2319"/>
<path d="M81.6435 91.1447C81.6642 90.6844 81.6156 90.2572 81.5427 89.8293C81.508 89.6252 81.3982 89.3555 81.6719 89.2352C81.9251 89.1239 82.1135 89.2945 82.2845 89.4745C82.9251 90.1487 83.5792 90.8096 84.3148 91.3847C84.4682 91.5046 84.6161 91.6528 84.8452 91.5922C84.8918 91.4125 84.7994 91.2835 84.7313 91.1512C84.2615 90.2377 83.6767 89.403 82.9762 88.6477C82.9124 88.5789 82.8488 88.5068 82.8016 88.4268C82.6566 88.1814 82.7248 88.025 83.0069 87.9753C83.2154 87.9385 83.4281 87.9237 83.6394 87.9033C83.747 87.8929 83.8686 87.8967 83.8819 87.7564C83.8945 87.6234 83.774 87.582 83.6782 87.5449C83.3249 87.408 82.9501 87.355 82.581 87.2797C82.4082 87.2445 82.2368 87.2011 82.0668 87.1543C81.9204 87.1139 81.8519 87.0018 81.8663 86.8611C81.8814 86.7132 81.9943 86.6255 82.1363 86.6342C82.9977 86.6864 83.8606 86.7421 84.6234 87.2131C84.8724 87.3668 85.0318 87.5895 84.9907 87.8838C84.9511 88.168 84.776 88.3582 84.4837 88.4549C84.0106 88.6115 84.0041 88.6788 84.292 89.0789C84.8755 89.8898 85.4675 90.6974 85.758 91.6712C85.8421 91.9529 85.8842 92.2419 85.632 92.4534C85.3891 92.6571 85.1025 92.6069 84.8273 92.4946C84.1009 92.198 83.5408 91.6726 82.9675 91.1653C82.8288 91.0426 82.72 90.8818 82.5418 90.8125C82.3308 90.9181 82.3523 91.1086 82.3356 91.2775C82.3005 91.6348 82.262 92.0137 81.8723 92.1542C81.4366 92.3113 81.0627 92.127 80.7603 91.8031C80.3738 91.389 80.1652 90.8771 79.9746 90.3582C79.7761 89.8177 79.6532 89.2562 79.5202 88.6979C79.4962 88.5971 79.4843 88.4861 79.5004 88.3851C79.5288 88.2069 79.5883 88.04 79.8209 88.0329C80.0404 88.0262 80.1512 88.1459 80.1782 88.3438C80.2513 88.8791 80.3906 89.399 80.5475 89.9144C80.6809 90.353 80.8452 90.7802 81.1169 91.1571C81.2811 91.3849 81.4565 91.4504 81.6435 91.1447Z" fill="#471a03"/>
<path d="M97.79 58.5378C97.5762 58.8682 97.3276 58.9772 97.0064 58.8847C96.1047 58.6251 95.2674 58.2451 94.5644 57.6254C94.3904 57.472 94.2119 57.2964 94.4065 57.0445C94.5892 56.808 94.8117 56.8703 95.027 56.9947C95.5738 57.3105 96.1127 57.6414 96.8747 57.8844C96.3382 57.1815 95.9104 56.5783 95.2845 56.1279C95.0383 55.9508 94.698 55.7302 94.9794 55.3695C95.2643 55.0043 95.5664 55.2754 95.8048 55.4605C96.8146 56.2443 97.764 57.0749 97.79 58.5378Z" fill="#471a03"/>
<path d="M99.8811 55.0153C99.7423 55.9668 98.9697 55.6874 98.4585 55.8627C98.0238 56.0117 97.554 55.9217 97.1106 55.7896C96.9123 55.7306 96.7263 55.6091 96.7529 55.3632C96.7794 55.1183 96.9786 55.0653 97.1899 55.0344C97.6811 54.9625 98.1995 55.1658 98.7506 54.9201C98.1418 54.0789 96.9944 54.3933 96.335 53.6608C97.6627 53.0213 99.2958 53.6587 99.8811 55.0153Z" fill="#471a03"/>
<path d="M98.3293 50.0742C96.8345 50.7697 94.5633 50.7102 93.8309 49.8814C95.0013 49.4974 96.1563 49.8768 97.3126 49.6568C96.8965 48.836 95.7324 48.9644 95.2965 47.93C96.3717 47.9443 97.2171 48.2315 97.9716 48.8225C98.3645 49.1302 98.7005 49.4749 98.3293 50.0742Z" fill="#471a03"/>
<path d="M97.4729 42.9939C97.5242 44.6418 96.5761 46.7064 95.526 47.0538C95.6334 45.8267 96.4366 44.9141 96.6892 43.7644C95.7709 43.8241 95.4309 44.9448 94.3085 44.9386C94.7446 43.9557 95.3412 43.2915 96.1814 42.8303C96.6189 42.5902 97.0679 42.4169 97.4729 42.9939Z" fill="#471a03"/>
<path d="M0.219087 88.131C0.10101 87.8214 0.147998 87.5918 0.365033 87.4055C0.974253 86.8828 1.63304 86.4632 2.38748 86.2533C2.57421 86.2014 2.77808 86.1567 2.8528 86.4153C2.92297 86.6582 2.7738 86.788 2.58659 86.8832C2.11102 87.1252 1.62928 87.3544 1.09861 87.785C1.82841 87.7337 2.43897 87.713 3.04284 87.4781C3.28033 87.3857 3.59234 87.2465 3.69807 87.6188C3.80514 87.9958 3.47767 88.0838 3.23868 88.1668C2.22615 88.5187 1.21144 88.8052 0.219087 88.131Z" fill="#471a03"/>
<path d="M6.94556 89.1644C6.94556 89.1644 6.94556 89.1644 6.94428 89.1652C6.80301 89.287 6.73915 89.4907 6.72905 89.6707C6.72224 89.7982 6.74436 89.9187 6.76418 90.0441C6.77808 90.1279 6.78455 90.2109 6.79051 90.296C6.8055 90.4712 6.81666 90.6488 6.81962 90.8243C6.82098 90.9191 6.82053 91.0081 6.84315 91.1005C6.8696 91.1992 6.904 91.288 6.95477 91.3721C6.96785 91.3938 6.9817 91.4167 6.9981 91.4381C7.0199 91.4684 7.04809 91.4948 7.07628 91.5213C7.09217 91.536 7.12242 91.5716 7.14317 91.5713C7.16058 91.5712 7.20614 91.5367 7.21612 91.5272C7.25144 91.4989 7.28368 91.4656 7.31106 91.4299C7.3722 91.3547 7.41797 91.2628 7.44683 91.1688C7.46293 91.1174 7.47722 91.0601 7.48384 91.0074C7.49351 90.9251 7.4855 90.8395 7.48312 90.7575C7.47888 90.5827 7.46722 90.4072 7.45299 90.2332C7.43361 90.0189 7.41678 89.7944 7.34516 89.589C7.31307 89.4954 7.25128 89.4075 7.18592 89.3339C7.12055 89.2604 7.0406 89.1974 6.94761 89.1649L6.94556 89.1644Z" fill="#2F2319"/>
<path d="M2.28628 84.6154C2.2388 84.4219 2.01079 84.3376 1.83524 84.3523C1.74374 84.3594 1.62575 84.4106 1.55727 84.4891C1.51618 84.5362 1.49268 84.5927 1.50247 84.6565C1.52766 84.8187 1.74917 84.931 1.89472 84.9256C1.97486 84.9224 2.05749 84.9096 2.12624 84.8649C2.2062 84.8141 2.3131 84.7257 2.28741 84.6164L2.28628 84.6154Z" fill="#2F2319"/>
<path d="M1.58402 91.3644C0.956995 90.7904 1.54412 90.3808 1.66925 89.93C1.77567 89.5466 2.07428 89.2577 2.3906 89.0085C2.532 88.8971 2.71305 88.8256 2.87964 88.9674C3.04562 89.1086 2.98567 89.2766 2.90358 89.4422C2.71272 89.8272 2.30724 90.0941 2.21375 90.6085C3.13062 90.5961 3.4693 89.6236 4.33171 89.5209C4.14144 90.784 2.86608 91.6261 1.58402 91.3644Z" fill="#471a03"/>
</svg>
