<svg width="100" height="92" viewBox="0 0 100 92" fill="none" xmlns="http://www.w3.org/2000/svg">
<mask id="path-1-inside-1_667_5177" fill="white">
<path d="M88.7558 34.4367C88.5862 37.065 87.8484 39.3876 85.8346 41.1493C85.5104 41.4328 85.4506 41.7294 85.7098 42.0983C86.4771 43.1903 86.3737 44.2902 85.6769 45.3638C85.3994 45.7913 85.4547 46.0664 85.8766 46.3666C87.9527 47.8435 89.0085 49.8698 89.2815 52.4066C89.6148 55.5035 87.5182 59.161 84.9203 60.2522C84.1982 60.5555 84.1673 60.7059 84.4831 61.41C85.5905 63.879 84.3464 66.282 82.1325 67.0704C81.3546 67.3474 81.3405 67.4339 81.5859 68.2093C82.8395 72.1701 81.8057 75.735 78.6503 78.1975C77.2324 79.3041 75.6119 79.8574 73.7964 79.9405C72.2704 80.0104 70.9073 79.606 69.6098 78.869C69.0862 78.5716 68.8774 78.6277 68.6285 79.1833C67.2615 82.2344 64.8781 83.9607 61.607 84.4061C58.8149 84.7863 56.4075 83.9269 54.4884 81.8219C53.8427 81.1137 53.8509 81.1063 53.0552 81.5811C51.5209 82.4969 49.8632 82.4316 48.4301 81.3268C47.931 80.942 47.6038 80.9419 47.1445 81.3869C43.7654 84.6606 39.04 85.2265 34.9794 82.8562C33.7913 82.1627 32.8537 81.195 32.1788 80.0003C31.8853 79.4806 31.5921 79.4249 31.1218 79.7436C28.7679 81.3392 25.6602 80.2231 24.784 77.662C24.5753 77.0521 24.2103 77.0546 23.6974 77.2312C21.1171 78.1199 18.7578 77.6721 16.7174 75.8861C15.3261 74.6683 14.5277 73.1009 14.338 71.219C14.2197 70.0462 14.3709 68.935 14.7648 67.8465C14.9534 67.3255 14.8301 66.964 14.3145 66.7901C11.4432 65.8215 10.0148 62.0425 10.4686 59.2646C10.7848 57.3288 11.5192 55.6513 12.898 54.2594C13.1157 54.0396 13.2757 53.8092 13.0239 53.5294C11.7502 52.1144 12.2952 49.6428 13.4795 48.3128C13.9194 47.8187 13.9512 47.4746 13.564 46.9109C12.764 45.7464 12.8068 44.4784 13.4942 43.2713C13.7963 42.7406 13.6766 42.4651 13.2256 42.1295C11.0195 40.4876 10.7483 37.0695 12.6501 35.0804C13.0112 34.7028 13.3721 34.3165 13.7812 33.9956C14.178 33.6843 14.151 33.4232 13.8291 33.1069C11.9915 31.3006 11.682 29.1305 12.4106 26.7702C12.9086 25.1569 14.0904 24.1975 15.7129 23.8168C16.281 23.6835 16.3572 23.4118 16.2538 22.9099C15.5081 19.2881 16.8416 16.4474 19.6215 14.1972C21.2247 12.8994 23.0802 12.1662 25.1496 12.0271C26.0379 11.9675 26.9162 12.0392 27.7683 12.3324C28.5987 12.6182 28.7665 12.5421 28.9637 11.6733C29.2453 10.4323 29.8544 9.388 30.7883 8.54398C33.5793 6.0217 37.4123 5.03393 40.8253 6.76491C41.4747 7.0943 42.0802 7.49683 42.5521 8.06276C42.8512 8.42144 43.1283 8.49138 43.5086 8.15689C46.0895 5.88666 50.3643 7.6588 51.5063 10.2024C51.7767 10.8047 52.0186 10.8122 52.6709 10.508C55.1297 9.36128 57.5643 9.2471 59.7353 11.0786C60.5155 11.7367 61.12 12.2548 62.1563 11.7248C62.391 11.6047 62.7759 11.6502 63.044 11.7489C63.6841 11.9846 64.0922 11.7651 64.5032 11.2741C65.7649 9.76694 67.3444 8.70982 69.2649 8.25548C72.4168 7.50981 75.091 8.44755 77.1866 10.8459C79.0307 12.9563 79.5619 15.4835 79.0369 18.2263C78.8564 19.1697 78.9012 19.2723 79.8416 19.5198C82.1327 20.1228 83.3558 21.721 83.3316 24.0886C83.327 24.5299 83.3459 24.9711 83.2412 25.4099C83.1114 25.9538 83.2967 26.3218 83.8533 26.5412C86.8104 27.7069 88.1285 30.0925 88.636 33.0591C88.7103 33.4936 88.718 33.9394 88.7558 34.4367ZM52.7986 80.3767C53.0246 80.1709 53.2345 79.94 53.3305 79.6534C53.4364 79.3373 53.6053 79.2072 53.9426 79.2096C54.2762 79.2119 54.3716 79.4065 54.4907 79.6623C55.1467 81.0708 56.2152 82.0759 57.6153 82.7218C61.9048 84.7009 67.1619 81.8545 67.9995 77.0983C68.0526 76.7968 68.0978 76.5381 68.4391 76.4693C68.7581 76.4051 68.977 76.5703 69.156 76.8116C70.3564 78.4297 72.0862 78.9066 73.9535 78.826C75.6411 78.7532 77.159 78.0613 78.4074 76.8971C80.0375 75.377 80.9778 73.5347 80.9601 71.2504C80.95 69.9517 80.5943 68.7588 80.0459 67.6011C79.6064 66.6735 79.7156 66.4287 80.7052 66.2726C83.8735 65.7728 84.6694 62.6252 82.609 60.8877C82.1282 60.4822 82.3375 59.8866 82.9773 59.6943C83.6557 59.4905 84.298 59.2191 84.9224 58.8854C86.9683 57.792 88.7721 54.2251 87.9215 51.3963C87.3516 49.5009 86.3927 48.0058 84.651 47.0518C84.3002 46.8597 83.9087 46.7433 83.542 46.5786C83.2831 46.4623 83.1325 46.2527 83.133 45.9626C83.1335 45.6999 83.3146 45.58 83.536 45.4956C83.6672 45.4456 83.7954 45.3844 83.9184 45.3166C85.3444 44.5303 85.4412 43.2883 84.1546 42.2981C84.091 42.249 84.0199 42.2097 83.9554 42.1616C83.2768 41.6551 83.3156 41.1208 84.065 40.7587C85.1899 40.2151 86.0399 39.4037 86.6164 38.285C87.6035 36.3693 87.7855 34.3436 87.2609 32.3048C86.5729 29.6313 85.0105 27.76 82.0915 27.3526C81.6301 27.2882 81.4557 26.929 81.6198 26.4354C81.7591 26.0164 81.9853 25.6193 82.0755 25.192C82.5302 23.0384 81.7669 21.2879 79.5754 20.6793C79.0834 20.5426 78.5775 20.5972 78.0767 20.5804C77.3923 20.5575 77.0942 20.159 77.3615 19.5557C78.1176 17.8489 78.1792 16.123 77.7233 14.3178C76.8111 10.7052 72.4953 8.01444 68.7725 9.65216C67.0914 10.3917 65.7601 11.5627 64.6884 13.0407C64.1675 13.7591 63.9867 13.7857 63.303 13.2333C62.6587 12.7127 61.9585 12.7718 61.4398 13.3906C60.7974 14.1569 60.5828 14.1348 60.0484 13.2727C58.6719 11.0517 56.7728 10.4933 54.272 11.1294C53.4597 11.3359 52.7359 11.741 52.263 12.4783C52.0708 12.778 51.8334 12.952 51.4632 12.8807C51.0921 12.8091 51.0386 12.5173 50.9671 12.2115C50.7289 11.1928 50.2984 10.2668 49.5064 9.55755C48.2747 8.45448 46.367 7.76417 44.7981 8.76086C44.2407 9.11496 43.8378 9.60622 43.4413 10.1177C43.0935 10.5664 42.5108 10.5315 42.3322 10.0219C41.8813 8.73514 40.844 8.07913 39.7021 7.60982C36.9614 6.48339 34.5046 7.20917 32.2613 8.94421C30.819 10.0597 29.8917 11.4562 30.0136 13.3732C30.0354 13.7154 30.1184 14.0892 29.7617 14.3008C29.4027 14.5136 29.1094 14.2498 28.8235 14.0728C27.4733 13.2374 26.0186 13.0361 24.4743 13.3269C22.3138 13.7338 20.5215 14.7934 19.0964 16.443C17.9215 17.803 17.1949 19.3576 17.2289 21.2172C17.2482 22.2725 17.5993 23.2218 17.9746 24.1763C18.0859 24.4595 18.1945 24.7617 17.9569 25.0281C17.7195 25.2941 17.437 25.1377 17.17 25.0625C16.0029 24.7337 14.7052 25.1732 14.0066 26.1517C12.5952 28.1285 12.9866 31.7831 15.7795 32.9101C16.0569 33.0221 16.273 33.159 16.2766 33.5096C16.28 33.844 16.0511 33.9637 15.8126 34.0709C15.1604 34.3639 14.6088 34.7987 14.0854 35.2729C12.2909 36.8988 12.0326 38.9777 13.4261 40.6085C13.8641 41.1212 14.4258 41.4748 15.0146 41.7925C15.6753 42.149 15.713 42.44 15.213 43.014C15.0022 43.2559 14.7839 43.4988 14.6182 43.7711C13.9849 44.8119 14.0669 45.725 14.8532 46.6542C14.9701 46.7923 15.101 46.9187 15.2197 47.0554C15.665 47.5682 15.6687 47.8291 15.1665 48.2793C14.6348 48.7559 14.2108 49.3084 13.8465 49.9169C13.2859 50.8533 13.2311 52.3823 14.4742 53.174C14.9404 53.4709 14.9587 53.8838 14.5952 54.2912C14.4885 54.4108 14.3575 54.5084 14.2424 54.6208C12.2881 56.5302 11.2957 58.7965 11.6881 61.5658C11.9762 63.5989 13.6533 65.4871 15.5028 65.8841C16.867 66.1769 16.8682 66.1988 16.2343 67.4556C15.2409 69.4253 15.0839 71.4041 16.2103 73.3894C17.8189 76.2245 21.2564 77.5545 24.3731 75.562C24.5417 75.4542 24.7161 75.338 24.9045 75.282C25.4178 75.1293 25.8463 75.499 25.7549 76.013C25.5207 77.3304 26.1708 78.2321 27.1833 78.9016C28.2412 79.601 29.3488 79.5359 30.4249 78.8829C30.8477 78.6262 31.1207 78.2253 31.428 77.8518C31.8527 77.3356 32.4055 77.4412 32.6018 78.073C32.7764 78.6353 33.0216 79.1578 33.3368 79.6514C35.0769 82.3761 39.1598 83.9849 42.73 82.7517C44.5064 82.1381 46.0521 81.2175 47.0213 79.5329C47.1717 79.2714 47.2576 78.9847 47.6435 78.9636C48.0472 78.9416 48.186 79.1938 48.3595 79.4865C49.3769 81.2023 51.0976 81.5674 52.7986 80.3767Z"/>
</mask>
<path d="M88.7558 34.4367C88.5862 37.065 87.8484 39.3876 85.8346 41.1493C85.5104 41.4328 85.4506 41.7294 85.7098 42.0983C86.4771 43.1903 86.3737 44.2902 85.6769 45.3638C85.3994 45.7913 85.4547 46.0664 85.8766 46.3666C87.9527 47.8435 89.0085 49.8698 89.2815 52.4066C89.6148 55.5035 87.5182 59.161 84.9203 60.2522C84.1982 60.5555 84.1673 60.7059 84.4831 61.41C85.5905 63.879 84.3464 66.282 82.1325 67.0704C81.3546 67.3474 81.3405 67.4339 81.5859 68.2093C82.8395 72.1701 81.8057 75.735 78.6503 78.1975C77.2324 79.3041 75.6119 79.8574 73.7964 79.9405C72.2704 80.0104 70.9073 79.606 69.6098 78.869C69.0862 78.5716 68.8774 78.6277 68.6285 79.1833C67.2615 82.2344 64.8781 83.9607 61.607 84.4061C58.8149 84.7863 56.4075 83.9269 54.4884 81.8219C53.8427 81.1137 53.8509 81.1063 53.0552 81.5811C51.5209 82.4969 49.8632 82.4316 48.4301 81.3268C47.931 80.942 47.6038 80.9419 47.1445 81.3869C43.7654 84.6606 39.04 85.2265 34.9794 82.8562C33.7913 82.1627 32.8537 81.195 32.1788 80.0003C31.8853 79.4806 31.5921 79.4249 31.1218 79.7436C28.7679 81.3392 25.6602 80.2231 24.784 77.662C24.5753 77.0521 24.2103 77.0546 23.6974 77.2312C21.1171 78.1199 18.7578 77.6721 16.7174 75.8861C15.3261 74.6683 14.5277 73.1009 14.338 71.219C14.2197 70.0462 14.3709 68.935 14.7648 67.8465C14.9534 67.3255 14.8301 66.964 14.3145 66.7901C11.4432 65.8215 10.0148 62.0425 10.4686 59.2646C10.7848 57.3288 11.5192 55.6513 12.898 54.2594C13.1157 54.0396 13.2757 53.8092 13.0239 53.5294C11.7502 52.1144 12.2952 49.6428 13.4795 48.3128C13.9194 47.8187 13.9512 47.4746 13.564 46.9109C12.764 45.7464 12.8068 44.4784 13.4942 43.2713C13.7963 42.7406 13.6766 42.4651 13.2256 42.1295C11.0195 40.4876 10.7483 37.0695 12.6501 35.0804C13.0112 34.7028 13.3721 34.3165 13.7812 33.9956C14.178 33.6843 14.151 33.4232 13.8291 33.1069C11.9915 31.3006 11.682 29.1305 12.4106 26.7702C12.9086 25.1569 14.0904 24.1975 15.7129 23.8168C16.281 23.6835 16.3572 23.4118 16.2538 22.9099C15.5081 19.2881 16.8416 16.4474 19.6215 14.1972C21.2247 12.8994 23.0802 12.1662 25.1496 12.0271C26.0379 11.9675 26.9162 12.0392 27.7683 12.3324C28.5987 12.6182 28.7665 12.5421 28.9637 11.6733C29.2453 10.4323 29.8544 9.388 30.7883 8.54398C33.5793 6.0217 37.4123 5.03393 40.8253 6.76491C41.4747 7.0943 42.0802 7.49683 42.5521 8.06276C42.8512 8.42144 43.1283 8.49138 43.5086 8.15689C46.0895 5.88666 50.3643 7.6588 51.5063 10.2024C51.7767 10.8047 52.0186 10.8122 52.6709 10.508C55.1297 9.36128 57.5643 9.2471 59.7353 11.0786C60.5155 11.7367 61.12 12.2548 62.1563 11.7248C62.391 11.6047 62.7759 11.6502 63.044 11.7489C63.6841 11.9846 64.0922 11.7651 64.5032 11.2741C65.7649 9.76694 67.3444 8.70982 69.2649 8.25548C72.4168 7.50981 75.091 8.44755 77.1866 10.8459C79.0307 12.9563 79.5619 15.4835 79.0369 18.2263C78.8564 19.1697 78.9012 19.2723 79.8416 19.5198C82.1327 20.1228 83.3558 21.721 83.3316 24.0886C83.327 24.5299 83.3459 24.9711 83.2412 25.4099C83.1114 25.9538 83.2967 26.3218 83.8533 26.5412C86.8104 27.7069 88.1285 30.0925 88.636 33.0591C88.7103 33.4936 88.718 33.9394 88.7558 34.4367ZM52.7986 80.3767C53.0246 80.1709 53.2345 79.94 53.3305 79.6534C53.4364 79.3373 53.6053 79.2072 53.9426 79.2096C54.2762 79.2119 54.3716 79.4065 54.4907 79.6623C55.1467 81.0708 56.2152 82.0759 57.6153 82.7218C61.9048 84.7009 67.1619 81.8545 67.9995 77.0983C68.0526 76.7968 68.0978 76.5381 68.4391 76.4693C68.7581 76.4051 68.977 76.5703 69.156 76.8116C70.3564 78.4297 72.0862 78.9066 73.9535 78.826C75.6411 78.7532 77.159 78.0613 78.4074 76.8971C80.0375 75.377 80.9778 73.5347 80.9601 71.2504C80.95 69.9517 80.5943 68.7588 80.0459 67.6011C79.6064 66.6735 79.7156 66.4287 80.7052 66.2726C83.8735 65.7728 84.6694 62.6252 82.609 60.8877C82.1282 60.4822 82.3375 59.8866 82.9773 59.6943C83.6557 59.4905 84.298 59.2191 84.9224 58.8854C86.9683 57.792 88.7721 54.2251 87.9215 51.3963C87.3516 49.5009 86.3927 48.0058 84.651 47.0518C84.3002 46.8597 83.9087 46.7433 83.542 46.5786C83.2831 46.4623 83.1325 46.2527 83.133 45.9626C83.1335 45.6999 83.3146 45.58 83.536 45.4956C83.6672 45.4456 83.7954 45.3844 83.9184 45.3166C85.3444 44.5303 85.4412 43.2883 84.1546 42.2981C84.091 42.249 84.0199 42.2097 83.9554 42.1616C83.2768 41.6551 83.3156 41.1208 84.065 40.7587C85.1899 40.2151 86.0399 39.4037 86.6164 38.285C87.6035 36.3693 87.7855 34.3436 87.2609 32.3048C86.5729 29.6313 85.0105 27.76 82.0915 27.3526C81.6301 27.2882 81.4557 26.929 81.6198 26.4354C81.7591 26.0164 81.9853 25.6193 82.0755 25.192C82.5302 23.0384 81.7669 21.2879 79.5754 20.6793C79.0834 20.5426 78.5775 20.5972 78.0767 20.5804C77.3923 20.5575 77.0942 20.159 77.3615 19.5557C78.1176 17.8489 78.1792 16.123 77.7233 14.3178C76.8111 10.7052 72.4953 8.01444 68.7725 9.65216C67.0914 10.3917 65.7601 11.5627 64.6884 13.0407C64.1675 13.7591 63.9867 13.7857 63.303 13.2333C62.6587 12.7127 61.9585 12.7718 61.4398 13.3906C60.7974 14.1569 60.5828 14.1348 60.0484 13.2727C58.6719 11.0517 56.7728 10.4933 54.272 11.1294C53.4597 11.3359 52.7359 11.741 52.263 12.4783C52.0708 12.778 51.8334 12.952 51.4632 12.8807C51.0921 12.8091 51.0386 12.5173 50.9671 12.2115C50.7289 11.1928 50.2984 10.2668 49.5064 9.55755C48.2747 8.45448 46.367 7.76417 44.7981 8.76086C44.2407 9.11496 43.8378 9.60622 43.4413 10.1177C43.0935 10.5664 42.5108 10.5315 42.3322 10.0219C41.8813 8.73514 40.844 8.07913 39.7021 7.60982C36.9614 6.48339 34.5046 7.20917 32.2613 8.94421C30.819 10.0597 29.8917 11.4562 30.0136 13.3732C30.0354 13.7154 30.1184 14.0892 29.7617 14.3008C29.4027 14.5136 29.1094 14.2498 28.8235 14.0728C27.4733 13.2374 26.0186 13.0361 24.4743 13.3269C22.3138 13.7338 20.5215 14.7934 19.0964 16.443C17.9215 17.803 17.1949 19.3576 17.2289 21.2172C17.2482 22.2725 17.5993 23.2218 17.9746 24.1763C18.0859 24.4595 18.1945 24.7617 17.9569 25.0281C17.7195 25.2941 17.437 25.1377 17.17 25.0625C16.0029 24.7337 14.7052 25.1732 14.0066 26.1517C12.5952 28.1285 12.9866 31.7831 15.7795 32.9101C16.0569 33.0221 16.273 33.159 16.2766 33.5096C16.28 33.844 16.0511 33.9637 15.8126 34.0709C15.1604 34.3639 14.6088 34.7987 14.0854 35.2729C12.2909 36.8988 12.0326 38.9777 13.4261 40.6085C13.8641 41.1212 14.4258 41.4748 15.0146 41.7925C15.6753 42.149 15.713 42.44 15.213 43.014C15.0022 43.2559 14.7839 43.4988 14.6182 43.7711C13.9849 44.8119 14.0669 45.725 14.8532 46.6542C14.9701 46.7923 15.101 46.9187 15.2197 47.0554C15.665 47.5682 15.6687 47.8291 15.1665 48.2793C14.6348 48.7559 14.2108 49.3084 13.8465 49.9169C13.2859 50.8533 13.2311 52.3823 14.4742 53.174C14.9404 53.4709 14.9587 53.8838 14.5952 54.2912C14.4885 54.4108 14.3575 54.5084 14.2424 54.6208C12.2881 56.5302 11.2957 58.7965 11.6881 61.5658C11.9762 63.5989 13.6533 65.4871 15.5028 65.8841C16.867 66.1769 16.8682 66.1988 16.2343 67.4556C15.2409 69.4253 15.0839 71.4041 16.2103 73.3894C17.8189 76.2245 21.2564 77.5545 24.3731 75.562C24.5417 75.4542 24.7161 75.338 24.9045 75.282C25.4178 75.1293 25.8463 75.499 25.7549 76.013C25.5207 77.3304 26.1708 78.2321 27.1833 78.9016C28.2412 79.601 29.3488 79.5359 30.4249 78.8829C30.8477 78.6262 31.1207 78.2253 31.428 77.8518C31.8527 77.3356 32.4055 77.4412 32.6018 78.073C32.7764 78.6353 33.0216 79.1578 33.3368 79.6514C35.0769 82.3761 39.1598 83.9849 42.73 82.7517C44.5064 82.1381 46.0521 81.2175 47.0213 79.5329C47.1717 79.2714 47.2576 78.9847 47.6435 78.9636C48.0472 78.9416 48.186 79.1938 48.3595 79.4865C49.3769 81.2023 51.0976 81.5674 52.7986 80.3767Z" fill="#3B1502" stroke="#3B1502" stroke-width="2" mask="url(#path-1-inside-1_667_5177)"/>
<path d="M91.8857 5.67773C91.9688 5.67647 92.0402 5.69097 92.1113 5.73828L92.1826 5.79785C92.3361 5.94802 92.3792 6.14906 92.2969 6.49414L92.2539 6.65137C91.984 7.53533 91.4975 8.29559 90.9365 9.07422L90.3555 9.86426C90.3205 9.91166 90.2801 9.96061 90.2295 10.0195C90.1822 10.0745 90.1209 10.1445 90.0645 10.2148C89.9493 10.3584 89.8149 10.5507 89.7432 10.8008L89.6807 11.0156L89.8008 11.2051C89.9917 11.508 90.2551 11.6474 90.5195 11.6953C90.6376 11.7167 90.7491 11.7187 90.835 11.7178L91.0498 11.7139C91.374 11.7152 91.6187 11.7204 91.8174 11.7783C91.9423 11.8148 92.0365 11.8676 92.1094 11.9629L92.1748 12.0732C92.3653 12.4739 92.2938 12.8677 91.9814 13.2852L91.833 13.4658C91.4038 13.9448 90.8701 14.289 90.2686 14.6025L89.6465 14.9092C89.2167 15.1127 88.7748 15.2866 88.3223 15.4492L86.9336 15.9229C86.8013 15.9674 86.6811 15.987 86.5928 15.9814L86.4424 15.9629C86.4258 15.9592 86.4144 15.954 86.4062 15.9512L86.4023 15.9307C86.3972 15.89 86.4007 15.8671 86.4023 15.8574C86.4031 15.8569 86.4043 15.857 86.4053 15.8564L86.4941 15.8252C87.2008 15.6614 87.8813 15.435 88.542 15.1836L89.1963 14.9248C89.8497 14.6592 90.5168 14.3416 91.1172 13.8818L91.3701 13.6758C91.5617 13.5098 91.8404 13.2202 91.833 12.8262C91.8246 12.378 91.4706 12.1113 91.1543 11.958L91.04 11.9023L90.9121 11.9082C90.282 11.9389 89.6965 12.0362 89.1318 12.166L88.5732 12.3057C88.5196 12.32 88.4667 12.3363 88.4209 12.3506C88.3721 12.3658 88.3315 12.3785 88.29 12.3906C88.2061 12.4151 88.1517 12.426 88.1133 12.4287C88.1108 12.4289 88.1085 12.4286 88.1064 12.4287L88.1006 12.4199C88.0787 12.3809 88.0766 12.3586 88.0762 12.3486C88.0757 12.3367 88.0779 12.3152 88.0928 12.2783C88.1107 12.2338 88.1395 12.1843 88.1816 12.126L88.3506 11.9189C89.2715 10.8725 90.1875 9.79391 90.9961 8.62207L91.3359 8.11426C91.4011 8.0135 91.5484 7.81194 91.6338 7.60547C91.7214 7.39373 91.7658 7.14082 91.6934 6.85938L91.6543 6.73633L91.5527 6.46289L91.2646 6.41699L91.1631 6.40527C90.7997 6.38008 90.5098 6.53531 90.3311 6.65137L90.1816 6.75195C88.8469 7.59749 87.6323 8.58686 86.5391 9.71973L86.0781 10.2139C86.0254 10.2723 85.9785 10.3224 85.9346 10.3652L85.8076 10.4736C85.7991 10.4798 85.79 10.4841 85.7822 10.4893L85.7754 10.4697C85.7306 10.3085 85.6949 10.1461 85.6611 9.97754L85.5596 9.44824C85.5535 9.4169 85.5262 9.21119 85.4463 9.05469C85.3964 8.95699 85.3153 8.84767 85.1846 8.7666C85.0866 8.70584 84.9821 8.67413 84.8799 8.66211L84.7783 8.65625C84.4679 8.65627 84.2506 8.81847 84.126 9.01172C84.0774 9.087 84.0417 9.16943 84.0166 9.24023L83.9688 9.39746C83.8724 9.7349 83.8155 10.0824 83.7744 10.4199L83.6758 11.3828C83.6616 11.5132 83.6434 11.6439 83.624 11.7754C83.5931 10.5765 83.6241 9.4728 84.0684 8.44238L84.1768 8.20996C84.3245 7.91398 84.4988 7.78028 84.7051 7.75879L84.7959 7.75586C84.9532 7.76284 85.0671 7.80692 85.1562 7.87207C85.2253 7.92262 85.295 7.99733 85.3584 8.10645L85.4189 8.22754C85.505 8.4217 85.593 8.60609 85.6914 8.74902C85.7872 8.88812 85.9533 9.0766 86.2246 9.12695C86.4877 9.17569 86.7089 9.06685 86.8457 8.98242C86.9177 8.93794 86.9921 8.88338 87.0684 8.82324L87.3018 8.62793C88.5271 7.56827 89.6787 6.5609 91.0762 5.93555L91.3594 5.81543C91.5814 5.72659 91.7503 5.67986 91.8857 5.67773Z" fill="#3B1502" stroke="#3B1502"/>
<path d="M5.33203 65.6216L5.36426 65.6577C5.38816 65.6935 5.39501 65.7186 5.39746 65.7319C5.39974 65.7447 5.39973 65.7562 5.39648 65.7681C5.39126 65.7869 5.37374 65.8242 5.32617 65.8687L5.2666 65.9155C4.87811 66.1816 4.50099 66.4283 4.12012 66.6753L2.95215 67.4399C2.89067 67.4813 2.82582 67.5173 2.72266 67.5786C2.63205 67.6325 2.51644 67.7042 2.41016 67.7925C2.30356 67.8811 2.18034 68.0076 2.10156 68.1821C2.03871 68.3215 2.01255 68.4724 2.02539 68.6284L2.05176 68.7866C2.10592 69.0057 2.22219 69.1993 2.41504 69.3286C2.59445 69.4488 2.78748 69.477 2.92676 69.4829C3.06402 69.4887 3.20362 69.4735 3.29492 69.4644L3.5 69.4517C4.00729 69.4841 4.51683 69.3733 4.94922 69.272L5.35352 69.1792C5.50633 69.1473 5.58097 69.1551 5.6123 69.1646C5.62343 69.168 5.63023 69.1716 5.63672 69.1772L5.68457 69.2456C5.69337 69.2625 5.69679 69.2733 5.69824 69.2788C5.69786 69.2798 5.69789 69.2813 5.69727 69.2827C5.69155 69.2955 5.67722 69.3203 5.64551 69.3579L5.51758 69.4868C4.84677 70.1037 4.21806 70.7565 3.61426 71.4263L3.01758 72.1011C2.9021 72.2344 2.75191 72.3982 2.61426 72.5806L2.4834 72.7681C2.46809 72.7919 2.44218 72.823 2.38379 72.8911C2.33616 72.9467 2.25889 73.0357 2.19629 73.1353C2.13267 73.2364 2.05755 73.3894 2.05078 73.5806C2.04539 73.7349 2.0855 73.8778 2.1582 74.0044L2.24121 74.1255C2.362 74.2755 2.52123 74.3758 2.7041 74.4136C2.8736 74.4486 3.02739 74.4228 3.13867 74.3921C3.25022 74.3613 3.35213 74.3153 3.42578 74.2808L3.60449 74.1978C4.25287 73.925 4.87476 73.6068 5.47852 73.2681L6.07715 72.9233L8.31055 71.6118C8.39944 71.5606 8.48988 71.5173 8.58887 71.4731L8.91895 71.3296C8.93373 71.3231 8.94839 71.3184 8.96191 71.313L8.93945 71.3315C8.48834 71.6499 8.03145 71.9598 7.56934 72.2603L7.10547 72.5581C5.90487 73.3148 4.74298 74.0268 3.46289 74.481L3.20508 74.5679C2.93329 74.6556 2.65486 74.7014 2.36719 74.7095L2.07617 74.7056C1.7759 74.6892 1.63968 74.5871 1.58301 74.5083C1.53448 74.4406 1.48903 74.3124 1.53418 74.0913L1.55957 73.9907C1.68484 73.5641 1.90921 73.1812 2.20215 72.7739L2.51758 72.355C2.66517 72.1748 2.81168 71.9991 2.95508 71.8247L3.38281 71.2935C3.39377 71.2794 3.41257 71.2593 3.46777 71.2065C3.51109 71.1651 3.58773 71.0932 3.65332 71.0083C3.72205 70.9192 3.8028 70.7867 3.8291 70.6128C3.84976 70.476 3.83256 70.3436 3.78809 70.2202L3.73535 70.1001L3.66406 69.9858C3.48757 69.7422 3.23631 69.6543 3.02637 69.6323C2.91947 69.6212 2.81794 69.6251 2.74609 69.6294C2.65989 69.6345 2.62076 69.6388 2.5752 69.6392L2.4043 69.6304C2.29111 69.6182 2.17856 69.5937 2.06445 69.5571L1.8916 69.4927C1.68213 69.406 1.58179 69.292 1.53613 69.187C1.50111 69.1064 1.48217 68.9953 1.50781 68.8481L1.54883 68.689C1.60217 68.5308 1.67263 68.3958 1.76367 68.2788L1.8623 68.1675C2.71718 67.3134 3.69359 66.6056 4.73438 65.9478L5.18359 65.6685C5.27183 65.6146 5.31879 65.6178 5.3252 65.6187C5.32749 65.619 5.32922 65.6197 5.33203 65.6216Z" fill="#3B1502" stroke="#3B1502"/>
<path d="M78.6245 84.5146C78.639 84.5138 78.6783 84.5169 78.7368 84.5566L78.8013 84.6104C79.7797 85.5439 80.4453 86.6876 80.8101 87.9814L80.8794 88.2422C80.9378 88.4786 80.8745 88.6391 80.772 88.7461C80.659 88.8639 80.4503 88.9635 80.1528 88.9551L80.0396 88.9473C79.8524 88.9266 79.6665 88.8688 79.4751 88.7812L79.2417 88.6621C78.9461 88.497 78.5889 88.409 78.2466 88.5801C78.015 88.6959 77.8699 88.8944 77.7749 89.0859L77.6948 89.2725C77.6394 89.4231 77.6018 89.5752 77.5708 89.6982C77.5542 89.7642 77.5389 89.8231 77.5239 89.877L77.4771 90.0273C77.3253 90.448 77.0857 90.6137 76.8921 90.6523C76.7209 90.6864 76.4767 90.6428 76.2095 90.4102L76.0933 90.2988C75.9507 90.1477 75.8307 89.974 75.7261 89.7793L75.6265 89.5771C75.1452 88.5244 74.9174 87.4048 74.8315 86.2334L74.8032 85.7285C74.7999 85.6456 74.7984 85.5856 74.8013 85.5342C74.8435 85.5337 74.8664 85.5389 74.8755 85.542C74.8836 85.5448 74.8872 85.5469 74.8911 85.5508C74.9013 85.5612 74.9264 85.5955 74.9487 85.6748L74.9692 85.7705C75.0663 86.3527 75.1489 86.9834 75.2583 87.6064L75.3784 88.2256C75.5028 88.8005 75.7255 89.4503 76.2437 89.9434L76.4409 90.1309L76.7056 90.0674C76.9957 89.9972 77.208 89.836 77.3325 89.6045C77.3825 89.5116 77.414 89.4123 77.4341 89.3271L77.4692 89.1348C77.5082 88.8978 77.5474 88.6583 77.5845 88.417L77.687 87.6885C77.7024 87.5659 77.7288 87.4938 77.7485 87.457C77.7505 87.4534 77.7527 87.45 77.7544 87.4473C77.7564 87.4475 77.7589 87.4478 77.7612 87.4482C77.7805 87.4515 77.8082 87.4589 77.8442 87.4736L77.978 87.543C78.1087 87.6229 78.2364 87.712 78.3794 87.8115C78.4489 87.8599 78.5221 87.9108 78.5981 87.9619L78.8335 88.1133C78.8847 88.1442 79.0537 88.2598 79.2065 88.3242C79.3725 88.394 79.58 88.4379 79.8149 88.3867L79.9175 88.3584L80.0513 88.3145L80.1431 88.207C80.2391 88.0936 80.3088 87.9601 80.3364 87.8086C80.3637 87.6588 80.3437 87.525 80.312 87.4199C80.2818 87.3198 80.2375 87.235 80.2075 87.1797L80.1401 87.0566C79.8011 86.3661 79.4019 85.6992 78.9058 85.0879L78.687 84.8291C78.6343 84.7693 78.5979 84.7301 78.5649 84.6885C78.5342 84.6497 78.5184 84.6231 78.5093 84.6045C78.5053 84.5964 78.504 84.5893 78.5024 84.584C78.5719 84.5184 78.6161 84.5151 78.6245 84.5146Z" fill="#3B1502" stroke="#3B1502"/>
<path d="M65.6367 0.753906C66.0777 0.52806 66.4407 0.429888 66.8477 0.560547C66.8631 0.571294 66.8774 0.58252 66.8916 0.592773L65.8496 1.08203C65.0277 1.46801 64.448 2.07356 64.0625 2.82812L63.9092 3.16113C63.8634 3.27135 63.8474 3.40404 63.8848 3.54004C63.9215 3.67382 63.9998 3.77425 64.082 3.8418C64.1977 3.9367 64.3308 3.97876 64.4482 3.99512L64.5596 4.00391L64.7656 4.00879L64.915 3.86621C65.5079 3.3039 66.2041 2.64881 66.5352 1.69922L66.9141 0.608398C67.1583 0.788533 67.2063 0.887844 67.2178 0.94043C67.2296 0.995118 67.2272 1.10051 67.1338 1.32031L67.0068 1.58105C66.8167 1.93554 66.5786 2.26668 66.3125 2.60547C66.1864 2.76605 66.0446 2.94002 65.9014 3.11719L65.4805 3.65039C65.225 3.9885 64.9595 4.32076 64.6895 4.6582L63.8809 5.68359C63.8076 5.77935 63.7538 5.81855 63.7217 5.83398C63.7103 5.83945 63.6963 5.8444 63.6768 5.84668L63.5986 5.8418C63.5524 5.83282 63.5273 5.81265 63.5127 5.79492C63.5045 5.78489 63.4985 5.77354 63.4941 5.76172L63.4863 5.72559C63.4695 4.7738 63.5102 3.86311 63.7607 3.01953L63.8818 2.66211C64.1607 1.92932 64.6598 1.34355 65.3359 0.923828L65.6367 0.753906Z" fill="#3B1502" stroke="#3B1502"/>
<path d="M49.9408 86.4146C49.987 86.3755 50.0453 86.3447 50.1287 86.3336L50.2213 86.3296C50.3139 86.333 50.3606 86.3629 50.4038 86.4121C50.447 86.4614 50.4889 86.5365 50.5277 86.6405L50.5661 86.7548C50.8276 87.6487 51.1018 88.4839 51.2796 89.3417L51.3502 89.711C51.403 90.0205 51.3533 90.1239 51.3323 90.1537C51.3173 90.1748 51.2695 90.2248 51.1173 90.2695L50.9266 90.3112C50.5858 90.3658 50.2435 90.4056 49.904 90.4245L49.5648 90.4365C49.3305 90.4395 49.2471 90.3795 49.2162 90.3477C49.1895 90.32 49.1481 90.2572 49.1285 90.1214L49.117 89.9591C49.1137 89.4565 49.2051 88.9562 49.3192 88.3616C49.4336 87.908 49.5216 87.5099 49.6281 87.1267L49.7447 86.7428C49.7984 86.5801 49.8701 86.4745 49.9408 86.4146ZM49.8099 88.1093C49.4641 88.6073 49.463 89.0915 49.5234 89.5592L49.5421 89.7013L49.6329 89.8127C49.7607 89.9677 49.951 90.0978 50.1641 90.1433C50.2738 90.1668 50.423 90.1743 50.5769 90.1119C50.7025 90.0609 50.8036 89.9742 50.8737 89.8656L50.9327 89.7503C51.1895 89.1097 50.9218 88.5343 50.6333 88.1125L50.2248 87.5136L49.8099 88.1093Z" fill="#3B1502" stroke="#3B1502"/>
<path d="M5.11621 55.5854C3.87554 56.098 2.66957 56.5956 1.41602 56.9243L0.84668 57.061C0.772399 57.0771 0.707152 57.086 0.652344 57.0874C0.596767 57.0888 0.563643 57.0818 0.547852 57.0767C0.54403 57.0754 0.541479 57.0744 0.540039 57.0737C0.539753 57.0734 0.539127 57.0723 0.538086 57.0708C0.536804 57.0689 0.534658 57.0659 0.532227 57.061L0.511719 57.0024C0.495551 56.9356 0.499824 56.9017 0.501953 56.8911C0.503582 56.8831 0.506105 56.8777 0.513672 56.8687C0.532384 56.8463 0.57976 56.8084 0.677734 56.7681L0.792969 56.7271C2.25572 56.2818 3.62667 55.804 5.11621 55.5854Z" fill="#3B1502" stroke="#3B1502"/>
<path d="M93.7651 21.7124C93.7651 21.7153 93.7656 21.7236 93.7563 21.7417C93.7374 21.7786 93.6933 21.8324 93.6128 21.897L93.519 21.9653C92.7767 22.4649 91.9696 22.8401 91.1226 23.2036L90.2622 23.5679C90.2525 23.572 90.2456 23.5728 90.2417 23.5737C90.2331 23.5691 90.2128 23.5547 90.1821 23.52L90.2397 23.4497C90.514 23.1581 90.8749 22.9992 91.4038 22.7349L91.4028 22.7339C91.9454 22.4722 92.4377 22.2235 92.9302 21.9966L93.4263 21.7769C93.5199 21.7375 93.5813 21.7093 93.6528 21.6831C93.6928 21.6685 93.7231 21.659 93.7456 21.6538C93.7643 21.692 93.7651 21.7098 93.7651 21.7124Z" fill="#3B1502" stroke="#3B1502"/>
<path d="M96.4385 50.9707C97.3249 50.7865 98.1598 51.0322 99.2246 51.2832C99.2981 51.3149 99.3569 51.3447 99.4033 51.373C99.4561 51.4053 99.4819 51.4292 99.4932 51.4424C99.4957 51.4454 99.4971 51.4478 99.498 51.4492L99.499 51.4502L99.5 51.4639C99.4997 51.4738 99.4977 51.4906 99.4922 51.5146C99.4728 51.5164 99.4454 51.5205 99.4072 51.5195C99.3754 51.5188 99.341 51.5173 99.3008 51.5146L99.1699 51.5059C98.3464 51.4589 97.5329 51.3323 96.7285 51.1357L96.3838 51.0479C96.3365 51.0351 96.3017 51.0203 96.2754 51.0088L96.4385 50.9707Z" fill="#3B1502" stroke="#3B1502"/>
<path d="M11.4595 11.6118C12.1393 11.5478 12.7828 11.7137 13.4185 12.0308L13.6909 12.1763C13.7079 12.1859 13.7134 12.1926 13.7144 12.1938C13.7152 12.1949 13.7172 12.1976 13.7192 12.2046C13.7215 12.2125 13.7232 12.2267 13.7231 12.2476C13.7081 12.2479 13.6915 12.2491 13.6704 12.2495L13.5562 12.2544C13.1219 12.285 12.6899 12.19 12.1577 12.0259H12.1567C11.9012 11.9408 11.7283 11.8798 11.5933 11.8022L11.4673 11.7163C11.4102 11.67 11.3912 11.6378 11.3862 11.6265C11.3858 11.6255 11.3855 11.6243 11.3853 11.6235L11.4595 11.6118Z" fill="#3B1502" stroke="#3B1502"/>
<path d="M36.7891 64.9946C36.847 65.154 36.8344 65.3071 36.7676 65.5122L36.6689 65.7739C36.483 66.2247 36.2895 66.6719 36.0928 67.1196L35.4961 68.4673C35.4816 68.5001 35.4646 68.5329 35.4453 68.564L35.3809 68.6519C35.3102 68.7358 35.2501 68.7718 35.2119 68.7847C35.1939 68.7907 35.1744 68.7927 35.1494 68.7896C35.1501 68.7828 35.1503 68.7751 35.1514 68.7671L35.1836 68.6069C35.2657 68.2505 35.4021 67.9032 35.5654 67.5386C35.6423 67.367 35.7323 67.1789 35.8223 66.9858L36.082 66.4048C36.181 66.169 36.2927 65.9367 36.4121 65.7036L36.7891 64.9966V64.9946Z" fill="#3B1502" stroke="#3B1502"/>
<path d="M27.3926 20.3066C27.4756 20.3297 27.5505 20.3664 27.6035 20.4033L27.6484 20.4395C28.4189 21.1852 29.1255 21.9518 29.709 22.8652C29.7328 22.9266 29.7509 22.9732 29.7676 23.0215C29.7652 23.0212 29.7622 23.0228 29.7598 23.0225C29.738 23.0192 29.712 23.0108 29.6826 22.9971L29.5859 22.9355C28.8192 22.3024 28.1574 21.5593 27.5342 20.7568L27.2695 20.4092C27.2481 20.3806 27.2359 20.3587 27.2295 20.3447L27.2285 20.3438L27.2344 20.3359C27.2515 20.3124 27.264 20.3021 27.2686 20.2988C27.2726 20.296 27.2754 20.2947 27.2783 20.2939C27.2823 20.2929 27.2925 20.2912 27.3105 20.292L27.3926 20.3066Z" fill="#3B1502" stroke="#3B1502"/>
<path d="M62.708 20.2891C62.7063 20.3026 62.7058 20.3207 62.7002 20.3428L62.6455 20.499C62.1784 21.591 61.5319 22.5731 60.8887 23.6494C60.9316 23.3745 61.0556 23.1174 61.2461 22.7393L62.5254 20.5225C62.5681 20.4466 62.6059 20.3876 62.6406 20.3428C62.665 20.3114 62.6847 20.2942 62.6963 20.2842C62.6997 20.2854 62.7035 20.2872 62.708 20.2891Z" fill="#3B1502" stroke="#3B1502"/>
<path d="M27.1309 53.1904C27.1311 53.219 27.1271 53.2303 27.126 53.2324C27.1237 53.2368 27.1176 53.2477 27.1016 53.2627L27.0166 53.3193C26.475 53.6001 25.9023 53.7972 25.2949 53.9932L24.6758 54.1924C24.4458 54.267 24.3461 54.3073 24.2559 54.3135C24.2336 54.2873 24.2176 54.2656 24.207 54.248L24.2061 54.2461C24.2092 54.2428 24.2128 54.2392 24.2168 54.2354L24.2969 54.1719C25.1122 53.614 26.0759 53.3727 27.1309 53.1904Z" fill="#3B1502" stroke="#3B1502"/>
<path d="M74.0479 52.8896L74.2783 52.9277C74.9317 53.0536 75.4885 53.401 76.167 53.79C75.3764 53.6227 74.6352 53.3155 73.9346 52.8896C73.9558 52.8863 73.9911 52.884 74.0479 52.8896Z" fill="#3B1502" stroke="#3B1502"/>
<path d="M18.5264 4.97652L19.0119 5.09603L19.0119 5.09603L18.5264 4.97652ZM22.9773 2.88525L22.7272 3.31821C22.8845 3.40908 23.0787 3.40748 23.2345 3.31402L22.9773 2.88525ZM26.4206 5.72397L26.1567 5.29931C26.0133 5.38842 25.9246 5.54387 25.9208 5.71265C25.9169 5.88143 25.9985 6.04074 26.1377 6.13625L26.4206 5.72397ZM20.822 7.69442L21.2852 7.88285C21.3564 7.70781 21.3228 7.50757 21.1984 7.3653C21.074 7.22304 20.8801 7.16306 20.6971 7.21028L20.822 7.69442ZM18.5264 4.97652L19.0119 5.09603C19.2978 3.93454 19.6925 3.19942 20.2091 2.88623C20.6754 2.60354 21.4268 2.56702 22.7272 3.31821L22.9773 2.88525L23.2274 2.4523C21.8093 1.63314 20.6253 1.46448 19.6907 2.03112C18.8063 2.56726 18.3348 3.66295 18.0409 4.857L18.5264 4.97652ZM22.9773 2.88525L23.2345 3.31402C23.5871 3.10251 24.2049 2.8412 24.8699 2.76603C25.5298 2.69144 26.1804 2.80381 26.6926 3.25899L27.0247 2.88525L27.3569 2.51152C26.5642 1.80705 25.5938 1.67783 24.7576 1.77236C23.9264 1.8663 23.1729 2.18481 22.7201 2.45649L22.9773 2.88525ZM27.0247 2.88525L26.6926 3.25899C26.9578 3.49467 27.0619 3.70022 27.0973 3.86065C27.1328 4.02131 27.1106 4.18812 27.0331 4.36599C26.8683 4.74376 26.4842 5.09578 26.1567 5.29931L26.4206 5.72397L26.6846 6.14864C27.1021 5.88911 27.6724 5.40159 27.9497 4.76568C28.0931 4.43671 28.1639 4.05314 28.0738 3.64517C27.9838 3.23698 27.7441 2.85566 27.3569 2.51152L27.0247 2.88525ZM26.4206 5.72397L26.1377 6.13625C26.3575 6.28704 26.5799 6.48867 26.7426 6.71348C26.9063 6.9396 26.9888 7.15899 26.9884 7.35813C26.9876 7.69704 26.7153 8.32555 25.0405 8.93874L25.2124 9.40826L25.3843 9.87778C27.1408 9.23469 27.9861 8.37338 27.9884 7.36037C27.9894 6.88356 27.7948 6.46147 27.5526 6.12702C27.3095 5.79126 26.9972 5.51322 26.7035 5.31169L26.4206 5.72397ZM25.2124 9.40826L25.0405 8.93874C23.4068 9.5369 22.3597 9.37067 21.8063 9.03902C21.2542 8.70807 21.1509 8.21291 21.2852 7.88285L20.822 7.69442L20.3589 7.50599C20.0099 8.36376 20.3862 9.35366 21.2922 9.89675C22.1971 10.4391 23.5868 10.5359 25.3843 9.87778L25.2124 9.40826ZM20.822 7.69442L20.6971 7.21028C20.1509 7.35122 19.6658 7.16698 19.3424 6.78835C19.0143 6.40428 18.8392 5.79754 19.0119 5.09603L18.5264 4.97652L18.0409 4.857C17.7973 5.84664 18.0288 6.79011 18.582 7.43783C19.1399 8.091 20.0108 8.42014 20.9469 8.17856L20.822 7.69442Z" fill="#3B1502"/>
<path d="M69.3909 40.0634L69.5157 39.5792L69.5157 39.5792L69.3909 40.0634ZM67.3485 35.5905L67.7786 35.8454C67.8712 35.6891 67.8718 35.4948 67.78 35.338L67.3485 35.5905ZM70.2255 32.1793L69.798 32.4386C69.8856 32.583 70.04 32.6734 70.2087 32.679C70.3774 32.6847 70.5376 32.6049 70.6346 32.4668L70.2255 32.1793ZM72.1344 37.7983L72.3279 37.3372C72.1537 37.2641 71.9531 37.2955 71.8095 37.4183C71.6658 37.5411 71.6037 37.7344 71.649 37.9179L72.1344 37.7983ZM69.3909 40.0634L69.5157 39.5792C68.3572 39.2805 67.6263 38.8778 67.3188 38.3579C67.0412 37.8887 67.013 37.1372 67.7786 35.8454L67.3485 35.5905L66.9183 35.3356C66.0834 36.7442 65.9016 37.9263 66.4581 38.867C66.9845 39.757 68.0751 40.2405 69.266 40.5475L69.3909 40.0634ZM67.3485 35.5905L67.78 35.338C67.5724 34.9831 67.3178 34.3626 67.25 33.697C67.1827 33.0365 67.3022 32.3874 67.7631 31.8804L67.3931 31.5441L67.0231 31.2077C66.3098 31.9925 66.1698 32.9612 66.2552 33.7984C66.3399 34.6304 66.6502 35.3873 66.9169 35.843L67.3485 35.5905ZM67.3931 31.5441L67.7631 31.8804C68.0017 31.6179 68.2085 31.516 68.3694 31.4823C68.5305 31.4486 68.6972 31.4727 68.8742 31.5522C69.2503 31.721 69.5981 32.109 69.798 32.4386L70.2255 32.1793L70.653 31.92C70.3981 31.4997 69.9168 30.9241 69.2839 30.6399C68.9565 30.4929 68.5737 30.418 68.1648 30.5035C67.7556 30.589 67.3716 30.8244 67.0231 31.2077L67.3931 31.5441ZM70.2255 32.1793L70.6346 32.4668C70.7878 32.2488 70.9919 32.0287 71.2186 31.8685C71.4465 31.7073 71.6669 31.6272 71.8662 31.6299C72.2053 31.6344 72.8308 31.9136 73.4256 33.5946L73.8969 33.4279L74.3683 33.2611C73.7445 31.4979 72.8924 30.6434 71.8794 30.6299C71.4027 30.6236 70.9784 30.8136 70.6412 31.052C70.3028 31.2913 70.0212 31.6004 69.8164 31.8918L70.2255 32.1793ZM73.8969 33.4279L73.4256 33.5946C74.0058 35.2345 73.8279 36.2795 73.4902 36.829C73.1531 37.3772 72.6567 37.4752 72.3279 37.3372L72.1344 37.7983L71.941 38.2594C72.7948 38.6176 73.7889 38.2525 74.3421 37.3526C74.8946 36.4539 75.0067 35.0655 74.3683 33.2611L73.8969 33.4279ZM72.1344 37.7983L71.649 37.9179C71.7839 38.4654 71.5943 38.9483 71.2121 39.2674C70.8243 39.5912 70.2155 39.7596 69.5157 39.5792L69.3909 40.0634L69.266 40.5475C70.253 40.802 71.1991 40.581 71.853 40.035C72.5124 39.4845 72.8512 38.6174 72.6199 37.6787L72.1344 37.7983Z" fill="#3B1502"/>
<path d="M24.1 45.775L24.3934 45.3701L24.3934 45.3701L24.1 45.775ZM25.0366 41.7596L25.3436 42.1542C25.4871 42.0426 25.5587 41.862 25.5306 41.6824L25.0366 41.7596ZM28.6827 40.9432L28.1899 41.0281C28.2185 41.1944 28.3292 41.3351 28.4841 41.4021C28.639 41.4691 28.8173 41.4534 28.9582 41.3604L28.6827 40.9432ZM28.6827 45.5652L29.0315 45.2069C28.8961 45.0751 28.6979 45.0309 28.5193 45.0926C28.3407 45.1544 28.2121 45.3116 28.1871 45.4989L28.6827 45.5652ZM24.1 45.775L24.3934 45.3701C23.9132 45.0223 23.6303 44.7556 23.4832 44.5381C23.3535 44.3463 23.3459 44.2216 23.3825 44.0959C23.4312 43.9284 23.5801 43.6939 23.9213 43.3545C24.2552 43.0222 24.725 42.6354 25.3436 42.1542L25.0366 41.7596L24.7296 41.3649C24.1092 41.8475 23.5969 42.2666 23.216 42.6456C22.8422 43.0174 22.5435 43.3995 22.4222 43.817C22.2887 44.2763 22.3888 44.7051 22.6548 45.0984C22.9035 45.466 23.3044 45.8162 23.8067 46.18L24.1 45.775ZM25.0366 41.7596L25.5306 41.6824C25.4673 41.2762 25.4575 40.6057 25.638 39.9614C25.817 39.322 26.1659 38.7617 26.7803 38.4584L26.5591 38.0101L26.3378 37.5617C25.3868 38.0311 24.902 38.8815 24.675 39.6918C24.4494 40.4971 24.4611 41.3149 24.5426 41.8367L25.0366 41.7596ZM26.5591 38.0101L26.7803 38.4584C27.0321 38.3342 27.1605 38.3762 27.2559 38.4389C27.3956 38.5305 27.5493 38.7332 27.6942 39.0636C27.9808 39.717 28.1116 40.5734 28.1899 41.0281L28.6827 40.9432L29.1754 40.8583C29.1049 40.4485 28.9567 39.4522 28.61 38.6619C28.4383 38.2705 28.1869 37.8537 27.8048 37.6029C27.3786 37.3231 26.8687 37.2997 26.3378 37.5617L26.5591 38.0101ZM28.6827 40.9432L28.9582 41.3604C29.1313 41.2461 29.432 41.1398 29.8026 41.1105C30.1674 41.0816 30.5623 41.1305 30.9183 41.2851C31.2687 41.4373 31.5882 41.6942 31.8182 42.1006C32.0502 42.5106 32.2076 43.1025 32.1784 43.9458L32.6781 43.9631L33.1779 43.9803C33.2119 42.9981 33.0314 42.2138 32.6885 41.6081C32.3437 40.9987 31.8513 40.6001 31.3169 40.368C30.7881 40.1383 30.2254 40.0739 29.7238 40.1136C29.228 40.1529 28.7537 40.2971 28.4071 40.526L28.6827 40.9432ZM32.6781 43.9631L32.1784 43.9458C32.1489 44.7987 31.956 45.2925 31.7372 45.5699C31.5299 45.8326 31.2614 45.9495 30.9455 45.9698C30.6149 45.9911 30.2372 45.9038 29.876 45.747C29.5153 45.5905 29.2117 45.3823 29.0315 45.2069L28.6827 45.5652L28.3339 45.9234C28.6132 46.1953 29.0229 46.4669 29.4778 46.6643C29.9321 46.8615 30.4721 47.0023 31.0097 46.9677C31.562 46.9321 32.1122 46.7089 32.5223 46.1892C32.9208 45.6841 33.1442 44.9531 33.1779 43.9803L32.6781 43.9631ZM28.6827 45.5652L28.1871 45.4989C28.1617 45.6884 28.0606 45.8282 27.8491 45.9379C27.6191 46.0572 27.2752 46.1265 26.8492 46.1222C25.9933 46.1137 25.0029 45.8116 24.3934 45.3701L24.1 45.775L23.8067 46.1799C24.6078 46.7602 25.8072 47.1118 26.8391 47.1221C27.3571 47.1273 27.8817 47.0474 28.3095 46.8255C28.7559 46.5939 29.1021 46.2005 29.1783 45.6315L28.6827 45.5652Z" fill="#3B1502"/>
<path d="M37.9946 75.1281L38.2879 74.7232L38.2879 74.7232L37.9946 75.1281ZM38.9311 71.1126L39.2381 71.5072C39.3816 71.3956 39.4532 71.215 39.4252 71.0355L38.9311 71.1126ZM42.5772 70.2962L42.0844 70.3811C42.1131 70.5474 42.2237 70.6881 42.3786 70.7551C42.5336 70.8221 42.7119 70.8064 42.8527 70.7134L42.5772 70.2962ZM42.5772 74.9182L42.926 74.5599C42.7906 74.4281 42.5924 74.3839 42.4138 74.4457C42.2352 74.5074 42.1067 74.6646 42.0816 74.8519L42.5772 74.9182ZM37.9946 75.1281L38.2879 74.7232C37.8078 74.3753 37.5249 74.1087 37.3778 73.8912C37.248 73.6993 37.2405 73.5746 37.277 73.4489C37.3257 73.2814 37.4746 73.0469 37.8158 72.7075C38.1498 72.3752 38.6196 71.9884 39.2381 71.5072L38.9311 71.1126L38.6241 70.718C38.0038 71.2006 37.4914 71.6197 37.1105 71.9987C36.7368 72.3705 36.438 72.7525 36.3167 73.17C36.1832 73.6293 36.2834 74.0581 36.5493 74.4514C36.798 74.8191 37.199 75.1692 37.7012 75.533L37.9946 75.1281ZM38.9311 71.1126L39.4252 71.0355C39.3618 70.6293 39.352 69.9587 39.5325 69.3144C39.7116 68.6751 40.0604 68.1147 40.6749 67.8115L40.4536 67.3631L40.2323 66.9148C39.2813 67.3841 38.7965 68.2345 38.5695 69.0448C38.3439 69.8501 38.3557 70.668 38.4371 71.1897L38.9311 71.1126ZM40.4536 67.3631L40.6749 67.8115C40.9267 67.6872 41.055 67.7292 41.1505 67.7919C41.2901 67.8835 41.4438 68.0863 41.5887 68.4167C41.8753 69.07 42.0061 69.9265 42.0844 70.3811L42.5772 70.2962L43.07 70.2113C42.9994 69.8016 42.8512 68.8052 42.5046 68.0149C42.3329 67.6235 42.0814 67.2068 41.6994 66.956C41.2731 66.6762 40.7633 66.6528 40.2323 66.9148L40.4536 67.3631ZM42.5772 70.2962L42.8527 70.7134C43.0258 70.5991 43.3266 70.4928 43.6972 70.4635C44.0619 70.4346 44.4568 70.4835 44.8128 70.6382C45.1632 70.7904 45.4827 71.0472 45.7127 71.4537C45.9448 71.8637 46.1022 72.4555 46.073 73.2989L46.5727 73.3161L47.0724 73.3334C47.1064 72.3511 46.9259 71.5669 46.5831 70.9611C46.2382 70.3518 45.7458 69.9532 45.2114 69.721C44.6826 69.4913 44.1199 69.4269 43.6183 69.4667C43.1226 69.5059 42.6483 69.6501 42.3017 69.879L42.5772 70.2962ZM46.5727 73.3161L46.073 73.2989C46.0434 74.1517 45.8506 74.6456 45.6317 74.9229C45.4244 75.1857 45.1559 75.3025 44.84 75.3229C44.5094 75.3442 44.1318 75.2568 43.7705 75.1001C43.4099 74.9435 43.1062 74.7353 42.926 74.5599L42.5772 74.9182L42.2284 75.2765C42.5077 75.5483 42.9174 75.8199 43.3723 76.0173C43.8266 76.2145 44.3667 76.3554 44.9042 76.3207C45.4566 76.2852 46.0067 76.062 46.4168 75.5423C46.8154 75.0371 47.0387 74.3061 47.0724 73.3334L46.5727 73.3161ZM42.5772 74.9182L42.0816 74.8519C42.0562 75.0414 41.9551 75.1812 41.7436 75.2909C41.5136 75.4102 41.1698 75.4795 40.7438 75.4753C39.8878 75.4667 38.8975 75.1647 38.2879 74.7232L37.9946 75.1281L37.7012 75.533C38.5023 76.1133 39.7018 76.4648 40.7337 76.4752C41.2516 76.4804 41.7762 76.4004 42.2041 76.1785C42.6505 75.947 42.9966 75.5535 43.0728 74.9845L42.5772 74.9182Z" fill="#3B1502"/>
<path d="M87.6509 71.1126L87.9443 70.7077L87.6509 71.1126ZM88.0578 66.16L88.0578 66.66C88.2039 66.66 88.3427 66.5961 88.4377 66.4851C88.5327 66.3741 88.5744 66.2272 88.5519 66.0828L88.0578 66.16ZM87.6509 61.8717L87.8722 62.32L87.6509 61.8717ZM92.0449 64.1064L91.5521 64.1913C91.5807 64.3577 91.6914 64.4983 91.8463 64.5653C92.0012 64.6323 92.1795 64.6167 92.3204 64.5236L92.0449 64.1064ZM92.0448 69.0591L92.3936 68.7008C92.2582 68.569 92.0601 68.5248 91.8815 68.5866C91.7028 68.6483 91.5743 68.8055 91.5492 68.9928L92.0448 69.0591ZM87.6509 71.1126L87.9443 70.7077C87.0948 70.0924 86.5918 69.0075 86.5982 68.1061C86.6013 67.6631 86.7263 67.3077 86.9421 67.0689C87.1497 66.8391 87.4926 66.66 88.0578 66.66L88.0578 66.16L88.0579 65.66C87.2639 65.66 86.6307 65.922 86.2001 66.3985C85.7778 66.8659 85.6026 67.4818 85.5982 68.0991C85.5895 69.3182 86.2422 70.7096 87.3576 71.5175L87.6509 71.1126ZM88.0578 66.16L88.5519 66.0828C88.5035 65.7727 88.3284 65.3689 88.1717 65.008C88.001 64.6147 87.8192 64.205 87.6886 63.803C87.5557 63.3941 87.4974 63.0546 87.5297 62.8002C87.5573 62.5835 87.6463 62.4315 87.8722 62.32L87.6509 61.8717L87.4297 61.4233C86.8729 61.6981 86.6032 62.1593 86.5377 62.6741C86.477 63.1512 86.5911 63.6615 86.7375 64.1121C86.8862 64.5697 87.0906 65.0291 87.2544 65.4063C87.4321 65.8156 87.5398 66.0833 87.5638 66.2371L88.0578 66.16ZM87.6509 61.8717L87.8722 62.32C88.5186 62.001 89.0434 61.935 89.4635 61.994C89.8852 62.0533 90.2432 62.2445 90.5445 62.5078C91.1673 63.0519 91.4947 63.8582 91.5521 64.1913L92.0449 64.1064L92.5376 64.0216C92.4461 63.4903 92.0185 62.4677 91.2025 61.7547C90.7844 61.3894 90.2521 61.0951 89.6028 61.0038C88.952 60.9123 88.2251 61.0308 87.4297 61.4233L87.6509 61.8717ZM92.0449 64.1064L92.3204 64.5236C92.4483 64.4392 92.7165 64.3684 93.1022 64.4092C93.4744 64.4487 93.9019 64.5879 94.3024 64.8471C95.0846 65.3533 95.7866 66.3314 95.7294 67.9841L96.2291 68.0014L96.7288 68.0187C96.7981 66.0201 95.9276 64.7077 94.8459 64.0076C94.3144 63.6637 93.7371 63.4709 93.2076 63.4148C92.6915 63.3602 92.161 63.4306 91.7693 63.6892L92.0449 64.1064ZM96.2291 68.0014L95.7294 67.9841C95.6999 68.8369 95.4963 69.2721 95.2904 69.4867C95.0989 69.6863 94.834 69.768 94.4779 69.7368C94.1121 69.7048 93.697 69.5542 93.3048 69.344C92.9148 69.135 92.5856 68.8876 92.3936 68.7008L92.0448 69.0591L91.696 69.4174C91.9636 69.6778 92.3714 69.9783 92.8323 70.2253C93.2911 70.4712 93.8409 70.6848 94.3905 70.733C94.9498 70.7819 95.5507 70.6597 96.012 70.1789C96.459 69.7131 96.6951 68.9915 96.7288 68.0187L96.2291 68.0014ZM92.0448 69.0591L91.5492 68.9928C91.5025 69.3421 91.4097 69.7643 91.2546 70.1634C91.0979 70.5664 90.8898 70.9146 90.6305 71.1499C90.3837 71.3737 90.0827 71.5046 89.6843 71.4796C89.2672 71.4535 88.6971 71.253 87.9443 70.7077L87.6509 71.1126L87.3576 71.5175C88.1977 72.1261 88.9479 72.4354 89.6216 72.4776C90.314 72.521 90.8743 72.2787 91.3024 71.8904C91.7178 71.5135 91.9982 71.0105 92.1867 70.5256C92.3766 70.0369 92.4857 69.5346 92.5404 69.1254L92.0448 69.0591Z" fill="#3B1502"/>
<path d="M45.1875 55.0854C44.927 54.4106 44.3299 53.9905 43.8772 53.4826C42.3657 51.7871 41.617 49.8012 41.2647 47.6024C41.0286 46.1291 41.0273 44.6805 41.2822 43.2077C41.4856 42.0327 42.1191 41.0511 42.5536 39.9817C42.6821 39.6656 42.8074 39.3815 42.7362 39.0412" stroke="#3B1502" stroke-linecap="round" stroke-linejoin="round"/>
<path d="M55.3072 30.1927C55.0029 30.1159 54.804 29.9219 54.5955 29.6849C54.0764 29.0952 53.5954 28.4699 52.8359 28.1177C52.3325 27.8841 51.9478 27.3829 51.4391 27.1751C49.1572 26.2427 46.8138 25.615 44.3092 26.0748C44.1236 26.1089 43.9007 26.1509 43.7421 26.0816C43.2641 25.8726 42.9128 26.0921 42.5374 26.3311C41.3828 27.0662 40.0847 27.5468 38.9595 28.3358" stroke="#3B1502" stroke-linecap="round" stroke-linejoin="round"/>
<path d="M63.9838 60.5154C63.4151 60.7738 63.2183 61.3519 62.9266 61.8221C62.0167 63.289 60.8 64.4358 59.475 65.5229C58.5154 66.3103 57.4106 66.6396 56.2853 66.9885C55.9944 67.0787 55.7198 67.202 55.3935 66.973C55.2387 66.8644 54.9321 66.9403 54.7012 66.9766C52.9505 67.2518 51.2449 66.937 49.5686 66.5071C49.0401 66.3716 48.534 66.0628 47.9964 65.8813C47.6837 65.7757 47.3751 65.6738 47.04 65.6939" stroke="#3B1502" stroke-linecap="round" stroke-linejoin="round"/>
</svg>
