<svg width="100" height="91" viewBox="0 0 100 91" fill="none" xmlns="http://www.w3.org/2000/svg">
<path d="M88.7558 33.4367C88.5862 36.065 87.8484 38.3876 85.8346 40.1493C85.5104 40.4328 85.4506 40.7294 85.7098 41.0983C86.4771 42.1903 86.3737 43.2902 85.6769 44.3638C85.3994 44.7913 85.4547 45.0664 85.8766 45.3666C87.9527 46.8435 89.0085 48.8698 89.2815 51.4066C89.6148 54.5035 87.5182 58.161 84.9203 59.2522C84.1982 59.5555 84.1673 59.7059 84.4831 60.41C85.5905 62.879 84.3464 65.282 82.1325 66.0704C81.3546 66.3474 81.3405 66.4339 81.5859 67.2093C82.8395 71.1701 81.8057 74.735 78.6503 77.1975C77.2324 78.3041 75.6119 78.8574 73.7964 78.9405C72.2704 79.0104 70.9073 78.606 69.6098 77.869C69.0862 77.5716 68.8774 77.6277 68.6285 78.1833C67.2615 81.2344 64.8781 82.9607 61.607 83.4061C58.8149 83.7863 56.4075 82.9269 54.4884 80.8219C53.8427 80.1137 53.8509 80.1063 53.0552 80.5811C51.5209 81.4969 49.8632 81.4316 48.4301 80.3268C47.931 79.942 47.6038 79.9419 47.1445 80.3869C43.7654 83.6606 39.04 84.2265 34.9794 81.8562C33.7913 81.1627 32.8537 80.195 32.1788 79.0003C31.8853 78.4806 31.5921 78.4249 31.1218 78.7436C28.7679 80.3392 25.6602 79.2231 24.784 76.662C24.5753 76.0521 24.2103 76.0546 23.6974 76.2312C21.1171 77.1199 18.7578 76.6721 16.7174 74.8861C15.3261 73.6683 14.5277 72.1009 14.338 70.219C14.2197 69.0462 14.3709 67.935 14.7648 66.8465C14.9534 66.3255 14.8301 65.964 14.3145 65.7901C11.4432 64.8215 10.0148 61.0425 10.4686 58.2646C10.7848 56.3288 11.5192 54.6513 12.898 53.2594C13.1157 53.0396 13.2757 52.8092 13.0239 52.5294C11.7502 51.1144 12.2952 48.6428 13.4795 47.3128C13.9194 46.8187 13.9512 46.4746 13.564 45.9109C12.764 44.7464 12.8068 43.4784 13.4942 42.2713C13.7963 41.7406 13.6766 41.4651 13.2256 41.1295C11.0195 39.4876 10.7483 36.0695 12.6501 34.0804C13.0112 33.7028 13.3721 33.3165 13.7812 32.9956C14.178 32.6843 14.151 32.4232 13.8291 32.1069C11.9915 30.3006 11.682 28.1305 12.4106 25.7702C12.9086 24.1569 14.0904 23.1975 15.7129 22.8168C16.281 22.6835 16.3572 22.4118 16.2538 21.9099C15.5081 18.2881 16.8416 15.4474 19.6215 13.1972C21.2247 11.8994 23.0802 11.1662 25.1496 11.0271C26.0379 10.9675 26.9162 11.0392 27.7683 11.3324C28.5987 11.6182 28.7665 11.5421 28.9637 10.6733C29.2453 9.43226 29.8544 8.388 30.7883 7.54398C33.5793 5.0217 37.4123 4.03393 40.8253 5.76491C41.4747 6.0943 42.0802 6.49683 42.5521 7.06276C42.8512 7.42144 43.1283 7.49138 43.5086 7.15689C46.0895 4.88666 50.3643 6.6588 51.5063 9.20235C51.7767 9.80473 52.0186 9.81223 52.6709 9.50799C55.1297 8.36128 57.5643 8.2471 59.7353 10.0786C60.5155 10.7367 61.12 11.2548 62.1563 10.7248C62.391 10.6047 62.7759 10.6502 63.044 10.7489C63.6841 10.9846 64.0922 10.7651 64.5032 10.2741C65.7649 8.76694 67.3444 7.70982 69.2649 7.25548C72.4168 6.50981 75.091 7.44755 77.1866 9.8459C79.0307 11.9563 79.5619 14.4835 79.0369 17.2263C78.8564 18.1697 78.9012 18.2723 79.8416 18.5198C82.1327 19.1228 83.3558 20.721 83.3316 23.0886C83.327 23.5299 83.3459 23.9711 83.2412 24.4099C83.1114 24.9538 83.2967 25.3218 83.8533 25.5412C86.8104 26.7069 88.1285 29.0925 88.636 32.0591C88.7103 32.4936 88.718 32.9394 88.7558 33.4367ZM52.7986 79.3767C53.0246 79.1709 53.2345 78.94 53.3305 78.6534C53.4364 78.3373 53.6053 78.2072 53.9426 78.2096C54.2762 78.2119 54.3716 78.4065 54.4907 78.6623C55.1467 80.0708 56.2152 81.0759 57.6153 81.7218C61.9048 83.7009 67.1619 80.8545 67.9995 76.0983C68.0526 75.7968 68.0978 75.5381 68.4391 75.4693C68.7581 75.4051 68.977 75.5703 69.156 75.8116C70.3564 77.4297 72.0862 77.9066 73.9535 77.826C75.6411 77.7532 77.159 77.0613 78.4074 75.8971C80.0375 74.377 80.9778 72.5347 80.9601 70.2504C80.95 68.9517 80.5943 67.7588 80.0459 66.6011C79.6064 65.6735 79.7156 65.4287 80.7052 65.2726C83.8735 64.7728 84.6694 61.6252 82.609 59.8877C82.1282 59.4822 82.3375 58.8866 82.9773 58.6943C83.6557 58.4905 84.298 58.2191 84.9224 57.8854C86.9683 56.792 88.7721 53.2251 87.9215 50.3963C87.3516 48.5009 86.3927 47.0058 84.651 46.0518C84.3002 45.8597 83.9087 45.7433 83.542 45.5786C83.2831 45.4623 83.1325 45.2527 83.133 44.9626C83.1335 44.6999 83.3146 44.58 83.536 44.4956C83.6672 44.4456 83.7954 44.3844 83.9184 44.3166C85.3444 43.5303 85.4412 42.2883 84.1546 41.2981C84.091 41.249 84.0199 41.2097 83.9554 41.1616C83.2768 40.6551 83.3156 40.1208 84.065 39.7587C85.1899 39.2151 86.0399 38.4037 86.6164 37.285C87.6035 35.3693 87.7855 33.3436 87.2609 31.3048C86.5729 28.6313 85.0105 26.76 82.0915 26.3526C81.6301 26.2882 81.4557 25.929 81.6198 25.4354C81.7591 25.0164 81.9853 24.6193 82.0755 24.192C82.5302 22.0384 81.7669 20.2879 79.5754 19.6793C79.0834 19.5426 78.5775 19.5972 78.0767 19.5804C77.3923 19.5575 77.0942 19.159 77.3615 18.5557C78.1176 16.8489 78.1792 15.123 77.7233 13.3178C76.8111 9.70524 72.4953 7.01444 68.7725 8.65216C67.0914 9.39169 65.7601 10.5627 64.6884 12.0407C64.1675 12.7591 63.9867 12.7857 63.303 12.2333C62.6587 11.7127 61.9585 11.7718 61.4398 12.3906C60.7974 13.1569 60.5828 13.1348 60.0484 12.2727C58.6719 10.0517 56.7728 9.49334 54.272 10.1294C53.4597 10.3359 52.7359 10.741 52.263 11.4783C52.0708 11.778 51.8334 11.952 51.4632 11.8807C51.0921 11.8091 51.0386 11.5173 50.9671 11.2115C50.7289 10.1928 50.2984 9.26684 49.5064 8.55755C48.2747 7.45448 46.367 6.76417 44.7981 7.76086C44.2407 8.11496 43.8378 8.60622 43.4413 9.11766C43.0935 9.56638 42.5108 9.53146 42.3322 9.0219C41.8813 7.73514 40.844 7.07913 39.7021 6.60982C36.9614 5.48339 34.5046 6.20917 32.2613 7.94421C30.819 9.05974 29.8917 10.4562 30.0136 12.3732C30.0354 12.7154 30.1184 13.0892 29.7617 13.3008C29.4027 13.5136 29.1094 13.2498 28.8235 13.0728C27.4733 12.2374 26.0186 12.0361 24.4743 12.3269C22.3138 12.7338 20.5215 13.7934 19.0964 15.443C17.9215 16.803 17.1949 18.3576 17.2289 20.2172C17.2482 21.2725 17.5993 22.2218 17.9746 23.1763C18.0859 23.4595 18.1945 23.7617 17.9569 24.0281C17.7195 24.2941 17.437 24.1377 17.17 24.0625C16.0029 23.7337 14.7052 24.1732 14.0066 25.1517C12.5952 27.1285 12.9866 30.7831 15.7795 31.9101C16.0569 32.0221 16.273 32.159 16.2766 32.5096C16.28 32.844 16.0511 32.9637 15.8126 33.0709C15.1604 33.3639 14.6088 33.7987 14.0854 34.2729C12.2909 35.8988 12.0326 37.9777 13.4261 39.6085C13.8641 40.1212 14.4258 40.4748 15.0146 40.7925C15.6753 41.149 15.713 41.44 15.213 42.014C15.0022 42.2559 14.7839 42.4988 14.6182 42.7711C13.9849 43.8119 14.0669 44.725 14.8532 45.6542C14.9701 45.7923 15.101 45.9187 15.2197 46.0554C15.665 46.5682 15.6687 46.8291 15.1665 47.2793C14.6348 47.7559 14.2108 48.3084 13.8465 48.9169C13.2859 49.8533 13.2311 51.3823 14.4742 52.174C14.9404 52.4709 14.9587 52.8838 14.5952 53.2912C14.4885 53.4108 14.3575 53.5084 14.2424 53.6208C12.2881 55.5302 11.2957 57.7965 11.6881 60.5658C11.9762 62.5989 13.6533 64.4871 15.5028 64.8841C16.867 65.1769 16.8682 65.1988 16.2343 66.4556C15.2409 68.4253 15.0839 70.4041 16.2103 72.3894C17.8189 75.2245 21.2564 76.5545 24.3731 74.562C24.5417 74.4542 24.7161 74.338 24.9045 74.282C25.4178 74.1293 25.8463 74.499 25.7549 75.013C25.5207 76.3304 26.1708 77.2321 27.1833 77.9016C28.2412 78.601 29.3488 78.5359 30.4249 77.8829C30.8477 77.6262 31.1207 77.2253 31.428 76.8518C31.8527 76.3356 32.4055 76.4412 32.6018 77.073C32.7764 77.6353 33.0216 78.1578 33.3368 78.6514C35.0769 81.3761 39.1598 82.9849 42.73 81.7517C44.5064 81.1381 46.0521 80.2175 47.0213 78.5329C47.1717 78.2714 47.2576 77.9847 47.6435 77.9636C48.0472 77.9416 48.186 78.1938 48.3595 78.4865C49.3769 80.2023 51.0976 80.5674 52.7986 79.3767Z" fill="#3B1502"/>
<path d="M90.9366 11.4078C90.1457 11.4464 89.4227 11.5968 88.7023 11.7887C88.3588 11.8803 87.915 12.1093 87.6651 11.6647C87.4338 11.2534 87.6953 10.907 87.9756 10.5884C89.0257 9.39517 90.051 8.18116 90.9163 6.84284C91.0967 6.56375 91.3264 6.28946 91.1858 5.91079C90.8708 5.86066 90.665 6.03787 90.4496 6.1743C88.9624 7.11632 87.6287 8.24077 86.4495 9.54851C86.3422 9.66755 86.2291 9.78675 86.0998 9.87966C85.7034 10.1645 85.4247 10.0739 85.2941 9.60381C85.1975 9.25634 85.1379 8.89833 85.069 8.54362C85.0338 8.36294 85.0207 8.15613 84.7785 8.15606C84.5489 8.156 84.4976 8.36687 84.4495 8.53501C84.2722 9.15563 84.2421 9.79919 84.1728 10.4367C84.1404 10.7351 84.0939 11.0324 84.0411 11.328C83.9957 11.5826 83.8149 11.7166 83.572 11.7147C83.3163 11.7127 83.1482 11.5355 83.1401 11.2934C83.0906 9.82538 83.0465 8.35432 83.7294 6.98632C83.9522 6.53987 84.3074 6.23423 84.8177 6.25674C85.3102 6.27847 85.6639 6.54476 85.8766 7.02472C86.2207 7.80143 86.337 7.80165 86.975 7.24992C88.2682 6.13156 89.5544 4.99928 91.1737 4.3514C91.642 4.16403 92.1297 4.04651 92.5321 4.43994C92.9199 4.81903 92.8803 5.31271 92.7325 5.79698C92.3422 7.07528 91.5337 8.10837 90.7583 9.1609C90.5706 9.41562 90.3131 9.62568 90.2233 9.93863C90.438 10.2793 90.7604 10.2126 91.0522 10.2137C91.6691 10.2162 92.3235 10.2208 92.6268 10.8588C92.966 11.5721 92.7109 12.2351 92.2055 12.7992C91.5594 13.5204 90.7172 13.9556 89.8602 14.3614C88.9675 14.7842 88.0266 15.0822 87.0929 15.3968C86.9243 15.4536 86.7362 15.4914 86.5608 15.4803C86.2514 15.4606 85.9563 15.3865 85.9066 14.9935C85.8597 14.6225 86.0468 14.4158 86.3809 14.3384C87.285 14.1289 88.152 13.8098 89.0085 13.4617C89.7373 13.1655 90.4417 12.8188 91.0427 12.2982C91.406 11.9836 91.4897 11.6759 90.9366 11.4078Z" fill="#3B1502"/>
<path d="M2.12226 71.0485C2.43012 70.6725 2.71621 70.3344 2.98845 69.9856C3.13926 69.7923 3.45469 69.6414 3.29265 69.3332C3.14414 69.0507 2.83012 69.1374 2.57884 69.1392C2.26857 69.1414 1.98015 69.0711 1.70004 68.9551C1.08758 68.7016 0.860221 68.168 1.07543 67.5296C1.16737 67.2569 1.30527 67.017 1.50846 66.814C2.52644 65.7969 3.70112 64.9881 4.92349 64.2421C5.25216 64.0416 5.58192 64.0837 5.7799 64.3803C6.01395 64.731 5.88615 65.0974 5.54921 65.3282C4.78603 65.851 3.99925 66.3392 3.23141 66.8553C2.92416 67.0619 2.43107 67.2373 2.5371 67.6665C2.65713 68.1523 3.1801 67.9303 3.5322 67.9528C4.119 67.9903 4.68347 67.8085 5.25133 67.6898C5.62576 67.6116 5.93832 67.6513 6.1278 68.0135C6.31653 68.3742 6.09995 68.6311 5.85632 68.8552C4.98081 69.6603 4.17378 70.5303 3.39594 71.4283C3.22473 71.626 3.04407 71.8199 2.90366 72.0386C2.75192 72.2749 2.38925 72.5121 2.63075 72.812C2.8383 73.0697 3.16285 72.8405 3.41021 72.7364C4.24585 72.3849 5.04232 71.9537 5.82255 71.4925C6.56747 71.0522 7.31128 70.6099 8.06112 70.1781C8.26929 70.0582 8.49584 69.9695 8.71639 69.872C9.01345 69.7407 9.32919 69.687 9.52937 69.9966C9.75411 70.3441 9.47015 70.5686 9.22771 70.7397C8.6198 71.1687 8.0013 71.5841 7.37183 71.9808C6.09511 72.7855 4.80935 73.5755 3.35848 74.0441C2.93091 74.1822 2.49513 74.2287 2.04914 74.2045C1.24363 74.1606 0.852739 73.6221 1.07941 72.8499C1.27572 72.1812 1.67485 71.6246 2.12226 71.0485Z" fill="#3B1502"/>
<path d="M78.0244 83.374C78.3809 82.8989 78.8184 82.9352 79.1468 83.2485C80.2637 84.3142 80.9966 85.6349 81.3644 87.1222C81.5588 87.9086 80.9629 88.4781 80.1383 88.4547C79.7245 88.4429 79.3491 88.2947 78.9978 88.0984C78.5547 87.8509 78.3128 88.0417 78.1643 88.4451C78.0744 88.6893 78.0357 88.9522 77.9473 89.1971C77.5561 90.2816 76.5254 90.4855 75.7295 89.6416C75.492 89.3898 75.3148 89.098 75.1718 88.7853C74.5859 87.5036 74.3592 86.1434 74.3033 84.7482C74.2902 84.4213 74.2822 84.0644 74.7445 84.035C75.1943 84.0064 75.3959 84.2864 75.4629 84.6879C75.598 85.4987 75.6939 86.3175 75.8674 87.1198C75.984 87.6593 76.1783 88.1911 76.5884 88.5812C76.9185 88.5013 76.9405 88.268 76.9757 88.0541C77.0538 87.5793 77.1311 87.104 77.1908 86.6266C77.2735 85.9663 77.6656 85.7659 78.2386 86.1163C78.5301 86.2946 78.8 86.5084 79.0924 86.6852C79.2924 86.806 79.4908 86.9728 79.7612 86.8837C79.9543 86.6555 79.783 86.4629 79.6915 86.2766C79.3179 85.5156 78.8744 84.7979 78.3116 84.1597C78.1234 83.9463 77.9247 83.741 78.0244 83.374Z" fill="#3B1502"/>
<path d="M64.7269 2.05097C65.0388 2.28418 65.0726 2.46488 64.8839 2.85887C64.7063 3.22967 64.4467 3.53476 64.2221 3.86766C64.0024 4.19319 63.7676 4.50581 63.5461 4.82987C63.4599 4.95596 63.3591 5.02312 63.2194 4.99276C63.0841 4.96333 63.0035 4.83977 63.0014 4.71002C62.9932 4.18939 63.0157 3.66323 63.1819 3.17417C63.3366 2.71885 63.6311 2.37111 64.0233 2.14607C64.2373 2.0233 64.4633 1.94222 64.7269 2.05097ZM63.67 3.65593C63.9254 3.38465 64.1791 3.11196 64.2994 2.72546C63.9564 2.90582 63.7277 3.20173 63.5856 3.58459C63.5724 3.62017 63.6024 3.65413 63.67 3.65593Z" fill="#3B1502"/>
<path d="M48.7145 87.4235C48.8624 86.8386 48.977 86.2873 49.1522 85.7561C49.2993 85.3101 49.609 84.9811 50.1223 84.9999C50.6022 85.0174 50.8143 85.3941 50.9285 85.7843C51.22 86.7811 51.5503 87.7695 51.7257 88.7965C51.8483 89.5146 51.6089 89.8597 50.8886 89.9751C50.4153 90.0509 49.9331 90.0999 49.4543 90.1061C48.8146 90.1144 48.5044 89.7786 48.5001 89.1325C48.4964 88.5687 48.6006 88.0168 48.7145 87.4235ZM49.6105 88.7965C49.7442 88.9587 50.8198 89.1718 50.8886 89C51.0493 88.599 50.3837 86.7507 50.1223 86.3686C49.8796 86.7179 49.5567 88.38 49.6105 88.7965Z" fill="#3B1502"/>
<path d="M5.24024 54.061C5.51844 54.0893 5.80868 53.9861 5.86709 54.3439C5.91723 54.651 5.76389 54.8601 5.50234 54.9681C4.01607 55.5817 2.53178 56.2075 0.952796 56.5493C0.572392 56.6317 0.146331 56.6163 0.0261361 56.1207C-0.094539 55.6231 0.218053 55.3798 0.647285 55.2492C2.14411 54.7935 3.62387 54.2722 5.24024 54.061Z" fill="#3B1502"/>
<path d="M91.1802 21.2877C91.8891 20.946 92.5493 20.6035 93.2327 20.316C93.5438 20.1852 93.9592 19.9692 94.1894 20.42C94.4018 20.836 94.1374 21.1518 93.7984 21.3799C92.7594 22.0791 91.6028 22.5437 90.4571 23.0282C90.1752 23.1474 89.9429 23.0285 89.7687 22.8075C89.5626 22.5462 89.6887 22.3062 89.8758 22.1072C90.2266 21.7343 90.6916 21.5319 91.1802 21.2877Z" fill="#3B1502"/>
<path d="M99.3856 49.8085C99.7903 49.9772 100.084 50.1894 99.9781 50.6339C99.8684 51.0944 99.4698 51.0235 99.1415 51.0048C98.1631 50.9491 97.2007 50.7859 96.2534 50.5301C95.9495 50.448 95.7275 50.3011 95.7462 49.9632C95.7659 49.6075 96.0492 49.5407 96.3372 49.4809C97.3721 49.2659 98.3517 49.5663 99.3856 49.8085Z" fill="#3B1502"/>
<path d="M12.0099 11.5041C11.678 11.3938 11.3909 11.2975 11.1529 11.1047C10.9524 10.9423 10.836 10.7319 10.9036 10.4707C10.9685 10.2199 11.1924 10.1347 11.4129 10.1139C12.3245 10.0282 13.1568 10.2996 13.9371 10.7409C14.216 10.8986 14.2706 11.1901 14.1907 11.4824C14.1059 11.7926 13.827 11.7361 13.5918 11.7527C13.0619 11.7902 12.5569 11.6728 12.0099 11.5041Z" fill="#3B1502"/>
<path d="M37.2098 63.7037C37.4376 64.1689 37.2906 64.5781 37.1313 64.9643C36.7564 65.8732 36.3512 66.7698 35.9537 67.6693C35.9056 67.778 35.8402 67.8834 35.7637 67.9742C35.5357 68.245 35.2322 68.3733 34.9033 68.2379C34.5647 68.0984 34.638 67.7493 34.6966 67.4949C34.8823 66.6881 35.3033 65.9687 35.6211 65.2111C35.8303 64.7124 36.0909 64.234 36.3495 63.7579C36.5724 63.3474 36.8574 63.2538 37.2098 63.7037Z" fill="#3B1502"/>
<path d="M30.1587 21.6401C30.2767 21.9485 30.4238 22.2587 30.1127 22.4374C29.8449 22.5912 29.5251 22.5336 29.2673 22.3207C28.3473 21.5609 27.5814 20.6587 26.8692 19.7089C26.7181 19.5073 26.6556 19.2821 26.83 19.0418C27.0128 18.79 27.263 18.7519 27.5267 18.8251C27.6949 18.8719 27.8719 18.96 27.9961 19.0802C28.7906 19.8493 29.5394 20.6596 30.1587 21.6401Z" fill="#3B1502"/>
<path d="M60.8062 21.5027C61.2491 20.7347 61.6775 20.0104 62.09 19.2772C62.2841 18.9322 62.5216 18.6447 62.942 18.8457C63.3204 19.0266 63.2284 19.4065 63.1048 19.6955C62.607 20.8592 61.9066 21.914 61.2624 22.9982C61.1059 23.2616 60.8209 23.2882 60.5666 23.1838C60.3138 23.0799 60.3586 22.831 60.3894 22.6069C60.4422 22.2219 60.6146 21.8831 60.8062 21.5027Z" fill="#3B1502"/>
<path d="M24.0248 53.7908C23.5927 53.3999 23.5766 53.0589 24.0148 52.759C24.9244 52.1367 25.9794 51.8826 27.0472 51.6981C27.2786 51.6582 27.546 51.7112 27.614 52.0195C27.6891 52.3604 27.5472 52.6076 27.2464 52.7636C26.4777 53.1621 25.6487 53.4018 24.8301 53.6675C24.5851 53.7471 24.3438 53.8677 24.0248 53.7908Z" fill="#3B1502"/>
<path d="M73.3864 51.8206C73.591 51.2825 74.017 51.368 74.3728 51.4365C75.1713 51.5902 75.8504 52.0372 76.5464 52.4313C76.7878 52.568 76.8415 52.8039 76.7758 53.0587C76.714 53.2981 76.5165 53.3654 76.3048 53.3282C75.3075 53.1528 74.3878 52.7722 73.5345 52.2316C73.4138 52.1551 73.3468 52.0243 73.3864 51.8206Z" fill="#3B1502"/>
<path d="M18.5264 3.97652L19.0119 4.09603L19.0119 4.09603L18.5264 3.97652ZM22.9773 1.88525L22.7272 2.31821C22.8845 2.40908 23.0787 2.40748 23.2345 2.31402L22.9773 1.88525ZM26.4206 4.72397L26.1567 4.29931C26.0133 4.38842 25.9246 4.54387 25.9208 4.71265C25.9169 4.88143 25.9985 5.04074 26.1377 5.13625L26.4206 4.72397ZM20.822 6.69442L21.2852 6.88285C21.3564 6.70781 21.3228 6.50757 21.1984 6.3653C21.074 6.22304 20.8801 6.16306 20.6971 6.21028L20.822 6.69442ZM18.5264 3.97652L19.0119 4.09603C19.2978 2.93454 19.6925 2.19942 20.2091 1.88623C20.6754 1.60354 21.4268 1.56702 22.7272 2.31821L22.9773 1.88525L23.2274 1.4523C21.8093 0.633136 20.6253 0.464476 19.6907 1.03112C18.8063 1.56726 18.3348 2.66295 18.0409 3.857L18.5264 3.97652ZM22.9773 1.88525L23.2345 2.31402C23.5871 2.10251 24.2049 1.8412 24.8699 1.76603C25.5298 1.69144 26.1804 1.80381 26.6926 2.25899L27.0247 1.88525L27.3569 1.51152C26.5642 0.807054 25.5938 0.677832 24.7576 0.772356C23.9264 0.866303 23.1729 1.18481 22.7201 1.45649L22.9773 1.88525ZM27.0247 1.88525L26.6926 2.25899C26.9578 2.49467 27.0619 2.70022 27.0973 2.86065C27.1328 3.02131 27.1106 3.18812 27.0331 3.36599C26.8683 3.74376 26.4842 4.09578 26.1567 4.29931L26.4206 4.72397L26.6846 5.14864C27.1021 4.88911 27.6724 4.40159 27.9497 3.76568C28.0931 3.43671 28.1639 3.05314 28.0738 2.64517C27.9838 2.23698 27.7441 1.85566 27.3569 1.51152L27.0247 1.88525ZM26.4206 4.72397L26.1377 5.13625C26.3575 5.28704 26.5799 5.48867 26.7426 5.71348C26.9063 5.9396 26.9888 6.15899 26.9884 6.35813C26.9876 6.69704 26.7153 7.32555 25.0405 7.93874L25.2124 8.40826L25.3843 8.87778C27.1408 8.23469 27.9861 7.37338 27.9884 6.36037C27.9894 5.88356 27.7948 5.46147 27.5526 5.12702C27.3095 4.79126 26.9972 4.51322 26.7035 4.31169L26.4206 4.72397ZM25.2124 8.40826L25.0405 7.93874C23.4068 8.5369 22.3597 8.37067 21.8063 8.03902C21.2542 7.70807 21.1509 7.21291 21.2852 6.88285L20.822 6.69442L20.3589 6.50599C20.0099 7.36376 20.3862 8.35366 21.2922 8.89675C22.1971 9.43913 23.5868 9.5359 25.3843 8.87778L25.2124 8.40826ZM20.822 6.69442L20.6971 6.21028C20.1509 6.35122 19.6658 6.16698 19.3424 5.78835C19.0143 5.40428 18.8392 4.79754 19.0119 4.09603L18.5264 3.97652L18.0409 3.857C17.7973 4.84664 18.0288 5.79011 18.582 6.43783C19.1399 7.091 20.0108 7.42014 20.9469 7.17856L20.822 6.69442Z" fill="#3B1502"/>
<path d="M69.3909 39.0634L69.5157 38.5792L69.5157 38.5792L69.3909 39.0634ZM67.3485 34.5905L67.7786 34.8454C67.8712 34.6891 67.8718 34.4948 67.78 34.338L67.3485 34.5905ZM70.2255 31.1793L69.798 31.4386C69.8856 31.583 70.04 31.6734 70.2087 31.679C70.3774 31.6847 70.5376 31.6049 70.6346 31.4668L70.2255 31.1793ZM72.1344 36.7983L72.3279 36.3372C72.1537 36.2641 71.9531 36.2955 71.8095 36.4183C71.6658 36.5411 71.6037 36.7344 71.649 36.9179L72.1344 36.7983ZM69.3909 39.0634L69.5157 38.5792C68.3572 38.2805 67.6263 37.8778 67.3188 37.3579C67.0412 36.8887 67.013 36.1372 67.7786 34.8454L67.3485 34.5905L66.9183 34.3356C66.0834 35.7442 65.9016 36.9263 66.4581 37.867C66.9845 38.757 68.0751 39.2405 69.266 39.5475L69.3909 39.0634ZM67.3485 34.5905L67.78 34.338C67.5724 33.9831 67.3178 33.3626 67.25 32.697C67.1827 32.0365 67.3022 31.3874 67.7631 30.8804L67.3931 30.5441L67.0231 30.2077C66.3098 30.9925 66.1698 31.9612 66.2552 32.7984C66.3399 33.6304 66.6502 34.3873 66.9169 34.843L67.3485 34.5905ZM67.3931 30.5441L67.7631 30.8804C68.0017 30.6179 68.2085 30.516 68.3694 30.4823C68.5305 30.4486 68.6972 30.4727 68.8742 30.5522C69.2503 30.721 69.5981 31.109 69.798 31.4386L70.2255 31.1793L70.653 30.92C70.3981 30.4997 69.9168 29.9241 69.2839 29.6399C68.9565 29.4929 68.5737 29.418 68.1648 29.5035C67.7556 29.589 67.3716 29.8244 67.0231 30.2077L67.3931 30.5441ZM70.2255 31.1793L70.6346 31.4668C70.7878 31.2488 70.9919 31.0287 71.2186 30.8685C71.4465 30.7073 71.6669 30.6272 71.8662 30.6299C72.2053 30.6344 72.8308 30.9136 73.4256 32.5946L73.8969 32.4279L74.3683 32.2611C73.7445 30.4979 72.8924 29.6434 71.8794 29.6299C71.4027 29.6236 70.9784 29.8136 70.6412 30.052C70.3028 30.2913 70.0212 30.6004 69.8164 30.8918L70.2255 31.1793ZM73.8969 32.4279L73.4256 32.5946C74.0058 34.2345 73.8279 35.2795 73.4902 35.829C73.1531 36.3772 72.6567 36.4752 72.3279 36.3372L72.1344 36.7983L71.941 37.2594C72.7948 37.6176 73.7889 37.2525 74.3421 36.3526C74.8946 35.4539 75.0067 34.0655 74.3683 32.2611L73.8969 32.4279ZM72.1344 36.7983L71.649 36.9179C71.7839 37.4654 71.5943 37.9483 71.2121 38.2674C70.8243 38.5912 70.2155 38.7596 69.5157 38.5792L69.3909 39.0634L69.266 39.5475C70.253 39.802 71.1991 39.581 71.853 39.035C72.5124 38.4845 72.8512 37.6174 72.6199 36.6787L72.1344 36.7983Z" fill="#3B1502"/>
<path d="M24.1 44.775L24.3934 44.3701L24.3934 44.3701L24.1 44.775ZM25.0366 40.7596L25.3436 41.1542C25.4871 41.0426 25.5587 40.862 25.5306 40.6824L25.0366 40.7596ZM28.6827 39.9432L28.1899 40.0281C28.2185 40.1944 28.3292 40.3351 28.4841 40.4021C28.639 40.4691 28.8173 40.4534 28.9582 40.3604L28.6827 39.9432ZM28.6827 44.5652L29.0315 44.2069C28.8961 44.0751 28.6979 44.0309 28.5193 44.0926C28.3407 44.1544 28.2121 44.3116 28.1871 44.4989L28.6827 44.5652ZM24.1 44.775L24.3934 44.3701C23.9132 44.0223 23.6303 43.7556 23.4832 43.5381C23.3535 43.3463 23.3459 43.2216 23.3825 43.0959C23.4312 42.9284 23.5801 42.6939 23.9213 42.3545C24.2552 42.0222 24.725 41.6354 25.3436 41.1542L25.0366 40.7596L24.7296 40.3649C24.1092 40.8475 23.5969 41.2666 23.216 41.6456C22.8422 42.0174 22.5435 42.3995 22.4222 42.817C22.2887 43.2763 22.3888 43.7051 22.6548 44.0984C22.9035 44.466 23.3044 44.8162 23.8067 45.18L24.1 44.775ZM25.0366 40.7596L25.5306 40.6824C25.4673 40.2762 25.4575 39.6057 25.638 38.9614C25.817 38.322 26.1659 37.7617 26.7803 37.4584L26.5591 37.0101L26.3378 36.5617C25.3868 37.0311 24.902 37.8815 24.675 38.6918C24.4494 39.4971 24.4611 40.3149 24.5426 40.8367L25.0366 40.7596ZM26.5591 37.0101L26.7803 37.4584C27.0321 37.3342 27.1605 37.3762 27.2559 37.4389C27.3956 37.5305 27.5493 37.7332 27.6942 38.0636C27.9808 38.717 28.1116 39.5734 28.1899 40.0281L28.6827 39.9432L29.1754 39.8583C29.1049 39.4485 28.9567 38.4522 28.61 37.6619C28.4383 37.2705 28.1869 36.8537 27.8048 36.6029C27.3786 36.3231 26.8687 36.2997 26.3378 36.5617L26.5591 37.0101ZM28.6827 39.9432L28.9582 40.3604C29.1313 40.2461 29.432 40.1398 29.8026 40.1105C30.1674 40.0816 30.5623 40.1305 30.9183 40.2851C31.2687 40.4373 31.5882 40.6942 31.8182 41.1006C32.0502 41.5106 32.2076 42.1025 32.1784 42.9458L32.6781 42.9631L33.1779 42.9803C33.2119 41.9981 33.0314 41.2138 32.6885 40.6081C32.3437 39.9987 31.8513 39.6001 31.3169 39.368C30.7881 39.1383 30.2254 39.0739 29.7238 39.1136C29.228 39.1529 28.7537 39.2971 28.4071 39.526L28.6827 39.9432ZM32.6781 42.9631L32.1784 42.9458C32.1489 43.7987 31.956 44.2925 31.7372 44.5699C31.5299 44.8326 31.2614 44.9495 30.9455 44.9698C30.6149 44.9911 30.2372 44.9038 29.876 44.747C29.5153 44.5905 29.2117 44.3823 29.0315 44.2069L28.6827 44.5652L28.3339 44.9234C28.6132 45.1953 29.0229 45.4669 29.4778 45.6643C29.9321 45.8615 30.4721 46.0023 31.0097 45.9677C31.562 45.9321 32.1122 45.7089 32.5223 45.1892C32.9208 44.6841 33.1442 43.9531 33.1779 42.9803L32.6781 42.9631ZM28.6827 44.5652L28.1871 44.4989C28.1617 44.6884 28.0606 44.8282 27.8491 44.9379C27.6191 45.0572 27.2752 45.1265 26.8492 45.1222C25.9933 45.1137 25.0029 44.8116 24.3934 44.3701L24.1 44.775L23.8067 45.1799C24.6078 45.7602 25.8072 46.1118 26.8391 46.1221C27.3571 46.1273 27.8817 46.0474 28.3095 45.8255C28.7559 45.5939 29.1021 45.2005 29.1783 44.6315L28.6827 44.5652Z" fill="#3B1502"/>
<path d="M37.9946 74.1281L38.2879 73.7232L38.2879 73.7232L37.9946 74.1281ZM38.9311 70.1126L39.2381 70.5072C39.3816 70.3956 39.4532 70.215 39.4252 70.0355L38.9311 70.1126ZM42.5772 69.2962L42.0844 69.3811C42.1131 69.5474 42.2237 69.6881 42.3786 69.7551C42.5336 69.8221 42.7119 69.8064 42.8527 69.7134L42.5772 69.2962ZM42.5772 73.9182L42.926 73.5599C42.7906 73.4281 42.5924 73.3839 42.4138 73.4457C42.2352 73.5074 42.1067 73.6646 42.0816 73.8519L42.5772 73.9182ZM37.9946 74.1281L38.2879 73.7232C37.8078 73.3753 37.5249 73.1087 37.3778 72.8912C37.248 72.6993 37.2405 72.5746 37.277 72.4489C37.3257 72.2814 37.4746 72.0469 37.8158 71.7075C38.1498 71.3752 38.6196 70.9884 39.2381 70.5072L38.9311 70.1126L38.6241 69.718C38.0038 70.2006 37.4914 70.6197 37.1105 70.9987C36.7368 71.3705 36.438 71.7525 36.3167 72.17C36.1832 72.6293 36.2834 73.0581 36.5493 73.4514C36.798 73.8191 37.199 74.1692 37.7012 74.533L37.9946 74.1281ZM38.9311 70.1126L39.4252 70.0355C39.3618 69.6293 39.352 68.9587 39.5325 68.3144C39.7116 67.6751 40.0604 67.1147 40.6749 66.8115L40.4536 66.3631L40.2323 65.9148C39.2813 66.3841 38.7965 67.2345 38.5695 68.0448C38.3439 68.8501 38.3557 69.668 38.4371 70.1897L38.9311 70.1126ZM40.4536 66.3631L40.6749 66.8115C40.9267 66.6872 41.055 66.7292 41.1505 66.7919C41.2901 66.8835 41.4438 67.0863 41.5887 67.4167C41.8753 68.07 42.0061 68.9265 42.0844 69.3811L42.5772 69.2962L43.07 69.2113C42.9994 68.8016 42.8512 67.8052 42.5046 67.0149C42.3329 66.6235 42.0814 66.2068 41.6994 65.956C41.2731 65.6762 40.7633 65.6528 40.2323 65.9148L40.4536 66.3631ZM42.5772 69.2962L42.8527 69.7134C43.0258 69.5991 43.3266 69.4928 43.6972 69.4635C44.0619 69.4346 44.4568 69.4835 44.8128 69.6382C45.1632 69.7904 45.4827 70.0472 45.7127 70.4537C45.9448 70.8637 46.1022 71.4555 46.073 72.2989L46.5727 72.3161L47.0724 72.3334C47.1064 71.3511 46.9259 70.5669 46.5831 69.9611C46.2382 69.3518 45.7458 68.9532 45.2114 68.721C44.6826 68.4913 44.1199 68.4269 43.6183 68.4667C43.1226 68.5059 42.6483 68.6501 42.3017 68.879L42.5772 69.2962ZM46.5727 72.3161L46.073 72.2989C46.0434 73.1517 45.8506 73.6456 45.6317 73.9229C45.4244 74.1857 45.1559 74.3025 44.84 74.3229C44.5094 74.3442 44.1318 74.2568 43.7705 74.1001C43.4099 73.9435 43.1062 73.7353 42.926 73.5599L42.5772 73.9182L42.2284 74.2765C42.5077 74.5483 42.9174 74.8199 43.3723 75.0173C43.8266 75.2145 44.3667 75.3554 44.9042 75.3207C45.4566 75.2852 46.0067 75.062 46.4168 74.5423C46.8154 74.0371 47.0387 73.3061 47.0724 72.3334L46.5727 72.3161ZM42.5772 73.9182L42.0816 73.8519C42.0562 74.0414 41.9551 74.1812 41.7436 74.2909C41.5136 74.4102 41.1698 74.4795 40.7438 74.4753C39.8878 74.4667 38.8975 74.1647 38.2879 73.7232L37.9946 74.1281L37.7012 74.533C38.5023 75.1133 39.7018 75.4648 40.7337 75.4752C41.2516 75.4804 41.7762 75.4004 42.2041 75.1785C42.6505 74.947 42.9966 74.5535 43.0728 73.9845L42.5772 73.9182Z" fill="#3B1502"/>
<path d="M87.6509 70.1126L87.9443 69.7077L87.6509 70.1126ZM88.0578 65.16L88.0578 65.66C88.2039 65.66 88.3427 65.5961 88.4377 65.4851C88.5327 65.3741 88.5744 65.2272 88.5519 65.0828L88.0578 65.16ZM87.6509 60.8717L87.8722 61.32L87.8722 61.32L87.6509 60.8717ZM92.0449 63.1064L91.5521 63.1913C91.5807 63.3577 91.6914 63.4983 91.8463 63.5653C92.0012 63.6323 92.1795 63.6167 92.3204 63.5236L92.0449 63.1064ZM92.0448 68.0591L92.3936 67.7008C92.2582 67.569 92.0601 67.5248 91.8815 67.5866C91.7028 67.6483 91.5743 67.8055 91.5492 67.9928L92.0448 68.0591ZM87.6509 70.1126L87.9443 69.7077C87.0948 69.0924 86.5918 68.0075 86.5982 67.1061C86.6013 66.6631 86.7263 66.3077 86.9421 66.0689C87.1497 65.8391 87.4926 65.66 88.0578 65.66L88.0578 65.16L88.0579 64.66C87.2639 64.66 86.6307 64.922 86.2001 65.3985C85.7778 65.8659 85.6026 66.4818 85.5982 67.0991C85.5895 68.3182 86.2422 69.7096 87.3576 70.5175L87.6509 70.1126ZM88.0578 65.16L88.5519 65.0828C88.5035 64.7727 88.3284 64.3689 88.1717 64.008C88.001 63.6147 87.8192 63.205 87.6886 62.803C87.5557 62.3941 87.4974 62.0546 87.5297 61.8002C87.5573 61.5835 87.6463 61.4315 87.8722 61.32L87.6509 60.8717L87.4297 60.4233C86.8729 60.6981 86.6032 61.1593 86.5377 61.6741C86.477 62.1512 86.5911 62.6615 86.7375 63.1121C86.8862 63.5697 87.0906 64.0291 87.2544 64.4063C87.4321 64.8156 87.5398 65.0833 87.5638 65.2371L88.0578 65.16ZM87.6509 60.8717L87.8722 61.32C88.5186 61.001 89.0434 60.935 89.4635 60.994C89.8852 61.0533 90.2432 61.2445 90.5445 61.5078C91.1673 62.0519 91.4947 62.8582 91.5521 63.1913L92.0449 63.1064L92.5376 63.0216C92.4461 62.4903 92.0185 61.4677 91.2025 60.7547C90.7844 60.3894 90.2521 60.0951 89.6028 60.0038C88.952 59.9123 88.2251 60.0308 87.4297 60.4233L87.6509 60.8717ZM92.0449 63.1064L92.3204 63.5236C92.4483 63.4392 92.7165 63.3684 93.1022 63.4092C93.4744 63.4487 93.9019 63.5879 94.3024 63.8471C95.0846 64.3533 95.7866 65.3314 95.7294 66.9841L96.2291 67.0014L96.7288 67.0187C96.7981 65.0201 95.9276 63.7077 94.8459 63.0076C94.3144 62.6637 93.7371 62.4709 93.2076 62.4148C92.6915 62.3602 92.161 62.4306 91.7693 62.6892L92.0449 63.1064ZM96.2291 67.0014L95.7294 66.9841C95.6999 67.8369 95.4963 68.2721 95.2904 68.4867C95.0989 68.6863 94.834 68.768 94.4779 68.7368C94.1121 68.7048 93.697 68.5542 93.3048 68.344C92.9148 68.135 92.5856 67.8876 92.3936 67.7008L92.0448 68.0591L91.696 68.4174C91.9636 68.6778 92.3714 68.9783 92.8323 69.2253C93.2911 69.4712 93.8409 69.6848 94.3905 69.733C94.9498 69.7819 95.5507 69.6597 96.012 69.1789C96.459 68.7131 96.6951 67.9915 96.7288 67.0187L96.2291 67.0014ZM92.0448 68.0591L91.5492 67.9928C91.5025 68.3421 91.4097 68.7643 91.2546 69.1634C91.0979 69.5664 90.8898 69.9146 90.6305 70.1499C90.3837 70.3737 90.0827 70.5046 89.6843 70.4796C89.2672 70.4535 88.6971 70.253 87.9443 69.7077L87.6509 70.1126L87.3576 70.5175C88.1977 71.1261 88.9479 71.4354 89.6216 71.4776C90.314 71.521 90.8743 71.2787 91.3024 70.8904C91.7178 70.5135 91.9982 70.0105 92.1867 69.5256C92.3766 69.0369 92.4857 68.5346 92.5404 68.1254L92.0448 68.0591Z" fill="#3B1502"/>
<path d="M45.1875 54.0854C44.927 53.4106 44.3299 52.9905 43.8772 52.4826C42.3657 50.7871 41.617 48.8012 41.2647 46.6024C41.0286 45.1291 41.0273 43.6805 41.2822 42.2077C41.4856 41.0327 42.1191 40.0511 42.5536 38.9817C42.6821 38.6656 42.8074 38.3815 42.7362 38.0412" stroke="#3B1502" stroke-linecap="round" stroke-linejoin="round"/>
<path d="M55.3072 29.1927C55.0029 29.1159 54.804 28.9219 54.5955 28.6849C54.0764 28.0952 53.5954 27.4699 52.8359 27.1177C52.3325 26.8841 51.9478 26.3829 51.4391 26.1751C49.1572 25.2427 46.8138 24.615 44.3092 25.0748C44.1236 25.1089 43.9007 25.1509 43.7421 25.0816C43.2641 24.8726 42.9128 25.0921 42.5374 25.3311C41.3828 26.0662 40.0847 26.5468 38.9595 27.3358" stroke="#3B1502" stroke-linecap="round" stroke-linejoin="round"/>
<path d="M63.9838 59.5154C63.4151 59.7738 63.2183 60.3519 62.9266 60.8221C62.0167 62.289 60.8 63.4358 59.475 64.5229C58.5154 65.3103 57.4106 65.6396 56.2853 65.9885C55.9944 66.0787 55.7198 66.202 55.3935 65.973C55.2387 65.8644 54.9321 65.9403 54.7012 65.9766C52.9505 66.2518 51.2449 65.937 49.5686 65.5071C49.0401 65.3716 48.534 65.0628 47.9964 64.8813C47.6837 64.7757 47.3751 64.6738 47.04 64.6939" stroke="#3B1502" stroke-linecap="round" stroke-linejoin="round"/>
</svg>
