<svg width="100" height="91" viewBox="0 0 100 91" fill="none" xmlns="http://www.w3.org/2000/svg">
<path d="M44.4001 73.4307C44.3821 73.8067 44.5053 74.1261 44.743 74.4187C45.6593 75.5467 45.9972 76.8784 46.1417 78.3012C46.2173 79.0448 46.1272 79.7786 46.0895 80.5049C46.0569 81.133 45.7234 81.7516 45.49 82.3616C44.7366 84.3313 43.4084 85.8689 41.8015 87.1659C41.1507 87.6912 40.3536 87.9913 39.5668 88.2815C38.6278 88.6278 37.6951 88.9913 36.6885 89.0911" stroke="#3B1502" stroke-linecap="round" stroke-linejoin="round"/>
<path d="M71.383 75.4429C71.0208 76.1664 71.3143 76.8725 71.4412 77.5824C71.6806 78.9208 71.66 80.2461 71.3307 81.5739C70.8265 83.6064 69.7838 85.3041 68.203 86.6551C66.9987 87.6843 65.6286 88.4377 64.1121 88.9225C63.504 89.1169 62.8984 89.3035 62.2632 89.3793" stroke="#3B1502" stroke-linecap="round" stroke-linejoin="round"/>
<path d="M36.9751 38.0869C37.5081 38.4223 38.1439 38.4055 38.7245 38.5248C40.6626 38.9231 42.2187 39.9192 43.6084 41.2693C44.5396 42.1739 45.2939 43.1831 45.8817 44.342C46.3506 45.2665 46.4184 46.2793 46.6708 47.2501C46.7454 47.5371 46.8056 47.8001 47.0323 48.0004" stroke="#3B1502" stroke-linecap="round" stroke-linejoin="round"/>
<path d="M79.647 39.6748C79.2252 39.9971 78.755 40.0258 78.2591 39.9064C76.2922 39.4325 74.3489 39.6858 72.5479 40.4582C70.2677 41.4361 68.2413 42.8399 67.1149 45.1775C66.7493 45.9363 66.4078 46.7176 66.157 47.5362C65.9734 48.1352 66.1053 48.7385 65.9698 49.3406C65.8384 49.9245 65.7637 50.532 65.6543 51.1276C65.6457 51.1743 65.6707 51.2566 65.6506 51.2673C64.7263 51.7639 64.5958 52.834 63.9958 53.5727C63.3114 54.4151 62.455 55.0149 61.5998 55.6315C61.3298 55.8262 61.0914 56.0194 60.9692 56.3332" stroke="#3B1502" stroke-linecap="round" stroke-linejoin="round"/>
<path d="M82.6073 25.5869C83 25.4156 83.3878 25.356 83.7569 25.6452C83.9486 25.7954 84.1727 25.7598 84.3896 25.7603C87.1109 25.7665 89.0474 27.1277 90.3546 29.4241C91.3836 31.2317 91.6057 33.2016 91.3052 35.2775C90.8895 38.1494 89.2365 39.9817 86.7473 41.1932C86.1463 41.4857 85.4903 41.5147 84.8484 41.5884C84.4794 41.6308 84.1129 41.6607 83.7393 41.7968C83.5997 42.185 83.8165 42.4522 84.1014 42.7016C85.6545 44.0613 86.5538 45.8042 86.9694 47.8074C87.2028 48.9327 87.2977 50.1074 87.1176 51.2234C86.8206 53.0636 86.1417 54.7923 84.9634 56.2748C84.2551 57.1661 83.4762 57.9893 82.546 58.6489C82.2898 58.8306 82.1362 59.0464 82.0898 59.3504" stroke="#3B1502" stroke-linecap="round" stroke-linejoin="round"/>
<path d="M22.5926 66.4797C21.8885 66.4934 21.4719 65.9537 20.9754 65.6005C19.3957 64.4771 17.7132 63.5884 15.8042 63.1857C15.5404 63.13 15.2892 63.0408 15.1215 62.8747C14.8424 62.5985 14.4293 62.62 14.2581 62.738C13.5761 63.2081 12.7658 63.28 12.03 63.5657C10.94 63.9888 9.95392 64.5369 9.13492 65.3773C8.24335 66.2921 7.38787 67.2497 6.83226 68.4003C6.26603 69.5729 5.74975 70.7821 5.59792 72.1019C5.26278 75.0151 5.88447 77.6391 7.72321 80.0009C8.89585 81.5071 10.3989 82.4545 12.1613 82.905C13.8269 83.3308 15.5652 83.2904 17.2562 82.8244C19.7756 82.1301 21.8784 80.8595 23.2357 78.5387C23.5183 78.0554 23.7683 77.5584 23.9137 77.0252C24.0024 76.7001 24.1304 76.4179 24.3326 76.1593" stroke="#3B1502" stroke-linecap="round" stroke-linejoin="round"/>
<path d="M62.1197 4.69855C62.1143 4.31299 62.411 4.51947 62.5217 4.53837C63.2031 4.65472 63.8534 4.89688 64.4836 5.17044C65.0984 5.43731 65.6893 5.76356 66.2762 6.08985C67.9498 7.02022 69.1734 8.35347 69.929 10.1312C70.1395 10.6264 70.2448 11.1454 70.4302 11.643C70.4822 11.7825 70.4908 11.9316 70.6074 12.0476C70.9395 12.3782 70.9019 12.7736 70.8492 13.204C70.6892 14.5122 70.57 15.8255 70.4366 17.1369C70.4208 17.2918 70.4931 17.4701 70.2635 17.5446C69.839 17.6822 69.6675 18.0541 69.4452 18.4039C68.8253 19.3793 68.243 20.3902 67.3181 21.1297C67.1359 21.2753 67.103 21.5034 67.0285 21.7072" stroke="#3B1502" stroke-linecap="round" stroke-linejoin="round"/>
<path d="M71.0269 12.3584C71.3433 12.1452 71.539 11.8302 71.6576 11.4877C72.0216 10.4362 72.6168 9.56298 73.4512 8.81721C74.2842 8.07267 75.0652 7.28702 76.0593 6.73034C77.5106 5.91769 78.9728 5.33066 80.7018 5.50345C81.9305 5.62624 83.1667 5.64285 84.3478 6.04945C85.6147 6.48562 86.8134 7.03286 87.8317 7.94923C88.7785 8.80128 89.6931 9.67703 90.3038 10.8008C90.7777 11.6728 90.941 12.6544 91.0654 13.6325C91.183 14.5578 91.1518 15.4896 91.0551 16.4102C90.9564 17.3505 90.784 18.2799 90.5012 19.1947C90.0489 20.6577 89.0858 21.7425 87.9862 22.7098C87.103 23.4868 85.987 23.9098 84.9255 24.3967C84.3316 24.6691 83.6785 24.8351 83.306 25.4438" stroke="#3B1502" stroke-linecap="round" stroke-linejoin="round"/>
<path d="M32.8097 38.8057C32.6406 39.054 32.3999 39.1695 32.1171 39.2798C31.4134 39.5543 30.69 39.7831 30.1225 40.3507C29.7463 40.727 29.1668 40.9096 28.812 41.299C27.2209 43.0454 25.8855 44.9462 25.4815 47.3454C25.4515 47.5232 25.4165 47.7371 25.3019 47.857C24.9562 48.2184 25.0398 48.6053 25.1332 49.0202C25.4204 50.2963 25.4303 51.6186 25.7758 52.8857" stroke="#3B1502" stroke-linecap="round" stroke-linejoin="round"/>
<path d="M61.2572 4.48029C60.3904 4.48838 59.5202 4.39754 58.6605 4.59472C56.8263 5.01543 55.2862 5.88817 54.2192 7.48629C53.6691 8.31014 53.0634 9.08363 52.3784 9.80363C51.512 10.7144 51.0781 11.7997 51.0876 13.0914C51.0971 14.3816 50.9844 15.6726 50.9337 16.9636C50.9292 17.0762 50.8643 17.2145 50.9873 17.3096C51.3662 17.6024 51.4489 18.0499 51.5574 18.4677C51.8161 19.4645 52.6539 19.9389 53.3495 20.55C53.8385 20.9795 54.3493 21.3725 54.9091 21.7045C55.2445 21.9035 55.4659 22.205 55.6028 22.5692" stroke="#3B1502" stroke-linecap="round" stroke-linejoin="round"/>
<path d="M14.1319 42.2534C13.5389 42.7353 12.7917 42.8345 12.0991 43.0609C11.5906 43.2271 11.1035 43.404 10.6464 43.7012C8.83529 44.8783 7.46891 46.4208 6.77915 48.4871C6.49756 49.3306 6.37628 50.2282 6.18559 51.102C6.13937 51.3138 6.1202 51.532 6.06629 51.7415C5.75761 52.9412 6.08885 54.0951 6.37231 55.2314C6.81632 57.0113 7.7727 58.469 9.18587 59.6769C10.3949 60.7102 11.6797 61.5342 13.2007 61.9975C13.5014 62.089 13.8222 62.2165 14.0158 62.5115" stroke="#3B1502" stroke-linecap="round" stroke-linejoin="round"/>
<path d="M14.4858 23.8628C12.8813 24.2335 11.5636 25.0499 10.4683 26.292C9.69359 27.1706 8.94356 28.0449 8.37929 29.0844C7.65526 30.4182 7.32727 31.8608 7.12727 33.332C6.96698 34.5111 7.39365 35.6257 7.82239 36.6934C8.62746 38.6984 10.1326 40.1146 11.94 41.2147C12.3846 41.4852 12.937 41.5792 13.4414 41.7499C13.5161 41.7751 13.5917 41.7503 13.6765 41.8043C14.61 42.3985 15.6472 42.0434 16.6347 42.0769C17.2726 42.0986 17.8822 41.999 18.4415 42.4387C18.7869 42.7104 19.2562 42.7651 19.6607 42.9546C21.8518 43.9811 23.5364 45.5047 24.5168 47.7397C24.6462 48.0348 24.863 48.21 25.0521 48.4311" stroke="#3B1502" stroke-linecap="round" stroke-linejoin="round"/>
<path d="M25.214 76.4478C25.156 77.2771 25.0449 78.1068 25.0516 78.9356C25.0643 80.5116 25.2535 82.0711 25.9728 83.5039C26.8536 85.2585 28.1395 86.6811 29.8016 87.7157C30.8388 88.3614 32.0108 88.7309 33.2095 89.0124C34.3693 89.2847 35.5228 89.2903 36.6889 89.119" stroke="#3B1502" stroke-linecap="round" stroke-linejoin="round"/>
<path d="M76.1455 60.7949C77.8768 60.2564 79.6781 59.9891 81.4033 59.4185C81.7139 59.3158 82.0886 59.3162 82.4427 59.5068C82.956 59.7832 83.5379 59.8827 84.1107 59.9814C85.3042 60.1868 86.4175 60.6129 87.3948 61.3252C88.5319 62.1538 89.5466 63.0882 90.132 64.4436C90.5165 65.3337 90.8202 66.2215 90.9986 67.1762C91.1182 67.8164 91.0531 68.4601 91.1947 69.0988C91.4006 70.0272 91.2171 70.963 91.0328 71.8808C90.7459 73.3094 90.2124 74.646 89.3557 75.8234C88.4844 77.0209 87.3385 77.9197 86.0748 78.676C85.2367 79.1775 84.3584 79.5594 83.426 79.8591C82.9623 80.0081 82.483 80.08 82.0281 80.1534C79.8895 80.4985 77.7679 80.3739 75.8063 79.3556C74.5782 78.7181 73.5681 77.7684 72.6849 76.6973C72.2921 76.2211 71.9245 75.7438 71.4367 75.3352C71.0081 74.9762 70.6843 74.4 70.8374 73.7395C70.997 73.0506 70.6958 72.4183 70.5904 71.7678C70.2969 69.9573 70.4733 68.1703 71.1105 66.5004C71.4914 65.5023 72.1675 64.5824 72.9044 63.7473C73.7166 62.8268 74.7077 62.1448 75.68 61.4283C75.9 61.2662 76.1253 61.0701 76.0878 60.7369" stroke="#3B1502" stroke-linecap="round" stroke-linejoin="round"/>
<path d="M31.3723 14.5249C31.271 15.3382 31.3958 16.1589 31.2482 16.9781C31.1784 17.3657 31.1021 17.6523 30.8479 17.9887C30.4915 18.4603 30.3804 19.1083 30.1094 19.6536C29.3834 21.1146 28.2184 22.1494 26.7182 22.7301C25.1753 23.3273 23.5912 23.8313 21.9317 24.0332C21.6333 24.0695 21.363 24.1879 21.1714 24.4384" stroke="#3B1502" stroke-linecap="round" stroke-linejoin="round"/>
<path d="M51.2008 11.3086C50.7588 11.0832 50.5981 10.6431 50.4232 10.2357C49.8728 8.95413 49.0205 7.92809 47.9936 6.98195C46.6061 5.70364 44.9766 5.13895 43.1643 4.77167C40.6065 4.25332 38.4196 5.0463 36.3125 6.31455C36.0168 6.49254 35.7918 6.79563 35.5537 7.05851C34.855 7.82999 33.9572 8.35989 33.1754 9.02885C32.5578 9.55722 32.0273 10.1643 31.8357 10.9906C31.8315 11.0089 31.8436 11.0383 31.834 11.047C30.7969 11.978 31.455 13.2093 31.2558 14.2882C31.2232 14.4647 31.3051 14.5461 31.4868 14.5194" stroke="#3B1502" stroke-linecap="round" stroke-linejoin="round"/>
<path d="M34.677 22.1392C34.1443 22.6918 33.4101 22.5389 32.7711 22.6447C30.932 22.9494 29.6016 24.0158 28.3849 25.347C27.2044 26.6384 26.6428 28.2119 26.2067 29.8572C26.1145 30.2049 25.9895 30.4967 25.6255 30.6159" stroke="#3B1502" stroke-linecap="round" stroke-linejoin="round"/>
<path d="M49.6196 78.0278C49.6916 79.6976 49.7092 81.3604 50.3019 82.9743C51.0755 85.0807 52.3672 86.6831 54.3215 87.807C55.5891 88.5361 56.9144 89.0509 58.343 89.297C59.4977 89.496 60.6608 89.6493 61.832 89.3676" stroke="#3B1502" stroke-linecap="round" stroke-linejoin="round"/>
<path d="M16.2842 23.432C16.2483 23.0614 15.9644 22.8395 15.6971 22.6941C14.5299 22.059 13.6901 21.1305 13.0946 19.9686C12.6617 19.1241 12.1333 18.3187 11.9344 17.3724C11.8016 16.741 11.5623 16.1257 11.5863 15.4688C11.6221 14.4879 11.4504 13.5107 11.6257 12.5229C11.7503 11.8213 11.8793 11.1386 12.2206 10.5053C13.1295 8.81847 14.3218 7.3775 15.8755 6.23255C17.1613 5.28498 18.5721 4.72192 20.1668 4.47023C21.0783 4.32637 21.992 4.15096 22.8989 4.18367C24.1519 4.22886 25.3662 4.54635 26.5005 5.13441C28.5211 6.18197 29.7326 7.88717 30.5655 9.92679C30.7994 10.4996 30.9459 11.1194 31.3725 11.6024" stroke="#3B1502" stroke-linecap="round" stroke-linejoin="round"/>
<path d="M59.2461 38.6621C60.2478 38.8496 61.1052 39.3333 61.9666 39.8552C63.6805 40.8937 64.7935 42.3749 65.41 44.205C65.6049 44.7839 65.7875 45.4028 65.7992 46.0434C65.8046 46.3354 65.8072 46.6735 66.1425 46.8515" stroke="#3B1502" stroke-linecap="round" stroke-linejoin="round"/>
<path d="M29.6495 57.5147C29.5668 57.1119 29.2931 56.869 28.9594 56.6542C28.2505 56.1978 27.7247 55.5868 27.3299 54.8359C26.9679 54.1474 26.4968 53.5202 25.815 53.0293C25.4279 53.3883 25.1989 53.8418 25.0383 54.3181C24.5784 55.6816 23.9713 56.9814 23.1147 58.1334C22.0997 59.4983 20.8875 60.6968 19.2551 61.3263C18.2617 61.7094 17.1997 61.9043 16.144 62.0808" stroke="#3B1502" stroke-linecap="round" stroke-linejoin="round"/>
<path d="M26.0571 33.5002C26.1912 33.6404 26.3547 33.7548 26.4036 33.9634C26.7204 35.3152 27.6952 36.1767 28.7143 36.9634C29.6408 37.6787 30.7358 38.0853 31.8698 38.3682C31.9691 38.393 32.0713 38.4292 32.1566 38.4844C33.0871 39.0867 34.0372 38.6838 34.9771 38.533C35.3035 38.4806 35.62 38.3862 35.9556 38.3544C36.3788 38.3142 36.7312 38.1929 37.0808 37.8157C37.5956 37.2604 38.3311 36.9181 38.9456 36.4493C39.5781 35.9666 40.1778 35.4512 40.5695 34.7213C40.8964 34.1122 41.0554 33.4422 41.2143 32.7956C41.3181 32.3729 41.5348 32.048 41.7298 31.7147C42.0453 31.1758 42.1311 30.4724 41.7652 30.0282C41.5083 29.7162 41.492 29.333 41.4365 28.9797C41.2049 27.5057 40.63 26.1938 39.6909 25.048C39.4973 24.8118 39.3038 24.5909 39.2391 24.2888C39.1144 23.7057 38.5266 23.6182 38.1619 23.5172C37.101 23.2233 36.1762 22.5858 35.0944 22.3724C34.9911 22.3521 34.8605 22.2853 34.8119 22.2C34.3167 21.3301 33.2771 21.0649 32.7157 20.2465C32.3843 19.7634 32.0803 19.2977 31.9213 18.7297C31.8099 18.332 31.6115 17.9676 31.2947 17.6851" stroke="#3B1502" stroke-linecap="round" stroke-linejoin="round"/>
<path d="M83.6707 41.8228C82.4074 41.2878 81.223 40.6024 80.0356 39.923C79.4138 39.5673 79.2118 38.8673 78.7624 38.3724C77.9837 37.5149 77.6935 36.4416 77.3842 35.3751C77.2941 35.0646 77.2221 34.754 76.932 34.5396C76.1999 34.9289 76.0887 35.7327 75.6502 36.2971C74.6188 37.6251 73.4278 38.8313 71.8834 39.4826C70.5563 40.0422 69.095 40.0285 67.6251 39.8416C66.431 39.6898 65.3216 39.3719 64.2896 38.8167C62.8807 38.0587 61.4904 37.2856 60.96 35.559C60.7607 34.9103 60.5454 34.2191 60.0931 33.6317C59.8109 33.2653 60.0803 32.7281 60.0816 32.2678C60.0845 31.2124 60.1523 30.1574 60.1818 29.1019C60.1883 28.8703 60.2141 28.6668 60.3541 28.4655C60.7786 27.8556 60.8812 27.1059 61.2107 26.4474C61.5643 25.7405 61.9877 25.1012 62.5543 24.5576C62.8405 24.283 63.065 23.9907 63.0709 23.5762" stroke="#3B1502" stroke-linecap="round" stroke-linejoin="round"/>
<path d="M26.0565 33.3614C25.5873 33.262 25.6187 33.6742 25.55 33.9113C25.3623 34.5588 25.2629 35.2287 25.0264 35.8668C24.3748 37.6245 23.1875 38.9366 21.6915 40.0134C20.792 40.6609 19.8945 41.2843 18.7595 41.4592C18.4608 41.5053 18.2373 41.7615 18.0107 41.9666" stroke="#3B1502" stroke-linecap="round" stroke-linejoin="round"/>
<path d="M51.9191 40.0986C51.8286 40.5297 51.4804 40.7461 51.1547 40.9676C49.5643 42.0492 48.7706 43.7153 47.9552 45.3411C47.6826 45.8845 47.7097 46.5718 47.573 47.1875C47.5034 47.5012 47.3617 47.7874 47.1841 48.0702C47.0085 48.3498 46.9803 48.8773 47.1361 49.0198C47.6828 49.5196 47.699 50.2035 47.844 50.7986C48.2333 52.3961 49.0007 53.7017 50.33 54.6928C50.6333 54.919 50.9643 55.1701 50.9807 55.6154" stroke="#3B1502" stroke-linecap="round" stroke-linejoin="round"/>
<path d="M43.8721 56.0611C44.3052 56.2086 44.7247 56.1084 45.1492 56.0056C46.3503 55.7146 47.5528 55.4419 48.8047 55.4737C49.1244 55.4819 49.425 55.5979 49.7328 55.5915C51.0853 55.5636 52.2063 56.188 53.3304 56.813C53.3911 56.8468 53.4754 56.8761 53.5006 56.9299C54.0299 58.0594 55.322 58.5388 55.8458 59.6928C56.0398 60.1201 56.2815 60.5343 56.465 60.9728C56.4982 61.0521 56.5229 61.1486 56.5832 61.201C57.2382 61.7708 57.0598 62.5686 57.1514 63.2858C57.1923 63.6064 57.3028 63.9343 57.1692 64.2704C57.1321 64.3638 57.1571 64.5437 57.2253 64.6066C57.7512 65.0911 57.9021 65.7736 58.2115 66.3731C58.4401 66.816 58.9083 67.0432 59.2538 67.3834C59.7506 67.8724 60.3202 68.2884 60.7038 68.8879C60.8191 69.068 61.0395 69.0322 61.2226 69.0636C62.4826 69.2798 63.7623 69.3908 64.9938 69.7592C65.0711 69.7823 65.1514 69.6961 65.2312 69.8115C65.63 70.3887 66.3 70.5983 66.8497 70.973C67.9424 71.7179 69.0262 72.4808 69.8045 73.5754C70.0452 73.9139 70.39 74.0195 70.7393 74.1488" stroke="#3B1502" stroke-linecap="round" stroke-linejoin="round"/>
<path d="M70.4526 17.542C70.6733 17.7931 70.7657 18.0924 70.8821 18.4057C71.3049 19.5438 71.6724 20.7206 72.4918 21.6684C72.5372 21.7209 72.5965 21.7802 72.6053 21.8425C72.7577 22.9217 73.68 23.3429 74.4323 23.8518C74.9262 24.1858 75.2602 24.6716 75.765 24.9754C76.2355 24.7925 76.7479 24.7685 77.2091 24.9344C78.5055 25.4009 79.8404 25.3568 81.1769 25.323C81.674 25.3104 82.1378 25.3872 82.665 25.6275C82.446 26.0418 82.1125 26.3488 81.7535 26.4721C80.0999 27.04 79.1804 28.3244 78.3806 29.7454C78.1948 30.0757 77.9724 30.3731 77.68 30.6163" stroke="#3B1502" stroke-linecap="round" stroke-linejoin="round"/>
<path d="M69.9286 59.207C69.8926 59.5502 69.8975 59.8886 70.1018 60.186C70.6409 60.971 70.6615 61.8879 70.7224 62.7806C70.7966 63.8681 70.637 64.9414 70.2012 65.9431C70.042 66.309 69.6977 66.589 69.4737 66.9318C68.9413 67.7463 68.3384 68.5024 67.453 68.9293C67.0321 69.1323 66.5988 69.3693 66.0836 69.3643C65.8015 69.3615 65.4948 69.4552 65.2803 69.6952" stroke="#3B1502" stroke-linecap="round" stroke-linejoin="round"/>
<path d="M47.0329 22.7134C47.0068 23.1918 46.7617 23.5237 46.3988 23.8291C45.0648 24.9516 43.8042 26.1423 43.1953 27.8499C43.0363 28.296 42.8619 28.7384 42.7364 29.1941C42.6285 29.586 42.4762 29.9331 42.1479 30.1844" stroke="#3B1502" stroke-linecap="round" stroke-linejoin="round"/>
<path d="M41.5399 57.77C41.6965 58.3659 41.2774 58.7096 40.9733 59.0961C40.1433 60.1512 39.544 61.3065 39.3905 62.6763C39.319 63.3139 39.0842 63.9581 39.1398 64.5791C39.2297 65.5827 39.2846 66.6032 39.564 67.5834C39.7913 68.3809 40.1223 69.1302 40.6424 69.7721C40.8696 70.0524 40.9891 70.3442 40.9753 70.7007" stroke="#3B1502" stroke-linecap="round" stroke-linejoin="round"/>
<path d="M47.0331 49.1504C46.5912 49.5606 46.5874 50.1501 46.4638 50.6698C46.0782 52.2912 45.3138 53.7129 44.4322 55.113C43.7937 56.127 42.8825 56.7658 41.9584 57.4288C41.7196 57.6002 41.5057 57.7969 41.137 57.6867C40.962 57.6344 40.7045 57.7975 40.5041 57.9012C38.9848 58.6875 37.3268 58.9196 35.6605 59.0373C35.1351 59.0744 34.5774 58.946 34.0297 58.9437C33.7111 58.9424 33.3975 58.9432 33.0967 59.0639" stroke="#3B1502" stroke-linecap="round" stroke-linejoin="round"/>
<path d="M59.9636 33.6546C59.6385 33.7762 59.5207 34.0404 59.368 34.3427C58.8598 35.3489 58.1487 36.2126 57.3749 37.0364C56.9745 37.4627 56.4982 37.8302 56.1983 38.3554C56.0691 38.5816 55.7863 38.5645 55.5689 38.6524C54.4862 39.0901 53.4087 39.5409 52.3276 39.9827C52.1983 40.0355 52.0381 40.1263 51.9266 40.0908C50.8307 39.742 49.6497 40.1112 48.5704 39.6895C47.9433 39.4446 47.3029 39.207 46.724 38.8701C45.4398 38.1225 44.4118 37.0905 43.6533 35.8025C43.0931 34.8511 42.7379 33.8221 42.6198 32.7245C42.5734 32.2936 42.4274 31.9369 42.1479 31.6221" stroke="#3B1502" stroke-linecap="round" stroke-linejoin="round"/>
<path d="M29.855 71.2655C29.811 71.6331 29.5478 71.8316 29.2759 72.022C28.0833 72.857 27.1149 73.9194 26.2022 75.0443C25.8958 75.4219 25.8316 75.9669 25.3438 76.2214C25.1311 76.3324 24.6818 76.3518 24.415 76.1526C24.1963 75.9891 24.2562 75.7312 24.3676 75.582C24.5656 75.3171 24.6232 74.9839 24.51 74.768C24.1192 74.0226 24.3601 73.2428 24.3178 72.4867C24.2771 71.76 24.1096 71.0389 24.1033 70.3339C24.0922 69.098 23.4017 68.1986 22.9075 67.1914C22.745 66.8601 22.6492 66.5316 22.6603 66.1429C22.6729 65.6987 22.5619 65.2507 22.5028 64.8047C22.3259 63.4705 22.7932 62.279 23.3818 61.1431C24.1246 59.7095 25.2201 58.6346 26.7859 58.1082C27.3897 57.9052 28.0393 57.9325 28.6355 57.7493C30.1141 57.2949 31.2276 58.2128 32.4593 58.6947C32.6763 58.7795 32.8845 58.887 33.0968 58.984" stroke="#3B1502" stroke-linecap="round" stroke-linejoin="round"/>
<path d="M65.5669 51.4492C66.099 51.9517 66.0693 52.6826 66.3161 53.3009C66.7102 54.288 67.2543 55.2319 67.5903 56.2115C68.002 57.412 68.965 58.0282 69.6741 58.9085C69.7422 58.9929 69.8398 59.1396 69.9023 59.1292C70.6839 58.9991 71.1481 59.6318 71.7446 59.9142C72.5493 60.2952 73.3786 60.4476 74.2413 60.5318C74.4169 60.5489 74.5886 60.6058 74.7621 60.6444" stroke="#3B1502" stroke-linecap="round" stroke-linejoin="round"/>
<path d="M67.8658 56.8991C67.3191 57.1197 66.8303 56.784 66.3736 56.6376C64.9921 56.1949 63.638 56.2977 62.2601 56.549C61.9771 56.6006 61.6996 56.75 61.3907 56.6194C61.31 56.5852 61.1691 56.5611 61.1013 56.7248C60.8553 57.3191 60.2212 57.4588 59.7727 57.8159C58.806 58.5856 58.0309 59.483 57.6972 60.6995C57.6121 61.0095 57.4692 61.2828 57.2339 61.5053" stroke="#3B1502" stroke-linecap="round" stroke-linejoin="round"/>
<path d="M51.9109 73C51.9688 73.4856 51.6804 73.8467 51.4468 74.2099C50.6771 75.4065 50.1 76.6931 49.6196 78.0286" stroke="#3B1502" stroke-linecap="round" stroke-linejoin="round"/>
<path d="M56.2285 23.0015C56.2254 23.4318 56.4507 23.7989 56.7669 24.0179C58.1852 25.0003 58.948 26.4119 59.5729 27.9209C59.6909 28.2059 59.8375 28.4446 60.1077 28.6048" stroke="#3B1502" stroke-linecap="round" stroke-linejoin="round"/>
<path d="M57.234 64.6655C56.698 65.0341 56.6766 65.6598 56.6167 66.1702C56.5179 67.0121 56.0738 67.688 55.7372 68.4099C55.4219 69.0863 54.9891 69.7168 54.4547 70.2661C54.2184 70.5089 54.2167 70.8217 54.2168 71.1309" stroke="#3B1502" stroke-linecap="round" stroke-linejoin="round"/>
<path d="M37.1196 69.6953C38.0888 69.8619 39.0394 70.1003 39.9225 70.5488C40.1056 70.6417 40.2934 70.7429 40.5054 70.7191C40.8819 70.6768 41.166 70.8665 41.4375 71.0706C42.3758 71.7756 43.3048 72.4926 44.2436 73.197C44.3073 73.2447 44.3191 73.3305 44.4731 73.3332C45.7576 73.3563 47.0259 73.7298 48.3263 73.5002" stroke="#3B1502" stroke-linecap="round" stroke-linejoin="round"/>
<path d="M24.1885 69.4484C24.4769 69.4436 24.7044 69.5414 24.9457 69.7449C26.1724 70.78 27.6149 71.0475 29.1448 71.127C30.7397 71.2098 31.9245 70.2355 33.238 69.5707C33.432 69.4725 33.6226 69.3665 33.8147 69.2642" stroke="#3B1502" stroke-linecap="round" stroke-linejoin="round"/>
<path d="M36.0446 64.6655C35.5858 64.8718 35.7458 65.3518 35.6715 65.668C35.4231 66.7251 34.8892 67.6117 34.2198 68.436C34.0156 68.6874 33.9121 68.9525 33.8149 69.2571C34.2408 69.5397 34.6774 69.6634 35.228 69.6043C35.7005 69.5535 36.2182 69.4444 36.6884 69.6941" stroke="#3B1502" stroke-linecap="round" stroke-linejoin="round"/>
<path d="M60.6826 23.3208C61.0115 23.4141 61.301 23.4469 61.6254 23.3147C61.7777 23.2527 61.9939 23.2484 62.1435 23.3135C62.8924 23.6396 63.4877 23.2152 64.1377 22.9479C64.9681 22.6064 65.7798 22.2269 66.5881 21.8347C66.8257 21.7194 67.0631 21.6574 67.3495 21.7583C67.8188 21.9235 68.3193 21.8153 68.8062 21.829C69.849 21.8584 70.8616 22.0351 71.7808 22.5758C72.1543 22.7955 72.5112 22.7877 72.895 22.6904" stroke="#3B1502" stroke-linecap="round" stroke-linejoin="round"/>
<path d="M61.1132 56.7084C60.8124 56.0922 60.3067 56.3805 59.9636 56.5542C58.2482 57.4229 56.471 57.2646 54.6883 56.9174C54.3149 56.8447 53.9896 56.8206 53.6421 56.9362" stroke="#3B1502" stroke-linecap="round" stroke-linejoin="round"/>
<path d="M60.1078 23.4359C59.6817 23.1983 59.2146 23.3991 58.7779 23.3161C58.1948 23.2054 57.6031 22.9021 57.0447 22.9597C56.3001 23.0366 55.6639 22.6342 54.8907 22.7501C54.2427 22.8472 53.5284 22.411 52.8187 22.2808C51.5021 22.0392 50.2181 22.1107 48.9388 22.4643C48.8443 22.4904 48.7364 22.5392 48.6512 22.5167C47.8849 22.3148 47.1907 22.7416 46.4507 22.7497C46.2391 22.752 46.0637 22.8192 45.866 22.9092C44.6785 23.4499 43.4413 23.7697 42.1102 23.7328C41.1602 23.7066 40.1858 23.5804 39.2749 24.0069" stroke="#3B1502" stroke-linecap="round" stroke-linejoin="round"/>
<path d="M50.7688 17.2534C50.4725 17.3923 50.2985 17.6572 50.2112 17.9492C49.8041 19.31 48.9087 20.3478 48.0534 21.4099C47.8389 21.6761 47.67 21.9447 47.6079 22.282" stroke="#3B1502" stroke-linecap="round" stroke-linejoin="round"/>
<path d="M60.6825 68.9771C60.0889 69.4545 59.324 69.3413 58.6474 69.5334C57.8881 69.7489 57.1557 69.9901 56.4363 70.3257C55.767 70.638 55.1716 71.1368 54.3591 71.1722C54.0812 71.1843 53.781 71.4534 53.5542 71.6695C53.2317 71.9767 52.8064 72.1508 52.5088 72.4671C52.0543 72.9501 51.436 72.9299 50.874 73.0142C50.1143 73.1281 49.3584 73.245 48.6138 73.4309" stroke="#3B1502" stroke-linecap="round" stroke-linejoin="round"/>
<path d="M75.7863 25.0132C75.7489 25.3019 75.7549 25.625 75.9638 25.8077C76.5989 26.3629 76.5824 27.1916 76.8364 27.8944C77.1517 28.7667 77.0801 29.7626 77.5907 30.5872C77.6763 30.7254 77.6186 30.8473 77.5998 30.9914C77.4459 32.1705 77.2595 33.3424 76.9699 34.4957" stroke="#3B1502" stroke-linecap="round" stroke-linejoin="round"/>
<path d="M56.2285 38.3745C56.7088 38.7343 57.2789 38.4795 57.799 38.5942C58.1739 38.6768 58.5764 38.5385 58.9583 38.6619" stroke="#3B1502" stroke-linecap="round" stroke-linejoin="round"/>
<path d="M28.0651 47.2817C28.0265 47.7246 27.9957 48.1683 27.948 48.6102C27.803 49.9523 28.3547 51.1406 28.7548 52.3664C29.2848 53.9899 30.5341 54.9711 31.8911 55.8135C32.701 56.3162 33.5772 56.7229 34.5352 56.946C35.243 57.1108 35.9351 57.0539 36.6181 56.9691C37.5937 56.8479 38.5103 56.4536 39.4526 56.1775C40.3118 55.9258 40.933 55.3578 41.4783 54.6776C41.9844 54.0462 42.5633 53.469 42.9694 52.7641C43.0894 52.556 43.3926 52.6204 43.4412 52.3651" stroke="#3B1502" stroke-width="0.5" stroke-linecap="round" stroke-linejoin="round"/>
<path d="M67.3981 37.4502C67.8105 37.9264 68.1453 37.3061 68.545 37.3514C69.4168 37.4501 70.2827 37.2841 71.0588 36.8512C73.2991 35.6015 74.6595 32.3672 74.1345 29.5488C73.7912 27.706 73.2083 26.1307 71.6051 25.17C70.2685 24.369 68.9211 24.315 67.4717 24.6657C65.035 25.2552 63.8785 27.1906 63.2148 29.5582C62.1774 33.2587 64.4501 36.0816 66.9421 37.3607C67.0258 37.4036 67.1435 37.3662 67.2453 37.3662" stroke="#3B1502" stroke-width="0.5" stroke-linecap="round" stroke-linejoin="round"/>
<path d="M65.2803 72.7276C64.3765 72.2575 63.4695 71.7559 62.444 71.6449C59.5224 71.3288 56.8743 71.8853 54.8043 74.1632C54.337 74.6774 53.8255 75.1454 53.4087 75.7121C52.7696 76.5812 52.6377 77.5855 52.4944 78.5962C52.4457 78.9399 52.4297 79.2886 52.3741 79.631C52.2612 80.3265 52.5641 80.9582 52.756 81.5779C52.9505 82.2059 53.1428 82.8569 53.5227 83.4362C54.1488 84.3912 55.0524 84.9765 56.0224 85.4999" stroke="#3B1502" stroke-width="0.5" stroke-linecap="round" stroke-linejoin="round"/>
<path d="M23.7019 31.7651C23.8782 32.9322 23.6129 34.0005 23.2103 35.109C22.4252 37.2699 20.9893 38.694 18.906 39.4771C17.0645 40.1692 15.184 40.3845 13.3106 39.5929C12.6354 39.3076 11.9689 38.9799 11.4014 38.4904" stroke="#3B1502" stroke-width="0.5" stroke-linecap="round" stroke-linejoin="round"/>
<path d="M10.1501 79.5739C10.0645 79.3111 9.9287 79.1041 9.69489 78.927C9.10635 78.4811 8.68418 77.884 8.29968 77.2546C8.00117 76.7659 7.92661 76.2012 7.74958 75.6767C7.46895 74.8452 7.34917 73.9601 7.38583 73.0719C7.41176 72.4438 7.50415 71.83 7.83778 71.269C8.15577 70.7342 8.38462 70.1471 8.63205 69.5803C9.2974 68.0561 10.3035 66.8869 11.8259 66.2282C13.6674 65.4314 15.517 65.5317 17.3633 66.2718C17.9584 66.5103 18.5556 66.7305 19.091 67.0917C20.6992 68.1763 21.6903 69.7234 22.3832 71.5024C22.5675 71.9756 22.786 72.4796 22.7483 72.9529C22.7056 73.4897 22.6414 74.0564 22.4736 74.5745C22.3775 74.8713 22.4138 75.1653 22.3263 75.4536C21.7466 77.3626 20.7568 78.9036 18.9281 79.8838C17.1407 80.8418 15.2703 81.0188 13.3236 80.84C12.8875 80.7999 12.4507 80.6622 12.0536 80.4447" stroke="#3B1502" stroke-width="0.5" stroke-linecap="round" stroke-linejoin="round"/>
<path d="M84.7108 30.1123C83.9442 30.0937 83.1748 30.0837 82.447 30.3418C81.1185 30.8131 80.2909 31.6607 80.0063 32.9468C79.728 34.2046 79.9399 35.3355 80.8451 36.3558C81.2405 36.8014 81.6136 37.2637 82.2384 37.4406C82.9976 37.6557 83.7455 37.7199 84.5493 37.4632C85.9823 37.0056 86.7245 36.0007 87.2048 34.8309C87.5734 33.9333 87.4234 32.9934 87.0707 32.0749C86.7313 31.191 86.1147 30.5829 85.1713 30.2275C85.0374 30.1771 84.8925 30.1501 84.7527 30.1123" stroke="#3B1502" stroke-width="0.5" stroke-linecap="round" stroke-linejoin="round"/>
<path d="M61.2033 63.4493C61.2566 65.0635 63.1972 66.3059 64.7286 65.6964C65.8181 65.2628 66.3594 64.3129 66.6757 63.2759C67.0229 62.1379 65.2982 60.0332 63.9942 60.2213C63.587 60.28 63.1723 60.2886 62.7531 60.4243C61.4521 60.8453 61.2597 61.5781 61.1637 62.7034C61.15 62.8649 60.9509 63.1725 61.2033 63.366" stroke="#3B1502" stroke-width="0.5" stroke-linecap="round" stroke-linejoin="round"/>
<path d="M17.8218 45.5825C19.5651 46.365 20.7734 47.6264 21.5664 49.2975C22.1582 50.5447 22.3635 51.8081 22.1348 53.1686C21.9405 54.3247 21.4986 55.3585 20.7888 56.2968C20.1501 57.1412 19.3307 57.7812 18.3333 58.2053C17.1719 58.699 15.9579 58.8502 14.6997 58.6954" stroke="#3B1502" stroke-width="0.5" stroke-linecap="round" stroke-linejoin="round"/>
<path d="M12.5431 54.2029C12.6463 55.6984 13.9309 56.7396 15.2554 56.372C16.6187 55.9938 17.5238 54.927 17.7518 53.2816C17.9579 51.7943 17.4906 50.4677 16.4716 49.5146C15.7833 48.8707 14.5866 48.7434 13.9433 49.1633C12.8087 49.904 11.9645 50.8763 12.192 52.5971C12.2569 53.0882 12.1702 53.6862 12.5431 54.0885" stroke="#3B1502" stroke-width="0.5" stroke-linecap="round" stroke-linejoin="round"/>
<path d="M78.2648 49.1499C78.2536 49.5891 78.387 50.006 78.3469 50.4654C78.2527 51.5432 77.6326 52.2109 76.7834 52.6578C75.4612 53.3536 74.0746 52.3501 73.855 51.0582C73.7542 50.4647 73.6405 49.8339 74.0197 49.2693" stroke="#3B1502" stroke-width="0.5" stroke-linecap="round" stroke-linejoin="round"/>
<path d="M18.4631 45.8481C17.8983 45.8102 17.3577 45.6389 16.7848 45.6029C15.881 45.5462 15.0419 45.5868 14.1997 45.9994C13.3078 46.4364 12.4807 46.9775 11.6459 47.4963C10.8753 47.9752 10.5699 48.8723 10.1782 49.6628C9.74628 50.5342 9.45703 51.4633 9.298 52.4132C9.1561 53.2608 9.03902 54.1223 9.05701 54.9904" stroke="#3B1502" stroke-width="0.5" stroke-linecap="round" stroke-linejoin="round"/>
<path d="M54.3155 41.6331C52.981 42.2381 51.9615 43.1854 51.0393 44.2795C50.2112 45.262 49.8561 46.3686 49.8033 47.5905C49.7709 48.3406 49.8252 49.0942 49.7883 49.8439C49.7596 50.4295 50.0993 50.8603 50.3943 51.2861C51.454 52.8152 52.7624 54.0595 54.7342 54.4312C56.6584 54.7939 58.4442 54.4179 59.9934 53.291C61.226 52.3944 62.0595 51.1671 62.6008 49.7645C63.1904 48.2365 62.9943 46.7148 62.4152 45.2618C61.242 42.3183 58.969 41.2957 55.6546 41.4008C55.2339 41.4142 54.8175 41.5526 54.3992 41.6331" stroke="#3B1502" stroke-width="0.5" stroke-linecap="round" stroke-linejoin="round"/>
<path d="M56.967 10.7434C57.7427 10.347 58.3775 9.7085 59.2408 9.45398C59.3555 9.42017 59.463 9.34793 59.5955 9.3517C60.2186 9.36945 60.8419 9.37254 61.4652 9.39502C62.2687 9.42399 62.9124 9.76473 63.4409 10.2893C64.2753 11.1176 64.8534 12.0797 65.0456 13.291C65.3619 15.2853 64.8674 16.9159 63.2201 18.1667C62.3284 18.8438 61.3143 19.0024 60.238 18.9748C59.1041 18.9457 58.1459 18.5195 57.313 17.7618C56.882 17.3697 56.4337 17.0022 56.1489 16.482C55.7071 15.6752 55.8122 14.7955 55.7991 13.9314C55.7971 13.7962 55.7988 13.6609 55.7988 13.5256" stroke="#3B1502" stroke-width="0.5" stroke-linecap="round" stroke-linejoin="round"/>
<path d="M70.8984 45.1572C70.9522 46.2356 70.5555 47.2411 70.5126 48.3223C70.4329 50.3297 70.4395 52.3042 71.6256 53.9444C72.4896 55.139 73.5626 56.1314 75.0683 56.2813C75.4231 56.3167 75.7613 56.4961 76.1286 56.4335" stroke="#3B1502" stroke-width="0.5" stroke-linecap="round" stroke-linejoin="round"/>
<path d="M17.7995 73.9533C17.6573 73.8511 17.711 73.6847 17.7159 73.5469C17.824 70.5188 16.2082 69.8002 14.3366 69.6225C13.537 69.5465 12.8569 70.2973 12.551 71.1219C12.0247 72.5406 12.0977 74.0697 12.3394 75.5819C12.3762 75.8122 12.5246 75.7883 12.6145 75.8771C13.5625 76.8133 14.6585 77.3243 15.8937 77.0847C16.953 76.8793 17.2782 75.7746 17.6201 74.7635C17.6933 74.547 17.6842 74.2922 17.713 74.055" stroke="#3B1502" stroke-width="0.5" stroke-linecap="round" stroke-linejoin="round"/>
<path d="M82.8081 8.37993C83.5436 8.45358 84.2888 8.15198 85.0224 8.59462C86.1875 9.2976 87.0063 10.2699 87.5558 11.4667C87.7655 11.9235 88.1278 12.3759 87.9164 12.9447" stroke="#3B1502" stroke-width="0.5" stroke-linecap="round" stroke-linejoin="round"/>
<path d="M16.0897 35.7487C16.7421 35.5661 17.4724 35.5197 18.0571 35.2151C19.6157 34.4028 20.0668 33.121 19.3481 31.8382C19.0792 31.3583 19.0156 30.8432 18.1714 30.6162C17.2043 30.3562 16.3251 29.9879 15.1592 30.1394C13.9991 30.2902 12.4497 31.0857 12.2889 31.8449C12.1821 32.3491 12.1969 32.8646 12.1607 33.3751C12.0351 35.1499 13.9246 35.8468 15.9741 35.6722" stroke="#3B1502" stroke-width="0.5" stroke-linecap="round" stroke-linejoin="round"/>
<path d="M29.7309 84.4793C29.6187 84.4318 29.5139 84.5192 29.3725 84.3765C28.5977 83.5949 27.9948 82.688 27.7373 81.6383C27.3402 80.0192 27.4066 78.4085 28.1065 76.8347C28.8126 75.247 29.7131 73.8341 31.2947 73.0396C32.1309 72.6195 33.0578 72.3835 33.9902 72.2049C35.5144 71.9128 37.0023 71.9256 38.546 72.2354C40.627 72.6529 41.9066 73.9582 42.8424 75.691C43.7306 77.3358 43.7468 79.0923 43.2896 80.8988C43.1713 81.3659 43.0391 81.8518 42.9378 82.3307C42.7784 83.0838 42.2029 83.6651 41.7023 84.2447C40.4874 85.6512 39.016 86.6708 37.1556 86.9538C35.799 87.1601 34.4157 87.4867 33.0702 86.8518C32.7279 86.6903 32.421 86.4489 32.0338 86.3891" stroke="#3B1502" stroke-width="0.5" stroke-linecap="round" stroke-linejoin="round"/>
<path d="M46.4635 15.0199C45.9356 16.8124 44.8784 18.2391 43.0385 18.6344C40.8879 19.0965 38.7661 18.8387 37.2128 16.9831C36.7428 16.4216 36.4498 15.7357 36.3785 14.9629C36.307 14.1867 36.1722 13.4188 36.331 12.6395C36.437 12.12 36.6016 11.6206 36.9137 11.1905C37.697 10.1113 38.835 9.57063 40.0322 9.08629C41.1083 8.65096 42.2014 8.70068 43.2086 9.07499C44.2281 9.45384 45.0733 10.1799 45.7802 11.0631C46.7426 12.2654 46.7241 13.5779 46.4056 14.9618" stroke="#3B1502" stroke-width="0.5" stroke-linecap="round" stroke-linejoin="round"/>
<path d="M19.7753 10.395C18.2129 11.2953 17.2886 12.5994 18.0992 14.5171C18.3667 15.1501 18.3468 15.979 19.1761 16.2866C20.114 16.6345 21.0258 17.0631 22.0594 16.8956C23.834 16.608 25.1945 15.3612 25.3172 13.2895C25.4522 11.0106 23.9613 9.1723 21.5594 9.4311C20.8065 9.51222 20.1712 9.54907 19.7753 10.2918" stroke="#3B1502" stroke-width="0.5" stroke-linecap="round" stroke-linejoin="round"/>
<path d="M45.0629 60.0237C46.3606 59.3745 47.7456 58.995 49.1841 59.1154C50.5677 59.2312 51.5545 60.0648 52.393 61.1763C53.7565 62.9837 53.7833 64.9692 53.1039 66.9223C52.6722 68.1631 51.735 69.2476 50.5025 69.8806C47.7997 71.2685 43.4956 69.623 42.5005 66.8602C42.3309 66.3894 42.2526 65.8969 42.2505 65.3855" stroke="#3B1502" stroke-width="0.5" stroke-linecap="round" stroke-linejoin="round"/>
<path d="M28.9727 62.5117C28.0298 62.6051 27.4871 63.1519 27.2727 64.1182C27.0828 64.974 27.3004 65.6923 27.9055 66.2554C28.4077 66.7229 29.0735 66.7821 29.6403 66.5344C30.3248 66.2353 30.6983 65.5895 30.786 64.775C30.9097 63.626 30.0523 62.7749 29.0292 62.5117" stroke="#3B1502" stroke-width="0.5" stroke-linecap="round" stroke-linejoin="round"/>
<path d="M56.9281 46.001C57.6287 45.9258 58.1272 46.2114 58.3646 46.8484C58.6211 47.5366 58.5848 48.2456 58.1805 48.8626C58.0001 49.1378 57.762 49.4163 57.451 49.6109C56.9126 49.9476 56.3837 49.9425 55.8304 49.6636C55.2954 49.3939 54.8736 49.0415 54.6041 48.4861C54.4109 48.0881 54.5573 47.7295 54.561 47.3529" stroke="#3B1502" stroke-width="0.5" stroke-linecap="round" stroke-linejoin="round"/>
<path d="M79.3613 42.6846C79.9169 42.9774 80.48 43.2564 81.0265 43.5659C82.5627 44.4358 83.4216 45.8417 83.956 47.4887C84.2522 48.4016 84.4565 49.3378 84.5336 50.2993" stroke="#3B1502" stroke-width="0.5" stroke-linecap="round" stroke-linejoin="round"/>
<path d="M38.9873 33.3457C38.3088 35.1498 36.841 36.0925 35.0881 36.5811C33.8625 36.9228 32.5655 36.8276 31.3257 36.4761C31.1388 36.4231 30.8283 36.3479 30.7979 36.0358" stroke="#3B1502" stroke-width="0.5" stroke-linecap="round" stroke-linejoin="round"/>
<path d="M10.9365 54.9897C11.3061 56.0337 11.8041 56.9596 12.4345 57.7242C12.8856 58.2715 13.5117 58.3426 14.0679 58.5939C14.2693 58.6849 14.4886 58.702 14.6997 58.7529" stroke="#3B1502" stroke-width="0.5" stroke-linecap="round" stroke-linejoin="round"/>
<path d="M78.7332 67.814C78.5999 68.6976 78.1557 69.4454 78.2073 70.4289C78.279 71.798 79.5302 73.4974 80.5798 73.458C82.641 73.3807 83.3925 71.9609 83.8302 69.5852C83.9125 69.1386 83.6876 68.8416 83.5729 68.4884" stroke="#3B1502" stroke-width="0.5" stroke-linecap="round" stroke-linejoin="round"/>
<path d="M49.7764 65.0562C49.2414 63.3107 48.3123 62.5436 47.2539 62.9736C46.5053 63.2777 46.0961 64.0318 46.0277 65.16C45.9493 66.4527 46.1754 67.5835 47.0315 68.2682C47.6144 68.7344 48.655 68.4489 49.0904 67.8707C49.6564 67.1192 49.7176 66.1433 49.7764 65.1604" stroke="#3B1502" stroke-width="0.5" stroke-linecap="round" stroke-linejoin="round"/>
<path d="M34.1303 75.8566C35.2916 74.9398 37.3433 75.1028 38.6128 76.2126C40.1435 77.5508 40.7181 79.2462 40.1816 80.8409C39.3319 83.3667 37.8481 84.5627 35.7 84.6591C34.2398 84.7245 32.9428 84.5252 31.8836 83.3385C30.5196 81.8103 30.6919 79.2539 32.3424 77.5235C32.8487 76.9927 33.1429 76.2155 33.9061 75.9752" stroke="#3B1502" stroke-width="0.5" stroke-linecap="round" stroke-linejoin="round"/>
<path d="M59.163 12.8827C58.2726 13.9479 58.6277 15.301 59.9184 15.7606C60.5767 15.995 61.5981 15.468 61.7779 14.8013C62.0043 13.9615 61.4862 12.9033 60.6719 12.6057C60.1447 12.4131 59.6514 12.5264 59.2211 12.8827" stroke="#3B1502" stroke-width="0.5" stroke-linecap="round" stroke-linejoin="round"/>
<path d="M83.671 34.6627C83.6547 35.0851 83.9894 35.2422 84.1822 35.5002C84.7367 35.1727 85.0638 34.5604 84.9358 34.139C84.7844 33.6403 84.4391 33.4394 83.836 33.4989" stroke="#3B1502" stroke-width="0.5" stroke-linecap="round" stroke-linejoin="round"/>
<path d="M16.0212 9.40674C14.6053 11.1405 13.6533 13.0867 14.1869 15.3947C14.4843 16.6809 15.0094 17.9783 16.1098 18.8392C17.1873 19.6822 18.3087 20.4539 19.6814 20.6962" stroke="#3B1502" stroke-width="0.5" stroke-linecap="round" stroke-linejoin="round"/>
<path d="M78.7002 12.5756C79.609 10.9643 80.5165 11.2098 82.1677 11.7217C83.5625 12.1541 84.2606 13.4795 84.3374 15.2277C84.4525 17.8492 83.2393 18.9109 81.7053 18.86C81.2023 18.8433 80.7034 18.6537 80.2026 18.5432" stroke="#3B1502" stroke-width="0.5" stroke-linecap="round" stroke-linejoin="round"/>
<path d="M66.4297 9.2085C66.9153 9.58461 67.3313 10.0221 67.688 10.5312C68.0468 11.0436 68.2743 11.6168 68.3324 12.2134C68.3596 12.4925 68.4286 12.7622 68.4942 13.0139C68.7317 13.9245 68.4355 14.7902 68.3637 15.6738" stroke="#3B1502" stroke-width="0.5" stroke-linecap="round" stroke-linejoin="round"/>
<path d="M35.7554 45.3561C34.959 44.9592 33.8787 45.1963 33.3443 46.1057C32.6115 47.3523 31.5445 48.5529 32.193 50.2433C32.2521 50.3975 32.1377 50.6231 32.1039 50.8156" stroke="#3B1502" stroke-width="0.5" stroke-linecap="round" stroke-linejoin="round"/>
<path d="M39.5137 48.9336C39.5846 49.9171 38.9033 50.3399 38.4177 50.8445C37.1286 52.184 35.6217 52.8731 33.874 52.6579" stroke="#3B1502" stroke-width="0.5" stroke-linecap="round" stroke-linejoin="round"/>
<path d="M32.1306 33.3315C30.8942 32.7656 30.5499 31.3774 31.1857 29.9509C31.7869 28.6021 32.9949 28.2029 34.5468 28.3234C35.305 28.3822 36.3826 29.7357 36.5367 30.6929C36.6032 31.1058 36.6727 31.5141 36.5402 31.9303" stroke="#3B1502" stroke-width="0.5" stroke-linecap="round" stroke-linejoin="round"/>
<path d="M82.234 67.8284C81.2795 66.8654 80.178 66.6179 79.2168 67.557" stroke="#3B1502" stroke-width="0.5" stroke-linecap="round" stroke-linejoin="round"/>
<path d="M57.3835 80.7558C57.9806 82.4425 59.0929 82.9876 60.63 82.726C61.4231 82.5911 61.8957 82.0945 62.4524 81.6323C62.904 81.2573 63.006 80.6863 62.9382 80.1175C62.7005 78.1232 61.7993 77.2442 60.0604 77.1457C59.6761 77.1239 59.3645 77.2699 59.0779 77.4841C58.0675 78.2392 57.288 79.1753 57.3131 80.6758" stroke="#3B1502" stroke-width="0.5" stroke-linecap="round" stroke-linejoin="round"/>
<path d="M69.8549 32.4053C69.7129 32.4524 69.8707 32.6245 69.6859 32.7097C69.1136 32.9738 68.528 33.2248 67.9317 32.9161C67.1515 32.5124 66.8917 31.8792 67.0458 31.0685C67.0636 30.975 67.0564 30.8745 67.0469 30.7786C66.9691 29.9878 67.358 29.43 68.0503 29.1729C68.5795 28.9764 69.2032 28.9448 69.6742 29.3894C70.2519 29.9347 70.6261 30.5914 70.3691 31.4139C70.2757 31.7127 70.3042 32.0895 69.9718 32.2891" stroke="#3B1502" stroke-width="0.5" stroke-linecap="round" stroke-linejoin="round"/>
<path d="M52.5562 28.2227C53.8779 29.4687 53.6298 31.0228 53.2336 32.4903C52.9672 33.4772 51.4821 34.0858 50.4131 33.7942C48.9734 33.4014 48.1215 32.7874 48.0217 31.3123C47.9976 30.9548 47.9445 30.5992 47.9048 30.2427" stroke="#3B1502" stroke-width="0.5" stroke-linecap="round" stroke-linejoin="round"/>
<path d="M38.9377 12.9443C38.7656 13.6918 38.779 14.3963 39.4184 14.9558" stroke="#3B1502" stroke-width="0.5" stroke-linecap="round" stroke-linejoin="round"/>
<path d="M57.4392 30.4717C57.362 30.8389 57.6649 31.0788 57.6649 31.4572C57.6649 32.2761 57.4389 33.0186 57.2339 33.7762" stroke="#3B1502" stroke-width="0.5" stroke-linecap="round" stroke-linejoin="round"/>
<path d="M76.8188 13.2168C77.3912 14.2836 76.703 15.3821 77.5886 16.4458C77.7931 16.6914 77.9128 16.8961 78.7004 16.98" stroke="#3B1502" stroke-width="0.5" stroke-linecap="round" stroke-linejoin="round"/>
<path d="M81.9668 75.2945C80.7678 75.4136 79.6138 75.3066 78.5453 74.8981C77.4128 74.4652 76.3766 73.9254 75.6931 72.9982C74.3753 71.2106 73.7695 69.0679 75.5351 67.0379C76.4915 65.9382 77.4528 64.9237 79.054 64.4015C79.687 64.1951 80.3309 64.1055 80.9951 64.0508" stroke="#3B1502" stroke-width="0.5" stroke-linecap="round" stroke-linejoin="round"/>
<path d="M76.4868 47.856C76.9537 48.0787 77.3577 48.4147 77.7799 48.718" stroke="#3B1502" stroke-width="0.5" stroke-linecap="round" stroke-linejoin="round"/>
<path d="M6.15105 6.88551C6.91985 6.25549 7.86119 6.36649 8.70393 5.9317C8.34375 5.52081 8.01331 5.18111 7.72552 4.8075C7.17553 4.09344 6.69238 3.34048 6.643 2.38491C6.56477 0.870783 7.5694 0.137857 8.88748 0.837357C9.83799 1.34179 10.6085 2.12053 11.3016 2.95313C11.4935 3.18368 11.6676 3.50143 11.3934 3.76586C11.0693 4.07853 10.7435 3.8465 10.51 3.60802C9.77888 2.86141 9.00216 2.19218 7.77857 1.73729C8.05379 3.73592 9.43206 4.96308 10.225 6.52921C9.19877 7.24236 7.89549 6.932 6.88405 7.71478C7.96111 8.20678 9.18276 7.61525 10.1394 8.24357C10.0534 8.91584 9.60672 8.9986 9.21643 9.03106C8.39339 9.09954 7.5626 9.09127 6.76538 8.8654C5.63424 8.54495 5.4693 8.054 6.15105 6.88551Z" fill="#3B1502"/>
<path d="M14.3766 2.39722C14.3937 2.51388 14.4071 2.63587 14.4367 2.7505C14.4654 2.86311 14.5254 2.97732 14.5971 3.06913C14.6691 3.16443 14.7427 3.22853 14.8436 3.29607C14.8748 3.31602 14.9735 3.37109 15.0139 3.35268C15.1378 3.29505 15.211 3.15678 15.2601 3.0246C15.277 2.97907 15.2904 2.93391 15.3037 2.89371C15.3702 2.66939 15.3115 2.43867 15.2805 2.21487C15.2631 2.08977 15.2552 1.96648 15.2289 1.84304C15.2054 1.73905 15.1541 1.63308 15.0953 1.54272C15.0436 1.465 14.9812 1.39336 14.9075 1.33422C14.8589 1.29778 14.774 1.22783 14.7073 1.24481C14.646 1.26051 14.5843 1.3228 14.5464 1.37057C14.4675 1.46995 14.4179 1.57186 14.3787 1.691C14.3004 1.92433 14.3434 2.16095 14.3766 2.39722Z" fill="#3B1502"/>
<path d="M76.0662 87.8632C76.0917 87.2957 76.0319 86.7691 75.942 86.2415C75.8991 85.99 75.7638 85.6574 76.1012 85.5091C76.4134 85.3719 76.6456 85.5822 76.8564 85.8041C77.6462 86.6353 78.4526 87.4501 79.3594 88.1591C79.5485 88.307 79.7309 88.4896 80.0134 88.415C80.0708 88.1934 79.9568 88.0343 79.873 87.8712C79.2938 86.745 78.5728 85.716 77.7091 84.7848C77.6305 84.7001 77.5522 84.6112 77.4939 84.5125C77.3151 84.21 77.3993 84.0171 77.7471 83.9558C78.0041 83.9105 78.2663 83.8922 78.5267 83.8671C78.6594 83.8543 78.8094 83.859 78.8258 83.686C78.8413 83.5221 78.6927 83.471 78.5747 83.4253C78.1391 83.2565 77.677 83.1912 77.2219 83.0984C77.009 83.0549 76.7977 83.0015 76.5881 82.9437C76.4076 82.8939 76.3231 82.7557 76.3409 82.5823C76.3595 82.3999 76.4986 82.2919 76.6737 82.3025C77.7357 82.3669 78.7995 82.4355 79.74 83.0162C80.0469 83.2057 80.2434 83.4802 80.1928 83.8431C80.1439 84.1935 79.9281 84.4279 79.5677 84.5472C78.9844 84.7402 78.9764 84.8232 79.3313 85.3164C80.0507 86.3161 80.7806 87.3117 81.1387 88.5123C81.2423 88.8595 81.2942 89.2159 80.9834 89.4766C80.6839 89.7278 80.3306 89.6659 79.9913 89.5274C79.0958 89.1617 78.4053 88.514 77.6985 87.8886C77.5274 87.7373 77.3933 87.5391 77.1737 87.4537C76.9136 87.5838 76.94 87.8186 76.9195 88.027C76.8761 88.4674 76.8287 88.9345 76.3482 89.1078C75.8111 89.3015 75.3501 89.0742 74.9773 88.6749C74.5008 88.1644 74.2437 87.5333 74.0088 86.8936C73.764 86.2273 73.6125 85.535 73.4485 84.8467C73.4189 84.7225 73.4043 84.5856 73.4241 84.461C73.4592 84.2413 73.5325 84.0356 73.8192 84.0269C74.0899 84.0186 74.2264 84.1662 74.2597 84.4101C74.3499 85.0701 74.5216 85.711 74.7149 86.3464C74.8795 86.8871 75.082 87.4138 75.417 87.8785C75.6194 88.1593 75.8356 88.24 76.0662 87.8632Z" fill="#3B1502"/>
<path d="M96.2828 59.5453C96.0181 59.9543 95.7104 60.0893 95.3127 59.9748C94.1963 59.6533 93.1597 59.1828 92.2893 58.4156C92.0739 58.2257 91.8528 58.0083 92.0937 57.6965C92.32 57.4037 92.5955 57.4808 92.862 57.6348C93.5391 58.0258 94.2062 58.4354 95.1496 58.7363C94.4854 57.8661 93.9557 57.1193 93.1808 56.5617C92.876 56.3424 92.4547 56.0693 92.803 55.6228C93.1558 55.1706 93.5299 55.5063 93.825 55.7353C95.0752 56.7058 96.2506 57.7341 96.2828 59.5453Z" fill="#3B1502"/>
<path d="M98.8716 55.1849C98.6997 56.3629 97.7432 56.017 97.1104 56.234C96.5722 56.4185 95.9906 56.3071 95.4415 56.1436C95.1961 56.0705 94.9658 55.92 94.9987 55.6157C95.0316 55.3124 95.2782 55.2468 95.5397 55.2085C96.1479 55.1196 96.7897 55.3712 97.4721 55.0671C96.7182 54.0256 95.2977 54.4148 94.4813 53.5079C96.1251 52.7162 98.1469 53.5054 98.8716 55.1849Z" fill="#3B1502"/>
<path d="M96.9506 49.0675C95.0999 49.9286 92.288 49.8549 91.3812 48.8288C92.8303 48.3534 94.2602 48.8232 95.6918 48.5508C95.1767 47.5346 93.7354 47.6935 93.1958 46.4129C94.527 46.4306 95.5736 46.7862 96.5078 47.5179C96.9942 47.8989 97.4101 48.3256 96.9506 49.0675Z" fill="#3B1502"/>
<path d="M95.8893 40.3007C95.9528 42.3409 94.7789 44.897 93.4788 45.3271C93.6118 43.8078 94.6062 42.678 94.919 41.2547C93.7821 41.3285 93.3612 42.7161 91.9715 42.7084C92.5114 41.4915 93.2501 40.6692 94.2903 40.0982C94.8319 39.8009 95.3879 39.5863 95.8893 40.3007Z" fill="#3B1502"/>
<path d="M0.305314 82.6054C0.140921 82.1744 0.20634 81.8547 0.508505 81.5954C1.35669 80.8677 2.27388 80.2835 3.32425 79.9912C3.58422 79.9189 3.86805 79.8567 3.97208 80.2168C4.06978 80.5549 3.8621 80.7356 3.60145 80.8683C2.93934 81.2052 2.26865 81.5243 1.52983 82.1237C2.54588 82.0523 3.39592 82.0235 4.23666 81.6965C4.5673 81.5679 5.0017 81.374 5.1489 81.8924C5.29797 82.4172 4.84206 82.5397 4.50932 82.6553C3.09963 83.1452 1.68692 83.544 0.305314 82.6054Z" fill="#3B1502"/>
<path d="M3.66563 87.8307C2.79266 87.0316 3.61008 86.4614 3.78429 85.8338C3.93245 85.3 4.34819 84.8978 4.78859 84.5508C4.98544 84.3957 5.23751 84.2962 5.46944 84.4935C5.70052 84.6901 5.61706 84.9241 5.50278 85.1546C5.23706 85.6907 4.67252 86.0622 4.54236 86.7784C5.81887 86.7611 6.29039 85.4071 7.49108 85.2641C7.22617 87.0227 5.45057 88.1952 3.66563 87.8307Z" fill="#3B1502"/>
</svg>
