<svg width="46" height="52" viewBox="0 0 46 52" fill="none" xmlns="http://www.w3.org/2000/svg">
<path d="M24.4919 9.04515C25.2464 9.41541 25.4915 10.1785 26.1218 10.6742C26.3114 10.2529 26.4567 9.87944 26.6431 9.52691C26.9994 8.85317 27.409 8.21719 28.1268 7.84377C29.2641 7.2521 30.1806 7.76766 30.1052 9.02716C30.0508 9.93543 29.7222 10.8015 29.325 11.627C29.215 11.8555 29.0316 12.101 28.732 11.9829C28.3776 11.8433 28.4418 11.5112 28.5433 11.2478C28.861 10.4234 29.1032 9.59096 29.0236 8.49C27.5827 9.40329 27.1225 10.8943 26.196 12.054C25.2872 11.5149 25.0685 10.4034 24.1112 9.90012C24.1108 10.9014 24.9947 11.6335 24.8472 12.59C24.2998 12.7598 24.0794 12.4452 23.9174 12.1564C23.5758 11.5473 23.2905 10.9053 23.1844 10.2127C23.0339 9.23008 23.3537 8.93087 24.4919 9.04515Z" fill="#3B1502"/>
<path d="M16.7726 40C15.7726 40 15.7726 48.5 14.7726 49.5C14.2725 49.5 14.0725 49.4 13.2725 49C12.2725 48.5 14.2727 35 14.7726 34C15.2725 33 14.2725 31 14.7726 29.5C15.2727 28 18.7725 26 19.2725 24.5C19.7725 23 12.7725 16.5 11.2725 15C9.77238 13.5 4.27254 8.5 3.27254 8C2.27254 7.5 4.27254 5.5 5.27254 5.5C6.27254 5.5 12.2725 13 12.7725 12.5C13.2725 12 12.2725 7.5 12.2725 6.5C12.2725 5.5 10.2725 3.5 10.2725 3C10.2725 2.5 12.2725 1 12.7725 1C13.2725 1 14.2726 6 14.7726 8.5C15.2726 11 13.7726 15 14.7726 15.5C15.7726 16 20.7726 22.5 21.2726 22.5C21.7726 22.5 22.7726 19.5 23.2726 19C23.7726 18.5 26.2726 18.5 27.2726 18.5C28.2726 18.5 34.2726 16.5 34.2726 16C34.2726 15.5 38.2726 7.5 39.2726 7.5C40.2726 7.5 42.2726 8 40.7726 9C39.2726 10 36.7726 16 37.2726 16.5C37.7726 17 43.7726 13.5 44.7726 14.5C45.7726 15.5 45.2726 15.5 45.2726 16C45.2726 16.5 40.2726 18.5 37.7726 19C35.2726 19.5 28.2726 20.5 26.7726 20.5C25.2726 20.5 25.2726 22 24.2726 22.5C23.2726 23 22.7726 24.5 22.7726 25.5C22.7726 26.5 21.7726 27 21.2726 27.5C20.7726 28 18.2726 29.5 17.7726 29.5C17.2726 29.5 17.2726 36.5 17.7726 37.5C18.2726 38.5 20.2726 40 20.7726 41C21.2726 42 24.7726 48.5 24.7726 49.5C24.7726 50.5 23.2726 50.5 22.7726 51C22.2726 51.5 21.7726 51 21.7726 50C21.7726 49 17.7726 40 16.7726 40Z" stroke="#3B1502"/>
<path d="M7.89252 36.4269C7.57238 36.0943 7.51437 35.7812 7.70597 35.4391C8.24378 34.4788 8.90188 33.6242 9.79773 32.9871C10.0195 32.8294 10.2679 32.6725 10.5034 32.9621C10.7246 33.2342 10.5939 33.4716 10.3943 33.6842C9.8872 34.2242 9.36517 34.7511 8.8837 35.5564C9.83002 35.1317 10.6334 34.8045 11.3153 34.2102C11.5835 33.9764 11.9265 33.6468 12.2631 34.0646C12.604 34.4877 12.2135 34.7603 11.9384 34.983C10.773 35.9266 9.57024 36.7886 7.89252 36.4269Z" fill="#3B1502"/>
<path d="M8.22527 29.0566C8.21213 27.9287 9.15841 28.1111 9.71862 27.8146C10.1951 27.5625 10.7559 27.5808 11.2939 27.6528C11.5343 27.6849 11.7721 27.7917 11.7862 28.0814C11.8003 28.3701 11.5792 28.4679 11.34 28.5424C10.784 28.7155 10.1462 28.5748 9.55248 28.9601C10.4118 29.8235 11.6838 29.2495 12.5818 29.9776C11.1603 30.9614 9.15151 30.5214 8.22527 29.0566Z" fill="#3B1502"/>
<path d="M0.397205 18.3196C0.201888 17.9038 0.247386 17.5902 0.537411 17.329C1.35151 16.596 2.24515 16.0011 3.29327 15.6873C3.55268 15.6097 3.837 15.5412 3.96634 15.8896C4.08779 16.2167 3.88862 16.3986 3.63248 16.5351C2.9818 16.8819 2.32124 17.2115 1.60984 17.8164C2.63758 17.7189 3.49943 17.6676 4.33225 17.3255C4.65979 17.191 5.08847 16.9901 5.27204 17.4916C5.45794 17.9994 5.00272 18.1314 4.67221 18.2532C3.27195 18.7696 1.86265 19.1973 0.397205 18.3196Z" fill="#3B1502"/>
<path d="M32.6656 35.0173C32.407 35.4059 32.1105 35.5313 31.731 35.4167C30.6657 35.0949 29.6785 34.6313 28.8544 33.8855C28.6504 33.7009 28.4414 33.4899 28.676 33.1942C28.8964 32.9165 29.1593 32.9939 29.4127 33.1447C30.0564 33.5277 30.6903 33.9284 31.5903 34.2283C30.9648 33.3865 30.4668 32.6645 29.7314 32.1207C29.4422 31.9069 29.0421 31.64 29.3813 31.2167C29.7248 30.7879 30.0789 31.1141 30.3588 31.3372C31.5442 32.2824 32.6574 33.2821 32.6656 35.0173Z" fill="#3B1502"/>
<path d="M35.198 30.8723C35.0187 31.9986 34.1068 31.6553 33.4979 31.8553C32.9801 32.0253 32.4243 31.9113 31.9004 31.7479C31.6663 31.6748 31.4475 31.5278 31.4829 31.2367C31.5181 30.9467 31.7552 30.8869 32.0062 30.8535C32.5899 30.7758 33.2015 31.0248 33.8589 30.742C33.1498 29.7351 31.7842 30.0901 31.0135 29.2113C32.598 28.4734 34.5248 29.2545 35.198 30.8723Z" fill="#3B1502"/>
<path d="M2.42671 13.5862C3.32419 14.207 4.36052 14.4543 5.13721 15.1238C5.06643 15.6069 4.66205 15.4862 4.3638 15.4411C3.21394 15.2674 2.17017 14.7646 1.19756 14.1384C0.740734 13.8443 0.272887 13.4348 0.398085 12.8693C0.512132 12.3541 1.0444 12.2777 1.53599 12.211C3.29599 11.9723 4.40546 12.3619 5.00853 13.4572C4.19668 13.9366 3.15103 12.9611 2.42671 13.5862Z" fill="#3B1502"/>
<path d="M32.8118 26.8243C32.93 26.8114 33.0535 26.8024 33.1702 26.7768C33.2848 26.7521 33.4022 26.6959 33.4975 26.627C33.5962 26.558 33.6636 26.4862 33.7355 26.3871C33.7567 26.3563 33.8159 26.2588 33.7989 26.2174C33.7454 26.0904 33.6087 26.0115 33.4773 25.9571C33.432 25.9384 33.387 25.9231 33.3469 25.9083C33.1232 25.8329 32.8884 25.8834 32.6616 25.9064C32.5348 25.9192 32.4102 25.9226 32.2848 25.9445C32.179 25.9644 32.0703 26.0121 31.977 26.068C31.8967 26.1172 31.8221 26.1775 31.7598 26.2496C31.7212 26.2972 31.6475 26.3801 31.6622 26.448C31.6757 26.5103 31.7362 26.5749 31.783 26.6149C31.8802 26.6981 31.9811 26.7519 32.0998 26.7959C32.3321 26.8835 32.5723 26.8489 32.8118 26.8243Z" fill="#3B1502"/>
<path d="M27.1915 35.2065C27.2314 35.2613 27.2697 35.316 27.3112 35.3693C27.4188 35.508 27.5211 35.6656 27.6662 35.7706C27.8065 35.8722 27.978 35.9336 28.1529 35.9302L28.1545 35.9303C28.1548 35.9192 28.155 35.9081 28.1553 35.8971C28.159 35.7565 28.1197 35.6163 28.0546 35.4929C28.0258 35.4384 27.9955 35.3839 27.9554 35.337C27.9416 35.3192 27.9261 35.303 27.9123 35.2853C27.8554 35.2111 27.8002 35.1353 27.7418 35.0611C27.7002 35.0079 27.6636 34.9516 27.6253 34.8968C27.5778 34.8276 27.5301 34.771 27.4713 34.7094C27.4141 34.6495 27.3421 34.6065 27.2701 34.5635C27.1951 34.5189 27.1053 34.4881 27.0183 34.4748C27.0183 34.4748 27.0167 34.4747 27.0151 34.4763C26.9629 34.6504 26.9898 34.8377 27.0634 35.0008C27.0964 35.076 27.1424 35.1404 27.1899 35.2065L27.1915 35.2065Z" fill="#3B1502"/>
</svg>
