<svg width="47" height="52" viewBox="0 0 47 52" fill="none" xmlns="http://www.w3.org/2000/svg">
<path d="M17.397 40.0146C17.3015 43.1966 16.9449 46.3434 16.2411 49.4559C16.0948 50.1032 14.8049 49.8531 14.2076 49.4559" stroke="#3B1502" stroke-linecap="round" stroke-linejoin="round"/>
<mask id="path-2-inside-1_664_4835" fill="white">
<path d="M24.4919 9.04515C25.2464 9.41541 25.4915 10.1785 26.1218 10.6742C26.3114 10.2529 26.4567 9.87944 26.6431 9.52691C26.9994 8.85317 27.409 8.21719 28.1268 7.84377C29.2641 7.2521 30.1806 7.76766 30.1052 9.02716C30.0508 9.93543 29.7222 10.8015 29.325 11.627C29.215 11.8555 29.0316 12.101 28.732 11.9829C28.3776 11.8433 28.4418 11.5112 28.5433 11.2478C28.861 10.4234 29.1032 9.59096 29.0236 8.49C27.5827 9.40329 27.1225 10.8943 26.196 12.054C25.2872 11.5149 25.0685 10.4034 24.1112 9.90012C24.1108 10.9014 24.9947 11.6335 24.8472 12.59C24.2998 12.7598 24.0794 12.4452 23.9174 12.1564C23.5758 11.5473 23.2905 10.9053 23.1844 10.2127C23.0339 9.23008 23.3537 8.93087 24.4919 9.04515Z"/>
</mask>
<path d="M24.4919 9.04515C25.2464 9.41541 25.4915 10.1785 26.1218 10.6742C26.3114 10.2529 26.4567 9.87944 26.6431 9.52691C26.9994 8.85317 27.409 8.21719 28.1268 7.84377C29.2641 7.2521 30.1806 7.76766 30.1052 9.02716C30.0508 9.93543 29.7222 10.8015 29.325 11.627C29.215 11.8555 29.0316 12.101 28.732 11.9829C28.3776 11.8433 28.4418 11.5112 28.5433 11.2478C28.861 10.4234 29.1032 9.59096 29.0236 8.49C27.5827 9.40329 27.1225 10.8943 26.196 12.054C25.2872 11.5149 25.0685 10.4034 24.1112 9.90012C24.1108 10.9014 24.9947 11.6335 24.8472 12.59C24.2998 12.7598 24.0794 12.4452 23.9174 12.1564C23.5758 11.5473 23.2905 10.9053 23.1844 10.2127C23.0339 9.23008 23.3537 8.93087 24.4919 9.04515Z" fill="#3B1502"/>
<path d="M24.4919 9.04515L26.6945 4.55646L25.8867 4.16006L24.9914 4.07016L24.4919 9.04515ZM26.1218 10.6742L23.0309 14.6045L28.0565 18.5566L30.6811 12.7267L26.1218 10.6742ZM26.6431 9.52691L22.223 7.18974L22.2229 7.1899L26.6431 9.52691ZM28.1268 7.84377L25.8192 3.40811L25.8192 3.40813L28.1268 7.84377ZM30.1052 9.02716L25.1141 8.72825L25.1141 8.72825L30.1052 9.02716ZM29.325 11.627L24.8195 9.45886L24.8195 9.45892L29.325 11.627ZM28.732 11.9829L30.5652 7.33106L30.565 7.33102L28.732 11.9829ZM28.5433 11.2478L23.8777 9.44987L23.8777 9.44988L28.5433 11.2478ZM29.0236 8.49L34.0106 8.12958L33.408 -0.208714L26.3468 4.26687L29.0236 8.49ZM26.196 12.054L23.6451 16.3544L27.3871 18.5741L30.1026 15.1748L26.196 12.054ZM24.1112 9.90012L26.4382 5.47458L19.1146 1.6239L19.1112 9.89808L24.1112 9.90012ZM24.8472 12.59L26.3287 17.3654L29.3124 16.4398L29.7887 13.3523L24.8472 12.59ZM23.9174 12.1564L28.2784 9.71077L28.2784 9.71071L23.9174 12.1564ZM23.1844 10.2127L28.1268 9.45562L28.1268 9.45557L23.1844 10.2127ZM24.4919 9.04515L22.2892 13.5338C21.6007 13.196 21.2731 12.712 21.4181 12.897C21.4697 12.9629 21.4764 12.9729 21.5745 13.0996C21.6469 13.1931 21.7528 13.3285 21.8774 13.4769C22.1285 13.7761 22.5088 14.1938 23.0309 14.6045L26.1218 10.6742L29.2126 6.74393C29.4196 6.90671 29.5329 7.04313 29.5372 7.0483C29.5383 7.04964 29.5259 7.03486 29.4815 6.97755C29.4628 6.95338 29.3543 6.81189 29.2887 6.72824C28.965 6.31523 28.1375 5.26456 26.6945 4.55646L24.4919 9.04515ZM26.1218 10.6742L30.6811 12.7267C31.0154 11.9841 30.9709 12.0387 31.0634 11.8639L26.6431 9.52691L22.2229 7.1899C21.9425 7.72019 21.6075 8.52168 21.5625 8.62169L26.1218 10.6742ZM26.6431 9.52691L31.0633 11.8641C31.1216 11.7538 31.1537 11.6992 31.1692 11.6744C31.1835 11.6514 31.1682 11.6788 31.1226 11.7347C31.0174 11.8636 30.7908 12.094 30.4344 12.2794L28.1268 7.84377L25.8192 3.40813C23.6643 4.52919 22.6582 6.36672 22.223 7.18974L26.6431 9.52691ZM28.1268 7.84377L30.4344 12.2794C30.1139 12.4461 28.691 13.0225 27.04 12.0535C25.2551 11.006 25.0811 9.27981 25.1141 8.72825L30.1052 9.02716L35.0962 9.32608C35.2047 7.51502 34.6101 4.90132 32.1016 3.42907C29.7268 2.03536 27.277 2.64974 25.8192 3.40811L28.1268 7.84377ZM30.1052 9.02716L25.1141 8.72825C25.1171 8.67781 25.1231 8.70413 25.0814 8.83463C25.0378 8.97068 24.96 9.16696 24.8195 9.45886L29.325 11.627L33.8304 13.7951C34.3231 12.7713 34.9836 11.206 35.0962 9.32607L30.1052 9.02716ZM29.325 11.627L24.8195 9.45892C24.8656 9.36303 25.2025 8.62902 26.0377 7.98208C26.5182 7.60988 27.2209 7.22309 28.1294 7.07466C29.0565 6.92319 29.9003 7.06905 30.5652 7.33106L28.732 11.9829L26.8988 16.6347C28.8304 17.3959 30.7943 16.9467 32.1614 15.8878C33.1907 15.0905 33.6743 14.1195 33.8305 13.795L29.325 11.627ZM28.732 11.9829L30.565 7.33102C31.1695 7.56919 31.9019 8.01787 32.5014 8.79708C33.1018 9.57734 33.3546 10.4104 33.433 11.0821C33.5651 12.2144 33.2175 13.0232 33.2088 13.0458L28.5433 11.2478L23.8777 9.44988C23.7675 9.73582 23.3371 10.8423 23.5004 12.2415C23.5944 13.0465 23.8912 14.0052 24.576 14.8952C25.26 15.7842 26.1173 16.3268 26.8989 16.6347L28.732 11.9829ZM28.5433 11.2478L33.2088 13.0458C33.6526 11.8943 34.1654 10.2713 34.0106 8.12958L29.0236 8.49L24.0366 8.85043C24.042 8.92544 24.0369 8.95545 24.0307 8.98619C24.0197 9.04104 23.9898 9.15908 23.8777 9.44987L28.5433 11.2478ZM29.0236 8.49L26.3468 4.26687C24.7493 5.27947 23.8043 6.56344 23.2254 7.45351C22.4485 8.6481 22.573 8.5784 22.2895 8.93334L26.196 12.054L30.1026 15.1748C30.5238 14.6474 30.8512 14.1343 31.0797 13.7644C31.365 13.3026 31.4392 13.1658 31.6084 12.9057C31.8514 12.532 31.8571 12.6138 31.7004 12.7131L29.0236 8.49ZM26.196 12.054L28.7469 7.75372C29.1055 7.96641 29.3195 8.19363 29.3956 8.28116C29.4336 8.32491 29.4486 8.35244 29.2575 8.08149C29.0187 7.74299 28.1143 6.35588 26.4382 5.47458L24.1112 9.90012L21.7843 14.3257C21.0654 13.9477 20.749 13.3679 21.086 13.8458C21.1829 13.983 21.4828 14.421 21.8474 14.8405C22.25 15.3038 22.8321 15.8721 23.6451 16.3544L26.196 12.054ZM24.1112 9.90012L19.1112 9.89808C19.1108 10.8978 19.3341 11.7213 19.5405 12.2968C19.7244 12.8093 19.9651 13.2954 20.0151 13.401C20.1185 13.6194 20.0478 13.4958 19.9844 13.2724C19.9026 12.9842 19.807 12.4669 19.9056 11.8277L24.8472 12.59L29.7887 13.3523C29.9611 12.2348 29.8103 11.2673 29.6043 10.5415C29.4167 9.88058 29.1528 9.33205 29.0537 9.12264C28.9012 8.80052 28.9302 8.85605 28.9531 8.91986C28.9986 9.04656 29.1114 9.4031 29.1112 9.90215L24.1112 9.90012ZM24.8472 12.59L23.3656 7.81452C23.7336 7.70036 24.2997 7.58941 24.9965 7.65983C25.7244 7.73339 26.3979 7.98561 26.964 8.35378C27.4962 8.69994 27.8329 9.08234 28.014 9.31727C28.1069 9.43774 28.1732 9.53839 28.2132 9.60192C28.2526 9.66456 28.2769 9.70806 28.2784 9.71077L23.9174 12.1564L19.5563 14.602C19.6488 14.767 20.2459 15.9134 21.5116 16.7366C23.1219 17.784 24.9073 17.8064 26.3287 17.3654L24.8472 12.59ZM23.9174 12.1564L28.2784 9.71071C28.1804 9.53593 28.1348 9.4343 28.1149 9.38385C28.0967 9.33761 28.1132 9.36685 28.1268 9.45562L23.1844 10.2127L18.2421 10.9698C18.4784 12.5123 19.083 13.758 19.5563 14.6021L23.9174 12.1564ZM23.1844 10.2127L28.1268 9.45557C28.1298 9.47561 28.1431 9.56565 28.1479 9.70721C28.1526 9.84625 28.1511 10.0884 28.101 10.3979C27.993 11.0658 27.6432 12.0836 26.7026 12.9315C25.8244 13.7231 24.9093 13.9304 24.5068 13.989C24.1184 14.0456 23.8942 14.0103 23.9924 14.0201L24.4919 9.04515L24.9914 4.07016C24.5205 4.02288 23.8294 3.98215 23.0657 4.09338C22.2878 4.20667 21.0888 4.52873 20.0072 5.50372C17.7066 7.57748 18.1551 10.4019 18.2421 10.9699L23.1844 10.2127Z" fill="#3B1502" mask="url(#path-2-inside-1_664_4835)"/>
<mask id="path-4-inside-2_664_4835" fill="white">
<path d="M7.89252 36.4269C7.57238 36.0943 7.51437 35.7812 7.70597 35.4391C8.24378 34.4788 8.90188 33.6242 9.79773 32.9871C10.0195 32.8294 10.2679 32.6725 10.5034 32.9621C10.7246 33.2342 10.5939 33.4716 10.3943 33.6842C9.8872 34.2242 9.36517 34.7511 8.8837 35.5564C9.83002 35.1317 10.6334 34.8045 11.3153 34.2102C11.5835 33.9764 11.9265 33.6468 12.2631 34.0646C12.604 34.4877 12.2135 34.7603 11.9384 34.983C10.773 35.9266 9.57024 36.7886 7.89252 36.4269Z"/>
</mask>
<path d="M7.89252 36.4269C7.57238 36.0943 7.51437 35.7812 7.70597 35.4391C8.24378 34.4788 8.90188 33.6242 9.79773 32.9871C10.0195 32.8294 10.2679 32.6725 10.5034 32.9621C10.7246 33.2342 10.5939 33.4716 10.3943 33.6842C9.8872 34.2242 9.36517 34.7511 8.8837 35.5564C9.83002 35.1317 10.6334 34.8045 11.3153 34.2102C11.5835 33.9764 11.9265 33.6468 12.2631 34.0646C12.604 34.4877 12.2135 34.7603 11.9384 34.983C10.773 35.9266 9.57024 36.7886 7.89252 36.4269Z" fill="#3B1502"/>
<path d="M7.89252 36.4269L4.29028 39.8944L5.34789 40.9931L6.83865 41.3146L7.89252 36.4269ZM7.70597 35.4391L12.0684 37.8823L12.0685 37.8822L7.70597 35.4391ZM9.79773 32.9871L6.90011 28.9123L6.90008 28.9124L9.79773 32.9871ZM10.5034 32.9621L14.3826 29.8075L14.3825 29.8073L10.5034 32.9621ZM10.3943 33.6842L14.0393 37.1067L14.0393 37.1067L10.3943 33.6842ZM8.8837 35.5564L4.59226 32.9906L-3.55669 46.6199L10.9309 40.1181L8.8837 35.5564ZM11.3153 34.2102L14.6007 37.9793L14.6007 37.9793L11.3153 34.2102ZM12.2631 34.0646L8.36951 37.2015L8.36956 37.2015L12.2631 34.0646ZM11.9384 34.983L8.7923 31.0969L8.79226 31.0969L11.9384 34.983ZM7.89252 36.4269L11.4948 32.9593C11.7408 33.215 12.3114 33.8963 12.5213 35.0128C12.7506 36.2329 12.4194 37.2555 12.0684 37.8823L7.70597 35.4391L3.34352 32.996C2.8009 33.9649 2.40292 35.3151 2.69342 36.8604C2.96444 38.302 3.72406 39.3062 4.29028 39.8944L7.89252 36.4269ZM7.70597 35.4391L12.0685 37.8822C12.3817 37.3229 12.5955 37.1329 12.6954 37.0619L9.79773 32.9871L6.90008 28.9124C5.20827 30.1154 4.10586 31.6347 3.34349 32.996L7.70597 35.4391ZM9.79773 32.9871L12.6954 37.0619C12.7367 37.0325 12.6015 37.1327 12.3998 37.245C12.201 37.3556 11.7387 37.5931 11.082 37.7184C10.3596 37.8561 9.44305 37.8477 8.49475 37.4747C7.57875 37.1144 6.97533 36.5485 6.62432 36.1169L10.5034 32.9621L14.3825 29.8073C13.9137 29.2309 13.1909 28.5761 12.1552 28.1687C11.0871 27.7486 10.0505 27.7349 9.20883 27.8954C8.43281 28.0434 7.85215 28.3316 7.53699 28.507C7.21906 28.6839 6.96968 28.8629 6.90011 28.9123L9.79773 32.9871ZM10.5034 32.9621L6.62419 36.1167C6.2999 35.718 5.94395 35.1309 5.75305 34.3564C5.55728 33.5621 5.59062 32.7941 5.75595 32.1328C6.04521 30.9757 6.69704 30.3172 6.74923 30.2617L10.3943 33.6842L14.0393 37.1067C14.2911 36.8385 15.1082 35.955 15.4574 34.5581C15.9095 32.7497 15.3771 31.0304 14.3826 29.8075L10.5034 32.9621ZM10.3943 33.6842L6.74927 30.2616C6.32349 30.7151 5.40126 31.6375 4.59226 32.9906L8.8837 35.5564L13.1751 38.1222C13.3291 37.8648 13.4509 37.7334 14.0393 37.1067L10.3943 33.6842ZM8.8837 35.5564L10.9309 40.1181C11.5867 39.8238 13.2251 39.1783 14.6007 37.9793L11.3153 34.2102L8.03003 30.441C8.0866 30.3917 8.08559 30.4106 7.90148 30.5059C7.80524 30.5556 7.6798 30.6159 7.49604 30.6995C7.28515 30.7955 7.12774 30.864 6.83649 30.9947L8.8837 35.5564ZM11.3153 34.2102L14.6007 37.9793C14.7503 37.8489 14.6528 37.9361 14.5597 38.007C14.4609 38.0823 14.0828 38.3673 13.4909 38.5852C12.8321 38.8277 11.8002 39.0223 10.6214 38.6813C9.46785 38.3477 8.74302 37.6651 8.36951 37.2015L12.2631 34.0646L16.1567 30.9278C15.6149 30.2552 14.721 29.4572 13.4 29.0751C12.0539 28.6857 10.8564 28.899 10.0363 29.2009C9.28304 29.4782 8.74783 29.8633 8.49881 30.0531C8.35655 30.1615 8.24052 30.259 8.16732 30.3217C8.12975 30.3538 8.09689 30.3825 8.07485 30.4018C8.04417 30.4286 8.04424 30.4286 8.03 30.441L11.3153 34.2102ZM12.2631 34.0646L8.36956 37.2015C7.99978 36.7426 7.50278 35.9125 7.41056 34.751C7.31643 33.5654 7.68979 32.6168 8.04529 32.0248C8.36422 31.4937 8.70716 31.1803 8.79337 31.1021C8.86167 31.0401 8.97779 30.9467 8.7923 31.0969L11.9384 34.983L15.0845 38.8691C15.0894 38.8652 15.0945 38.8611 15.1177 38.8425C15.1361 38.8277 15.1678 38.8024 15.2027 38.774C15.2711 38.7182 15.3843 38.6247 15.5129 38.508C15.7391 38.3028 16.2099 37.8531 16.6182 37.1731C17.0631 36.4323 17.4874 35.3223 17.3792 33.9596C17.2729 32.6211 16.6969 31.5983 16.1567 30.9277L12.2631 34.0646ZM11.9384 34.983L8.79226 31.0969C8.52653 31.3121 8.3565 31.4422 8.22122 31.535C8.09166 31.6239 8.05741 31.6339 8.09639 31.6168C8.1459 31.595 8.27529 31.5463 8.464 31.5233C8.65976 31.4994 8.83049 31.5142 8.94638 31.5392L7.89252 36.4269L6.83865 41.3146C11.0449 42.2215 13.9641 39.7763 15.0846 38.8691L11.9384 34.983Z" fill="#3B1502" mask="url(#path-4-inside-2_664_4835)"/>
<mask id="path-6-inside-3_664_4835" fill="white">
<path d="M8.22527 29.0566C8.21213 27.9287 9.15841 28.1111 9.71862 27.8146C10.1951 27.5625 10.7559 27.5808 11.2939 27.6528C11.5343 27.6849 11.7721 27.7917 11.7862 28.0814C11.8003 28.3701 11.5792 28.4679 11.34 28.5424C10.784 28.7155 10.1462 28.5748 9.55248 28.9601C10.4118 29.8235 11.6838 29.2495 12.5818 29.9776C11.1603 30.9614 9.15151 30.5214 8.22527 29.0566Z"/>
</mask>
<path d="M8.22527 29.0566C8.21213 27.9287 9.15841 28.1111 9.71862 27.8146C10.1951 27.5625 10.7559 27.5808 11.2939 27.6528C11.5343 27.6849 11.7721 27.7917 11.7862 28.0814C11.8003 28.3701 11.5792 28.4679 11.34 28.5424C10.784 28.7155 10.1462 28.5748 9.55248 28.9601C10.4118 29.8235 11.6838 29.2495 12.5818 29.9776C11.1603 30.9614 9.15151 30.5214 8.22527 29.0566Z" fill="#3B1502"/>
<path d="M8.22527 29.0566L3.2256 29.1148L3.2421 30.5314L3.99925 31.7288L8.22527 29.0566ZM9.71862 27.8146L12.0576 32.2338L12.0577 32.2338L9.71862 27.8146ZM11.2939 27.6528L11.9566 22.6969L11.9564 22.6969L11.2939 27.6528ZM11.7862 28.0814L6.79215 28.3248L6.79215 28.3249L11.7862 28.0814ZM11.34 28.5424L9.8541 23.7683L9.85383 23.7683L11.34 28.5424ZM9.55248 28.9601L6.83023 24.7662L1.66236 28.1205L6.00863 32.4873L9.55248 28.9601ZM12.5818 29.9776L15.4271 34.0891L20.9109 30.2941L15.7309 26.0939L12.5818 29.9776ZM8.22527 29.0566L13.2249 28.9984C13.2297 29.4081 13.15 30.2616 12.5582 31.166C11.9569 32.0851 11.1742 32.5252 10.7487 32.71C10.4404 32.8439 10.1435 32.9057 10.4705 32.8232C10.5817 32.7951 11.3111 32.6289 12.0576 32.2338L9.71862 27.8146L7.37966 23.3954C7.84605 23.1486 8.24709 23.0708 8.02366 23.1272C8.01616 23.1291 7.37848 23.2713 6.76519 23.5377C6.0347 23.8549 4.98291 24.4795 4.19033 25.6908C3.40733 26.8874 3.21426 28.1411 3.2256 29.1148L8.22527 29.0566ZM9.71862 27.8146L12.0577 32.2338C11.5209 32.5179 11.0535 32.5851 10.8183 32.6009C10.605 32.6152 10.5043 32.5917 10.6313 32.6087L11.2939 27.6528L11.9564 22.6969C11.278 22.6062 9.33817 22.3588 7.37954 23.3955L9.71862 27.8146ZM11.2939 27.6528L10.6311 32.6086C10.3495 32.571 9.53085 32.4353 8.66793 31.8024C8.19647 31.4566 7.7148 30.9623 7.35038 30.296C6.98362 29.6254 6.82204 28.9382 6.79215 28.3248L11.7862 28.0814L16.7803 27.8381C16.6974 26.1357 15.8457 24.6655 14.5819 23.7386C13.5365 22.9719 12.4787 22.7667 11.9566 22.6969L11.2939 27.6528ZM11.7862 28.0814L6.79215 28.3249C6.76312 27.7294 6.84912 26.9992 7.18216 26.245C7.51533 25.4905 7.99627 24.937 8.44813 24.5587C8.87343 24.2025 9.26466 24.0074 9.47574 23.9132C9.68728 23.8189 9.84571 23.7709 9.8541 23.7683L11.34 28.5424L12.826 33.3165C12.9557 33.2761 13.9449 32.9987 14.868 32.2258C16.1324 31.1671 16.8648 29.5704 16.7803 27.838L11.7862 28.0814ZM11.34 28.5424L9.85383 23.7683C10.0046 23.7214 10.127 23.6948 10.206 23.6799C10.2459 23.6724 10.2772 23.6675 10.2976 23.6646C10.3178 23.6616 10.3298 23.6602 10.3305 23.6601C10.3308 23.6601 10.324 23.6609 10.3052 23.6628C10.285 23.6648 10.2618 23.6669 10.2229 23.6706C10.1584 23.6766 10.0297 23.6883 9.89287 23.704C9.32177 23.7692 8.09614 23.9445 6.83023 24.7662L9.55248 28.9601L12.2747 33.1541C11.9495 33.3652 11.6351 33.4902 11.386 33.5618C11.1587 33.6272 11.0035 33.6421 11.0279 33.6393C11.0426 33.6376 11.0649 33.6354 11.1504 33.6274C11.2174 33.6212 11.3485 33.6092 11.4888 33.5928C11.7677 33.5603 12.2602 33.4926 12.8262 33.3164L11.34 28.5424ZM9.55248 28.9601L6.00863 32.4873C7.82302 34.3103 10.0693 34.4447 10.5398 34.4932C10.9521 34.5357 10.8264 34.529 10.685 34.4951C10.4411 34.4367 9.94319 34.2753 9.43269 33.8613L12.5818 29.9776L15.7309 26.0939C14.7714 25.3159 13.7777 24.9532 13.0159 24.7706C12.3566 24.6126 11.6908 24.5589 11.5654 24.546C10.9606 24.4836 12.1413 24.4733 13.0963 25.4329L9.55248 28.9601ZM12.5818 29.9776L9.73647 25.8661C10.7303 25.1784 11.9092 25.527 12.4513 26.3844L8.22527 29.0566L3.99925 31.7288C6.39385 35.5157 11.5902 36.7444 15.4271 34.0891L12.5818 29.9776Z" fill="#3B1502" mask="url(#path-6-inside-3_664_4835)"/>
<mask id="path-8-inside-4_664_4835" fill="white">
<path d="M0.397205 18.3196C0.201888 17.9038 0.247386 17.5902 0.537411 17.329C1.35151 16.596 2.24515 16.0011 3.29327 15.6873C3.55268 15.6097 3.837 15.5412 3.96634 15.8896C4.08779 16.2167 3.88862 16.3986 3.63248 16.5351C2.9818 16.8819 2.32124 17.2115 1.60984 17.8164C2.63758 17.7189 3.49943 17.6676 4.33225 17.3255C4.65979 17.191 5.08847 16.9901 5.27204 17.4916C5.45794 17.9994 5.00272 18.1314 4.67221 18.2532C3.27195 18.7696 1.86265 19.1973 0.397205 18.3196Z"/>
</mask>
<path d="M0.397205 18.3196C0.201888 17.9038 0.247386 17.5902 0.537411 17.329C1.35151 16.596 2.24515 16.0011 3.29327 15.6873C3.55268 15.6097 3.837 15.5412 3.96634 15.8896C4.08779 16.2167 3.88862 16.3986 3.63248 16.5351C2.9818 16.8819 2.32124 17.2115 1.60984 17.8164C2.63758 17.7189 3.49943 17.6676 4.33225 17.3255C4.65979 17.191 5.08847 16.9901 5.27204 17.4916C5.45794 17.9994 5.00272 18.1314 4.67221 18.2532C3.27195 18.7696 1.86265 19.1973 0.397205 18.3196Z" fill="#3B1502"/>
<path d="M0.397205 18.3196L-4.1285 20.4452L-3.48019 21.8256L-2.17187 22.6091L0.397205 18.3196ZM0.537411 17.329L3.88299 21.0448L3.88304 21.0448L0.537411 17.329ZM3.29327 15.6873L1.85926 10.8974L1.85923 10.8974L3.29327 15.6873ZM3.96634 15.8896L8.65374 14.1493L8.65367 14.1491L3.96634 15.8896ZM3.63248 16.5351L5.98387 20.9477L5.98392 20.9477L3.63248 16.5351ZM1.60984 17.8164L-1.62905 14.0072L-13.7267 24.2937L2.08205 22.794L1.60984 17.8164ZM4.33225 17.3255L6.23161 21.9507L6.23165 21.9507L4.33225 17.3255ZM5.27204 17.4916L0.576733 19.2104L0.576761 19.2105L5.27204 17.4916ZM4.67221 18.2532L2.94225 13.5621L2.94221 13.5621L4.67221 18.2532ZM0.397205 18.3196L4.92291 16.1941C5.07421 16.5162 5.39563 17.3457 5.23538 18.4711C5.06028 19.7009 4.41755 20.5635 3.88299 21.0448L0.537411 17.329L-2.80817 13.6133C-3.63276 14.3557 -4.44324 15.5056 -4.66478 17.0615C-4.87145 18.513 -4.47512 19.7072 -4.1285 20.4452L0.397205 18.3196ZM0.537411 17.329L3.88304 21.0448C4.35561 20.6193 4.61486 20.5109 4.72731 20.4773L3.29327 15.6873L1.85923 10.8974C-0.124553 11.4913 -1.65258 12.5728 -2.80822 13.6133L0.537411 17.329ZM3.29327 15.6873L4.72729 20.4773C4.77552 20.4628 4.61497 20.5144 4.38767 20.5559C4.16347 20.5968 3.64909 20.6732 2.98664 20.5806C2.25801 20.4788 1.39261 20.1761 0.6143 19.5178C-0.137499 18.882 -0.527195 18.1519 -0.720995 17.63L3.96634 15.8896L8.65367 14.1491C8.3952 13.453 7.92146 12.6009 7.07188 11.8824C6.19578 11.1414 5.21883 10.7954 4.37052 10.6768C3.58841 10.5675 2.94622 10.6538 2.59171 10.7185C2.23409 10.7838 1.94073 10.873 1.85926 10.8974L3.29327 15.6873ZM3.96634 15.8896L-0.721068 17.6298C-0.900099 17.1475 -1.04849 16.4769 -0.98027 15.6818C-0.910302 14.8664 -0.631744 14.1496 -0.262463 13.5763C0.383709 12.5731 1.21315 12.1588 1.28104 12.1226L3.63248 16.5351L5.98392 20.9477C6.30796 20.775 7.36505 20.2014 8.14448 18.9914C9.15357 17.4248 9.20203 15.6262 8.65374 14.1493L3.96634 15.8896ZM3.63248 16.5351L1.28109 12.1226C0.735238 12.4134 -0.431424 12.9889 -1.62905 14.0072L1.60984 17.8164L4.84874 21.6255C5.0739 21.434 5.22837 21.3503 5.98387 20.9477L3.63248 16.5351ZM1.60984 17.8164L2.08205 22.794C2.79276 22.7266 4.54764 22.6423 6.23161 21.9507L4.33225 17.3255L2.4329 12.7004C2.50428 12.671 2.49925 12.6882 2.29643 12.7189C2.19036 12.7349 2.0533 12.7515 1.85354 12.7715C1.62413 12.7945 1.45422 12.8087 1.13764 12.8387L1.60984 17.8164ZM4.33225 17.3255L6.23165 21.9507C6.41489 21.8755 6.29404 21.9269 6.18266 21.9643C6.06451 22.0039 5.61438 22.1524 4.98346 22.1684C4.2813 22.1863 3.24123 22.0388 2.23429 21.3368C1.24885 20.6498 0.781608 19.7701 0.576733 19.2104L5.27204 17.4916L9.96736 15.7728C9.67069 14.9624 9.08103 13.9198 7.95335 13.1336C6.80416 12.3324 5.60203 12.1495 4.7288 12.1717C3.92682 12.1921 3.29664 12.3847 3.00026 12.4842C2.83092 12.541 2.68991 12.596 2.60065 12.6317C2.55484 12.6501 2.51461 12.6666 2.48764 12.6777C2.45007 12.6933 2.45023 12.6932 2.43286 12.7004L4.33225 17.3255ZM5.27204 17.4916L0.576761 19.2105C0.373923 18.6564 0.170103 17.7101 0.456226 16.5803C0.748315 15.4269 1.40703 14.6483 1.93426 14.2018C2.4073 13.8011 2.83317 13.6144 2.94036 13.5678C3.02537 13.5309 3.16577 13.4796 2.94225 13.5621L4.67221 18.2532L6.40217 22.9444C6.40793 22.9423 6.41404 22.9401 6.44179 22.93C6.46393 22.922 6.50194 22.9082 6.544 22.8925C6.6265 22.8618 6.76352 22.8097 6.92266 22.7406C7.20235 22.6192 7.79238 22.3449 8.3973 21.8325C9.05642 21.2743 9.81473 20.3599 10.1502 19.0352C10.4797 17.734 10.2631 16.5808 9.96733 15.7728L5.27204 17.4916ZM4.67221 18.2532L2.94221 13.5621C2.62309 13.6798 2.42192 13.7478 2.26564 13.7917C2.11605 13.8338 2.0821 13.8318 2.1262 13.828C2.18176 13.8232 2.32165 13.8187 2.50945 13.8579C2.7042 13.8986 2.86284 13.9682 2.96628 14.0301L0.397205 18.3196L-2.17187 22.6091C1.51261 24.8158 5.05621 23.4408 6.40222 22.9444L4.67221 18.2532Z" fill="#3B1502" mask="url(#path-8-inside-4_664_4835)"/>
<mask id="path-10-inside-5_664_4835" fill="white">
<path d="M32.6656 35.0173C32.407 35.4059 32.1105 35.5313 31.731 35.4167C30.6657 35.0949 29.6785 34.6313 28.8544 33.8855C28.6504 33.7009 28.4414 33.4899 28.676 33.1942C28.8964 32.9165 29.1593 32.9939 29.4127 33.1447C30.0564 33.5277 30.6903 33.9284 31.5903 34.2283C30.9648 33.3865 30.4668 32.6645 29.7314 32.1207C29.4422 31.9069 29.0421 31.64 29.3813 31.2167C29.7248 30.7879 30.0789 31.1141 30.3588 31.3372C31.5442 32.2824 32.6574 33.2821 32.6656 35.0173Z"/>
</mask>
<path d="M32.6656 35.0173C32.407 35.4059 32.1105 35.5313 31.731 35.4167C30.6657 35.0949 29.6785 34.6313 28.8544 33.8855C28.6504 33.7009 28.4414 33.4899 28.676 33.1942C28.8964 32.9165 29.1593 32.9939 29.4127 33.1447C30.0564 33.5277 30.6903 33.9284 31.5903 34.2283C30.9648 33.3865 30.4668 32.6645 29.7314 32.1207C29.4422 31.9069 29.0421 31.64 29.3813 31.2167C29.7248 30.7879 30.0789 31.1141 30.3588 31.3372C31.5442 32.2824 32.6574 33.2821 32.6656 35.0173Z" fill="#3B1502"/>
<path d="M32.6656 35.0173L36.8278 37.788L37.6729 36.5185L37.6656 34.9935L32.6656 35.0173ZM31.731 35.4167L33.1769 30.6303L33.1769 30.6303L31.731 35.4167ZM28.8544 33.8855L25.4996 37.593L25.4996 37.593L28.8544 33.8855ZM28.676 33.1942L24.7598 30.0857L24.7597 30.0858L28.676 33.1942ZM29.4127 33.1447L31.9696 28.8479L31.9696 28.8479L29.4127 33.1447ZM31.5903 34.2283L30.0092 38.9718L45.0741 43.9931L35.6038 31.2464L31.5903 34.2283ZM29.7314 32.1207L32.7043 28.1005L32.7043 28.1005L29.7314 32.1207ZM29.3813 31.2167L33.2833 34.3431L33.2833 34.343L29.3813 31.2167ZM30.3588 31.3372L27.2417 35.2467L27.2417 35.2467L30.3588 31.3372ZM32.6656 35.0173L28.5035 32.2467C28.6987 31.9534 29.2396 31.2509 30.2829 30.8062C31.4232 30.3201 32.4913 30.4232 33.1769 30.6303L31.731 35.4167L30.2851 40.203C31.3502 40.5248 32.7563 40.6225 34.2044 40.0052C35.5555 39.4293 36.3739 38.4698 36.8278 37.788L32.6656 35.0173ZM31.731 35.4167L33.1769 30.6303C32.5515 30.4414 32.3091 30.2685 32.2092 30.178L28.8544 33.8855L25.4996 37.593C27.048 38.994 28.7799 39.7483 30.2851 40.2031L31.731 35.4167ZM28.8544 33.8855L32.2092 30.1781C32.1711 30.1436 32.2975 30.2535 32.4501 30.4256C32.6005 30.5954 32.9316 30.9951 33.1951 31.6088C33.485 32.284 33.6741 33.1802 33.5142 34.1859C33.3598 35.1573 32.9376 35.8677 32.5924 36.3026L28.676 33.1942L24.7597 30.0858C24.2971 30.6686 23.813 31.5162 23.6382 32.6161C23.4579 33.7503 23.668 34.7662 24.0063 35.5542C24.3183 36.2807 24.7252 36.7863 24.9649 37.0568C25.2067 37.3297 25.4357 37.5352 25.4996 37.593L28.8544 33.8855ZM28.676 33.1942L32.5923 36.3028C32.2733 36.7046 31.7773 37.1781 31.0628 37.5311C30.33 37.893 29.5735 38.0258 28.8928 38.0068C27.702 37.9737 26.92 37.4796 26.8558 37.4415L29.4127 33.1447L31.9696 28.8479C31.652 28.6589 30.6119 28.0508 29.1712 28.0107C27.3065 27.9588 25.7409 28.8496 24.7598 30.0857L28.676 33.1942ZM29.4127 33.1447L26.8558 37.4415C27.3974 37.7637 28.5038 38.47 30.0092 38.9718L31.5903 34.2283L33.1713 29.4849C32.8768 29.3867 32.7153 29.2917 31.9696 28.8479L29.4127 33.1447ZM31.5903 34.2283L35.6038 31.2464C35.1683 30.6602 34.1795 29.1914 32.7043 28.1005L29.7314 32.1207L26.7585 36.1409C26.7022 36.0993 26.7243 36.0996 26.8602 36.2628C26.9312 36.348 27.0186 36.4595 27.1414 36.6231C27.2822 36.8105 27.3847 36.9517 27.5767 37.2102L31.5903 34.2283ZM29.7314 32.1207L32.7043 28.1005C32.5439 27.9819 32.6492 28.0578 32.7377 28.1327C32.8317 28.2123 33.1908 28.5194 33.5305 29.0497C33.9088 29.6399 34.3208 30.6048 34.2418 31.8284C34.1646 33.0258 33.6546 33.8796 33.2833 34.3431L29.3813 31.2167L25.4793 28.0902C24.9383 28.7654 24.3512 29.8113 24.2626 31.1845C24.1723 32.5839 24.6388 33.7082 25.1108 34.4449C25.5444 35.1215 26.0365 35.5619 26.2763 35.7648C26.4132 35.8807 26.5338 35.9734 26.6112 36.0317C26.6509 36.0616 26.6862 36.0876 26.71 36.1052C26.743 36.1295 26.7432 36.1296 26.7586 36.1409L29.7314 32.1207ZM29.3813 31.2167L33.2833 34.343C32.9157 34.8018 32.2131 35.4653 31.0998 35.8053C29.9632 36.1523 28.9574 35.9922 28.3037 35.7729C27.7173 35.5762 27.3382 35.3093 27.2441 35.2426C27.1697 35.1899 27.0543 35.0973 27.2417 35.2467L30.3588 31.3372L33.4758 27.4277C33.4707 27.4237 33.4654 27.4194 33.4421 27.4007C33.4235 27.3857 33.3917 27.3601 33.3563 27.3319C33.2867 27.2768 33.1706 27.1861 33.0285 27.0853C32.7785 26.9081 32.237 26.5447 31.4841 26.2921C30.6639 26.017 29.4877 25.8417 28.1793 26.2412C26.8943 26.6336 26.0186 27.4171 25.4793 28.0903L29.3813 31.2167ZM30.3588 31.3372L27.2417 35.2467C27.5123 35.4624 27.6792 35.603 27.802 35.7179C27.9197 35.8281 27.9395 35.8623 27.9167 35.8311C27.8872 35.7907 27.8136 35.6783 27.7519 35.5028C27.6878 35.3206 27.6662 35.155 27.6657 35.0412L32.6656 35.0173L37.6656 34.9935C37.645 30.6717 34.616 28.3368 33.4758 27.4277L30.3588 31.3372Z" fill="#3B1502" mask="url(#path-10-inside-5_664_4835)"/>
<mask id="path-12-inside-6_664_4835" fill="white">
<path d="M35.198 30.8723C35.0187 31.9986 34.1068 31.6553 33.4979 31.8553C32.9801 32.0253 32.4243 31.9113 31.9004 31.7479C31.6663 31.6748 31.4475 31.5278 31.4829 31.2367C31.5181 30.9467 31.7552 30.8869 32.0062 30.8535C32.5899 30.7758 33.2015 31.0248 33.8589 30.742C33.1498 29.7351 31.7842 30.0901 31.0135 29.2113C32.598 28.4734 34.5248 29.2545 35.198 30.8723Z"/>
</mask>
<path d="M35.198 30.8723C35.0187 31.9986 34.1068 31.6553 33.4979 31.8553C32.9801 32.0253 32.4243 31.9113 31.9004 31.7479C31.6663 31.6748 31.4475 31.5278 31.4829 31.2367C31.5181 30.9467 31.7552 30.8869 32.0062 30.8535C32.5899 30.7758 33.2015 31.0248 33.8589 30.742C33.1498 29.7351 31.7842 30.0901 31.0135 29.2113C32.598 28.4734 34.5248 29.2545 35.198 30.8723Z" fill="#3B1502"/>
<path d="M35.198 30.8723L40.1358 31.6584L40.3586 30.2593L39.8143 28.9513L35.198 30.8723ZM33.4979 31.8553L31.938 27.1048L31.9379 27.1049L33.4979 31.8553ZM31.9004 31.7479L30.4111 36.5209L30.4113 36.521L31.9004 31.7479ZM31.4829 31.2367L36.4464 31.8394L36.4464 31.8393L31.4829 31.2367ZM32.0062 30.8535L32.6654 35.8098L32.6657 35.8098L32.0062 30.8535ZM33.8589 30.742L35.8346 35.3352L41.4943 32.9007L37.947 27.8633L33.8589 30.742ZM31.0135 29.2113L28.9026 24.6787L22.8571 27.4942L27.2543 32.5081L31.0135 29.2113ZM35.198 30.8723L30.2602 30.0862C30.3241 29.6847 30.5457 28.8589 31.2802 28.0687C32.0267 27.2657 32.8707 26.9646 33.3196 26.8547C33.6443 26.7752 33.9454 26.7645 33.6072 26.7908C33.491 26.7998 32.7421 26.8408 31.938 27.1048L33.4979 31.8553L35.0578 36.6057C34.5581 36.7698 34.1516 36.7787 34.3832 36.7606C34.3928 36.7599 35.0473 36.7271 35.6985 36.5676C36.4739 36.3777 37.6176 35.9388 38.6045 34.8772C39.5795 33.8283 39.9823 32.6231 40.1358 31.6584L35.198 30.8723ZM33.4979 31.8553L31.9379 27.1049C32.5121 26.9163 32.9812 26.9291 33.2128 26.9529C33.4224 26.9744 33.5148 27.0139 33.3896 26.9748L31.9004 31.7479L30.4113 36.521C31.0704 36.7266 32.9468 37.299 35.0579 36.6057L33.4979 31.8553ZM31.9004 31.7479L33.3897 26.9749C33.6597 27.0591 34.4425 27.3304 35.1854 28.0989C35.5913 28.5188 35.9824 29.0868 36.2289 29.8044C36.4771 30.5266 36.5204 31.2305 36.4464 31.8394L31.4829 31.2367L26.5193 30.634C26.3137 32.3276 26.9056 33.9216 27.9958 35.0493C28.8978 35.9823 29.907 36.3636 30.4111 36.5209L31.9004 31.7479ZM31.4829 31.2367L36.4464 31.8393C36.3747 32.4303 36.167 33.1349 35.7118 33.8216C35.2565 34.5086 34.6895 34.9726 34.1808 35.269C33.702 35.548 33.2841 35.6741 33.0608 35.7311C32.837 35.7883 32.6734 35.8088 32.6654 35.8098L32.0062 30.8535L31.347 25.8971C31.2109 25.9152 30.1877 26.0219 29.1464 26.6287C27.7205 27.4595 26.7285 28.9108 26.5193 30.6341L31.4829 31.2367ZM32.0062 30.8535L32.6657 35.8098C32.51 35.8305 32.3856 35.8361 32.306 35.8374C32.2658 35.838 32.2346 35.8376 32.2144 35.8371C32.1944 35.8366 32.1827 35.8359 32.1825 35.8359C32.1822 35.8359 32.184 35.836 32.1886 35.8363C32.1931 35.8366 32.1997 35.837 32.2091 35.8377C32.2297 35.8392 32.2533 35.8409 32.2927 35.844C32.3582 35.849 32.4878 35.8592 32.6262 35.8669C33.2035 35.8991 34.4446 35.9331 35.8346 35.3352L33.8589 30.742L31.8832 26.1489C32.2376 25.9965 32.5668 25.9267 32.8227 25.8983C33.056 25.8724 33.2098 25.8839 33.1836 25.8825C33.1679 25.8816 33.1447 25.88 33.0583 25.8733C32.9904 25.8681 32.8583 25.8578 32.7164 25.8502C32.4344 25.8351 31.9359 25.8188 31.3467 25.8972L32.0062 30.8535ZM33.8589 30.742L37.947 27.8633C36.4623 25.7548 34.2652 25.2416 33.8038 25.1128C33.4018 25.0005 33.5216 25.0276 33.6526 25.0837C33.8804 25.1813 34.3414 25.4228 34.7726 25.9145L31.0135 29.2113L27.2543 32.5081C28.0709 33.4392 28.9917 33.9659 29.7144 34.2756C30.3404 34.5438 30.9904 34.7097 31.1148 34.7444C31.7061 34.9096 30.5464 34.7223 29.7708 33.6208L33.8589 30.742ZM31.0135 29.2113L33.1244 33.7439C32.0461 34.246 30.9641 33.7121 30.5817 32.7933L35.198 30.8723L39.8143 28.9513C38.0855 24.797 33.1498 22.7008 28.9026 24.6787L31.0135 29.2113Z" fill="#3B1502" mask="url(#path-12-inside-6_664_4835)"/>
<mask id="path-14-inside-7_664_4835" fill="white">
<path d="M2.42671 13.5862C3.32419 14.207 4.36052 14.4543 5.13721 15.1238C5.06643 15.6069 4.66205 15.4862 4.3638 15.4411C3.21394 15.2674 2.17017 14.7646 1.19756 14.1384C0.740734 13.8443 0.272887 13.4348 0.398085 12.8693C0.512132 12.3541 1.0444 12.2777 1.53599 12.211C3.29599 11.9723 4.40546 12.3619 5.00853 13.4572C4.19668 13.9366 3.15103 12.9611 2.42671 13.5862Z"/>
</mask>
<path d="M2.42671 13.5862C3.32419 14.207 4.36052 14.4543 5.13721 15.1238C5.06643 15.6069 4.66205 15.4862 4.3638 15.4411C3.21394 15.2674 2.17017 14.7646 1.19756 14.1384C0.740734 13.8443 0.272887 13.4348 0.398085 12.8693C0.512132 12.3541 1.0444 12.2777 1.53599 12.211C3.29599 11.9723 4.40546 12.3619 5.00853 13.4572C4.19668 13.9366 3.15103 12.9611 2.42671 13.5862Z" fill="#3B1502"/>
<path d="M2.42671 13.5862L-0.840059 9.80091L-5.73138 14.0222L-0.417964 17.6981L2.42671 13.5862ZM5.13721 15.1238L10.0844 15.8487L10.4827 13.1303L8.40171 11.3366L5.13721 15.1238ZM4.3638 15.4411L3.61688 20.385L3.61694 20.385L4.3638 15.4411ZM1.19756 14.1384L3.90426 9.93438L3.90418 9.93433L1.19756 14.1384ZM0.398085 12.8693L-4.48373 11.7885L-4.48373 11.7886L0.398085 12.8693ZM1.53599 12.211L0.863889 7.2564L0.863831 7.2564L1.53599 12.211ZM5.00853 13.4572L7.55065 17.7628L11.7287 15.2959L9.38853 11.0457L5.00853 13.4572ZM2.42671 13.5862L-0.417964 17.6981C0.441395 18.2926 1.36625 18.7027 1.67682 18.8507C2.14649 19.0744 2.04477 19.0594 1.87271 18.911L5.13721 15.1238L8.40171 11.3366C7.45296 10.5188 6.44473 10.0453 5.97769 9.82282C5.67496 9.67861 5.55155 9.62233 5.40404 9.54656C5.28491 9.48538 5.25685 9.46418 5.27139 9.47424L2.42671 13.5862ZM5.13721 15.1238L0.190026 14.3989C0.272991 13.8327 0.541484 12.8572 1.38424 11.9601C2.259 11.0289 3.2932 10.6689 4.01243 10.5488C4.64682 10.4429 5.12815 10.5056 5.21962 10.517C5.2881 10.5255 5.33277 10.5335 5.30721 10.5292C5.30209 10.5283 5.29652 10.5274 5.2856 10.5255C5.27621 10.5239 5.26169 10.5215 5.24629 10.5189C5.21612 10.5139 5.16738 10.5058 5.11066 10.4972L4.3638 15.4411L3.61694 20.385C3.32323 20.3407 3.88346 20.4278 3.98141 20.44C4.23479 20.4716 4.87757 20.5427 5.65918 20.4122C6.52564 20.2676 7.69284 19.8499 8.67265 18.8069C9.62045 17.798 9.96603 16.6564 10.0844 15.8487L5.13721 15.1238ZM4.3638 15.4411L5.11072 10.4972C4.92596 10.4693 4.56233 10.3581 3.90426 9.93438L1.19756 14.1384L-1.50915 18.3424C-0.222002 19.1711 1.50191 20.0655 3.61688 20.385L4.3638 15.4411ZM1.19756 14.1384L3.90418 9.93433C3.90487 9.93478 3.91993 9.94446 3.94539 9.96276C3.97065 9.98091 4.01258 10.0122 4.06603 10.0568C4.16298 10.1377 4.35821 10.3124 4.57003 10.5929C4.78617 10.8792 5.06153 11.3319 5.22998 11.95C5.40661 12.598 5.42635 13.2885 5.2799 13.95L0.398085 12.8693L-4.48373 11.7886C-4.94012 13.8501 -4.20992 15.56 -3.41091 16.6183C-2.71519 17.5398 -1.88859 18.0981 -1.50906 18.3425L1.19756 14.1384ZM0.398085 12.8693L5.2799 13.95C5.12666 14.6422 4.78652 15.3391 4.24771 15.9293C3.73752 16.4883 3.19647 16.7913 2.83871 16.9487C2.49534 17.0998 2.23248 17.1552 2.16416 17.1691C2.09902 17.1823 2.06576 17.1849 2.20814 17.1656L1.53599 12.211L0.863831 7.2564C0.776648 7.26823 -0.216615 7.368 -1.18779 7.79521C-2.47589 8.36183 -4.00154 9.61048 -4.48373 11.7885L0.398085 12.8693ZM1.53599 12.211L2.20808 17.1656C2.65767 17.1046 2.48764 17.2079 2.02487 17.0427C1.76673 16.9506 1.47071 16.7926 1.19081 16.5509C0.91362 16.3115 0.734234 16.0608 0.628519 15.8688L5.00853 13.4572L9.38853 11.0457C8.52298 9.47362 7.1577 8.25706 5.38735 7.62499C3.77908 7.05079 2.1743 7.07863 0.863889 7.2564L1.53599 12.211ZM5.00853 13.4572L2.46641 9.15173C3.38958 8.60666 4.26135 8.57493 4.68333 8.60189C4.97131 8.62029 5.21526 8.68987 4.82124 8.59791C4.65338 8.55873 3.8514 8.35348 2.92892 8.37057C1.81072 8.39129 0.40464 8.72671 -0.840059 9.80091L2.42671 13.5862L5.69349 17.3714C5.29781 17.7129 4.83381 17.9793 4.33275 18.1509C3.84685 18.3174 3.41937 18.3632 3.11414 18.3688C2.8207 18.3743 2.61042 18.3429 2.53765 18.331C2.47084 18.32 2.44334 18.3117 2.54835 18.3362C2.60503 18.3494 2.82973 18.4036 3.04364 18.4464C3.27653 18.4931 3.62853 18.5549 4.04562 18.5815C4.91463 18.637 6.22155 18.5475 7.55065 17.7628L5.00853 13.4572Z" fill="#3B1502" mask="url(#path-14-inside-7_664_4835)"/>
<mask id="path-16-inside-8_664_4835" fill="white">
<path d="M32.8118 26.8243C32.93 26.8114 33.0535 26.8024 33.1702 26.7768C33.2848 26.7521 33.4022 26.6959 33.4975 26.627C33.5962 26.558 33.6636 26.4862 33.7355 26.3871C33.7567 26.3563 33.8159 26.2588 33.7989 26.2174C33.7454 26.0904 33.6087 26.0115 33.4773 25.9571C33.432 25.9384 33.387 25.9231 33.3469 25.9083C33.1232 25.8329 32.8884 25.8834 32.6616 25.9064C32.5348 25.9192 32.4102 25.9226 32.2848 25.9445C32.179 25.9644 32.0703 26.0121 31.977 26.068C31.8967 26.1172 31.8221 26.1775 31.7598 26.2496C31.7212 26.2972 31.6475 26.3801 31.6622 26.448C31.6757 26.5103 31.7362 26.5749 31.783 26.6149C31.8802 26.6981 31.9811 26.7519 32.0998 26.7959C32.3321 26.8835 32.5723 26.8489 32.8118 26.8243Z"/>
</mask>
<path d="M32.8118 26.8243C32.93 26.8114 33.0535 26.8024 33.1702 26.7768C33.2848 26.7521 33.4022 26.6959 33.4975 26.627C33.5962 26.558 33.6636 26.4862 33.7355 26.3871C33.7567 26.3563 33.8159 26.2588 33.7989 26.2174C33.7454 26.0904 33.6087 26.0115 33.4773 25.9571C33.432 25.9384 33.387 25.9231 33.3469 25.9083C33.1232 25.8329 32.8884 25.8834 32.6616 25.9064C32.5348 25.9192 32.4102 25.9226 32.2848 25.9445C32.179 25.9644 32.0703 26.0121 31.977 26.068C31.8967 26.1172 31.8221 26.1775 31.7598 26.2496C31.7212 26.2972 31.6475 26.3801 31.6622 26.448C31.6757 26.5103 31.7362 26.5749 31.783 26.6149C31.8802 26.6981 31.9811 26.7519 32.0998 26.7959C32.3321 26.8835 32.5723 26.8489 32.8118 26.8243Z" fill="#3B1502"/>
<path d="M32.8118 26.8243L32.9138 27.819L32.9201 27.8183L32.8118 26.8243ZM33.1702 26.7768L32.9594 25.7994L32.9561 25.8001L33.1702 26.7768ZM33.4975 26.627L32.9243 25.8077L32.918 25.8121L32.9117 25.8167L33.4975 26.627ZM33.7355 26.3871L34.5452 26.9738L34.5515 26.9651L34.5575 26.9564L33.7355 26.3871ZM33.7989 26.2174L34.7237 25.8366L34.7205 25.8291L33.7989 26.2174ZM33.3469 25.9083L33.695 24.9708L33.6809 24.9656L33.6666 24.9608L33.3469 25.9083ZM32.6616 25.9064L32.762 26.9012L32.7622 26.9012L32.6616 25.9064ZM32.2848 25.9445L32.1124 24.9595L32.1007 24.9617L32.2848 25.9445ZM31.977 26.068L31.4631 25.2102L31.4541 25.2157L31.977 26.068ZM31.7598 26.2496L31.0034 25.5955L30.9927 25.6079L30.9824 25.6206L31.7598 26.2496ZM31.6622 26.448L30.6845 26.6588L30.6849 26.6605L31.6622 26.448ZM31.783 26.6149L32.4332 25.8551L32.433 25.8549L31.783 26.6149ZM32.0998 26.7959L32.4528 25.8602L32.4474 25.8583L32.0998 26.7959ZM32.8118 26.8243L32.9201 27.8183C32.9878 27.811 33.1985 27.7943 33.3843 27.7535L33.1702 26.7768L32.9561 25.8001C32.9086 25.8105 32.8722 25.8119 32.7035 25.8303L32.8118 26.8243ZM33.1702 26.7768L33.381 27.7543C33.6497 27.6963 33.8927 27.5751 34.0832 27.4374L33.4975 26.627L32.9117 25.8167C32.9161 25.8135 32.9183 25.8123 32.9208 25.8112C32.9225 25.8104 32.926 25.8089 32.9317 25.8069C32.9372 25.805 32.9464 25.8022 32.9594 25.7994L33.1702 26.7768ZM33.4975 26.627L34.0707 27.4464C34.2803 27.2997 34.4237 27.1414 34.5452 26.9738L33.7355 26.3871L32.9258 25.8003C32.9097 25.8224 32.9065 25.8245 32.9121 25.8187C32.9149 25.8159 32.9181 25.8129 32.9214 25.8101C32.9245 25.8075 32.9259 25.8066 32.9243 25.8077L33.4975 26.627ZM33.7355 26.3871L34.5575 26.9564C34.5913 26.9076 34.6442 26.824 34.6904 26.7233C34.713 26.6741 34.75 26.5868 34.7747 26.477C34.7925 26.3983 34.8467 26.1355 34.7237 25.8366L33.7989 26.2174L32.8741 26.5982C32.8123 26.4481 32.8015 26.3151 32.8019 26.2313C32.8022 26.1458 32.8143 26.0783 32.8236 26.0372C32.8414 25.9583 32.8654 25.905 32.8727 25.8892C32.8882 25.8553 32.9009 25.8358 32.9134 25.8178L33.7355 26.3871ZM33.7989 26.2174L34.7205 25.8291C34.4983 25.3016 34.008 25.0945 33.8599 25.0332L33.4773 25.9571L33.0946 26.881C33.1226 26.8926 33.1068 26.8894 33.0722 26.8638C33.0366 26.8374 32.9413 26.7577 32.8772 26.6057L33.7989 26.2174ZM33.4773 25.9571L33.8599 25.0332C33.7927 25.0054 33.6974 24.9717 33.695 24.9708L33.3469 25.9083L32.9988 26.8457C33.0135 26.8512 33.0276 26.8563 33.0384 26.8602C33.0504 26.8645 33.0585 26.8674 33.0671 26.8705C33.0836 26.8766 33.091 26.8795 33.0946 26.881L33.4773 25.9571ZM33.3469 25.9083L33.6666 24.9608C33.389 24.8672 33.1343 24.8623 32.9527 24.8719C32.8136 24.8793 32.5899 24.9086 32.561 24.9115L32.6616 25.9064L32.7622 26.9012C32.8298 26.8944 32.9092 26.8843 32.9503 26.8794C33.002 26.8733 33.0337 26.8703 33.0581 26.869C33.1066 26.8664 33.0811 26.874 33.0272 26.8558L33.3469 25.9083ZM32.6616 25.9064L32.5612 24.9115C32.5362 24.914 32.2797 24.9303 32.1124 24.9596L32.2848 25.9445L32.4571 26.9295C32.5407 26.9149 32.5335 26.9243 32.762 26.9012L32.6616 25.9064ZM32.2848 25.9445L32.1007 24.9617C31.8446 25.0097 31.6236 25.1141 31.4631 25.2102L31.977 26.068L32.4908 26.9258C32.4947 26.9235 32.4983 26.9215 32.5014 26.9199C32.5029 26.9192 32.5041 26.9186 32.505 26.9182C32.5059 26.9178 32.5064 26.9176 32.5064 26.9176C32.5064 26.9176 32.5058 26.9178 32.5045 26.9183C32.5033 26.9187 32.5013 26.9194 32.4984 26.9203C32.493 26.9219 32.4831 26.9247 32.4688 26.9274L32.2848 25.9445ZM31.977 26.068L31.4541 25.2157C31.3006 25.3099 31.1431 25.434 31.0034 25.5955L31.7598 26.2496L32.5161 26.9036C32.5085 26.9125 32.5025 26.9178 32.4997 26.9201C32.497 26.9224 32.4968 26.9222 32.4998 26.9203L31.977 26.068ZM31.7598 26.2496L30.9824 25.6206C30.9783 25.6256 30.9805 25.6229 30.969 25.637C30.9613 25.6464 30.95 25.6604 30.9373 25.6767C30.9131 25.7077 30.8753 25.7581 30.8368 25.8213C30.7906 25.8972 30.5913 26.2263 30.6845 26.6588L31.6622 26.448L32.6398 26.2372C32.6818 26.4323 32.6508 26.5924 32.6232 26.6838C32.5959 26.7743 32.5606 26.8357 32.5452 26.8611C32.522 26.8991 32.4907 26.9359 32.5371 26.8786L31.7598 26.2496ZM31.6622 26.448L30.6849 26.6605C30.7376 26.9029 30.8584 27.0743 30.9228 27.1565C30.997 27.2512 31.0742 27.3247 31.1329 27.3749L31.783 26.6149L32.433 25.8549C32.4449 25.8651 32.4685 25.8863 32.4974 25.9231C32.5127 25.9427 32.5363 25.9753 32.5609 26.021C32.5848 26.0654 32.6182 26.1381 32.6394 26.2356L31.6622 26.448ZM31.783 26.6149L31.1327 27.3746C31.3383 27.5506 31.5487 27.6581 31.7522 27.7335L32.0998 26.7959L32.4474 25.8583C32.4263 25.8505 32.4209 25.847 32.4235 25.8485C32.4247 25.8491 32.4268 25.8504 32.4291 25.852C32.4315 25.8537 32.4329 25.8549 32.4332 25.8551L31.783 26.6149ZM32.0998 26.7959L31.7468 27.7315C32.2476 27.9203 32.7575 27.8351 32.9138 27.819L32.8118 26.8243L32.7097 25.8296C32.6359 25.8372 32.5947 25.842 32.5435 25.8466C32.4981 25.8506 32.4683 25.8521 32.4468 25.8523C32.4055 25.8525 32.4185 25.8473 32.4527 25.8603L32.0998 26.7959Z" fill="#3B1502" mask="url(#path-16-inside-8_664_4835)"/>
<mask id="path-18-inside-9_664_4835" fill="white">
<path d="M27.1915 35.2065C27.2314 35.2613 27.2697 35.316 27.3112 35.3693C27.4188 35.508 27.5211 35.6656 27.6662 35.7706C27.8065 35.8722 27.978 35.9336 28.1529 35.9302L28.1545 35.9303C28.1548 35.9192 28.155 35.9081 28.1553 35.8971C28.159 35.7565 28.1197 35.6163 28.0546 35.4929C28.0258 35.4384 27.9955 35.3839 27.9554 35.337C27.9416 35.3192 27.9261 35.303 27.9123 35.2853C27.8554 35.2111 27.8002 35.1353 27.7418 35.0611C27.7002 35.0079 27.6636 34.9516 27.6253 34.8968C27.5778 34.8276 27.5301 34.771 27.4713 34.7094C27.4141 34.6495 27.3421 34.6065 27.2701 34.5635C27.1951 34.5189 27.1053 34.4881 27.0183 34.4748C27.0183 34.4748 27.0167 34.4747 27.0151 34.4763C26.9629 34.6504 26.9898 34.8377 27.0634 35.0008C27.0964 35.076 27.1424 35.1404 27.1899 35.2065L27.1915 35.2065Z"/>
</mask>
<path d="M27.1915 35.2065C27.2314 35.2613 27.2697 35.316 27.3112 35.3693C27.4188 35.508 27.5211 35.6656 27.6662 35.7706C27.8065 35.8722 27.978 35.9336 28.1529 35.9302L28.1545 35.9303C28.1548 35.9192 28.155 35.9081 28.1553 35.8971C28.159 35.7565 28.1197 35.6163 28.0546 35.4929C28.0258 35.4384 27.9955 35.3839 27.9554 35.337C27.9416 35.3192 27.9261 35.303 27.9123 35.2853C27.8554 35.2111 27.8002 35.1353 27.7418 35.0611C27.7002 35.0079 27.6636 34.9516 27.6253 34.8968C27.5778 34.8276 27.5301 34.771 27.4713 34.7094C27.4141 34.6495 27.3421 34.6065 27.2701 34.5635C27.1951 34.5189 27.1053 34.4881 27.0183 34.4748C27.0183 34.4748 27.0167 34.4747 27.0151 34.4763C26.9629 34.6504 26.9898 34.8377 27.0634 35.0008C27.0964 35.076 27.1424 35.1404 27.1899 35.2065L27.1915 35.2065Z" fill="#3B1502"/>
<path d="M27.1915 35.2065L28 34.618L27.71 34.2196L27.2175 34.2068L27.1915 35.2065ZM27.3112 35.3693L28.1014 34.7565L28.0999 34.7545L27.3112 35.3693ZM27.6662 35.7706L28.2528 34.9607L28.2524 34.9604L27.6662 35.7706ZM28.1529 35.9302L28.1788 34.9306L28.1562 34.93L28.1336 34.9304L28.1529 35.9302ZM28.1545 35.9303L28.1285 36.9299L29.1282 36.9559L29.1541 35.9562L28.1545 35.9303ZM28.0546 35.4929L28.9391 35.0263L28.939 35.0261L28.0546 35.4929ZM27.9554 35.337L27.1667 35.9518L27.1806 35.9696L27.1953 35.9868L27.9554 35.337ZM27.9123 35.2853L27.1185 35.8935L27.1236 35.9001L27.9123 35.2853ZM27.7418 35.0611L26.9531 35.6759L26.956 35.6796L27.7418 35.0611ZM27.6253 34.8968L26.8005 35.4623L26.8059 35.47L27.6253 34.8968ZM27.2701 34.5635L27.7829 33.705L27.7811 33.7039L27.2701 34.5635ZM27.0183 34.4748L27.1696 33.4863L27.1076 33.4768L27.0448 33.4751L27.0183 34.4748ZM27.0151 34.4763L26.3283 33.7494L26.1339 33.9331L26.0571 34.1893L27.0151 34.4763ZM27.0634 35.0008L27.9791 34.5988L27.9749 34.5896L27.0634 35.0008ZM27.1899 35.2065L26.3782 35.7906L26.668 36.1933L27.164 36.2061L27.1899 35.2065ZM27.1915 35.2065L26.383 35.795C26.4082 35.8297 26.4675 35.9136 26.5225 35.9841L27.3112 35.3693L28.0999 34.7545C28.0718 34.7185 28.0546 34.6929 28 34.618L27.1915 35.2065ZM27.3112 35.3693L26.521 35.9821C26.5523 36.0225 26.7827 36.3656 27.0799 36.5807L27.6662 35.7706L28.2524 34.9604C28.2789 34.9796 28.2797 34.9874 28.2486 34.9493C28.2337 34.9311 28.2164 34.9087 28.1911 34.8751C28.1696 34.8465 28.1346 34.7992 28.1014 34.7565L27.3112 35.3693ZM27.6662 35.7706L27.0795 36.5804C27.3722 36.7925 27.7527 36.9381 28.1721 36.93L28.1529 35.9302L28.1336 34.9304C28.1696 34.9297 28.197 34.9358 28.2149 34.9418C28.2324 34.9477 28.2444 34.9546 28.2528 34.9607L27.6662 35.7706ZM28.1529 35.9302L28.1269 36.9299L28.1285 36.9299L28.1545 35.9303L28.1804 34.9306L28.1788 34.9306L28.1529 35.9302ZM28.1545 35.9303L29.1541 35.9562C29.1541 35.9562 29.1541 35.9561 29.1541 35.9561C29.1541 35.9561 29.1541 35.9561 29.1541 35.9561C29.1541 35.956 29.1541 35.956 29.1541 35.956C29.1541 35.956 29.1541 35.9559 29.1541 35.9559C29.1541 35.9559 29.1541 35.9559 29.1541 35.9559C29.1541 35.9558 29.1541 35.9558 29.1541 35.9558C29.1541 35.9558 29.1541 35.9558 29.1541 35.9557C29.1541 35.9557 29.1541 35.9557 29.1541 35.9557C29.1541 35.9556 29.1541 35.9556 29.1541 35.9556C29.1541 35.9556 29.1541 35.9556 29.1541 35.9555C29.1541 35.9555 29.1541 35.9555 29.1541 35.9555C29.1541 35.9555 29.1541 35.9554 29.1541 35.9554C29.1542 35.9554 29.1542 35.9554 29.1542 35.9553C29.1542 35.9553 29.1542 35.9553 29.1542 35.9553C29.1542 35.9553 29.1542 35.9552 29.1542 35.9552C29.1542 35.9552 29.1542 35.9552 29.1542 35.9551C29.1542 35.9551 29.1542 35.9551 29.1542 35.9551C29.1542 35.9551 29.1542 35.955 29.1542 35.955C29.1542 35.955 29.1542 35.955 29.1542 35.955C29.1542 35.9549 29.1542 35.9549 29.1542 35.9549C29.1542 35.9549 29.1542 35.9548 29.1542 35.9548C29.1542 35.9548 29.1542 35.9548 29.1542 35.9548C29.1542 35.9547 29.1542 35.9547 29.1542 35.9547C29.1542 35.9547 29.1542 35.9547 29.1542 35.9546C29.1542 35.9546 29.1542 35.9546 29.1542 35.9546C29.1542 35.9545 29.1542 35.9545 29.1542 35.9545C29.1542 35.9545 29.1542 35.9545 29.1542 35.9544C29.1542 35.9544 29.1542 35.9544 29.1542 35.9544C29.1542 35.9544 29.1542 35.9543 29.1542 35.9543C29.1542 35.9543 29.1542 35.9543 29.1542 35.9542C29.1542 35.9542 29.1542 35.9542 29.1542 35.9542C29.1542 35.9542 29.1542 35.9541 29.1542 35.9541C29.1542 35.9541 29.1542 35.9541 29.1542 35.954C29.1542 35.954 29.1542 35.954 29.1542 35.954C29.1542 35.954 29.1542 35.9539 29.1542 35.9539C29.1542 35.9539 29.1542 35.9539 29.1542 35.9539C29.1542 35.9538 29.1542 35.9538 29.1542 35.9538C29.1542 35.9538 29.1542 35.9537 29.1542 35.9537C29.1542 35.9537 29.1542 35.9537 29.1542 35.9537C29.1542 35.9536 29.1542 35.9536 29.1542 35.9536C29.1542 35.9536 29.1542 35.9536 29.1542 35.9535C29.1542 35.9535 29.1542 35.9535 29.1542 35.9535C29.1542 35.9534 29.1542 35.9534 29.1542 35.9534C29.1542 35.9534 29.1542 35.9534 29.1542 35.9533C29.1542 35.9533 29.1542 35.9533 29.1542 35.9533C29.1542 35.9532 29.1542 35.9532 29.1542 35.9532C29.1542 35.9532 29.1542 35.9532 29.1542 35.9531C29.1542 35.9531 29.1542 35.9531 29.1542 35.9531C29.1542 35.9531 29.1542 35.953 29.1542 35.953C29.1542 35.953 29.1542 35.953 29.1542 35.9529C29.1542 35.9529 29.1542 35.9529 29.1542 35.9529C29.1542 35.9529 29.1542 35.9528 29.1542 35.9528C29.1542 35.9528 29.1542 35.9528 29.1542 35.9528C29.1542 35.9527 29.1542 35.9527 29.1542 35.9527C29.1542 35.9527 29.1542 35.9526 29.1542 35.9526C29.1542 35.9526 29.1542 35.9526 29.1542 35.9526C29.1542 35.9525 29.1542 35.9525 29.1542 35.9525C29.1542 35.9525 29.1542 35.9524 29.1542 35.9524C29.1542 35.9524 29.1542 35.9524 29.1542 35.9524C29.1542 35.9523 29.1542 35.9523 29.1542 35.9523C29.1542 35.9523 29.1542 35.9523 29.1542 35.9522C29.1542 35.9522 29.1542 35.9522 29.1542 35.9522C29.1542 35.9521 29.1542 35.9521 29.1542 35.9521C29.1542 35.9521 29.1542 35.9521 29.1542 35.952C29.1542 35.952 29.1542 35.952 29.1542 35.952C29.1542 35.952 29.1542 35.9519 29.1542 35.9519C29.1542 35.9519 29.1542 35.9519 29.1542 35.9518C29.1542 35.9518 29.1542 35.9518 29.1542 35.9518C29.1542 35.9518 29.1542 35.9517 29.1542 35.9517C29.1542 35.9517 29.1542 35.9517 29.1542 35.9517C29.1542 35.9516 29.1542 35.9516 29.1542 35.9516C29.1542 35.9516 29.1543 35.9515 29.1543 35.9515C29.1543 35.9515 29.1543 35.9515 29.1543 35.9515C29.1543 35.9514 29.1543 35.9514 29.1543 35.9514C29.1543 35.9514 29.1543 35.9513 29.1543 35.9513C29.1543 35.9513 29.1543 35.9513 29.1543 35.9513C29.1543 35.9512 29.1543 35.9512 29.1543 35.9512C29.1543 35.9512 29.1543 35.9512 29.1543 35.9511C29.1543 35.9511 29.1543 35.9511 29.1543 35.9511C29.1543 35.951 29.1543 35.951 29.1543 35.951C29.1543 35.951 29.1543 35.951 29.1543 35.9509C29.1543 35.9509 29.1543 35.9509 29.1543 35.9509C29.1543 35.9509 29.1543 35.9508 29.1543 35.9508C29.1543 35.9508 29.1543 35.9508 29.1543 35.9507C29.1543 35.9507 29.1543 35.9507 29.1543 35.9507C29.1543 35.9507 29.1543 35.9506 29.1543 35.9506C29.1543 35.9506 29.1543 35.9506 29.1543 35.9505C29.1543 35.9505 29.1543 35.9505 29.1543 35.9505C29.1543 35.9505 29.1543 35.9504 29.1543 35.9504C29.1543 35.9504 29.1543 35.9504 29.1543 35.9504C29.1543 35.9503 29.1543 35.9503 29.1543 35.9503C29.1543 35.9503 29.1543 35.9502 29.1543 35.9502C29.1543 35.9502 29.1543 35.9502 29.1543 35.9502C29.1543 35.9501 29.1543 35.9501 29.1543 35.9501C29.1543 35.9501 29.1543 35.9501 29.1543 35.95C29.1543 35.95 29.1543 35.95 29.1543 35.95C29.1543 35.9499 29.1543 35.9499 29.1543 35.9499C29.1543 35.9499 29.1543 35.9499 29.1543 35.9498C29.1543 35.9498 29.1543 35.9498 29.1543 35.9498C29.1543 35.9498 29.1543 35.9497 29.1543 35.9497C29.1543 35.9497 29.1543 35.9497 29.1543 35.9496C29.1543 35.9496 29.1543 35.9496 29.1543 35.9496C29.1543 35.9496 29.1543 35.9495 29.1543 35.9495C29.1543 35.9495 29.1543 35.9495 29.1543 35.9494C29.1543 35.9494 29.1543 35.9494 29.1543 35.9494C29.1543 35.9494 29.1543 35.9493 29.1543 35.9493C29.1543 35.9493 29.1543 35.9493 29.1543 35.9493C29.1543 35.9492 29.1543 35.9492 29.1543 35.9492C29.1543 35.9492 29.1543 35.9491 29.1543 35.9491C29.1543 35.9491 29.1543 35.9491 29.1543 35.9491C29.1543 35.949 29.1543 35.949 29.1543 35.949C29.1543 35.949 29.1543 35.949 29.1543 35.9489C29.1543 35.9489 29.1543 35.9489 29.1543 35.9489C29.1543 35.9488 29.1543 35.9488 29.1543 35.9488C29.1543 35.9488 29.1543 35.9488 29.1543 35.9487C29.1543 35.9487 29.1543 35.9487 29.1543 35.9487C29.1543 35.9486 29.1543 35.9486 29.1543 35.9486C29.1543 35.9486 29.1543 35.9486 29.1543 35.9485C29.1543 35.9485 29.1543 35.9485 29.1543 35.9485C29.1543 35.9485 29.1543 35.9484 29.1543 35.9484C29.1543 35.9484 29.1543 35.9484 29.1543 35.9483C29.1543 35.9483 29.1543 35.9483 29.1543 35.9483C29.1543 35.9483 29.1543 35.9482 29.1543 35.9482C29.1543 35.9482 29.1543 35.9482 29.1543 35.9482C29.1543 35.9481 29.1543 35.9481 29.1543 35.9481C29.1543 35.9481 29.1543 35.948 29.1543 35.948C29.1543 35.948 29.1543 35.948 29.1543 35.948C29.1543 35.9479 29.1543 35.9479 29.1543 35.9479C29.1543 35.9479 29.1543 35.9478 29.1543 35.9478C29.1543 35.9478 29.1543 35.9478 29.1543 35.9478C29.1543 35.9477 29.1543 35.9477 29.1544 35.9477C29.1544 35.9477 29.1544 35.9477 29.1544 35.9476C29.1544 35.9476 29.1544 35.9476 29.1544 35.9476C29.1544 35.9475 29.1544 35.9475 29.1544 35.9475C29.1544 35.9475 29.1544 35.9475 29.1544 35.9474C29.1544 35.9474 29.1544 35.9474 29.1544 35.9474C29.1544 35.9474 29.1544 35.9473 29.1544 35.9473C29.1544 35.9473 29.1544 35.9473 29.1544 35.9472C29.1544 35.9472 29.1544 35.9472 29.1544 35.9472C29.1544 35.9472 29.1544 35.9471 29.1544 35.9471C29.1544 35.9471 29.1544 35.9471 29.1544 35.9471C29.1544 35.947 29.1544 35.947 29.1544 35.947C29.1544 35.947 29.1544 35.9469 29.1544 35.9469C29.1544 35.9469 29.1544 35.9469 29.1544 35.9469C29.1544 35.9468 29.1544 35.9468 29.1544 35.9468C29.1544 35.9468 29.1544 35.9467 29.1544 35.9467C29.1544 35.9467 29.1544 35.9467 29.1544 35.9467C29.1544 35.9466 29.1544 35.9466 29.1544 35.9466C29.1544 35.9466 29.1544 35.9466 29.1544 35.9465C29.1544 35.9465 29.1544 35.9465 29.1544 35.9465C29.1544 35.9464 29.1544 35.9464 29.1544 35.9464C29.1544 35.9464 29.1544 35.9464 29.1544 35.9463C29.1544 35.9463 29.1544 35.9463 29.1544 35.9463C29.1544 35.9463 29.1544 35.9462 29.1544 35.9462C29.1544 35.9462 29.1544 35.9462 29.1544 35.9461C29.1544 35.9461 29.1544 35.9461 29.1544 35.9461C29.1544 35.9461 29.1544 35.946 29.1544 35.946C29.1544 35.946 29.1544 35.946 29.1544 35.9459C29.1544 35.9459 29.1544 35.9459 29.1544 35.9459C29.1544 35.9459 29.1544 35.9458 29.1544 35.9458C29.1544 35.9458 29.1544 35.9458 29.1544 35.9458C29.1544 35.9457 29.1544 35.9457 29.1544 35.9457C29.1544 35.9457 29.1544 35.9456 29.1544 35.9456C29.1544 35.9456 29.1544 35.9456 29.1544 35.9456C29.1544 35.9455 29.1544 35.9455 29.1544 35.9455C29.1544 35.9455 29.1544 35.9455 29.1544 35.9454C29.1544 35.9454 29.1544 35.9454 29.1544 35.9454C29.1544 35.9453 29.1544 35.9453 29.1544 35.9453C29.1544 35.9453 29.1544 35.9453 29.1544 35.9452C29.1544 35.9452 29.1544 35.9452 29.1544 35.9452C29.1544 35.9451 29.1544 35.9451 29.1544 35.9451C29.1544 35.9451 29.1544 35.9451 29.1544 35.945C29.1544 35.945 29.1544 35.945 29.1544 35.945C29.1544 35.945 29.1544 35.9449 29.1544 35.9449C29.1544 35.9449 29.1544 35.9449 29.1544 35.9448C29.1544 35.9448 29.1544 35.9448 29.1544 35.9448C29.1544 35.9448 29.1544 35.9447 29.1544 35.9447C29.1544 35.9447 29.1544 35.9447 29.1544 35.9447C29.1544 35.9446 29.1544 35.9446 29.1544 35.9446C29.1544 35.9446 29.1544 35.9445 29.1544 35.9445C29.1544 35.9445 29.1544 35.9445 29.1544 35.9445C29.1544 35.9444 29.1544 35.9444 29.1544 35.9444C29.1544 35.9444 29.1544 35.9444 29.1544 35.9443C29.1544 35.9443 29.1544 35.9443 29.1544 35.9443C29.1544 35.9442 29.1544 35.9442 29.1544 35.9442C29.1544 35.9442 29.1544 35.9442 29.1544 35.9441C29.1544 35.9441 29.1544 35.9441 29.1544 35.9441C29.1544 35.944 29.1544 35.944 29.1544 35.944C29.1544 35.944 29.1544 35.944 29.1544 35.9439C29.1544 35.9439 29.1544 35.9439 29.1544 35.9439C29.1544 35.9439 29.1545 35.9438 29.1545 35.9438C29.1545 35.9438 29.1545 35.9438 29.1545 35.9437C29.1545 35.9437 29.1545 35.9437 29.1545 35.9437C29.1545 35.9437 29.1545 35.9436 29.1545 35.9436C29.1545 35.9436 29.1545 35.9436 29.1545 35.9436C29.1545 35.9435 29.1545 35.9435 29.1545 35.9435C29.1545 35.9435 29.1545 35.9434 29.1545 35.9434C29.1545 35.9434 29.1545 35.9434 29.1545 35.9434C29.1545 35.9433 29.1545 35.9433 29.1545 35.9433C29.1545 35.9433 29.1545 35.9432 29.1545 35.9432C29.1545 35.9432 29.1545 35.9432 29.1545 35.9432C29.1545 35.9431 29.1545 35.9431 29.1545 35.9431C29.1545 35.9431 29.1545 35.9431 29.1545 35.943C29.1545 35.943 29.1545 35.943 29.1545 35.943C29.1545 35.9429 29.1545 35.9429 29.1545 35.9429C29.1545 35.9429 29.1545 35.9429 29.1545 35.9428C29.1545 35.9428 29.1545 35.9428 29.1545 35.9428C29.1545 35.9428 29.1545 35.9427 29.1545 35.9427C29.1545 35.9427 29.1545 35.9427 29.1545 35.9426C29.1545 35.9426 29.1545 35.9426 29.1545 35.9426C29.1545 35.9426 29.1545 35.9425 29.1545 35.9425C29.1545 35.9425 29.1545 35.9425 29.1545 35.9424C29.1545 35.9424 29.1545 35.9424 29.1545 35.9424C29.1545 35.9424 29.1545 35.9423 29.1545 35.9423C29.1545 35.9423 29.1545 35.9423 29.1545 35.9423C29.1545 35.9422 29.1545 35.9422 29.1545 35.9422C29.1545 35.9422 29.1545 35.9421 29.1545 35.9421C29.1545 35.9421 29.1545 35.9421 29.1545 35.9421C29.1545 35.942 29.1545 35.942 29.1545 35.942C29.1545 35.942 29.1545 35.942 29.1545 35.9419C29.1545 35.9419 29.1545 35.9419 29.1545 35.9419C29.1545 35.9418 29.1545 35.9418 29.1545 35.9418C29.1545 35.9418 29.1545 35.9418 29.1545 35.9417C29.1545 35.9417 29.1545 35.9417 29.1545 35.9417C29.1545 35.9417 29.1545 35.9416 29.1545 35.9416C29.1545 35.9416 29.1545 35.9416 29.1545 35.9415C29.1545 35.9415 29.1545 35.9415 29.1545 35.9415C29.1545 35.9415 29.1545 35.9414 29.1545 35.9414C29.1545 35.9414 29.1545 35.9414 29.1545 35.9413C29.1545 35.9413 29.1545 35.9413 29.1545 35.9413C29.1545 35.9413 29.1545 35.9412 29.1545 35.9412C29.1545 35.9412 29.1545 35.9412 29.1545 35.9412C29.1545 35.9411 29.1545 35.9411 29.1545 35.9411C29.1545 35.9411 29.1545 35.941 29.1545 35.941C29.1545 35.941 29.1545 35.941 29.1545 35.941C29.1545 35.9409 29.1545 35.9409 29.1545 35.9409C29.1545 35.9409 29.1545 35.9409 29.1545 35.9408C29.1545 35.9408 29.1545 35.9408 29.1545 35.9408C29.1545 35.9407 29.1545 35.9407 29.1545 35.9407C29.1545 35.9407 29.1545 35.9407 29.1545 35.9406C29.1545 35.9406 29.1545 35.9406 29.1545 35.9406C29.1545 35.9405 29.1545 35.9405 29.1545 35.9405C29.1545 35.9405 29.1545 35.9405 29.1545 35.9404C29.1545 35.9404 29.1545 35.9404 29.1545 35.9404C29.1545 35.9404 29.1545 35.9403 29.1545 35.9403C29.1545 35.9403 29.1545 35.9403 29.1545 35.9402C29.1545 35.9402 29.1545 35.9402 29.1545 35.9402C29.1545 35.9402 29.1545 35.9401 29.1545 35.9401C29.1545 35.9401 29.1545 35.9401 29.1545 35.9401C29.1545 35.94 29.1545 35.94 29.1546 35.94C29.1546 35.94 29.1546 35.9399 29.1546 35.9399C29.1546 35.9399 29.1546 35.9399 29.1546 35.9399C29.1546 35.9398 29.1546 35.9398 29.1546 35.9398C29.1546 35.9398 29.1546 35.9397 29.1546 35.9397C29.1546 35.9397 29.1546 35.9397 29.1546 35.9397C29.1546 35.9396 29.1546 35.9396 29.1546 35.9396C29.1546 35.9396 29.1546 35.9396 29.1546 35.9395C29.1546 35.9395 29.1546 35.9395 29.1546 35.9395C29.1546 35.9394 29.1546 35.9394 29.1546 35.9394C29.1546 35.9394 29.1546 35.9394 29.1546 35.9393C29.1546 35.9393 29.1546 35.9393 29.1546 35.9393C29.1546 35.9393 29.1546 35.9392 29.1546 35.9392C29.1546 35.9392 29.1546 35.9392 29.1546 35.9391C29.1546 35.9391 29.1546 35.9391 29.1546 35.9391C29.1546 35.9391 29.1546 35.939 29.1546 35.939C29.1546 35.939 29.1546 35.939 29.1546 35.939C29.1546 35.9389 29.1546 35.9389 29.1546 35.9389C29.1546 35.9389 29.1546 35.9388 29.1546 35.9388C29.1546 35.9388 29.1546 35.9388 29.1546 35.9388C29.1546 35.9387 29.1546 35.9387 29.1546 35.9387C29.1546 35.9387 29.1546 35.9386 29.1546 35.9386C29.1546 35.9386 29.1546 35.9386 29.1546 35.9386C29.1546 35.9385 29.1546 35.9385 29.1546 35.9385C29.1546 35.9385 29.1546 35.9385 29.1546 35.9384C29.1546 35.9384 29.1546 35.9384 29.1546 35.9384C29.1546 35.9383 29.1546 35.9383 29.1546 35.9383C29.1546 35.9383 29.1546 35.9383 29.1546 35.9382C29.1546 35.9382 29.1546 35.9382 29.1546 35.9382C29.1546 35.9382 29.1546 35.9381 29.1546 35.9381C29.1546 35.9381 29.1546 35.9381 29.1546 35.938C29.1546 35.938 29.1546 35.938 29.1546 35.938C29.1546 35.938 29.1546 35.9379 29.1546 35.9379C29.1546 35.9379 29.1546 35.9379 29.1546 35.9378C29.1546 35.9378 29.1546 35.9378 29.1546 35.9378C29.1546 35.9378 29.1546 35.9377 29.1546 35.9377C29.1546 35.9377 29.1546 35.9377 29.1546 35.9377C29.1546 35.9376 29.1546 35.9376 29.1546 35.9376C29.1546 35.9376 29.1546 35.9375 29.1546 35.9375C29.1546 35.9375 29.1546 35.9375 29.1546 35.9375C29.1546 35.9374 29.1546 35.9374 29.1546 35.9374C29.1546 35.9374 29.1546 35.9374 29.1546 35.9373C29.1546 35.9373 29.1546 35.9373 29.1546 35.9373C29.1546 35.9372 29.1546 35.9372 29.1546 35.9372C29.1546 35.9372 29.1546 35.9372 29.1546 35.9371C29.1546 35.9371 29.1546 35.9371 29.1546 35.9371C29.1546 35.9371 29.1546 35.937 29.1546 35.937C29.1546 35.937 29.1546 35.937 29.1546 35.9369C29.1546 35.9369 29.1546 35.9369 29.1546 35.9369C29.1546 35.9369 29.1546 35.9368 29.1546 35.9368C29.1546 35.9368 29.1546 35.9368 29.1546 35.9367C29.1546 35.9367 29.1546 35.9367 29.1546 35.9367C29.1546 35.9367 29.1546 35.9366 29.1546 35.9366C29.1546 35.9366 29.1546 35.9366 29.1546 35.9366C29.1546 35.9365 29.1546 35.9365 29.1546 35.9365C29.1546 35.9365 29.1546 35.9364 29.1546 35.9364C29.1546 35.9364 29.1546 35.9364 29.1546 35.9364C29.1546 35.9363 29.1546 35.9363 29.1546 35.9363C29.1546 35.9363 29.1546 35.9363 29.1546 35.9362C29.1546 35.9362 29.1546 35.9362 29.1546 35.9362C29.1546 35.9361 29.1547 35.9361 29.1547 35.9361C29.1547 35.9361 29.1547 35.9361 29.1547 35.936C29.1547 35.936 29.1547 35.936 29.1547 35.936C29.1547 35.9359 29.1547 35.9359 29.1547 35.9359C29.1547 35.9359 29.1547 35.9359 29.1547 35.9358C29.1547 35.9358 29.1547 35.9358 29.1547 35.9358C29.1547 35.9358 29.1547 35.9357 29.1547 35.9357C29.1547 35.9357 29.1547 35.9357 29.1547 35.9356C29.1547 35.9356 29.1547 35.9356 29.1547 35.9356C29.1547 35.9356 29.1547 35.9355 29.1547 35.9355C29.1547 35.9355 29.1547 35.9355 29.1547 35.9355C29.1547 35.9354 29.1547 35.9354 29.1547 35.9354C29.1547 35.9354 29.1547 35.9353 29.1547 35.9353C29.1547 35.9353 29.1547 35.9353 29.1547 35.9353C29.1547 35.9352 29.1547 35.9352 29.1547 35.9352C29.1547 35.9352 29.1547 35.9351 29.1547 35.9351C29.1547 35.9351 29.1547 35.9351 29.1547 35.9351C29.1547 35.935 29.1547 35.935 29.1547 35.935C29.1547 35.935 29.1547 35.935 29.1547 35.9349C29.1547 35.9349 29.1547 35.9349 29.1547 35.9349C29.1547 35.9348 29.1547 35.9348 29.1547 35.9348C29.1547 35.9348 29.1547 35.9348 29.1547 35.9347C29.1547 35.9347 29.1547 35.9347 29.1547 35.9347C29.1547 35.9347 29.1547 35.9346 29.1547 35.9346C29.1547 35.9346 29.1547 35.9346 29.1547 35.9345C29.1547 35.9345 29.1547 35.9345 29.1547 35.9345C29.1547 35.9345 29.1547 35.9344 29.1547 35.9344C29.1547 35.9344 29.1547 35.9344 29.1547 35.9344C29.1547 35.9343 29.1547 35.9343 29.1547 35.9343C29.1547 35.9343 29.1547 35.9342 29.1547 35.9342C29.1547 35.9342 29.1547 35.9342 29.1547 35.9342C29.1547 35.9341 29.1547 35.9341 29.1547 35.9341C29.1547 35.9341 29.1547 35.934 29.1547 35.934C29.1547 35.934 29.1547 35.934 29.1547 35.934C29.1547 35.9339 29.1547 35.9339 29.1547 35.9339C29.1547 35.9339 29.1547 35.9339 29.1547 35.9338C29.1547 35.9338 29.1547 35.9338 29.1547 35.9338C29.1547 35.9337 29.1547 35.9337 29.1547 35.9337C29.1547 35.9337 29.1547 35.9337 29.1547 35.9336C29.1547 35.9336 29.1547 35.9336 29.1547 35.9336C29.1547 35.9336 29.1547 35.9335 29.1547 35.9335C29.1547 35.9335 29.1547 35.9335 29.1547 35.9334C29.1547 35.9334 29.1547 35.9334 29.1547 35.9334C29.1547 35.9334 29.1547 35.9333 29.1547 35.9333C29.1547 35.9333 29.1547 35.9333 29.1547 35.9332C29.1547 35.9332 29.1547 35.9332 29.1547 35.9332C29.1547 35.9332 29.1547 35.9331 29.1547 35.9331C29.1547 35.9331 29.1547 35.9331 29.1547 35.9331C29.1547 35.933 29.1547 35.933 29.1547 35.933C29.1547 35.933 29.1547 35.9329 29.1547 35.9329C29.1547 35.9329 29.1547 35.9329 29.1547 35.9329C29.1547 35.9328 29.1547 35.9328 29.1547 35.9328C29.1547 35.9328 29.1547 35.9328 29.1547 35.9327C29.1547 35.9327 29.1547 35.9327 29.1547 35.9327C29.1547 35.9326 29.1547 35.9326 29.1547 35.9326C29.1547 35.9326 29.1547 35.9326 29.1547 35.9325C29.1547 35.9325 29.1547 35.9325 29.1547 35.9325C29.1547 35.9324 29.1547 35.9324 29.1547 35.9324C29.1547 35.9324 29.1547 35.9324 29.1547 35.9323C29.1547 35.9323 29.1547 35.9323 29.1548 35.9323C29.1548 35.9323 29.1548 35.9322 29.1548 35.9322C29.1548 35.9322 29.1548 35.9322 29.1548 35.9321C29.1548 35.9321 29.1548 35.9321 29.1548 35.9321C29.1548 35.9321 29.1548 35.932 29.1548 35.932C29.1548 35.932 29.1548 35.932 29.1548 35.932C29.1548 35.9319 29.1548 35.9319 29.1548 35.9319C29.1548 35.9319 29.1548 35.9318 29.1548 35.9318C29.1548 35.9318 29.1548 35.9318 29.1548 35.9318C29.1548 35.9317 29.1548 35.9317 29.1548 35.9317C29.1548 35.9317 29.1548 35.9317 29.1548 35.9316C29.1548 35.9316 29.1548 35.9316 29.1548 35.9316C29.1548 35.9315 29.1548 35.9315 29.1548 35.9315C29.1548 35.9315 29.1548 35.9315 29.1548 35.9314C29.1548 35.9314 29.1548 35.9314 29.1548 35.9314C29.1548 35.9313 29.1548 35.9313 29.1548 35.9313C29.1548 35.9313 29.1548 35.9313 29.1548 35.9312C29.1548 35.9312 29.1548 35.9312 29.1548 35.9312C29.1548 35.9312 29.1548 35.9311 29.1548 35.9311C29.1548 35.9311 29.1548 35.9311 29.1548 35.931C29.1548 35.931 29.1548 35.931 29.1548 35.931C29.1548 35.931 29.1548 35.9309 29.1548 35.9309C29.1548 35.9309 29.1548 35.9309 29.1548 35.9309C29.1548 35.9308 29.1548 35.9308 29.1548 35.9308C29.1548 35.9308 29.1548 35.9307 29.1548 35.9307C29.1548 35.9307 29.1548 35.9307 29.1548 35.9307C29.1548 35.9306 29.1548 35.9306 29.1548 35.9306C29.1548 35.9306 29.1548 35.9305 29.1548 35.9305C29.1548 35.9305 29.1548 35.9305 29.1548 35.9305C29.1548 35.9304 29.1548 35.9304 29.1548 35.9304C29.1548 35.9304 29.1548 35.9304 29.1548 35.9303C29.1548 35.9303 29.1548 35.9303 29.1548 35.9303C29.1548 35.9302 29.1548 35.9302 29.1548 35.9302C29.1548 35.9302 29.1548 35.9302 29.1548 35.9301C29.1548 35.9301 29.1548 35.9301 29.1548 35.9301C29.1548 35.9301 29.1548 35.93 29.1548 35.93C29.1548 35.93 29.1548 35.93 29.1548 35.9299C29.1548 35.9299 29.1548 35.9299 29.1548 35.9299C29.1548 35.9299 29.1548 35.9298 29.1548 35.9298C29.1548 35.9298 29.1548 35.9298 29.1548 35.9297C29.1548 35.9297 29.1548 35.9297 29.1548 35.9297C29.1548 35.9297 29.1548 35.9296 29.1548 35.9296C29.1548 35.9296 29.1548 35.9296 29.1548 35.9296C29.1548 35.9295 29.1548 35.9295 29.1548 35.9295C29.1548 35.9295 29.1548 35.9294 29.1548 35.9294C29.1548 35.9294 29.1548 35.9294 29.1548 35.9294C29.1548 35.9293 29.1548 35.9293 29.1548 35.9293C29.1548 35.9293 29.1548 35.9293 29.1548 35.9292C29.1548 35.9292 29.1548 35.9292 29.1548 35.9292C29.1548 35.9291 29.1548 35.9291 29.1548 35.9291C29.1548 35.9291 29.1548 35.9291 29.1548 35.929C29.1548 35.929 29.1548 35.929 29.1548 35.929C29.1548 35.929 29.1548 35.9289 29.1548 35.9289C29.1548 35.9289 29.1548 35.9289 29.1548 35.9288C29.1548 35.9288 29.1548 35.9288 29.1548 35.9288C29.1548 35.9288 29.1548 35.9287 29.1548 35.9287C29.1548 35.9287 29.1548 35.9287 29.1548 35.9286C29.1548 35.9286 29.1548 35.9286 29.1548 35.9286C29.1548 35.9286 29.1548 35.9285 29.1548 35.9285C29.1548 35.9285 29.1548 35.9285 29.1548 35.9285C29.1549 35.9284 29.1549 35.9284 29.1549 35.9284C29.1549 35.9284 29.1549 35.9283 29.1549 35.9283C29.1549 35.9283 29.1549 35.9283 29.1549 35.9283C29.1549 35.9282 29.1549 35.9282 29.1549 35.9282C29.1549 35.9282 29.1549 35.9282 29.1549 35.9281C29.1549 35.9281 29.1549 35.9281 29.1549 35.9281C29.1549 35.928 29.1549 35.928 29.1549 35.928C29.1549 35.928 29.1549 35.928 29.1549 35.9279C29.1549 35.9279 29.1549 35.9279 29.1549 35.9279C29.1549 35.9278 29.1549 35.9278 29.1549 35.9278C29.1549 35.9278 29.1549 35.9278 29.1549 35.9277C29.1549 35.9277 29.1549 35.9277 29.1549 35.9277C29.1549 35.9277 29.1549 35.9276 29.1549 35.9276C29.1549 35.9276 29.1549 35.9276 29.1549 35.9275C29.1549 35.9275 29.1549 35.9275 29.1549 35.9275C29.1549 35.9275 29.1549 35.9274 29.1549 35.9274C29.1549 35.9274 29.1549 35.9274 29.1549 35.9274C29.1549 35.9273 29.1549 35.9273 29.1549 35.9273C29.1549 35.9273 29.1549 35.9272 29.1549 35.9272C29.1549 35.9272 29.1549 35.9272 29.1549 35.9272C29.1549 35.9271 29.1549 35.9271 29.1549 35.9271C29.1549 35.9271 29.1549 35.927 29.1549 35.927C29.1549 35.927 29.1549 35.927 29.1549 35.927C29.1549 35.9269 29.1549 35.9269 29.1549 35.9269C29.1549 35.9269 29.1549 35.9269 29.1549 35.9268C29.1549 35.9268 29.1549 35.9268 29.1549 35.9268C29.1549 35.9267 29.1549 35.9267 29.1549 35.9267C29.1549 35.9267 29.1549 35.9267 29.1549 35.9266C29.1549 35.9266 29.1549 35.9266 29.1549 35.9266C29.1549 35.9266 29.1549 35.9265 29.1549 35.9265C29.1549 35.9265 29.1549 35.9265 29.1549 35.9264C29.1549 35.9264 29.1549 35.9264 29.1549 35.9264C29.1549 35.9264 29.1549 35.9263 29.1549 35.9263C29.1549 35.9263 29.1549 35.9263 29.1549 35.9263C29.1549 35.9262 29.1549 35.9262 29.1549 35.9262C29.1549 35.9262 29.1549 35.9261 29.1549 35.9261C29.1549 35.9261 29.1549 35.9261 29.1549 35.9261C29.1549 35.926 29.1549 35.926 29.1549 35.926C29.1549 35.926 29.1549 35.9259 29.1549 35.9259C29.1549 35.9259 29.1549 35.9259 29.1549 35.9259C29.1549 35.9258 29.1549 35.9258 29.1549 35.9258C29.1549 35.9258 29.1549 35.9258 29.1549 35.9257C29.1549 35.9257 29.1549 35.9257 29.1549 35.9257C29.1549 35.9256 29.1549 35.9256 29.1549 35.9256C29.1549 35.9256 29.1549 35.9256 29.1549 35.9255C29.1549 35.9255 29.1549 35.9255 29.1549 35.9255C29.1549 35.9255 29.1549 35.9254 29.1549 35.9254C29.1549 35.9254 29.1549 35.9254 29.1549 35.9253C29.1549 35.9253 29.1549 35.9253 29.1549 35.9253C29.1549 35.9253 29.1549 35.9252 29.1549 35.9252C29.1549 35.9252 29.1549 35.9252 29.1549 35.9251C29.1549 35.9251 29.1549 35.9251 29.1549 35.9251C29.1549 35.9251 29.1549 35.925 29.1549 35.925C29.1549 35.925 29.1549 35.925 29.1549 35.925C29.1549 35.9249 29.1549 35.9249 29.1549 35.9249C29.1549 35.9249 29.1549 35.9248 29.1549 35.9248C29.1549 35.9248 29.1549 35.9248 29.1549 35.9248C29.1549 35.9247 29.1549 35.9247 29.1549 35.9247C29.1549 35.9247 29.1549 35.9247 29.1549 35.9246C29.1549 35.9246 29.1549 35.9246 29.155 35.9246C29.155 35.9245 29.155 35.9245 29.155 35.9245C29.155 35.9245 29.155 35.9245 29.155 35.9244C29.155 35.9244 29.155 35.9244 29.155 35.9244C29.155 35.9243 29.155 35.9243 29.155 35.9243C29.155 35.9243 29.155 35.9243 29.155 35.9242C29.155 35.9242 29.155 35.9242 29.155 35.9242C29.155 35.9242 29.155 35.9241 29.155 35.9241C29.155 35.9241 29.155 35.9241 29.155 35.924C29.155 35.924 29.155 35.924 29.155 35.924C29.155 35.924 29.155 35.9239 29.155 35.9239C29.155 35.9239 29.155 35.9239 29.155 35.9239C29.155 35.9238 29.155 35.9238 29.155 35.9238C29.155 35.9238 29.155 35.9237 29.155 35.9237C29.155 35.9237 29.155 35.9237 29.155 35.9237C29.155 35.9236 29.155 35.9236 29.155 35.9236C29.155 35.9236 29.155 35.9236 29.155 35.9235C29.155 35.9235 29.155 35.9235 29.155 35.9235C29.155 35.9234 29.155 35.9234 29.155 35.9234C29.155 35.9234 29.155 35.9234 29.155 35.9233C29.155 35.9233 29.155 35.9233 29.155 35.9233C29.155 35.9232 29.155 35.9232 29.155 35.9232C29.155 35.9232 29.155 35.9232 29.155 35.9231C29.155 35.9231 29.155 35.9231 29.155 35.9231C29.155 35.9231 29.155 35.923 29.155 35.923L28.1553 35.8971L27.1557 35.8712C27.1557 35.8712 27.1557 35.8712 27.1557 35.8712C27.1557 35.8712 27.1557 35.8713 27.1557 35.8713C27.1557 35.8713 27.1557 35.8713 27.1557 35.8713C27.1557 35.8714 27.1557 35.8714 27.1557 35.8714C27.1557 35.8714 27.1557 35.8715 27.1557 35.8715C27.1557 35.8715 27.1557 35.8715 27.1557 35.8715C27.1557 35.8716 27.1557 35.8716 27.1557 35.8716C27.1557 35.8716 27.1557 35.8716 27.1556 35.8717C27.1556 35.8717 27.1556 35.8717 27.1556 35.8717C27.1556 35.8718 27.1556 35.8718 27.1556 35.8718C27.1556 35.8718 27.1556 35.8718 27.1556 35.8719C27.1556 35.8719 27.1556 35.8719 27.1556 35.8719C27.1556 35.8719 27.1556 35.872 27.1556 35.872C27.1556 35.872 27.1556 35.872 27.1556 35.8721C27.1556 35.8721 27.1556 35.8721 27.1556 35.8721C27.1556 35.8721 27.1556 35.8722 27.1556 35.8722C27.1556 35.8722 27.1556 35.8722 27.1556 35.8723C27.1556 35.8723 27.1556 35.8723 27.1556 35.8723C27.1556 35.8723 27.1556 35.8724 27.1556 35.8724C27.1556 35.8724 27.1556 35.8724 27.1556 35.8724C27.1556 35.8725 27.1556 35.8725 27.1556 35.8725C27.1556 35.8725 27.1556 35.8726 27.1556 35.8726C27.1556 35.8726 27.1556 35.8726 27.1556 35.8726C27.1556 35.8727 27.1556 35.8727 27.1556 35.8727C27.1556 35.8727 27.1556 35.8727 27.1556 35.8728C27.1556 35.8728 27.1556 35.8728 27.1556 35.8728C27.1556 35.8729 27.1556 35.8729 27.1556 35.8729C27.1556 35.8729 27.1556 35.8729 27.1556 35.873C27.1556 35.873 27.1556 35.873 27.1556 35.873C27.1556 35.8731 27.1556 35.8731 27.1556 35.8731C27.1556 35.8731 27.1556 35.8731 27.1556 35.8732C27.1556 35.8732 27.1556 35.8732 27.1556 35.8732C27.1556 35.8732 27.1556 35.8733 27.1556 35.8733C27.1556 35.8733 27.1556 35.8733 27.1556 35.8734C27.1556 35.8734 27.1556 35.8734 27.1556 35.8734C27.1556 35.8734 27.1556 35.8735 27.1556 35.8735C27.1556 35.8735 27.1556 35.8735 27.1556 35.8735C27.1556 35.8736 27.1556 35.8736 27.1556 35.8736C27.1556 35.8736 27.1556 35.8737 27.1556 35.8737C27.1556 35.8737 27.1556 35.8737 27.1556 35.8737C27.1556 35.8738 27.1556 35.8738 27.1556 35.8738C27.1556 35.8738 27.1556 35.8739 27.1556 35.8739C27.1556 35.8739 27.1556 35.8739 27.1556 35.8739C27.1556 35.874 27.1556 35.874 27.1556 35.874C27.1556 35.874 27.1556 35.874 27.1556 35.8741C27.1556 35.8741 27.1556 35.8741 27.1556 35.8741C27.1556 35.8742 27.1556 35.8742 27.1556 35.8742C27.1556 35.8742 27.1556 35.8742 27.1556 35.8743C27.1556 35.8743 27.1556 35.8743 27.1556 35.8743C27.1556 35.8743 27.1556 35.8744 27.1556 35.8744C27.1556 35.8744 27.1556 35.8744 27.1556 35.8745C27.1556 35.8745 27.1556 35.8745 27.1556 35.8745C27.1556 35.8745 27.1556 35.8746 27.1556 35.8746C27.1556 35.8746 27.1556 35.8746 27.1556 35.8746C27.1556 35.8747 27.1556 35.8747 27.1556 35.8747C27.1556 35.8747 27.1556 35.8748 27.1556 35.8748C27.1556 35.8748 27.1556 35.8748 27.1556 35.8748C27.1556 35.8749 27.1556 35.8749 27.1556 35.8749C27.1556 35.8749 27.1556 35.875 27.1556 35.875C27.1556 35.875 27.1556 35.875 27.1556 35.875C27.1556 35.8751 27.1556 35.8751 27.1556 35.8751C27.1556 35.8751 27.1556 35.8751 27.1556 35.8752C27.1556 35.8752 27.1556 35.8752 27.1556 35.8752C27.1556 35.8753 27.1556 35.8753 27.1556 35.8753C27.1556 35.8753 27.1556 35.8753 27.1556 35.8754C27.1556 35.8754 27.1556 35.8754 27.1556 35.8754C27.1556 35.8754 27.1556 35.8755 27.1556 35.8755C27.1556 35.8755 27.1555 35.8755 27.1555 35.8756C27.1555 35.8756 27.1555 35.8756 27.1555 35.8756C27.1555 35.8756 27.1555 35.8757 27.1555 35.8757C27.1555 35.8757 27.1555 35.8757 27.1555 35.8758C27.1555 35.8758 27.1555 35.8758 27.1555 35.8758C27.1555 35.8758 27.1555 35.8759 27.1555 35.8759C27.1555 35.8759 27.1555 35.8759 27.1555 35.8759C27.1555 35.876 27.1555 35.876 27.1555 35.876C27.1555 35.876 27.1555 35.8761 27.1555 35.8761C27.1555 35.8761 27.1555 35.8761 27.1555 35.8761C27.1555 35.8762 27.1555 35.8762 27.1555 35.8762C27.1555 35.8762 27.1555 35.8762 27.1555 35.8763C27.1555 35.8763 27.1555 35.8763 27.1555 35.8763C27.1555 35.8764 27.1555 35.8764 27.1555 35.8764C27.1555 35.8764 27.1555 35.8764 27.1555 35.8765C27.1555 35.8765 27.1555 35.8765 27.1555 35.8765C27.1555 35.8766 27.1555 35.8766 27.1555 35.8766C27.1555 35.8766 27.1555 35.8766 27.1555 35.8767C27.1555 35.8767 27.1555 35.8767 27.1555 35.8767C27.1555 35.8767 27.1555 35.8768 27.1555 35.8768C27.1555 35.8768 27.1555 35.8768 27.1555 35.8769C27.1555 35.8769 27.1555 35.8769 27.1555 35.8769C27.1555 35.8769 27.1555 35.877 27.1555 35.877C27.1555 35.877 27.1555 35.877 27.1555 35.877C27.1555 35.8771 27.1555 35.8771 27.1555 35.8771C27.1555 35.8771 27.1555 35.8772 27.1555 35.8772C27.1555 35.8772 27.1555 35.8772 27.1555 35.8772C27.1555 35.8773 27.1555 35.8773 27.1555 35.8773C27.1555 35.8773 27.1555 35.8773 27.1555 35.8774C27.1555 35.8774 27.1555 35.8774 27.1555 35.8774C27.1555 35.8775 27.1555 35.8775 27.1555 35.8775C27.1555 35.8775 27.1555 35.8775 27.1555 35.8776C27.1555 35.8776 27.1555 35.8776 27.1555 35.8776C27.1555 35.8777 27.1555 35.8777 27.1555 35.8777C27.1555 35.8777 27.1555 35.8777 27.1555 35.8778C27.1555 35.8778 27.1555 35.8778 27.1555 35.8778C27.1555 35.8778 27.1555 35.8779 27.1555 35.8779C27.1555 35.8779 27.1555 35.8779 27.1555 35.878C27.1555 35.878 27.1555 35.878 27.1555 35.878C27.1555 35.878 27.1555 35.8781 27.1555 35.8781C27.1555 35.8781 27.1555 35.8781 27.1555 35.8781C27.1555 35.8782 27.1555 35.8782 27.1555 35.8782C27.1555 35.8782 27.1555 35.8783 27.1555 35.8783C27.1555 35.8783 27.1555 35.8783 27.1555 35.8783C27.1555 35.8784 27.1555 35.8784 27.1555 35.8784C27.1555 35.8784 27.1555 35.8785 27.1555 35.8785C27.1555 35.8785 27.1555 35.8785 27.1555 35.8785C27.1555 35.8786 27.1555 35.8786 27.1555 35.8786C27.1555 35.8786 27.1555 35.8786 27.1555 35.8787C27.1555 35.8787 27.1555 35.8787 27.1555 35.8787C27.1555 35.8788 27.1555 35.8788 27.1555 35.8788C27.1555 35.8788 27.1555 35.8788 27.1555 35.8789C27.1555 35.8789 27.1555 35.8789 27.1555 35.8789C27.1555 35.8789 27.1555 35.879 27.1555 35.879C27.1555 35.879 27.1555 35.879 27.1555 35.8791C27.1555 35.8791 27.1555 35.8791 27.1555 35.8791C27.1555 35.8791 27.1555 35.8792 27.1555 35.8792C27.1555 35.8792 27.1555 35.8792 27.1555 35.8792C27.1555 35.8793 27.1555 35.8793 27.1555 35.8793C27.1555 35.8793 27.1555 35.8794 27.1554 35.8794C27.1554 35.8794 27.1554 35.8794 27.1554 35.8794C27.1554 35.8795 27.1554 35.8795 27.1554 35.8795C27.1554 35.8795 27.1554 35.8796 27.1554 35.8796C27.1554 35.8796 27.1554 35.8796 27.1554 35.8796C27.1554 35.8797 27.1554 35.8797 27.1554 35.8797C27.1554 35.8797 27.1554 35.8797 27.1554 35.8798C27.1554 35.8798 27.1554 35.8798 27.1554 35.8798C27.1554 35.8799 27.1554 35.8799 27.1554 35.8799C27.1554 35.8799 27.1554 35.8799 27.1554 35.88C27.1554 35.88 27.1554 35.88 27.1554 35.88C27.1554 35.88 27.1554 35.8801 27.1554 35.8801C27.1554 35.8801 27.1554 35.8801 27.1554 35.8802C27.1554 35.8802 27.1554 35.8802 27.1554 35.8802C27.1554 35.8802 27.1554 35.8803 27.1554 35.8803C27.1554 35.8803 27.1554 35.8803 27.1554 35.8804C27.1554 35.8804 27.1554 35.8804 27.1554 35.8804C27.1554 35.8804 27.1554 35.8805 27.1554 35.8805C27.1554 35.8805 27.1554 35.8805 27.1554 35.8805C27.1554 35.8806 27.1554 35.8806 27.1554 35.8806C27.1554 35.8806 27.1554 35.8807 27.1554 35.8807C27.1554 35.8807 27.1554 35.8807 27.1554 35.8807C27.1554 35.8808 27.1554 35.8808 27.1554 35.8808C27.1554 35.8808 27.1554 35.8808 27.1554 35.8809C27.1554 35.8809 27.1554 35.8809 27.1554 35.8809C27.1554 35.881 27.1554 35.881 27.1554 35.881C27.1554 35.881 27.1554 35.881 27.1554 35.8811C27.1554 35.8811 27.1554 35.8811 27.1554 35.8811C27.1554 35.8812 27.1554 35.8812 27.1554 35.8812C27.1554 35.8812 27.1554 35.8812 27.1554 35.8813C27.1554 35.8813 27.1554 35.8813 27.1554 35.8813C27.1554 35.8813 27.1554 35.8814 27.1554 35.8814C27.1554 35.8814 27.1554 35.8814 27.1554 35.8815C27.1554 35.8815 27.1554 35.8815 27.1554 35.8815C27.1554 35.8815 27.1554 35.8816 27.1554 35.8816C27.1554 35.8816 27.1554 35.8816 27.1554 35.8816C27.1554 35.8817 27.1554 35.8817 27.1554 35.8817C27.1554 35.8817 27.1554 35.8818 27.1554 35.8818C27.1554 35.8818 27.1554 35.8818 27.1554 35.8818C27.1554 35.8819 27.1554 35.8819 27.1554 35.8819C27.1554 35.8819 27.1554 35.8819 27.1554 35.882C27.1554 35.882 27.1554 35.882 27.1554 35.882C27.1554 35.8821 27.1554 35.8821 27.1554 35.8821C27.1554 35.8821 27.1554 35.8821 27.1554 35.8822C27.1554 35.8822 27.1554 35.8822 27.1554 35.8822C27.1554 35.8823 27.1554 35.8823 27.1554 35.8823C27.1554 35.8823 27.1554 35.8823 27.1554 35.8824C27.1554 35.8824 27.1554 35.8824 27.1554 35.8824C27.1554 35.8824 27.1554 35.8825 27.1554 35.8825C27.1554 35.8825 27.1554 35.8825 27.1554 35.8826C27.1554 35.8826 27.1554 35.8826 27.1554 35.8826C27.1554 35.8826 27.1554 35.8827 27.1554 35.8827C27.1554 35.8827 27.1554 35.8827 27.1554 35.8827C27.1554 35.8828 27.1554 35.8828 27.1554 35.8828C27.1554 35.8828 27.1554 35.8829 27.1554 35.8829C27.1554 35.8829 27.1554 35.8829 27.1554 35.8829C27.1554 35.883 27.1554 35.883 27.1554 35.883C27.1554 35.883 27.1554 35.8831 27.1554 35.8831C27.1554 35.8831 27.1554 35.8831 27.1554 35.8831C27.1554 35.8832 27.1554 35.8832 27.1554 35.8832C27.1553 35.8832 27.1553 35.8832 27.1553 35.8833C27.1553 35.8833 27.1553 35.8833 27.1553 35.8833C27.1553 35.8834 27.1553 35.8834 27.1553 35.8834C27.1553 35.8834 27.1553 35.8834 27.1553 35.8835C27.1553 35.8835 27.1553 35.8835 27.1553 35.8835C27.1553 35.8835 27.1553 35.8836 27.1553 35.8836C27.1553 35.8836 27.1553 35.8836 27.1553 35.8837C27.1553 35.8837 27.1553 35.8837 27.1553 35.8837C27.1553 35.8837 27.1553 35.8838 27.1553 35.8838C27.1553 35.8838 27.1553 35.8838 27.1553 35.8839C27.1553 35.8839 27.1553 35.8839 27.1553 35.8839C27.1553 35.8839 27.1553 35.884 27.1553 35.884C27.1553 35.884 27.1553 35.884 27.1553 35.884C27.1553 35.8841 27.1553 35.8841 27.1553 35.8841C27.1553 35.8841 27.1553 35.8842 27.1553 35.8842C27.1553 35.8842 27.1553 35.8842 27.1553 35.8842C27.1553 35.8843 27.1553 35.8843 27.1553 35.8843C27.1553 35.8843 27.1553 35.8843 27.1553 35.8844C27.1553 35.8844 27.1553 35.8844 27.1553 35.8844C27.1553 35.8845 27.1553 35.8845 27.1553 35.8845C27.1553 35.8845 27.1553 35.8845 27.1553 35.8846C27.1553 35.8846 27.1553 35.8846 27.1553 35.8846C27.1553 35.8846 27.1553 35.8847 27.1553 35.8847C27.1553 35.8847 27.1553 35.8847 27.1553 35.8848C27.1553 35.8848 27.1553 35.8848 27.1553 35.8848C27.1553 35.8848 27.1553 35.8849 27.1553 35.8849C27.1553 35.8849 27.1553 35.8849 27.1553 35.885C27.1553 35.885 27.1553 35.885 27.1553 35.885C27.1553 35.885 27.1553 35.8851 27.1553 35.8851C27.1553 35.8851 27.1553 35.8851 27.1553 35.8851C27.1553 35.8852 27.1553 35.8852 27.1553 35.8852C27.1553 35.8852 27.1553 35.8853 27.1553 35.8853C27.1553 35.8853 27.1553 35.8853 27.1553 35.8853C27.1553 35.8854 27.1553 35.8854 27.1553 35.8854C27.1553 35.8854 27.1553 35.8854 27.1553 35.8855C27.1553 35.8855 27.1553 35.8855 27.1553 35.8855C27.1553 35.8856 27.1553 35.8856 27.1553 35.8856C27.1553 35.8856 27.1553 35.8856 27.1553 35.8857C27.1553 35.8857 27.1553 35.8857 27.1553 35.8857C27.1553 35.8858 27.1553 35.8858 27.1553 35.8858C27.1553 35.8858 27.1553 35.8858 27.1553 35.8859C27.1553 35.8859 27.1553 35.8859 27.1553 35.8859C27.1553 35.8859 27.1553 35.886 27.1553 35.886C27.1553 35.886 27.1553 35.886 27.1553 35.8861C27.1553 35.8861 27.1553 35.8861 27.1553 35.8861C27.1553 35.8861 27.1553 35.8862 27.1553 35.8862C27.1553 35.8862 27.1553 35.8862 27.1553 35.8862C27.1553 35.8863 27.1553 35.8863 27.1553 35.8863C27.1553 35.8863 27.1553 35.8864 27.1553 35.8864C27.1553 35.8864 27.1553 35.8864 27.1553 35.8864C27.1553 35.8865 27.1553 35.8865 27.1553 35.8865C27.1553 35.8865 27.1553 35.8866 27.1553 35.8866C27.1553 35.8866 27.1553 35.8866 27.1553 35.8866C27.1553 35.8867 27.1553 35.8867 27.1553 35.8867C27.1553 35.8867 27.1553 35.8867 27.1553 35.8868C27.1553 35.8868 27.1553 35.8868 27.1553 35.8868C27.1553 35.8869 27.1553 35.8869 27.1553 35.8869C27.1553 35.8869 27.1553 35.8869 27.1553 35.887C27.1553 35.887 27.1553 35.887 27.1553 35.887C27.1553 35.887 27.1553 35.8871 27.1552 35.8871C27.1552 35.8871 27.1552 35.8871 27.1552 35.8872C27.1552 35.8872 27.1552 35.8872 27.1552 35.8872C27.1552 35.8872 27.1552 35.8873 27.1552 35.8873C27.1552 35.8873 27.1552 35.8873 27.1552 35.8873C27.1552 35.8874 27.1552 35.8874 27.1552 35.8874C27.1552 35.8874 27.1552 35.8875 27.1552 35.8875C27.1552 35.8875 27.1552 35.8875 27.1552 35.8875C27.1552 35.8876 27.1552 35.8876 27.1552 35.8876C27.1552 35.8876 27.1552 35.8877 27.1552 35.8877C27.1552 35.8877 27.1552 35.8877 27.1552 35.8877C27.1552 35.8878 27.1552 35.8878 27.1552 35.8878C27.1552 35.8878 27.1552 35.8878 27.1552 35.8879C27.1552 35.8879 27.1552 35.8879 27.1552 35.8879C27.1552 35.888 27.1552 35.888 27.1552 35.888C27.1552 35.888 27.1552 35.888 27.1552 35.8881C27.1552 35.8881 27.1552 35.8881 27.1552 35.8881C27.1552 35.8881 27.1552 35.8882 27.1552 35.8882C27.1552 35.8882 27.1552 35.8882 27.1552 35.8883C27.1552 35.8883 27.1552 35.8883 27.1552 35.8883C27.1552 35.8883 27.1552 35.8884 27.1552 35.8884C27.1552 35.8884 27.1552 35.8884 27.1552 35.8885C27.1552 35.8885 27.1552 35.8885 27.1552 35.8885C27.1552 35.8885 27.1552 35.8886 27.1552 35.8886C27.1552 35.8886 27.1552 35.8886 27.1552 35.8886C27.1552 35.8887 27.1552 35.8887 27.1552 35.8887C27.1552 35.8887 27.1552 35.8888 27.1552 35.8888C27.1552 35.8888 27.1552 35.8888 27.1552 35.8888C27.1552 35.8889 27.1552 35.8889 27.1552 35.8889C27.1552 35.8889 27.1552 35.8889 27.1552 35.889C27.1552 35.889 27.1552 35.889 27.1552 35.889C27.1552 35.8891 27.1552 35.8891 27.1552 35.8891C27.1552 35.8891 27.1552 35.8891 27.1552 35.8892C27.1552 35.8892 27.1552 35.8892 27.1552 35.8892C27.1552 35.8893 27.1552 35.8893 27.1552 35.8893C27.1552 35.8893 27.1552 35.8893 27.1552 35.8894C27.1552 35.8894 27.1552 35.8894 27.1552 35.8894C27.1552 35.8894 27.1552 35.8895 27.1552 35.8895C27.1552 35.8895 27.1552 35.8895 27.1552 35.8896C27.1552 35.8896 27.1552 35.8896 27.1552 35.8896C27.1552 35.8896 27.1552 35.8897 27.1552 35.8897C27.1552 35.8897 27.1552 35.8897 27.1552 35.8897C27.1552 35.8898 27.1552 35.8898 27.1552 35.8898C27.1552 35.8898 27.1552 35.8899 27.1552 35.8899C27.1552 35.8899 27.1552 35.8899 27.1552 35.8899C27.1552 35.89 27.1552 35.89 27.1552 35.89C27.1552 35.89 27.1552 35.89 27.1552 35.8901C27.1552 35.8901 27.1552 35.8901 27.1552 35.8901C27.1552 35.8902 27.1552 35.8902 27.1552 35.8902C27.1552 35.8902 27.1552 35.8902 27.1552 35.8903C27.1552 35.8903 27.1552 35.8903 27.1552 35.8903C27.1552 35.8904 27.1552 35.8904 27.1552 35.8904C27.1552 35.8904 27.1552 35.8904 27.1552 35.8905C27.1552 35.8905 27.1552 35.8905 27.1552 35.8905C27.1552 35.8905 27.1552 35.8906 27.1552 35.8906C27.1552 35.8906 27.1552 35.8906 27.1552 35.8907C27.1552 35.8907 27.1552 35.8907 27.1552 35.8907C27.1552 35.8907 27.1552 35.8908 27.1552 35.8908C27.1552 35.8908 27.1552 35.8908 27.1552 35.8908C27.1552 35.8909 27.1552 35.8909 27.1552 35.8909C27.1551 35.8909 27.1551 35.891 27.1551 35.891C27.1551 35.891 27.1551 35.891 27.1551 35.891C27.1551 35.8911 27.1551 35.8911 27.1551 35.8911C27.1551 35.8911 27.1551 35.8912 27.1551 35.8912C27.1551 35.8912 27.1551 35.8912 27.1551 35.8912C27.1551 35.8913 27.1551 35.8913 27.1551 35.8913C27.1551 35.8913 27.1551 35.8913 27.1551 35.8914C27.1551 35.8914 27.1551 35.8914 27.1551 35.8914C27.1551 35.8915 27.1551 35.8915 27.1551 35.8915C27.1551 35.8915 27.1551 35.8915 27.1551 35.8916C27.1551 35.8916 27.1551 35.8916 27.1551 35.8916C27.1551 35.8916 27.1551 35.8917 27.1551 35.8917C27.1551 35.8917 27.1551 35.8917 27.1551 35.8918C27.1551 35.8918 27.1551 35.8918 27.1551 35.8918C27.1551 35.8918 27.1551 35.8919 27.1551 35.8919C27.1551 35.8919 27.1551 35.8919 27.1551 35.8919C27.1551 35.892 27.1551 35.892 27.1551 35.892C27.1551 35.892 27.1551 35.8921 27.1551 35.8921C27.1551 35.8921 27.1551 35.8921 27.1551 35.8921C27.1551 35.8922 27.1551 35.8922 27.1551 35.8922C27.1551 35.8922 27.1551 35.8923 27.1551 35.8923C27.1551 35.8923 27.1551 35.8923 27.1551 35.8923C27.1551 35.8924 27.1551 35.8924 27.1551 35.8924C27.1551 35.8924 27.1551 35.8924 27.1551 35.8925C27.1551 35.8925 27.1551 35.8925 27.1551 35.8925C27.1551 35.8926 27.1551 35.8926 27.1551 35.8926C27.1551 35.8926 27.1551 35.8926 27.1551 35.8927C27.1551 35.8927 27.1551 35.8927 27.1551 35.8927C27.1551 35.8927 27.1551 35.8928 27.1551 35.8928C27.1551 35.8928 27.1551 35.8928 27.1551 35.8929C27.1551 35.8929 27.1551 35.8929 27.1551 35.8929C27.1551 35.8929 27.1551 35.893 27.1551 35.893C27.1551 35.893 27.1551 35.893 27.1551 35.8931C27.1551 35.8931 27.1551 35.8931 27.1551 35.8931C27.1551 35.8931 27.1551 35.8932 27.1551 35.8932C27.1551 35.8932 27.1551 35.8932 27.1551 35.8932C27.1551 35.8933 27.1551 35.8933 27.1551 35.8933C27.1551 35.8933 27.1551 35.8934 27.1551 35.8934C27.1551 35.8934 27.1551 35.8934 27.1551 35.8934C27.1551 35.8935 27.1551 35.8935 27.1551 35.8935C27.1551 35.8935 27.1551 35.8935 27.1551 35.8936C27.1551 35.8936 27.1551 35.8936 27.1551 35.8936C27.1551 35.8937 27.1551 35.8937 27.1551 35.8937C27.1551 35.8937 27.1551 35.8937 27.1551 35.8938C27.1551 35.8938 27.1551 35.8938 27.1551 35.8938C27.1551 35.8939 27.1551 35.8939 27.1551 35.8939C27.1551 35.8939 27.1551 35.8939 27.1551 35.894C27.1551 35.894 27.1551 35.894 27.1551 35.894C27.1551 35.894 27.1551 35.8941 27.1551 35.8941C27.1551 35.8941 27.1551 35.8941 27.1551 35.8942C27.1551 35.8942 27.1551 35.8942 27.1551 35.8942C27.1551 35.8942 27.1551 35.8943 27.1551 35.8943C27.1551 35.8943 27.1551 35.8943 27.1551 35.8943C27.1551 35.8944 27.1551 35.8944 27.1551 35.8944C27.1551 35.8944 27.1551 35.8945 27.1551 35.8945C27.1551 35.8945 27.1551 35.8945 27.1551 35.8945C27.1551 35.8946 27.1551 35.8946 27.1551 35.8946C27.1551 35.8946 27.1551 35.8946 27.1551 35.8947C27.1551 35.8947 27.1551 35.8947 27.1551 35.8947C27.1551 35.8948 27.1551 35.8948 27.155 35.8948C27.155 35.8948 27.155 35.8948 27.155 35.8949C27.155 35.8949 27.155 35.8949 27.155 35.8949C27.155 35.895 27.155 35.895 27.155 35.895C27.155 35.895 27.155 35.895 27.155 35.8951C27.155 35.8951 27.155 35.8951 27.155 35.8951C27.155 35.8951 27.155 35.8952 27.155 35.8952C27.155 35.8952 27.155 35.8952 27.155 35.8953C27.155 35.8953 27.155 35.8953 27.155 35.8953C27.155 35.8953 27.155 35.8954 27.155 35.8954C27.155 35.8954 27.155 35.8954 27.155 35.8954C27.155 35.8955 27.155 35.8955 27.155 35.8955C27.155 35.8955 27.155 35.8956 27.155 35.8956C27.155 35.8956 27.155 35.8956 27.155 35.8956C27.155 35.8957 27.155 35.8957 27.155 35.8957C27.155 35.8957 27.155 35.8958 27.155 35.8958C27.155 35.8958 27.155 35.8958 27.155 35.8958C27.155 35.8959 27.155 35.8959 27.155 35.8959C27.155 35.8959 27.155 35.8959 27.155 35.896C27.155 35.896 27.155 35.896 27.155 35.896C27.155 35.8961 27.155 35.8961 27.155 35.8961C27.155 35.8961 27.155 35.8961 27.155 35.8962C27.155 35.8962 27.155 35.8962 27.155 35.8962C27.155 35.8962 27.155 35.8963 27.155 35.8963C27.155 35.8963 27.155 35.8963 27.155 35.8964C27.155 35.8964 27.155 35.8964 27.155 35.8964C27.155 35.8964 27.155 35.8965 27.155 35.8965C27.155 35.8965 27.155 35.8965 27.155 35.8966C27.155 35.8966 27.155 35.8966 27.155 35.8966C27.155 35.8966 27.155 35.8967 27.155 35.8967C27.155 35.8967 27.155 35.8967 27.155 35.8967C27.155 35.8968 27.155 35.8968 27.155 35.8968C27.155 35.8968 27.155 35.8969 27.155 35.8969C27.155 35.8969 27.155 35.8969 27.155 35.8969C27.155 35.897 27.155 35.897 27.155 35.897C27.155 35.897 27.155 35.897 27.155 35.8971C27.155 35.8971 27.155 35.8971 27.155 35.8971C27.155 35.8972 27.155 35.8972 27.155 35.8972C27.155 35.8972 27.155 35.8972 27.155 35.8973C27.155 35.8973 27.155 35.8973 27.155 35.8973C27.155 35.8973 27.155 35.8974 27.155 35.8974C27.155 35.8974 27.155 35.8974 27.155 35.8975C27.155 35.8975 27.155 35.8975 27.155 35.8975C27.155 35.8975 27.155 35.8976 27.155 35.8976C27.155 35.8976 27.155 35.8976 27.155 35.8977C27.155 35.8977 27.155 35.8977 27.155 35.8977C27.155 35.8977 27.155 35.8978 27.155 35.8978C27.155 35.8978 27.155 35.8978 27.155 35.8978C27.155 35.8979 27.155 35.8979 27.155 35.8979C27.155 35.8979 27.155 35.898 27.155 35.898C27.155 35.898 27.155 35.898 27.155 35.898C27.155 35.8981 27.155 35.8981 27.155 35.8981C27.155 35.8981 27.155 35.8981 27.155 35.8982C27.155 35.8982 27.155 35.8982 27.155 35.8982C27.155 35.8983 27.155 35.8983 27.155 35.8983C27.155 35.8983 27.155 35.8983 27.155 35.8984C27.155 35.8984 27.155 35.8984 27.155 35.8984C27.155 35.8985 27.155 35.8985 27.155 35.8985C27.155 35.8985 27.155 35.8985 27.155 35.8986C27.155 35.8986 27.155 35.8986 27.155 35.8986C27.1549 35.8986 27.1549 35.8987 27.1549 35.8987C27.1549 35.8987 27.1549 35.8987 27.1549 35.8988C27.1549 35.8988 27.1549 35.8988 27.1549 35.8988C27.1549 35.8988 27.1549 35.8989 27.1549 35.8989C27.1549 35.8989 27.1549 35.8989 27.1549 35.8989C27.1549 35.899 27.1549 35.899 27.1549 35.899C27.1549 35.899 27.1549 35.8991 27.1549 35.8991C27.1549 35.8991 27.1549 35.8991 27.1549 35.8991C27.1549 35.8992 27.1549 35.8992 27.1549 35.8992C27.1549 35.8992 27.1549 35.8993 27.1549 35.8993C27.1549 35.8993 27.1549 35.8993 27.1549 35.8993C27.1549 35.8994 27.1549 35.8994 27.1549 35.8994C27.1549 35.8994 27.1549 35.8994 27.1549 35.8995C27.1549 35.8995 27.1549 35.8995 27.1549 35.8995C27.1549 35.8996 27.1549 35.8996 27.1549 35.8996C27.1549 35.8996 27.1549 35.8996 27.1549 35.8997C27.1549 35.8997 27.1549 35.8997 27.1549 35.8997C27.1549 35.8997 27.1549 35.8998 27.1549 35.8998C27.1549 35.8998 27.1549 35.8998 27.1549 35.8999C27.1549 35.8999 27.1549 35.8999 27.1549 35.8999C27.1549 35.8999 27.1549 35.9 27.1549 35.9C27.1549 35.9 27.1549 35.9 27.1549 35.9C27.1549 35.9001 27.1549 35.9001 27.1549 35.9001C27.1549 35.9001 27.1549 35.9002 27.1549 35.9002C27.1549 35.9002 27.1549 35.9002 27.1549 35.9002C27.1549 35.9003 27.1549 35.9003 27.1549 35.9003C27.1549 35.9003 27.1549 35.9004 27.1549 35.9004C27.1549 35.9004 27.1549 35.9004 27.1549 35.9004C27.1549 35.9005 27.1549 35.9005 27.1549 35.9005C27.1549 35.9005 27.1549 35.9005 27.1549 35.9006C27.1549 35.9006 27.1549 35.9006 27.1549 35.9006C27.1549 35.9007 27.1549 35.9007 27.1549 35.9007C27.1549 35.9007 27.1549 35.9007 27.1549 35.9008C27.1549 35.9008 27.1549 35.9008 27.1549 35.9008C27.1549 35.9008 27.1549 35.9009 27.1549 35.9009C27.1549 35.9009 27.1549 35.9009 27.1549 35.901C27.1549 35.901 27.1549 35.901 27.1549 35.901C27.1549 35.901 27.1549 35.9011 27.1549 35.9011C27.1549 35.9011 27.1549 35.9011 27.1549 35.9012C27.1549 35.9012 27.1549 35.9012 27.1549 35.9012C27.1549 35.9012 27.1549 35.9013 27.1549 35.9013C27.1549 35.9013 27.1549 35.9013 27.1549 35.9013C27.1549 35.9014 27.1549 35.9014 27.1549 35.9014C27.1549 35.9014 27.1549 35.9015 27.1549 35.9015C27.1549 35.9015 27.1549 35.9015 27.1549 35.9015C27.1549 35.9016 27.1549 35.9016 27.1549 35.9016C27.1549 35.9016 27.1549 35.9016 27.1549 35.9017C27.1549 35.9017 27.1549 35.9017 27.1549 35.9017C27.1549 35.9018 27.1549 35.9018 27.1549 35.9018C27.1549 35.9018 27.1549 35.9018 27.1549 35.9019C27.1549 35.9019 27.1549 35.9019 27.1549 35.9019C27.1549 35.902 27.1549 35.902 27.1549 35.902C27.1549 35.902 27.1549 35.902 27.1549 35.9021C27.1549 35.9021 27.1549 35.9021 27.1549 35.9021C27.1549 35.9021 27.1549 35.9022 27.1549 35.9022C27.1549 35.9022 27.1549 35.9022 27.1549 35.9023C27.1549 35.9023 27.1549 35.9023 27.1549 35.9023C27.1549 35.9023 27.1549 35.9024 27.1549 35.9024C27.1549 35.9024 27.1549 35.9024 27.1549 35.9024C27.1549 35.9025 27.1548 35.9025 27.1548 35.9025C27.1548 35.9025 27.1548 35.9026 27.1548 35.9026C27.1548 35.9026 27.1548 35.9026 27.1548 35.9026C27.1548 35.9027 27.1548 35.9027 27.1548 35.9027C27.1548 35.9027 27.1548 35.9027 27.1548 35.9028C27.1548 35.9028 27.1548 35.9028 27.1548 35.9028C27.1548 35.9029 27.1548 35.9029 27.1548 35.9029C27.1548 35.9029 27.1548 35.9029 27.1548 35.903C27.1548 35.903 27.1548 35.903 27.1548 35.903C27.1548 35.9031 27.1548 35.9031 27.1548 35.9031C27.1548 35.9031 27.1548 35.9031 27.1548 35.9032C27.1548 35.9032 27.1548 35.9032 27.1548 35.9032C27.1548 35.9032 27.1548 35.9033 27.1548 35.9033C27.1548 35.9033 27.1548 35.9033 27.1548 35.9034C27.1548 35.9034 27.1548 35.9034 27.1548 35.9034C27.1548 35.9034 27.1548 35.9035 27.1548 35.9035C27.1548 35.9035 27.1548 35.9035 27.1548 35.9035C27.1548 35.9036 27.1548 35.9036 27.1548 35.9036C27.1548 35.9036 27.1548 35.9037 27.1548 35.9037C27.1548 35.9037 27.1548 35.9037 27.1548 35.9037C27.1548 35.9038 27.1548 35.9038 27.1548 35.9038C27.1548 35.9038 27.1548 35.9039 27.1548 35.9039C27.1548 35.9039 27.1548 35.9039 27.1548 35.9039C27.1548 35.904 27.1548 35.904 27.1548 35.904C27.1548 35.904 27.1548 35.904 27.1548 35.9041C27.1548 35.9041 27.1548 35.9041 27.1548 35.9041C27.1548 35.9042 27.1548 35.9042 27.1548 35.9042C27.1548 35.9042 27.1548 35.9042 27.1548 35.9043C27.1548 35.9043 27.1548 35.9043 27.1548 35.9043L28.1545 35.9303ZM28.1553 35.8971L29.155 35.923C29.1638 35.5821 29.0695 35.2734 28.9391 35.0263L28.0546 35.4929L27.1701 35.9595C27.1689 35.9571 27.1655 35.9503 27.1623 35.9376C27.159 35.9248 27.1549 35.9023 27.1557 35.8712L28.1553 35.8971ZM28.0546 35.4929L28.939 35.0261C28.9093 34.9698 28.8348 34.8267 28.7155 34.6872L27.9554 35.337L27.1953 35.9868C27.1725 35.9602 27.1602 35.9404 27.1577 35.9364C27.1563 35.9341 27.1565 35.9343 27.1588 35.9384C27.1612 35.9427 27.1646 35.949 27.1703 35.9598L28.0546 35.4929ZM27.9554 35.337L28.7441 34.7222C28.7307 34.705 28.7187 34.6905 28.71 34.6801C28.7017 34.6703 28.694 34.6613 28.691 34.6579C28.6866 34.6528 28.6871 34.6533 28.6881 34.6546C28.6896 34.6564 28.6944 34.6621 28.7009 34.6705L27.9123 35.2853L27.1236 35.9001C27.137 35.9173 27.1489 35.9317 27.1577 35.9421C27.166 35.952 27.1737 35.9609 27.1767 35.9644C27.181 35.9694 27.1806 35.969 27.1796 35.9677C27.178 35.9659 27.1732 35.9601 27.1667 35.9518L27.9554 35.337ZM27.9123 35.2853L28.706 34.6771C28.673 34.6339 28.5867 34.5177 28.5275 34.4426L27.7418 35.0611L26.956 35.6796C27.0137 35.7529 27.0378 35.7882 27.1185 35.8935L27.9123 35.2853ZM27.7418 35.0611L28.5304 34.4463C28.5099 34.42 28.5083 34.4146 28.4447 34.3236L27.6253 34.8968L26.8059 35.47C26.8188 35.4886 26.8905 35.5957 26.9531 35.6759L27.7418 35.0611ZM27.6253 34.8968L28.4501 34.3314C28.3654 34.2079 28.2812 34.1097 28.1948 34.0192L27.4713 34.7094L26.7477 35.3997C26.7789 35.4324 26.7902 35.4473 26.8005 35.4623L27.6253 34.8968ZM27.4713 34.7094L28.1948 34.0192C28.0277 33.844 27.8334 33.7351 27.7829 33.705L27.2701 34.5635L26.7574 35.4221C26.7667 35.4276 26.774 35.432 26.7808 35.4361C26.7876 35.4402 26.7927 35.4433 26.797 35.446C26.8058 35.4514 26.8084 35.4532 26.8074 35.4525C26.8062 35.4518 26.7995 35.4471 26.7894 35.4387C26.7791 35.4302 26.7645 35.4173 26.7477 35.3997L27.4713 34.7094ZM27.2701 34.5635L27.7811 33.7039C27.5869 33.5885 27.3734 33.5175 27.1696 33.4863L27.0183 34.4748L26.8669 35.4633C26.8486 35.4605 26.8329 35.4564 26.8184 35.4513C26.8042 35.4463 26.7841 35.4379 26.7592 35.4231L27.2701 34.5635ZM27.0183 34.4748C27.0448 33.4751 27.0443 33.4751 27.0438 33.4751C27.0436 33.4751 27.0431 33.4751 27.0428 33.4751C27.0422 33.4751 27.0415 33.4751 27.0409 33.475C27.0396 33.475 27.0382 33.475 27.0369 33.475C27.0343 33.4749 27.0316 33.4749 27.029 33.4748C27.0236 33.4748 27.0182 33.4748 27.0126 33.4748C27.0016 33.4749 26.9902 33.4751 26.9784 33.4756C26.9549 33.4765 26.9299 33.4783 26.9034 33.4814C26.8507 33.4875 26.7912 33.4986 26.7274 33.5179C26.5965 33.5576 26.4547 33.63 26.3283 33.7494L27.0151 34.4763L27.7018 35.2031C27.5771 35.321 27.4369 35.3927 27.3071 35.432C27.2439 35.4512 27.1849 35.4622 27.1326 35.4682C27.1063 35.4712 27.0814 35.4731 27.058 35.474C27.0463 35.4745 27.0349 35.4747 27.0239 35.4748C27.0184 35.4748 27.0129 35.4748 27.0076 35.4747C27.0049 35.4747 27.0023 35.4747 26.9996 35.4746C26.9983 35.4746 26.997 35.4746 26.9957 35.4745C26.995 35.4745 26.9944 35.4745 26.9937 35.4745C26.9934 35.4745 26.9929 35.4745 26.9928 35.4745C26.9923 35.4744 26.9918 35.4744 27.0183 34.4748ZM27.0151 34.4763L26.0571 34.1893C25.9207 34.6445 26.0032 35.0826 26.1519 35.412L27.0634 35.0008L27.9749 34.5896C27.9776 34.5955 27.9837 34.6108 27.9865 34.6375C27.9895 34.6652 27.9891 34.7095 27.973 34.7633L27.0151 34.4763ZM27.0634 35.0008L26.1478 35.4028C26.2294 35.5888 26.3378 35.7344 26.3782 35.7906L27.1899 35.2065L28.0016 34.6224C27.9895 34.6056 27.9817 34.5947 27.9749 34.5849C27.9685 34.5757 27.9653 34.5709 27.964 34.5688C27.9614 34.5647 27.9691 34.5762 27.979 34.5988L27.0634 35.0008ZM27.1899 35.2065L27.164 36.2061L27.1656 36.2062L27.1915 35.2065L27.2175 34.2068L27.2159 34.2068L27.1899 35.2065Z" fill="#3B1502" mask="url(#path-18-inside-9_664_4835)"/>
</svg>
