<svg width="50" height="46" viewBox="0 0 50 46" fill="none" xmlns="http://www.w3.org/2000/svg">
<path d="M21.3593 36.0843C21.2776 38.806 20.9727 41.4977 20.3709 44.1601C20.2458 44.7138 19.1427 44.4999 18.6319 44.1601" stroke="#3B1502" stroke-linecap="round" stroke-linejoin="round"/>
<mask id="path-2-inside-1_828_4501" fill="white">
<path d="M23.1076 12.4191C23.822 12.3399 24.3491 12.7782 25.0313 12.8465C24.9748 12.4554 24.9083 12.1192 24.8809 11.7792C24.8287 11.1293 24.8324 10.4823 25.1789 9.88324C25.7279 8.93406 26.6258 8.88539 27.1495 9.82904C27.5271 10.5095 27.6876 11.2855 27.7799 12.0636C27.8054 12.279 27.7858 12.5403 27.5154 12.5927C27.1956 12.6546 27.0895 12.3855 27.0418 12.1488C26.8927 11.4079 26.6853 10.696 26.1226 9.9379C25.5021 11.2586 25.8544 12.546 25.7183 13.8083C24.8151 13.8365 24.1471 13.1347 23.2254 13.2109C23.6847 13.9337 24.6585 14.0563 24.991 14.8144C24.674 15.1882 24.3706 15.0624 24.1211 14.9283C23.5951 14.6455 23.0946 14.3132 22.7002 13.862C22.1405 13.2219 22.2339 12.8592 23.1076 12.4191Z"/>
</mask>
<path d="M23.1076 12.4191C23.822 12.3399 24.3491 12.7782 25.0313 12.8465C24.9748 12.4554 24.9083 12.1192 24.8809 11.7792C24.8287 11.1293 24.8324 10.4823 25.1789 9.88324C25.7279 8.93406 26.6258 8.88539 27.1495 9.82904C27.5271 10.5095 27.6876 11.2855 27.7799 12.0636C27.8054 12.279 27.7858 12.5403 27.5154 12.5927C27.1956 12.6546 27.0895 12.3855 27.0418 12.1488C26.8927 11.4079 26.6853 10.696 26.1226 9.9379C25.5021 11.2586 25.8544 12.546 25.7183 13.8083C24.8151 13.8365 24.1471 13.1347 23.2254 13.2109C23.6847 13.9337 24.6585 14.0563 24.991 14.8144C24.674 15.1882 24.3706 15.0624 24.1211 14.9283C23.5951 14.6455 23.0946 14.3132 22.7002 13.862C22.1405 13.2219 22.2339 12.8592 23.1076 12.4191Z" fill="#3B1502"/>
<path d="M23.1076 12.4191L22.5575 7.44918L21.663 7.54833L20.8592 7.9532L23.1076 12.4191ZM25.0313 12.8465L24.5323 17.822L30.8942 18.4594L29.9796 12.1306L25.0313 12.8465ZM24.8809 11.7792L19.8974 12.1802L19.8974 12.1804L24.8809 11.7792ZM25.1789 9.88324L20.8514 7.37967L20.8513 7.37971L25.1789 9.88324ZM27.1495 9.82904L22.778 12.2561L22.778 12.2561L27.1495 9.82904ZM27.7799 12.0636L22.815 12.6531L22.815 12.6532L27.7799 12.0636ZM27.5154 12.5927L26.5659 7.68345L26.5658 7.68348L27.5154 12.5927ZM27.0418 12.1488L22.1406 13.1365L22.1406 13.1365L27.0418 12.1488ZM26.1226 9.9379L30.1369 6.95679L25.1533 0.243443L21.5976 7.8119L26.1226 9.9379ZM25.7183 13.8083L25.8734 18.8062L30.2224 18.6706L30.6891 14.344L25.7183 13.8083ZM23.2254 13.2109L22.814 8.22756L14.5682 8.90949L19.0056 15.8932L23.2254 13.2109ZM24.991 14.8144L28.804 18.0482L30.8243 15.6654L29.5694 12.8048L24.991 14.8144ZM24.1211 14.9283L26.4887 10.5238L26.4886 10.5238L24.1211 14.9283ZM22.7002 13.862L26.464 10.5702L26.464 10.5702L22.7002 13.862ZM23.1076 12.4191L23.6577 17.389C22.8349 17.4802 22.2461 17.2325 22.416 17.2925C22.4819 17.3157 22.48 17.3158 22.6177 17.3654C22.716 17.4008 22.865 17.4536 23.0365 17.5078C23.3824 17.6171 23.9002 17.7587 24.5323 17.822L25.0313 12.8465L25.5304 7.87109C25.8213 7.90024 26.0174 7.96135 26.0503 7.97175C26.0652 7.97647 26.0599 7.97525 26.0046 7.95537C25.9889 7.9497 25.8343 7.89335 25.747 7.86253C25.3042 7.70611 24.0947 7.27879 22.5575 7.44918L23.1076 12.4191ZM25.0313 12.8465L29.9796 12.1306C29.9603 11.9973 29.9411 11.8752 29.9253 11.776C29.9077 11.6653 29.8975 11.6023 29.8862 11.5292C29.865 11.3921 29.8635 11.3649 29.8645 11.3779L24.8809 11.7792L19.8974 12.1804C19.9408 12.7208 20.077 13.52 20.0831 13.5625L25.0313 12.8465ZM24.8809 11.7792L29.8645 11.3781C29.8472 11.1629 29.8659 11.2263 29.8452 11.4006C29.8193 11.6194 29.737 11.9882 29.5065 12.3868L25.1789 9.88324L20.8513 7.37971C19.6937 9.38113 19.8316 11.3622 19.8974 12.1802L24.8809 11.7792ZM25.1789 9.88324L29.5064 12.3868C29.2791 12.7798 28.3264 14.0727 26.3522 14.1435C24.2232 14.2198 23.0901 12.8186 22.778 12.2561L27.1495 9.82904L31.5211 7.40199C30.6852 5.89582 28.8413 4.04712 25.9952 4.14919C23.3039 4.2457 21.6278 6.03746 20.8514 7.37967L25.1789 9.88324ZM27.1495 9.82904L22.778 12.2561C22.7216 12.1544 22.718 12.1119 22.7361 12.1809C22.7557 12.2554 22.7847 12.3972 22.815 12.6531L27.7799 12.0636L32.7447 11.474C32.6265 10.4773 32.3709 8.93345 31.521 7.40199L27.1495 9.82904ZM27.7799 12.0636L22.815 12.6532C22.8003 12.5293 22.6904 11.709 23.0538 10.6981C23.2624 10.1177 23.6522 9.40657 24.3458 8.78754C25.0536 8.15591 25.8527 7.82151 26.5659 7.68345L27.5154 12.5927L28.4648 17.5019C30.4806 17.1117 31.8843 15.6913 32.4634 14.0805C32.8978 12.872 32.7849 11.8133 32.7447 11.474L27.7799 12.0636ZM27.5154 12.5927L26.5658 7.68348C27.2172 7.55735 28.0873 7.54371 29.0208 7.88285C29.9554 8.22243 30.6232 8.79561 31.0558 9.32774C31.7871 10.2272 31.9343 11.1174 31.9431 11.1611L27.0418 12.1488L22.1406 13.1365C22.197 13.4169 22.4211 14.56 23.2973 15.6377C23.8024 16.2589 24.5596 16.9026 25.6056 17.2826C26.6503 17.6622 27.6536 17.659 28.4649 17.5019L27.5154 12.5927ZM27.0418 12.1488L31.9431 11.1611C31.7248 10.0767 31.3215 8.55248 30.1369 6.95679L26.1226 9.9379L22.1082 12.919C22.1118 12.9238 22.105 12.915 22.0939 12.8948C22.0828 12.8745 22.0754 12.8571 22.0722 12.8489C22.0686 12.8394 22.0917 12.8936 22.1406 13.1365L27.0418 12.1488ZM26.1226 9.9379L21.5976 7.8119C20.8458 9.41223 20.749 10.8926 20.7394 11.8452C20.7355 12.2342 20.7505 12.7742 20.7524 12.923C20.754 13.0457 20.7535 13.1278 20.7518 13.1891C20.75 13.2487 20.7474 13.2729 20.7475 13.2727L25.7183 13.8083L30.6891 14.344C30.7557 13.7263 30.7558 13.1713 30.7508 12.7904C30.7485 12.6127 30.7434 12.3992 30.7412 12.2802C30.7384 12.1351 30.7373 12.0321 30.7382 11.9448C30.7416 11.608 30.7789 11.7842 30.6476 12.0639L26.1226 9.9379ZM25.7183 13.8083L25.5631 8.81039C26.0181 8.7962 26.3564 8.87962 26.5021 8.92292C26.5922 8.94969 26.653 8.97884 26.3797 8.86654C26.0636 8.73659 24.6233 8.07794 22.814 8.22756L23.2254 13.2109L23.6368 18.1943C22.7492 18.2677 22.1037 17.9218 22.5778 18.1166C22.6997 18.1667 23.1544 18.3613 23.6526 18.5093C24.2064 18.6739 24.9668 18.8345 25.8734 18.8062L25.7183 13.8083ZM23.2254 13.2109L19.0056 15.8932C19.5222 16.7063 20.1275 17.2571 20.5832 17.6107C20.8082 17.7853 21.013 17.924 21.1617 18.0212C21.2941 18.1078 21.4469 18.2029 21.4903 18.2303C21.6657 18.3408 21.5115 18.256 21.3136 18.0797C21.0654 17.8586 20.6864 17.4481 20.4126 16.8239L24.991 14.8144L29.5694 12.8048C29.1293 11.8016 28.5039 11.0916 27.9652 10.6117C27.4768 10.1766 26.9882 9.87384 26.8211 9.76859C26.5486 9.59688 26.6325 9.64621 26.7133 9.70889C26.8469 9.81254 27.1582 10.077 27.4452 10.5286L23.2254 13.2109ZM24.991 14.8144L21.1781 11.5806C21.4407 11.2708 21.8721 10.8627 22.511 10.5414C23.1778 10.2061 23.8943 10.0548 24.582 10.0617C25.2293 10.0683 25.7307 10.213 26.0211 10.3183C26.2994 10.4191 26.488 10.5235 26.4887 10.5238L24.1211 14.9283L21.7536 19.3328C21.8991 19.411 22.9946 20.0469 24.4795 20.0619C26.3758 20.0811 27.8682 19.1518 28.804 18.0482L24.991 14.8144ZM24.1211 14.9283L26.4886 10.5238C26.4248 10.4895 26.3794 10.4632 26.3479 10.4438C26.3165 10.4246 26.3033 10.415 26.3037 10.4153C26.3042 10.4156 26.3716 10.4645 26.464 10.5702L22.7002 13.862L18.9363 17.1538C19.8966 18.2522 20.9903 18.9225 21.7537 19.3328L24.1211 14.9283ZM22.7002 13.862L26.464 10.5702C26.479 10.5873 26.7592 10.8975 26.9978 11.4522C27.2745 12.0957 27.5279 13.1622 27.1841 14.4017C26.8627 15.5602 26.1891 16.2445 25.86 16.528C25.5418 16.8023 25.3049 16.9108 25.356 16.885L23.1076 12.4191L20.8592 7.9532C20.4735 8.14749 19.8973 8.46634 19.3333 8.95237C18.7585 9.44773 17.9327 10.3452 17.5487 11.7295C16.7315 14.6758 18.6055 16.7755 18.9363 17.1539L22.7002 13.862Z" fill="#3B1502" mask="url(#path-2-inside-1_828_4501)"/>
<mask id="path-4-inside-2_828_4501" fill="white">
<path d="M13.2314 37.6464C12.9576 37.3619 12.908 37.0942 13.0718 36.8015C13.5317 35.9801 14.0945 35.2491 14.8606 34.7041C15.0502 34.5693 15.2626 34.435 15.464 34.6827C15.6532 34.9154 15.5414 35.1185 15.3707 35.3004C14.9371 35.7623 14.4907 36.213 14.079 36.9018C14.8882 36.5386 15.5752 36.2587 16.1584 35.7503C16.3877 35.5503 16.681 35.2684 16.9688 35.6258C17.2603 35.9877 16.9264 36.2209 16.6912 36.4114C15.6945 37.2185 14.666 37.9559 13.2314 37.6464Z"/>
</mask>
<path d="M13.2314 37.6464C12.9576 37.3619 12.908 37.0942 13.0718 36.8015C13.5317 35.9801 14.0945 35.2491 14.8606 34.7041C15.0502 34.5693 15.2626 34.435 15.464 34.6827C15.6532 34.9154 15.5414 35.1185 15.3707 35.3004C14.9371 35.7623 14.4907 36.213 14.079 36.9018C14.8882 36.5386 15.5752 36.2587 16.1584 35.7503C16.3877 35.5503 16.681 35.2684 16.9688 35.6258C17.2603 35.9877 16.9264 36.2209 16.6912 36.4114C15.6945 37.2185 14.666 37.9559 13.2314 37.6464Z" fill="#3B1502"/>
<path d="M13.2314 37.6464L9.62867 41.1135L10.6863 42.2125L12.1773 42.534L13.2314 37.6464ZM13.0718 36.8015L17.4346 39.2442L17.4346 39.2442L13.0718 36.8015ZM14.8606 34.7041L11.9624 30.6297L11.9624 30.6297L14.8606 34.7041ZM15.464 34.6827L19.3437 31.5287L19.3435 31.5285L15.464 34.6827ZM15.3707 35.3004L19.0162 38.7225L19.0163 38.7224L15.3707 35.3004ZM14.079 36.9018L9.78721 34.3365L1.64007 47.9664L16.1267 41.4633L14.079 36.9018ZM16.1584 35.7503L19.4442 39.5191L19.4442 39.519L16.1584 35.7503ZM16.9688 35.6258L13.0748 38.7621L13.0749 38.7622L16.9688 35.6258ZM16.6912 36.4114L13.5445 32.5256L13.5445 32.5257L16.6912 36.4114ZM13.2314 37.6464L16.834 34.1794C17.1033 34.4592 17.6873 35.1638 17.9014 36.3036C18.1351 37.5467 17.7993 38.5928 17.4346 39.2442L13.0718 36.8015L8.70908 34.3588C8.18051 35.3029 7.78759 36.6291 8.07352 38.1505C8.34 39.5684 9.08565 40.5492 9.62867 41.1135L13.2314 37.6464ZM13.0718 36.8015L17.4346 39.2442C17.6701 38.8236 17.7886 38.7573 17.7588 38.7785L14.8606 34.7041L11.9624 30.6297C10.4004 31.7408 9.39342 33.1365 8.70905 34.3589L13.0718 36.8015ZM14.8606 34.7041L17.7588 38.7785C17.792 38.7549 17.6486 38.8608 17.4385 38.9778C17.2312 39.0932 16.7603 39.3345 16.0948 39.4614C15.3635 39.6009 14.438 39.592 13.4809 39.2154C12.556 38.8516 11.944 38.2791 11.5846 37.837L15.464 34.6827L19.3435 31.5285C18.8834 30.9626 18.1693 30.3139 17.142 29.9098C16.0824 29.4929 15.0542 29.4796 14.221 29.6385C13.4535 29.7849 12.8813 30.0696 12.5746 30.2403C12.2651 30.4126 12.0239 30.5859 11.9624 30.6297L14.8606 34.7041ZM15.464 34.6827L11.5844 37.8368C11.2522 37.4282 10.8916 36.8316 10.6985 36.0481C10.5005 35.2447 10.5341 34.468 10.7015 33.7982C10.995 32.624 11.6585 31.9494 11.7252 31.8783L15.3707 35.3004L19.0163 38.7224C19.2536 38.4695 20.0584 37.6024 20.4031 36.223C20.8506 34.4325 20.3219 32.732 19.3437 31.5287L15.464 34.6827ZM15.3707 35.3004L11.7252 31.8783C11.3729 32.2536 10.5264 33.0999 9.78721 34.3365L14.079 36.9018L18.3707 39.4672C18.455 39.3262 18.5013 39.271 19.0162 38.7225L15.3707 35.3004ZM14.079 36.9018L16.1267 41.4633C16.6454 41.2305 18.1675 40.6322 19.4442 39.5191L16.1584 35.7503L12.8725 31.9815C12.9784 31.8892 13.0312 31.8748 12.9057 31.9397C12.8388 31.9743 12.7438 32.0202 12.5918 32.0894C12.4126 32.1709 12.2882 32.225 12.0312 32.3403L14.079 36.9018ZM16.1584 35.7503L19.4442 39.519C19.5842 39.397 19.4762 39.4936 19.3723 39.5729C19.2626 39.6564 18.8731 39.9488 18.2694 40.1711C17.5988 40.418 16.5546 40.614 15.3634 40.2694C14.1975 39.932 13.4604 39.2408 13.0748 38.7621L16.9688 35.6258L20.8629 32.4895C20.3333 31.8321 19.4517 31.0421 18.1426 30.6634C16.8083 30.2773 15.6224 30.4893 14.8139 30.787C14.0723 31.0601 13.5484 31.4381 13.3103 31.6196C13.1735 31.7239 13.0628 31.817 12.9947 31.8753C12.9598 31.9053 12.9295 31.9317 12.9099 31.9488C12.8818 31.9734 12.8843 31.9713 12.8725 31.9816L16.1584 35.7503ZM16.9688 35.6258L13.0749 38.7622C12.6928 38.2878 12.1904 37.4439 12.0972 36.27C12.0021 35.0719 12.3789 34.1119 12.7408 33.5092C13.0661 32.9674 13.4182 32.6441 13.5145 32.5566C13.5929 32.4854 13.72 32.3835 13.5445 32.5256L16.6912 36.4114L19.8378 40.2971C19.78 40.344 20.037 40.1415 20.2351 39.9617C20.4511 39.7656 20.9126 39.3257 21.3143 38.6565C21.7526 37.9265 22.173 36.8284 22.0658 35.4789C21.9606 34.1535 21.3906 33.1448 20.8628 32.4895L16.9688 35.6258ZM16.6912 36.4114L13.5445 32.5257C13.3209 32.7067 13.1935 32.8034 13.102 32.8662C13.0163 32.925 13.0273 32.9081 13.1138 32.8701C13.2109 32.8274 13.3902 32.7637 13.6322 32.7342C13.8813 32.7038 14.1086 32.7207 14.2854 32.7588L13.2314 37.6464L12.1773 42.534C16.1411 43.3889 18.8864 41.0676 19.8379 40.2971L16.6912 36.4114Z" fill="#3B1502" mask="url(#path-4-inside-2_828_4501)"/>
<mask id="path-6-inside-3_828_4501" fill="white">
<path d="M14.4763 42.3412C13.5788 41.9878 14.0284 41.297 13.9742 40.7576C13.9281 40.2988 14.1235 39.8604 14.354 39.4574C14.457 39.2773 14.6182 39.1233 14.8522 39.2056C15.0854 39.2876 15.0916 39.4943 15.0734 39.7078C15.0312 40.2041 14.7141 40.664 14.8279 41.2587C15.7888 40.8564 15.7443 39.6635 16.6106 39.187C16.9314 40.6304 15.9351 42.0799 14.4763 42.3412Z"/>
</mask>
<path d="M14.4763 42.3412C13.5788 41.9878 14.0284 41.297 13.9742 40.7576C13.9281 40.2988 14.1235 39.8604 14.354 39.4574C14.457 39.2773 14.6182 39.1233 14.8522 39.2056C15.0854 39.2876 15.0916 39.4943 15.0734 39.7078C15.0312 40.2041 14.7141 40.664 14.8279 41.2587C15.7888 40.8564 15.7443 39.6635 16.6106 39.187C16.9314 40.6304 15.9351 42.0799 14.4763 42.3412Z" fill="#3B1502"/>
<path d="M14.4763 42.3412L12.6445 46.9936L13.9631 47.5127L15.3579 47.2629L14.4763 42.3412ZM13.9742 40.7576L18.9492 40.2579L18.9492 40.2578L13.9742 40.7576ZM14.354 39.4574L10.0136 36.9752L10.0135 36.9753L14.354 39.4574ZM14.8522 39.2056L13.1941 43.9226L13.1942 43.9227L14.8522 39.2056ZM15.0734 39.7078L10.0914 39.2838L10.0914 39.2841L15.0734 39.7078ZM14.8279 41.2587L9.91695 42.1981L11.0749 48.2504L16.7588 45.8708L14.8279 41.2587ZM16.6106 39.187L21.4915 38.1024L20.0447 31.5911L14.2006 34.8061L16.6106 39.187ZM14.4763 42.3412L16.308 37.6889C16.7275 37.854 17.5117 38.2684 18.1404 39.1783C18.779 40.1026 18.8964 41.0163 18.9077 41.5039C18.916 41.8639 18.8574 42.1871 18.9008 41.8778C18.9132 41.789 19.0313 41.0753 18.9492 40.2579L13.9742 40.7576L8.99924 41.2572C8.94423 40.7095 9.02637 40.2845 8.99782 40.488C8.99529 40.506 8.96824 40.6895 8.94939 40.8632C8.92853 41.0555 8.90179 41.3644 8.91032 41.7344C8.92813 42.5063 9.10483 43.6927 9.91324 44.8628C10.7118 46.0185 11.7763 46.6517 12.6445 46.9936L14.4763 42.3412ZM13.9742 40.7576L18.9492 40.2578C19.0138 40.9007 18.8935 41.3967 18.8073 41.6571C18.7281 41.8967 18.6503 42.0166 18.6944 41.9394L14.354 39.4574L10.0135 36.9753C9.71267 37.5014 8.78554 39.1304 8.99925 41.2574L13.9742 40.7576ZM14.354 39.4574L18.6944 41.9396C18.5447 42.2013 18.0992 42.9226 17.1737 43.4919C16.0175 44.2031 14.5486 44.3988 13.1941 43.9226L14.8522 39.2056L16.5104 34.4886C14.9218 33.9301 13.2554 34.1617 11.9343 34.9743C10.8439 35.645 10.2663 36.5333 10.0136 36.9752L14.354 39.4574ZM14.8522 39.2056L13.1942 43.9227C12.6217 43.7214 11.9704 43.3615 11.3919 42.7628C10.8132 42.1638 10.4783 41.5029 10.296 40.9343C10.1242 40.3988 10.0899 39.9548 10.082 39.7153C10.0741 39.4753 10.0899 39.3015 10.0914 39.2838L15.0734 39.7078L20.0554 40.1318C20.0654 40.0144 20.181 39.0116 19.8182 37.8804C19.3195 36.3254 18.1272 35.0569 16.5103 34.4886L14.8522 39.2056ZM15.0734 39.7078L10.0914 39.2841C10.1187 38.9626 10.1815 38.7452 10.1831 38.7398C10.184 38.7362 10.1822 38.743 10.1613 38.8123C10.1457 38.8639 10.1112 38.977 10.0771 39.099C9.93413 39.6099 9.64303 40.7664 9.91695 42.1981L14.8279 41.2587L19.7388 40.3192C19.7765 40.5162 19.7962 40.708 19.8017 40.8903C19.8072 41.0716 19.7984 41.2324 19.7839 41.3673C19.7697 41.5008 19.7501 41.607 19.735 41.6781C19.7202 41.7475 19.7079 41.7912 19.7072 41.7938C19.7067 41.7956 19.7079 41.7911 19.7124 41.7761C19.7174 41.7594 19.7229 41.7412 19.7331 41.7074C19.7494 41.6534 19.7846 41.5377 19.8194 41.412C19.8559 41.2805 19.9025 41.1013 19.9453 40.8916C19.9884 40.68 20.0306 40.4233 20.0554 40.1315L15.0734 39.7078ZM14.8279 41.2587L16.7588 45.8708C19.05 44.9116 19.9826 42.949 20.1681 42.6007C20.3445 42.2694 20.273 42.4181 20.1659 42.5676C19.9974 42.8027 19.6332 43.2308 19.0206 43.5678L16.6106 39.187L14.2006 34.8061C13.1548 35.3814 12.4713 36.1373 12.0375 36.7427C11.8292 37.0334 11.6717 37.2989 11.5651 37.4878C11.4687 37.6585 11.3699 37.8471 11.3414 37.9006C11.2274 38.1147 11.3197 37.91 11.5269 37.6579C11.7979 37.3281 12.2504 36.9172 12.8969 36.6465L14.8279 41.2587ZM16.6106 39.187L11.7297 40.2715C11.4136 38.8489 12.3481 37.6428 13.5946 37.4195L14.4763 42.3412L15.3579 47.2629C19.5221 46.517 22.4492 42.412 21.4915 38.1024L16.6106 39.187Z" fill="#3B1502" mask="url(#path-6-inside-3_828_4501)"/>
<mask id="path-8-inside-4_828_4501" fill="white">
<path d="M0.213431 13.5514C0.245449 13.1597 0.412612 12.9464 0.738846 12.876C1.65459 12.6785 2.57059 12.6174 3.4816 12.8305C3.70707 12.8833 3.94711 12.9535 3.89487 13.267C3.8458 13.5614 3.62066 13.6116 3.37258 13.6039C2.74238 13.5843 2.11216 13.5478 1.3271 13.694C2.13098 14.0589 2.79215 14.3876 3.55544 14.4882C3.85564 14.5278 4.25912 14.5611 4.18196 15.0113C4.10384 15.4672 3.71002 15.3714 3.41299 15.3212C2.15456 15.1086 0.927166 14.8262 0.213431 13.5514Z"/>
</mask>
<path d="M0.213431 13.5514C0.245449 13.1597 0.412612 12.9464 0.738846 12.876C1.65459 12.6785 2.57059 12.6174 3.4816 12.8305C3.70707 12.8833 3.94711 12.9535 3.89487 13.267C3.8458 13.5614 3.62066 13.6116 3.37258 13.6039C2.74238 13.5843 2.11216 13.5478 1.3271 13.694C2.13098 14.0589 2.79215 14.3876 3.55544 14.4882C3.85564 14.5278 4.25912 14.5611 4.18196 15.0113C4.10384 15.4672 3.71002 15.3714 3.41299 15.3212C2.15456 15.1086 0.927166 14.8262 0.213431 13.5514Z" fill="#3B1502"/>
<path d="M0.213431 13.5514L-4.7693 13.1441L-4.89356 14.6643L-4.14855 15.9949L0.213431 13.5514ZM0.738846 12.876L1.79231 17.7643L1.79237 17.7643L0.738846 12.876ZM3.4816 12.8305L4.62048 7.9613L4.62045 7.9613L3.4816 12.8305ZM3.89487 13.267L8.82618 14.089L8.82621 14.0888L3.89487 13.267ZM3.37258 13.6039L3.21709 18.6022L3.21714 18.6022L3.37258 13.6039ZM1.3271 13.694L0.412618 8.77774L-15.1972 11.6835L-0.739361 18.2475L1.3271 13.694ZM3.55544 14.4882L2.90213 19.446L2.90217 19.446L3.55544 14.4882ZM4.18196 15.0113L-0.745534 14.1667L-0.745548 14.1668L4.18196 15.0113ZM3.41299 15.3212L4.24606 10.3905L4.24601 10.3905L3.41299 15.3212ZM0.213431 13.5514L5.19617 13.9587C5.16446 14.3466 5.02224 15.2518 4.30876 16.1674C3.53047 17.1661 2.523 17.6068 1.79231 17.7643L0.738846 12.876L-0.314613 7.98772C-1.37154 8.21566 -2.62571 8.79815 -3.57715 10.0191C-4.46377 11.1568 -4.70558 12.3645 -4.7693 13.1441L0.213431 13.5514ZM0.738846 12.876L1.79237 17.7643C2.2589 17.6637 2.38262 17.7091 2.34274 17.6997L3.4816 12.8305L4.62045 7.9613C2.75855 7.52568 1.05029 7.69335 -0.314673 7.98774L0.738846 12.876ZM3.4816 12.8305L2.34271 17.6997C2.38219 17.709 2.20761 17.6714 1.98078 17.5911C1.75694 17.5119 1.26445 17.3182 0.729027 16.903C0.140805 16.4468 -0.46465 15.7469 -0.815464 14.7799C-1.15444 13.8456 -1.1302 13.0076 -1.03647 12.4451L3.89487 13.267L8.82621 14.0888C8.94606 13.3695 8.95989 12.4052 8.58355 11.3679C8.19537 10.298 7.52561 9.51842 6.85573 8.99892C6.23864 8.52036 5.64713 8.27967 5.3165 8.16265C4.98288 8.04457 4.69374 7.97844 4.62048 7.9613L3.4816 12.8305ZM3.89487 13.267L-1.03644 12.4449C-0.949784 11.925 -0.740961 11.2593 -0.280896 10.5957C0.190786 9.91521 0.795826 9.42618 1.40924 9.10839C2.48455 8.55129 3.43014 8.60267 3.52801 8.60571L3.37258 13.6039L3.21714 18.6022C3.56309 18.6129 4.74529 18.643 6.00747 17.9891C7.64625 17.1401 8.57131 15.6183 8.82618 14.089L3.89487 13.267ZM3.37258 13.6039L3.52806 8.60571C3.01658 8.58981 1.82508 8.51481 0.412618 8.77774L1.3271 13.694L2.24158 18.6102C2.39924 18.5808 2.46819 18.5789 3.21709 18.6022L3.37258 13.6039ZM1.3271 13.694L-0.739361 18.2475C-0.225421 18.4808 1.22672 19.2252 2.90213 19.446L3.55544 14.4882L4.20876 9.53041C4.34984 9.54901 4.39721 9.57954 4.26715 9.529C4.19772 9.50202 4.10136 9.4615 3.94979 9.39363C3.77102 9.31359 3.64908 9.25643 3.39356 9.14042L1.3271 13.694ZM3.55544 14.4882L2.90217 19.446C3.08584 19.4702 2.94165 19.4531 2.8131 19.4274C2.67756 19.4004 2.20042 19.3015 1.63431 18.9957C1.00552 18.656 0.167939 18.0025 -0.361599 16.8812C-0.879948 15.7836 -0.849481 14.7733 -0.745534 14.1667L4.18196 15.0113L9.10946 15.8559C9.25198 15.0242 9.26095 13.8409 8.67927 12.6092C8.0864 11.3538 7.14365 10.605 6.3861 10.1958C5.69125 9.82042 5.06178 9.67767 4.76856 9.61919C4.60008 9.58559 4.45722 9.56419 4.36872 9.55174C4.32321 9.54533 4.28342 9.5401 4.25779 9.53677C4.22078 9.53195 4.22416 9.53244 4.20872 9.53041L3.55544 14.4882ZM4.18196 15.0113L-0.745548 14.1668C-0.642577 13.5658 -0.342034 12.6299 0.477061 11.7828C1.31305 10.9182 2.28285 10.5655 2.97459 10.4381C3.59649 10.3236 4.07224 10.3738 4.20188 10.3883C4.30749 10.4001 4.46836 10.428 4.24606 10.3905L3.41299 15.3212L2.57992 20.252C2.50613 20.2395 2.82762 20.2983 3.09305 20.3279C3.38251 20.3602 4.01729 20.4153 4.78454 20.274C5.62163 20.1199 6.7231 19.7088 7.66419 18.7355C8.58838 17.7796 8.96744 16.6847 9.10947 15.8559L4.18196 15.0113ZM3.41299 15.3212L4.24601 10.3905C3.96392 10.3428 3.80854 10.3114 3.70242 10.2847C3.60305 10.2597 3.62427 10.2572 3.71124 10.2975C3.80865 10.3427 3.97615 10.4357 4.15927 10.5985C4.34771 10.7661 4.48632 10.9488 4.57541 11.1079L0.213431 13.5514L-4.14855 15.9949C-2.17121 19.5267 1.37851 20.049 2.57996 20.252L3.41299 15.3212Z" fill="#3B1502" mask="url(#path-8-inside-4_828_4501)"/>
<mask id="path-10-inside-5_828_4501" fill="white">
<path d="M47.7207 37.367C47.4995 37.6994 47.246 37.8067 46.9214 37.7086C46.0104 37.4333 45.1663 37.0368 44.4615 36.3989C44.2871 36.241 44.1083 36.0605 44.309 35.8076C44.4975 35.5701 44.7223 35.6362 44.939 35.7652C45.4894 36.0928 46.0315 36.4355 46.8011 36.6921C46.2662 35.9721 45.8404 35.3545 45.2115 34.8893C44.9642 34.7064 44.622 34.4782 44.9121 34.116C45.2058 33.7493 45.5087 34.0283 45.748 34.2191C46.7617 35.0276 47.7136 35.8827 47.7207 37.367Z"/>
</mask>
<path d="M47.7207 37.367C47.4995 37.6994 47.246 37.8067 46.9214 37.7086C46.0104 37.4333 45.1663 37.0368 44.4615 36.3989C44.2871 36.241 44.1083 36.0605 44.309 35.8076C44.4975 35.5701 44.7223 35.6362 44.939 35.7652C45.4894 36.0928 46.0315 36.4355 46.8011 36.6921C46.2662 35.9721 45.8404 35.3545 45.2115 34.8893C44.9642 34.7064 44.622 34.4782 44.9121 34.116C45.2058 33.7493 45.5087 34.0283 45.748 34.2191C46.7617 35.0276 47.7136 35.8827 47.7207 37.367Z" fill="#3B1502"/>
<path d="M47.7207 37.367L51.883 40.137L52.7278 38.8676L52.7205 37.3427L47.7207 37.367ZM46.9214 37.7086L48.3681 32.9223L48.368 32.9222L46.9214 37.7086ZM44.4615 36.3989L41.1062 40.1062L41.1062 40.1062L44.4615 36.3989ZM44.309 35.8076L40.3926 32.6996L40.3925 32.6998L44.309 35.8076ZM44.939 35.7652L47.4965 31.4686L47.4965 31.4685L44.939 35.7652ZM46.8011 36.6921L45.2193 41.4356L60.2834 46.458L50.815 33.7104L46.8011 36.6921ZM45.2115 34.8893L48.185 30.8693L48.185 30.8693L45.2115 34.8893ZM44.9121 34.116L48.8142 37.2419L48.8143 37.2418L44.9121 34.116ZM45.748 34.2191L42.6303 38.1284L42.6303 38.1285L45.748 34.2191ZM47.7207 37.367L43.5584 34.597C43.7722 34.2757 44.3333 33.5543 45.3991 33.0998C46.562 32.6039 47.6549 32.7067 48.3681 32.9223L46.9214 37.7086L45.4748 42.495C46.5125 42.8086 47.8944 42.9067 49.3205 42.2987C50.6496 41.732 51.4479 40.7907 51.883 40.137L47.7207 37.367ZM46.9214 37.7086L48.368 32.9222C47.897 32.7799 47.7976 32.6741 47.8169 32.6916L44.4615 36.3989L41.1062 40.1062C42.535 41.3994 44.1239 42.0868 45.4749 42.495L46.9214 37.7086ZM44.4615 36.3989L47.8169 32.6916C47.7862 32.6638 47.92 32.7806 48.0789 32.9601C48.2358 33.1371 48.5722 33.5444 48.8391 34.1662C49.1323 34.8493 49.3228 35.7539 49.1616 36.7687C49.0058 37.7493 48.5792 38.4696 48.2255 38.9154L44.309 35.8076L40.3925 32.6998C39.9384 33.272 39.459 34.1097 39.2857 35.2002C39.107 36.3249 39.3154 37.3319 39.6501 38.1116C39.9584 38.8298 40.3597 39.3276 40.5929 39.5909C40.8281 39.8565 41.0497 40.055 41.1062 40.1062L44.4615 36.3989ZM44.309 35.8076L48.2254 38.9155C47.8985 39.3275 47.3941 39.808 46.6708 40.1654C45.9292 40.5318 45.1636 40.6663 44.4737 40.6471C43.2646 40.6134 42.4638 40.1109 42.3814 40.0619L44.939 35.7652L47.4965 31.4685C47.1974 31.2905 46.1759 30.6904 44.7531 30.6508C42.906 30.5994 41.3577 31.4834 40.3926 32.6996L44.309 35.8076ZM44.939 35.7652L42.3814 40.0619C42.8297 40.3287 43.8442 40.9771 45.2193 41.4356L46.8011 36.6921L48.3828 31.9487C48.2187 31.894 48.149 31.857 47.4965 31.4686L44.939 35.7652ZM46.8011 36.6921L50.815 33.7104C50.47 33.246 49.5535 31.8816 48.185 30.8693L45.2115 34.8893L42.238 38.9094C42.1285 38.8284 42.106 38.783 42.1993 38.895C42.2489 38.9546 42.3155 39.0393 42.4172 39.1747C42.5368 39.3339 42.6178 39.4458 42.7872 39.6739L46.8011 36.6921ZM45.2115 34.8893L48.185 30.8693C48.0351 30.7584 48.1518 30.8425 48.2509 30.9264C48.3554 31.0149 48.724 31.3316 49.0704 31.8724C49.4552 32.4731 49.871 33.4493 49.7912 34.6853C49.7132 35.8952 49.1979 36.7629 48.8142 37.2419L44.9121 34.116L41.0099 30.9902C40.4813 31.6502 39.8999 32.6822 39.8122 34.0425C39.7227 35.4289 40.1851 36.5414 40.6501 37.2674C41.0767 37.9333 41.5591 38.3641 41.7883 38.5582C41.9199 38.6696 42.035 38.7579 42.1069 38.8121C42.1438 38.8399 42.1764 38.864 42.1974 38.8795C42.2277 38.9018 42.2253 38.9 42.238 38.9094L45.2115 34.8893ZM44.9121 34.116L48.8143 37.2418C48.4343 37.7162 47.7191 38.3887 46.5931 38.7326C45.4437 39.0836 44.4254 38.9223 43.7595 38.6989C43.161 38.498 42.7702 38.2242 42.6649 38.1494C42.5793 38.0887 42.4531 37.9871 42.6303 38.1284L45.748 34.2191L48.8656 30.3098C48.9232 30.3558 48.6694 30.1477 48.4505 29.9925C48.2119 29.8232 47.6822 29.4667 46.9414 29.2181C46.1332 28.9469 44.9691 28.7727 43.6729 29.1686C42.3999 29.5574 41.5367 30.3325 41.0099 30.9903L44.9121 34.116ZM45.748 34.2191L42.6303 38.1285C42.858 38.31 42.9826 38.416 43.0662 38.4942C43.1446 38.5676 43.1282 38.5631 43.0746 38.4897C43.0141 38.4069 42.9151 38.2488 42.8355 38.0224C42.7535 37.7894 42.7217 37.5677 42.7208 37.3913L47.7207 37.367L52.7205 37.3427C52.7011 33.2725 49.8344 31.0824 48.8656 30.3098L45.748 34.2191Z" fill="#3B1502" mask="url(#path-10-inside-5_828_4501)"/>
<mask id="path-12-inside-6_828_4501" fill="white">
<path d="M49.8871 33.8214C49.7338 34.7848 48.9539 34.4912 48.4333 34.6622C47.9904 34.8077 47.5152 34.7102 47.0672 34.5703C46.8669 34.5078 46.6799 34.3821 46.7101 34.1331C46.7402 33.885 46.943 33.8338 47.1576 33.8053C47.6568 33.7388 48.1798 33.9518 48.7419 33.71C48.1356 32.8486 46.9678 33.1523 46.3087 32.4006C47.6637 31.7694 49.3114 32.4376 49.8871 33.8214Z"/>
</mask>
<path d="M49.8871 33.8214C49.7338 34.7848 48.9539 34.4912 48.4333 34.6622C47.9904 34.8077 47.5152 34.7102 47.0672 34.5703C46.8669 34.5078 46.6799 34.3821 46.7101 34.1331C46.7402 33.885 46.943 33.8338 47.1576 33.8053C47.6568 33.7388 48.1798 33.9518 48.7419 33.71C48.1356 32.8486 46.9678 33.1523 46.3087 32.4006C47.6637 31.7694 49.3114 32.4376 49.8871 33.8214Z" fill="#3B1502"/>
<path d="M49.8871 33.8214L54.8249 34.6069L55.0475 33.2081L54.5035 31.9004L49.8871 33.8214ZM48.4333 34.6622L46.8735 29.9118L46.8733 29.9118L48.4333 34.6622ZM47.0672 34.5703L45.5772 39.3434L45.5773 39.3434L47.0672 34.5703ZM46.7101 34.1331L51.6736 34.7352L51.6736 34.7351L46.7101 34.1331ZM47.1576 33.8053L47.8165 38.7617L47.8168 38.7617L47.1576 33.8053ZM48.7419 33.71L50.7176 38.303L56.3764 35.8683L52.8304 30.8313L48.7419 33.71ZM46.3087 32.4006L44.1978 27.8682L38.1536 30.6838L42.5491 35.6972L46.3087 32.4006ZM49.8871 33.8214L44.9493 33.0359C45.0197 32.5938 45.2543 31.7405 46.0062 30.9314C46.7701 30.1094 47.636 29.7982 48.1086 29.6824C48.4571 29.5971 48.784 29.5848 48.4709 29.6091C48.3799 29.6162 47.6557 29.6549 46.8735 29.9118L48.4333 34.6622L49.9931 39.4126C49.4712 39.584 49.0397 39.5952 49.2462 39.5792C49.2651 39.5777 49.4509 39.5645 49.6255 39.5454C49.8186 39.5243 50.1269 39.4837 50.4872 39.3954C51.2391 39.2112 52.3613 38.7821 53.3308 37.7388C54.2883 36.7085 54.6778 35.5307 54.8249 34.6069L49.8871 33.8214ZM48.4333 34.6622L46.8733 29.9118C47.4853 29.7108 47.9935 29.7216 48.2641 29.7494C48.5128 29.775 48.6443 29.8245 48.5571 29.7973L47.0672 34.5703L45.5773 39.3434C46.1605 39.5254 47.9567 40.0815 49.9932 39.4126L48.4333 34.6622ZM47.0672 34.5703L48.5572 29.7973C48.8442 29.8869 49.6433 30.1662 50.3975 30.9466C51.3398 31.9216 51.8463 33.3121 51.6736 34.7352L46.7101 34.1331L41.7467 33.531C41.5437 35.2031 42.1286 36.781 43.2069 37.8967C44.0972 38.8179 45.0899 39.1913 45.5772 39.3434L47.0672 34.5703ZM46.7101 34.1331L51.6736 34.7351C51.6006 35.3365 51.3899 36.0494 50.9303 36.743C50.4705 37.4368 49.8976 37.9062 49.3819 38.2068C48.8962 38.4899 48.4703 38.6189 48.2385 38.6782C48.0062 38.7375 47.8336 38.7594 47.8165 38.7617L47.1576 33.8053L46.4987 28.8489C46.3808 28.8645 45.3751 28.9679 44.3474 29.5669C42.935 30.3901 41.9532 31.829 41.7466 33.5311L46.7101 34.1331ZM47.1576 33.8053L47.8168 38.7617C47.4981 38.8041 47.2735 38.7896 47.2692 38.7893C47.2661 38.7892 47.2738 38.7895 47.3467 38.7951C47.4011 38.7993 47.5197 38.8086 47.6469 38.8157C48.1796 38.8455 49.375 38.8806 50.7176 38.303L48.7419 33.71L46.7663 29.117C46.9499 29.0379 47.1323 28.9776 47.3086 28.933C47.4838 28.8888 47.6421 28.8629 47.7763 28.848C47.9091 28.8332 48.0165 28.8295 48.0884 28.8289C48.1587 28.8284 48.2034 28.831 48.2054 28.8311C48.2069 28.8312 48.202 28.8309 48.186 28.8298C48.1683 28.8285 48.149 28.827 48.1134 28.8243C48.0564 28.8199 47.9352 28.8104 47.8042 28.8034C47.6673 28.7961 47.4815 28.7891 47.2668 28.7926C47.0501 28.796 46.7895 28.8101 46.4984 28.8489L47.1576 33.8053ZM48.7419 33.71L52.8304 30.8313C51.3973 28.7957 49.2756 28.3059 48.8903 28.1983C48.5264 28.0967 48.6846 28.1338 48.8515 28.2053C49.1152 28.3183 49.6094 28.5805 50.0683 29.104L46.3087 32.4006L42.5491 35.6972C43.3376 36.5965 44.2249 37.1027 44.9119 37.3971C45.2419 37.5385 45.5362 37.6355 45.7449 37.6994C45.9335 37.7571 46.1403 37.8134 46.1999 37.83C46.4358 37.8959 46.2185 37.8505 45.9298 37.7036C45.5515 37.511 45.0551 37.1591 44.6535 36.5886L48.7419 33.71ZM46.3087 32.4006L48.4196 36.933C47.1107 37.5428 45.75 36.8943 45.2707 35.7424L49.8871 33.8214L54.5035 31.9004C52.8728 27.9808 48.2167 25.996 44.1978 27.8682L46.3087 32.4006Z" fill="#3B1502" mask="url(#path-12-inside-6_828_4501)"/>
<mask id="path-14-inside-7_828_4501" fill="white">
<path d="M5.77875 12.5518C6.54622 13.0829 7.43243 13.2944 8.09661 13.8671C8.03608 14.2803 7.69028 14.1771 7.43523 14.1385C6.45194 13.9899 5.55936 13.5598 4.72764 13.0242C4.33699 12.7726 3.93691 12.4224 4.04398 11.9386C4.1415 11.498 4.59667 11.4326 5.01705 11.3756C6.52211 11.1713 7.47086 11.5047 7.98657 12.4416C7.29232 12.8516 6.39814 12.0171 5.77875 12.5518Z"/>
</mask>
<path d="M5.77875 12.5518C6.54622 13.0829 7.43243 13.2944 8.09661 13.8671C8.03608 14.2803 7.69028 14.1771 7.43523 14.1385C6.45194 13.9899 5.55936 13.5598 4.72764 13.0242C4.33699 12.7726 3.93691 12.4224 4.04398 11.9386C4.1415 11.498 4.59667 11.4326 5.01705 11.3756C6.52211 11.1713 7.47086 11.5047 7.98657 12.4416C7.29232 12.8516 6.39814 12.0171 5.77875 12.5518Z" fill="#3B1502"/>
<path d="M5.77875 12.5518L2.51181 8.76622L-2.37819 12.9875L2.9345 16.6639L5.77875 12.5518ZM8.09661 13.8671L13.0434 14.5926L13.4416 11.874L11.3607 10.0799L8.09661 13.8671ZM7.43523 14.1385L6.68893 19.0828L6.68899 19.0828L7.43523 14.1385ZM4.72764 13.0242L7.43391 8.82004L7.43382 8.81998L4.72764 13.0242ZM4.04398 11.9386L-0.837433 10.8573L-0.837438 10.8573L4.04398 11.9386ZM5.01705 11.3756L4.34432 6.42052L4.34426 6.42053L5.01705 11.3756ZM7.98657 12.4416L10.5291 16.7474L14.7058 14.2807L12.3662 10.0304L7.98657 12.4416ZM5.77875 12.5518L2.9345 16.6639C3.3653 16.962 3.7696 17.1855 4.08737 17.3487C4.37675 17.4974 4.69478 17.6453 4.82648 17.7081C5.2283 17.8996 5.06087 17.8512 4.8325 17.6543L8.09661 13.8671L11.3607 10.0799C10.4682 9.31032 9.52554 8.8699 9.12635 8.67967C8.56805 8.41363 8.59608 8.42116 8.623 8.43979L5.77875 12.5518ZM8.09661 13.8671L3.14985 13.1416C3.23535 12.558 3.50931 11.5706 4.35935 10.6655C5.24142 9.72626 6.28499 9.36195 7.01487 9.24006C7.6599 9.13234 8.15292 9.19565 8.25614 9.20854C8.33049 9.21782 8.38104 9.22673 8.36124 9.22341C8.35756 9.22279 8.35341 9.22209 8.34391 9.22048C8.33595 9.21913 8.32284 9.21691 8.30885 9.21456C8.28148 9.20998 8.23549 9.20237 8.18148 9.19421L7.43523 14.1385L6.68899 19.0828C6.38447 19.0368 6.93296 19.1217 7.01918 19.1324C7.26086 19.1626 7.89194 19.2331 8.66286 19.1044C9.51865 18.9614 10.676 18.5479 11.6479 17.513C12.5877 16.5123 12.9276 15.3828 13.0434 14.5926L8.09661 13.8671ZM7.43523 14.1385L8.18153 9.19421C8.16341 9.19148 7.95105 9.15308 7.43391 8.82004L4.72764 13.0242L2.02137 17.2284C3.16767 17.9666 4.74046 18.7884 6.68893 19.0828L7.43523 14.1385ZM4.72764 13.0242L7.43382 8.81998C7.44548 8.82749 7.52789 8.88052 7.64429 8.97768C7.75662 9.07146 7.96598 9.26018 8.18928 9.55604C8.69447 10.2254 9.26552 11.4831 8.92539 13.0199L4.04398 11.9386L-0.837438 10.8573C-1.28462 12.8779 -0.567071 14.5526 0.209054 15.5809C0.881847 16.4723 1.675 17.0053 2.02146 17.2284L4.72764 13.0242ZM4.04398 11.9386L8.92539 13.0199C8.76808 13.7307 8.42018 14.4421 7.87092 15.044C7.35026 15.6146 6.79598 15.9263 6.42317 16.0904C6.06475 16.2481 5.78511 16.3081 5.6993 16.3256C5.61667 16.3424 5.56525 16.3475 5.68983 16.3306L5.01705 11.3756L4.34426 6.42053C4.29265 6.42753 3.33654 6.52214 2.39572 6.93611C1.13804 7.48949 -0.363671 8.71671 -0.837433 10.8573L4.04398 11.9386ZM5.01705 11.3756L5.68977 16.3306C6.01194 16.2869 5.73795 16.3848 5.19212 16.1898C4.89244 16.0828 4.56012 15.904 4.24884 15.6351C3.94028 15.3685 3.73447 15.0844 3.60692 14.8527L7.98657 12.4416L12.3662 10.0304C11.5444 8.53729 10.241 7.3741 8.55351 6.77144C7.02811 6.22667 5.52722 6.26001 4.34432 6.42052L5.01705 11.3756ZM7.98657 12.4416L5.44409 8.13568C6.39643 7.57324 7.29961 7.53728 7.75403 7.56632C7.96381 7.57973 8.10575 7.60824 8.12782 7.61267C8.13092 7.61329 8.14406 7.61627 7.99044 7.58041C7.85542 7.54889 7.08586 7.35059 6.19415 7.36711C5.69173 7.37642 5.07241 7.45015 4.40199 7.67988C3.71644 7.9148 3.0753 8.27978 2.51181 8.76622L5.77875 12.5518L9.04569 16.3374C8.63704 16.6902 8.15934 16.9643 7.64396 17.1409C7.14371 17.3123 6.70129 17.3603 6.38065 17.3663C6.07182 17.372 5.84572 17.339 5.75687 17.3244C5.67398 17.3108 5.63015 17.2988 5.71874 17.3195C5.75899 17.3289 5.96718 17.3791 6.16464 17.4186C6.38107 17.462 6.71668 17.5212 7.1176 17.5468C7.95429 17.6003 9.22959 17.5149 10.5291 16.7474L7.98657 12.4416Z" fill="#3B1502" mask="url(#path-14-inside-7_828_4501)"/>
<mask id="path-16-inside-8_828_4501" fill="white">
<path d="M35.7253 5.66993C35.6681 5.75407 35.6055 5.83946 35.5574 5.9296C35.51 6.01792 35.4815 6.12552 35.4735 6.2257C35.4637 6.32831 35.473 6.41198 35.4977 6.51375C35.5059 6.54463 35.5366 6.63726 35.573 6.64914C35.6853 6.68475 35.8125 6.63956 35.9209 6.58419C35.9582 6.56512 35.993 6.54424 36.0249 6.52642C36.1981 6.42265 36.2954 6.24175 36.4063 6.08139C36.4682 5.99176 36.5351 5.90876 36.5904 5.81493C36.6361 5.73512 36.6653 5.63783 36.6807 5.5461C36.6932 5.46652 36.6953 5.38459 36.683 5.30397C36.6733 5.25247 36.6602 5.15851 36.6079 5.13036C36.5598 5.1046 36.4842 5.10817 36.4322 5.11642C36.3241 5.13357 36.2331 5.1694 36.1387 5.22225C35.9528 5.32489 35.8421 5.50042 35.7253 5.66993Z"/>
</mask>
<path d="M35.7253 5.66993C35.6681 5.75407 35.6055 5.83946 35.5574 5.9296C35.51 6.01792 35.4815 6.12552 35.4735 6.2257C35.4637 6.32831 35.473 6.41198 35.4977 6.51375C35.5059 6.54463 35.5366 6.63726 35.573 6.64914C35.6853 6.68475 35.8125 6.63956 35.9209 6.58419C35.9582 6.56512 35.993 6.54424 36.0249 6.52642C36.1981 6.42265 36.2954 6.24175 36.4063 6.08139C36.4682 5.99176 36.5351 5.90876 36.5904 5.81493C36.6361 5.73512 36.6653 5.63783 36.6807 5.5461C36.6932 5.46652 36.6953 5.38459 36.683 5.30397C36.6733 5.25247 36.6602 5.15851 36.6079 5.13036C36.5598 5.1046 36.4842 5.10817 36.4322 5.11642C36.3241 5.13357 36.2331 5.1694 36.1387 5.22225C35.9528 5.32489 35.8421 5.50042 35.7253 5.66993Z" fill="#3B1502"/>
<path d="M35.7253 5.66993L34.9018 5.10254L34.8983 5.10776L35.7253 5.66993ZM35.5574 5.9296L36.4383 6.40302L36.4399 6.40001L35.5574 5.9296ZM35.4735 6.2257L36.4689 6.32072L36.4697 6.31304L36.4703 6.30536L35.4735 6.2257ZM35.4977 6.51375L34.5259 6.74951L34.5284 6.75991L34.5312 6.77025L35.4977 6.51375ZM35.573 6.64914L35.263 7.59991L35.2708 7.60237L35.573 6.64914ZM36.0249 6.52642L36.5129 7.39931L36.526 7.39196L36.5389 7.38421L36.0249 6.52642ZM36.4063 6.08139L35.5837 5.51266L35.5836 5.5128L36.4063 6.08139ZM36.5904 5.81493L37.4521 6.32252L37.458 6.31219L36.5904 5.81493ZM36.6807 5.5461L37.667 5.71123L37.6687 5.70082L36.6807 5.5461ZM36.683 5.30397L37.6714 5.15243L37.6689 5.13629L37.6659 5.12024L36.683 5.30397ZM36.6079 5.13036L37.0815 4.24964L37.08 4.24884L36.6079 5.13036ZM36.4322 5.11642L36.5888 6.10409L36.5891 6.10404L36.4322 5.11642ZM36.1387 5.22225L36.622 6.09768L36.627 6.09491L36.1387 5.22225ZM35.7253 5.66993L34.8983 5.10776C34.8697 5.14988 34.7563 5.30661 34.675 5.45919L35.5574 5.9296L36.4399 6.40001C36.4546 6.37231 36.4666 6.35826 36.5523 6.2321L35.7253 5.66993ZM35.5574 5.9296L34.6766 5.45619C34.5545 5.68338 34.494 5.9287 34.4766 6.14603L35.4735 6.2257L36.4703 6.30536C36.4692 6.3192 36.4671 6.33046 36.464 6.3416C36.461 6.3522 36.4542 6.37345 36.4383 6.40302L35.5574 5.9296ZM35.4735 6.2257L34.478 6.13067C34.4553 6.36799 34.4813 6.56565 34.5259 6.74951L35.4977 6.51375L36.4695 6.27798C36.4652 6.26003 36.4672 6.26406 36.4686 6.27994C36.4693 6.28777 36.4697 6.29616 36.4696 6.30444C36.4696 6.3126 36.4692 6.3183 36.4689 6.32072L35.4735 6.2257ZM35.4977 6.51375L34.5312 6.77025C34.5457 6.82499 34.5734 6.91422 34.6178 7.00986C34.6395 7.05651 34.6808 7.13894 34.7469 7.22718C34.7939 7.28984 34.9573 7.5002 35.263 7.59988L35.573 6.64914L35.883 5.69839C36.0381 5.74897 36.147 5.82746 36.2113 5.8827C36.2769 5.93905 36.3212 5.99285 36.3471 6.02745C36.397 6.09401 36.4233 6.14913 36.4317 6.16728C36.4496 6.20592 36.4579 6.23339 36.4643 6.25724L35.4977 6.51375ZM35.573 6.64914L35.2708 7.60237C35.7975 7.76937 36.2517 7.53816 36.376 7.47461L35.9209 6.58419L35.4657 5.69376C35.4479 5.70289 35.4706 5.68868 35.5226 5.67662C35.5758 5.66428 35.7085 5.64303 35.8752 5.6959L35.573 6.64914ZM35.9209 6.58419L36.376 7.47461C36.413 7.45567 36.4452 7.43776 36.4675 7.4251C36.5003 7.40654 36.4967 7.40832 36.5129 7.39931L36.0249 6.52642L35.537 5.65353C35.5247 5.66042 35.5131 5.66704 35.5045 5.67194C35.4948 5.67748 35.4888 5.6809 35.4823 5.68457C35.4764 5.68793 35.4724 5.69015 35.4695 5.69174C35.4666 5.6933 35.4655 5.69387 35.4657 5.69376L35.9209 6.58419ZM36.0249 6.52642L36.5389 7.38421C36.7756 7.24242 36.933 7.06373 37.0333 6.93256C37.1078 6.83516 37.2218 6.66028 37.2289 6.64997L36.4063 6.08139L35.5836 5.5128C35.5645 5.54045 35.5469 5.56682 35.532 5.58922C35.5143 5.61591 35.5062 5.62825 35.4922 5.64937C35.4679 5.68573 35.4543 5.70495 35.4446 5.7177C35.4252 5.74301 35.4475 5.70665 35.5109 5.66863L36.0249 6.52642ZM36.4063 6.08139L37.2288 6.65012C37.2326 6.64461 37.3752 6.45293 37.452 6.32248L36.5904 5.81493L35.7288 5.30737C35.6951 5.36459 35.7039 5.3389 35.5837 5.51266L36.4063 6.08139ZM36.5904 5.81493L37.458 6.31219C37.5798 6.09965 37.6387 5.88013 37.667 5.71122L36.6807 5.5461L35.6944 5.38097C35.6941 5.38302 35.6942 5.38126 35.6963 5.37462C35.6982 5.36889 35.7053 5.34821 35.7228 5.31767L36.5904 5.81493ZM36.6807 5.5461L37.6687 5.70082C37.6944 5.53636 37.7017 5.3499 37.6714 5.15243L36.683 5.30397L35.6945 5.45552C35.689 5.41928 35.6919 5.39669 35.6927 5.39138L36.6807 5.5461ZM36.683 5.30397L37.6659 5.12024C37.669 5.13686 37.649 5.01027 37.6112 4.8954C37.59 4.83098 37.5512 4.72959 37.4811 4.6207C37.4104 4.51098 37.2856 4.3594 37.0815 4.24964L36.6079 5.13036L36.1342 6.01107C35.9563 5.91539 35.8528 5.78611 35.7996 5.70354C35.7469 5.62179 35.7219 5.55239 35.7117 5.52142C35.6959 5.47344 35.6872 5.41958 35.7 5.48771L36.683 5.30397ZM36.6079 5.13036L37.08 4.24884C36.8654 4.13386 36.6618 4.11558 36.5627 4.11149C36.4478 4.10675 36.3472 4.11739 36.2753 4.12881L36.4322 5.11642L36.5891 6.10404C36.5692 6.1072 36.5324 6.11194 36.4803 6.10979C36.4528 6.10866 36.41 6.10518 36.3569 6.09373C36.3051 6.08258 36.2257 6.06006 36.1357 6.01187L36.6079 5.13036ZM36.4322 5.11642L36.2757 4.12876C36.0267 4.16823 35.8238 4.25255 35.6503 4.34959L36.1387 5.22225L36.627 6.09491C36.6386 6.0884 36.637 6.09027 36.626 6.09431C36.6206 6.09629 36.6142 6.09835 36.6071 6.1002C36.6001 6.10205 36.5938 6.1033 36.5888 6.10409L36.4322 5.11642ZM36.1387 5.22225L35.6553 4.34683C35.2183 4.58814 34.9712 5.00188 34.9018 5.10255L35.7253 5.66993L36.5488 6.23731C36.5634 6.21607 36.582 6.18877 36.5934 6.17215C36.607 6.15243 36.6183 6.1361 36.6288 6.12128C36.6501 6.09122 36.6631 6.0745 36.6714 6.0646C36.6869 6.04624 36.6699 6.07126 36.622 6.09767L36.1387 5.22225Z" fill="#3B1502" mask="url(#path-16-inside-8_828_4501)"/>
<mask id="path-18-inside-9_828_4501" fill="white">
<path d="M7.86786 32.7697C7.92308 32.7521 7.97783 32.7358 8.03224 32.7164C8.17386 32.6665 8.32935 32.6258 8.45359 32.5364C8.57391 32.4499 8.66992 32.3271 8.71425 32.1843L8.71471 32.1831C8.70581 32.1798 8.69691 32.1766 8.68801 32.1734C8.57484 32.1326 8.45049 32.1267 8.33276 32.1463C8.28077 32.155 8.22832 32.1649 8.17946 32.1849C8.16133 32.1913 8.144 32.1995 8.12587 32.2059C8.05032 32.2321 7.97397 32.2565 7.89796 32.284C7.84355 32.3033 7.78799 32.3179 7.73323 32.3343C7.66427 32.3541 7.60547 32.3777 7.53964 32.4088C7.47554 32.4391 7.42128 32.4859 7.36702 32.5327C7.31056 32.5817 7.26141 32.6462 7.22716 32.7133C7.22716 32.7133 7.2267 32.7146 7.22751 32.7163C7.35483 32.8055 7.5141 32.8341 7.66638 32.8183C7.73629 32.8118 7.80098 32.7918 7.8674 32.771L7.86786 32.7697Z"/>
</mask>
<path d="M7.86786 32.7697C7.92308 32.7521 7.97783 32.7358 8.03224 32.7164C8.17386 32.6665 8.32935 32.6258 8.45359 32.5364C8.57391 32.4499 8.66992 32.3271 8.71425 32.1843L8.71471 32.1831C8.70581 32.1798 8.69691 32.1766 8.68801 32.1734C8.57484 32.1326 8.45049 32.1267 8.33276 32.1463C8.28077 32.155 8.22832 32.1649 8.17946 32.1849C8.16133 32.1913 8.144 32.1995 8.12587 32.2059C8.05032 32.2321 7.97397 32.2565 7.89796 32.284C7.84355 32.3033 7.78799 32.3179 7.73323 32.3343C7.66427 32.3541 7.60547 32.3777 7.53964 32.4088C7.47554 32.4391 7.42128 32.4859 7.36702 32.5327C7.31056 32.5817 7.26141 32.6462 7.22716 32.7133C7.22716 32.7133 7.2267 32.7146 7.22751 32.7163C7.35483 32.8055 7.5141 32.8341 7.66638 32.8183C7.73629 32.8118 7.80098 32.7918 7.8674 32.771L7.86786 32.7697Z" fill="#3B1502"/>
<path d="M7.86786 32.7697L7.56392 31.817L7.09444 31.9668L6.9272 32.4304L7.86786 32.7697ZM8.03224 32.7164L7.69951 31.7734L7.69711 31.7743L8.03224 32.7164ZM8.45359 32.5364L7.86974 31.7245L7.86934 31.7248L8.45359 32.5364ZM8.71425 32.1843L7.77359 31.845L7.76592 31.8662L7.75922 31.8878L8.71425 32.1843ZM8.71471 32.1831L9.65537 32.5224L9.99473 31.5817L9.05407 31.2424L8.71471 32.1831ZM8.33276 32.1463L8.16849 31.1599L8.1682 31.16L8.33276 32.1463ZM8.17946 32.1849L8.51459 33.127L8.53589 33.1194L8.55683 33.1109L8.17946 32.1849ZM8.12587 32.2059L8.45313 33.1509L8.46099 33.1481L8.12587 32.2059ZM7.89796 32.284L8.23309 33.2262L8.23753 33.2246L7.89796 32.284ZM7.73323 32.3343L8.01015 33.2952L8.01916 33.2925L7.73323 32.3343ZM7.36702 32.5327L6.71361 31.7757L6.71206 31.7771L7.36702 32.5327ZM7.22716 32.7133L6.33661 32.2584L6.30804 32.3143L6.28669 32.3734L7.22716 32.7133ZM7.22751 32.7163L6.32143 33.1394L6.43458 33.3817L6.65354 33.5352L7.22751 32.7163ZM7.66638 32.8183L7.5732 31.8226L7.56317 31.8237L7.66638 32.8183ZM7.8674 32.771L8.16613 33.7254L8.63967 33.5771L8.80806 33.1104L7.8674 32.771ZM7.86786 32.7697L8.1718 33.7224C8.20324 33.7124 8.29233 33.6853 8.36737 33.6586L8.03224 32.7164L7.69711 31.7743C7.66334 31.7863 7.64291 31.7918 7.56392 31.817L7.86786 32.7697ZM8.03224 32.7164L8.36497 33.6595C8.38921 33.6509 8.76112 33.5472 9.03784 33.348L8.45359 32.5364L7.86934 31.7248C7.90636 31.6982 7.92589 31.6943 7.89214 31.7072C7.87626 31.7133 7.85579 31.7205 7.82204 31.7318C7.79427 31.7411 7.74449 31.7575 7.69951 31.7734L8.03224 32.7164ZM8.45359 32.5364L9.03745 33.3483C9.31056 33.1518 9.55239 32.8574 9.66929 32.4808L8.71425 32.1843L7.75922 31.8878C7.78745 31.7969 7.83726 31.7479 7.86974 31.7245L8.45359 32.5364ZM8.71425 32.1843L9.65491 32.5237L9.65537 32.5224L8.71471 32.1831L7.77406 31.8437L7.77359 31.845L8.71425 32.1843ZM8.71471 32.1831L9.05407 31.2424C9.05405 31.2424 9.05403 31.2424 9.05402 31.2424C9.054 31.2424 9.05398 31.2424 9.05396 31.2424C9.05395 31.2424 9.05393 31.2423 9.05391 31.2423C9.05389 31.2423 9.05388 31.2423 9.05386 31.2423C9.05384 31.2423 9.05382 31.2423 9.05381 31.2423C9.05379 31.2423 9.05377 31.2423 9.05375 31.2423C9.05374 31.2423 9.05372 31.2423 9.0537 31.2423C9.05369 31.2423 9.05367 31.2423 9.05365 31.2422C9.05363 31.2422 9.05362 31.2422 9.0536 31.2422C9.05358 31.2422 9.05356 31.2422 9.05355 31.2422C9.05353 31.2422 9.05351 31.2422 9.05349 31.2422C9.05348 31.2422 9.05346 31.2422 9.05344 31.2422C9.05342 31.2422 9.05341 31.2422 9.05339 31.2421C9.05337 31.2421 9.05335 31.2421 9.05334 31.2421C9.05332 31.2421 9.0533 31.2421 9.05329 31.2421C9.05327 31.2421 9.05325 31.2421 9.05323 31.2421C9.05322 31.2421 9.0532 31.2421 9.05318 31.2421C9.05316 31.2421 9.05315 31.2421 9.05313 31.2421C9.05311 31.242 9.05309 31.242 9.05308 31.242C9.05306 31.242 9.05304 31.242 9.05302 31.242C9.05301 31.242 9.05299 31.242 9.05297 31.242C9.05295 31.242 9.05294 31.242 9.05292 31.242C9.0529 31.242 9.05289 31.242 9.05287 31.242C9.05285 31.242 9.05283 31.2419 9.05282 31.2419C9.0528 31.2419 9.05278 31.2419 9.05276 31.2419C9.05275 31.2419 9.05273 31.2419 9.05271 31.2419C9.05269 31.2419 9.05268 31.2419 9.05266 31.2419C9.05264 31.2419 9.05262 31.2419 9.05261 31.2419C9.05259 31.2419 9.05257 31.2419 9.05256 31.2418C9.05254 31.2418 9.05252 31.2418 9.0525 31.2418C9.05249 31.2418 9.05247 31.2418 9.05245 31.2418C9.05243 31.2418 9.05242 31.2418 9.0524 31.2418C9.05238 31.2418 9.05236 31.2418 9.05235 31.2418C9.05233 31.2418 9.05231 31.2418 9.05229 31.2418C9.05228 31.2417 9.05226 31.2417 9.05224 31.2417C9.05222 31.2417 9.05221 31.2417 9.05219 31.2417C9.05217 31.2417 9.05216 31.2417 9.05214 31.2417C9.05212 31.2417 9.0521 31.2417 9.05209 31.2417C9.05207 31.2417 9.05205 31.2417 9.05203 31.2417C9.05202 31.2417 9.052 31.2416 9.05198 31.2416C9.05196 31.2416 9.05195 31.2416 9.05193 31.2416C9.05191 31.2416 9.05189 31.2416 9.05188 31.2416C9.05186 31.2416 9.05184 31.2416 9.05182 31.2416C9.05181 31.2416 9.05179 31.2416 9.05177 31.2416C9.05176 31.2416 9.05174 31.2416 9.05172 31.2415C9.0517 31.2415 9.05169 31.2415 9.05167 31.2415C9.05165 31.2415 9.05163 31.2415 9.05162 31.2415C9.0516 31.2415 9.05158 31.2415 9.05156 31.2415C9.05155 31.2415 9.05153 31.2415 9.05151 31.2415C9.05149 31.2415 9.05148 31.2415 9.05146 31.2415C9.05144 31.2414 9.05143 31.2414 9.05141 31.2414C9.05139 31.2414 9.05137 31.2414 9.05136 31.2414C9.05134 31.2414 9.05132 31.2414 9.0513 31.2414C9.05129 31.2414 9.05127 31.2414 9.05125 31.2414C9.05123 31.2414 9.05122 31.2414 9.0512 31.2414C9.05118 31.2414 9.05116 31.2413 9.05115 31.2413C9.05113 31.2413 9.05111 31.2413 9.05109 31.2413C9.05108 31.2413 9.05106 31.2413 9.05104 31.2413C9.05103 31.2413 9.05101 31.2413 9.05099 31.2413C9.05097 31.2413 9.05096 31.2413 9.05094 31.2413C9.05092 31.2413 9.0509 31.2413 9.05089 31.2412C9.05087 31.2412 9.05085 31.2412 9.05083 31.2412C9.05082 31.2412 9.0508 31.2412 9.05078 31.2412C9.05076 31.2412 9.05075 31.2412 9.05073 31.2412C9.05071 31.2412 9.05069 31.2412 9.05068 31.2412C9.05066 31.2412 9.05064 31.2412 9.05063 31.2412C9.05061 31.2411 9.05059 31.2411 9.05057 31.2411C9.05056 31.2411 9.05054 31.2411 9.05052 31.2411C9.0505 31.2411 9.05049 31.2411 9.05047 31.2411C9.05045 31.2411 9.05043 31.2411 9.05042 31.2411C9.0504 31.2411 9.05038 31.2411 9.05036 31.2411C9.05035 31.2411 9.05033 31.241 9.05031 31.241C9.0503 31.241 9.05028 31.241 9.05026 31.241C9.05024 31.241 9.05023 31.241 9.05021 31.241C9.05019 31.241 9.05017 31.241 9.05016 31.241C9.05014 31.241 9.05012 31.241 9.0501 31.241C9.05009 31.241 9.05007 31.241 9.05005 31.2409C9.05003 31.2409 9.05002 31.2409 9.05 31.2409C9.04998 31.2409 9.04996 31.2409 9.04995 31.2409C9.04993 31.2409 9.04991 31.2409 9.0499 31.2409C9.04988 31.2409 9.04986 31.2409 9.04984 31.2409C9.04983 31.2409 9.04981 31.2409 9.04979 31.2409C9.04977 31.2408 9.04976 31.2408 9.04974 31.2408C9.04972 31.2408 9.0497 31.2408 9.04969 31.2408C9.04967 31.2408 9.04965 31.2408 9.04963 31.2408C9.04962 31.2408 9.0496 31.2408 9.04958 31.2408C9.04956 31.2408 9.04955 31.2408 9.04953 31.2408C9.04951 31.2408 9.0495 31.2407 9.04948 31.2407C9.04946 31.2407 9.04944 31.2407 9.04943 31.2407C9.04941 31.2407 9.04939 31.2407 9.04937 31.2407C9.04936 31.2407 9.04934 31.2407 9.04932 31.2407C9.0493 31.2407 9.04929 31.2407 9.04927 31.2407C9.04925 31.2407 9.04923 31.2407 9.04922 31.2406C9.0492 31.2406 9.04918 31.2406 9.04917 31.2406C9.04915 31.2406 9.04913 31.2406 9.04911 31.2406C9.0491 31.2406 9.04908 31.2406 9.04906 31.2406C9.04904 31.2406 9.04903 31.2406 9.04901 31.2406C9.04899 31.2406 9.04897 31.2406 9.04896 31.2406C9.04894 31.2405 9.04892 31.2405 9.0489 31.2405C9.04889 31.2405 9.04887 31.2405 9.04885 31.2405C9.04883 31.2405 9.04882 31.2405 9.0488 31.2405C9.04878 31.2405 9.04877 31.2405 9.04875 31.2405C9.04873 31.2405 9.04871 31.2405 9.0487 31.2405C9.04868 31.2405 9.04866 31.2404 9.04864 31.2404C9.04863 31.2404 9.04861 31.2404 9.04859 31.2404C9.04857 31.2404 9.04856 31.2404 9.04854 31.2404C9.04852 31.2404 9.0485 31.2404 9.04849 31.2404C9.04847 31.2404 9.04845 31.2404 9.04843 31.2404C9.04842 31.2404 9.0484 31.2403 9.04838 31.2403C9.04837 31.2403 9.04835 31.2403 9.04833 31.2403C9.04831 31.2403 9.0483 31.2403 9.04828 31.2403C9.04826 31.2403 9.04824 31.2403 9.04823 31.2403C9.04821 31.2403 9.04819 31.2403 9.04817 31.2403C9.04816 31.2403 9.04814 31.2403 9.04812 31.2402C9.0481 31.2402 9.04809 31.2402 9.04807 31.2402C9.04805 31.2402 9.04804 31.2402 9.04802 31.2402C9.048 31.2402 9.04798 31.2402 9.04797 31.2402C9.04795 31.2402 9.04793 31.2402 9.04791 31.2402C9.0479 31.2402 9.04788 31.2402 9.04786 31.2402C9.04784 31.2401 9.04783 31.2401 9.04781 31.2401C9.04779 31.2401 9.04777 31.2401 9.04776 31.2401C9.04774 31.2401 9.04772 31.2401 9.0477 31.2401C9.04769 31.2401 9.04767 31.2401 9.04765 31.2401C9.04764 31.2401 9.04762 31.2401 9.0476 31.2401C9.04758 31.2401 9.04757 31.24 9.04755 31.24C9.04753 31.24 9.04751 31.24 9.0475 31.24C9.04748 31.24 9.04746 31.24 9.04744 31.24C9.04743 31.24 9.04741 31.24 9.04739 31.24C9.04737 31.24 9.04736 31.24 9.04734 31.24C9.04732 31.24 9.0473 31.24 9.04729 31.2399C9.04727 31.2399 9.04725 31.2399 9.04724 31.2399C9.04722 31.2399 9.0472 31.2399 9.04718 31.2399C9.04717 31.2399 9.04715 31.2399 9.04713 31.2399C9.04711 31.2399 9.0471 31.2399 9.04708 31.2399C9.04706 31.2399 9.04704 31.2399 9.04703 31.2399C9.04701 31.2398 9.04699 31.2398 9.04697 31.2398C9.04696 31.2398 9.04694 31.2398 9.04692 31.2398C9.04691 31.2398 9.04689 31.2398 9.04687 31.2398C9.04685 31.2398 9.04684 31.2398 9.04682 31.2398C9.0468 31.2398 9.04678 31.2398 9.04677 31.2398C9.04675 31.2398 9.04673 31.2397 9.04671 31.2397C9.0467 31.2397 9.04668 31.2397 9.04666 31.2397C9.04664 31.2397 9.04663 31.2397 9.04661 31.2397C9.04659 31.2397 9.04657 31.2397 9.04656 31.2397C9.04654 31.2397 9.04652 31.2397 9.04651 31.2397C9.04649 31.2397 9.04647 31.2397 9.04645 31.2396C9.04644 31.2396 9.04642 31.2396 9.0464 31.2396C9.04638 31.2396 9.04637 31.2396 9.04635 31.2396C9.04633 31.2396 9.04631 31.2396 9.0463 31.2396C9.04628 31.2396 9.04626 31.2396 9.04624 31.2396C9.04623 31.2396 9.04621 31.2396 9.04619 31.2396C9.04617 31.2395 9.04616 31.2395 9.04614 31.2395C9.04612 31.2395 9.04611 31.2395 9.04609 31.2395C9.04607 31.2395 9.04605 31.2395 9.04604 31.2395C9.04602 31.2395 9.046 31.2395 9.04598 31.2395C9.04597 31.2395 9.04595 31.2395 9.04593 31.2395C9.04591 31.2395 9.0459 31.2394 9.04588 31.2394C9.04586 31.2394 9.04584 31.2394 9.04583 31.2394C9.04581 31.2394 9.04579 31.2394 9.04578 31.2394C9.04576 31.2394 9.04574 31.2394 9.04572 31.2394C9.04571 31.2394 9.04569 31.2394 9.04567 31.2394C9.04565 31.2394 9.04564 31.2394 9.04562 31.2393C9.0456 31.2393 9.04558 31.2393 9.04557 31.2393C9.04555 31.2393 9.04553 31.2393 9.04551 31.2393C9.0455 31.2393 9.04548 31.2393 9.04546 31.2393C9.04544 31.2393 9.04543 31.2393 9.04541 31.2393C9.04539 31.2393 9.04538 31.2393 9.04536 31.2393C9.04534 31.2392 9.04532 31.2392 9.04531 31.2392C9.04529 31.2392 9.04527 31.2392 9.04525 31.2392C9.04524 31.2392 9.04522 31.2392 9.0452 31.2392C9.04518 31.2392 9.04517 31.2392 9.04515 31.2392C9.04513 31.2392 9.04511 31.2392 9.0451 31.2392C9.04508 31.2392 9.04506 31.2391 9.04504 31.2391C9.04503 31.2391 9.04501 31.2391 9.04499 31.2391C9.04498 31.2391 9.04496 31.2391 9.04494 31.2391C9.04492 31.2391 9.04491 31.2391 9.04489 31.2391C9.04487 31.2391 9.04485 31.2391 9.04484 31.2391C9.04482 31.2391 9.0448 31.2391 9.04478 31.239C9.04477 31.239 9.04475 31.239 9.04473 31.239C9.04471 31.239 9.0447 31.239 9.04468 31.239C9.04466 31.239 9.04465 31.239 9.04463 31.239C9.04461 31.239 9.04459 31.239 9.04458 31.239C9.04456 31.239 9.04454 31.239 9.04452 31.239C9.04451 31.2389 9.04449 31.2389 9.04447 31.2389C9.04445 31.2389 9.04444 31.2389 9.04442 31.2389C9.0444 31.2389 9.04438 31.2389 9.04437 31.2389C9.04435 31.2389 9.04433 31.2389 9.04431 31.2389C9.0443 31.2389 9.04428 31.2389 9.04426 31.2389C9.04425 31.2389 9.04423 31.2388 9.04421 31.2388C9.04419 31.2388 9.04418 31.2388 9.04416 31.2388C9.04414 31.2388 9.04412 31.2388 9.04411 31.2388C9.04409 31.2388 9.04407 31.2388 9.04405 31.2388C9.04404 31.2388 9.04402 31.2388 9.044 31.2388C9.04398 31.2388 9.04397 31.2388 9.04395 31.2387C9.04393 31.2387 9.04391 31.2387 9.0439 31.2387C9.04388 31.2387 9.04386 31.2387 9.04385 31.2387C9.04383 31.2387 9.04381 31.2387 9.04379 31.2387C9.04378 31.2387 9.04376 31.2387 9.04374 31.2387C9.04372 31.2387 9.04371 31.2387 9.04369 31.2387C9.04367 31.2386 9.04365 31.2386 9.04364 31.2386C9.04362 31.2386 9.0436 31.2386 9.04358 31.2386C9.04357 31.2386 9.04355 31.2386 9.04353 31.2386C9.04352 31.2386 9.0435 31.2386 9.04348 31.2386C9.04346 31.2386 9.04345 31.2386 9.04343 31.2386C9.04341 31.2385 9.04339 31.2385 9.04338 31.2385C9.04336 31.2385 9.04334 31.2385 9.04332 31.2385C9.04331 31.2385 9.04329 31.2385 9.04327 31.2385C9.04325 31.2385 9.04324 31.2385 9.04322 31.2385C9.0432 31.2385 9.04318 31.2385 9.04317 31.2385C9.04315 31.2385 9.04313 31.2384 9.04312 31.2384C9.0431 31.2384 9.04308 31.2384 9.04306 31.2384C9.04305 31.2384 9.04303 31.2384 9.04301 31.2384C9.04299 31.2384 9.04298 31.2384 9.04296 31.2384C9.04294 31.2384 9.04292 31.2384 9.04291 31.2384C9.04289 31.2384 9.04287 31.2384 9.04285 31.2383C9.04284 31.2383 9.04282 31.2383 9.0428 31.2383C9.04278 31.2383 9.04277 31.2383 9.04275 31.2383C9.04273 31.2383 9.04272 31.2383 9.0427 31.2383C9.04268 31.2383 9.04266 31.2383 9.04265 31.2383C9.04263 31.2383 9.04261 31.2383 9.04259 31.2383C9.04258 31.2382 9.04256 31.2382 9.04254 31.2382C9.04252 31.2382 9.04251 31.2382 9.04249 31.2382C9.04247 31.2382 9.04245 31.2382 9.04244 31.2382C9.04242 31.2382 9.0424 31.2382 9.04239 31.2382C9.04237 31.2382 9.04235 31.2382 9.04233 31.2382C9.04232 31.2382 9.0423 31.2381 9.04228 31.2381C9.04226 31.2381 9.04225 31.2381 9.04223 31.2381C9.04221 31.2381 9.04219 31.2381 9.04218 31.2381C9.04216 31.2381 9.04214 31.2381 9.04212 31.2381C9.04211 31.2381 9.04209 31.2381 9.04207 31.2381C9.04205 31.2381 9.04204 31.2381 9.04202 31.238C9.042 31.238 9.04199 31.238 9.04197 31.238C9.04195 31.238 9.04193 31.238 9.04192 31.238C9.0419 31.238 9.04188 31.238 9.04186 31.238C9.04185 31.238 9.04183 31.238 9.04181 31.238C9.04179 31.238 9.04178 31.238 9.04176 31.238C9.04174 31.2379 9.04172 31.2379 9.04171 31.2379C9.04169 31.2379 9.04167 31.2379 9.04166 31.2379C9.04164 31.2379 9.04162 31.2379 9.0416 31.2379C9.04159 31.2379 9.04157 31.2379 9.04155 31.2379C9.04153 31.2379 9.04152 31.2379 9.0415 31.2379C9.04148 31.2379 9.04146 31.2378 9.04145 31.2378C9.04143 31.2378 9.04141 31.2378 9.04139 31.2378C9.04138 31.2378 9.04136 31.2378 9.04134 31.2378C9.04132 31.2378 9.04131 31.2378 9.04129 31.2378C9.04127 31.2378 9.04126 31.2378 9.04124 31.2378C9.04122 31.2378 9.0412 31.2378 9.04119 31.2377C9.04117 31.2377 9.04115 31.2377 9.04113 31.2377C9.04112 31.2377 9.0411 31.2377 9.04108 31.2377C9.04106 31.2377 9.04105 31.2377 9.04103 31.2377C9.04101 31.2377 9.04099 31.2377 9.04098 31.2377C9.04096 31.2377 9.04094 31.2377 9.04092 31.2377C9.04091 31.2376 9.04089 31.2376 9.04087 31.2376C9.04086 31.2376 9.04084 31.2376 9.04082 31.2376C9.0408 31.2376 9.04079 31.2376 9.04077 31.2376C9.04075 31.2376 9.04073 31.2376 9.04072 31.2376C9.0407 31.2376 9.04068 31.2376 9.04066 31.2376C9.04065 31.2376 9.04063 31.2375 9.04061 31.2375C9.04059 31.2375 9.04058 31.2375 9.04056 31.2375C9.04054 31.2375 9.04053 31.2375 9.04051 31.2375C9.04049 31.2375 9.04047 31.2375 9.04046 31.2375C9.04044 31.2375 9.04042 31.2375 9.0404 31.2375C9.04039 31.2375 9.04037 31.2375 9.04035 31.2374C9.04033 31.2374 9.04032 31.2374 9.0403 31.2374C9.04028 31.2374 9.04026 31.2374 9.04025 31.2374C9.04023 31.2374 9.04021 31.2374 9.04019 31.2374C9.04018 31.2374 9.04016 31.2374 9.04014 31.2374C9.04013 31.2374 9.04011 31.2374 9.04009 31.2374C9.04007 31.2373 9.04006 31.2373 9.04004 31.2373C9.04002 31.2373 9.04 31.2373 9.03999 31.2373C9.03997 31.2373 9.03995 31.2373 9.03993 31.2373C9.03992 31.2373 9.0399 31.2373 9.03988 31.2373C9.03986 31.2373 9.03985 31.2373 9.03983 31.2373C9.03981 31.2373 9.03979 31.2372 9.03978 31.2372C9.03976 31.2372 9.03974 31.2372 9.03973 31.2372C9.03971 31.2372 9.03969 31.2372 9.03967 31.2372C9.03966 31.2372 9.03964 31.2372 9.03962 31.2372C9.0396 31.2372 9.03959 31.2372 9.03957 31.2372C9.03955 31.2372 9.03953 31.2372 9.03952 31.2371C9.0395 31.2371 9.03948 31.2371 9.03946 31.2371C9.03945 31.2371 9.03943 31.2371 9.03941 31.2371C9.0394 31.2371 9.03938 31.2371 9.03936 31.2371C9.03934 31.2371 9.03933 31.2371 9.03931 31.2371C9.03929 31.2371 9.03927 31.2371 9.03926 31.2371C9.03924 31.237 9.03922 31.237 9.0392 31.237C9.03919 31.237 9.03917 31.237 9.03915 31.237C9.03913 31.237 9.03912 31.237 9.0391 31.237C9.03908 31.237 9.03906 31.237 9.03905 31.237C9.03903 31.237 9.03901 31.237 9.039 31.237C9.03898 31.237 9.03896 31.2369 9.03894 31.2369C9.03893 31.2369 9.03891 31.2369 9.03889 31.2369C9.03887 31.2369 9.03886 31.2369 9.03884 31.2369C9.03882 31.2369 9.0388 31.2369 9.03879 31.2369C9.03877 31.2369 9.03875 31.2369 9.03873 31.2369C9.03872 31.2369 9.0387 31.2369 9.03868 31.2368C9.03866 31.2368 9.03865 31.2368 9.03863 31.2368C9.03861 31.2368 9.0386 31.2368 9.03858 31.2368C9.03856 31.2368 9.03854 31.2368 9.03853 31.2368C9.03851 31.2368 9.03849 31.2368 9.03847 31.2368C9.03846 31.2368 9.03844 31.2368 9.03842 31.2367C9.0384 31.2367 9.03839 31.2367 9.03837 31.2367C9.03835 31.2367 9.03833 31.2367 9.03832 31.2367C9.0383 31.2367 9.03828 31.2367 9.03827 31.2367C9.03825 31.2367 9.03823 31.2367 9.03821 31.2367C9.0382 31.2367 9.03818 31.2367 9.03816 31.2367C9.03814 31.2366 9.03813 31.2366 9.03811 31.2366C9.03809 31.2366 9.03807 31.2366 9.03806 31.2366C9.03804 31.2366 9.03802 31.2366 9.038 31.2366C9.03799 31.2366 9.03797 31.2366 9.03795 31.2366C9.03793 31.2366 9.03792 31.2366 9.0379 31.2366C9.03788 31.2366 9.03787 31.2365 9.03785 31.2365C9.03783 31.2365 9.03781 31.2365 9.0378 31.2365C9.03778 31.2365 9.03776 31.2365 9.03774 31.2365C9.03773 31.2365 9.03771 31.2365 9.03769 31.2365C9.03767 31.2365 9.03766 31.2365 9.03764 31.2365C9.03762 31.2365 9.0376 31.2365 9.03759 31.2364C9.03757 31.2364 9.03755 31.2364 9.03753 31.2364C9.03752 31.2364 9.0375 31.2364 9.03748 31.2364C9.03747 31.2364 9.03745 31.2364 9.03743 31.2364C9.03741 31.2364 9.0374 31.2364 9.03738 31.2364C9.03736 31.2364 9.03734 31.2364 9.03733 31.2364C9.03731 31.2363 9.03729 31.2363 9.03727 31.2363C9.03726 31.2363 9.03724 31.2363 9.03722 31.2363C9.0372 31.2363 9.03719 31.2363 9.03717 31.2363C9.03715 31.2363 9.03714 31.2363 9.03712 31.2363C9.0371 31.2363 9.03708 31.2363 9.03707 31.2363C9.03705 31.2363 9.03703 31.2362 9.03701 31.2362C9.037 31.2362 9.03698 31.2362 9.03696 31.2362C9.03694 31.2362 9.03693 31.2362 9.03691 31.2362C9.03689 31.2362 9.03687 31.2362 9.03686 31.2362C9.03684 31.2362 9.03682 31.2362 9.0368 31.2362C9.03679 31.2362 9.03677 31.2362 9.03675 31.2361C9.03674 31.2361 9.03672 31.2361 9.0367 31.2361C9.03668 31.2361 9.03667 31.2361 9.03665 31.2361C9.03663 31.2361 9.03661 31.2361 9.0366 31.2361C9.03658 31.2361 9.03656 31.2361 9.03654 31.2361C9.03653 31.2361 9.03651 31.2361 9.03649 31.2361C9.03647 31.236 9.03646 31.236 9.03644 31.236C9.03642 31.236 9.0364 31.236 9.03639 31.236C9.03637 31.236 9.03635 31.236 9.03634 31.236C9.03632 31.236 9.0363 31.236 9.03628 31.236C9.03627 31.236 9.03625 31.236 9.03623 31.236C9.03621 31.236 9.0362 31.2359 9.03618 31.2359C9.03616 31.2359 9.03614 31.2359 9.03613 31.2359C9.03611 31.2359 9.03609 31.2359 9.03607 31.2359C9.03606 31.2359 9.03604 31.2359 9.03602 31.2359C9.03601 31.2359 9.03599 31.2359 9.03597 31.2359C9.03595 31.2359 9.03594 31.2359 9.03592 31.2358C9.0359 31.2358 9.03588 31.2358 9.03587 31.2358C9.03585 31.2358 9.03583 31.2358 9.03581 31.2358C9.0358 31.2358 9.03578 31.2358 9.03576 31.2358C9.03574 31.2358 9.03573 31.2358 9.03571 31.2358C9.03569 31.2358 9.03567 31.2358 9.03566 31.2358C9.03564 31.2357 9.03562 31.2357 9.03561 31.2357C9.03559 31.2357 9.03557 31.2357 9.03555 31.2357C9.03554 31.2357 9.03552 31.2357 9.0355 31.2357C9.03548 31.2357 9.03547 31.2357 9.03545 31.2357C9.03543 31.2357 9.03541 31.2357 9.0354 31.2357C9.03538 31.2357 9.03536 31.2356 9.03534 31.2356C9.03533 31.2356 9.03531 31.2356 9.03529 31.2356C9.03527 31.2356 9.03526 31.2356 9.03524 31.2356C9.03522 31.2356 9.03521 31.2356 9.03519 31.2356C9.03517 31.2356 9.03515 31.2356 9.03514 31.2356C9.03512 31.2356 9.0351 31.2356 9.03508 31.2355C9.03507 31.2355 9.03505 31.2355 9.03503 31.2355C9.03501 31.2355 9.035 31.2355 9.03498 31.2355C9.03496 31.2355 9.03494 31.2355 9.03493 31.2355C9.03491 31.2355 9.03489 31.2355 9.03488 31.2355C9.03486 31.2355 9.03484 31.2355 9.03482 31.2355C9.03481 31.2354 9.03479 31.2354 9.03477 31.2354C9.03475 31.2354 9.03474 31.2354 9.03472 31.2354C9.0347 31.2354 9.03468 31.2354 9.03467 31.2354C9.03465 31.2354 9.03463 31.2354 9.03461 31.2354C9.0346 31.2354 9.03458 31.2354 9.03456 31.2354C9.03454 31.2354 9.03453 31.2353 9.03451 31.2353C9.03449 31.2353 9.03448 31.2353 9.03446 31.2353C9.03444 31.2353 9.03442 31.2353 9.03441 31.2353C9.03439 31.2353 9.03437 31.2353 9.03435 31.2353C9.03434 31.2353 9.03432 31.2353 9.0343 31.2353C9.03428 31.2353 9.03427 31.2353 9.03425 31.2352C9.03423 31.2352 9.03421 31.2352 9.0342 31.2352C9.03418 31.2352 9.03416 31.2352 9.03415 31.2352C9.03413 31.2352 9.03411 31.2352 9.03409 31.2352C9.03408 31.2352 9.03406 31.2352 9.03404 31.2352C9.03402 31.2352 9.03401 31.2352 9.03399 31.2352C9.03397 31.2351 9.03395 31.2351 9.03394 31.2351C9.03392 31.2351 9.0339 31.2351 9.03388 31.2351C9.03387 31.2351 9.03385 31.2351 9.03383 31.2351C9.03381 31.2351 9.0338 31.2351 9.03378 31.2351C9.03376 31.2351 9.03375 31.2351 9.03373 31.2351C9.03371 31.2351 9.03369 31.235 9.03368 31.235C9.03366 31.235 9.03364 31.235 9.03362 31.235C9.03361 31.235 9.03359 31.235 9.03357 31.235C9.03355 31.235 9.03354 31.235 9.03352 31.235C9.0335 31.235 9.03348 31.235 9.03347 31.235C9.03345 31.235 9.03343 31.2349 9.03341 31.2349C9.0334 31.2349 9.03338 31.2349 9.03336 31.2349C9.03335 31.2349 9.03333 31.2349 9.03331 31.2349C9.03329 31.2349 9.03328 31.2349 9.03326 31.2349C9.03324 31.2349 9.03322 31.2349 9.03321 31.2349C9.03319 31.2349 9.03317 31.2349 9.03315 31.2348C9.03314 31.2348 9.03312 31.2348 9.0331 31.2348C9.03308 31.2348 9.03307 31.2348 9.03305 31.2348C9.03303 31.2348 9.03302 31.2348 9.033 31.2348C9.03298 31.2348 9.03296 31.2348 9.03295 31.2348C9.03293 31.2348 9.03291 31.2348 9.03289 31.2348C9.03288 31.2347 9.03286 31.2347 9.03284 31.2347C9.03282 31.2347 9.03281 31.2347 9.03279 31.2347C9.03277 31.2347 9.03275 31.2347 9.03274 31.2347C9.03272 31.2347 9.0327 31.2347 9.03268 31.2347C9.03267 31.2347 9.03265 31.2347 9.03263 31.2347C9.03262 31.2347 9.0326 31.2346 9.03258 31.2346C9.03256 31.2346 9.03255 31.2346 9.03253 31.2346C9.03251 31.2346 9.03249 31.2346 9.03248 31.2346C9.03246 31.2346 9.03244 31.2346 9.03242 31.2346C9.03241 31.2346 9.03239 31.2346 9.03237 31.2346C9.03235 31.2346 9.03234 31.2346 9.03232 31.2345C9.0323 31.2345 9.03228 31.2345 9.03227 31.2345C9.03225 31.2345 9.03223 31.2345 9.03222 31.2345C9.0322 31.2345 9.03218 31.2345 9.03216 31.2345C9.03215 31.2345 9.03213 31.2345 9.03211 31.2345C9.03209 31.2345 9.03208 31.2345 9.03206 31.2345C9.03204 31.2344 9.03202 31.2344 9.03201 31.2344C9.03199 31.2344 9.03197 31.2344 9.03195 31.2344C9.03194 31.2344 9.03192 31.2344 9.0319 31.2344C9.03189 31.2344 9.03187 31.2344 9.03185 31.2344C9.03183 31.2344 9.03182 31.2344 9.0318 31.2344C9.03178 31.2344 9.03176 31.2343 9.03175 31.2343C9.03173 31.2343 9.03171 31.2343 9.03169 31.2343C9.03168 31.2343 9.03166 31.2343 9.03164 31.2343C9.03162 31.2343 9.03161 31.2343 9.03159 31.2343C9.03157 31.2343 9.03155 31.2343 9.03154 31.2343C9.03152 31.2343 9.0315 31.2343 9.03149 31.2342C9.03147 31.2342 9.03145 31.2342 9.03143 31.2342C9.03142 31.2342 9.0314 31.2342 9.03138 31.2342C9.03136 31.2342 9.03135 31.2342 9.03133 31.2342C9.03131 31.2342 9.03129 31.2342 9.03128 31.2342C9.03126 31.2342 9.03124 31.2342 9.03122 31.2342C9.03121 31.2341 9.03119 31.2341 9.03117 31.2341C9.03115 31.2341 9.03114 31.2341 9.03112 31.2341C9.0311 31.2341 9.03109 31.2341 9.03107 31.2341C9.03105 31.2341 9.03103 31.2341 9.03102 31.2341C9.031 31.2341 9.03098 31.2341 9.03096 31.2341C9.03095 31.2341 9.03093 31.234 9.03091 31.234C9.03089 31.234 9.03088 31.234 9.03086 31.234C9.03084 31.234 9.03082 31.234 9.03081 31.234C9.03079 31.234 9.03077 31.234 9.03076 31.234C9.03074 31.234 9.03072 31.234 9.0307 31.234C9.03069 31.234 9.03067 31.234 9.03065 31.2339C9.03063 31.2339 9.03062 31.2339 9.0306 31.2339C9.03058 31.2339 9.03056 31.2339 9.03055 31.2339C9.03053 31.2339 9.03051 31.2339 9.03049 31.2339C9.03048 31.2339 9.03046 31.2339 9.03044 31.2339C9.03042 31.2339 9.03041 31.2339 9.03039 31.2339C9.03037 31.2338 9.03036 31.2338 9.03034 31.2338C9.03032 31.2338 9.0303 31.2338 9.03029 31.2338C9.03027 31.2338 9.03025 31.2338 9.03023 31.2338C9.03022 31.2338 9.0302 31.2338 9.03018 31.2338C9.03016 31.2338 9.03015 31.2338 9.03013 31.2338C9.03011 31.2338 9.03009 31.2337 9.03008 31.2337C9.03006 31.2337 9.03004 31.2337 9.03002 31.2337C9.03001 31.2337 9.02999 31.2337 9.02997 31.2337C9.02996 31.2337 9.02994 31.2337 9.02992 31.2337C9.0299 31.2337 9.02989 31.2337 9.02987 31.2337C9.02985 31.2337 9.02983 31.2337 9.02982 31.2336C9.0298 31.2336 9.02978 31.2336 9.02976 31.2336C9.02975 31.2336 9.02973 31.2336 9.02971 31.2336C9.02969 31.2336 9.02968 31.2336 9.02966 31.2336C9.02964 31.2336 9.02962 31.2336 9.02961 31.2336C9.02959 31.2336 9.02957 31.2336 9.02956 31.2336C9.02954 31.2335 9.02952 31.2335 9.0295 31.2335C9.02949 31.2335 9.02947 31.2335 9.02945 31.2335C9.02943 31.2335 9.02942 31.2335 9.0294 31.2335C9.02938 31.2335 9.02936 31.2335 9.02935 31.2335C9.02933 31.2335 9.02931 31.2335 9.02929 31.2335C9.02928 31.2335 9.02926 31.2334 9.02924 31.2334C9.02923 31.2334 9.02921 31.2334 9.02919 31.2334C9.02917 31.2334 9.02916 31.2334 9.02914 31.2334C9.02912 31.2334 9.0291 31.2334 9.02909 31.2334C9.02907 31.2334 9.02905 31.2334 9.02903 31.2334C9.02902 31.2334 9.029 31.2334 9.02898 31.2333C9.02896 31.2333 9.02895 31.2333 9.02893 31.2333C9.02891 31.2333 9.02889 31.2333 9.02888 31.2333C9.02886 31.2333 9.02884 31.2333 9.02883 31.2333C9.02881 31.2333 9.02879 31.2333 9.02877 31.2333C9.02876 31.2333 9.02874 31.2333 9.02872 31.2333C9.0287 31.2332 9.02869 31.2332 9.02867 31.2332C9.02865 31.2332 9.02863 31.2332 9.02862 31.2332C9.0286 31.2332 9.02858 31.2332 9.02856 31.2332C9.02855 31.2332 9.02853 31.2332 9.02851 31.2332C9.02849 31.2332 9.02848 31.2332 9.02846 31.2332C9.02844 31.2331 9.02843 31.2331 9.02841 31.2331C9.02839 31.2331 9.02837 31.2331 9.02836 31.2331C9.02834 31.2331 9.02832 31.2331 9.0283 31.2331C9.02829 31.2331 9.02827 31.2331 9.02825 31.2331C9.02823 31.2331 9.02822 31.2331 9.0282 31.2331C9.02818 31.2331 9.02816 31.233 9.02815 31.233C9.02813 31.233 9.02811 31.233 9.0281 31.233C9.02808 31.233 9.02806 31.233 9.02804 31.233C9.02803 31.233 9.02801 31.233 9.02799 31.233C9.02797 31.233 9.02796 31.233 9.02794 31.233C9.02792 31.233 9.0279 31.233 9.02789 31.2329C9.02787 31.2329 9.02785 31.2329 9.02783 31.2329C9.02782 31.2329 9.0278 31.2329 9.02778 31.2329C9.02776 31.2329 9.02775 31.2329 9.02773 31.2329C9.02771 31.2329 9.0277 31.2329 9.02768 31.2329C9.02766 31.2329 9.02764 31.2329 9.02763 31.2329C9.02761 31.2328 9.02759 31.2328 9.02757 31.2328C9.02756 31.2328 9.02754 31.2328 9.02752 31.2328C9.0275 31.2328 9.02749 31.2328 9.02747 31.2328C9.02745 31.2328 9.02743 31.2328 9.02742 31.2328C9.0274 31.2328 9.02738 31.2328 9.02736 31.2328L8.68801 32.1734L8.34866 33.1141C8.34868 33.1141 8.34869 33.1141 8.34871 33.1141C8.34873 33.1141 8.34875 33.1141 8.34876 33.1141C8.34878 33.1141 8.3488 33.1141 8.34881 33.1141C8.34883 33.1141 8.34885 33.1141 8.34887 33.1142C8.34888 33.1142 8.3489 33.1142 8.34892 33.1142C8.34894 33.1142 8.34895 33.1142 8.34897 33.1142C8.34899 33.1142 8.34901 33.1142 8.34902 33.1142C8.34904 33.1142 8.34906 33.1142 8.34908 33.1142C8.34909 33.1142 8.34911 33.1142 8.34913 33.1142C8.34915 33.1143 8.34916 33.1143 8.34918 33.1143C8.3492 33.1143 8.34921 33.1143 8.34923 33.1143C8.34925 33.1143 8.34927 33.1143 8.34928 33.1143C8.3493 33.1143 8.34932 33.1143 8.34934 33.1143C8.34935 33.1143 8.34937 33.1143 8.34939 33.1143C8.34941 33.1143 8.34942 33.1144 8.34944 33.1144C8.34946 33.1144 8.34948 33.1144 8.34949 33.1144C8.34951 33.1144 8.34953 33.1144 8.34955 33.1144C8.34956 33.1144 8.34958 33.1144 8.3496 33.1144C8.34961 33.1144 8.34963 33.1144 8.34965 33.1144C8.34967 33.1144 8.34968 33.1144 8.3497 33.1145C8.34972 33.1145 8.34974 33.1145 8.34975 33.1145C8.34977 33.1145 8.34979 33.1145 8.34981 33.1145C8.34982 33.1145 8.34984 33.1145 8.34986 33.1145C8.34988 33.1145 8.34989 33.1145 8.34991 33.1145C8.34993 33.1145 8.34994 33.1145 8.34996 33.1145C8.34998 33.1146 8.35 33.1146 8.35001 33.1146C8.35003 33.1146 8.35005 33.1146 8.35007 33.1146C8.35008 33.1146 8.3501 33.1146 8.35012 33.1146C8.35014 33.1146 8.35015 33.1146 8.35017 33.1146C8.35019 33.1146 8.35021 33.1146 8.35022 33.1146C8.35024 33.1146 8.35026 33.1147 8.35028 33.1147C8.35029 33.1147 8.35031 33.1147 8.35033 33.1147C8.35034 33.1147 8.35036 33.1147 8.35038 33.1147C8.3504 33.1147 8.35041 33.1147 8.35043 33.1147C8.35045 33.1147 8.35047 33.1147 8.35048 33.1147C8.3505 33.1147 8.35052 33.1148 8.35054 33.1148C8.35055 33.1148 8.35057 33.1148 8.35059 33.1148C8.35061 33.1148 8.35062 33.1148 8.35064 33.1148C8.35066 33.1148 8.35068 33.1148 8.35069 33.1148C8.35071 33.1148 8.35073 33.1148 8.35074 33.1148C8.35076 33.1148 8.35078 33.1148 8.3508 33.1149C8.35081 33.1149 8.35083 33.1149 8.35085 33.1149C8.35087 33.1149 8.35088 33.1149 8.3509 33.1149C8.35092 33.1149 8.35094 33.1149 8.35095 33.1149C8.35097 33.1149 8.35099 33.1149 8.35101 33.1149C8.35102 33.1149 8.35104 33.1149 8.35106 33.1149C8.35107 33.115 8.35109 33.115 8.35111 33.115C8.35113 33.115 8.35114 33.115 8.35116 33.115C8.35118 33.115 8.3512 33.115 8.35121 33.115C8.35123 33.115 8.35125 33.115 8.35127 33.115C8.35128 33.115 8.3513 33.115 8.35132 33.115C8.35134 33.115 8.35135 33.1151 8.35137 33.1151C8.35139 33.1151 8.35141 33.1151 8.35142 33.1151C8.35144 33.1151 8.35146 33.1151 8.35147 33.1151C8.35149 33.1151 8.35151 33.1151 8.35153 33.1151C8.35154 33.1151 8.35156 33.1151 8.35158 33.1151C8.3516 33.1151 8.35161 33.1151 8.35163 33.1152C8.35165 33.1152 8.35167 33.1152 8.35168 33.1152C8.3517 33.1152 8.35172 33.1152 8.35174 33.1152C8.35175 33.1152 8.35177 33.1152 8.35179 33.1152C8.35181 33.1152 8.35182 33.1152 8.35184 33.1152C8.35186 33.1152 8.35187 33.1152 8.35189 33.1152C8.35191 33.1153 8.35193 33.1153 8.35194 33.1153C8.35196 33.1153 8.35198 33.1153 8.352 33.1153C8.35201 33.1153 8.35203 33.1153 8.35205 33.1153C8.35207 33.1153 8.35208 33.1153 8.3521 33.1153C8.35212 33.1153 8.35214 33.1153 8.35215 33.1153C8.35217 33.1153 8.35219 33.1154 8.3522 33.1154C8.35222 33.1154 8.35224 33.1154 8.35226 33.1154C8.35227 33.1154 8.35229 33.1154 8.35231 33.1154C8.35233 33.1154 8.35234 33.1154 8.35236 33.1154C8.35238 33.1154 8.3524 33.1154 8.35241 33.1154C8.35243 33.1154 8.35245 33.1154 8.35247 33.1155C8.35248 33.1155 8.3525 33.1155 8.35252 33.1155C8.35254 33.1155 8.35255 33.1155 8.35257 33.1155C8.35259 33.1155 8.3526 33.1155 8.35262 33.1155C8.35264 33.1155 8.35266 33.1155 8.35267 33.1155C8.35269 33.1155 8.35271 33.1155 8.35273 33.1155C8.35274 33.1156 8.35276 33.1156 8.35278 33.1156C8.3528 33.1156 8.35281 33.1156 8.35283 33.1156C8.35285 33.1156 8.35287 33.1156 8.35288 33.1156C8.3529 33.1156 8.35292 33.1156 8.35294 33.1156C8.35295 33.1156 8.35297 33.1156 8.35299 33.1156C8.353 33.1156 8.35302 33.1157 8.35304 33.1157C8.35306 33.1157 8.35307 33.1157 8.35309 33.1157C8.35311 33.1157 8.35313 33.1157 8.35314 33.1157C8.35316 33.1157 8.35318 33.1157 8.3532 33.1157C8.35321 33.1157 8.35323 33.1157 8.35325 33.1157C8.35327 33.1157 8.35328 33.1157 8.3533 33.1158C8.35332 33.1158 8.35333 33.1158 8.35335 33.1158C8.35337 33.1158 8.35339 33.1158 8.3534 33.1158C8.35342 33.1158 8.35344 33.1158 8.35346 33.1158C8.35347 33.1158 8.35349 33.1158 8.35351 33.1158C8.35353 33.1158 8.35354 33.1158 8.35356 33.1158C8.35358 33.1159 8.3536 33.1159 8.35361 33.1159C8.35363 33.1159 8.35365 33.1159 8.35367 33.1159C8.35368 33.1159 8.3537 33.1159 8.35372 33.1159C8.35373 33.1159 8.35375 33.1159 8.35377 33.1159C8.35379 33.1159 8.3538 33.1159 8.35382 33.1159C8.35384 33.1159 8.35386 33.116 8.35387 33.116C8.35389 33.116 8.35391 33.116 8.35393 33.116C8.35394 33.116 8.35396 33.116 8.35398 33.116C8.354 33.116 8.35401 33.116 8.35403 33.116C8.35405 33.116 8.35407 33.116 8.35408 33.116C8.3541 33.116 8.35412 33.116 8.35413 33.1161C8.35415 33.1161 8.35417 33.1161 8.35419 33.1161C8.3542 33.1161 8.35422 33.1161 8.35424 33.1161C8.35426 33.1161 8.35427 33.1161 8.35429 33.1161C8.35431 33.1161 8.35433 33.1161 8.35434 33.1161C8.35436 33.1161 8.35438 33.1161 8.3544 33.1161C8.35441 33.1162 8.35443 33.1162 8.35445 33.1162C8.35446 33.1162 8.35448 33.1162 8.3545 33.1162C8.35452 33.1162 8.35453 33.1162 8.35455 33.1162C8.35457 33.1162 8.35459 33.1162 8.3546 33.1162C8.35462 33.1162 8.35464 33.1162 8.35466 33.1162C8.35467 33.1162 8.35469 33.1163 8.35471 33.1163C8.35473 33.1163 8.35474 33.1163 8.35476 33.1163C8.35478 33.1163 8.3548 33.1163 8.35481 33.1163C8.35483 33.1163 8.35485 33.1163 8.35486 33.1163C8.35488 33.1163 8.3549 33.1163 8.35492 33.1163C8.35493 33.1163 8.35495 33.1163 8.35497 33.1164C8.35499 33.1164 8.355 33.1164 8.35502 33.1164C8.35504 33.1164 8.35506 33.1164 8.35507 33.1164C8.35509 33.1164 8.35511 33.1164 8.35513 33.1164C8.35514 33.1164 8.35516 33.1164 8.35518 33.1164C8.3552 33.1164 8.35521 33.1164 8.35523 33.1164C8.35525 33.1165 8.35526 33.1165 8.35528 33.1165C8.3553 33.1165 8.35532 33.1165 8.35533 33.1165C8.35535 33.1165 8.35537 33.1165 8.35539 33.1165C8.3554 33.1165 8.35542 33.1165 8.35544 33.1165C8.35546 33.1165 8.35547 33.1165 8.35549 33.1165C8.35551 33.1166 8.35553 33.1166 8.35554 33.1166C8.35556 33.1166 8.35558 33.1166 8.35559 33.1166C8.35561 33.1166 8.35563 33.1166 8.35565 33.1166C8.35566 33.1166 8.35568 33.1166 8.3557 33.1166C8.35572 33.1166 8.35573 33.1166 8.35575 33.1166C8.35577 33.1166 8.35579 33.1167 8.3558 33.1167C8.35582 33.1167 8.35584 33.1167 8.35586 33.1167C8.35587 33.1167 8.35589 33.1167 8.35591 33.1167C8.35593 33.1167 8.35594 33.1167 8.35596 33.1167C8.35598 33.1167 8.35599 33.1167 8.35601 33.1167C8.35603 33.1167 8.35605 33.1167 8.35606 33.1168C8.35608 33.1168 8.3561 33.1168 8.35612 33.1168C8.35613 33.1168 8.35615 33.1168 8.35617 33.1168C8.35619 33.1168 8.3562 33.1168 8.35622 33.1168C8.35624 33.1168 8.35626 33.1168 8.35627 33.1168C8.35629 33.1168 8.35631 33.1168 8.35633 33.1168C8.35634 33.1169 8.35636 33.1169 8.35638 33.1169C8.35639 33.1169 8.35641 33.1169 8.35643 33.1169C8.35645 33.1169 8.35646 33.1169 8.35648 33.1169C8.3565 33.1169 8.35652 33.1169 8.35653 33.1169C8.35655 33.1169 8.35657 33.1169 8.35659 33.1169C8.3566 33.1169 8.35662 33.117 8.35664 33.117C8.35666 33.117 8.35667 33.117 8.35669 33.117C8.35671 33.117 8.35672 33.117 8.35674 33.117C8.35676 33.117 8.35678 33.117 8.35679 33.117C8.35681 33.117 8.35683 33.117 8.35685 33.117C8.35686 33.117 8.35688 33.117 8.3569 33.1171C8.35692 33.1171 8.35693 33.1171 8.35695 33.1171C8.35697 33.1171 8.35699 33.1171 8.357 33.1171C8.35702 33.1171 8.35704 33.1171 8.35706 33.1171C8.35707 33.1171 8.35709 33.1171 8.35711 33.1171C8.35712 33.1171 8.35714 33.1171 8.35716 33.1171C8.35718 33.1172 8.35719 33.1172 8.35721 33.1172C8.35723 33.1172 8.35725 33.1172 8.35726 33.1172C8.35728 33.1172 8.3573 33.1172 8.35732 33.1172C8.35733 33.1172 8.35735 33.1172 8.35737 33.1172C8.35739 33.1172 8.3574 33.1172 8.35742 33.1172C8.35744 33.1172 8.35746 33.1173 8.35747 33.1173C8.35749 33.1173 8.35751 33.1173 8.35752 33.1173C8.35754 33.1173 8.35756 33.1173 8.35758 33.1173C8.35759 33.1173 8.35761 33.1173 8.35763 33.1173C8.35765 33.1173 8.35766 33.1173 8.35768 33.1173C8.3577 33.1173 8.35772 33.1173 8.35773 33.1174C8.35775 33.1174 8.35777 33.1174 8.35779 33.1174C8.3578 33.1174 8.35782 33.1174 8.35784 33.1174C8.35785 33.1174 8.35787 33.1174 8.35789 33.1174C8.35791 33.1174 8.35792 33.1174 8.35794 33.1174C8.35796 33.1174 8.35798 33.1174 8.35799 33.1174C8.35801 33.1175 8.35803 33.1175 8.35805 33.1175C8.35806 33.1175 8.35808 33.1175 8.3581 33.1175C8.35812 33.1175 8.35813 33.1175 8.35815 33.1175C8.35817 33.1175 8.35819 33.1175 8.3582 33.1175C8.35822 33.1175 8.35824 33.1175 8.35825 33.1175C8.35827 33.1175 8.35829 33.1176 8.35831 33.1176C8.35832 33.1176 8.35834 33.1176 8.35836 33.1176C8.35838 33.1176 8.35839 33.1176 8.35841 33.1176C8.35843 33.1176 8.35845 33.1176 8.35846 33.1176C8.35848 33.1176 8.3585 33.1176 8.35852 33.1176C8.35853 33.1176 8.35855 33.1176 8.35857 33.1177C8.35859 33.1177 8.3586 33.1177 8.35862 33.1177C8.35864 33.1177 8.35865 33.1177 8.35867 33.1177C8.35869 33.1177 8.35871 33.1177 8.35872 33.1177C8.35874 33.1177 8.35876 33.1177 8.35878 33.1177C8.35879 33.1177 8.35881 33.1177 8.35883 33.1177C8.35885 33.1178 8.35886 33.1178 8.35888 33.1178C8.3589 33.1178 8.35892 33.1178 8.35893 33.1178C8.35895 33.1178 8.35897 33.1178 8.35898 33.1178C8.359 33.1178 8.35902 33.1178 8.35904 33.1178C8.35905 33.1178 8.35907 33.1178 8.35909 33.1178C8.35911 33.1178 8.35912 33.1179 8.35914 33.1179C8.35916 33.1179 8.35918 33.1179 8.35919 33.1179C8.35921 33.1179 8.35923 33.1179 8.35925 33.1179C8.35926 33.1179 8.35928 33.1179 8.3593 33.1179C8.35932 33.1179 8.35933 33.1179 8.35935 33.1179C8.35937 33.1179 8.35938 33.1179 8.3594 33.118C8.35942 33.118 8.35944 33.118 8.35945 33.118C8.35947 33.118 8.35949 33.118 8.35951 33.118C8.35952 33.118 8.35954 33.118 8.35956 33.118C8.35958 33.118 8.35959 33.118 8.35961 33.118C8.35963 33.118 8.35965 33.118 8.35966 33.118C8.35968 33.1181 8.3597 33.1181 8.35972 33.1181C8.35973 33.1181 8.35975 33.1181 8.35977 33.1181C8.35978 33.1181 8.3598 33.1181 8.35982 33.1181C8.35984 33.1181 8.35985 33.1181 8.35987 33.1181C8.35989 33.1181 8.35991 33.1181 8.35992 33.1181C8.35994 33.1181 8.35996 33.1182 8.35998 33.1182C8.35999 33.1182 8.36001 33.1182 8.36003 33.1182C8.36005 33.1182 8.36006 33.1182 8.36008 33.1182C8.3601 33.1182 8.36011 33.1182 8.36013 33.1182C8.36015 33.1182 8.36017 33.1182 8.36018 33.1182C8.3602 33.1182 8.36022 33.1182 8.36024 33.1183C8.36025 33.1183 8.36027 33.1183 8.36029 33.1183C8.36031 33.1183 8.36032 33.1183 8.36034 33.1183C8.36036 33.1183 8.36038 33.1183 8.36039 33.1183C8.36041 33.1183 8.36043 33.1183 8.36045 33.1183C8.36046 33.1183 8.36048 33.1183 8.3605 33.1183C8.36051 33.1184 8.36053 33.1184 8.36055 33.1184C8.36057 33.1184 8.36058 33.1184 8.3606 33.1184C8.36062 33.1184 8.36064 33.1184 8.36065 33.1184C8.36067 33.1184 8.36069 33.1184 8.36071 33.1184C8.36072 33.1184 8.36074 33.1184 8.36076 33.1184C8.36078 33.1185 8.36079 33.1185 8.36081 33.1185C8.36083 33.1185 8.36085 33.1185 8.36086 33.1185C8.36088 33.1185 8.3609 33.1185 8.36091 33.1185C8.36093 33.1185 8.36095 33.1185 8.36097 33.1185C8.36098 33.1185 8.361 33.1185 8.36102 33.1185C8.36104 33.1185 8.36105 33.1186 8.36107 33.1186C8.36109 33.1186 8.36111 33.1186 8.36112 33.1186C8.36114 33.1186 8.36116 33.1186 8.36118 33.1186C8.36119 33.1186 8.36121 33.1186 8.36123 33.1186C8.36124 33.1186 8.36126 33.1186 8.36128 33.1186C8.3613 33.1186 8.36131 33.1186 8.36133 33.1187C8.36135 33.1187 8.36137 33.1187 8.36138 33.1187C8.3614 33.1187 8.36142 33.1187 8.36144 33.1187C8.36145 33.1187 8.36147 33.1187 8.36149 33.1187C8.36151 33.1187 8.36152 33.1187 8.36154 33.1187C8.36156 33.1187 8.36158 33.1187 8.36159 33.1187C8.36161 33.1188 8.36163 33.1188 8.36164 33.1188C8.36166 33.1188 8.36168 33.1188 8.3617 33.1188C8.36171 33.1188 8.36173 33.1188 8.36175 33.1188C8.36177 33.1188 8.36178 33.1188 8.3618 33.1188C8.36182 33.1188 8.36184 33.1188 8.36185 33.1188C8.36187 33.1188 8.36189 33.1189 8.36191 33.1189C8.36192 33.1189 8.36194 33.1189 8.36196 33.1189C8.36197 33.1189 8.36199 33.1189 8.36201 33.1189C8.36203 33.1189 8.36204 33.1189 8.36206 33.1189C8.36208 33.1189 8.3621 33.1189 8.36211 33.1189C8.36213 33.1189 8.36215 33.1189 8.36217 33.119C8.36218 33.119 8.3622 33.119 8.36222 33.119C8.36224 33.119 8.36225 33.119 8.36227 33.119C8.36229 33.119 8.36231 33.119 8.36232 33.119C8.36234 33.119 8.36236 33.119 8.36237 33.119C8.36239 33.119 8.36241 33.119 8.36243 33.119C8.36244 33.1191 8.36246 33.1191 8.36248 33.1191C8.3625 33.1191 8.36251 33.1191 8.36253 33.1191C8.36255 33.1191 8.36257 33.1191 8.36258 33.1191C8.3626 33.1191 8.36262 33.1191 8.36264 33.1191C8.36265 33.1191 8.36267 33.1191 8.36269 33.1191C8.36271 33.1191 8.36272 33.1192 8.36274 33.1192C8.36276 33.1192 8.36277 33.1192 8.36279 33.1192C8.36281 33.1192 8.36283 33.1192 8.36284 33.1192C8.36286 33.1192 8.36288 33.1192 8.3629 33.1192C8.36291 33.1192 8.36293 33.1192 8.36295 33.1192C8.36297 33.1192 8.36298 33.1192 8.363 33.1193C8.36302 33.1193 8.36304 33.1193 8.36305 33.1193C8.36307 33.1193 8.36309 33.1193 8.3631 33.1193C8.36312 33.1193 8.36314 33.1193 8.36316 33.1193C8.36317 33.1193 8.36319 33.1193 8.36321 33.1193C8.36323 33.1193 8.36324 33.1193 8.36326 33.1193C8.36328 33.1194 8.3633 33.1194 8.36331 33.1194C8.36333 33.1194 8.36335 33.1194 8.36337 33.1194C8.36338 33.1194 8.3634 33.1194 8.36342 33.1194C8.36344 33.1194 8.36345 33.1194 8.36347 33.1194C8.36349 33.1194 8.3635 33.1194 8.36352 33.1194C8.36354 33.1194 8.36356 33.1195 8.36357 33.1195C8.36359 33.1195 8.36361 33.1195 8.36363 33.1195C8.36364 33.1195 8.36366 33.1195 8.36368 33.1195C8.3637 33.1195 8.36371 33.1195 8.36373 33.1195C8.36375 33.1195 8.36377 33.1195 8.36378 33.1195C8.3638 33.1195 8.36382 33.1195 8.36384 33.1196C8.36385 33.1196 8.36387 33.1196 8.36389 33.1196C8.3639 33.1196 8.36392 33.1196 8.36394 33.1196C8.36396 33.1196 8.36397 33.1196 8.36399 33.1196C8.36401 33.1196 8.36403 33.1196 8.36404 33.1196C8.36406 33.1196 8.36408 33.1196 8.3641 33.1196C8.36411 33.1197 8.36413 33.1197 8.36415 33.1197C8.36417 33.1197 8.36418 33.1197 8.3642 33.1197C8.36422 33.1197 8.36423 33.1197 8.36425 33.1197C8.36427 33.1197 8.36429 33.1197 8.3643 33.1197C8.36432 33.1197 8.36434 33.1197 8.36436 33.1197C8.36437 33.1197 8.36439 33.1198 8.36441 33.1198C8.36443 33.1198 8.36444 33.1198 8.36446 33.1198C8.36448 33.1198 8.3645 33.1198 8.36451 33.1198C8.36453 33.1198 8.36455 33.1198 8.36457 33.1198C8.36458 33.1198 8.3646 33.1198 8.36462 33.1198C8.36463 33.1198 8.36465 33.1198 8.36467 33.1199C8.36469 33.1199 8.3647 33.1199 8.36472 33.1199C8.36474 33.1199 8.36476 33.1199 8.36477 33.1199C8.36479 33.1199 8.36481 33.1199 8.36483 33.1199C8.36484 33.1199 8.36486 33.1199 8.36488 33.1199C8.3649 33.1199 8.36491 33.1199 8.36493 33.1199C8.36495 33.12 8.36497 33.12 8.36498 33.12C8.365 33.12 8.36502 33.12 8.36503 33.12C8.36505 33.12 8.36507 33.12 8.36509 33.12C8.3651 33.12 8.36512 33.12 8.36514 33.12C8.36516 33.12 8.36517 33.12 8.36519 33.12C8.36521 33.12 8.36523 33.1201 8.36524 33.1201C8.36526 33.1201 8.36528 33.1201 8.3653 33.1201C8.36531 33.1201 8.36533 33.1201 8.36535 33.1201C8.36536 33.1201 8.36538 33.1201 8.3654 33.1201C8.36542 33.1201 8.36543 33.1201 8.36545 33.1201C8.36547 33.1201 8.36549 33.1201 8.3655 33.1202C8.36552 33.1202 8.36554 33.1202 8.36556 33.1202C8.36557 33.1202 8.36559 33.1202 8.36561 33.1202C8.36563 33.1202 8.36564 33.1202 8.36566 33.1202C8.36568 33.1202 8.3657 33.1202 8.36571 33.1202C8.36573 33.1202 8.36575 33.1202 8.36576 33.1203C8.36578 33.1203 8.3658 33.1203 8.36582 33.1203C8.36583 33.1203 8.36585 33.1203 8.36587 33.1203C8.36589 33.1203 8.3659 33.1203 8.36592 33.1203C8.36594 33.1203 8.36596 33.1203 8.36597 33.1203C8.36599 33.1203 8.36601 33.1203 8.36603 33.1203C8.36604 33.1204 8.36606 33.1204 8.36608 33.1204C8.3661 33.1204 8.36611 33.1204 8.36613 33.1204C8.36615 33.1204 8.36616 33.1204 8.36618 33.1204C8.3662 33.1204 8.36622 33.1204 8.36623 33.1204C8.36625 33.1204 8.36627 33.1204 8.36629 33.1204C8.3663 33.1204 8.36632 33.1205 8.36634 33.1205C8.36636 33.1205 8.36637 33.1205 8.36639 33.1205C8.36641 33.1205 8.36643 33.1205 8.36644 33.1205C8.36646 33.1205 8.36648 33.1205 8.36649 33.1205C8.36651 33.1205 8.36653 33.1205 8.36655 33.1205C8.36656 33.1205 8.36658 33.1205 8.3666 33.1206C8.36662 33.1206 8.36663 33.1206 8.36665 33.1206C8.36667 33.1206 8.36669 33.1206 8.3667 33.1206C8.36672 33.1206 8.36674 33.1206 8.36676 33.1206C8.36677 33.1206 8.36679 33.1206 8.36681 33.1206C8.36683 33.1206 8.36684 33.1206 8.36686 33.1206C8.36688 33.1207 8.36689 33.1207 8.36691 33.1207C8.36693 33.1207 8.36695 33.1207 8.36696 33.1207C8.36698 33.1207 8.367 33.1207 8.36702 33.1207C8.36703 33.1207 8.36705 33.1207 8.36707 33.1207C8.36709 33.1207 8.3671 33.1207 8.36712 33.1207C8.36714 33.1207 8.36716 33.1208 8.36717 33.1208C8.36719 33.1208 8.36721 33.1208 8.36723 33.1208C8.36724 33.1208 8.36726 33.1208 8.36728 33.1208C8.36729 33.1208 8.36731 33.1208 8.36733 33.1208C8.36735 33.1208 8.36736 33.1208 8.36738 33.1208C8.3674 33.1208 8.36742 33.1208 8.36743 33.1209C8.36745 33.1209 8.36747 33.1209 8.36749 33.1209C8.3675 33.1209 8.36752 33.1209 8.36754 33.1209C8.36756 33.1209 8.36757 33.1209 8.36759 33.1209C8.36761 33.1209 8.36762 33.1209 8.36764 33.1209C8.36766 33.1209 8.36768 33.1209 8.36769 33.1209C8.36771 33.121 8.36773 33.121 8.36775 33.121C8.36776 33.121 8.36778 33.121 8.3678 33.121C8.36782 33.121 8.36783 33.121 8.36785 33.121C8.36787 33.121 8.36789 33.121 8.3679 33.121C8.36792 33.121 8.36794 33.121 8.36796 33.121C8.36797 33.121 8.36799 33.1211 8.36801 33.1211C8.36802 33.1211 8.36804 33.1211 8.36806 33.1211C8.36808 33.1211 8.36809 33.1211 8.36811 33.1211C8.36813 33.1211 8.36815 33.1211 8.36816 33.1211C8.36818 33.1211 8.3682 33.1211 8.36822 33.1211C8.36823 33.1211 8.36825 33.1211 8.36827 33.1212C8.36829 33.1212 8.3683 33.1212 8.36832 33.1212C8.36834 33.1212 8.36836 33.1212 8.36837 33.1212C8.36839 33.1212 8.36841 33.1212 8.36842 33.1212C8.36844 33.1212 8.36846 33.1212 8.36848 33.1212C8.36849 33.1212 8.36851 33.1212 8.36853 33.1212C8.36855 33.1213 8.36856 33.1213 8.36858 33.1213C8.3686 33.1213 8.36862 33.1213 8.36863 33.1213C8.36865 33.1213 8.36867 33.1213 8.36869 33.1213C8.3687 33.1213 8.36872 33.1213 8.36874 33.1213C8.36875 33.1213 8.36877 33.1213 8.36879 33.1213C8.36881 33.1213 8.36882 33.1214 8.36884 33.1214C8.36886 33.1214 8.36888 33.1214 8.36889 33.1214C8.36891 33.1214 8.36893 33.1214 8.36895 33.1214C8.36896 33.1214 8.36898 33.1214 8.369 33.1214C8.36902 33.1214 8.36903 33.1214 8.36905 33.1214C8.36907 33.1214 8.36909 33.1214 8.3691 33.1215C8.36912 33.1215 8.36914 33.1215 8.36915 33.1215C8.36917 33.1215 8.36919 33.1215 8.36921 33.1215C8.36922 33.1215 8.36924 33.1215 8.36926 33.1215C8.36928 33.1215 8.36929 33.1215 8.36931 33.1215C8.36933 33.1215 8.36935 33.1215 8.36936 33.1215C8.36938 33.1216 8.3694 33.1216 8.36942 33.1216C8.36943 33.1216 8.36945 33.1216 8.36947 33.1216C8.36949 33.1216 8.3695 33.1216 8.36952 33.1216C8.36954 33.1216 8.36955 33.1216 8.36957 33.1216C8.36959 33.1216 8.36961 33.1216 8.36962 33.1216C8.36964 33.1216 8.36966 33.1217 8.36968 33.1217C8.36969 33.1217 8.36971 33.1217 8.36973 33.1217C8.36975 33.1217 8.36976 33.1217 8.36978 33.1217C8.3698 33.1217 8.36982 33.1217 8.36983 33.1217C8.36985 33.1217 8.36987 33.1217 8.36988 33.1217C8.3699 33.1217 8.36992 33.1217 8.36994 33.1218C8.36995 33.1218 8.36997 33.1218 8.36999 33.1218C8.37001 33.1218 8.37002 33.1218 8.37004 33.1218C8.37006 33.1218 8.37008 33.1218 8.37009 33.1218C8.37011 33.1218 8.37013 33.1218 8.37015 33.1218C8.37016 33.1218 8.37018 33.1218 8.3702 33.1218C8.37022 33.1219 8.37023 33.1219 8.37025 33.1219C8.37027 33.1219 8.37028 33.1219 8.3703 33.1219C8.37032 33.1219 8.37034 33.1219 8.37035 33.1219C8.37037 33.1219 8.37039 33.1219 8.37041 33.1219C8.37042 33.1219 8.37044 33.1219 8.37046 33.1219C8.37048 33.1219 8.37049 33.122 8.37051 33.122C8.37053 33.122 8.37055 33.122 8.37056 33.122C8.37058 33.122 8.3706 33.122 8.37062 33.122C8.37063 33.122 8.37065 33.122 8.37067 33.122C8.37068 33.122 8.3707 33.122 8.37072 33.122C8.37074 33.122 8.37075 33.1221 8.37077 33.1221C8.37079 33.1221 8.37081 33.1221 8.37082 33.1221C8.37084 33.1221 8.37086 33.1221 8.37088 33.1221C8.37089 33.1221 8.37091 33.1221 8.37093 33.1221C8.37095 33.1221 8.37096 33.1221 8.37098 33.1221C8.371 33.1221 8.37101 33.1221 8.37103 33.1222C8.37105 33.1222 8.37107 33.1222 8.37108 33.1222C8.3711 33.1222 8.37112 33.1222 8.37114 33.1222C8.37115 33.1222 8.37117 33.1222 8.37119 33.1222C8.37121 33.1222 8.37122 33.1222 8.37124 33.1222C8.37126 33.1222 8.37128 33.1222 8.37129 33.1222C8.37131 33.1223 8.37133 33.1223 8.37135 33.1223C8.37136 33.1223 8.37138 33.1223 8.3714 33.1223C8.37141 33.1223 8.37143 33.1223 8.37145 33.1223C8.37147 33.1223 8.37148 33.1223 8.3715 33.1223C8.37152 33.1223 8.37154 33.1223 8.37155 33.1223C8.37157 33.1223 8.37159 33.1224 8.37161 33.1224C8.37162 33.1224 8.37164 33.1224 8.37166 33.1224C8.37168 33.1224 8.37169 33.1224 8.37171 33.1224C8.37173 33.1224 8.37175 33.1224 8.37176 33.1224C8.37178 33.1224 8.3718 33.1224 8.37181 33.1224C8.37183 33.1224 8.37185 33.1224 8.37187 33.1225C8.37188 33.1225 8.3719 33.1225 8.37192 33.1225C8.37194 33.1225 8.37195 33.1225 8.37197 33.1225C8.37199 33.1225 8.37201 33.1225 8.37202 33.1225C8.37204 33.1225 8.37206 33.1225 8.37208 33.1225C8.37209 33.1225 8.37211 33.1225 8.37213 33.1225C8.37214 33.1226 8.37216 33.1226 8.37218 33.1226C8.3722 33.1226 8.37221 33.1226 8.37223 33.1226C8.37225 33.1226 8.37227 33.1226 8.37228 33.1226C8.3723 33.1226 8.37232 33.1226 8.37234 33.1226C8.37235 33.1226 8.37237 33.1226 8.37239 33.1226C8.37241 33.1226 8.37242 33.1227 8.37244 33.1227C8.37246 33.1227 8.37248 33.1227 8.37249 33.1227C8.37251 33.1227 8.37253 33.1227 8.37254 33.1227C8.37256 33.1227 8.37258 33.1227 8.3726 33.1227C8.37261 33.1227 8.37263 33.1227 8.37265 33.1227C8.37267 33.1227 8.37268 33.1227 8.3727 33.1228C8.37272 33.1228 8.37274 33.1228 8.37275 33.1228C8.37277 33.1228 8.37279 33.1228 8.37281 33.1228C8.37282 33.1228 8.37284 33.1228 8.37286 33.1228C8.37288 33.1228 8.37289 33.1228 8.37291 33.1228C8.37293 33.1228 8.37294 33.1228 8.37296 33.1228C8.37298 33.1229 8.373 33.1229 8.37301 33.1229C8.37303 33.1229 8.37305 33.1229 8.37307 33.1229C8.37308 33.1229 8.3731 33.1229 8.37312 33.1229C8.37314 33.1229 8.37315 33.1229 8.37317 33.1229C8.37319 33.1229 8.37321 33.1229 8.37322 33.1229C8.37324 33.1229 8.37326 33.123 8.37327 33.123C8.37329 33.123 8.37331 33.123 8.37333 33.123C8.37334 33.123 8.37336 33.123 8.37338 33.123C8.3734 33.123 8.37341 33.123 8.37343 33.123C8.37345 33.123 8.37347 33.123 8.37348 33.123C8.3735 33.123 8.37352 33.123 8.37354 33.1231C8.37355 33.1231 8.37357 33.1231 8.37359 33.1231C8.37361 33.1231 8.37362 33.1231 8.37364 33.1231C8.37366 33.1231 8.37367 33.1231 8.37369 33.1231C8.37371 33.1231 8.37373 33.1231 8.37374 33.1231C8.37376 33.1231 8.37378 33.1231 8.3738 33.1231C8.37381 33.1232 8.37383 33.1232 8.37385 33.1232C8.37387 33.1232 8.37388 33.1232 8.3739 33.1232C8.37392 33.1232 8.37394 33.1232 8.37395 33.1232C8.37397 33.1232 8.37399 33.1232 8.37401 33.1232C8.37402 33.1232 8.37404 33.1232 8.37406 33.1232C8.37407 33.1232 8.37409 33.1233 8.37411 33.1233C8.37413 33.1233 8.37414 33.1233 8.37416 33.1233C8.37418 33.1233 8.3742 33.1233 8.37421 33.1233C8.37423 33.1233 8.37425 33.1233 8.37427 33.1233C8.37428 33.1233 8.3743 33.1233 8.37432 33.1233C8.37434 33.1233 8.37435 33.1233 8.37437 33.1234C8.37439 33.1234 8.3744 33.1234 8.37442 33.1234C8.37444 33.1234 8.37446 33.1234 8.37447 33.1234C8.37449 33.1234 8.37451 33.1234 8.37453 33.1234C8.37454 33.1234 8.37456 33.1234 8.37458 33.1234C8.3746 33.1234 8.37461 33.1234 8.37463 33.1234C8.37465 33.1235 8.37467 33.1235 8.37468 33.1235C8.3747 33.1235 8.37472 33.1235 8.37474 33.1235C8.37475 33.1235 8.37477 33.1235 8.37479 33.1235C8.3748 33.1235 8.37482 33.1235 8.37484 33.1235C8.37486 33.1235 8.37487 33.1235 8.37489 33.1235C8.37491 33.1235 8.37493 33.1236 8.37494 33.1236C8.37496 33.1236 8.37498 33.1236 8.375 33.1236C8.37501 33.1236 8.37503 33.1236 8.37505 33.1236C8.37507 33.1236 8.37508 33.1236 8.3751 33.1236C8.37512 33.1236 8.37514 33.1236 8.37515 33.1236C8.37517 33.1236 8.37519 33.1236 8.3752 33.1237C8.37522 33.1237 8.37524 33.1237 8.37526 33.1237C8.37527 33.1237 8.37529 33.1237 8.37531 33.1237C8.37533 33.1237 8.37534 33.1237 8.37536 33.1237L8.71471 32.1831ZM8.68801 32.1734L9.02736 31.2328C8.72576 31.124 8.42416 31.1173 8.16849 31.1599L8.33276 32.1463L8.49703 33.1327C8.47682 33.1361 8.42392 33.1412 8.34866 33.1141L8.68801 32.1734ZM8.33276 32.1463L8.1682 31.16C8.11426 31.169 7.9638 31.1929 7.8021 31.2588L8.17946 32.1849L8.55683 33.1109C8.52022 33.1258 8.49326 33.1326 8.48432 33.1347C8.47953 33.1358 8.47764 33.1361 8.48007 33.1357C8.4827 33.1352 8.48758 33.1343 8.49732 33.1327L8.33276 32.1463ZM8.17946 32.1849L7.84434 31.2427C7.82455 31.2497 7.80786 31.2562 7.796 31.2609C7.78479 31.2654 7.7746 31.2696 7.77112 31.271C7.76574 31.2733 7.76706 31.2727 7.76935 31.2718C7.7723 31.2706 7.78002 31.2676 7.79074 31.2638L8.12587 32.2059L8.46099 33.1481C8.48078 33.1411 8.49747 33.1346 8.50933 33.1299C8.52055 33.1254 8.53073 33.1212 8.53421 33.1197C8.5396 33.1175 8.53828 33.1181 8.53598 33.119C8.53303 33.1202 8.52531 33.1232 8.51459 33.127L8.17946 32.1849ZM8.12587 32.2059L7.79862 31.261C7.76003 31.2744 7.63553 31.3155 7.55839 31.3434L7.89796 32.284L8.23753 33.2246C8.31241 33.1975 8.34061 33.1898 8.45311 33.1509L8.12587 32.2059ZM7.89796 32.284L7.56283 31.3418C7.56093 31.3425 7.55357 31.345 7.53316 31.351C7.52278 31.3541 7.51236 31.3571 7.49727 31.3614C7.48345 31.3654 7.46581 31.3705 7.4473 31.376L7.73323 32.3343L8.01916 33.2925C8.03159 33.2888 8.14646 33.257 8.23309 33.2261L7.89796 32.284ZM7.73323 32.3343L7.45632 31.3734C7.32417 31.4114 7.2144 31.4565 7.11239 31.5047L7.53964 32.4088L7.96689 33.3129C7.98387 33.3049 7.99287 33.3012 7.99747 33.2994C8.00143 33.2979 8.00491 33.2967 8.01014 33.2952L7.73323 32.3343ZM7.53964 32.4088L7.11239 31.5047C6.90428 31.603 6.74898 31.7452 6.71362 31.7757L7.36702 32.5327L8.02042 33.2898C8.03504 33.2771 8.04234 33.2709 8.04863 33.2656C8.05423 33.2609 8.05441 33.261 8.05105 33.2635C8.04494 33.2681 8.01532 33.29 7.96689 33.3129L7.53964 32.4088ZM7.36702 32.5327L6.71206 31.7771C6.5509 31.9168 6.42459 32.0862 6.33661 32.2584L7.22716 32.7133L8.11771 33.1682C8.10634 33.1904 8.094 33.2096 8.08063 33.2269C8.0674 33.2441 8.04864 33.2653 8.02197 33.2884L7.36702 32.5327ZM7.22716 32.7133C6.28669 32.3734 6.28652 32.3739 6.28636 32.3743C6.2863 32.3745 6.28614 32.3749 6.28603 32.3753C6.28581 32.3759 6.28559 32.3765 6.28537 32.3771C6.28493 32.3783 6.28449 32.3796 6.28405 32.3808C6.28317 32.3833 6.2823 32.3858 6.28143 32.3883C6.27969 32.3934 6.27796 32.3986 6.27625 32.4038C6.27283 32.4143 6.26947 32.4252 6.26621 32.4365C6.25971 32.4591 6.25355 32.4835 6.24812 32.5095C6.23731 32.5615 6.22911 32.6214 6.22737 32.688C6.2238 32.8247 6.24792 32.982 6.32143 33.1394L7.22751 32.7163L8.13358 32.2932C8.20628 32.4489 8.23024 32.6046 8.22669 32.7403C8.22496 32.8063 8.21683 32.8659 8.20608 32.9175C8.20068 32.9434 8.19455 32.9676 8.18807 32.9901C8.18482 33.0014 8.18147 33.0123 8.17806 33.0228C8.17635 33.028 8.17463 33.0332 8.17289 33.0382C8.17202 33.0408 8.17114 33.0433 8.17027 33.0458C8.16983 33.047 8.16939 33.0482 8.16895 33.0495C8.16873 33.0501 8.16851 33.0507 8.16829 33.0513C8.16818 33.0516 8.16802 33.0521 8.16796 33.0522C8.1678 33.0527 8.16763 33.0532 7.22716 32.7133ZM7.22751 32.7163L6.65354 33.5352C7.02112 33.7928 7.43585 33.8476 7.76959 33.813L7.66638 32.8183L7.56317 31.8237C7.59235 31.8206 7.68854 31.8183 7.80148 31.8974L7.22751 32.7163ZM7.66638 32.8183L7.75957 33.814C7.9499 33.7962 8.11131 33.7425 8.16613 33.7254L7.8674 32.771L7.56867 31.8167C7.56047 31.8192 7.5539 31.8213 7.54778 31.8232C7.54178 31.825 7.53707 31.8265 7.53316 31.8276C7.52518 31.83 7.52236 31.8307 7.52273 31.8306C7.52365 31.8304 7.54272 31.8255 7.5732 31.8227L7.66638 32.8183ZM7.8674 32.771L8.80806 33.1104L8.80852 33.1091L7.86786 32.7697L6.9272 32.4304L6.92674 32.4317L7.8674 32.771Z" fill="#3B1502" mask="url(#path-18-inside-9_828_4501)"/>
</svg>
