<svg width="176" height="165" viewBox="0 0 176 165" fill="none" xmlns="http://www.w3.org/2000/svg">
<path d="M4.92995 38.7559C5.0683 35.5583 5.16797 32.467 5.28077 29.3761C5.30278 28.7732 5.10706 28.3144 4.46906 28.2859C3.56048 28.2453 3.46663 27.5561 3.42979 26.9567C3.21573 23.4731 3.14712 19.9944 4.07631 16.5762C4.26392 15.886 4.56163 15.4951 5.33261 15.3911C6.8773 15.1827 8.40525 15.3568 9.94295 15.3684C13.9405 15.3983 17.9371 15.5151 21.9431 15.2557C25.5782 15.0203 29.2439 15.3027 32.8885 15.1611C37.5273 14.9808 42.1627 15.1699 46.7919 15.0924C49.8434 15.0413 52.8798 15.2545 55.9246 15.1963C58.6558 15.1441 61.3854 15.2647 64.1176 15.38C68.9074 15.5823 73.6976 14.9953 78.4945 15.189C79.0883 15.213 79.6904 15.2004 80.2727 15.2994C80.9847 15.4203 81.6285 15.5781 81.7738 14.5552C81.8232 14.2074 82.2013 14.2543 82.4631 14.2197C84.155 13.996 85.8368 14.0042 87.5496 14.1302C89.9568 14.3073 92.3841 14.2057 94.8027 14.2332C95.6142 14.2425 96.434 14.0792 97.123 14.8125C97.4689 15.1805 98.1108 14.9903 98.6212 14.99C109.968 14.9831 121.316 14.8438 132.66 15.0012C141.139 15.1188 149.621 14.983 158.092 15.2515C162.734 15.3987 167.353 14.9707 171.986 15.1702C174.321 15.2708 174.643 15.5197 175.197 17.7609C175.917 20.6746 175.727 23.5874 175.38 26.5074C175.298 27.2027 175.132 27.9213 174.224 28.1052C173.517 28.2483 173.444 28.8447 173.533 29.4241C173.954 32.1525 173.609 34.9013 173.774 37.6324C173.917 39.993 173.698 42.1956 172.877 44.4949C172.285 46.1554 173.064 48.1599 173.564 49.9557C174.276 52.511 175.066 55.0445 175.208 57.7218C175.307 59.6056 174.886 61.3528 173.857 62.9269C173.49 63.4879 173.364 63.9875 173.45 64.6882C173.861 68.0293 174.409 71.3624 174.249 74.7542C174.213 75.5188 174.224 76.3324 173.864 76.9596C172.633 79.1015 173.337 81.285 173.661 83.4212C174.047 85.9585 174.676 88.4588 175.205 90.9741C175.653 93.1106 175.104 95.0856 174.059 96.8983C173.584 97.7219 173.416 98.5092 173.536 99.3808C173.967 102.493 174.051 105.617 174.014 108.755C174 109.934 173.872 111.1 173.35 112.111C172.764 113.247 172.92 114.326 173.161 115.439C173.772 118.264 174.495 121.066 175.027 123.906C175.393 125.86 175.654 127.986 174.545 129.715C173.311 131.639 173.706 133.546 173.846 135.536C174.052 138.456 174.575 141.376 174.023 144.309C173.445 147.379 171.728 149.393 168.596 150.032C166.539 150.451 164.491 150.708 162.368 150.33C159.08 149.744 156.914 147.782 155.287 144.842C154.763 145.791 154.247 146.611 153.641 147.375C151.191 150.464 147.824 150.625 144.346 150.264C140.533 149.867 137.944 147.774 136.537 143.95C135.132 148.884 131.654 150.714 127.132 150.571C122.782 150.433 119.503 148.385 117.972 143.908C116.367 148.408 113.114 150.553 108.632 150.474C103.969 150.392 100.595 148.121 98.9005 143.334C98.3174 145.981 97.0075 147.922 94.7856 149.235C92.5419 150.561 90.1463 150.738 87.6651 150.357C83.8411 149.771 80.8137 147.015 80.2174 143.643C77.9752 149.478 73.975 150.489 70.4578 150.503C65.9667 150.52 62.918 148.205 61.4812 143.825C59.7762 148.525 56.2801 150.594 51.5634 150.537C47.3655 150.485 44.1947 148.586 42.5953 144.286C40.7179 148.9 37.1987 150.719 32.6105 150.404C27.8894 150.08 25.7531 148.415 24.0341 144.291C21.8669 149.128 17.9025 150.601 12.9285 150.443C9.88299 150.346 7.42811 149.381 5.8338 146.687C4.74342 144.844 4.49865 142.793 4.63997 140.713C4.82234 138.028 5.11841 135.35 5.38014 132.671C5.417 132.294 5.37148 131.942 5.16315 131.646C3.16894 128.805 3.45333 125.745 4.24782 122.618C4.97977 119.737 5.64606 116.841 6.13873 113.906C6.21535 113.45 6.24355 113.033 5.99393 112.647C4.29295 110.015 4.64183 107.12 4.91201 104.236C5.08566 102.383 5.27728 100.531 5.4614 98.6787C5.48711 98.42 5.36336 98.2239 5.20991 98.0339C3.30601 95.6758 3.29917 92.9946 3.93208 90.2284C4.69164 86.9087 5.46773 83.5938 5.92051 80.213C5.98456 79.7347 6.08005 79.2567 5.82317 78.8175C4.08965 75.8535 4.5844 72.6902 4.96088 69.5284C5.17605 67.7214 5.33177 65.9072 5.51037 64.0959C5.55192 63.6744 5.3684 63.3327 5.12781 62.9994C3.74368 61.0818 3.41132 58.9956 3.93714 56.6797C4.75215 53.0901 5.56399 49.4965 6.06567 45.8421C6.12176 45.4336 6.16957 45.1162 5.94639 44.7263C4.90349 42.9043 4.65234 40.9241 4.92995 38.7559ZM4.91238 22.935C4.9324 23.7642 4.95985 24.5932 4.97055 25.4225C4.98399 26.4651 5.33042 27.0103 6.54009 26.9061C9.96438 26.6111 13.3999 26.3533 16.8278 26.2174C23.9151 25.9363 31.0133 26.2645 38.1101 26.0033C42.4173 25.8448 46.7413 26.0005 51.0598 26.0928C60.8536 26.3021 70.6549 26.15 80.453 26.174C81.3965 26.1763 81.6959 25.812 81.711 24.9096C81.7493 22.6083 81.4677 20.3076 81.7007 18.0077C81.7951 17.0755 81.401 16.7701 80.468 16.7713C61.5862 16.7951 42.7044 16.7928 23.8226 16.7972C23.585 16.7973 23.3455 16.8 23.1102 16.8289C20.4648 17.1532 17.8242 16.9905 15.172 16.8693C12.1637 16.7319 9.14536 16.7971 6.13161 16.8138C5.24322 16.8188 5.24183 17.5321 5.20406 18.1938C5.16047 18.9574 5.62992 19.0587 6.19783 18.995C8.0519 18.787 9.90256 18.9669 11.7556 18.9945C14.3732 19.0335 16.9918 18.9922 19.6098 19.014C20.3315 19.02 21.1066 18.986 21.7602 19.9401C16.0612 19.9401 10.5556 19.9401 4.90872 19.9401C4.90872 20.9803 4.90872 21.849 4.91238 22.935ZM123.872 16.5644C121.732 16.6015 119.591 16.6623 117.451 16.6712C111.025 16.6978 104.6 16.7179 98.1743 16.7035C97.2303 16.7014 96.7971 16.9511 96.8456 17.9786C96.954 20.2722 97.1021 22.5613 97.2762 24.8509C97.3474 25.787 97.7458 25.9499 98.5487 25.9354C100.604 25.8983 102.661 25.8977 104.717 25.93C112.921 26.059 121.124 25.9068 129.333 26.1C143.798 26.4406 158.275 25.9187 172.742 26.4379C173.138 26.4521 173.65 26.4961 173.751 26.0201C174.173 24.0452 174.26 22.0615 173.799 20.0105C170.952 20.3865 168.288 19.8365 165.612 19.6126C162.961 19.3908 160.247 20.1139 157.508 19.2687C157.909 18.6461 158.345 18.8006 158.707 18.792C159.857 18.7646 161.008 18.7442 162.157 18.7794C165.68 18.8875 169.212 18.5163 172.73 18.9789C173.146 19.0336 173.748 19.0415 173.721 18.4381C173.695 17.8487 173.723 17.0943 172.932 16.8611C172.636 16.7739 172.304 16.7969 171.988 16.7968C165.126 16.7954 158.264 16.7908 151.402 16.8081C150.536 16.8103 149.652 17.0763 148.806 16.9733C144.901 16.4975 140.977 16.8582 137.061 16.6229C132.753 16.3641 128.417 16.564 123.872 16.5644ZM103.931 27.5307C102.941 27.5297 101.946 27.5886 100.961 27.5114C99.9376 27.4312 99.5854 27.8625 99.7169 28.818C100.057 31.2889 99.7327 33.7773 99.9198 36.2568C100.021 37.5988 100.042 38.9205 100.423 40.2413C102.175 46.323 106.5 47.4247 111.467 46.3107C115.054 45.5061 116.964 41.6985 117.129 37.9271C117.256 35.0442 117.024 32.1457 116.957 29.2539C116.918 27.5316 116.921 27.5894 115.15 27.5153C111.479 27.3616 107.811 28.1189 103.931 27.5307ZM39.279 27.7632C34.4062 27.7632 29.5333 27.7632 24.5664 27.7632C24.8085 31.0991 24.7219 34.2265 24.7066 37.3526C24.6955 39.6457 25.4067 41.7209 26.4356 43.71C26.9406 44.6865 27.7247 45.3955 28.7634 45.8252C30.6 46.5849 32.4587 46.7448 34.4442 46.486C37.575 46.0778 40.5352 43.624 41.2568 40.5275C41.5626 39.215 41.7186 37.877 41.717 36.5236C41.7147 34.4583 41.5997 32.3834 41.7591 30.3302C41.9608 27.7335 42.0588 27.7411 39.279 27.7632ZM61.5171 30.4194C61.546 30.934 61.5936 31.4483 61.6006 31.9632C61.6369 34.6578 61.5643 37.3436 62.0596 40.0287C62.6832 43.4088 64.7204 46.0581 67.7743 46.5724C71.5264 47.2042 74.6571 46.2966 76.7682 43.1787C78.1002 41.2116 78.4493 39.0087 78.5896 36.7451C78.7466 34.2127 78.3989 31.6637 78.8245 29.1346C79.0008 28.0864 78.4674 27.7793 77.4575 27.7436C73.0273 27.5872 68.6079 28.1798 64.1681 27.8038C61.6584 27.5912 61.6442 27.7601 61.5171 30.4194ZM126.273 46.4492C127.025 46.4441 127.778 46.4541 128.53 46.4312C131.442 46.3422 133.431 44.912 134.615 42.2633C135.373 40.5677 135.701 38.7734 135.713 36.9544C135.731 34.2248 135.555 31.4945 135.516 28.7637C135.504 27.9577 135.17 27.7354 134.434 27.7569C133.406 27.7869 132.367 27.8297 131.348 27.7211C127.437 27.3042 123.517 27.6458 119.604 27.5259C119.001 27.5075 118.754 27.7703 118.755 28.3766C118.76 32.0149 118.632 35.6663 119.276 39.2647C119.916 42.8372 121.841 46.0038 126.273 46.4492ZM171.974 33.4742C171.962 32.0455 171.953 30.6167 171.937 29.188C171.931 28.6938 171.91 28.2411 171.216 28.198C166.234 27.8888 161.248 27.9617 156.262 27.9931C155.663 27.9968 155.372 28.2314 155.447 28.8547C155.809 31.8597 155.542 34.8815 155.685 37.8902C155.762 39.4988 155.892 41.1231 156.774 42.5782C158.851 46.0055 162.857 47.6436 166.712 46.5954C170.374 45.5996 172.185 43.2305 172.166 39.4018C172.157 37.5009 172.275 35.5939 171.974 33.4742ZM137.324 33.7407C137.372 36.2078 137.8 38.6179 138.482 40.9789C139.402 44.1607 141.384 46.3258 144.781 46.5876C149.86 46.9789 152.386 45.545 153.277 40.9475C154.055 36.9329 153.981 32.8357 154.077 28.7614C154.094 28.0081 153.645 27.7885 153.024 27.7822C147.958 27.7304 142.89 27.7827 137.827 27.5256C137.121 27.4897 136.747 27.8126 136.936 28.5393C137.361 30.1756 137.267 31.8458 137.324 33.7407ZM15.0363 28.0064C12.3614 28.1559 9.68642 28.3054 7.00086 28.4554C6.95844 28.5904 6.90123 28.6987 6.89247 28.8108C6.56135 33.0477 6.63102 37.2927 6.63159 41.5367C6.63165 42.0369 6.78921 42.4549 7.03059 42.8787C8.77883 45.9484 12.6798 47.5067 16.2742 46.5565C19.9918 45.5737 22.3557 42.9427 22.6794 39.6073C23.0294 36.0019 22.8517 32.3921 22.9287 28.7847C22.9455 27.9992 22.6429 27.7236 21.8803 27.7586C19.6749 27.8599 17.4678 27.9241 15.0363 28.0064ZM59.8006 36.1358C59.8073 34.0719 59.8207 32.008 59.8187 29.9441C59.8167 27.9414 59.8097 27.942 57.915 27.966C57.6379 27.9695 57.3605 27.9676 57.0834 27.9623C53.0126 27.8842 48.9413 27.8259 44.8715 27.7113C43.8599 27.6828 43.4999 27.982 43.4949 29.0546C43.4766 32.9411 43.6049 36.8057 44.243 40.6524C44.6939 43.3705 47.4596 46.3054 50.1472 46.6389C51.4497 46.8006 52.7477 46.51 54.0195 46.2809C56.4359 45.8457 58.0592 44.3725 58.916 42.0807C59.6026 40.2438 59.8376 38.3254 59.8006 36.1358ZM106.071 114.658C107.633 115.068 109.235 115.071 110.792 114.82C114.11 114.283 115.799 111.936 116.644 108.936C117.468 106.01 117.466 102.977 117.412 99.9555C117.401 99.355 117.145 99.1894 116.565 99.0791C113.609 98.5163 111.121 97.1828 109.559 94.4746C109.196 93.8448 108.897 93.1775 108.506 92.4017C108.039 93.7851 107.388 94.9162 106.58 95.9526C105.25 97.6578 103.56 98.695 101.356 98.8803C100.66 98.9388 99.6927 98.7463 99.6782 100.026C99.6439 103.052 99.7612 106.047 100.731 108.956C101.618 111.616 103.102 113.7 106.071 114.658ZM69.7168 93.9025C68.0836 96.6143 65.825 98.4881 62.6529 99.0559C61.9455 99.1825 61.8603 99.5456 61.8644 100.118C61.8781 102.019 61.7875 103.925 62.1218 105.81C62.4461 107.638 62.5474 109.549 63.5299 111.178C65.3514 114.197 68.1379 115.211 71.5511 114.91C74.925 114.613 77.033 112.847 78.2171 109.697C79.3314 106.732 79.0446 103.689 79.1088 100.644C79.1327 99.5124 78.8272 98.976 77.6803 98.8412C76.6034 98.7146 75.6502 98.2084 74.7984 97.5226C72.8935 95.9889 71.0901 94.3812 70.5837 91.7173C70.2837 92.4897 70.0405 93.116 69.7168 93.9025ZM79.0134 133.262C77.4709 132.58 75.8565 132.057 74.5136 130.962C72.7822 129.549 71.1197 128.108 70.7181 125.878C69.3606 129.513 67.2243 132.372 62.8843 132.801C62.1439 132.874 61.8762 133.315 61.845 134.101C61.7482 136.532 62.0079 138.941 62.4043 141.314C62.7386 143.315 63.5394 145.243 65.0317 146.683C67.6404 149.2 70.7929 149.324 74.0038 148.202C77.2071 147.082 78.447 144.373 79.0914 141.271C79.6349 138.656 78.9883 136.057 79.0134 133.262ZM105.781 130.107C104.243 131.494 102.703 132.875 100.478 133.001C99.9212 133.032 99.9294 133.493 99.8754 133.876C99.4664 136.782 99.7985 139.626 100.45 142.472C101.267 146.043 103.547 148.107 107.006 148.659C111.604 149.392 115.277 147.849 116.489 142.688C117.164 139.816 117.22 136.881 117.176 133.943C117.166 133.22 116.86 133.009 116.174 132.951C114.555 132.812 113.144 132.127 111.869 131.124C110.223 129.83 109.127 128.163 108.437 125.981C108.085 127.807 107.151 129.002 105.781 130.107ZM53.4243 128.955C52.7736 128.025 52.3712 126.962 51.8371 125.869C51.6079 126.43 51.4404 126.916 51.2173 127.374C50.0394 129.793 48.2108 131.52 45.716 132.536C44.9853 132.834 44.0017 132.621 43.4993 133.225C42.9243 133.916 43.574 134.813 43.5637 135.636C43.5359 137.852 43.4116 140.069 43.7562 142.288C44.2945 145.755 46.4594 147.98 49.8992 148.634C51.3957 148.919 52.8207 148.633 54.2497 148.438C56.9226 148.072 58.6833 146.52 59.5471 143.933C60.6903 140.51 60.7593 137.021 60.2842 133.486C60.2142 132.965 59.8411 132.809 59.4535 132.799C56.743 132.731 55.077 131.01 53.4243 128.955ZM152.989 145.662C153.414 144.935 153.644 144.141 153.839 143.326C154.335 141.259 154.364 139.156 154.32 137.054C154.293 135.759 154.831 134.478 154.417 133.123C152.437 133.145 150.695 132.418 149.062 131.409C147.376 130.367 146.245 128.823 145.433 126.846C145.203 127.266 145.095 127.474 144.979 127.676C143.313 130.567 141.061 132.651 137.578 132.978C136.794 133.051 136.856 133.561 136.855 134.078C136.847 136.948 137.482 139.732 137.947 142.542C138.365 145.072 139.621 146.966 141.923 148.115C143.626 148.966 145.471 148.752 147.286 148.807C149.745 148.881 151.495 147.693 152.989 145.662ZM106.608 61.7242C105.215 63.866 103.137 64.7755 100.691 64.9627C99.9781 65.0172 99.703 65.309 99.7303 66.0009C99.8148 68.1376 99.558 70.2987 99.9757 72.4083C100.464 74.8757 101.134 77.3662 103.17 79.0261C106.237 81.5271 109.613 81.241 112.995 79.649C114.501 78.9402 115.497 77.7656 116.039 76.1721C116.565 74.6259 116.93 73.0394 117.098 71.4296C117.323 69.2719 117.325 67.0981 117.168 64.8901C112.645 64.6564 109.976 62.1744 108.451 57.9475C108.199 59.4639 107.505 60.5525 106.608 61.7242ZM97.1706 132.948C93.6173 131.954 90.9077 129.992 89.7154 126.302C88.0744 129.941 85.6945 132.528 81.5617 132.938C80.9611 132.997 80.9152 133.386 80.8767 133.853C80.6342 136.797 81.0562 139.678 81.5812 142.565C82.1398 145.637 83.9569 147.469 86.8449 148.405C88.158 148.831 89.4948 148.86 90.8379 148.783C93.8545 148.61 96.3674 146.587 97.1796 143.693C98.0894 140.452 97.9593 137.106 98.1204 133.79C98.1466 133.251 97.9139 132.965 97.1706 132.948ZM138.196 75.2872C139.584 79.1767 142.122 80.8619 146.486 80.793C150.757 80.7256 153.802 77.6602 154.109 73.3772C154.283 70.9599 154.184 68.5338 154.456 66.1306C154.553 65.2803 154.376 65.0703 153.529 64.9501C150.221 64.4807 147.511 63.0336 145.977 59.8751C145.767 59.4424 145.567 59.0047 145.323 58.4852C143.79 62.0602 141.32 64.3188 137.55 64.9444C136.779 65.0725 136.812 65.5675 136.861 66.0737C137.157 69.1042 137.283 72.1596 138.196 75.2872ZM33.9491 127.768C33.7603 127.458 33.7046 127.052 33.3583 126.821C33.2683 126.952 33.2137 127.012 33.181 127.082C31.5859 130.508 28.9796 132.565 25.1822 132.976C24.4864 133.051 24.4336 133.497 24.5026 133.985C24.8744 136.61 24.7398 139.276 25.3128 141.896C25.667 143.515 26.046 145.051 27.1266 146.338C29.2514 148.867 32.0982 149.085 35.0557 148.692C37.7023 148.34 39.7465 147.025 40.7244 144.404C42.0154 140.945 41.7943 137.307 41.9218 133.712C41.9458 133.035 41.4332 133.032 40.9593 132.919C37.9684 132.204 35.3209 130.997 33.9491 127.768ZM62.0995 70.9734C62.4067 73.6279 62.7768 76.307 64.6481 78.3677C66.8615 80.8053 69.7207 81.2819 72.8153 80.5163C75.9299 79.7458 77.7357 77.6146 78.5688 74.6138C79.3555 71.7802 79.0026 68.8611 79.0927 65.9749C79.1187 65.1411 78.8571 64.8416 78.0023 64.6711C74.4055 63.9537 71.4611 62.3547 70.4757 58.3045C69.0848 62.2383 66.4829 64.3979 62.4636 64.7359C61.9223 64.7814 61.6364 64.9694 61.7391 65.5455C62.0466 67.2696 61.6542 69.0415 62.0995 70.9734ZM121.412 132.502C120.793 132.79 120.134 132.92 119.461 132.962C118.973 132.993 118.747 133.216 118.754 133.71C118.799 136.716 118.379 139.761 119.262 142.703C120.131 145.598 121.756 147.855 124.945 148.463C126.189 148.7 127.462 148.628 128.732 148.573C132.087 148.429 134.056 146.958 134.852 143.68C135.654 140.38 135.594 137.017 135.287 133.652C135.233 133.062 134.851 132.953 134.425 132.851C131.261 132.087 129.271 129.918 127.703 127.235C127.52 126.921 127.486 126.486 127.015 126.283C125.987 129.073 124.006 130.948 121.412 132.502ZM143.3 114.599C145.188 114.992 147.053 115 148.934 114.466C151.338 113.782 153.45 111.448 153.834 108.988C154.294 106.042 154.191 103.054 154.541 100.102C154.622 99.4217 154.378 99.1686 153.643 99.0588C150.657 98.6122 148.141 97.3767 146.6 94.5793C146.25 93.9433 145.997 93.2475 145.589 92.4895C143.966 96.1734 141.335 98.3605 137.542 99.0745C137.057 99.166 136.847 99.3501 136.921 99.8623C137.311 102.566 137.527 105.307 138.109 107.967C138.743 110.861 139.937 113.506 143.3 114.599ZM127.648 58.9001C127.481 58.5708 127.314 58.2415 127.102 57.8239C126.978 58.0909 126.914 58.2333 126.847 58.3747C125.304 61.6289 123.21 64.244 119.368 64.805C118.842 64.8818 118.746 65.1768 118.763 65.6287C118.867 68.3552 118.602 71.0788 119.197 73.8064C120.105 77.9684 121.718 79.8199 125.896 80.3923C130.882 81.0754 134.04 79.1766 135.034 74.3554C135.638 71.4277 135.51 68.4494 135.258 65.4825C135.224 65.0722 135.059 64.8566 134.643 64.7406C131.505 63.8656 129.138 62.0317 127.648 58.9001ZM86.7004 62.5584C85.1587 63.8579 83.4855 64.8781 81.4015 64.9659C80.7159 64.9948 80.6624 65.4253 80.6755 65.9409C80.7216 67.761 80.6318 69.5762 80.8858 71.4002C81.4522 75.4685 83.0361 78.5893 87.1151 80.3511C90.2769 81.7168 96.3616 79.7487 97.2112 75.4486C97.8136 72.3996 98.1556 69.3574 98.155 66.2529C98.1548 65.2093 97.7901 64.7789 96.8268 64.7751C95.6348 64.7704 94.5785 64.3744 93.5959 63.7346C91.6027 62.4367 90.0896 60.7426 89.3214 58.3043C88.8864 60.0597 88.1215 61.4156 86.7004 62.5584ZM47.6104 79.9764C49.4932 80.7468 51.4008 80.5758 53.3933 80.4279C57.6047 80.1153 59.5467 76.7687 60.006 73.8888C60.3846 71.5145 60.605 69.1189 60.324 66.6885C60.1305 65.0157 60.2454 65.0038 58.5293 64.7033C58.3749 64.6763 58.2266 64.6143 58.0757 64.5678C55.6894 63.8317 54.1362 62.1512 52.9776 60.0325C52.6302 59.3972 52.32 58.7416 51.9709 58.052C51.8615 58.1852 51.8283 58.2116 51.8131 58.2461C51.6532 58.6088 51.5087 58.9789 51.3365 59.3355C49.8501 62.4135 47.5862 64.5082 44.0892 64.9725C43.2787 65.0802 43.216 65.5953 43.3254 66.1602C43.5467 67.3026 43.5792 68.458 43.5079 69.5978C43.3385 72.3044 44.2126 74.7513 45.2183 77.1747C45.6849 78.2993 46.435 79.2113 47.6104 79.9764ZM96.7595 99.0057C93.0641 98.3804 91.0147 95.8312 89.5049 92.6236C86.8905 96.8717 85.9773 97.6153 81.3429 99.0403C80.617 99.2634 80.6308 99.7067 80.685 100.209C80.9356 102.53 80.995 104.867 81.4055 107.176C82.2579 111.972 86.2945 115.084 90.4488 114.73C94.1335 114.415 97.0401 112.127 97.5964 108.465C98.0075 105.76 98.1467 103.031 98.1931 100.294C98.2095 99.3293 97.8407 98.9923 96.7595 99.0057ZM41.7085 69.057C41.7092 68.0634 41.6859 67.069 41.7186 66.0765C41.7419 65.3674 41.5364 65.0793 40.7514 64.9327C37.8402 64.3888 35.5749 62.8348 34.0752 60.2318C33.8635 59.8643 33.7234 59.4343 33.2362 59.2242C32.7108 60.0161 32.1717 60.7915 31.6708 61.5909C30.3599 63.6834 28.2817 64.5771 26.0168 64.9061C24.7838 65.0852 24.4827 65.6014 24.4862 66.6504C24.4948 69.2734 24.7355 71.8827 25.3056 74.4333C25.8451 76.8474 26.8214 79.0607 29.2998 80.1648C30.793 80.8301 32.3804 80.861 33.9663 80.7872C37.4814 80.6237 39.8223 78.7658 40.8069 75.3752C41.383 73.3908 41.7289 71.3663 41.7085 69.057ZM26.8034 98.9383C26.6126 98.9884 26.4174 99.0941 26.2315 99.0797C24.9091 98.9769 24.677 99.697 24.7089 100.845C24.764 102.824 24.7503 104.801 24.9663 106.775C25.3737 110.496 27.3926 114.378 31.7326 114.842C36.7676 115.381 41.1008 112.105 41.5217 107.029C41.7081 104.78 41.4527 102.512 41.919 100.283C42.0748 99.5387 41.8073 99.1531 40.9296 99.0735C38.5945 98.8617 36.5948 97.9413 35.159 95.9784C34.4117 94.9567 33.893 93.8276 33.4339 92.4636C32.0892 95.581 30.1565 97.882 26.8034 98.9383ZM56.1614 97.8861C54.0854 96.3426 52.6569 94.3279 51.848 91.79C50.3904 96.0727 48.5202 97.8362 44.0869 99.0907C43.4789 99.2628 43.5196 99.6578 43.5198 100.09C43.5204 101.402 43.4905 102.715 43.5448 104.024C43.6557 106.698 43.9525 109.317 45.6089 111.588C47.4599 114.126 49.8601 115.303 53.0054 114.824C56.4277 114.302 58.7449 112.561 59.5883 109.046C60.2504 106.285 60.4605 103.503 60.3617 100.679C60.3061 99.0875 60.268 98.9832 58.7123 98.8712C57.8095 98.8062 57.0096 98.5473 56.1614 97.8861ZM20.4245 132.535C17.613 131.808 16.0922 129.705 14.9267 127.201C14.8143 127.352 14.7625 127.409 14.7246 127.474C13.1011 130.257 11.2552 132.736 7.5925 132.763C7.18218 132.767 6.91109 132.994 6.8948 133.421C6.77997 136.428 6.33155 139.421 6.43198 142.436C6.50195 144.537 7.08699 146.401 9.03209 147.609C11.1692 148.936 13.4983 149.152 15.869 148.764C20.3512 148.03 22.9696 144.848 22.9802 140.347C22.9836 138.879 22.9614 137.407 23.0478 135.943C23.2099 133.198 23.2394 133.2 20.4245 132.535ZM21.2518 77.5942C23.8141 73.7197 22.6735 69.3921 22.924 65.0786C18.5177 65.3984 16.7379 62.3067 14.9256 59.1133C14.6963 59.5191 14.5586 59.7966 14.391 60.0545C12.7976 62.5054 10.8693 64.464 7.69025 64.5082C6.95495 64.5185 6.90152 64.9577 6.86552 65.5291C6.73363 67.6225 6.51498 69.7114 6.42816 71.8061C6.34964 73.7005 6.20337 75.6149 7.18855 77.3885C9.96133 82.3804 18.3588 81.9849 21.2518 77.5942ZM157.307 132.91C155.927 133.092 155.825 133.248 156 134.671C156.068 135.219 156.143 135.793 156.054 136.327C155.776 137.994 155.855 139.64 156.172 141.285C156.758 144.325 157.806 147.072 161.046 148.196C163.938 149.201 166.79 148.964 169.589 147.712C171.049 147.059 171.931 145.992 172.284 144.463C172.487 143.577 172.628 142.687 172.654 141.765C172.731 139.063 172.198 136.405 172.139 133.715C172.126 133.137 171.877 132.732 171.196 132.751C169.505 132.797 168.191 131.94 166.904 130.973C165.591 129.986 164.791 128.593 163.908 127.18C162.548 130.091 160.661 132.211 157.307 132.91ZM74.8643 81.5217C74.0438 82.0487 73.114 82.3324 72.1727 82.3502C71.1656 82.3693 71.0887 82.8927 71.1672 83.6524C71.3298 85.2278 71.4126 86.8155 71.6607 88.377C71.945 90.1668 72.0045 92.0781 73.0244 93.6267C75.2635 97.0264 79.4823 98.7225 83.9461 96.2875C85.9605 95.1886 87.7031 93.6367 88.3123 91.3367C89.0257 88.6435 88.8355 85.8342 88.8906 83.0652C88.9035 82.4136 88.5923 82.1796 87.9687 82.1029C86.6606 81.9419 85.468 81.5071 84.3808 80.6871C82.4793 79.2529 80.8801 77.6187 80.1402 75.1317C79.0865 77.8986 77.5061 80.0431 74.8643 81.5217ZM101.196 45.5438C100.146 44.3471 99.6587 42.837 98.9524 41.3286C98.7759 41.7314 98.6466 42.0151 98.5265 42.3026C97.1585 45.5793 94.929 47.7602 91.2291 48.0801C90.4696 48.1458 90.1656 48.5396 90.1514 49.3348C90.1058 51.8763 90.1992 54.4122 90.7153 56.897C91.1666 59.0702 92.0132 61.0762 94.0891 62.2608C95.4236 63.0223 96.8788 63.2972 98.3953 63.4298C103.034 63.8355 105.741 61.5741 106.707 57.7556C107.401 55.0122 107.46 52.203 107.654 49.4052C107.708 48.6181 107.481 48.2982 106.622 48.2499C104.519 48.1318 102.748 47.2175 101.196 45.5438ZM23.1061 104.677C23.0673 103.21 23.0097 101.743 22.9977 100.276C22.9918 99.542 22.8014 99.2151 21.9605 99.0467C19.2102 98.4959 16.7392 97.4028 15.3998 94.6811C15.1201 94.1128 14.915 93.5077 14.6404 92.8332C12.8838 96.7655 11.3963 98.0196 7.52348 98.8664C7.10353 98.9583 6.8985 99.1353 6.88181 99.5636C6.76932 102.45 6.24063 105.316 6.41326 108.214C6.48379 109.398 6.71278 110.562 7.41685 111.58C10.111 115.477 16.0822 116.156 19.699 113.04C22.2166 110.871 23.1372 108.097 23.1061 104.677ZM172.306 68.9341C172.159 67.5264 172.013 66.1188 171.866 64.7069C167.935 64.4881 165.574 62.144 163.744 58.9414C162.482 62.5333 160.728 64.1958 157.461 64.727C156.284 64.9184 155.926 65.5305 155.917 66.5382C155.899 68.715 155.77 70.8906 156.137 73.0627C156.906 77.6079 160.74 81.5926 166.178 80.8164C169.577 80.3314 172.121 78.3025 172.523 75.0393C172.761 73.1083 172.394 71.1026 172.306 68.9341ZM28.1 81.3957C25.9736 80.0532 24.6558 78.1087 23.9319 75.4186C23.5744 76.8376 23.1487 77.8855 22.4365 78.8061C20.9059 80.7848 18.8504 81.889 16.4551 82.3863C15.6094 82.5619 15.1711 82.8167 15.169 83.8262C15.1657 85.459 15.3276 87.0756 15.4712 88.6892C15.8496 92.9425 17.5585 97.3556 23.0936 97.6622C26.1182 97.8298 28.5541 96.908 30.4379 94.6204C33.3017 91.1427 33.2115 87.1124 32.4044 82.9828C32.3019 82.4585 31.921 82.3939 31.51 82.4166C30.3127 82.4825 29.253 82.0925 28.1 81.3957ZM131.778 113.469C133.033 112.739 133.817 111.632 134.365 110.31C135.732 107.01 135.659 103.59 135.33 100.126C135.254 99.3237 134.921 98.985 134.214 98.8793C133.038 98.7034 132.076 98.0858 131.137 97.4134C129.282 96.0848 128.087 94.2622 127.244 91.964C126.776 93.3279 126.184 94.3889 125.381 95.326C123.899 97.0547 122.395 98.7874 119.949 99.0579C119.153 99.146 118.957 99.4511 118.968 100.173C119.007 102.629 118.813 105.101 119.262 107.531C119.657 109.668 120.36 111.724 122.196 113.08C125.208 115.305 128.411 114.87 131.778 113.469ZM94.7588 96.637C96.4948 97.6534 98.3991 97.6364 100.306 97.4971C103.117 97.2918 105.224 95.9805 106.234 93.2798C107.459 90.0066 107.687 86.5704 107.641 83.1064C107.633 82.509 107.244 82.4345 106.789 82.332C105.314 81.9993 103.903 81.5237 102.659 80.6008C100.839 79.25 99.7058 77.4416 99.0195 75.2491C97.1683 79.7818 95.8402 81.0042 91.16 82.3654C90.4652 82.5674 90.4572 82.9737 90.4314 83.5092C90.3275 85.66 90.6804 87.7742 90.8897 89.9022C91.1627 92.6774 92.017 95.0904 94.7588 96.637ZM86.8173 60.0306C87.4312 59.4705 87.6978 58.7399 87.8934 57.9529C88.5602 55.2685 88.3571 52.5103 88.6306 49.7943C88.7486 48.622 88.3535 48.1538 87.2017 48.02C85.6474 47.8396 84.2512 47.1828 82.9482 46.2997C81.2266 45.1329 80.5585 43.2963 79.8054 41.4782C79.7348 41.5553 79.6708 41.596 79.6493 41.6529C78.3114 45.2018 75.8038 47.3696 72.0773 48.0972C71.3779 48.2338 71.1205 48.6259 71.1383 49.3545C71.1958 51.701 71.5472 54.0128 71.7935 56.3399C72.2649 60.7941 75.6954 63.3404 79.9386 63.3673C82.6813 63.3848 84.9054 62.1988 86.8173 60.0306ZM157.467 111.07C159.39 113.943 162.092 115.183 165.51 114.911C168.585 114.666 172.703 112.446 172.445 107.786C172.323 105.573 172.254 103.349 172.167 101.13C172.095 99.3029 172.018 99.2408 170.315 98.6377C167.615 97.6816 165.326 96.188 164.079 93.3709C162.601 96.5755 160.34 98.6073 156.876 99.0653C156.335 99.1368 156.181 99.3794 156.092 99.8951C155.794 101.634 155.888 103.381 155.896 105.125C155.905 107.175 156.269 109.147 157.467 111.07ZM80.418 28.8712C80.3481 29.7376 80.1358 30.6208 80.235 31.4673C80.5301 33.9831 80.3497 36.5419 80.9223 39.0287C81.3327 40.8115 81.7021 42.6438 83.0896 43.9671C85.5595 46.3226 88.4867 47.2493 91.84 46.3922C95.0147 45.5807 96.6031 43.358 97.4816 40.2683C98.6092 36.3028 97.9801 32.31 98.1093 28.3293C98.1225 27.9248 97.943 27.6408 97.4235 27.7243C97.2917 28.2141 97.1681 28.7109 97.0232 29.2014C96.8908 29.6496 96.6336 30.0118 96.1278 30.029C93.2526 30.127 90.4163 30.8968 87.5052 30.4586C86.4164 30.2947 85.2938 30.282 84.1897 30.3122C82.4011 30.3612 82.135 30.2226 81.7078 28.4137C81.5703 27.8312 81.2335 27.7382 80.7571 27.7896C80.1014 27.8604 80.3129 28.3 80.418 28.8712ZM88.1199 125.067C88.5653 122.69 88.7366 120.285 88.864 117.873C88.9468 116.305 88.9839 116.315 87.3883 116.016C86.4116 115.832 85.4808 115.556 84.6398 114.965C82.4414 113.422 80.8315 111.468 80.1849 108.603C79.7849 109.942 79.5981 111.13 78.9243 112.139C77.4088 114.409 75.5099 116.103 72.6415 116.329C71.6822 116.404 71.3294 116.828 71.3585 117.857C71.4261 120.247 71.7991 122.584 72.2249 124.926C72.7457 127.789 74.2899 129.556 77.0607 130.692C81.3383 132.445 87.6034 130.288 88.1199 125.067ZM26.8012 63.1297C29.8094 62.2907 31.2327 60.0083 32.1313 57.2491C32.9653 54.688 32.6885 52.0903 32.4509 49.4791C32.3753 48.6478 32.1661 48.3427 31.2935 48.243C28.2297 47.893 25.8147 46.5099 24.5071 43.5594C24.2771 43.0403 24.037 42.5256 23.8318 42.075C22.5915 44.7071 20.7038 46.6878 17.9751 47.8156C17.1776 48.1452 16.1366 48.2288 15.619 48.8C15.042 49.4366 15.7244 50.4601 15.6858 51.3295C15.5959 53.3559 15.6935 55.3912 16.1992 57.3474C16.755 59.4974 17.427 61.6383 19.7116 62.72C21.9692 63.789 24.2532 63.9953 26.8012 63.1297ZM21.4669 113.847C19.9098 115.112 18.2425 116.184 16.2049 116.425C15.259 116.537 15.1487 117.057 15.2168 117.817C15.3824 119.666 15.4889 121.522 15.6968 123.366C16.1354 127.257 17.7922 130.472 22.2276 131.282C26.4695 132.056 30.0918 130.296 31.7905 126.315C32.9351 123.633 32.8155 120.847 32.5782 118.028C32.4727 116.775 31.9578 116.335 30.6814 116.212C27.0363 115.862 24.6709 113.56 24.0112 109.884C23.4762 111.417 22.6971 112.681 21.4669 113.847ZM152.298 97.2074C153.809 97.6272 155.35 97.6187 156.896 97.5068C159.604 97.3107 161.999 95.0713 162.667 92.4405C163.421 89.4682 162.836 86.4271 163.347 83.4563C163.499 82.5715 162.895 82.4149 162.234 82.2696C159.385 81.6441 157.332 79.9737 155.96 77.4234C155.743 77.0211 155.52 76.6224 155.197 76.0354C153.933 80.041 151.126 81.8661 147.337 82.395C146.597 82.4983 146.589 82.9758 146.591 83.5079C146.596 85.4141 146.556 87.3223 146.629 89.2261C146.767 92.8552 148.979 95.9983 152.298 97.2074ZM101.935 114.008C100.667 112.847 99.7284 111.464 99.1959 109.52C98.7577 110.834 98.3899 111.822 97.6937 112.662C96.085 114.604 94.0935 115.873 91.5768 116.202C90.806 116.303 90.4265 116.625 90.4409 117.408C90.4788 119.467 90.2869 121.534 90.6753 123.581C91.4855 127.852 93.1821 130.325 97.6538 131.17C101.961 131.984 105.558 129.812 106.725 125.55C107.458 122.874 107.353 120.124 107.643 117.41C107.716 116.726 107.351 116.551 106.759 116.434C104.995 116.084 103.29 115.577 101.935 114.008ZM144.786 118.487C144.829 117.825 144.872 117.162 144.92 116.416C140.553 115.903 137.969 113.271 136.649 109.334C135.074 112.775 133.108 115.721 128.864 116.076C128.207 116.13 128.02 116.539 128.027 117.139C128.045 118.926 127.946 120.719 128.069 122.497C128.308 125.956 129.759 128.746 132.922 130.424C138.352 133.303 143.232 129.547 144.454 124.873C144.963 122.924 144.699 120.772 144.786 118.487ZM121.73 62.3675C123.713 61.0966 125.136 59.4309 125.544 57.023C125.969 54.5203 126.136 51.9984 126.253 49.4657C126.301 48.4239 125.96 47.9728 124.935 47.8214C121.878 47.3701 119.887 45.5362 118.669 42.7702C118.503 42.392 118.41 41.9776 118.037 41.6288C117.934 41.8838 117.868 42.0674 117.787 42.2438C116.253 45.5815 113.995 48.0011 110.082 48.275C109.3 48.3297 109.224 48.799 109.228 49.4137C109.243 51.7124 109.175 54.008 109.706 56.2792C110.338 58.9814 111.451 61.3162 114.111 62.5536C116.603 63.7131 119.098 63.5396 121.73 62.3675ZM139.054 79.6725C137.781 78.573 137.1 77.0957 136.503 75.4215C135.612 79.0244 132.464 81.7593 128.873 82.1466C128.356 82.2025 128.048 82.3501 128.054 82.9174C128.08 85.4125 127.838 87.9177 128.311 90.396C129 94.0109 132.307 97.2605 135.548 97.5237C139.375 97.8345 143.106 95.0111 144.312 91.0387C145.103 88.4338 144.535 85.7432 145.008 83.1279C145.129 82.4551 144.575 82.3861 144.097 82.3014C142.202 81.9658 140.639 80.9806 139.054 79.6725ZM109.925 90.28C110.386 92.049 110.742 93.9364 112.13 95.2088C114.59 97.4653 117.548 98.1318 120.731 97.0723C123.579 96.1237 125.101 93.9086 125.728 91.056C126.297 88.4655 126.339 85.8179 126.468 83.18C126.514 82.2185 126.094 81.9224 125.207 81.9275C123.413 81.9379 121.902 81.1833 120.602 80.006C119.286 78.8147 118.401 77.3305 117.895 75.5012C117.044 79.4044 113.96 82.2771 110.443 82.3834C109.397 82.415 109.119 82.8074 109.164 83.719C109.27 85.8565 109.528 87.9764 109.925 90.28ZM146.75 56.9599C147.883 61.9366 150.276 62.9955 154.188 63.572C158.337 64.1832 161.7 61.5074 162.391 57.1046C162.782 54.606 162.868 52.0599 163.121 49.5383C163.205 48.7033 162.779 48.4143 162.059 48.2843C159.94 47.9013 158.245 46.7639 156.846 45.1811C156.077 44.3117 155.413 43.3501 154.659 42.3745C153.456 45.9102 151.147 47.9255 147.387 48.0834C146.93 48.1026 146.389 48.2218 146.388 48.8771C146.387 51.5141 145.668 54.1787 146.75 56.9599ZM34.7455 90.9079C34.9039 91.5209 35.0055 92.1561 35.2325 92.7425C35.721 94.004 36.2214 95.354 37.405 96.0809C42.5867 99.2631 48.7903 97.5102 50.2931 91.0109C50.8846 88.4527 50.923 85.8318 51.0127 83.2194C51.0417 82.3756 50.6869 82.1044 49.8801 82.1422C48.1039 82.2254 46.6775 81.423 45.4235 80.2454C43.9428 78.855 43.148 77.0828 42.7011 75.0807C41.4007 79.1098 39.0644 81.8428 34.7523 82.3929C34.0779 82.4789 33.9767 82.8648 34.0747 83.386C34.5295 85.8042 34.3831 88.2752 34.7455 90.9079ZM117.816 110.485C117.176 112.324 116.203 113.905 114.571 115.06C113.215 116.02 111.669 116.263 110.101 116.457C109.46 116.537 109.237 116.806 109.226 117.45C109.183 119.875 109.269 122.291 109.742 124.673C110.553 128.751 113.504 131.32 117.379 131.373C121.708 131.433 124.689 129.192 125.614 125.163C125.747 124.587 125.82 123.995 125.879 123.406C126.117 120.986 126.339 118.565 126.574 116.077C122.021 116.121 119.539 113.612 118.081 109.704C117.989 109.963 117.923 110.15 117.816 110.485ZM42.425 42.2949C42.2378 42.9489 41.9445 43.5449 41.5491 44.1041C39.9796 46.3233 37.8868 47.6731 35.1837 48.0631C34.5487 48.1547 33.8494 48.2809 34.0569 49.2119C34.5175 51.2787 34.305 53.389 34.4525 55.476C34.8296 60.8093 39.4181 64.8698 44.5361 63.1827C47.3403 62.2583 49.2787 60.6591 50.0756 57.8422C50.8666 55.0459 51.0551 52.1602 51.022 49.2551C51.0113 48.3234 50.6737 48.0115 49.7508 48.0329C47.3163 48.0893 45.5222 46.9266 44.2543 44.8995C43.6117 43.8722 43.1093 42.7723 42.7356 41.456C42.6169 41.7933 42.5542 41.9713 42.425 42.2949ZM142.521 60.275C143.555 59.0388 144.455 57.6921 144.511 56.0446C144.6 53.4369 144.535 50.8239 144.535 48.144C140.351 47.7806 138.024 45.2017 136.727 41.3419C136.594 41.6421 136.515 41.8223 136.435 42.002C134.902 45.4473 132.622 47.922 128.557 48.0466C127.898 48.0668 127.785 48.4409 127.798 48.9881C127.855 51.28 127.801 53.5576 128.261 55.8463C129.022 59.63 131.176 62.0636 134.813 63.0593C137.865 63.8945 140.382 62.736 142.521 60.275ZM53.1823 90.0938C53.3883 90.7769 53.5233 91.4919 53.812 92.1378C55.7069 96.3774 57.7543 97.466 62.1666 97.4407C65.252 97.423 68.0054 94.5228 68.8505 91.0861C69.4062 88.8266 69.2594 86.5161 69.5308 84.2377C69.7201 82.6478 69.622 82.6409 67.9634 82.3726C67.6924 82.3288 67.4257 82.2378 67.1672 82.1411C64.0846 80.9876 62.1611 78.7649 61.227 75.5223C61.1313 75.8078 61.086 75.9868 61.0131 76.1537C59.5318 79.545 57.2379 81.9082 53.3232 82.139C52.4956 82.1878 52.3482 82.6336 52.3447 83.3075C52.3332 85.5385 52.9573 87.6935 53.1823 90.0938ZM35.6576 127.442C36.7448 129.471 38.3565 130.492 40.666 131.123C44.4951 132.169 48.9975 130.026 50.1885 125.459C50.8601 122.884 50.9632 120.221 51.0377 117.565C51.0636 116.64 50.7676 116.162 49.7483 116.24C49.1589 116.286 48.5964 116.01 48.0343 115.811C45.097 114.77 43.79 112.326 42.7404 109.633C41.33 113.282 38.9235 115.702 34.9591 116.294C34.4169 116.375 33.9329 116.511 34.0935 117.264C34.3782 118.598 34.17 119.958 34.2606 121.301C34.3993 123.359 34.6678 125.396 35.6576 127.442ZM68.4795 127.045C69.6507 123.796 69.1449 120.367 69.5452 117.035C69.6263 116.36 69.1573 116.257 68.6231 116.28C67.4246 116.332 66.407 115.852 65.3844 115.28C63.2288 114.073 61.8426 112.27 61.0835 109.756C60.9618 110.111 60.9196 110.263 60.8587 110.407C59.4385 113.767 57.2273 116.072 53.2971 116.031C52.3446 116.021 52.2816 116.591 52.3794 117.292C52.6578 119.288 52.5993 121.327 53.0695 123.295C54.0047 127.21 55.6888 130.563 59.6646 131.261C62.9875 131.845 66.9535 130.176 68.4795 127.045ZM162.916 116.319C159.28 116.067 156.976 113.886 155.293 110.827C155.087 111.018 154.97 111.079 154.925 111.175C153.429 114.373 150.959 116.124 147.408 116.291C146.839 116.318 146.567 116.637 146.552 117.217C146.504 119.08 146.321 120.947 146.405 122.803C146.569 126.411 148.024 129.78 151.639 130.943C152.953 131.366 154.277 131.409 155.625 131.397C158.969 131.368 162.326 128.312 162.642 124.969C162.825 123.035 163.02 121.099 163.082 119.159C163.111 118.247 163.765 117.317 162.916 116.319ZM61.3906 43.3991C61.2086 42.8917 61.0266 42.3844 60.8447 41.8774C60.8035 41.8923 60.7499 41.8961 60.7421 41.917C60.7012 42.0267 60.6828 42.1453 60.637 42.2525C59.2538 45.4917 57.1146 47.7892 53.3711 48.0451C52.5417 48.1018 52.2858 48.5361 52.342 49.3C52.5593 52.2567 52.7652 55.1965 53.9451 57.9943C55.1844 60.9328 56.9124 62.9399 60.3944 63.2958C64.3312 63.6982 68.0327 61.396 68.8046 57.4941C69.3269 54.8538 69.3709 52.1559 69.5656 49.4774C69.6285 48.6125 69.295 48.3332 68.425 48.2539C65.2756 47.9669 62.9391 46.39 61.3906 43.3991ZM93.1137 16.3068C92.0877 16.4995 91.2048 15.8367 90.2148 15.8189C88.1969 15.7825 86.1781 15.7748 84.1615 15.7028C83.4313 15.6767 83.3156 16.0249 83.2926 16.6339C83.2508 17.7467 83.5845 18.8178 83.5148 19.9451C83.3389 22.7916 83.7703 25.6102 84.0446 28.5099C87.6477 28.7057 91.1879 28.4361 94.7272 28.1467C95.1079 28.1155 95.5009 27.9643 95.4547 27.5253C95.2506 25.5899 95.6926 23.6612 95.4603 21.7233C95.3344 20.6731 95.2297 19.5927 95.3347 18.5481C95.5589 16.319 95.6174 16.3249 93.4562 16.3116C93.4166 16.3114 93.377 16.3104 93.1137 16.3068ZM173.133 55.2538C172.439 52.3085 171.528 49.414 171.204 46.2587C169.283 47.5721 167.338 48.2927 165.214 48.4866C164.738 48.5301 164.464 48.7165 164.482 49.2127C164.571 51.5437 164.161 53.9049 164.729 56.203C165.481 59.2469 167.223 61.5524 170.107 62.9074C170.947 63.3019 171.546 63.1317 172.128 62.3356C173.688 60.2012 173.878 57.9064 173.133 55.2538ZM171.826 117.875C171.443 116.89 171.628 115.762 171.077 114.713C169.27 115.794 167.415 116.533 165.335 116.541C164.813 116.542 164.708 116.952 164.715 117.384C164.756 119.761 164.446 122.168 164.995 124.505C165.718 127.586 167.245 130.075 170.451 131.174C171.143 131.412 171.578 131.22 171.991 130.702C173.271 129.098 173.777 127.271 173.499 125.249C173.164 122.811 172.398 120.467 171.826 117.875ZM173.107 88.9467C172.245 86.1947 171.742 83.3746 171.615 80.3146C169.703 81.9158 167.64 82.5966 165.358 82.6401C164.724 82.6521 164.709 83.0977 164.709 83.5541C164.708 85.1813 164.593 86.8186 164.734 88.4336C165.06 92.1894 166.339 95.3511 170.238 96.8247C171.279 97.2182 171.88 97.1472 172.471 96.1489C173.802 93.8974 173.767 91.5608 173.107 88.9467ZM9.14296 81.5745C8.61217 81.2575 8.08137 80.9404 7.42333 80.5474C7.18192 84.4979 5.9016 88.1004 5.24703 91.8298C5.01528 93.1502 5.25129 94.4515 5.78229 95.671C6.33086 96.9308 7.20842 97.5068 8.14711 97.17C10.3207 96.39 12.1275 95.0686 12.8919 92.822C14.0034 89.5552 13.9558 86.1524 13.7553 82.7535C12.2158 82.3338 10.6791 82.3196 9.14296 81.5745ZM11.6174 60.7829C12.6851 59.7807 13.5538 58.6044 13.6794 57.1329C13.9046 54.4942 13.97 51.8417 14.095 49.1946C14.1094 48.8899 13.9694 48.6002 13.6583 48.5727C11.502 48.3816 9.53135 47.6452 7.71328 46.4577C7.08716 47.4861 7.48064 48.5253 7.24125 49.4813C6.64571 51.8593 6.06546 54.2426 5.55252 56.6396C5.12041 58.6589 5.38668 60.5647 6.66828 62.2813C7.26779 63.0843 7.87588 63.3272 8.77913 62.7995C9.73847 62.2391 10.7023 61.6957 11.6174 60.7829ZM7.5963 115.154C7.20048 118.065 6.49295 120.905 5.74899 123.744C5.18308 125.903 5.16805 128.067 6.3113 130.102C6.79265 130.959 7.41327 131.376 8.45904 131.048C11.0645 130.229 12.8109 128.422 13.5204 125.92C14.3271 123.074 13.7662 120.072 13.8362 117.139C13.8491 116.602 13.4569 116.533 13.0192 116.512C11.3222 116.432 9.75936 115.914 8.30759 115.035C8.10092 114.91 7.86601 114.605 7.5963 115.154Z" fill="#3B1502"/>
<path d="M68.2117 43.8704C69.4073 42.9563 70.8511 44.2208 72.1989 43.6034C71.6689 45.3613 70.0537 45.4172 68.2117 43.8704Z" fill="#3B1502"/>
<path d="M105.179 56.7786C104.789 57.8883 104.456 58.8886 104.07 59.8703C103.931 60.2238 103.689 60.6256 103.199 60.4987C102.6 60.3435 102.685 59.8783 102.824 59.426C103.438 57.4172 104.277 55.4612 104.361 53.3316C104.415 51.9711 104.529 50.6116 104.619 49.1991C105.888 49.0232 105.899 49.8876 105.94 50.6159C106.054 52.6603 105.797 54.6785 105.179 56.7786Z" fill="#3B1502"/>
<path d="M48.9589 91.0717C47.8562 93.3554 46.8983 95.5937 44.1675 96.3486C46.5021 93.5498 48.3249 90.496 49.3837 86.9975C50.0114 88.4662 49.4165 89.6959 48.9589 91.0717Z" fill="#3B1502"/>
<path d="M141.407 111.083C140.009 108.968 138.576 107 139.321 104.261C140.533 107.701 142.225 110.83 144.688 113.526C143.107 113.318 142.355 112.179 141.407 111.083Z" fill="#3B1502"/>
<path d="M165.303 7.50475C165.845 8.04079 165.954 8.55584 165.653 9.12963C164.807 10.7403 163.758 12.1813 162.307 13.273C161.948 13.5431 161.545 13.8132 161.144 13.3446C160.768 12.9044 160.973 12.5063 161.294 12.1463C162.107 11.2317 162.945 10.3382 163.705 8.98635C162.162 9.72908 160.851 10.3044 159.752 11.3163C159.319 11.7142 158.768 12.2739 158.195 11.5976C157.614 10.9128 158.247 10.4454 158.691 10.0655C160.573 8.45559 162.52 6.97882 165.303 7.50475Z" fill="#3B1502"/>
<path d="M159.447 2.14746C161.196 2.78534 160.363 4.14302 160.495 5.18286C160.607 6.06721 160.252 6.92421 159.827 7.71465C159.638 8.06796 159.334 8.37352 158.879 8.22629C158.425 8.07961 158.403 7.68037 158.427 7.26693C158.484 6.30553 159.072 5.40081 158.823 4.2573C156.99 5.08304 157.135 7.38613 155.488 8.35065C154.797 5.57707 156.646 2.72576 159.447 2.14746Z" fill="#3B1502"/>
<path d="M167.771 161.182C166.43 160.647 165.909 159.37 164.764 158.603C164.495 159.351 164.296 160.011 164.023 160.641C163.502 161.845 162.885 162.991 161.706 163.727C159.836 164.894 158.199 164.13 158.161 161.959C158.134 160.393 158.581 158.863 159.152 157.393C159.31 156.986 159.592 156.541 160.121 156.704C160.746 156.896 160.68 157.475 160.541 157.94C160.106 159.397 159.802 160.858 160.084 162.737C162.431 160.978 163.021 158.358 164.454 156.245C166.082 157.049 166.604 158.928 168.31 159.664C168.178 157.946 166.567 156.807 166.693 155.146C167.608 154.781 168.027 155.292 168.342 155.766C169.008 156.766 169.582 157.83 169.855 159.005C170.243 160.671 169.735 161.227 167.771 161.182Z" fill="#3B1502"/>
<path d="M5.12549 160.398C6.3836 157.459 9.73593 154.606 11.8622 154.857C10.6698 156.926 8.5143 157.872 7.13066 159.686C8.79027 160.334 10.3035 158.642 12.2673 159.573C10.6983 160.944 9.1083 161.622 7.25717 161.744C6.29328 161.808 5.3638 161.744 5.12549 160.398Z" fill="#3B1502"/>
<path d="M149.472 3.15194C150.204 6.26495 149.199 10.5557 147.341 11.621C147.073 9.24676 148.245 7.20206 148.282 4.91907C146.563 5.38662 146.349 7.64843 144.218 8.06951C144.667 6.03277 145.543 4.53993 146.959 3.3391C147.697 2.71381 148.482 2.21122 149.472 3.15194Z" fill="#3B1502"/>
<path d="M135.716 1.99461C138.86 2.5452 142.401 5.15825 142.647 7.28958C140.364 6.60292 138.949 4.71833 136.869 3.78636C136.622 5.55411 138.613 6.64065 138.161 8.77026C136.469 7.55535 135.444 6.16083 134.9 4.3835C134.616 3.45805 134.464 2.5369 135.716 1.99461Z" fill="#3B1502"/>
<path d="M6.62282 7.21218C8.05766 7.05282 9.11631 7.93478 10.4867 8.07236C10.3732 7.28522 10.2395 6.60855 10.1846 5.92431C10.0798 4.6166 10.0871 3.31441 10.7831 2.10889C11.8859 0.198735 13.6894 0.100793 14.7412 1.99982C15.4997 3.36927 15.822 4.93082 16.0073 6.49668C16.0586 6.93029 16.0192 7.45616 15.476 7.5615C14.8338 7.68608 14.6206 7.14452 14.5249 6.66825C14.2253 5.17723 13.8089 3.74444 12.6786 2.21891C11.4323 4.87666 12.1399 7.46748 11.8665 10.0079C10.0523 10.0646 8.71061 8.65224 6.85939 8.80564C7.78186 10.2603 9.73777 10.507 10.4057 12.0325C9.76902 12.7849 9.15953 12.5317 8.6585 12.2618C7.60193 11.6928 6.59664 11.0238 5.80441 10.116C4.68035 8.82784 4.86794 8.09781 6.62282 7.21218Z" fill="#3B1502"/>
<path d="M43.2638 20.1958C48.5284 20.0707 53.6474 20.7931 58.804 20.7143C63.6621 20.6402 68.5249 20.8385 73.385 20.9458C75.0311 20.9822 76.6689 21.153 78.3422 21.5453C78.1138 22.2789 77.5835 22.2822 77.0899 22.248C71.6305 21.8697 66.1586 22.1695 60.7009 21.9586C57.0328 21.8169 53.3525 21.8235 49.6925 21.358C44.7272 20.7263 39.7278 21.2262 34.7459 21.0786C34.2627 21.0643 33.7258 21.2513 33.0273 20.5651C36.5811 20.4015 39.8367 19.8346 43.2638 20.1958Z" fill="#3B1502"/>
<path d="M5.13037 24.0541C5.28998 23.4075 5.7543 23.5514 6.118 23.5479C10.5571 23.5051 14.9964 23.4753 19.4357 23.4536C19.6126 23.4528 19.7901 23.567 19.99 23.6354C19.91 24.3264 19.4601 24.3814 18.9647 24.4181C14.7335 24.731 10.4946 24.5797 6.25922 24.6401C5.82227 24.6463 5.36818 24.6598 5.13037 24.0541Z" fill="#3B1502"/>
<path d="M71.3544 23.2997C74.3404 23.1357 77.223 22.8922 80.0982 23.361C80.3026 23.3943 80.3629 23.6315 80.3323 23.848C79.1047 24.5162 70.9454 24.2962 70.3013 23.564C70.5325 23.17 70.9275 23.3582 71.3544 23.2997Z" fill="#3B1502"/>
<path d="M108.168 21.39C114.206 21.8299 120.14 22.0729 126.247 22.1831C125.888 23.0129 125.374 22.9811 124.883 22.9873C120.21 23.0466 115.548 22.8316 110.881 22.5883C107.924 22.4342 104.963 22.0241 101.991 22.2712C100.946 22.3581 99.948 22.1024 98.9316 21.9873C98.5207 21.9408 98.0657 21.795 97.9585 20.9966C101.36 20.7781 104.7 21.5552 108.168 21.39Z" fill="#3B1502"/>
<path d="M106.111 163.621C105.355 163.523 104.957 163.179 104.851 162.539C104.552 160.744 104.517 158.961 105.012 157.212C105.135 156.779 105.293 156.32 105.895 156.45C106.461 156.572 106.537 157.013 106.5 157.494C106.405 158.715 106.276 159.935 106.488 161.472C107.268 159.945 107.964 158.692 108.229 157.22C108.332 156.641 108.434 155.861 109.298 156.052C110.174 156.245 109.953 157 109.828 157.572C109.302 159.995 108.644 162.352 106.111 163.621Z" fill="#3B1502"/>
<path d="M116.06 161.134C114.283 161.687 114.126 160.101 113.393 159.353C112.77 158.717 112.535 157.819 112.396 156.933C112.334 156.536 112.391 156.109 112.842 155.95C113.292 155.792 113.551 156.096 113.781 156.44C114.317 157.24 114.394 158.317 115.283 159.076C116.244 157.307 114.738 155.562 115.467 153.795C117.691 155.584 117.941 158.975 116.06 161.134Z" fill="#3B1502"/>
<path d="M94.4464 159.22C94.0219 158.59 94.0161 158.066 94.4223 157.566C95.5625 156.16 96.8675 154.959 98.4961 154.179C98.8992 153.986 99.3453 153.801 99.645 154.337C99.9264 154.841 99.6481 155.189 99.2654 155.477C98.2931 156.21 97.3003 156.917 96.2949 158.088C97.9454 157.666 99.3373 157.361 100.608 156.59C101.107 156.286 101.755 155.848 102.182 156.621C102.615 157.403 101.906 157.735 101.399 158.019C99.2476 159.22 97.0592 160.279 94.4464 159.22Z" fill="#3B1502"/>
<path d="M129.944 19.9501C133.673 20.2551 137.292 20.5456 140.909 20.8604C142.466 20.9958 144.069 20.6975 145.611 21.3179C145.567 22.0354 145.074 22.0257 144.6 22.027C141.395 22.0358 138.202 21.8202 135.016 21.5093C132.149 21.2296 129.283 20.939 126.424 20.593C125.374 20.4659 124.242 20.5372 123.345 19.6964C125.529 19.4158 127.68 19.7327 129.944 19.9501Z" fill="#3B1502"/>
<path d="M165.341 23.0628C167.719 23.0618 169.978 23.0578 172.237 23.0618C172.822 23.0629 173.439 23.0293 173.662 23.7778C172.466 24.4465 154.551 24.2528 153.41 23.4225C157.481 23.1031 161.351 23.0801 165.341 23.0628Z" fill="#3B1502"/>
<path d="M76.6838 143.104C76.2241 144.187 75.8272 145.164 75.3794 146.119C75.2182 146.462 74.9504 146.848 74.4699 146.69C73.882 146.496 73.997 146.037 74.164 145.595C74.9054 143.63 75.8678 141.732 76.0883 139.612C76.2292 138.258 76.43 136.908 76.6107 135.505C77.8881 135.411 77.8439 136.274 77.8378 137.003C77.8208 139.051 77.4349 141.049 76.6838 143.104Z" fill="#3B1502"/>
<path d="M17.7823 53.3607C17.8343 52.1855 17.8644 51.1312 17.9498 50.0796C17.9806 49.7009 18.0966 49.246 18.6019 49.2252C19.2201 49.1999 19.2729 49.67 19.2713 50.143C19.2642 52.2439 19.0266 54.3597 19.5615 56.4224C19.9032 57.7402 20.187 59.0745 20.5088 60.4527C19.3452 60.9894 19.0848 60.1653 18.8353 59.48C18.1352 57.5564 17.7979 55.5501 17.7823 53.3607Z" fill="#3B1502"/>
<path d="M87.2569 112.86C88.3438 111.808 90.0817 113.002 91.3811 112.245C91.1424 114.12 89.4623 114.315 87.2569 112.86Z" fill="#3B1502"/>
<path d="M20.1901 8.25815C20.1186 8.41411 20.0384 8.57368 19.9838 8.73708C19.9297 8.89727 19.9123 9.08425 19.927 9.25315C19.9393 9.42661 19.9782 9.56319 20.0476 9.72559C20.0698 9.77469 20.1465 9.92022 20.2103 9.9298C20.4067 9.95766 20.6053 9.84692 20.7697 9.72452C20.8263 9.68236 20.8784 9.63788 20.9263 9.59932C21.1849 9.37829 21.2959 9.05013 21.4352 8.75236C21.5131 8.58592 21.601 8.42915 21.6666 8.25759C21.7203 8.11202 21.7416 7.942 21.7415 7.78509C21.74 7.64922 21.7208 7.51231 21.6778 7.38165C21.6474 7.29865 21.5995 7.14599 21.5047 7.11379C21.4177 7.08438 21.2932 7.11145 21.2093 7.1397C21.0345 7.19845 20.8935 7.2835 20.7514 7.39781C20.4715 7.62053 20.3367 7.9435 20.1901 8.25815Z" fill="#3B1502"/>
<path d="M0.783239 12.7889C0.872812 12.8277 0.960389 12.8676 1.05085 12.9032C1.28588 12.9965 1.5282 13.117 1.78479 13.1409C2.03318 13.164 2.29072 13.1142 2.50485 12.9816L2.50685 12.9805C2.4991 12.9666 2.49135 12.9526 2.48359 12.9387C2.38504 12.7614 2.23367 12.6162 2.06253 12.5107C1.98694 12.4641 1.90935 12.4187 1.82531 12.3899C1.79516 12.378 1.76411 12.3693 1.73396 12.3574C1.60913 12.307 1.48519 12.2535 1.35836 12.2042C1.2679 12.1686 1.18121 12.1256 1.09364 12.0857C0.984114 12.0346 0.88345 11.9995 0.765484 11.9661C0.650622 11.9337 0.529966 11.9331 0.409312 11.9326C0.283556 11.9323 0.149795 11.96 0.0322085 12.0074C0.0322085 12.0074 0.0302112 12.0085 0.0293215 12.0116C0.0923302 12.2662 0.26294 12.479 0.473746 12.6276C0.569727 12.6967 0.673932 12.7429 0.781242 12.7901L0.783239 12.7889Z" fill="#3B1502"/>
</svg>
