<svg fill="none" xmlns="http://www.w3.org/2000/svg" viewBox="0 0 200 200"><path d="m195.89 69.21.12.03.07.02.11.06.03.02.14.17-.83.07-.53.06-.5.1h-.01q-.96.19-1.89.57v-.01l-.24.11c-.9.49-1.72 1.11-2.5 1.69q-1.2.87-2.33 1.82l-.02.01c-.54.51-1.1 1.07-1.56 1.72q-.21.3-.45.5l-.24.2.08.3.06.28.01.04v.02l.02.07v.08l.01.02q.05.25.15.51l.02.04.02.04.15.23.03.05.04.03.15.14.03.02.03.02q.33.2.67.34l.03.01h.02q.53.15 1.04.22l.34.05 1.2.14h.02q.52.04 1.06.03l.36-.01 1.44-.11q.7-.07 1.37-.18l1.34-.23h.01c.97-.19 2.04-.39 3.03-.83h.01l.01-.01q.45-.23.88-.55l.03-.02.02-.03.11-.11.28-.32-.26-.32-.02-.03-.03-.04-.03-.04-.2-.18-.2-.17-.02-.01-.02-.02-.24-.13a7 7 0 0 0-.7-.32l-.02-.01h-.01l-.32-.1a6 6 0 0 0-.97-.18h-.03l-.72-.03-.47.01-.43.04-.79.1-.78.14-.8.17-.26.05-.13.02h-.13l-.04-.02-.08-.04-.02-.03-.02-.04a.3.3 0 0 1 0-.17q0-.06.08-.15l.06-.08.65-.67.66-.66.67-.66.7-.67q.66-.67 1.22-1.42l.01-.02.01-.02q.18-.28.38-.64l.35-.74.04.1.02.09q.01.27-.05.49l-.06.14a3 3 0 0 1-.38.66l-.17.24-.34.43-.36.41c-.5.55-1.03 1.03-1.6 1.58l-.4.38-1.1 1.12 1.55-.28.5-.08.51-.06.52-.06h.45l.5.01q.39.01.75.07l.22.05q.4.1.76.23l.25.1q.33.14.63.33l.19.13q.19.14.3.25l.16.2.13.16q.08.15.1.37v.03a1 1 0 0 1-.2.47l-.13.15-.18.16h-.01l-.16.13-.18.12q-.32.22-.67.37l-.24.1q-.72.3-1.53.46l-.55.13-1.16.23-1.18.2-1.1.14-1.1.11q-.83.07-1.67.01l-.56-.04q-.92-.06-1.77-.2l-.25-.06-.29-.08-.32-.13-.18-.07-.16-.1-.22-.14a2 2 0 0 1-.42-.41l-.06-.1-.19-.36-.04-.12-.05-.17q-.15-.5-.04-.86l.04-.11q.12-.25.32-.39l.17-.11.05-.2.05-.18-.47-.17.47.17.05-.12q.42-.62.95-1.16.62-.62 1.3-1.19l.47-.36.92-.7.94-.69q.81-.62 1.66-1.1l.24-.14q.85-.43 1.8-.64l.28-.05.58-.11.59-.09q.25-.04.45-.03z" fill="#3B1502" stroke="#3B1502"/><mask id="a" fill="#fff"><path d="m133.62 170.46-.06.03zM45.9 113.64q.45-.23.9-.43l.92-.39.2-.08q.22-.09.46-.06c.17.02.34.14.43.28.08.13.14.34.1.5a2 2 0 0 1-.23.43l-.13.16-.3.38-1.42 1.69-1.43 1.62q-1.07 1.16-2.1 2.34-.97 1.15-1.85 2.38-.93 1.3-1.9 2.6c-.56.74-1.18 1.45-1.74 2.21q-.25.41-.45.87-.17.5-.23 1 0 .23.02.44l.01.04q.12.07.25.12a4 4 0 0 0 1.5.15q.37-.02.76-.09.75-.15 1.48-.38l1.54-.51c.57-.2 1.14-.35 1.69-.58a26 26 0 0 0 2.06-.97c.85-.47 1.67-1 2.54-1.43l.73-.35q.31-.15.66-.24c.28-.07.57-.05.79.15a.8.8 0 0 1 .2.7l-.07.2-.1.15q-.07.11-.18.21l-.24.22a16 16 0 0 0-2.02 2.17q-.93 1.21-2 2.32c-.68.7-1.43 1.34-2.1 2.04a24 24 0 0 0-2.04 2.39q-.9 1.24-1.83 2.43l-.93 1.13q-.43.5-.82 1.03-.21.32-.36.68-.09.33-.13.68l.01.41.08.24.02.04.05.05.2.1a4 4 0 0 0 1.63.17q.44-.03.86-.1c.9-.2 1.75-.53 2.6-.85q1.31-.53 2.61-1.03c.35-.14.8-.3 1.14-.06.18.1.27.22.36.4q.04.14.04.27c.01.3-.15.57-.34.79q-.5.56-1.06 1.09l-1.05 1.04-1.06 1.12q-.9 1.1-1.71 2.26l-1.36 2.1q-.68 1-1.38 1.98-.42.6-.71 1.28-.1.3-.13.61-.01.34.04.67l.06.2.08.12.1.1.1.04.38.1.3.04q.7.06 1.36-.02c1.03-.24 1.98-.71 2.93-1.16l2.4-1.12a25 25 0 0 1 3.82-1.62c1.27-.38 2.56-.72 3.75-1.3h.02l.72-.37.82-.43a2 2 0 0 1 1.2-.16 5 5 0 0 1 1.17-.32l.32-.07.39-.1q.27-.09.56-.1.4 0 .71.28c.23.18.32.5.38.78.13.54.17 1.11.21 1.67q.14 1.6.2 3.2.1 1.56.17 3.13l.07 1.49q.03.67.13 1.35l.08.33.3-.24a11 11 0 0 0 1.2-1.17 38 38 0 0 0 3.21-3.88l.86-1.28q.54-.74 1.1-1.46.5-.62 1.03-1.17l.58-.6.34-.33.08-.1c.25-.26.66-.3.93-.05q.2.18.22.46 0 .2-.1.37v.01l-.05.07-.02.02v.01q-.19.3-.32.66l-.38.93-.77 1.93q-.47 1.24-.8 2.51a20 20 0 0 0-.42 2.67q-.06 1.05-.04 2.1-.01.9.1 1.81l.68-.7q.51-.51.99-1.06.5-.56.96-1.15.42-.55.8-1.12a29 29 0 0 1 1.74-2.33l.3-.35q.14-.2.34-.34c.28-.17.68-.16.9.1q.15.14.22.35.04.14.05.3 0 .34-.03.68l-.1 1.6q-.05.76-.06 1.53 0 .83.02 1.65l.14 3.27c.06 1.03.1 2.05.29 3.06q.22 1.22.7 2.33l.03.04.11-.08a8 8 0 0 0 1.03-1.18l.53-.74a22 22 0 0 0 1.16-2.1l.59-1.24q.24-.57.53-1.12.54-1.05 1.16-2.08l.56-.92.28-.44.2-.3a.6.6 0 0 1 .48-.22q.27 0 .48.17.13.12.18.29c.1.28.12.6.16.9a16 16 0 0 0 .78 3.12q.4 1.23.93 2.4.57 1.3 1.07 2.6c.3.75.56 1.5.89 2.22q.2.43.49.8.12.14.25.24l.13.07.05.01h.12l.06-.02.1-.07.09-.09q.44-.75.76-1.56l.6-1.56q.62-1.75 1.16-3.55.29-.93.55-1.87l.26-.92.1-.42.13-.33q.09-.18.24-.28c.18-.15.5-.15.69-.04q.25.14.35.4l.05.18.09.32.26.67q.26.49.56.95.3.47.63.93l1.48 1.9q.73.96 1.42 1.94t1.43 1.92q.36.43.79.82.37.34.79.64a9 9 0 0 0 1.51.77q.34.1.7.17l.12-.01.18-.07.15-.09q.16-.15.3-.35.43-.68.76-1.41a16 16 0 0 0 .77-1.94l.01-.06c.37-1.04.65-2.1.94-3.16q.2-.75.35-1.5.08-.42.14-.85l.1-.87q.12-1.25.16-2.5a12 12 0 0 0-.15-2.43.7.7 0 0 1 .3-.6c.24-.14.6-.16.81.06q.2.23.36.47a36 36 0 0 0 2.48 3.22 7 7 0 0 0 .96.94q.5.42 1.02.8.39.26.8.49l.8.4 1.66.78q.28.08.58.14l.26-.02.2-.07.23-.14q.27-.26.5-.55a4 4 0 0 0 .45-.91q.16-.44.25-.87l.2-1.05q.17-.95.31-1.91c.17-1.23.39-2.46.5-3.7l.01-.22q0-.2.03-.4a.7.7 0 0 1 .45-.5.7.7 0 0 1 .9.6q.2.7.52 1.37.36.7.77 1.4.4.71.83 1.42a22 22 0 0 0 1.88 2.59c.87.98 1.79 1.92 2.65 2.91q.65.74 1.2 1.54.49.77 1.06 1.49.34.37.74.68.3.21.65.36.45.12.89.18l.56-.02.1-.03.09-.06.07-.08.1-.21q.18-.68.32-1.37.1-.49.16-.98.03-.49.02-.98l-.03-.62c-.02-.28-.03-.57.18-.8q.2-.2.48-.23.29 0 .5.18c.19.13.28.37.36.57q.2.41.44.8.28.45.6.86l.46.45.4.3q.57.39 1.15.73l1.24.65c.77.41 1.53.83 2.34 1.15q.37.13.75.22a7 7 0 0 0 1.96.12 3 3 0 0 0 1.12-.58l.32-.38.2-.38q.14-.55.2-1.12l.05-.47q.06-1.9-.1-3.81-.16-1.84-.48-3.65a23 23 0 0 0-1.07-3.58q-.35-.9-.75-1.8l-.75-1.58v-.01q-.2-.34-.35-.7a.7.7 0 0 1 .26-.76l.02-.02a.6.6 0 0 1 .66-.03q.3.18.52.45a9 9 0 0 1 1.08 1.35q.66.95 1.39 1.88l.3.33.4.38q.43.36.87.67l-.14-.09q.1.08.2.13l.14.1q.38.24.75.44.33.16.68.3a4 4 0 0 0 1.26.27h.4l.03-.01.01-.01.01-.02q.06-.18.07-.36 0-.5-.1-1-.43-1.65-1.17-3.18l-.35-.67c-.17-.32-.37-.64-.3-1.02a.6.6 0 0 1 .73-.48l.21.07.13.1q.17.1.32.24l.27.23.49.44q.51.45 1.06.85c.88.55 1.8 1.06 2.76 1.43q.51.17 1.04.23.3 0 .58-.03.2-.04.4-.13l.05-.03a4 4 0 0 0 .13-1.42q-.02-.26-.07-.52-.31-1.36-.84-2.66l-.6-1.47q-.26-.64-.56-1.26a25 25 0 0 0-2.02-3.48l-.25-.37q-.1-.14-.2-.32a2 2 0 0 1-.27-.93v-.05a2 2 0 0 1-.18-.53q.3-.16.64-.17.53-.01 1 .23l.64.4.69.44q.68.4 1.4.75.65.32 1.34.57l.14.05.22.08.03.01.02.01h.01l.04.02 1.36.45 1.6.56q.75.27 1.5.6.67.3 1.35.56.94.31 1.93.42c.53.03 1.05.05 1.57-.03l.24-.09.04-.05.03-.04q.08-.37.12-.75.04-.57 0-1.14-.04-.6-.16-1.18a15 15 0 0 0-.96-2.86q-.14-.33-.3-.64l-.04-.1q-.42-.83-.91-1.64l-1.07-1.69q-.48-.72-.98-1.42l-.69-1.01c-.13-.19-.25-.35-.27-.58a.67.67 0 0 1 .81-.7c.23.03.45.14.66.23l.34.14.87.37q.72.3 1.42.62 1.49.7 3.02 1.28a23 23 0 0 0 2.68.67l.8.1c.48.03.97.06 1.45-.01l.13-.05.05-.03.08-.15v-.05q.02-.34-.03-.68c-.14-.59-.38-1.14-.62-1.7l-.26-.52-.38-.68-.37-.59-.31-.47q-.21-.33-.44-.65l-.46-.62q-.38-.5-.8-.99-1.29-1.46-2.61-2.9-.62-.7-1.28-1.34l-.64-.63-.35-.34-.16-.16a1 1 0 0 1-.25-.39.7.7 0 0 1 .14-.67c.13-.12.3-.26.5-.25q.22.01.47.07.18.03.36.1l.73.22q.78.23 1.6.42 1.43.36 2.93.5a31 31 0 0 0 5-.1q.5-.1.97-.3l.32-.2.15-.17.14-.28q.08-.27.12-.55 0-.23-.02-.44a4 4 0 0 0-.25-.7 7 7 0 0 0-.96-1.47l-.5-.61q-.59-.67-1.24-1.29l-1.3-1.19q-.65-.61-1.34-1.2-.69-.56-1.41-1.1-.32-.22-.66-.4a11 11 0 0 0-1.55-.64l-.2-.14a.7.7 0 0 1-.23-.55q0-.27.16-.47l.2-.18q.3-.15.63-.23.59-.12 1.18-.16l2.36-.12c1.52-.07 3.05-.1 4.55-.37a28 28 0 0 0 4.25-1.25l.45-.3q.2-.19.38-.42a4 4 0 0 0 .33-.63l.1-.4-.01-.18-.09-.23a6 6 0 0 0-.5-.76 17 17 0 0 0-1.68-1.63q-.89-.74-1.84-1.39l-.46-.3q-.41-.26-.86-.5-.62-.28-1.28-.51h-.02a26 26 0 0 0-2.74-.74l-1.34-.29c-.36-.08-.78-.2-1-.52a1 1 0 0 1-.14-.68c.05-.24.26-.5.47-.6q.4-.23.82-.33l1.08-.27 1.31-.29c.87-.19 1.76-.37 2.58-.73q.49-.26.93-.59l.2-.22.1-.19v-.06l-.06-.16q-.12-.22-.28-.45a8 8 0 0 0-1.25-1.05l-.96-.59q-.5-.27-1.03-.51-1.12-.5-2.24-.97a78 78 0 0 1-3.35-1.53q-.5-.22-1.01-.4-1.68-.58-3.39-1.08a19 19 0 0 0-2.33-.53l-.2-.04a1 1 0 0 1-.32-.1 1 1 0 0 1-.26-.14.8.8 0 0 1-.26-.99c.17-.32.52-.5.84-.62q1.33-.5 2.7-.97l2.78-.97a52 52 0 0 0 5.12-2.06c.61-.32 1.22-.64 1.77-1.06q.16-.15.32-.33l-.4-.19q-.93-.3-1.88-.54-.69-.17-1.38-.37-.67-.2-1.36-.37l-2.89-.61-2.93-.6-2.74-.6-1.88-.5-.3-.1a1 1 0 0 1-.32-.29c-.17-.25-.17-.67.06-.89l.2-.18.28-.14.2-.06.34-.12.58-.18 1.44-.5q.64-.23 1.27-.49l1.5-.56 1.2-.46q.39-.13.76-.3l.59-.26q.66-.33 1.27-.74.32-.21.63-.45l.47-.4q.51-.43.94-.97l.03-.05-.22-.3-.38-.4a4 4 0 0 0-.55-.5q-.45-.25-.94-.42c-.94-.32-1.9-.55-2.86-.84l-.56-.16-2.67-.75-6-1.68-2.74-.76-.97-.26a17 17 0 0 1-1.78-.44l-.19-.06a.76.76 0 0 1-.32-1c.16-.3.5-.46.82-.4q.55.13 1.1.3l.1.03.3.07q.75.15 1.51.23.76.02 1.5-.12.32-.04.61-.12l.76-.2q.66-.2 1.3-.44 1.28-.47 2.5-1.07a37 37 0 0 0 3.44-2.07l1-.68.2-.22v-.03l-.1-.15-.22-.2q-.25-.15-.54-.25a18 18 0 0 0-4.39-.66l-2.76-.12c-.93-.04-1.86 0-2.79.03a133 133 0 0 0-3.4.2q-.4.05-.8 0a2 2 0 0 1-.8-.31 3 3 0 0 1-.85.42c-.39.07-.8.08-1.13-.15q.06-.28.2-.52.35-.58.92-.91.49-.32.96-.66.85-.62 1.67-1.26.88-.68 1.78-1.33 1.06-.73 2.06-1.55.72-.64 1.3-1.45.32-.45.53-.98l.08-.31-.02-.25q-.05-.21-.14-.43l-.1-.17-.04-.03-.02-.01-.17-.03c-.7-.03-1.4.13-2.08.26l-1.06.22q-.67.16-1.33.34-1.17.32-2.29.76c-.7.26-1.39.57-2.1.77-.35.1-.71.23-1.08.23a.9.9 0 0 1-.76-.39.8.8 0 0 1 0-.85c.16-.27.44-.46.68-.65l.41-.32c1.13-.87 2.28-1.7 3.36-2.63.49-.45 1-.9 1.4-1.45l.2-.38.02-.08-.03-.24a5 5 0 0 0-.32-.85l-.04-.03-.18-.1a3 3 0 0 0-.55-.09 15 15 0 0 0-2.2.12q-1.17.13-2.3.34a29 29 0 0 0-2.63.67q-.42.18-.86.33-.24.09-.5.12c-.22 0-.47-.04-.63-.2a.9.9 0 0 1-.2-1.04q.01-.1.06-.17.3-.46.63-.9l.92-1.28.04-.07.02-.03.03-.04 1.03-1.55.52-.82q.4-.62.68-1.29l.02-.06q-.38.02-.73.09a20 20 0 0 0-2.8.68q-1.19.41-2.32.96-.61.3-1.18.71l-.5.4-.12.11a1 1 0 0 1-.34.22.6.6 0 0 1-.4.01.7.7 0 0 1-.41-.29.7.7 0 0 1-.1-.52c.05-.26.2-.5.3-.73l.23-.56.49-1.16.86-2.15q.16-.5.24-1.01 0-.18-.02-.34l-.04-.11-.07-.07-.06-.03a2 2 0 0 0-.73.14c-.7.22-1.36.53-2.03.82-.66.27-1.33.47-2 .7l-1.12.39q-.45.17-.9.4l-.54.24q-.16.1-.33.16t-.35.08q-.19.02-.36-.02a.8.8 0 0 1-.47-.33 1 1 0 0 1-.13-.4q0-.23.07-.45.07-.23.17-.47l.06-.18c.41-1.42.71-2.86 1.08-4.28q.3-1.13.53-2.25.21-1.02.3-2.05c.04-.68.07-1.35-.03-2.03l-.07-.22-.05-.1h-.04q-.2 0-.37.03c-.7.17-1.37.49-2.02.8l-2 .94c-.68.34-1.36.67-2 1.08q-.97.66-1.83 1.43l-.72.62q-1 .89-2.04 1.76-.8.73-1.5 1.54-.64.72-1.15 1.53l-.3.46c-.2.3-.42.66-.77.77-.22.07-.5.03-.66-.14a1 1 0 0 1-.23-.36 1 1 0 0 1-.03-.53l.05-.38.1-.59q.09-.58.15-1.16c.05-1.08-.06-2.17-.2-3.25l-.2-1.78q-.08-.83-.22-1.64a150 150 0 0 0-.94-4.17 9 9 0 0 0-.47-1.42l-.17-.28-.04-.04-.04-.02-.12-.02-.4.03q-.4.09-.79.27-.51.28-.96.65-1.18 1.1-2.24 2.3a28 28 0 0 0-2.16 2.63q-.97 1.52-1.84 3.08-.5.84-.96 1.7-.12.23-.29.46a2 2 0 0 1-.68.58q-.06.18-.15.33c-.1.18-.24.39-.43.49-.03.02-.12.09-.16.07s-.1-.1-.12-.13a2 2 0 0 1-.5-.95q-.06-.24-.07-.47v-.28l-.01-.5q0-1.21-.07-2.43a91 91 0 0 0-.77-8.85c-.14-.64-.3-1.3-.56-1.9a4 4 0 0 0-.36-.56l-.3-.28-.27-.14-.17.05q-.16.09-.28.2-.29.26-.5.6c-.65 1-1.17 2.1-1.7 3.17q-.36.76-.68 1.53l-.31.75-.3.81q-.36 1.13-.55 2.3l-.12.65c-.05.3-.07.6-.15.9a.8.8 0 0 1-.48.53q-.28.09-.57-.04c-.2-.07-.33-.27-.4-.47q-.04-.16-.05-.33l-.06-.36-.1-.74-.15-1.44q-.16-1.47-.4-2.92c-.1-.47-.2-.92-.4-1.36l-.12-.2-.02-.02-.1-.04-.15-.03q-.18 0-.35.02-.28.06-.54.18a5.5 5.5 0 0 0-1.92 1.76q-.67 1.03-1.08 2.19-.33 1-.62 2l-.18.66-.17.65-.35 1.56-.15.7q-.05.15-.06.32c-.04.19-.05.42-.17.59q-.13.25-.4.35a.7.7 0 0 1-.56-.04 1 1 0 0 1-.32-.3l-.14-.28-.09-.22-.26-.52a36 36 0 0 0-1.04-1.9l-1.1-1.86-1.08-1.97q-.5-.97-.96-1.97l-1.1-2.1-.6-1q-.14-.24-.3-.47a9 9 0 0 0-.5-.71l-.08-.09-.17.13-.3.34q-.28.46-.45.97a26 26 0 0 0-1 4.93q-.03.64-.02 1.29l.05.77.07.75q.05.63.15 1.25l.23 1.32.23 1.11a66 66 0 0 0 .57 2.23l.16.58a3 3 0 0 1 .16.65 1 1 0 0 1-.09.38.7.7 0 0 1-.37.32 1 1 0 0 1-.34.02c-.26-.03-.48-.25-.66-.42l-.29-.27-.57-.55q-.57-.55-1.16-1.08-.6-.54-1.24-1.05-.32-.26-.66-.51l-.66-.48-.83-.55-.87-.52a12 12 0 0 0-1.74-.86 13 13 0 0 0-2.33-.54q-.25 0-.5.03l-.25.07-.25.17-.18.2-.12.26-.1.4q0 .36.04.72.03.42.09.82.12.89.27 1.76l.13.66q.1.48.23.97l.28 1.02q.19.6.41 1.19l.4 1 .86 2.13.43 1.06q.19.43.4.84.5.98 1.03 1.95l.28.52.14.3.06.13q.06.15.08.3a.7.7 0 0 1-.18.5 1 1 0 0 1-.3.2c-.21.09-.44 0-.64-.08l-.42-.22q-.94-.51-1.9-.98-.9-.46-1.86-.85-1-.35-2.02-.61a14 14 0 0 0-1.9-.3 5 5 0 0 0-1.01.01l-.24.08-.11.08a3 3 0 0 0-.06 1.21q.05.41.13.81.23 1.16.52 2.3.14.52.31 1l.24.65q.08.22.18.41.24.51.52.99.3.5.62.97.35.54.73 1.07.34.42.66.85c.22.3.12.8-.2 1a.8.8 0 0 1-.83-.02l-.29-.19-.69-.47q-.57-.41-1.13-.85c-.74-.57-1.46-1.17-2.21-1.71q-2.37-1.48-4.98-2.47a7 7 0 0 0-1.36-.3h-.13l-.11.04-.2.13q-.1.09-.17.2-.12.2-.21.41-.09.3-.14.63 0 .5.08.99a15 15 0 0 0 1.13 3.33q.29.59.67 1.13.23.3.43.6.22.37.04.75a.7.7 0 0 1-.61.4c-.37.04-.65-.26-.9-.5q-.23-.2-.5-.39h-.02c-1.07-.73-2.25-1.3-3.35-2q-.85-.56-1.74-1.08-.85-.45-1.77-.79-1.07-.37-2.15-.77l-1.85-.75q-1.13-.37-2.3-.52-.38-.01-.77.05-.5.08-.97.26l-.13.08-.05.07-.04.07-.02.1q0 .25.05.48.2.92.49 1.82a13 13 0 0 0 1.49 3.1 118 118 0 0 0 2.38 3.8l1.24 1.86c.23.36.5.73.6 1.15.08.38.09.8-.08 1.15q-.53-.07-.93-.43-.2.07-.4.09c-.36.04-.7-.05-1.06-.13q-.92-.22-1.85-.39l-1.96-.33q-.93-.14-1.87-.23-1.08-.05-2.15-.12a18 18 0 0 1-1.28-.13q-.5-.09-1.03-.14a14 14 0 0 0-2.39.07q-.43.09-.84.27-.26.15-.5.32l-.15.15-.06.12a1 1 0 0 0 0 .43q.16.61.43 1.18.2.4.44.8.23.39.5.76.49.75 1.03 1.45l1.15 1.51.96 1.22.57.6q.28.27.6.5l.59.48.26.23q.17.14.31.32c.22.31.15.72-.16.94q-.29.2-.64.23l-.82.1q-.75.06-1.5.2-1.04.21-2.07.51-1.02.27-2 .69l-.36.22q.14.23.31.44.59.6 1.25 1.11.6.39 1.23.7.66.3 1.3.63c.83.43 1.65.88 2.52 1.24q.66.24 1.34.39l1.43.26q.74.13 1.44.3.63.18 1.24.4l1.2.43.22.08.17.06.26.1c.31.15.68.37.66.78a.7.7 0 0 1-.16.45q-.14.16-.31.24-.25.09-.5.15l-.73.12-2.7.43-1.32.2q-.68.08-1.34.2a7 7 0 0 0-1.94.66q-.5.24-.96.55l.24.19.6.44q.9.59 1.9.96l.06.02.02.01h.03l.11.04q-.04 0-.08-.03l.43.14q.73.22 1.43.48.32.12.63.3c.2.12.39.26.46.5.05.1.05.26.03.38a1 1 0 0 1-.18.34c-.17.23-.5.26-.76.3l-.32.03h-.66l-1.52-.09a52 52 0 0 0-4.56.1q-.73.05-1.45.17a14 14 0 0 0-3.24 1.14l.21.16.88.53q.47.27.96.48a9 9 0 0 0 1.92.44q.99.13 1.99.24 2 .24 3.99.5l1.32.15.7.08q.17.01.34.05.39.1.55.48c.06.17.06.38-.03.54a1 1 0 0 1-.24.27q-.19.14-.41.2l-.6.16q-.71.17-1.42.41c-.94.34-1.85.75-2.77 1.13-.87.36-1.74.7-2.6 1.11q-.55.3-1.08.67-.58.45-1.18.88-.52.37-1.02.77l-.9.7q-.26.23-.48.5l-.02.04.02.02q.5.14 1 .2.9.05 1.81.02l1.86-.07 1.53-.07q.67-.04 1.36-.05l.84.05q.36.01.7.1c.26.1.5.2.66.43.06.09.13.27.13.37l-.02.23-.06.16a1 1 0 0 1-.35.46q-.2.17-.42.32c-.8.52-1.66.95-2.48 1.44q-.64.38-1.26.78-.6.43-1.17.9-.34.3-.65.6a90 90 0 0 0-2.12 2.26l-1.3 1.4q-.61.65-1.16 1.38-.27.4-.45.86l-.06.26v.03l.02.02q.12.07.22.1.5.15 1 .21.54.04 1.07.05l1.2-.03q.63-.01 1.25-.06l1.2-.14q1.33-.26 2.6-.71c.96-.37 1.89-.81 2.85-1.17l1.44-.51 1.38-.44q.66-.22 1.33-.42l.33-.09q.2-.08.4-.08c.16 0 .34.03.45.15.09.1.15.17.2.3.07.23 0 .5-.17.69q-.32.32-.7.57l-.54.43-1.08.9-.13.11-.17.15q-.52.48-.99 1.02l-.45.62-.37.54q-.76 1.13-1.5 2.29c-.43.71-.9 1.44-1.2 2.22l-.07.23q.24.07.48.09.51-.01 1.01-.1.73-.18 1.44-.4l1.3-.45q.7-.23 1.38-.5l1.36-.54c.93-.37 1.88-.69 2.81-1.04q1.36-.5 2.68-1.13zm141.1-5.9q.06.22.05.46-.01.47-.17.9-.1.3-.25.55-.19.31-.42.6-.23.26-.5.48c-.37.3-.82.48-1.25.65a25 25 0 0 1-5.5 1.33q-1.5.12-3 .18l-1.32.07-.73.04.31.18q.39.24.76.52l.74.56c.73.56 1.39 1.2 2.07 1.82.72.65 1.45 1.3 2.1 2.02q.5.56.97 1.16.39.49.7 1.01c.3.52.56 1.06.66 1.64.17 1.04-.18 2.24-1.1 2.81-.53.32-1.1.47-1.7.59q-.71.13-1.44.14l-1.35.04c-.98.01-1.97.02-2.94-.1q-1.36-.15-2.67-.47l-.69-.18.13.13 1.74 1.9q1 1.07 1.94 2.2.25.27.47.56l.53.7q.39.51.72 1.06.24.35.46.72l.38.68.33.68q.17.35.33.73a7 7 0 0 1 .48 1.6q.04.45 0 .9a1.7 1.7 0 0 1-.65 1.1q-.2.12-.41.2-.46.14-.94.14-1.53.02-3.02-.33l-.65-.16-.62-.16q-.75-.23-1.5-.53c-.87-.34-1.73-.75-2.59-1.14l-.7-.31.69.99c.7 1.06 1.41 2.14 1.97 3.3l.01.01.04.09v.01l.03.05.11.23.04.07.01.03q.47 1 .82 2.04a12 12 0 0 1 .6 3.58l-.06.87-.05.34c-.03.2-.08.43-.18.61q-.06.16-.17.28l-.14.19q-.16.16-.34.27-.33.18-.68.26-.37.08-.75.1-.68.05-1.36-.02-.75-.04-1.47-.24-.74-.2-1.45-.52l-1.24-.55q-.65-.27-1.31-.5l-2.24-.78-.6-.22-.18-.07a15 15 0 0 1-2.7-1.3 25 25 0 0 1 1.1 1.97 35 35 0 0 1 2.17 5.26q.25.79.4 1.62.03.28.03.57v.24q-.01.5-.1 1-.03.24-.13.48l-.1.2-.1.13q-.12.14-.29.24t-.36.17q-.36.14-.74.17a5 5 0 0 1-1.65-.17 8 8 0 0 1-1.45-.6q-.7-.34-1.37-.73-.4-.24-.8-.53l.1.25a16 16 0 0 1 .64 1.96q.08.37.13.77c.07.43.06.9-.07 1.32a1.3 1.3 0 0 1-1.1.96q-.45.05-.9-.01-.3-.03-.59-.1a8 8 0 0 1-2.44-1.08l-.05-.04-.1-.06q-.64-.44-1.2-.93l-.36-.35a21 21 0 0 1 .98 3.4 38 38 0 0 1 .45 3.1q.1.82.14 1.65l.04 1.7q0 .84-.06 1.7a7 7 0 0 1-.13 1 4 4 0 0 1-.65 1.47q-.22.27-.48.5a4 4 0 0 1-1.81.88q-.3.05-.63.05-.83 0-1.65-.15a8 8 0 0 1-1.55-.5c-.92-.38-1.8-.9-2.67-1.36a18 18 0 0 1-1.32-.75c-.47-.3-.96-.6-1.35-1a8 8 0 0 1-.54-.59q-.08.55-.2 1.08c-.1.43-.18.87-.33 1.28q-.18.48-.55.81a2 2 0 0 1-.92.43c-.58.09-1.2 0-1.77-.14a5 5 0 0 1-2.64-1.98q-.47-.63-.9-1.3a15 15 0 0 0-.85-1.12l-.08-.1q-1.06-1.18-2.13-2.32a25 25 0 0 1-2.1-2.64q-.43-.67-.82-1.35l-.94-1.64-.02.12c-.15.93-.26 1.86-.42 2.78-.18 1-.31 2.03-.69 2.98a5 5 0 0 1-.98 1.6 5 5 0 0 1-.5.48c-.4.23-.83.42-1.29.4q-.45 0-.88-.15-.43-.13-.83-.33l-1.29-.61q-.37-.17-.7-.36l-.66-.4q-.72-.49-1.38-1.04-.61-.5-1.12-1.1-.55-.65-1.08-1.33l-.44-.54q0 .73-.06 1.46-.06 1.07-.17 2.13-.12 1-.35 1.97-.17.75-.39 1.49-.2.78-.45 1.56-.27.84-.57 1.69a15 15 0 0 1-1.5 3.09 3 3 0 0 1-.57.63q-.34.23-.74.36-.46.1-.94 0a5 5 0 0 1-.8-.22 8 8 0 0 1-2.67-1.61 17 17 0 0 1-2.05-2.46q-.9-1.3-1.85-2.55c-.63-.83-1.29-1.63-1.87-2.49l-.6-.93q-.16.6-.34 1.19-.45 1.56-1 3.1a40 40 0 0 1-1.16 3.09 11 11 0 0 1-.52 1.04q-.12.2-.26.38-.15.19-.36.33c-.13.08-.29.19-.44.22q-.25.06-.5.08-.27 0-.52-.08-.23-.07-.45-.21a2 2 0 0 1-.38-.31 5 5 0 0 1-.51-.65 9 9 0 0 1-.69-1.43l-.57-1.49q-.58-1.5-1.23-2.97-.33-.8-.63-1.6-.26-.77-.47-1.55-.21-.72-.36-1.47l-.06.1q-.42.68-.78 1.35-.38.74-.73 1.48l-.74 1.57q-.36.75-.77 1.47a13 13 0 0 1-1.47 2.11q-.29.37-.61.68c-.23.2-.44.39-.72.52l-.24.09a1 1 0 0 1-.35.02 1 1 0 0 1-.33-.08l-.1-.06a1 1 0 0 1-.31-.26q-.15-.14-.24-.34a9 9 0 0 1-.76-2.1 17 17 0 0 1-.45-3.13l-.17-3.35-.05-1.59.02-1.63.07-1.32q-.38.5-.73 1-.46.7-.97 1.38a27 27 0 0 1-2.1 2.4l-.59.59c-.22.22-.44.47-.68.66q-.2.16-.44.22a1 1 0 0 1-.36.02h-.06c-.25-.04-.45-.26-.58-.45-.07-.1-.13-.26-.16-.37l-.06-.25-.08-.44q-.1-.72-.1-1.44a19 19 0 0 1 1.32-8.2l-.38.53q-.59.93-1.25 1.82a44 44 0 0 1-2.94 3.48q-.35.38-.73.73-.27.26-.57.5c-.32.29-.67.58-1.1.65q-.5.04-.85-.29a1 1 0 0 1-.23-.3q-.09-.15-.15-.32-.1-.3-.17-.6-.15-.78-.19-1.57-.1-1.53-.18-3.08l-.2-3.13q-.05-1.45-.23-2.9a10 10 0 0 1-1.07.24l-.23-.01-.15-.02q-.23-.07-.45-.17l-.19-.14a2 2 0 0 1-.31.4q-.23.2-.48.34l-.26.14-.66.33q-.66.33-1.32.6-.69.27-1.39.47c-.92.28-1.86.52-2.76.86q-.65.25-1.28.55l-1.2.57-.03.01-.05.03q-1.2.59-2.44 1.13l-1.35.63-.73.29c-.31.1-.63.23-.95.3a5 5 0 0 1-1.2.13q-.35 0-.71-.03l-.56-.06q-.3-.07-.6-.18a1.8 1.8 0 0 1-1.09-1.05 3 3 0 0 1-.2-.86 4 4 0 0 1 .34-2.01c.42-.88 1.02-1.66 1.59-2.45l1.5-2.3q.38-.6.8-1.19.42-.6.88-1.18a17 17 0 0 1 .88-1.06q.45-.48.9-.91l.13-.13-1 .39c-.57.2-1.14.43-1.73.58a7.6 7.6 0 0 1-3.55.06q-.45-.13-.82-.38a1.6 1.6 0 0 1-.54-.7q-.2-.52-.18-1.07c.03-.51.1-1.01.3-1.48a6 6 0 0 1 .81-1.25q.47-.58.95-1.12l.92-1.11.9-1.2.91-1.23q.96-1.2 2.05-2.28c.72-.7 1.48-1.36 2.17-2.11q.52-.56 1-1.14l.75-.96-.3.18q-1.24.7-2.56 1.25c-.89.36-1.81.62-2.71.94q-1.31.47-2.68.7a7 7 0 0 1-2.28-.04l-.46-.15q-.23-.1-.44-.23a1 1 0 0 1-.26-.2l-.1-.13-.14-.27-.06-.22q-.04-.17-.05-.34l-.01-.27a4 4 0 0 1 .27-1.43q.13-.4.3-.75.38-.65.84-1.22l.98-1.21q.93-1.18 1.8-2.4.88-1.27 1.84-2.46 1.02-1.22 2.1-2.39 1-1.1 1.98-2.21l.3-.35-.82.39-1.48.6q-1.43.55-2.88 1.07l-1.3.52q-.69.28-1.38.52c-.95.32-1.89.7-2.86.93q-.44.1-.88.16a4 4 0 0 1-1.1.03 2 2 0 0 1-.91-.3q-.36-.23-.49-.66c-.13-.45.05-.9.2-1.31q.27-.65.64-1.23a73 73 0 0 1 2.44-3.8 10 10 0 0 1 2-2.19 36 36 0 0 0-2.55.92l-1.06.46q-.56.24-1.14.44-.59.2-1.19.37-.7.19-1.4.32-.8.14-1.6.19c-1 .06-2 .11-3 .05a6 6 0 0 1-1.53-.2 2 2 0 0 1-.76-.33 1.4 1.4 0 0 1-.5-.63q-.15-.45-.02-.92l.13-.38q.12-.3.27-.58.39-.66.88-1.21.49-.57.99-1.1l1.92-2.11q.54-.59 1.09-1.15a16 16 0 0 1 2.39-1.95q.62-.4 1.26-.77.63-.37 1.28-.72l.44-.26-1.08.02q-1.47.1-2.95.16c-.95.05-1.91.1-2.86.03a5 5 0 0 1-1.62-.34c-.32-.14-.64-.34-.76-.7-.06-.2-.1-.46-.03-.67q.07-.23.16-.43a4 4 0 0 1 .68-.86l.61-.52 1.12-.86 1.16-.86.63-.46q.32-.23.68-.44.69-.39 1.42-.69l1.28-.54 2.76-1.13-1.4-.19q-1.48-.17-2.95-.36c-.98-.11-1.97-.21-2.9-.52a6 6 0 0 1-.82-.31l-.62-.34q-.59-.31-1.14-.67c-.31-.22-.6-.43-.82-.75a1 1 0 0 1-.12-.72c.05-.26.26-.47.46-.62q.64-.44 1.35-.72a13 13 0 0 1 2.54-.83q.78-.17 1.57-.23l1.56-.09q1.28-.06 2.55-.06l-.16-.07q-.65-.29-1.25-.7a23 23 0 0 1-1.23-.86 2 2 0 0 1-.4-.4 1 1 0 0 1-.19-.72c.05-.39.38-.64.67-.85q.56-.4 1.19-.7.69-.35 1.4-.6.76-.21 1.54-.32l2.96-.4 1.12-.17-.27-.1a13 13 0 0 0-1.24-.37l-1.46-.3q-.71-.11-1.43-.26-.7-.16-1.37-.43c-.86-.35-1.68-.8-2.5-1.22-.82-.43-1.69-.75-2.45-1.25a9 9 0 0 1-1.26-.98q-.3-.28-.56-.57-.16-.16-.28-.34a3 3 0 0 1-.33-.64 1 1 0 0 1-.03-.5q.03-.18.1-.32.1-.16.2-.28l.24-.2q.25-.2.53-.33.67-.32 1.39-.54.66-.2 1.34-.37.7-.2 1.43-.36a15 15 0 0 1 1.8-.25l-.52-.42c-.5-.42-.93-.94-1.33-1.45-.84-1.07-1.7-2.13-2.48-3.24q-.44-.61-.84-1.25l-.39-.69-.34-.7c-.33-.8-.62-1.73-.14-2.53.3-.5.82-.83 1.34-1.07a7 7 0 0 1 3-.45q.78.01 1.56.13.67.1 1.36.17c.87.07 1.75.1 2.62.18q1.26.13 2.52.36 1.28.21 2.54.49l.61.13.08.02-.93-1.43a83 83 0 0 1-2.25-3.67q-.62-1.05-1.13-2.12a13 13 0 0 1-1.02-3.06c-.1-.43-.2-.88-.18-1.32.01-.53.27-1.03.7-1.32.31-.2.65-.3 1-.38l.67-.14q.68-.1 1.34.01 1.36.19 2.65.7.97.4 1.96.77l1.73.6.59.21c.32.14.66.25.97.42l.93.53q.96.61 1.93 1.16l1.2.64-.32-.83q-.17-.5-.3-1-.16-.6-.25-1.24-.1-.6-.05-1.2.05-.5.2-.97c.17-.49.45-.97.86-1.29.2-.15.43-.3.67-.36q.34-.1.7-.05a6 6 0 0 1 1.2.22l.54.19a32 32 0 0 1 5.06 2.44q.47.3.92.66l.52.4-.26-.5-.37-.8q-.14-.36-.26-.73-.36-1.02-.57-2.1-.24-1.1-.4-2.23a5 5 0 0 1-.02-1.02c.04-.58.16-1.22.7-1.55.47-.3 1.04-.37 1.6-.36q.57.01 1.15.1 1.06.12 2.08.41 1.07.3 2.1.72 1 .43 1.97.91l.23.11-.29-.55q-.55-1.04-1-2.14-.84-2.1-1.63-4.25l-.17-.55-.11-.4-.29-1.1a25 25 0 0 1-.44-2.4q-.17-1.05-.25-2.11l-.02-.5q.01-.24.07-.5l.09-.28a2.2 2.2 0 0 1 1.1-1.3q.3-.17.66-.21c.6-.1 1.22.03 1.82.14q.55.1 1.09.28.57.2 1.13.43.49.22.98.5 1.92 1.08 3.64 2.47a60 60 0 0 1 1.98 1.7l-.35-1.46a34 34 0 0 1-.72-5.56v-.58l.05-.65q.05-.56.14-1.1a25 25 0 0 1 1.06-4.47q.17-.5.45-.94c.22-.32.48-.55.76-.8.17-.14.4-.28.63-.29q.34 0 .64.16c.22.13.4.34.55.53l.39.54.58.9c.8 1.31 1.5 2.68 2.19 4.05q.48.96 1.04 1.87.55.92 1.13 1.84t1.12 1.87l.1.18.03-.11a41 41 0 0 1 .99-3.52q.19-.63.43-1.25.23-.59.53-1.14a8 8 0 0 1 2.37-2.76q.48-.34 1.03-.54.4-.15.82-.18.33-.02.64.03c.45.1.85.37 1.07.8.5.94.66 2 .84 3.06l.1.7.15-.4.35-.93.26-.6.26-.6.72-1.5q.5-1 1.05-1.96a10 10 0 0 1 1-1.42q.28-.32.64-.53.25-.15.52-.23.22-.05.43-.06c.08 0 .24 0 .32.03q.18.05.35.14a5 5 0 0 1 .83.6 4 4 0 0 1 .93 1.6q.19.5.32 1.04.15.67.25 1.36l.14 1.1q.08.55.13 1.11.14 1.12.23 2.26.2 2.29.31 4.58l.03.83.44-.76q.84-1.47 1.73-2.91.65-1.01 1.4-1.95.7-.85 1.47-1.63a31 31 0 0 1 1.55-1.6c.55-.5 1.08-1 1.74-1.35q.53-.28 1.11-.42c.6-.12 1.3-.18 1.8.26a3 3 0 0 1 .74 1.22l.17.46q.15.5.27 1 .27 1.07.5 2.15c.17.76.36 1.53.48 2.3s.18 1.53.27 2.3q.15 1.1.25 2.19.11 1.05.05 2.11l.45-.59.68-.74c.84-.87 1.78-1.6 2.69-2.39l.75-.66 1.5-1.26.53-.39q.6-.4 1.22-.73l1.33-.65q.95-.46 1.92-.89c.63-.3 1.27-.6 1.94-.79.39-.1.78-.17 1.18-.12q.32.04.6.23.25.2.4.5.2.4.25.82l.04.37q.03.24.04.5l-.02 1.15q-.04.62-.13 1.25c-.19 1.49-.61 2.93-.96 4.39q-.23 1.05-.5 2.08l-.26 1 .67-.3q.72-.28 1.46-.5l1.59-.52q.73-.27 1.44-.59.48-.2 1-.35c.28-.08.59-.17.9-.19l.36.01q.17.01.34.09c.18.07.38.19.51.34q.16.16.25.34l.14.36q.08.35.07.7a4 4 0 0 1-.12.77q-.15.59-.37 1.15-.37 1-.78 2a18 18 0 0 1 2.27-1q.67-.25 1.37-.43a26 26 0 0 1 2.66-.52c.4-.05.78-.06 1.16.08.43.15.65.56.64 1 0 .3-.1.58-.2.85a6 6 0 0 1-.53 1.05l-.56.93q-.96 1.5-1.97 2.95l.07-.02q1.12-.33 2.26-.54a25 25 0 0 1 4.38-.5q.59 0 1.16.08c.35.05.74.2 1.02.44q.24.2.4.47l.16.34a6 6 0 0 1 .24.7l.08.44c.03.84-.52 1.5-1.05 2.08q-.37.39-.75.73a27 27 0 0 1-2.14 1.77l.06-.03a27 27 0 0 1 5.91-1.47q.55-.08 1.09-.08c.36.01.73.04 1.03.24q.52.35.74.94a3 3 0 0 1 .22 1q-.02.64-.32 1.23-.52 1.01-1.29 1.86-.73.79-1.59 1.42l-1.77 1.31q-.93.68-1.82 1.4l-.4.31h.35l2.48-.11c.86-.03 1.72-.08 2.58-.06l1.3.06q.6.02 1.19.06c.97.06 1.95.1 2.92.23a15 15 0 0 1 3.19.7q.2.08.38.2.29.15.52.37.17.17.3.36.14.18.22.4.13.44.03.88-.05.2-.17.37-.12.2-.28.36-.3.29-.64.52a43 43 0 0 1-2.4 1.6 22 22 0 0 1-3.96 2q-.64.27-1.29.47l-.67.2-.28.09 2.59.74q3.24.94 6.5 1.86 1 .28 2.03.59.46.14.92.32t.88.4c.48.28.83.72 1.19 1.13q.16.15.28.34.14.18.23.4.09.19.1.4.02.2-.03.4t-.16.39q-.13.22-.3.4-.45.51-.95.96a10 10 0 0 1-1.85 1.36l-.66.36q-.7.35-1.43.63l-1.23.47-2.86 1.1q-.49.19-.97.34l.17.04 1.94.45 2.03.44 2.09.42q1.4.28 2.79.62l1.46.41 1.34.37.76.21c.39.11.78.21 1.14.38.5.22 1.07.62 1.06 1.24 0 .4-.25.75-.52 1.04-.32.36-.73.64-1.13.9q-.59.37-1.2.66-1.39.67-2.82 1.24-1.25.5-2.53.95l-2.8.97-1.4.5.38.09q.87.22 1.74.51 1.36.43 2.72.91.67.23 1.32.53l1.34.63q.6.3 1.22.56.66.3 1.34.58l1.36.6q.62.26 1.2.6c.83.5 1.68 1.02 2.34 1.74q.25.26.44.57.16.28.27.58.06.2.07.4l-.02.28-.02.12-.16.4q-.11.2-.27.39c-.38.43-.85.72-1.35 1-.82.45-1.76.66-2.66.86l-1.4.32-.37.09.08.01 1.43.36a23 23 0 0 1 2.32.78q.6.24 1.14.55.68.43 1.34.9l1.07.8 1.13 1q.55.5 1.04 1.05c.41.48.83 1 1 1.63M27.5 72.94v-.05z"/></mask><path d="m133.62 170.46-.06.03zM45.9 113.64q.45-.23.9-.43l.92-.39.2-.08q.22-.09.46-.06c.17.02.34.14.43.28.08.13.14.34.1.5a2 2 0 0 1-.23.43l-.13.16-.3.38-1.42 1.69-1.43 1.62q-1.07 1.16-2.1 2.34-.97 1.15-1.85 2.38-.93 1.3-1.9 2.6c-.56.74-1.18 1.45-1.74 2.21q-.25.41-.45.87-.17.5-.23 1 0 .23.02.44l.01.04q.12.07.25.12a4 4 0 0 0 1.5.15q.37-.02.76-.09.75-.15 1.48-.38l1.54-.51c.57-.2 1.14-.35 1.69-.58a26 26 0 0 0 2.06-.97c.85-.47 1.67-1 2.54-1.43l.73-.35q.31-.15.66-.24c.28-.07.57-.05.79.15a.8.8 0 0 1 .2.7l-.07.2-.1.15q-.07.11-.18.21l-.24.22a16 16 0 0 0-2.02 2.17q-.93 1.21-2 2.32c-.68.7-1.43 1.34-2.1 2.04a24 24 0 0 0-2.04 2.39q-.9 1.24-1.83 2.43l-.93 1.13q-.43.5-.82 1.03-.21.32-.36.68-.09.33-.13.68l.01.41.08.24.02.04.05.05.2.1a4 4 0 0 0 1.63.17q.44-.03.86-.1c.9-.2 1.75-.53 2.6-.85q1.31-.53 2.61-1.03c.35-.14.8-.3 1.14-.06.18.1.27.22.36.4q.04.14.04.27c.01.3-.15.57-.34.79q-.5.56-1.06 1.09l-1.05 1.04-1.06 1.12q-.9 1.1-1.71 2.26l-1.36 2.1q-.68 1-1.38 1.98-.42.6-.71 1.28-.1.3-.13.61-.01.34.04.67l.06.2.08.12.1.1.1.04.38.1.3.04q.7.06 1.36-.02c1.03-.24 1.98-.71 2.93-1.16l2.4-1.12a25 25 0 0 1 3.82-1.62c1.27-.38 2.56-.72 3.75-1.3h.02l.72-.37.82-.43a2 2 0 0 1 1.2-.16 5 5 0 0 1 1.17-.32l.32-.07.39-.1q.27-.09.56-.1.4 0 .71.28c.23.18.32.5.38.78.13.54.17 1.11.21 1.67q.14 1.6.2 3.2.1 1.56.17 3.13l.07 1.49q.03.67.13 1.35l.08.33.3-.24a11 11 0 0 0 1.2-1.17 38 38 0 0 0 3.21-3.88l.86-1.28q.54-.74 1.1-1.46.5-.62 1.03-1.17l.58-.6.34-.33.08-.1c.25-.26.66-.3.93-.05q.2.18.22.46 0 .2-.1.37v.01l-.05.07-.02.02v.01q-.19.3-.32.66l-.38.93-.77 1.93q-.47 1.24-.8 2.51a20 20 0 0 0-.42 2.67q-.06 1.05-.04 2.1-.01.9.1 1.81l.68-.7q.51-.51.99-1.06.5-.56.96-1.15.42-.55.8-1.12a29 29 0 0 1 1.74-2.33l.3-.35q.14-.2.34-.34c.28-.17.68-.16.9.1q.15.14.22.35.04.14.05.3 0 .34-.03.68l-.1 1.6q-.05.76-.06 1.53 0 .83.02 1.65l.14 3.27c.06 1.03.1 2.05.29 3.06q.22 1.22.7 2.33l.03.04.11-.08a8 8 0 0 0 1.03-1.18l.53-.74a22 22 0 0 0 1.16-2.1l.59-1.24q.24-.57.53-1.12.54-1.05 1.16-2.08l.56-.92.28-.44.2-.3a.6.6 0 0 1 .48-.22q.27 0 .48.17.13.12.18.29c.1.28.12.6.16.9a16 16 0 0 0 .78 3.12q.4 1.23.93 2.4.57 1.3 1.07 2.6c.3.75.56 1.5.89 2.22q.2.43.49.8.12.14.25.24l.13.07.05.01h.12l.06-.02.1-.07.09-.09q.44-.75.76-1.56l.6-1.56q.62-1.75 1.16-3.55.29-.93.55-1.87l.26-.92.1-.42.13-.33q.09-.18.24-.28c.18-.15.5-.15.69-.04q.25.14.35.4l.05.18.09.32.26.67q.26.49.56.95.3.47.63.93l1.48 1.9q.73.96 1.42 1.94t1.43 1.92q.36.43.79.82.37.34.79.64a9 9 0 0 0 1.51.77q.34.1.7.17l.12-.01.18-.07.15-.09q.16-.15.3-.35.43-.68.76-1.41a16 16 0 0 0 .77-1.94l.01-.06c.37-1.04.65-2.1.94-3.16q.2-.75.35-1.5.08-.42.14-.85l.1-.87q.12-1.25.16-2.5a12 12 0 0 0-.15-2.43.7.7 0 0 1 .3-.6c.24-.14.6-.16.81.06q.2.23.36.47a36 36 0 0 0 2.48 3.22 7 7 0 0 0 .96.94q.5.42 1.02.8.39.26.8.49l.8.4 1.66.78q.28.08.58.14l.26-.02.2-.07.23-.14q.27-.26.5-.55a4 4 0 0 0 .45-.91q.16-.44.25-.87l.2-1.05q.17-.95.31-1.91c.17-1.23.39-2.46.5-3.7l.01-.22q0-.2.03-.4a.7.7 0 0 1 .45-.5.7.7 0 0 1 .9.6q.2.7.52 1.37.36.7.77 1.4.4.71.83 1.42a22 22 0 0 0 1.88 2.59c.87.98 1.79 1.92 2.65 2.91q.65.74 1.2 1.54.49.77 1.06 1.49.34.37.74.68.3.21.65.36.45.12.89.18l.56-.02.1-.03.09-.06.07-.08.1-.21q.18-.68.32-1.37.1-.49.16-.98.03-.49.02-.98l-.03-.62c-.02-.28-.03-.57.18-.8q.2-.2.48-.23.29 0 .5.18c.19.13.28.37.36.57q.2.41.44.8.28.45.6.86l.46.45.4.3q.57.39 1.15.73l1.24.65c.77.41 1.53.83 2.34 1.15q.37.13.75.22a7 7 0 0 0 1.96.12 3 3 0 0 0 1.12-.58l.32-.38.2-.38q.14-.55.2-1.12l.05-.47q.06-1.9-.1-3.81-.16-1.84-.48-3.65a23 23 0 0 0-1.07-3.58q-.35-.9-.75-1.8l-.75-1.58v-.01q-.2-.34-.35-.7a.7.7 0 0 1 .26-.76l.02-.02a.6.6 0 0 1 .66-.03q.3.18.52.45a9 9 0 0 1 1.08 1.35q.66.95 1.39 1.88l.3.33.4.38q.43.36.87.67l-.14-.09q.1.08.2.13l.14.1q.38.24.75.44.33.16.68.3a4 4 0 0 0 1.26.27h.4l.03-.01.01-.01.01-.02q.06-.18.07-.36 0-.5-.1-1-.43-1.65-1.17-3.18l-.35-.67c-.17-.32-.37-.64-.3-1.02a.6.6 0 0 1 .73-.48l.21.07.13.1q.17.1.32.24l.27.23.49.44q.51.45 1.06.85c.88.55 1.8 1.06 2.76 1.43q.51.17 1.04.23.3 0 .58-.03.2-.04.4-.13l.05-.03a4 4 0 0 0 .13-1.42q-.02-.26-.07-.52-.31-1.36-.84-2.66l-.6-1.47q-.26-.64-.56-1.26a25 25 0 0 0-2.02-3.48l-.25-.37q-.1-.14-.2-.32a2 2 0 0 1-.27-.93v-.05a2 2 0 0 1-.18-.53q.3-.16.64-.17.53-.01 1 .23l.64.4.69.44q.68.4 1.4.75.65.32 1.34.57l.14.05.22.08.03.01.02.01h.01l.04.02 1.36.45 1.6.56q.75.27 1.5.6.67.3 1.35.56.94.31 1.93.42c.53.03 1.05.05 1.57-.03l.24-.09.04-.05.03-.04q.08-.37.12-.75.04-.57 0-1.14-.04-.6-.16-1.18a15 15 0 0 0-.96-2.86q-.14-.33-.3-.64l-.04-.1q-.42-.83-.91-1.64l-1.07-1.69q-.48-.72-.98-1.42l-.69-1.01c-.13-.19-.25-.35-.27-.58a.67.67 0 0 1 .81-.7c.23.03.45.14.66.23l.34.14.87.37q.72.3 1.42.62 1.49.7 3.02 1.28a23 23 0 0 0 2.68.67l.8.1c.48.03.97.06 1.45-.01l.13-.05.05-.03.08-.15v-.05q.02-.34-.03-.68c-.14-.59-.38-1.14-.62-1.7l-.26-.52-.38-.68-.37-.59-.31-.47q-.21-.33-.44-.65l-.46-.62q-.38-.5-.8-.99-1.29-1.46-2.61-2.9-.62-.7-1.28-1.34l-.64-.63-.35-.34-.16-.16a1 1 0 0 1-.25-.39.7.7 0 0 1 .14-.67c.13-.12.3-.26.5-.25q.22.01.47.07.18.03.36.1l.73.22q.78.23 1.6.42 1.43.36 2.93.5a31 31 0 0 0 5-.1q.5-.1.97-.3l.32-.2.15-.17.14-.28q.08-.27.12-.55 0-.23-.02-.44a4 4 0 0 0-.25-.7 7 7 0 0 0-.96-1.47l-.5-.61q-.59-.67-1.24-1.29l-1.3-1.19q-.65-.61-1.34-1.2-.69-.56-1.41-1.1-.32-.22-.66-.4a11 11 0 0 0-1.55-.64l-.2-.14a.7.7 0 0 1-.23-.55q0-.27.16-.47l.2-.18q.3-.15.63-.23.59-.12 1.18-.16l2.36-.12c1.52-.07 3.05-.1 4.55-.37a28 28 0 0 0 4.25-1.25l.45-.3q.2-.19.38-.42a4 4 0 0 0 .33-.63l.1-.4-.01-.18-.09-.23a6 6 0 0 0-.5-.76 17 17 0 0 0-1.68-1.63q-.89-.74-1.84-1.39l-.46-.3q-.41-.26-.86-.5-.62-.28-1.28-.51h-.02a26 26 0 0 0-2.74-.74l-1.34-.29c-.36-.08-.78-.2-1-.52a1 1 0 0 1-.14-.68c.05-.24.26-.5.47-.6q.4-.23.82-.33l1.08-.27 1.31-.29c.87-.19 1.76-.37 2.58-.73q.49-.26.93-.59l.2-.22.1-.19v-.06l-.06-.16q-.12-.22-.28-.45a8 8 0 0 0-1.25-1.05l-.96-.59q-.5-.27-1.03-.51-1.12-.5-2.24-.97a78 78 0 0 1-3.35-1.53q-.5-.22-1.01-.4-1.68-.58-3.39-1.08a19 19 0 0 0-2.33-.53l-.2-.04a1 1 0 0 1-.32-.1 1 1 0 0 1-.26-.14.8.8 0 0 1-.26-.99c.17-.32.52-.5.84-.62q1.33-.5 2.7-.97l2.78-.97a52 52 0 0 0 5.12-2.06c.61-.32 1.22-.64 1.77-1.06q.16-.15.32-.33l-.4-.19q-.93-.3-1.88-.54-.69-.17-1.38-.37-.67-.2-1.36-.37l-2.89-.61-2.93-.6-2.74-.6-1.88-.5-.3-.1a1 1 0 0 1-.32-.29c-.17-.25-.17-.67.06-.89l.2-.18.28-.14.2-.06.34-.12.58-.18 1.44-.5q.64-.23 1.27-.49l1.5-.56 1.2-.46q.39-.13.76-.3l.59-.26q.66-.33 1.27-.74.32-.21.63-.45l.47-.4q.51-.43.94-.97l.03-.05-.22-.3-.38-.4a4 4 0 0 0-.55-.5q-.45-.25-.94-.42c-.94-.32-1.9-.55-2.86-.84l-.56-.16-2.67-.75-6-1.68-2.74-.76-.97-.26a17 17 0 0 1-1.78-.44l-.19-.06a.76.76 0 0 1-.32-1c.16-.3.5-.46.82-.4q.55.13 1.1.3l.1.03.3.07q.75.15 1.51.23.76.02 1.5-.12.32-.04.61-.12l.76-.2q.66-.2 1.3-.44 1.28-.47 2.5-1.07a37 37 0 0 0 3.44-2.07l1-.68.2-.22v-.03l-.1-.15-.22-.2q-.25-.15-.54-.25a18 18 0 0 0-4.39-.66l-2.76-.12c-.93-.04-1.86 0-2.79.03a133 133 0 0 0-3.4.2q-.4.05-.8 0a2 2 0 0 1-.8-.31 3 3 0 0 1-.85.42c-.39.07-.8.08-1.13-.15q.06-.28.2-.52.35-.58.92-.91.49-.32.96-.66.85-.62 1.67-1.26.88-.68 1.78-1.33 1.06-.73 2.06-1.55.72-.64 1.3-1.45.32-.45.53-.98l.08-.31-.02-.25q-.05-.21-.14-.43l-.1-.17-.04-.03-.02-.01-.17-.03c-.7-.03-1.4.13-2.08.26l-1.06.22q-.67.16-1.33.34-1.17.32-2.29.76c-.7.26-1.39.57-2.1.77-.35.1-.71.23-1.08.23a.9.9 0 0 1-.76-.39.8.8 0 0 1 0-.85c.16-.27.44-.46.68-.65l.41-.32c1.13-.87 2.28-1.7 3.36-2.63.49-.45 1-.9 1.4-1.45l.2-.38.02-.08-.03-.24a5 5 0 0 0-.32-.85l-.04-.03-.18-.1a3 3 0 0 0-.55-.09 15 15 0 0 0-2.2.12q-1.17.13-2.3.34a29 29 0 0 0-2.63.67q-.42.18-.86.33-.24.09-.5.12c-.22 0-.47-.04-.63-.2a.9.9 0 0 1-.2-1.04q.01-.1.06-.17.3-.46.63-.9l.92-1.28.04-.07.02-.03.03-.04 1.03-1.55.52-.82q.4-.62.68-1.29l.02-.06q-.38.02-.73.09a20 20 0 0 0-2.8.68q-1.19.41-2.32.96-.61.3-1.18.71l-.5.4-.12.11a1 1 0 0 1-.34.22.6.6 0 0 1-.4.01.7.7 0 0 1-.41-.29.7.7 0 0 1-.1-.52c.05-.26.2-.5.3-.73l.23-.56.49-1.16.86-2.15q.16-.5.24-1.01 0-.18-.02-.34l-.04-.11-.07-.07-.06-.03a2 2 0 0 0-.73.14c-.7.22-1.36.53-2.03.82-.66.27-1.33.47-2 .7l-1.12.39q-.45.17-.9.4l-.54.24q-.16.1-.33.16t-.35.08q-.19.02-.36-.02a.8.8 0 0 1-.47-.33 1 1 0 0 1-.13-.4q0-.23.07-.45.07-.23.17-.47l.06-.18c.41-1.42.71-2.86 1.08-4.28q.3-1.13.53-2.25.21-1.02.3-2.05c.04-.68.07-1.35-.03-2.03l-.07-.22-.05-.1h-.04q-.2 0-.37.03c-.7.17-1.37.49-2.02.8l-2 .94c-.68.34-1.36.67-2 1.08q-.97.66-1.83 1.43l-.72.62q-1 .89-2.04 1.76-.8.73-1.5 1.54-.64.72-1.15 1.53l-.3.46c-.2.3-.42.66-.77.77-.22.07-.5.03-.66-.14a1 1 0 0 1-.23-.36 1 1 0 0 1-.03-.53l.05-.38.1-.59q.09-.58.15-1.16c.05-1.08-.06-2.17-.2-3.25l-.2-1.78q-.08-.83-.22-1.64a150 150 0 0 0-.94-4.17 9 9 0 0 0-.47-1.42l-.17-.28-.04-.04-.04-.02-.12-.02-.4.03q-.4.09-.79.27-.51.28-.96.65-1.18 1.1-2.24 2.3a28 28 0 0 0-2.16 2.63q-.97 1.52-1.84 3.08-.5.84-.96 1.7-.12.23-.29.46a2 2 0 0 1-.68.58q-.06.18-.15.33c-.1.18-.24.39-.43.49-.03.02-.12.09-.16.07s-.1-.1-.12-.13a2 2 0 0 1-.5-.95q-.06-.24-.07-.47v-.28l-.01-.5q0-1.21-.07-2.43a91 91 0 0 0-.77-8.85c-.14-.64-.3-1.3-.56-1.9a4 4 0 0 0-.36-.56l-.3-.28-.27-.14-.17.05q-.16.09-.28.2-.29.26-.5.6c-.65 1-1.17 2.1-1.7 3.17q-.36.76-.68 1.53l-.31.75-.3.81q-.36 1.13-.55 2.3l-.12.65c-.05.3-.07.6-.15.9a.8.8 0 0 1-.48.53q-.28.09-.57-.04c-.2-.07-.33-.27-.4-.47q-.04-.16-.05-.33l-.06-.36-.1-.74-.15-1.44q-.16-1.47-.4-2.92c-.1-.47-.2-.92-.4-1.36l-.12-.2-.02-.02-.1-.04-.15-.03q-.18 0-.35.02-.28.06-.54.18a5.5 5.5 0 0 0-1.92 1.76q-.67 1.03-1.08 2.19-.33 1-.62 2l-.18.66-.17.65-.35 1.56-.15.7q-.05.15-.06.32c-.04.19-.05.42-.17.59q-.13.25-.4.35a.7.7 0 0 1-.56-.04 1 1 0 0 1-.32-.3l-.14-.28-.09-.22-.26-.52a36 36 0 0 0-1.04-1.9l-1.1-1.86-1.08-1.97q-.5-.97-.96-1.97l-1.1-2.1-.6-1q-.14-.24-.3-.47a9 9 0 0 0-.5-.71l-.08-.09-.17.13-.3.34q-.28.46-.45.97a26 26 0 0 0-1 4.93q-.03.64-.02 1.29l.05.77.07.75q.05.63.15 1.25l.23 1.32.23 1.11a66 66 0 0 0 .57 2.23l.16.58a3 3 0 0 1 .16.65 1 1 0 0 1-.09.38.7.7 0 0 1-.37.32 1 1 0 0 1-.34.02c-.26-.03-.48-.25-.66-.42l-.29-.27-.57-.55q-.57-.55-1.16-1.08-.6-.54-1.24-1.05-.32-.26-.66-.51l-.66-.48-.83-.55-.87-.52a12 12 0 0 0-1.74-.86 13 13 0 0 0-2.33-.54q-.25 0-.5.03l-.25.07-.25.17-.18.2-.12.26-.1.4q0 .36.04.72.03.42.09.82.12.89.27 1.76l.13.66q.1.48.23.97l.28 1.02q.19.6.41 1.19l.4 1 .86 2.13.43 1.06q.19.43.4.84.5.98 1.03 1.95l.28.52.14.3.06.13q.06.15.08.3a.7.7 0 0 1-.18.5 1 1 0 0 1-.3.2c-.21.09-.44 0-.64-.08l-.42-.22q-.94-.51-1.9-.98-.9-.46-1.86-.85-1-.35-2.02-.61a14 14 0 0 0-1.9-.3 5 5 0 0 0-1.01.01l-.24.08-.11.08a3 3 0 0 0-.06 1.21q.05.41.13.81.23 1.16.52 2.3.14.52.31 1l.24.65q.08.22.18.41.24.51.52.99.3.5.62.97.35.54.73 1.07.34.42.66.85c.22.3.12.8-.2 1a.8.8 0 0 1-.83-.02l-.29-.19-.69-.47q-.57-.41-1.13-.85c-.74-.57-1.46-1.17-2.21-1.71q-2.37-1.48-4.98-2.47a7 7 0 0 0-1.36-.3h-.13l-.11.04-.2.13q-.1.09-.17.2-.12.2-.21.41-.09.3-.14.63 0 .5.08.99a15 15 0 0 0 1.13 3.33q.29.59.67 1.13.23.3.43.6.22.37.04.75a.7.7 0 0 1-.61.4c-.37.04-.65-.26-.9-.5q-.23-.2-.5-.39h-.02c-1.07-.73-2.25-1.3-3.35-2q-.85-.56-1.74-1.08-.85-.45-1.77-.79-1.07-.37-2.15-.77l-1.85-.75q-1.13-.37-2.3-.52-.38-.01-.77.05-.5.08-.97.26l-.13.08-.05.07-.04.07-.02.1q0 .25.05.48.2.92.49 1.82a13 13 0 0 0 1.49 3.1 118 118 0 0 0 2.38 3.8l1.24 1.86c.23.36.5.73.6 1.15.08.38.09.8-.08 1.15q-.53-.07-.93-.43-.2.07-.4.09c-.36.04-.7-.05-1.06-.13q-.92-.22-1.85-.39l-1.96-.33q-.93-.14-1.87-.23-1.08-.05-2.15-.12a18 18 0 0 1-1.28-.13q-.5-.09-1.03-.14a14 14 0 0 0-2.39.07q-.43.09-.84.27-.26.15-.5.32l-.15.15-.06.12a1 1 0 0 0 0 .43q.16.61.43 1.18.2.4.44.8.23.39.5.76.49.75 1.03 1.45l1.15 1.51.96 1.22.57.6q.28.27.6.5l.59.48.26.23q.17.14.31.32c.22.31.15.72-.16.94q-.29.2-.64.23l-.82.1q-.75.06-1.5.2-1.04.21-2.07.51-1.02.27-2 .69l-.36.22q.14.23.31.44.59.6 1.25 1.11.6.39 1.23.7.66.3 1.3.63c.83.43 1.65.88 2.52 1.24q.66.24 1.34.39l1.43.26q.74.13 1.44.3.63.18 1.24.4l1.2.43.22.08.17.06.26.1c.31.15.68.37.66.78a.7.7 0 0 1-.16.45q-.14.16-.31.24-.25.09-.5.15l-.73.12-2.7.43-1.32.2q-.68.08-1.34.2a7 7 0 0 0-1.94.66q-.5.24-.96.55l.24.19.6.44q.9.59 1.9.96l.06.02.02.01h.03l.11.04q-.04 0-.08-.03l.43.14q.73.22 1.43.48.32.12.63.3c.2.12.39.26.46.5.05.1.05.26.03.38a1 1 0 0 1-.18.34c-.17.23-.5.26-.76.3l-.32.03h-.66l-1.52-.09a52 52 0 0 0-4.56.1q-.73.05-1.45.17a14 14 0 0 0-3.24 1.14l.21.16.88.53q.47.27.96.48a9 9 0 0 0 1.92.44q.99.13 1.99.24 2 .24 3.99.5l1.32.15.7.08q.17.01.34.05.39.1.55.48c.06.17.06.38-.03.54a1 1 0 0 1-.24.27q-.19.14-.41.2l-.6.16q-.71.17-1.42.41c-.94.34-1.85.75-2.77 1.13-.87.36-1.74.7-2.6 1.11q-.55.3-1.08.67-.58.45-1.18.88-.52.37-1.02.77l-.9.7q-.26.23-.48.5l-.02.04.02.02q.5.14 1 .2.9.05 1.81.02l1.86-.07 1.53-.07q.67-.04 1.36-.05l.84.05q.36.01.7.1c.26.1.5.2.66.43.06.09.13.27.13.37l-.02.23-.06.16a1 1 0 0 1-.35.46q-.2.17-.42.32c-.8.52-1.66.95-2.48 1.44q-.64.38-1.26.78-.6.43-1.17.9-.34.3-.65.6a90 90 0 0 0-2.12 2.26l-1.3 1.4q-.61.65-1.16 1.38-.27.4-.45.86l-.06.26v.03l.02.02q.12.07.22.1.5.15 1 .21.54.04 1.07.05l1.2-.03q.63-.01 1.25-.06l1.2-.14q1.33-.26 2.6-.71c.96-.37 1.89-.81 2.85-1.17l1.44-.51 1.38-.44q.66-.22 1.33-.42l.33-.09q.2-.08.4-.08c.16 0 .34.03.45.15.09.1.15.17.2.3.07.23 0 .5-.17.69q-.32.32-.7.57l-.54.43-1.08.9-.13.11-.17.15q-.52.48-.99 1.02l-.45.62-.37.54q-.76 1.13-1.5 2.29c-.43.71-.9 1.44-1.2 2.22l-.07.23q.24.07.48.09.51-.01 1.01-.1.73-.18 1.44-.4l1.3-.45q.7-.23 1.38-.5l1.36-.54c.93-.37 1.88-.69 2.81-1.04q1.36-.5 2.68-1.13zm141.1-5.9q.06.22.05.46-.01.47-.17.9-.1.3-.25.55-.19.31-.42.6-.23.26-.5.48c-.37.3-.82.48-1.25.65a25 25 0 0 1-5.5 1.33q-1.5.12-3 .18l-1.32.07-.73.04.31.18q.39.24.76.52l.74.56c.73.56 1.39 1.2 2.07 1.82.72.65 1.45 1.3 2.1 2.02q.5.56.97 1.16.39.49.7 1.01c.3.52.56 1.06.66 1.64.17 1.04-.18 2.24-1.1 2.81-.53.32-1.1.47-1.7.59q-.71.13-1.44.14l-1.35.04c-.98.01-1.97.02-2.94-.1q-1.36-.15-2.67-.47l-.69-.18.13.13 1.74 1.9q1 1.07 1.94 2.2.25.27.47.56l.53.7q.39.51.72 1.06.24.35.46.72l.38.68.33.68q.17.35.33.73a7 7 0 0 1 .48 1.6q.04.45 0 .9a1.7 1.7 0 0 1-.65 1.1q-.2.12-.41.2-.46.14-.94.14-1.53.02-3.02-.33l-.65-.16-.62-.16q-.75-.23-1.5-.53c-.87-.34-1.73-.75-2.59-1.14l-.7-.31.69.99c.7 1.06 1.41 2.14 1.97 3.3l.01.01.04.09v.01l.03.05.11.23.04.07.01.03q.47 1 .82 2.04a12 12 0 0 1 .6 3.58l-.06.87-.05.34c-.03.2-.08.43-.18.61q-.06.16-.17.28l-.14.19q-.16.16-.34.27-.33.18-.68.26-.37.08-.75.1-.68.05-1.36-.02-.75-.04-1.47-.24-.74-.2-1.45-.52l-1.24-.55q-.65-.27-1.31-.5l-2.24-.78-.6-.22-.18-.07a15 15 0 0 1-2.7-1.3 25 25 0 0 1 1.1 1.97 35 35 0 0 1 2.17 5.26q.25.79.4 1.62.03.28.03.57v.24q-.01.5-.1 1-.03.24-.13.48l-.1.2-.1.13q-.12.14-.29.24t-.36.17q-.36.14-.74.17a5 5 0 0 1-1.65-.17 8 8 0 0 1-1.45-.6q-.7-.34-1.37-.73-.4-.24-.8-.53l.1.25a16 16 0 0 1 .64 1.96q.08.37.13.77c.07.43.06.9-.07 1.32a1.3 1.3 0 0 1-1.1.96q-.45.05-.9-.01-.3-.03-.59-.1a8 8 0 0 1-2.44-1.08l-.05-.04-.1-.06q-.64-.44-1.2-.93l-.36-.35a21 21 0 0 1 .98 3.4 38 38 0 0 1 .45 3.1q.1.82.14 1.65l.04 1.7q0 .84-.06 1.7a7 7 0 0 1-.13 1 4 4 0 0 1-.65 1.47q-.22.27-.48.5a4 4 0 0 1-1.81.88q-.3.05-.63.05-.83 0-1.65-.15a8 8 0 0 1-1.55-.5c-.92-.38-1.8-.9-2.67-1.36a18 18 0 0 1-1.32-.75c-.47-.3-.96-.6-1.35-1a8 8 0 0 1-.54-.59q-.08.55-.2 1.08c-.1.43-.18.87-.33 1.28q-.18.48-.55.81a2 2 0 0 1-.92.43c-.58.09-1.2 0-1.77-.14a5 5 0 0 1-2.64-1.98q-.47-.63-.9-1.3a15 15 0 0 0-.85-1.12l-.08-.1q-1.06-1.18-2.13-2.32a25 25 0 0 1-2.1-2.64q-.43-.67-.82-1.35l-.94-1.64-.02.12c-.15.93-.26 1.86-.42 2.78-.18 1-.31 2.03-.69 2.98a5 5 0 0 1-.98 1.6 5 5 0 0 1-.5.48c-.4.23-.83.42-1.29.4q-.45 0-.88-.15-.43-.13-.83-.33l-1.29-.61q-.37-.17-.7-.36l-.66-.4q-.72-.49-1.38-1.04-.61-.5-1.12-1.1-.55-.65-1.08-1.33l-.44-.54q0 .73-.06 1.46-.06 1.07-.17 2.13-.12 1-.35 1.97-.17.75-.39 1.49-.2.78-.45 1.56-.27.84-.57 1.69a15 15 0 0 1-1.5 3.09 3 3 0 0 1-.57.63q-.34.23-.74.36-.46.1-.94 0a5 5 0 0 1-.8-.22 8 8 0 0 1-2.67-1.61 17 17 0 0 1-2.05-2.46q-.9-1.3-1.85-2.55c-.63-.83-1.29-1.63-1.87-2.49l-.6-.93q-.16.6-.34 1.19-.45 1.56-1 3.1a40 40 0 0 1-1.16 3.09 11 11 0 0 1-.52 1.04q-.12.2-.26.38-.15.19-.36.33c-.13.08-.29.19-.44.22q-.25.06-.5.08-.27 0-.52-.08-.23-.07-.45-.21a2 2 0 0 1-.38-.31 5 5 0 0 1-.51-.65 9 9 0 0 1-.69-1.43l-.57-1.49q-.58-1.5-1.23-2.97-.33-.8-.63-1.6-.26-.77-.47-1.55-.21-.72-.36-1.47l-.06.1q-.42.68-.78 1.35-.38.74-.73 1.48l-.74 1.57q-.36.75-.77 1.47a13 13 0 0 1-1.47 2.11q-.29.37-.61.68c-.23.2-.44.39-.72.52l-.24.09a1 1 0 0 1-.35.02 1 1 0 0 1-.33-.08l-.1-.06a1 1 0 0 1-.31-.26q-.15-.14-.24-.34a9 9 0 0 1-.76-2.1 17 17 0 0 1-.45-3.13l-.17-3.35-.05-1.59.02-1.63.07-1.32q-.38.5-.73 1-.46.7-.97 1.38a27 27 0 0 1-2.1 2.4l-.59.59c-.22.22-.44.47-.68.66q-.2.16-.44.22a1 1 0 0 1-.36.02h-.06c-.25-.04-.45-.26-.58-.45-.07-.1-.13-.26-.16-.37l-.06-.25-.08-.44q-.1-.72-.1-1.44a19 19 0 0 1 1.32-8.2l-.38.53q-.59.93-1.25 1.82a44 44 0 0 1-2.94 3.48q-.35.38-.73.73-.27.26-.57.5c-.32.29-.67.58-1.1.65q-.5.04-.85-.29a1 1 0 0 1-.23-.3q-.09-.15-.15-.32-.1-.3-.17-.6-.15-.78-.19-1.57-.1-1.53-.18-3.08l-.2-3.13q-.05-1.45-.23-2.9a10 10 0 0 1-1.07.24l-.23-.01-.15-.02q-.23-.07-.45-.17l-.19-.14a2 2 0 0 1-.31.4q-.23.2-.48.34l-.26.14-.66.33q-.66.33-1.32.6-.69.27-1.39.47c-.92.28-1.86.52-2.76.86q-.65.25-1.28.55l-1.2.57-.03.01-.05.03q-1.2.59-2.44 1.13l-1.35.63-.73.29c-.31.1-.63.23-.95.3a5 5 0 0 1-1.2.13q-.35 0-.71-.03l-.56-.06q-.3-.07-.6-.18a1.8 1.8 0 0 1-1.09-1.05 3 3 0 0 1-.2-.86 4 4 0 0 1 .34-2.01c.42-.88 1.02-1.66 1.59-2.45l1.5-2.3q.38-.6.8-1.19.42-.6.88-1.18a17 17 0 0 1 .88-1.06q.45-.48.9-.91l.13-.13-1 .39c-.57.2-1.14.43-1.73.58a7.6 7.6 0 0 1-3.55.06q-.45-.13-.82-.38a1.6 1.6 0 0 1-.54-.7q-.2-.52-.18-1.07c.03-.51.1-1.01.3-1.48a6 6 0 0 1 .81-1.25q.47-.58.95-1.12l.92-1.11.9-1.2.91-1.23q.96-1.2 2.05-2.28c.72-.7 1.48-1.36 2.17-2.11q.52-.56 1-1.14l.75-.96-.3.18q-1.24.7-2.56 1.25c-.89.36-1.81.62-2.71.94q-1.31.47-2.68.7a7 7 0 0 1-2.28-.04l-.46-.15q-.23-.1-.44-.23a1 1 0 0 1-.26-.2l-.1-.13-.14-.27-.06-.22q-.04-.17-.05-.34l-.01-.27a4 4 0 0 1 .27-1.43q.13-.4.3-.75.38-.65.84-1.22l.98-1.21q.93-1.18 1.8-2.4.88-1.27 1.84-2.46 1.02-1.22 2.1-2.39 1-1.1 1.98-2.21l.3-.35-.82.39-1.48.6q-1.43.55-2.88 1.07l-1.3.52q-.69.28-1.38.52c-.95.32-1.89.7-2.86.93q-.44.1-.88.16a4 4 0 0 1-1.1.03 2 2 0 0 1-.91-.3q-.36-.23-.49-.66c-.13-.45.05-.9.2-1.31q.27-.65.64-1.23a73 73 0 0 1 2.44-3.8 10 10 0 0 1 2-2.19 36 36 0 0 0-2.55.92l-1.06.46q-.56.24-1.14.44-.59.2-1.19.37-.7.19-1.4.32-.8.14-1.6.19c-1 .06-2 .11-3 .05a6 6 0 0 1-1.53-.2 2 2 0 0 1-.76-.33 1.4 1.4 0 0 1-.5-.63q-.15-.45-.02-.92l.13-.38q.12-.3.27-.58.39-.66.88-1.21.49-.57.99-1.1l1.92-2.11q.54-.59 1.09-1.15a16 16 0 0 1 2.39-1.95q.62-.4 1.26-.77.63-.37 1.28-.72l.44-.26-1.08.02q-1.47.1-2.95.16c-.95.05-1.91.1-2.86.03a5 5 0 0 1-1.62-.34c-.32-.14-.64-.34-.76-.7-.06-.2-.1-.46-.03-.67q.07-.23.16-.43a4 4 0 0 1 .68-.86l.61-.52 1.12-.86 1.16-.86.63-.46q.32-.23.68-.44.69-.39 1.42-.69l1.28-.54 2.76-1.13-1.4-.19q-1.48-.17-2.95-.36c-.98-.11-1.97-.21-2.9-.52a6 6 0 0 1-.82-.31l-.62-.34q-.59-.31-1.14-.67c-.31-.22-.6-.43-.82-.75a1 1 0 0 1-.12-.72c.05-.26.26-.47.46-.62q.64-.44 1.35-.72a13 13 0 0 1 2.54-.83q.78-.17 1.57-.23l1.56-.09q1.28-.06 2.55-.06l-.16-.07q-.65-.29-1.25-.7a23 23 0 0 1-1.23-.86 2 2 0 0 1-.4-.4 1 1 0 0 1-.19-.72c.05-.39.38-.64.67-.85q.56-.4 1.19-.7.69-.35 1.4-.6.76-.21 1.54-.32l2.96-.4 1.12-.17-.27-.1a13 13 0 0 0-1.24-.37l-1.46-.3q-.71-.11-1.43-.26-.7-.16-1.37-.43c-.86-.35-1.68-.8-2.5-1.22-.82-.43-1.69-.75-2.45-1.25a9 9 0 0 1-1.26-.98q-.3-.28-.56-.57-.16-.16-.28-.34a3 3 0 0 1-.33-.64 1 1 0 0 1-.03-.5q.03-.18.1-.32.1-.16.2-.28l.24-.2q.25-.2.53-.33.67-.32 1.39-.54.66-.2 1.34-.37.7-.2 1.43-.36a15 15 0 0 1 1.8-.25l-.52-.42c-.5-.42-.93-.94-1.33-1.45-.84-1.07-1.7-2.13-2.48-3.24q-.44-.61-.84-1.25l-.39-.69-.34-.7c-.33-.8-.62-1.73-.14-2.53.3-.5.82-.83 1.34-1.07a7 7 0 0 1 3-.45q.78.01 1.56.13.67.1 1.36.17c.87.07 1.75.1 2.62.18q1.26.13 2.52.36 1.28.21 2.54.49l.61.13.08.02-.93-1.43a83 83 0 0 1-2.25-3.67q-.62-1.05-1.13-2.12a13 13 0 0 1-1.02-3.06c-.1-.43-.2-.88-.18-1.32.01-.53.27-1.03.7-1.32.31-.2.65-.3 1-.38l.67-.14q.68-.1 1.34.01 1.36.19 2.65.7.97.4 1.96.77l1.73.6.59.21c.32.14.66.25.97.42l.93.53q.96.61 1.93 1.16l1.2.64-.32-.83q-.17-.5-.3-1-.16-.6-.25-1.24-.1-.6-.05-1.2.05-.5.2-.97c.17-.49.45-.97.86-1.29.2-.15.43-.3.67-.36q.34-.1.7-.05a6 6 0 0 1 1.2.22l.54.19a32 32 0 0 1 5.06 2.44q.47.3.92.66l.52.4-.26-.5-.37-.8q-.14-.36-.26-.73-.36-1.02-.57-2.1-.24-1.1-.4-2.23a5 5 0 0 1-.02-1.02c.04-.58.16-1.22.7-1.55.47-.3 1.04-.37 1.6-.36q.57.01 1.15.1 1.06.12 2.08.41 1.07.3 2.1.72 1 .43 1.97.91l.23.11-.29-.55q-.55-1.04-1-2.14-.84-2.1-1.63-4.25l-.17-.55-.11-.4-.29-1.1a25 25 0 0 1-.44-2.4q-.17-1.05-.25-2.11l-.02-.5q.01-.24.07-.5l.09-.28a2.2 2.2 0 0 1 1.1-1.3q.3-.17.66-.21c.6-.1 1.22.03 1.82.14q.55.1 1.09.28.57.2 1.13.43.49.22.98.5 1.92 1.08 3.64 2.47a60 60 0 0 1 1.98 1.7l-.35-1.46a34 34 0 0 1-.72-5.56v-.58l.05-.65q.05-.56.14-1.1a25 25 0 0 1 1.06-4.47q.17-.5.45-.94c.22-.32.48-.55.76-.8.17-.14.4-.28.63-.29q.34 0 .64.16c.22.13.4.34.55.53l.39.54.58.9c.8 1.31 1.5 2.68 2.19 4.05q.48.96 1.04 1.87.55.92 1.13 1.84t1.12 1.87l.1.18.03-.11a41 41 0 0 1 .99-3.52q.19-.63.43-1.25.23-.59.53-1.14a8 8 0 0 1 2.37-2.76q.48-.34 1.03-.54.4-.15.82-.18.33-.02.64.03c.45.1.85.37 1.07.8.5.94.66 2 .84 3.06l.1.7.15-.4.35-.93.26-.6.26-.6.72-1.5q.5-1 1.05-1.96a10 10 0 0 1 1-1.42q.28-.32.64-.53.25-.15.52-.23.22-.05.43-.06c.08 0 .24 0 .32.03q.18.05.35.14a5 5 0 0 1 .83.6 4 4 0 0 1 .93 1.6q.19.5.32 1.04.15.67.25 1.36l.14 1.1q.08.55.13 1.11.14 1.12.23 2.26.2 2.29.31 4.58l.03.83.44-.76q.84-1.47 1.73-2.91.65-1.01 1.4-1.95.7-.85 1.47-1.63a31 31 0 0 1 1.55-1.6c.55-.5 1.08-1 1.74-1.35q.53-.28 1.11-.42c.6-.12 1.3-.18 1.8.26a3 3 0 0 1 .74 1.22l.17.46q.15.5.27 1 .27 1.07.5 2.15c.17.76.36 1.53.48 2.3s.18 1.53.27 2.3q.15 1.1.25 2.19.11 1.05.05 2.11l.45-.59.68-.74c.84-.87 1.78-1.6 2.69-2.39l.75-.66 1.5-1.26.53-.39q.6-.4 1.22-.73l1.33-.65q.95-.46 1.92-.89c.63-.3 1.27-.6 1.94-.79.39-.1.78-.17 1.18-.12q.32.04.6.23.25.2.4.5.2.4.25.82l.04.37q.03.24.04.5l-.02 1.15q-.04.62-.13 1.25c-.19 1.49-.61 2.93-.96 4.39q-.23 1.05-.5 2.08l-.26 1 .67-.3q.72-.28 1.46-.5l1.59-.52q.73-.27 1.44-.59.48-.2 1-.35c.28-.08.59-.17.9-.19l.36.01q.17.01.34.09c.18.07.38.19.51.34q.16.16.25.34l.14.36q.08.35.07.7a4 4 0 0 1-.12.77q-.15.59-.37 1.15-.37 1-.78 2a18 18 0 0 1 2.27-1q.67-.25 1.37-.43a26 26 0 0 1 2.66-.52c.4-.05.78-.06 1.16.08.43.15.65.56.64 1 0 .3-.1.58-.2.85a6 6 0 0 1-.53 1.05l-.56.93q-.96 1.5-1.97 2.95l.07-.02q1.12-.33 2.26-.54a25 25 0 0 1 4.38-.5q.59 0 1.16.08c.35.05.74.2 1.02.44q.24.2.4.47l.16.34a6 6 0 0 1 .24.7l.08.44c.03.84-.52 1.5-1.05 2.08q-.37.39-.75.73a27 27 0 0 1-2.14 1.77l.06-.03a27 27 0 0 1 5.91-1.47q.55-.08 1.09-.08c.36.01.73.04 1.03.24q.52.35.74.94a3 3 0 0 1 .22 1q-.02.64-.32 1.23-.52 1.01-1.29 1.86-.73.79-1.59 1.42l-1.77 1.31q-.93.68-1.82 1.4l-.4.31h.35l2.48-.11c.86-.03 1.72-.08 2.58-.06l1.3.06q.6.02 1.19.06c.97.06 1.95.1 2.92.23a15 15 0 0 1 3.19.7q.2.08.38.2.29.15.52.37.17.17.3.36.14.18.22.4.13.44.03.88-.05.2-.17.37-.12.2-.28.36-.3.29-.64.52a43 43 0 0 1-2.4 1.6 22 22 0 0 1-3.96 2q-.64.27-1.29.47l-.67.2-.28.09 2.59.74q3.24.94 6.5 1.86 1 .28 2.03.59.46.14.92.32t.88.4c.48.28.83.72 1.19 1.13q.16.15.28.34.14.18.23.4.09.19.1.4.02.2-.03.4t-.16.39q-.13.22-.3.4-.45.51-.95.96a10 10 0 0 1-1.85 1.36l-.66.36q-.7.35-1.43.63l-1.23.47-2.86 1.1q-.49.19-.97.34l.17.04 1.94.45 2.03.44 2.09.42q1.4.28 2.79.62l1.46.41 1.34.37.76.21c.39.11.78.21 1.14.38.5.22 1.07.62 1.06 1.24 0 .4-.25.75-.52 1.04-.32.36-.73.64-1.13.9q-.59.37-1.2.66-1.39.67-2.82 1.24-1.25.5-2.53.95l-2.8.97-1.4.5.38.09q.87.22 1.74.51 1.36.43 2.72.91.67.23 1.32.53l1.34.63q.6.3 1.22.56.66.3 1.34.58l1.36.6q.62.26 1.2.6c.83.5 1.68 1.02 2.34 1.74q.25.26.44.57.16.28.27.58.06.2.07.4l-.02.28-.02.12-.16.4q-.11.2-.27.39c-.38.43-.85.72-1.35 1-.82.45-1.76.66-2.66.86l-1.4.32-.37.09.08.01 1.43.36a23 23 0 0 1 2.32.78q.6.24 1.14.55.68.43 1.34.9l1.07.8 1.13 1q.55.5 1.04 1.05c.41.48.83 1 1 1.63ZM27.5 72.94v-.05z" fill="#3B1502" stroke="#3B1502" stroke-width="2" mask="url(#a)"/><mask id="b" fill="#fff"><path d="m171.79 38.84 1.03-.25 1.1-.29a14 14 0 0 0 2.12-.74l.12-.05a4 4 0 0 0 1.27-1.07q.18-.27.3-.57l.08-.38-.01-.2-.03-.08v-.01l-.06-.03-.28-.05q-1.06-.04-2.12.07l-1.15.12q-.56.08-1.1.18-.86.15-1.69.37a9 9 0 0 0-.81.26q-.4.16-.77.34l-.66.3a1 1 0 0 1-.36.01c-.26-.02-.52-.33-.5-.6q0-.12.03-.26.05-.19.14-.34l.12-.2.3-.42q.5-.74.95-1.53.45-.84.81-1.73l.7-1.82.38-.84.22-.45.2-.42q-.24.08-.5.2c-.76.4-1.41.97-2.07 1.53q-.87.76-1.7 1.54l-.93.9-.4.4-.25.24-.27.27a1 1 0 0 1-.23.19q-.37.2-.72-.05a.6.6 0 0 1-.22-.52q.01-.17.05-.34l.05-.3.12-.67q.12-.68.19-1.37a8 8 0 0 0-.12-2.14q-.14-.74-.44-1.44l-.12-.23c-.24.42-.42.87-.62 1.3q-.34.76-.63 1.54a23 23 0 0 0-.73 2.62q-.16.68-.25 1.34a45 45 0 0 0-.21 2.2v.79q.02.8.09 1.6.03.6.1 1.21.35.2.6.52l.36.46c.37.39.8.7 1.23 1.02q.28.19.59.33c.47.14.95.2 1.43.27l1.51.16q1.1.07 2.19.21 1.07.16 2.14.28.46.02.93-.03.4-.08.78-.23l.04-.02-.14-.12a5 5 0 0 0-.63-.31q-.62-.2-1.25-.44l-.65-.29-.6-.29-.2-.06c-.2-.05-.42-.12-.52-.33q-.15-.23-.1-.5a.7.7 0 0 1 .28-.4q.21-.13.47-.18l.42-.08.54-.09zm7.1-3.93q.08.28.08.57t-.08.55-.2.53q-.22.5-.58.9t-.8.73c-.57.41-1.24.7-1.9.94s-1.33.4-2 .58l-.72.2.1.04q.06 0 .11.03c.81.27 1.71.48 2.28 1.18q.27.33.3.77.01.4-.23.73c-.24.35-.63.56-1.03.68q-.6.17-1.2.25c-.37.04-.76 0-1.14-.03l-1.07-.13a43 43 0 0 0-2.7-.26q-1.08-.07-2.16-.18a5 5 0 0 1-1.97-.55q-.47-.3-.9-.64-.38-.25-.7-.55l-.18-.18-.17-.2-.1.13a1.8 1.8 0 0 1-.83-1.37l-.14-1.6a20 20 0 0 1 .7-7.55c.37-1.4.92-2.75 1.56-4.05.2-.4.38-.85.7-1.17q.17-.16.38-.24a1 1 0 0 1 .38-.02q.16.05.3.14.13.08.23.18a2 2 0 0 1 .47.7c.41.81.6 1.72.7 2.61.08.75.04 1.5-.04 2.23l-.07.45a59 59 0 0 1 3-2.72 9 9 0 0 1 1.78-1.26q.45-.22.95-.35.23-.07.48-.08.36.02.62.24c.17.13.27.4.28.6q.03.29-.06.57c-.13.44-.36.85-.55 1.27l-.45 1.02c-.25.64-.47 1.31-.74 1.96q-.43 1.01-1 1.96l-.2.34.49-.15a26 26 0 0 1 4.38-.74q1-.1 2-.06c.32.02.66.05.96.2.32.15.6.44.69.8m-4.7 6.97v-.06z"/></mask><path d="m171.79 38.84 1.03-.25 1.1-.29a14 14 0 0 0 2.12-.74l.12-.05a4 4 0 0 0 1.27-1.07q.18-.27.3-.57l.08-.38-.01-.2-.03-.08v-.01l-.06-.03-.28-.05q-1.06-.04-2.12.07l-1.15.12q-.56.08-1.1.18-.86.15-1.69.37a9 9 0 0 0-.81.26q-.4.16-.77.34l-.66.3a1 1 0 0 1-.36.01c-.26-.02-.52-.33-.5-.6q0-.12.03-.26.05-.19.14-.34l.12-.2.3-.42q.5-.74.95-1.53.45-.84.81-1.73l.7-1.82.38-.84.22-.45.2-.42q-.24.08-.5.2c-.76.4-1.41.97-2.07 1.53q-.87.76-1.7 1.54l-.93.9-.4.4-.25.24-.27.27a1 1 0 0 1-.23.19q-.37.2-.72-.05a.6.6 0 0 1-.22-.52q.01-.17.05-.34l.05-.3.12-.67q.12-.68.19-1.37a8 8 0 0 0-.12-2.14q-.14-.74-.44-1.44l-.12-.23c-.24.42-.42.87-.62 1.3q-.34.76-.63 1.54a23 23 0 0 0-.73 2.62q-.16.68-.25 1.34a45 45 0 0 0-.21 2.2v.79q.02.8.09 1.6.03.6.1 1.21.35.2.6.52l.36.46c.37.39.8.7 1.23 1.02q.28.19.59.33c.47.14.95.2 1.43.27l1.51.16q1.1.07 2.19.21 1.07.16 2.14.28.46.02.93-.03.4-.08.78-.23l.04-.02-.14-.12a5 5 0 0 0-.63-.31q-.62-.2-1.25-.44l-.65-.29-.6-.29-.2-.06c-.2-.05-.42-.12-.52-.33q-.15-.23-.1-.5a.7.7 0 0 1 .28-.4q.21-.13.47-.18l.42-.08.54-.09zm5.98-3.63zm1.12-.3q.08.28.08.57t-.08.55-.2.53q-.22.5-.58.9t-.8.73c-.57.41-1.24.7-1.9.94s-1.33.4-2 .58l-.72.2.1.04q.06 0 .11.03c.81.27 1.71.48 2.28 1.18q.27.33.3.77.01.4-.23.73c-.24.35-.63.56-1.03.68q-.6.17-1.2.25c-.37.04-.76 0-1.14-.03l-1.07-.13a43 43 0 0 0-2.7-.26q-1.08-.07-2.16-.18a5 5 0 0 1-1.97-.55q-.47-.3-.9-.64-.38-.25-.7-.55l-.18-.18-.17-.2-.1.13a1.8 1.8 0 0 1-.83-1.37l-.14-1.6a20 20 0 0 1 .7-7.55c.37-1.4.92-2.75 1.56-4.05.2-.4.38-.85.7-1.17q.17-.16.38-.24a1 1 0 0 1 .38-.02q.16.05.3.14.13.08.23.18a2 2 0 0 1 .47.7c.41.81.6 1.72.7 2.61.08.75.04 1.5-.04 2.23l-.07.45a59 59 0 0 1 3-2.72 9 9 0 0 1 1.78-1.26q.45-.22.95-.35.23-.07.48-.08.36.02.62.24c.17.13.27.4.28.6q.03.29-.06.57c-.13.44-.36.85-.55 1.27l-.45 1.02c-.25.64-.47 1.31-.74 1.96q-.43 1.01-1 1.96l-.2.34.49-.15a26 26 0 0 1 4.38-.74q1-.1 2-.06c.32.02.66.05.96.2.32.15.6.44.69.8Zm-4.7 6.97v-.06z" fill="#3B1502" stroke="#3B1502" stroke-width="2" mask="url(#b)"/><path d="m131.58.52.18.05.13.05q.27.15.45.4l.1.17q.26.46.34.94l.02.15q.04.34.04.68 0 .48-.06.96l-.05.31q-.12.66-.34 1.31l-.15.45-.7 2.06a10 10 0 0 1-.73 1.7l-.14.21v.01l-.09.13-.05.07q-.14.14-.27.23l-.08.05-.16.07.15-.28.1-.18.01-.01.01-.02.18-.25.01-.02.02-.01q.38-.63.62-1.27l.23-.61.23-.61q.25-.7.48-1.42l.16-.49q.28-.91.4-1.9l-.27-.03h.27q.04-.63-.05-1.28v-.02l-.01-.03-.09-.3-.1-.28-.02-.02v-.02l-.11-.18-.12-.17-.02-.04-.03-.02-.06-.06-.1-.08-.02-.01-.01-.01-.13-.07-.03-.01-.04-.01-.16-.04h-.23l-.26.07-.07.05-.03.03-.02.02-.24.29-.01.02-.02.02q-.31.55-.52 1.1l-.15.37v.02q-.25.75-.44 1.5l-.12.5-.18.8-.05.3-.12 1v.03q-.03.42-.02.87l.02.43.02.42q.05.72.15 1.47l.15 1h-.05l-.18-.17-.03-.08-.06-.18-.04-.19-.07-.45a13 13 0 0 1-.15-1.42l-.03-.49-.01-.5q0-.73.1-1.47.12-.96.38-1.91l.25-.95.18-.53.2-.52q.16-.45.37-.85l.29-.43V.93l.08-.1.08-.07q.15-.14.24-.18l.06-.03q.33-.08.6-.03Z" fill="#3B1502" stroke="#3B1502"/><mask id="c" fill="#fff"><path d="m119.87 186.9.05.1q.22.44.48.82t.55.71q.43.47.88.92.38.39.82.73l.26.14.08.02.03-.04q.11-.45.15-.9.03-.46.02-.93a9 9 0 0 0-.1-.95 12 12 0 0 0-1.4-3.53q-.24-.38-.53-.75-.31-.38-.61-.8-.22-.34-.47-.66a3 3 0 0 0-.4-.35 3 3 0 0 0-.53-.28h-.07l-.25.1-.74.4h-.01l-.02.01-.29.14q-.11.31-.28.56-.24.35-.51.68l-.19.24-.62.88q-.37.52-.64 1.08-.3.63-.57 1.27-.19.58-.27 1.18l-.14 1.2-.05 1q-.02.54.03 1.1.03.15.1.3l.03.05.03.02.06.03h.07l.2-.06q.35-.2.66-.45.28-.3.5-.62a10 10 0 0 0 1.02-1.8l.42-.97.34-.82.12-.42c.05-.26.1-.55.36-.7q.21-.13.47-.08.16.03.28.14c.2.14.3.4.38.62l.1.23zm4.55 1.25.02.63-.01.35q-.02.58-.11 1.14l-.08.3q-.04.17-.1.3a1 1 0 0 1-.15.25l-.06.08q-.25.27-.58.37c-.22.07-.5.08-.72 0a2 2 0 0 1-.81-.41q-.2-.14-.4-.32a13 13 0 0 1-1.45-1.5q-.36-.4-.66-.85-.23-.37-.44-.77l-.06.16-.42 1q-.4.93-.95 1.8-.27.42-.58.82a4 4 0 0 1-1.02.86q-.33.2-.7.31a1.4 1.4 0 0 1-1.17-.19 2 2 0 0 1-.46-.44c-.48-.82-.38-1.85-.35-2.76q.06-1.14.25-2.25c.1-.7.38-1.36.68-2q.1-.25.23-.49l.25-.47a24 24 0 0 1 1.28-1.85q.15-.24.35-.46a2 2 0 0 1 1-.61q.1-.3.3-.53a3 3 0 0 1 1.25-.68q.54-.12 1.03.13a5 5 0 0 1 .84.55q.48.46.85 1.02.3.43.64.84.31.37.56.77.56.91.96 1.9a9 9 0 0 1 .62 1.88q.12.55.17 1.12"/></mask><path d="m119.87 186.9.05.1q.22.44.48.82t.55.71q.43.47.88.92.38.39.82.73l.26.14.08.02.03-.04q.11-.45.15-.9.03-.46.02-.93a9 9 0 0 0-.1-.95 12 12 0 0 0-1.4-3.53q-.24-.38-.53-.75-.31-.38-.61-.8-.22-.34-.47-.66a3 3 0 0 0-.4-.35 3 3 0 0 0-.53-.28h-.07l-.25.1-.74.4h-.01l-.02.01-.29.14q-.11.31-.28.56-.24.35-.51.68l-.19.24-.62.88q-.37.52-.64 1.08-.3.63-.57 1.27-.19.58-.27 1.18l-.14 1.2-.05 1q-.02.54.03 1.1.03.15.1.3l.03.05.03.02.06.03h.07l.2-.06q.35-.2.66-.45.28-.3.5-.62a10 10 0 0 0 1.02-1.8l.42-.97.34-.82.12-.42c.05-.26.1-.55.36-.7q.21-.13.47-.08.16.03.28.14c.2.14.3.4.38.62l.1.23zm4.55 1.25.02.63-.01.35q-.02.58-.11 1.14l-.08.3q-.04.17-.1.3a1 1 0 0 1-.15.25l-.06.08q-.25.27-.58.37c-.22.07-.5.08-.72 0a2 2 0 0 1-.81-.41q-.2-.14-.4-.32a13 13 0 0 1-1.45-1.5q-.36-.4-.66-.85-.23-.37-.44-.77l-.06.16-.42 1q-.4.93-.95 1.8-.27.42-.58.82a4 4 0 0 1-1.02.86q-.33.2-.7.31a1.4 1.4 0 0 1-1.17-.19 2 2 0 0 1-.46-.44c-.48-.82-.38-1.85-.35-2.76q.06-1.14.25-2.25c.1-.7.38-1.36.68-2q.1-.25.23-.49l.25-.47a24 24 0 0 1 1.28-1.85q.15-.24.35-.46a2 2 0 0 1 1-.61q.1-.3.3-.53a3 3 0 0 1 1.25-.68q.54-.12 1.03.13a5 5 0 0 1 .84.55q.48.46.85 1.02.3.43.64.84.31.37.56.77.56.91.96 1.9a9 9 0 0 1 .62 1.88q.12.55.17 1.12Z" fill="#3B1502" stroke="#3B1502" stroke-width="2" mask="url(#c)"/><mask id="d" fill="#fff"><path d="m118.2 181.6-.12.06v-.01z"/></mask><path d="m118.2 181.6-.12.06v-.01z" fill="#3B1502"/><path d="m118.2 181.6.44.9-.86-1.8zm-.12.06-.42-.91.42 1.9zm0-.01-.36-.93-.36.14-.17.34zm.11-.05-.41-.9q-.05 0-.08.03l-.04.02.42.9.41.92.08-.04.04-.02zm-.11.06v1h.03l.1-.01a1 1 0 0 0 .77-.56zl-.89-.45c.06-.1.19-.3.44-.44.24-.12.47-.1.45-.1zm0-.01.38.93.18-.09-.45-.89-.44-.9-.03.02z" fill="#3B1502" mask="url(#d)"/><mask id="e" fill="#fff"><path d="M103.06 195.3v.53c-.02.75-.07 1.5-.23 2.22l-.16.52q-.14.5-.46.88-.16.2-.37.34-.18.1-.34.16c-.1.04-.25.05-.36.05-.17 0-.27-.03-.43-.09l-.29-.14-.16-.02a.6.6 0 0 1-.34-.19 1 1 0 0 1-.2-.3l-.08-.29-.17-.65-.56-2.38-.36-1.6q0-.06-.03-.1a35 35 0 0 1-1.9 2.88l-.5.66a4 4 0 0 1-1.33 1.18 1 1 0 0 1-.53.07q-.23-.04-.4-.2a1.4 1.4 0 0 1-.4-.63q-.09-.37-.1-.75-.03-.52-.02-1.04.01-1.13.11-2.25l.07-.82-.66.8q-.48.55-1 1.05l-.44.4c-.31.28-.67.6-1.07.75-.47.17-1.06.21-1.46-.15a1 1 0 0 1-.33-.59q-.07-.3-.06-.59.03-1.1.31-2.16.32-1.1.89-2.09l.5-.85.6-.97 1.24-1.88q.6-.9 1.3-1.72a10 10 0 0 1 1.99-1.72q.4-.23.8-.42l.09-.04-.03-.04c.21-.29.6-.42.93-.45q.3-.01.58.05.23.06.47.16.82.32 1.5.91.84.75 1.32 1.78c.28.63.46 1.3.67 1.96q.64 2.02 1.01 4.12.2 1.02.32 2.05.07.8.07 1.6m-1.36 1.25a20 20 0 0 0-.39-5.28q-.27-1.42-.68-2.81l-.4-1.35a10 10 0 0 0-.43-1.2 5 5 0 0 0-.4-.62 6 6 0 0 0-.72-.66q-.44-.3-.92-.48l-.09-.03-.1.04q-.34.1-.67.24l-.5.23q-.65.34-1.22.82-1.15 1.06-2.02 2.37l-.25.36-.03.06-.04.06-.76 1.14-.69 1.1q-.66 1.06-1.13 2.2-.3.94-.4 1.94v.39l.06-.02q.3-.2.58-.44l.36-.33.46-.47q.46-.47.88-.98.73-.88 1.38-1.8.26-.4.48-.8l.12-.34c.16-.35.6-.47.93-.3q.24.13.34.4.06.18.02.36c-.08.37-.2.73-.26 1.1q-.1.54-.17 1.09l-.2 2.2a31 31 0 0 0-.07 2.46q.44-.5.81-1.02l.7-.99q.48-.7.94-1.44c.3-.51.63-1.02.84-1.59.05-.15.23-.28.38-.33a.66.66 0 0 1 .84.43c.18.5.38 1 .51 1.53l.37 1.6.33 1.33.24 1.02q.08.25.13.52l.06.2.07.03.17.1.08-.1.2-.42a5 5 0 0 0 .26-1.52"/></mask><path d="M103.06 195.3v.53c-.02.75-.07 1.5-.23 2.22l-.16.52q-.14.5-.46.88-.16.2-.37.34-.18.1-.34.16c-.1.04-.25.05-.36.05-.17 0-.27-.03-.43-.09l-.29-.14-.16-.02a.6.6 0 0 1-.34-.19 1 1 0 0 1-.2-.3l-.08-.29-.17-.65-.56-2.38-.36-1.6q0-.06-.03-.1a35 35 0 0 1-1.9 2.88l-.5.66a4 4 0 0 1-1.33 1.18 1 1 0 0 1-.53.07q-.23-.04-.4-.2a1.4 1.4 0 0 1-.4-.63q-.09-.37-.1-.75-.03-.52-.02-1.04.01-1.13.11-2.25l.07-.82-.66.8q-.48.55-1 1.05l-.44.4c-.31.28-.67.6-1.07.75-.47.17-1.06.21-1.46-.15a1 1 0 0 1-.33-.59q-.07-.3-.06-.59.03-1.1.31-2.16.32-1.1.89-2.09l.5-.85.6-.97 1.24-1.88q.6-.9 1.3-1.72a10 10 0 0 1 1.99-1.72q.4-.23.8-.42l.09-.04-.03-.04c.21-.29.6-.42.93-.45q.3-.01.58.05.23.06.47.16.82.32 1.5.91.84.75 1.32 1.78c.28.63.46 1.3.67 1.96q.64 2.02 1.01 4.12.2 1.02.32 2.05.07.8.07 1.6m-1.36 1.25a20 20 0 0 0-.39-5.28q-.27-1.42-.68-2.81l-.4-1.35a10 10 0 0 0-.43-1.2 5 5 0 0 0-.4-.62 6 6 0 0 0-.72-.66q-.44-.3-.92-.48l-.09-.03-.1.04q-.34.1-.67.24l-.5.23q-.65.34-1.22.82-1.15 1.06-2.02 2.37l-.25.36-.03.06-.04.06-.76 1.14-.69 1.1q-.66 1.06-1.13 2.2-.3.94-.4 1.94v.39l.06-.02q.3-.2.58-.44l.36-.33.46-.47q.46-.47.88-.98.73-.88 1.38-1.8.26-.4.48-.8l.12-.34c.16-.35.6-.47.93-.3q.24.13.34.4.06.18.02.36c-.08.37-.2.73-.26 1.1q-.1.54-.17 1.09l-.2 2.2a31 31 0 0 0-.07 2.46q.44-.5.81-1.02l.7-.99q.48-.7.94-1.44c.3-.51.63-1.02.84-1.59.05-.15.23-.28.38-.33a.66.66 0 0 1 .84.43c.18.5.38 1 .51 1.53l.37 1.6.33 1.33.24 1.02q.08.25.13.52l.06.2.07.03.17.1.08-.1.2-.42a5 5 0 0 0 .26-1.52" fill="#3B1502"/><path d="m103.05 195.83-1-.02zm-.22 2.22-.98-.22zm-.16.52-.95-.32zm-.46.88-.75-.66zm-.37.34.47.88zm-.34.16.34.94zm-.36.05.03-1h-.03zm-.43-.09-.37.93h.01zm-.29-.14.48-.88-.23-.12h-.25zm-.16-.02.14-.99h-.01zm-.34-.19.76-.65-.04-.05-.05-.05zm-.2-.3.95-.32v-.03l-.02-.03zm-.05-.15.97-.27v-.01l-.01-.01zm-.03-.14.97-.24zm-.17-.65-.97.22v.03zm-.24-1.03.98-.23zm-.32-1.35-.97.22v.02zm-.36-1.6-.98.2v.02l.01.02zm-.03-.1.99-.2-.52-2.58-1.33 2.26zm-.83 1.34-.84-.54zm-1.06 1.54.8.6zm-.5.66-.8-.62zm-1.34 1.18.41.9zm-.53.07-.28.96H94zm-.4-.2.7-.7zm-.4-.63-.97.25v.02zm-.1-.75-1 .06zm.1-3.29-1-.09zm.06-.82 1 .1.31-3.33-2.09 2.6zm-.66.8.76.66zm-1.44 1.44-.66-.75zm-1.07.76-.34-.94zm-1.46-.15.67-.74zm-.33-.59.98-.2zm-.06-.59-1-.04zm.31-2.16-.96-.28zm.89-2.09-.87-.49zm.5-.85-.84-.53zm.6-.97.84.54zm1.24-1.88-.83-.55zm1.3-1.72-.76-.66zm.8-.83.67.74zm1.19-.9-.51-.85zm.8-.41-.35-.94-.04.02-.05.02zm.09-.04.35.93 1.24-.47-.79-1.06zm.9-.49-.06-1zm.58.05-.24.97zm.47.16.37-.92zm1.5.91-.68.74zm1.32 1.78.92-.4v-.01zm.67 1.96-.96.3zm1.01 4.12.99-.18zm.32 2.05-1 .09zm-1.3 2.85-.99-.06-.06 1.06h1.06zm0-2.73-1 .09zm-.38-2.55.98-.18zm-.68-2.81.97-.28zm-.4-1.35.95-.29zm-.43-1.2.9-.42v-.03l-.03-.04zm-.4-.62.79-.6-.03-.04-.03-.03zm-.72-.66.61-.8-.03-.02-.03-.02zm-.92-.48.38-.93-.07-.02-.07-.02zm-.09-.03.36-.94-.42-.15-.39.2zm-.1.04.32.95.02-.01h.02zm-.67.24-.4-.92zm-.5.23-.42-.9h-.02l-.02.02zm-1.22.82-.65-.77-.01.01-.02.02zm-2.02 2.37.83.57zm-.25.36-.82-.57-.02.03-.02.03zm-.03.06.78.62.04-.05.04-.06zm-.04.06h-1v3.32l1.83-2.77zm0 0 .83.56.17-.25v-.3zm-.76 1.14-.84-.55zm-.69 1.1.85.54zm-1.13 2.2-.93-.37-.01.03-.01.04zm-.4 1.94-.99-.1v.04zm0 .39-1 .03.03.97h.97zm.06-.02.51.85h.02zm.58-.44.64.77.01-.01zm.36-.33-.71-.7zm.46-.47.71.7zm.88-.98-.77-.65zm1.38-1.8.82.57v-.01l.02-.02zm.48-.8.9.44.03-.06.02-.08zm.12-.34.92.4zm.93-.3-.46.88zm.34.4.96-.3v-.01l-.01-.02zm.02.36.98.22v-.01zm-.26 1.1.98.19v-.01zm-.17 1.09-1-.12zm-.2 2.2-1-.09v.02zm-.07 1.56 1 .02zm0 .9-1 .04.1 2.44 1.64-1.8zm.81-1.02-.8-.6zm.7-.99.82.58.01-.01v-.01zm.94-1.44-.86-.52zm.84-1.59.93.35v-.01zm.38-.33-.31-.95zm.35-.02-.22.98h.01zm.49.45-.94.34zm.51 1.53.97-.25zm.37 1.6-.97.22zm.33 1.33-.98.23zm.24 1.02-.97.23v.01zm.13.52-.97.23v.03zm.06.2-.98.2.1.51.48.2zm.07.03.48-.88-.04-.02-.04-.01zm.17.1-.5.86.66.39.55-.55zm.08-.1.79.61.04-.05.03-.06zm.2-.42.93.35.01-.03.01-.04zm.18-.76.99.14v-.01zm.08-.76 1 .08.1-1.08h-1.1zm1.36-1.25h-1v.51l1 .02.99.02v-.55zm0 .53-1-.01a10 10 0 0 1-.2 2l.97.23.97.23c.19-.83.24-1.66.25-2.43zm-.23 2.22-.98-.22-.12.42.94.32.95.33.18-.63zm-.16.52-.95-.32q-.14.4-.27.54l.76.66.75.66c.35-.4.54-.86.66-1.21zm-.46.88-.76-.66-.11.13-.02.02.04-.03.47.88.48.88c.34-.18.58-.48.65-.56zm-.37.34-.48-.88q-.14.08-.22.1l.36.94.35.94q.28-.11.46-.22zm-.34.16-.36-.94h.04l.01-.01q.02 0 0 0h-.02l-.03 1-.03 1c.19 0 .47-.01.73-.11zm-.36.05v-1h-.01l-.06-.02-.36.93-.36.94c.22.08.46.15.8.15zm-.43-.09.37-.93-.18-.1-.48.89-.48.88.4.2zm-.29-.14v-1h.02-.04l-.14.98-.14 1 .3.02zm-.16-.02.13-1 .19.07q.03 0 .1.09l-.76.65-.75.66c.2.23.56.47.97.52zm-.34-.19.67-.75.08.13-.94.33-.94.33q.13.4.47.7zm-.2-.3.93-.38-.01-.04-.97.27-.96.27.1.28zm-.05-.15.96-.3-.02-.08-.97.24-.97.24.05.2zm-.03-.14.97-.24-.17-.66-.97.25-.96.25.16.65zm-.17-.65.98-.22-.24-1.04-.98.23-.97.23.24 1.02zm-.24-1.03.98-.23-.32-1.35-.98.23-.97.24.32 1.34zm-.32-1.35.98-.22c-.11-.5-.23-1.08-.37-1.62l-.97.24-.97.24.36 1.58zm-.36-1.6.98-.2-.02-.1q0-.04 0 0l-.99.2-.98.19.03.1q0 .04 0 0zm-.03-.1-.86-.52-.8 1.32.83.54.84.55q.44-.69.86-1.4zm-.83 1.34-.84-.54q-.5.75-1.03 1.5l.8.58.81.6q.57-.78 1.1-1.6zm-1.06 1.54-.8-.6-.5.64.8.62.78.61.52-.67zm-.5.66-.8-.62c-.34.45-.63.74-.96.89l.42.9.42.92a5 5 0 0 0 1.7-1.48zm-1.34 1.18-.42-.91h.04l.1.01-.25.97-.25.97c.5.13.95-.02 1.2-.13zm-.53.07.3-.96-.06-.01-.05-.02h-.02s.07.02.13.1l-.7.7-.72.7c.33.34.79.43.84.45zm-.4-.2.7-.7-.13-.19-.97.26-.96.27c.12.46.4.82.65 1.08zm-.4-.63.97-.24a3 3 0 0 1-.08-.58l-1 .07-1 .07q.03.43.14.93zm-.1-.75.99-.07c-.02-.3 0-.58 0-.97h-2c0 .3-.02.72 0 1.1zm-.02-1.04h1q0-1.06.1-2.16l-.99-.09-1-.08a26 26 0 0 0-.1 2.33zm.11-2.25 1 .1.03-.42.04-.4-1-.1-1-.09q0 .22-.03.43l-.03.39zm.07-.82-.78-.62q-.3.39-.64.78l.76.65.76.64q.35-.4.68-.82zm-.66.8-.76-.65q-.43.48-.95 1l.71.7.71.7q.51-.49 1.05-1.1zm-1 1.05-.71-.7-.39.34.66.75.66.75c.11-.09.32-.26.49-.43zm-.44.4-.66-.75a3 3 0 0 1-.75.56l.34.94.35.94c.62-.23 1.11-.7 1.39-.95zm-1.07.75-.35-.94a1 1 0 0 1-.35.07q-.07 0-.08-.02h-.01l-.67.74-.68.74c.82.74 1.9.57 2.5.34zm-1.46-.15.66-.75.02.02-.01-.01-.01-.02v-.03l-.99.2-.98.2c.08.39.28.81.64 1.13zm-.33-.59.98-.2-.04-.35-1-.04-1-.04q0 .51.09.84zm-.06-.59 1 .04q.02-1.02.28-1.94l-.97-.27-.96-.26q-.32 1.2-.35 2.39zm.31-2.16.96.27a9 9 0 0 1 .8-1.87l-.87-.49-.88-.48q-.6 1.04-.97 2.3zm.89-2.09.87.49q.23-.4.49-.81l-.85-.53-.85-.53q-.27.42-.53.9zm.5-.85.86.53.58-.96-.84-.54-.84-.54-.6.98zm.6-.97.84.54 1.23-1.86-.83-.56-.83-.55q-.63.93-1.25 1.89zm1.24-1.88.83.56q.58-.86 1.23-1.63l-.76-.65-.76-.65q-.75.88-1.37 1.82zm1.3-1.72.76.65q.35-.4.71-.74l-.67-.74-.67-.74q-.47.44-.89.91zm.8-.83.67.74q.5-.45 1.03-.77l-.51-.86-.51-.86q-.75.46-1.35 1.01zm1.19-.9.5.87.74-.39-.44-.9-.44-.9q-.4.2-.87.47zm.8-.41.36.93.07-.03.04-.02-.03.01-.35-.93-.35-.94-.08.03-.04.02.03-.01zm.09-.04.8-.6-.03-.04.1.15-.9.45-.9.44.14.21-.01-.02zm-.03-.04v-1zv1zv-1zv1zm0 0 .8.6q-.03.02.02 0 .08-.04.18-.05l-.07-1-.06-1c-.5.04-1.22.25-1.67.85zm.93-.45.06 1q.18 0 .28.02l.24-.97.23-.97q-.46-.11-.87-.07zm.58.05-.23.97.33.12.37-.93.36-.93c-.11-.04-.36-.15-.6-.2zm.47.16-.38.93q.71.28 1.2.72l.68-.74.67-.74a6 6 0 0 0-1.8-1.1zm1.5.91-.68.74q.72.64 1.09 1.44l.9-.4.92-.41a6 6 0 0 0-1.56-2.1zm1.32 1.78-.92.4c.25.57.41 1.15.63 1.86l.96-.3.95-.3c-.19-.61-.4-1.37-.7-2.06zm.67 1.96-.96.3q.63 1.96.99 4l.98-.18.99-.18a34 34 0 0 0-1.05-4.25zm1.01 4.12-.98.18q.2 1.03.3 1.96l1-.1 1-.08c-.07-.74-.21-1.47-.33-2.14zm.32 2.05-1 .1q.07.75.07 1.5h2q0-.83-.08-1.7zm.07 1.6h1zh-1zm-1.36 1.25 1 .05q.1-1.4-.02-2.86l-1 .08-.99.09q.1 1.26.01 2.58zm-.01-2.73 1-.08a27 27 0 0 0-.4-2.65l-.98.18-.98.18c.15.85.3 1.66.36 2.46zm-.38-2.55.98-.19q-.28-1.46-.7-2.9l-.96.28-.96.28q.4 1.35.66 2.72zm-.68-2.81.96-.28-.4-1.36-.96.3-.96.28.4 1.34zm-.4-1.35.95-.29q-.17-.63-.47-1.33l-.91.41-.92.41q.22.49.4 1.1zm-.43-1.2.87-.49a6 6 0 0 0-.48-.74l-.8.61-.79.6q.19.25.32.5zm-.4-.62.73-.67a7 7 0 0 0-.84-.78l-.61.79-.61.79q.3.24.58.55zm-.72-.66.55-.84a7 7 0 0 0-1.09-.56l-.38.92-.38.92q.41.18.75.4zm-.92-.48.24-.97h.03l.01.01h-.01l-.36.93-.35.94.2.06zm-.09-.03-.45-.9h.03l.01-.01h-.02l-.01.01.35.94.35.93h.02l.03-.02q.05 0 .14-.06zm-.1.04-.3-.95c-.19.06-.49.15-.77.27l.4.92.4.91c.17-.07.32-.11.6-.2zm-.67.24-.4-.92-.52.24.43.9.42.91.48-.22zm-.5.23-.46-.88q-.74.38-1.4.93l.64.77.64.76q.47-.4 1.06-.7zm-1.22.82-.68-.74a15 15 0 0 0-2.16 2.54l.82.57.83.56q.83-1.23 1.86-2.2zm-2.02 2.37-.82-.57-.13.18-.12.18.82.57.83.57.12-.18.13-.18zm-.25.36-.86-.5.02-.04-.02.03-.03.06.86.5.86.52-.02.03.05-.09zm-.03.06-.79-.62-.07.1-.01.02.83.56.83.55.02-.03-.03.04zm-.04.06h-1zh1zm0 0-.84-.55-.76 1.14.84.55.84.54.75-1.12zm-.76 1.14-.84-.54-.7 1.12.85.53.85.53.68-1.1zm-.69 1.1-.84-.52c-.46.72-.9 1.5-1.22 2.35l.93.37.93.36q.41-1.02 1.05-2.02zm-1.13 2.2-.95-.3q-.33 1.04-.44 2.13l1 .1.99.1q.1-.9.35-1.73zm-.4 1.94-1-.06v.48l1-.03 1-.03v-.31zm0 .39v1a1 1 0 0 0 .57-.17l-.51-.85-.52-.86a1 1 0 0 1 .46-.12zm.06-.02.53.84c.27-.16.5-.36.69-.51l-.64-.77-.64-.77q-.27.23-.48.36zm.58-.44.65.76q.19-.15.42-.38l-.71-.7-.71-.71-.3.27zm.36-.33.7.7.47-.46-.7-.7-.72-.71-.46.47zm.46-.47.72.7q.5-.52.92-1.03l-.76-.65-.77-.65q-.42.52-.82.93zm.88-.98.76.65q.77-.93 1.44-1.88l-.82-.58-.81-.58q-.65.92-1.34 1.74zm1.38-1.8.84.54c.16-.24.37-.56.54-.9l-.9-.44-.9-.45q-.14.3-.41.7zm.48-.8.95.3.09-.24-.92-.4-.91-.4-.16.43zm.12-.34.92.4a.4.4 0 0 1-.22.21.3.3 0 0 1-.23-.03l.46-.88.46-.89c-.76-.4-1.89-.16-2.3.79zm.93-.3-.46.89a.3.3 0 0 1-.14-.17l.94-.32.95-.33a1.7 1.7 0 0 0-.83-.96zm.34.4-.95.3-.01-.13.98.2.98.2q.09-.46-.04-.87zm.02.36-.98-.21-.12.52-.14.62.98.18.99.17q.03-.22.1-.48l.15-.58zm-.26 1.1-.98-.18q-.1.57-.18 1.15l1 .12.98.12q.06-.5.16-1.02zm-.17 1.09-1-.11-.2 2.22 1 .09.99.08.2-2.17zm-.2 2.2-1-.07q-.06.81-.07 1.62l1 .01 1 .01.06-1.5zm-.07 1.56-1-.03v.97l1-.04 1-.04v-.84zm0 .9.74.67c.33-.36.62-.76.88-1.1l-.81-.6-.8-.59q-.38.53-.75.94zm.81-1.02.8.6.72-1.01-.81-.58-.82-.57q-.34.5-.7.96zm.7-.99.84.56.95-1.49-.85-.51-.86-.52q-.43.7-.9 1.4zm.94-1.44.85.52c.3-.48.68-1.09.92-1.76l-.93-.35-.94-.34c-.17.45-.43.87-.76 1.4zm.84-1.59.94.34-.15.23-.1.05-.31-.95-.32-.95q-.3.1-.54.3c-.16.13-.36.34-.47.65zm.38-.33.3.95a.3.3 0 0 1-.17 0l.22-.97.21-.97q-.46-.1-.87.04zm.35-.02-.2.98a.3.3 0 0 1-.25-.2l.94-.33.94-.35a1.7 1.7 0 0 0-1.23-1.08zm.49.45-.94.34c.2.53.36.97.48 1.44l.97-.25.97-.25c-.15-.59-.37-1.14-.54-1.63zm.51 1.53-.97.24.37 1.58.97-.23.98-.23-.38-1.6zm.37 1.6-.97.23.16.67.16.66.98-.23.97-.23-.16-.68-.17-.66zm.33 1.33-.98.23.25 1.02.97-.23.98-.24-.13-.5-.12-.51zm.24 1.02-.97.24.13.5.97-.22.98-.23-.14-.54zm.13.52-.96.26.04.15.98-.2.97-.21-.06-.27zm.06.2-.4.92.08.03.4-.91.39-.92-.08-.04zm.07.03-.47.89.14.07.5-.87.5-.86-.2-.1zm.17.1.7.7q.1-.09.17-.19l-.8-.6-.79-.62zm.08-.1.86.5q.17-.3.27-.57l-.94-.35-.93-.36-.13.28zm.2-.42.95.28c.07-.24.17-.56.22-.9l-1-.14-.98-.15a5 5 0 0 1-.16.62zm.18-.76.99.13.09-.8-1-.1-1-.08-.07.72zm.08-.76v-1zv1z" fill="#3B1502" mask="url(#e)"/><path d="m57.3 171.15.25.05q.37.18.55.56.18.45.26 1.03.05.38.05.8l-.01.62-.04.65-.04 1.14-.03 1.13q-.01.88-.1 1.75l-.06.59c-.05.4-.08.73-.17 1.04l-.18.54q-.11.34-.23.6l-.09.16q-.21.33-.45.64a3 3 0 0 1-.71.63l-.09.04a1 1 0 0 1-.47.13h-.13l-.12-.04-.24-.12-.1-.08-.12-.1-.2-.26-.09-.15a4 4 0 0 1-.33-.7l-.06-.24q-.1-.42-.13-.84l-.02-.29v-.51l.04-.54q.04-.6.1-1.16l.06-.37q.07-.36.18-.71l.38-1.32-1.14.76-.55.35-.58.36q-.72.45-1.42.94l-.47.33q-.4.3-.82.57l-.53.33q-.2.14-.38.24l-.46.24-.14.05q-.25.08-.43.07h-.12a1 1 0 0 1-.33-.15 1 1 0 0 1-.29-.61v-.1q0-.48.14-.92l.1-.3.09-.2.1-.2.15-.23.17-.25q.21-.3.46-.6l.17-.18q.59-.62 1.24-1.2l.44-.36q.58-.5 1.13-.89c.41-.28.87-.49 1.36-.73q1-.48 2.02-.84c.65-.22 1.1-.42 1.57-.36q.13.01.24.06l-.3.16-.35.11-.5.14-.56.2q-1.01.35-1.95.8h-.01l-.1.04h-.04l-.11.08-.02.01-.05.03-.07.03-.04.02-.08.04-.31.16-.33.2-.45.31-.42.33-.78.65-.02.01q-.56.51-1.09 1.05-.39.4-.7.83l-.2.28-.01.01v.01q-.2.29-.35.65v.02l-.01.02q-.12.37-.17.78v.25l.05.64.6-.2.25-.1.01-.01h.02a14 14 0 0 0 1.55-.98l.48-.34q.87-.61 1.76-1.19l1.34-.84.44-.3q.2-.12.4-.27l.38-.28h.01l.44-.35.19-.15.07-.02h.07l.09.04.05.06.02.08v.1q-.04.17-.2.47l.44.23-.44-.23v.01l-.1.2-.1.22q-.12.2-.2.41l-.16.42v.01q-.28.8-.37 1.67l-.06.56c-.04.6-.07 1.22 0 1.86l.03.27v.02l.01.02q.09.4.25.77v.01l.01.01q.12.24.29.48l.01.01.01.02.09.08.08.07.26.2.3-.17.4-.3.02-.02q.3-.3.52-.62l.01-.01.02-.03q.22-.39.36-.76v-.02l.01-.01q.17-.51.27-1.05l.05-.36.14-1.38v-.02l.02-.7.02-.7.05-1.4c.01-.8.11-1.75-.03-2.67v-.04l-.05-.17.05.02-.13-.29-.05-.15-.01-.03-.24-.72-.06.05-.06-.14v-.01l-.01-.01zm-7.25-150.5q.05.04.1.12l.12.23q.13.3.2.62l.16.74.1.56.1.57q.13.75.22 1.52l.06.5a14 14 0 0 1 .06 1.57l-.02.32q-.06.77-.17 1.5l-.1.5-.2.91-.25.93-.12.46-.13.43-.1.28-.1.25-.07.16-.17.27-.05.06q-.3.31-.77.6l-.68.38-.22.1q-.46.22-.96.3c-.15.02-.22.04-.3.04h-1.18l-.24-.03-.28-.07v-.22q.17-.06.36-.08l.3-.01.38.01.41.01h.01q.3 0 .59-.04h.05l.5-.15.46-.19h.02l.02-.02q.56-.29 1.15-.7l.02-.02.03-.03.2-.22.02-.03.02-.03q.15-.28.25-.54v-.02q.21-.6.36-1.18.19-.6.34-1.25l.13-.64.12-.66q.09-.6.14-1.2v-.03a22 22 0 0 0-.45-4.75v-.02l-.01-.04q-.09-.53-.26-1.12l-.24-.71zM45.67 9.12l.1.25q.27.7.49 1.39l.12.46q.86 3.54 1.31 7.16l.12 1.04q.11 1.05.2 2.11l.98.1q.08-.3.2-.55.17-.33.35-.46l-.26.65-.07.18-.01.03q-.23.78-.36 1.58l-.08.53-.12 1.04-.09 1.04v.01l-.05.91v.01l-.04.63-.01.28v.01q0 .19-.1.23h-.09l-.03-.03-.02-.03v-.06l-.03-.29-.04-.88-.06-1.27-.08-1.22-.08-1.21-.17-2.34-.1-1-.12-1-.12-1.05-.14-1.04-.08-.5-.08-.5-.18-.97-.26-1.32-.14-.66-.15-.66-.18-.7-.2-.7-.11-.33-.36-.93-.02-.03-.03-.06.09-.06zm4.07 10.91v.07zM44.9 8.05l.07.05-.44.35-.13.1-.04.15v.01l-.02.02v.04q-.19.54-.3 1.1l-.05.37q-.11.8-.15 1.54v.14l-.02.52v.54q0 .5.04 1.04l.04.54.05.56.07.57.06.56.08.56.09.52v.01l.2 1.1.3 1.82v.03l.05.2v.12l-.01.01-.03.06-.04.01h-.09l-.03-.04-.03-.05-.03-.08-.1-.28q-.05-.2-.12-.37l-.01-.01-.28-.64v-.02l-.22-.42-.7-1.24-.94-1.6-1.09-1.88-.54-.9q-.49-.86-1.14-1.65l-.15-.17a4 4 0 0 0-.51-.46l-.02-.02h-.01l-.21-.13-.3-.16.05-.1q.42.19.74.47l.12.1q.34.34.64.73l.2.26q.45.66.88 1.38l1.05 1.78 1.05 1.79.07.13.08.13.93-.34-.1-.6v-.01l-.06-.45-.05-.46-.08-.93-.03-.45-.02-.44-.02-.73v-.23q.02-.6.06-1.14l.12-1.12q.1-.83.4-1.63l.1-.22.19-.32.06-.06.16-.1h.08z" fill="#3B1502" stroke="#3B1502"/><mask id="f" fill="#fff"><path d="M37.59 11.6q.22 1.05.54 2.1c.21.67.5 1.32.77 1.97l.4.83q.15.23.28.47l.2.33 1.05 1.7 1.13 1.85.5.77q.16.26.34.51l.25.38c.1.17.2.39.13.6a1 1 0 0 1-.14.27.6.6 0 0 1-.57.19 1 1 0 0 1-.27-.15l-.57-.42-.65-.41q-.54-.34-1.12-.6c-.45-.15-.9-.29-1.37-.34h-.22l.25.43q.53.89 1.08 1.75l1.06 1.77q.51.86.99 1.75l.52.98.25.47.1.18c.1.2.2.39.2.6a.7.7 0 0 1-.3.6q-.23.14-.5.1c-.17-.02-.31-.13-.45-.23q-.64-.43-1.32-.78l-1.5-.7-1.58-.73-.85-.42-.9-.44a5 5 0 0 0-1.11-.26h-.34l-.12.05.01.02q.16.31.38.59.46.52.99.99.57.52 1.19 1 1.18.97 2.4 1.84a30 30 0 0 0 2.01 1.18q.53.28 1.07.54.45.2.9.37.3.1.62.18.39.07.78.2.23.1.46.25v.88l-.29.09q-.18.04-.37.05-.15.01-.3-.01l-.45-.09a7 7 0 0 1-1-.3q-.46-.17-.92-.38l-.76-.37q-.45-.23-.89-.49-.85-.48-1.66-1.03a42 42 0 0 1-3.25-2.57q-.76-.66-1.41-1.4-.2-.24-.37-.49-.12-.19-.21-.39c-.1-.2-.21-.44-.23-.68q-.02-.3.13-.58c.24-.4.72-.63 1.17-.69.41-.04.86 0 1.26.11q.42.1.83.26.59.25 1.16.56.93.46 1.89.87l1.61.74a129 129 0 0 0-2.45-4.2l-.52-.88-.23-.41c-.15-.3-.31-.58-.36-.9a1 1 0 0 1 .2-.77c.13-.16.32-.31.52-.36q.34-.09.7-.08.36.02.72.09.37.09.73.2.32.1.64.24l.17.07-.85-1.39-1.01-1.64-.47-.8q-.14-.24-.25-.52l-.25-.53q-.22-.47-.4-.95a8 8 0 0 1-.32-.83 22 22 0 0 1-.65-2.75q-.05-.26-.06-.54-.01-.37.1-.73l.14-.23q.1-.14.25-.25c.07-.06.22-.1.31-.12q.2-.05.4-.02.24.02.48.12l-.46.82-.06.08-.02.1v.02q0 .38.09.74"/></mask><path d="M37.59 11.6q.22 1.05.54 2.1c.21.67.5 1.32.77 1.97l.4.83q.15.23.28.47l.2.33 1.05 1.7 1.13 1.85.5.77q.16.26.34.51l.25.38c.1.17.2.39.13.6a1 1 0 0 1-.14.27.6.6 0 0 1-.57.19 1 1 0 0 1-.27-.15l-.57-.42-.65-.41q-.54-.34-1.12-.6c-.45-.15-.9-.29-1.37-.34h-.22l.25.43q.53.89 1.08 1.75l1.06 1.77q.51.86.99 1.75l.52.98.25.47.1.18c.1.2.2.39.2.6a.7.7 0 0 1-.3.6q-.23.14-.5.1c-.17-.02-.31-.13-.45-.23q-.64-.43-1.32-.78l-1.5-.7-1.58-.73-.85-.42-.9-.44a5 5 0 0 0-1.11-.26h-.34l-.12.05.01.02q.16.31.38.59.46.52.99.99.57.52 1.19 1 1.18.97 2.4 1.84a30 30 0 0 0 2.01 1.18q.53.28 1.07.54.45.2.9.37.3.1.62.18.39.07.78.2.23.1.46.25v.88l-.29.09q-.18.04-.37.05-.15.01-.3-.01l-.45-.09a7 7 0 0 1-1-.3q-.46-.17-.92-.38l-.76-.37q-.45-.23-.89-.49-.85-.48-1.66-1.03a42 42 0 0 1-3.25-2.57q-.76-.66-1.41-1.4-.2-.24-.37-.49-.12-.19-.21-.39c-.1-.2-.21-.44-.23-.68q-.02-.3.13-.58c.24-.4.72-.63 1.17-.69.41-.04.86 0 1.26.11q.42.1.83.26.59.25 1.16.56.93.46 1.89.87l1.61.74a129 129 0 0 0-2.45-4.2l-.52-.88-.23-.41c-.15-.3-.31-.58-.36-.9a1 1 0 0 1 .2-.77c.13-.16.32-.31.52-.36q.34-.09.7-.08.36.02.72.09.37.09.73.2.32.1.64.24l.17.07-.85-1.39-1.01-1.64-.47-.8q-.14-.24-.25-.52l-.25-.53q-.22-.47-.4-.95a8 8 0 0 1-.32-.83 22 22 0 0 1-.65-2.75q-.05-.26-.06-.54-.01-.37.1-.73l.14-.23q.1-.14.25-.25c.07-.06.22-.1.31-.12q.2-.05.4-.02.24.02.48.12l-.46.82-.06.08-.02.1v.02q0 .38.09.74Z" fill="#3B1502" stroke="#3B1502" stroke-width="2" mask="url(#f)"/><mask id="g" fill="#fff"><path d="M35.05 84.4h-.03z"/></mask><path d="M35.05 84.4h-.03z" fill="#3B1502"/><path d="m35.05 84.4-.37.93.92-1.76zm-.03 0v-1 2zm.03 0 .37-.93h-.03l-.06-.03s-.14-.05-.31-.05v2a1 1 0 0 1-.32-.05h-.02v-.01zm-.03 0v1H35l-.13-.02a1 1 0 0 1-.39-.15l.56-.83.55-.83a1 1 0 0 0-.57-.18h-.01z" fill="#3B1502" mask="url(#g)"/><path d="M35.02 84.39H35" stroke="#3B1502"/><mask id="h" fill="#fff"><path d="m15.41 140-.51.25q-1.38.7-2.68 1.51-1.25.78-2.38 1.71-.39.34-.7.74-.1.16-.18.34a6 6 0 0 0 2.04.06 12 12 0 0 0 2.42-.83q1-.46 1.97-.93.95-.48 1.88-1 .45-.22.87-.47l.4-.23c.18-.1.37-.25.57-.3a.7.7 0 0 1 .65.13q.2.2.21.46c.06.35-.25.6-.46.83l-.45.52a90 90 0 0 0-2.44 3.23q-.33.5-.64 1.02-.3.5-.52 1.04-.2.56-.29 1.17l.02.54q.04.16.1.28.04.1.1.18l.05.04.1.05q.17.05.35.07l.37-.01q.2-.06.4-.15c.53-.28.99-.67 1.44-1.06q.54-.5 1.07-1.02.61-.6 1.24-1.17a13 13 0 0 0 1.66-1.79l.43-.57q.45-.67.84-1.37.46-.91 1-1.8l1.15-1.79a18 18 0 0 0 1.86-3.56q.1-.33.22-.65l-.47-.14a14 14 0 0 0-2.16-.44l-.72-.09-.78-.07-2.86-.27-2.6-.26q-.87-.04-1.73-.04l-1.92.05c-1.22.05-2.43.13-3.64.32l-.44.1q-.57.11-1.09.34-.47.23-.9.56l-.22.25-.1.2-.04.14v.06l.04.1.08.12.14.13.38.18q.53.17 1.09.23l.42.05q.45.02.93.01c1.46-.04 2.93-.16 4.4-.25q1.02-.07 2.04-.09h1.02l.54.03c.31.02.67 0 .9.24.22.2.33.56.16.84a1 1 0 0 1-.3.33l-.26.13-.23.1-.57.22q-.54.21-1.08.47-1.1.47-2.19.98m13.77-4.73q-.18.13-.4.2l-.02.38q-.04.17-.1.33l-.16.45q-.14.36-.3.7-.6 1.4-1.41 2.67c-.75 1.17-1.54 2.34-2.17 3.59q-.5 1.02-1.17 1.94-.32.46-.66.87-.38.46-.8.88a34 34 0 0 1-1.57 1.5q-.82.83-1.7 1.6c-.39.32-.77.66-1.21.9-.45.25-.95.47-1.47.45a3 3 0 0 1-1.27-.3 2 2 0 0 1-.75-.92q-.18-.46-.2-.97 0-.6.15-1.2c.37-1.5 1.3-2.76 2.18-3.98l.46-.62q-.27.15-.56.28l-.02.02-.56.27h-.01l-.02.01-.02.01h-.02l-.03.02-1.23.6q-.6.28-1.2.5c-.63.22-1.26.45-1.92.54q-.54.06-1.1.04-.45 0-.87-.06c-.5-.06-1.07-.18-1.37-.62-.28-.43-.2-.95-.02-1.4.2-.5.56-.95.96-1.32q.87-.8 1.84-1.47.42-.3.85-.56.45-.3.91-.57.93-.54 1.89-1.03h.02l.56-.28.17-.08 1.28-.59-.51.03-3.42.21c-.78.05-1.57.11-2.34.03q-.34-.02-.67-.06a6 6 0 0 1-1.36-.37 2.3 2.3 0 0 1-1.07-.86 1.8 1.8 0 0 1-.23-1.28q.19-.73.72-1.23.32-.3.7-.52.44-.26.93-.47.45-.17.9-.28 1.13-.24 2.27-.35a33 33 0 0 1 2.19-.16q1.08-.05 2.17-.05 1.19-.01 2.36.11l2.16.23q1.1.12 2.17.2 1.1.09 2.18.24l1.15.2q.53.1 1.02.27.35.09.68.22.25.1.46.29c.26.2.49.5.58.82"/></mask><path d="m15.41 140-.51.25q-1.38.7-2.68 1.51-1.25.78-2.38 1.71-.39.34-.7.74-.1.16-.18.34a6 6 0 0 0 2.04.06 12 12 0 0 0 2.42-.83q1-.46 1.97-.93.95-.48 1.88-1 .45-.22.87-.47l.4-.23c.18-.1.37-.25.57-.3a.7.7 0 0 1 .65.13q.2.2.21.46c.06.35-.25.6-.46.83l-.45.52a90 90 0 0 0-2.44 3.23q-.33.5-.64 1.02-.3.5-.52 1.04-.2.56-.29 1.17l.02.54q.04.16.1.28.04.1.1.18l.05.04.1.05q.17.05.35.07l.37-.01q.2-.06.4-.15c.53-.28.99-.67 1.44-1.06q.54-.5 1.07-1.02.61-.6 1.24-1.17a13 13 0 0 0 1.66-1.79l.43-.57q.45-.67.84-1.37.46-.91 1-1.8l1.15-1.79a18 18 0 0 0 1.86-3.56q.1-.33.22-.65l-.47-.14a14 14 0 0 0-2.16-.44l-.72-.09-.78-.07-2.86-.27-2.6-.26q-.87-.04-1.73-.04l-1.92.05c-1.22.05-2.43.13-3.64.32l-.44.1q-.57.11-1.09.34-.47.23-.9.56l-.22.25-.1.2-.04.14v.06l.04.1.08.12.14.13.38.18q.53.17 1.09.23l.42.05q.45.02.93.01c1.46-.04 2.93-.16 4.4-.25q1.02-.07 2.04-.09h1.02l.54.03c.31.02.67 0 .9.24.22.2.33.56.16.84a1 1 0 0 1-.3.33l-.26.13-.23.1-.57.22q-.54.21-1.08.47-1.1.47-2.19.98Zm13.77-4.73q-.18.13-.4.2l-.02.38q-.04.17-.1.33l-.16.45q-.14.36-.3.7-.6 1.4-1.41 2.67c-.75 1.17-1.54 2.34-2.17 3.59q-.5 1.02-1.17 1.94-.32.46-.66.87-.38.46-.8.88a34 34 0 0 1-1.57 1.5q-.82.83-1.7 1.6c-.39.32-.77.66-1.21.9-.45.25-.95.47-1.47.45a3 3 0 0 1-1.27-.3 2 2 0 0 1-.75-.92q-.18-.46-.2-.97 0-.6.15-1.2c.37-1.5 1.3-2.76 2.18-3.98l.46-.62q-.27.15-.56.28l-.02.02-.56.27h-.01l-.02.01-.02.01h-.02l-.03.02-1.23.6q-.6.28-1.2.5c-.63.22-1.26.45-1.92.54q-.54.06-1.1.04-.45 0-.87-.06c-.5-.06-1.07-.18-1.37-.62-.28-.43-.2-.95-.02-1.4.2-.5.56-.95.96-1.32q.87-.8 1.84-1.47.42-.3.85-.56.45-.3.91-.57.93-.54 1.89-1.03h.02l.56-.28.17-.08 1.28-.59-.51.03-3.42.21c-.78.05-1.57.11-2.34.03q-.34-.02-.67-.06a6 6 0 0 1-1.36-.37 2.3 2.3 0 0 1-1.07-.86 1.8 1.8 0 0 1-.23-1.28q.19-.73.72-1.23.32-.3.7-.52.44-.26.93-.47.45-.17.9-.28 1.13-.24 2.27-.35a33 33 0 0 1 2.19-.16q1.08-.05 2.17-.05 1.19-.01 2.36.11l2.16.23q1.1.12 2.17.2 1.1.09 2.18.24l1.15.2q.53.1 1.02.27.35.09.68.22.25.1.46.29c.26.2.49.5.58.82Z" fill="#3B1502" stroke="#3B1502" stroke-width="2" mask="url(#h)"/><path d="M10.62 57q.26 0 .44.04l.12.04h.01l.26.08.24.1q.4.17.84.49.34.23.61.54.51.57.93 1.19l.27.42q.54.89.88 1.83a3 3 0 0 1 .15.69l-.02.27a2 2 0 0 1-.2-.35l-.06-.14-.11-.38-.13-.38-.13-.32-.14-.29v-.02l-.16-.28q-.54-.98-1.24-1.86l-.02-.02-.22-.23a6 6 0 0 0-.72-.62l-.02-.01-.02-.01-.37-.2-.19-.1-.2-.08h-.01l-.02-.02-.28-.07-.3-.07h-.08l-.35.02h-.02l-.03.01-.15.05-.15.06-.03.01-.03.02q-.14.07-.27.17l-.04.04-.04.04-.09.1-.04.05-.03.05-.04.07-.02.1-.02.09-.01.05v.06q0 .23.03.41v.07l.15.42v.02l.02.02q.28.52.64.95l.01.01c.5.55 1.07.98 1.6 1.37l1.06.77.9.61.36.23.24.15.2.12v.01h.01l.1.09.61-.61a1 1 0 0 1-.18.33l.28.26-.28.28q-.23.06-.49.03a1.4 1.4 0 0 1-.5-.18l-.18-.11-.53-.35-.5-.35h-.01l-.83-.6-.82-.6v-.01l-.3-.23q-.3-.22-.55-.47l-.24-.25-.22-.26a5 5 0 0 1-.4-.52l-.15-.28-.13-.27q-.15-.33-.18-.64l-.01-.12q-.02-.3.04-.56.04-.17.14-.32l.07-.08v-.01q.15-.15.3-.26l.1-.06q.28-.15.43-.19c.22-.04.34-.06.46-.06Z" fill="#3B1502" stroke="#3B1502"/><mask id="i" fill="#fff"/><path d="m15.44 144.33.71.7 1.7-1.7h-2.4zm0 0h-1v2.43l1.7-1.72zm0 0v-1h-1v1zm0 0-.7-.7h-.01zl.72.7zm0 0h1zh-1zm0 0v1zv-1z" fill="#3B1502" mask="url(#i)"/><mask id="j" fill="#fff"><path d="M15.44 144.33h-.02z"/></mask><path d="M15.44 144.33h-.02z" fill="#3B1502"/><path d="m15.44 144.33.9.45L18 141.4l-3.13 2.09zm0 0-.56-.83.02-.01.03-.02.09-.05.1-.04a1 1 0 0 1 .3-.04v2a1 1 0 0 0 .55-.16l.01-.01H16zm-.02 0v1h.02a1 1 0 0 0 .36-.06 1 1 0 0 0 .53-.5zl-.89-.45a1 1 0 0 1 .8-.54h.08z" fill="#3B1502" mask="url(#j)"/><path d="M11.28 90.51h.08q-.2.3-.5.5l-.11.08q-.35.2-.7.44l-.23.16-.83.62-.83.62q-.63.46-1.3.87l-.44.25c-.6.32-1.2.58-1.85.9h-.02l-.1.04-1.05.53q-.43.23-.76.3h-.1l-.28.01-.3-.02a2 2 0 0 1-.93-.36q-.4-.31-.5-.7l-.02-.12-.01-.13q0-.46.23-.93.16-.3.37-.64c.14-.23.22-.36.32-.46q.43-.43.94-.61l.15-.05q.16-.06.38-.1l.4-.13.74-.23q.56-.15 1.13-.28l.39-.07q.8-.17 1.6-.24a18 18 0 0 1 1.54-.06H10c.2.01.25 0 .33.03l.18.05.17-.09q.25-.12.46-.16l.15-.02Zm-2.82.58q-.54.01-1.09.05l-.36.03-.73.1-.72.11h-.01q-.66.14-1.31.33l-.43.13-.41.13-.4.11q-.35.08-.71.23l-.03.01-.02.02-.4.27-.02.01-.01.02-.12.12-.1.12-.01.02a7 7 0 0 0-.46.76l-.13.28v.03l-.02.02-.04.19-.04.18v.36l.1.13.06.09.03.04.05.04.14.13.03.02.02.01q.15.1.32.16h.02l.02.02.43.09h.43l.05-.01.06-.02q.2-.05.39-.14l.34-.16 1.37-.68 1.22-.58q.75-.4 1.44-.86h.01l.13-.1q.63-.44 1.22-.9l1.22-.93zm58.08-18.05a2 2 0 0 1 .93.12l.27.11 1.22.53.56.26.54.27.75.38.35.17.3.16h.01l1.1.64 1.28.79 1.17.7 1.17.67.56.3.26.13.23.14q.39.25.58.63a2 2 0 0 1-.76-.01l-.13-.04h-.01l-.13-.07-.2-.1-.98-.54-.97-.55-.91-.54-.92-.56-.39-.24-.42-.25-.96-.55h-.02l-1.06-.54-1.07-.51-.52-.23-.51-.23-.57-.24-.17-.07a1 1 0 0 1-.36-.2 2 2 0 0 1-.42-.48l.05-.02zm4.61-6.34q.12 0 .33.06.15.03.23.07l.34.18.34.2 1.1.65q.6.37 1.2.7l1.22.7 2.16 1.2v-.01l.81.44c.16.08.22.1.3.16.27.2.5.45.6.71a2 2 0 0 1-.7-.06l-.06-.01-.14-.06-.2-.1-.35-.2-1.15-.61-1.32-.73-1.31-.74-1.05-.61-1.06-.63-.59-.35-.36-.21-.08-.07-.13-.12q-.26-.25-.38-.54l.08-.01zm3.02-7.46q.3 0 .63.12l.37.13.38.15q.66.25 1.31.47l.63.22q.36.11.64.24l.18.09q.38.2.57.52a1.7 1.7 0 0 1-.97.09l-.3-.1-.65-.21-1.45-.52-.32-.12-.33-.13q-.3-.1-.48-.2l-.13-.06-.15-.11a2 2 0 0 1-.31-.35l-.06-.08-.04-.08q.2-.06.48-.07Zm4.29-4.99q.27.03.57.16l.15.08.52.36.28.2.27.2h.01l.68.49.45.3.12.1q.32.27.49.6-.3 0-.57-.13l-.16-.1q-.14-.06-.27-.16l-.3-.22-.35-.24-.34-.24c-.41-.29-.77-.5-1.08-.76l-.13-.12q-.14-.14-.24-.3l-.07-.13zm6.45-6.24q.16.05.34.14h.01q.24.13.42.3l.13.13q.25.3.51.58.45.49.92.92h.01l.01.02.39.3.39.3.3.24q.2.17.39.44l.12.19q-.32.05-.7-.1h.01a3 3 0 0 1-.51-.35l-.3-.21q-.63-.51-1.2-1.07l-.53-.54-.22-.23-.08-.09-.07-.1a2 2 0 0 1-.32-.64l-.01-.1zm7.45-1.72.16.09.17.13.19.17.1.12.12.17.26.35.25.32.14.19.1.14.1.26.08.3-.27-.09q-.27-.14-.44-.28l-.1-.1-.35-.45-.18-.24q-.22-.3-.32-.57l-.04-.12a2 2 0 0 1-.05-.42q.04 0 .08.03ZM58.1 77.54l.62.01.56.02h.33l.26.01q.48.06.83.3l-.1.05-.16.08q-.25.09-.47.12h-.4l-.26-.01-.78-.02-.77-.02h-.46l-.42.02-.73.02-.78.03-.8.04h-.02l-.86.07-.88.08-1.96.2-.94.1-.94.12-.52.06h-.37l-.2-.06-.24-.09q.1-.1.23-.19l.1-.05q.2-.12.4-.16l.25-.04.3-.04q.51-.07 1.04-.12l1.05-.11 2.38-.22q1.44-.1 2.89-.17.9-.05 1.83-.03Zm-7.64-14.46c.22.04.42.1.69.17l1.37.38 2.68.72 1.27.37 1.27.4q1.22.4 2.44.9.57.24 1.13.5c.33.16.61.42.76.7a2 2 0 0 1-.9-.05l-.47-.22-.4-.17-.38-.16-.77-.3-.89-.32-.66-.24-.87-.27-.88-.27c-1.32-.37-2.69-.73-4.02-1.09l-1.32-.36q-.5-.15-.83-.6l.06-.01.12-.04q.32-.07.6-.04Zm4.73-6.81q.28.03.43.1l.16.08.14.07 1.36.77.01.01h.01q1.26.63 2.53 1.2l.85.37.89.37.88.35c.33.13.56.22.75.35l.07.06q.16.15.27.28-.3.03-.65-.05-.28-.07-.67-.25l-.41-.16-.58-.23-.57-.24-1.11-.48-1.1-.5q-.84-.4-1.66-.83l-.55-.3h-.01l-.48-.27-.04-.03q-.15-.09-.27-.19l-.09-.08-.09-.1q-.12-.14-.2-.32zm5.21-5.15q.3-.03.6.06.1.02.2.07l.22.11.6.29q1 .5 1.97 1.06L66 53.86h.01l.01.01q.81.44 1.73.8l.27.1c.3.09.5.13.69.2l.18.1.12.07.08.05.07.06h-.02l-.17.04q-.35.05-.77-.08-.5-.14-.97-.34l-.1-.04q-.69-.3-1.38-.68l-.5-.26-.65-.37-.67-.38-.72-.4-.71-.39h-.01l-1.35-.66-.3-.15-.05-.04-.16-.13-.13-.13z" fill="#3B1502" stroke="#3B1502"/><mask id="k" fill="#fff"><path d="m62.17 51.16.08.04z"/></mask><path d="m62.17 51.16.08.04z" fill="#3B1502"/><path d="M62.17 51.16h-1v.58l.5.29zm.08.04v1l.35-1.93zm0 0v1h3.76l-3.26-1.86zm-.08-.04.45-.9-1.45-.72v1.62zm0 0-.5.87c.02.01.1.07.23.1l.35-.93.35-.93.06.02zm.08.04v1zv-1zm0 0 .5-.86-.13-.08-.45.9-.45.9h.03v.01zm-.08-.04h-1zh1z" fill="#3B1502" mask="url(#k)"/><path d="m67.67 47.16.2.08q.21.1.36.22l.3.23c.5.37 1.03.77 1.6 1.11l.75.47.79.46c.3.18.52.28.7.44q.15.13.26.27a2 2 0 0 1-.52-.1l-.14-.08-.3-.17-.25-.15-.8-.47-.37-.22-.34-.2-.8-.55-.8-.55-.18-.13-.15-.13-.1-.08-.15-.18-.06-.11-.09-.17v-.01zm6.54-3.64.27.24.07.07q.15.2.32.48l.01.02q.34.5.79.98l.17.17.17.17.16.15.09.1.2.34.01.01.08.2-.2-.04-.07-.02-.14-.06-.24-.13-.1-.08-.18-.18a10 10 0 0 1-.7-.75l-.39-.54-.02-.04q-.15-.23-.23-.4l-.05-.12-.03-.14q-.05-.23-.02-.44zm5.04-2.87q.2.05.44.2l.16.1q.33.2.53.47a1.6 1.6 0 0 1-1.2-.79zM59.14 86.96q.46.01.81.23l-.23.16q-.25.15-.49.18l-.32.03-.8.07-.79.09-.73.09-.74.1q-.72.14-1.36.3l-.14.04-1.11.3-1.22.34-2.56.75-.59.17-.4.12-.1.01q-.42.03-.74-.06l.03-.04.11-.13q.22-.24.52-.37l.22-.08.78-.23.79-.23 1.35-.38 1.36-.39 1.29-.34 1.3-.3h.01q.12-.04.25-.05l.28-.05.51-.08 1.3-.14.44-.04.45-.03zm.54 4.94a2 2 0 0 1 .55.01l-.06.05q-.2.14-.37.2l-.12.05-.48.12-1.47.38-1.5.42-.27.08v.02l-.88.28-.02.01-1.52.59-.2.08-.15.04q-.18.04-.41.04h-.07l.03-.04q.1-.12.26-.22l.1-.06q.1-.06.3-.14l1.03-.4q1.02-.36 2.05-.66l1.13-.3 1.15-.31.29-.08.3-.08h.01c.2-.05.23-.07.32-.08Z" fill="#3B1502" stroke="#3B1502"/><mask id="l" fill="#fff"><path d="m72.28 90.63-.05.03q.03 0 .05-.03"/></mask><path d="m72.28 90.63-.05.03q.03 0 .05-.03" fill="#3B1502"/><path d="m72.28 90.63.6.8 2.4-1.8h-3zm0 0 .44.9.55-.28v-.62zm0 0v-1h-.04l-.2.03a1 1 0 0 0-.77.97zh1a1 1 0 0 1-.96 1h-.03zm0 0-.46-.89-.2.13.61.8.6.8.04-.04-.15.1zm-.05.03.6.8-.02.02.07-.05-.6-.8-.6-.8.02-.01-.02.01-.05.04z" fill="#3B1502" mask="url(#l)"/><path d="M71.87 90.05h.34l-.03.03-.18.13q-.17.12-.33.17l-.33.12-.83.32c-.32.14-.55.24-.78.28h-.1l-.15.01q.11-.12.27-.24l.12-.08.19-.1.27-.1.43-.17.48-.18c.3-.1.45-.18.63-.2Zm-3.6 13.75q.23 0 .44.05-.13.15-.28.24l-.12.06q-.17.09-.35.13l-.4.12-.35.09-.34.09-.32.09-.3.08h-.01l-3.03.82-1.72.47-.3.08-.29.08q-.36.1-.62.14l-.18.01q-.23 0-.43-.05.18-.18.41-.3.13-.07.27-.11l.53-.14.3-.08.3-.08 1.71-.47 3.03-.82h.01l.62-.17.35-.09.33-.09q.34-.1.58-.14zm-.41 7.79.23.05.09.03q-.12.2-.31.37l-.13.1q-.22.15-.4.21l-.09.03-.77.27q-.98.34-1.98.72l-.66.27-.72.32-.71.33-.57.3v-.02l-.74.4q-.6.3-1.18.66l-1.16.67-1.28.76-1.26.77-.5.32-.16.1-.25.16-.1.04q-.39.15-.76.16l-.1-.01v-.03q.07-.23.18-.38l.07-.1.15-.17.1-.09q.08-.07.19-.13l.23-.15.48-.3 1.22-.76 1.23-.73c1.44-.84 2.85-1.67 4.33-2.35l.63-.28q1.27-.53 2.58-.99l1.47-.51q.3-.09.65-.04Zm-8.26 14.69v.01l-1.04 1.21-.26.3q-.1.12-.27.22l-.1.06q-.23.12-.43.17v-.04q0-.23.06-.44l.05-.13q.12-.27.2-.37l.25-.3.45-.53q.98-1.14 2.01-2.2.44-.45.88-.85l.39-.36.39-.35.2-.2.18-.14a75 75 0 0 1 2.17-1.72l1.05-.77q.39-.27.84-.31l.13-.01h.05q-.05.21-.16.39l-.07.1v.01l-.24.28-.08.05-.12.1-.11.08-.39.28-.54.4-.56.44-1.29 1.03-.45.39-.41.38c-.29.26-.64.55-.94.86l-.8.81-.27.29-.39.43zm10.22-2.3a2 2 0 0 1-.15.39q-.09.19-.22.35l-.12.14-.27.28-.28.28-.44.47-.43.47-.78.85-.77.84-1.75 1.87-.45.47q-.17.2-.28.3l-.08.06q-.3.21-.59.3 0-.16.06-.28l.03-.1.14-.28c.06-.1.13-.18.27-.33l.36-.39.46-.49.47-.49.82-.86.81-.88 1.8-1.95-.36-.34.37.34q.17-.2.39-.4c.22-.23.37-.38.57-.48q.21-.1.42-.14Zm5.57 3.2a2 2 0 0 1-.44.64l-.31.32-.4.42q-.87.87-1.72 1.8l.37.33-.37-.34-.62.73-.19.23-.2.27-.16.22-.15.23-.34.5-.32.51q-.14.21-.24.43l-.22.41v.01q-.1.19-.16.25l.38.33-.38-.33-.13.15-.12.12-.08.06v-.14q0-.29.19-.64l.1-.18.1-.2c.1-.16.14-.25.2-.37q.42-.66.84-1.25l.3-.4.82-.95.8-.84.74-.77.76-.77c.26-.27.45-.47.67-.63l.1-.06z" fill="#3B1502" stroke="#3B1502"/><mask id="m" fill="#fff"/><path d="M69.33 133.47h-1zh1zm0 0h1zh-1z" fill="#3B1502" mask="url(#m)"/><path d="M81.18 105.05q-.03.26-.13.5l-.1.2c-.06.12-.15.22-.27.38l-.12.14v.02l-.1.15-.45.65-.11.14-.13.2-.62 1.02-1.02 1.8-.98 1.8v.02l-.15.3-.15.29-.2.43-.09.19-.09.15q-.2.33-.51.53l-.01-.05-.01-.21q0-.2.02-.37l.04-.16.12-.28.13-.28.18-.35.48-.95.33-.61q.6-1.11 1.24-2.23.3-.53.66-1.1.28-.45.6-.9c.27-.38.49-.7.75-1q.3-.3.69-.42Zm5.56 6.4.01.18v.19q-.02.16-.06.3l-.05.14-.62 1.27q-.55 1.13-1.14 2.27v.01q-.24.49-.47 1.02c-.23.58-.52 1.22-.71 1.9l-.08.29-.15.66-.06.2-.1.22q-.12.2-.27.36v-.01l-.05-.15-.02-.1-.02-.1-.02-.26v-.13l.1-.5.11-.47q.21-.77.53-1.53l.3-.75h.01l.35-.76.35-.7.38-.72h.01l.4-.8.38-.8.12-.25.12-.26q.1-.2.23-.36l.1-.12q.14-.16.32-.27zm6.61 2.81q0 .23-.07.44l-.05.14c-.15.38-.37.72-.62 1.15l-.01.01v.02q-.4.77-.77 1.59l-.24.54-.27.64-.2.52-.09.16q-.15.25-.37.44l-.03-.1-.03-.15q-.04-.28 0-.43.02-.15.07-.3l.11-.32q.16-.44.36-.85l.4-.87q.42-.92.94-1.82c.19-.31.3-.5.49-.64q.2-.15.37-.22zm-9.55 13.37a2 2 0 0 1 .03.53c-.03.32-.17.6-.35 1.03l-.9 2.17-.22.59-.21.58v.01l-.39 1.16-.15.55c-.05.18-.1.32-.2.5q-.13.23-.32.42-.09-.2-.12-.49v-.38l.07-.27.15-.55a31 31 0 0 1 .8-2.28q.42-1.08.9-2.17l.1-.26.11-.25q.1-.25.2-.4l.06-.08q.23-.27.44-.4Zm7.32 3.97.01.37q-.02.23-.09.43l-.05.13-.05.1-.06.15-.3.75-.29.78-.3.9-.3.9v.01q-.22.77-.41 1.53v.03q-.16.72-.27 1.5a6 6 0 0 1-.16.77l-.1.2h-.01l-.12.19a1.4 1.4 0 0 1-.21-.83q.03-.46.11-.93l.06-.3a29 29 0 0 1 .61-2.44l.61-1.82.22-.6q.22-.59.46-1.1.25-.48.64-.71Zm8.82-8.46v.13l-.07.37-.04.1-.12.24-.08.15-.6 1.13v.02l-.65 1.43-.64 1.44-.6 1.42-.15.4-.15.4c-.11.29-.17.49-.28.7v.01l-.04.08-.08.12-.1.13-.14.14-.03.03v-.02l-.03-.14-.01-.2q-.01-.24.05-.44l.1-.28.1-.26.21-.57.22-.54.5-1.18.52-1.17q.48-1.1 1.02-2.16l.38-.74.14-.26q.24-.35.57-.54zm2 7.54q.06.18.05.38 0 .28-.09.57l-.07.2-.23.63-.24.65q-.22.6-.43 1.28l-.2.67-.2.7-.53 2.03-.17.68-.15.64-.06.34-.03.14-.04.11q-.15.43-.44.7l-.03-.06-.06-.16a2 2 0 0 1-.05-.84l.09-.37v-.01l.27-1.2.5-1.9.18-.63q.38-1.35.84-2.62l.3-.77q.08-.26.16-.41.25-.51.63-.75Zm4.5 2.18q.1.16.17.39l.04.13q.03.18.03.39v.34l-.03.37-.14 2.1-.08 1.16-.07 1.16c-.03.4-.03.68-.1.94l-.03.12q-.1.26-.25.47-.1-.17-.2-.4l-.03-.14c-.08-.28-.03-.59 0-1.04l.08-1.16.08-1.15.08-1.06.07-1.06c.02-.47.01-.8.13-1.1q.1-.28.25-.46Zm5.45 2.24.19.17.08.1q.22.26.33.62l.08.25.07.27c.1.45.21.72.21 1.03v.1q-.03.3-.12.52l-.2-.16-.06-.07-.11-.15q-.15-.21-.24-.5l-.08-.27-.07-.3-.09-.34a3 3 0 0 1-.1-.68v-.13q.03-.25.1-.45Zm6.14-17.5q.07.13.1.26l.03.11q.04.2.03.46v.26l-.02.3v1.74q0 1.77.1 3.56l-.01.01v.14l.04.48.04.37q.03.18.02.3v.09a2 2 0 0 1-.1.53l-.02-.03-.41.28.4-.28-.09-.15q-.08-.14-.12-.27l-.04-.13-.03-.24-.03-.29-.04-.61-.03-.63-.05-1.1-.02-1.09v-.64l-.01-.64v-.56l.01-.57v-.2l.01-.18v-.33l.02-.27q.06-.38.22-.67Zm7.34-.79.12.2.1.2q.1.22.11.47l.03.19.09.78.17 1.25q.07.54.18 1.07l.2 1.05.23 1.04.24 1.01c.08.33.14.56.14.8l-.01.16q-.04.25-.11.43a1 1 0 0 1-.23-.24l-.07-.09q-.14-.2-.2-.39l-.05-.13-.12-.48-.36-1.53-.1-.5-.21-1.06q-.1-.51-.18-1.03l-.2-1.47-.04-.4-.03-.4v-.18l.04-.2v-.02l.03-.1.03-.07q.1-.22.2-.36Zm5.96-5.01q.15.12.28.3l.08.12q.08.13.13.28l.13.38.04.14.03.12.01.02.42 1.2.44 1.19q.44 1.12.9 2.21.48 1.19 1.02 2.36l.04.1.39.85.08.26a2 2 0 0 1 .06.62l-.16-.1-.18-.15a2 2 0 0 1-.4-.59l-.12-.27-.24-.52q-.36-.78-.68-1.59-.5-1.2-.97-2.38l-.47-1.28-.46-1.28-.2-.6-.1-.27-.08-.28-.03-.17a2 2 0 0 1 .04-.67Zm5.2-2.04q.23.15.4.39t.32.55l.33.66.45.83.16.28.7 1.17v.01h.02l.65 1q.5.73 1.05 1.44l1.21 1.5.57.65.57.63q.25.26.39.48l.07.16.1.33q-.15-.03-.29-.1a2 2 0 0 1-.52-.38l-.15-.15-.16-.17-.61-.7-.6-.71q-.58-.7-1.12-1.4l-.34-.48-.38-.55-.37-.55-.34-.5-.3-.5-.64-1.07-.3-.54-.29-.54-.36-.7-.16-.36-.03-.1q-.06-.3-.03-.58Zm3.03 4.89v-.01Zm4.04-6.17q.21.15.35.3l.07.1.8 1.18.29.38q.36.48.78.92l.28.28.7.68.97.88.93.83.98.84.25.21.26.22q.27.21.45.38l.11.11q.21.25.3.53a1 1 0 0 1-.36-.1l-.22.45.22-.45h-.01l-.2-.1-.09-.05-.07-.06-.36-.3-1.77-1.54-1.34-1.21-.43-.41-.78-.75-.23-.25q-.69-.79-1.3-1.7l-.13-.2-.14-.2v-.01l-.16-.22-.1-.17-.08-.17-.05-.14v-.01l-.02-.09-.02-.23zm4.2 4.67-.04-.05.22-.14zm2.65-8.31q.25.03.52.15l.14.07c.2.1.34.25.62.5l.76.68.75.69.42.36.43.37.1.11q.24.28.34.6-.22-.01-.44-.1l-.07-.02a2 2 0 0 1-.46-.28l-.18-.16-.73-.66-.74-.68-.41-.36-.3-.26-.22-.19-.15-.15q-.27-.32-.38-.67Zm-.38.03Zm3.14-4.19.2.07q.18.06.31.17l.1.07.15.14.15.13.41.34.43.33.41.26.4.23a2 2 0 0 1 .4.27l.14.14.1.11q-.25.04-.51 0l-.14-.05-.15-.06-.16-.08-.33-.19-.3-.19-.3-.2-.45-.38-.48-.4-.13-.14a2 2 0 0 1-.37-.6zm2.58-5.5q.11 0 .22.03l.21.05.15.05.17.09.17.1.7.41.73.4h.01l.36.19.53.27q.26.11.38.19l.07.06q.24.2.37.4-.31.02-.62-.08l-.35-.17-.35-.18h-.01l-.35-.18-.17-.1a30 30 0 0 1-1.53-.85q-.27-.15-.43-.32l-.1-.1zm2.7 1.3Zm-36.34 37.15q.06.12.1.27l.03.1c.07.29.05.58.04.97q-.02.92 0 1.83l.01.02.06.71.08.73.03.43q0 .2-.03.37l-.03.12-.04.11-.05-.05-.12-.17-.1-.17-.06-.2-.04-.18-.03-.24-.06-.45a17 17 0 0 1-.1-2.25l.01-.9v-.24l.02-.16a2 2 0 0 1 .28-.65Zm6.27-4.11.08.2q.08.22.09.38v.57l.05.65q0 .2.04.37l.04.34q.07.54.17 1.08l.07.37.08.36.08.37.06.27.07.23.36 1.2v.01l.48 1.64.14.55.3 1.22.3 1.2.15.63.05.2.04.16.03.14.01.16v.1q0 .21-.07.43a1.6 1.6 0 0 1-.47-.78l-.1-.39-.15-.65-.6-2.47q-.3-1.15-.64-2.29-.27-.83-.47-1.66l-.1-.55-.15-.84-.04-.28-.1-.81-.02-.26-.02-.3c-.03-.53-.07-.91.05-1.27q.06-.2.16-.34zm4.21 1.3.06.2v.01l.05.21.01.22.02.4v.02q.04.56.16 1.08l.08.36.11.39.1.39.36 1.24.35 1.14.36 1.12v.01l.31.91h-.02l.26.68.16.42q.1.29.1.58v.12l-.18-.2-.07-.11q-.08-.13-.16-.36l-.16-.43v-.01l-.36-1.02a66 66 0 0 1-.95-3.07l-.27-.98q-.24-.8-.38-1.54l-.05-.5-.03-.52v-.29l.02-.16.04-.15.07-.18zm4.14-2.39.08.18q.05.14.07.25l.04.26q.06.63.2 1.24.21.98.49 1.92l.1-.02-.1.04c.15.42.3.9.5 1.34q.22.52.49 1.05l.18.35.55.95h-.02l.3.47q.17.28.25.52l.04.17.01.07-.06-.03-.16-.12-.13-.12-.07-.08-.06-.08-.14-.23-.4-.63-.11-.2c-.17-.32-.32-.56-.45-.85-.3-.66-.6-1.3-.8-1.97l-.18-.54-.15-.53-.27-1.09-.12-.53-.05-.26-.03-.25-.07-.65v-.02l-.01-.1v-.08l-.5-.04.5.04v-.01q.01-.23.08-.43Z" fill="#3B1502" stroke="#3B1502"/><mask id="n" fill="#fff"><path d="m148.06 134.29.02.05z"/></mask><path d="m148.06 134.29.02.05z" fill="#3B1502"/><path d="m148.06 134.29.95-.32-1.95.31zm.02.06-.9.44 1.83-.81zm-.02-.06h-1v.07a1 1 0 0 0 .11.38l.9-.44.9-.45a1 1 0 0 1 .09.36v.07zm0 .01-.89.44-.04-.08v-.02.01l.01.03.05.11.9-.44.89-.45.04.09v.02-.01l-.01-.04-.05-.1zm.02.05.93-.37v.01-.02l-.95.31-.95.32.04.12z" fill="#3B1502" mask="url(#n)"/><path d="m142.83 126.11.19.27.04.08.06.17v.05l.04.08v.03l.23.66.02.05.01.06c.45 1.26.91 2.61 1.66 3.81v.01l.01.01q.32.46.68.88l.23.28q.42.48.9.97h.02v.01l.27.25.06.08q.12.15.2.3l-.18-.04-.06-.03-.18-.08-.07-.04v-.01l-.29-.24-.54-.56-.54-.62a9 9 0 0 1-1.19-1.77l-.13-.28-.25-.57-.25-.6-.16-.42-.15-.44-.36-1.05-.22-.64v-.01l-.04-.12-.01-.08-.02-.15v-.3zm.57 1.38v-.01l.08-.02z" fill="#3B1502" stroke="#3B1502"/><mask id="o" fill="#fff"><path d="m143.6 126.53.01.01-.04-.13.03.1z"/></mask><path d="m143.6 126.53.01.01-.04-.13.03.1z" fill="#3B1502"/><path d="M143.6 126.53h-1v.16l.06.15zm.01.01-.9.45 1.85-.76zm0-.03h1v-.17l-.06-.15zm0 .02-.95.31v.02l.01.02.05.11zl.89-.44.04.1v.01zm0 .01.95-.31c0-.04.01.03 0 0q0-.02 0 0c-.01-.06.02.04 0-.01-.01-.04.01.04 0 0 0-.03 0 .02 0 0-.02-.06.02.05 0 0s.01.03 0-.01q0-.02 0 0c-.01-.02 0 .01 0 0v-.01c-.02-.05 0 .04 0 0-.01-.02 0 .01 0 0-.02-.03 0 .02 0 0-.03-.08.01.06-.01-.01 0-.03 0 .02 0 0-.01-.04.01.03 0 0-.02-.05.01.03 0-.01-.02-.05.01.04 0 0q0-.02 0 0 0-.01 0 0c-.02-.06.01.04 0 0v-.01c-.02-.05 0 .04 0 0-.02-.03 0 .02 0 0-.02-.04 0 .03 0 0-.02-.04 0 .02 0 0-.02-.03 0 .01 0-.01-.02-.04 0 .04 0 0h-.01c-.02-.05.02.05 0 0 0-.03 0 .02 0 0-.02-.05.02.05 0 0-.01-.04 0 .03 0 0-.02-.05.01.03 0 0-.02-.05.01.03 0-.01q0-.02 0 0c-.01-.03 0 0 0 0v-.01c-.01-.02 0 .02 0 0-.01-.03 0 .03 0 0-.02-.06.01.05 0 0-.02-.05 0 .03-.01-.01 0-.03 0 .02 0 0-.02-.05.02.05 0 0-.01-.04.01.03 0 0v-.01c0-.02 0 .02 0 0-.01-.02 0 .02 0 0q0-.02 0 0c-.03-.07.02.06 0 0-.01-.03 0 .02 0 0-.02-.05 0 .03 0 0-.02-.06.01.04 0 0v-.01c-.02-.03 0 .01 0 0v-.01h-.01c0-.02 0 .01 0 0l-.95.31-.95.31v.01c.03.07-.02-.06 0 0s-.02-.06 0 0 0-.03 0 0c.02.06-.01-.05 0 0 .02.05 0-.03 0 0 .02.07-.01-.05 0 .01.02.03 0-.03 0 0 .03.06-.01-.06 0 0 .02.03 0-.02 0 0q0 .02 0 0c.02.03 0-.02 0 0 .02.04 0-.02 0 .01.03.06-.01-.06.01 0 0 .02 0-.02 0 0s0-.01 0 0c.02.06-.02-.05 0 0 .01.05-.01-.03 0 0 .03.08-.02-.06 0 0v.01c.01.03 0-.03 0 0 .02.04 0-.04 0 0 .01.02 0-.02 0 0 .02.05-.01-.04 0 0q0 .02 0 0 0 .01 0 0v.01c.03.08-.02-.07 0 0 .02.03 0-.02 0 0 .02.03 0-.02 0 0 .02.03 0-.01 0 0 .02.04 0-.02 0 0v.01c.03.05 0-.05.01 0 0 .02 0-.01 0 0 .01.03 0-.02 0 0 .02.06-.02-.05 0 0 .01.04 0-.02 0 0v.01c.01.03 0-.03 0 0 .02.05-.01-.04 0 0 .02.06-.01-.05 0 0 .02.06-.01-.04 0 0s0-.02 0 0v.01c.02.04 0-.04 0 0 .03.07-.02-.06 0 0 .01.02 0-.01 0 0v.01c.02.02 0-.02 0 0 .02.02 0-.02.01 0 .02.07-.02-.06 0 0q0 .01 0 0c.01.04 0-.02 0 0v.01c.02.05-.02-.05 0 0 0 .02 0-.02 0 0 .02.05-.01-.05 0 0 .01.03 0-.02 0 0 .02.06-.01-.04 0 .01.02.04 0-.03 0 0 .03.06 0-.04 0 0q0 .02 0 0c.01.03 0 0 0 0v.01h.01q0 .01 0 0c.02.06-.02-.05 0 0v.01c0 .02 0-.01 0 0 .03.07-.02-.06 0 0zm-.04-.13-.95.31.02.07.01.03.95-.31.95-.32-.02-.06-.01-.03zm.03.1h-1l.02.17.01.06v.03l.02.03v.03-.05l-.02-.03v-.05l-.02-.08v-.1h2l-.04-.27v-.02l-.01-.02v-.01.05l.02.03v.05l.02.07v.1zm0 .01h-1 2zh-1 2zm0 0h-1zh1z" fill="#3B1502" mask="url(#o)"/><mask id="p" fill="#fff"/><path d="M143.62 126.55h1zh-1zm0 0h-1zh1z" fill="#3B1502" mask="url(#p)"/><mask id="q" fill="#fff"><path d="M143.64 126.63q0-.04-.03-.08v.01z"/></mask><path d="M143.64 126.63q0-.04-.03-.08v.01z" fill="#3B1502"/><path d="m143.64 126.63-.9.45 1.87-.69zm-.03-.08.92-.4-1.92.4zm0 .01.96-.31-.08-.23-.16-.16zm.03.07.97-.24-.08-.23-.92.4-.92.38v.01l-.02-.08zm-.03-.08h-1c0 .02-.01.4.3.72l.7-.7.72-.71q.19.2.25.45c.04.14.03.26.03.24zm0 .01-.94.32.01.04q.01.06.07.16l.9-.45.89-.44.02.05.01.03v-.02z" fill="#3B1502" mask="url(#q)"/><path d="m148.25 122.9.16.1.08.07.15.14.1.1.28.4q.49.68 1.05 1.34.55.64 1.14 1.24c.23.25.39.42.5.61l.03.09.07.2-.14-.06q-.2-.09-.28-.15l-.06-.04-.21-.2-.22-.23-.84-.9-.27-.31-.27-.33-.25-.32-.5-.68-.2-.26-.15-.24-.06-.13-.07-.19zm4.65-2.6.15.13a2 2 0 0 1 .34.4l.08.12.12.2.13.18v.01l.01.01.62.8.32.37v.02l.34.35c.26.26.46.44.6.66l.06.1q.07.11.12.24-.4-.09-.74-.41l-.78-.83-.25-.29c-.35-.42-.64-.87-.96-1.37l-.07-.13-.07-.2-.03-.12-.02-.1v-.15zm4.52-4.22q.2.1.37.27l.12.12.34.38.35.38.4.42.09-.08-.08.08c.14.14.23.21.3.3l.07.08q.13.17.22.36l-.23-.12-.08-.06-.22-.2-.21-.22-.44-.46-.34-.36-.34-.38-.1-.12q-.15-.18-.22-.39Zm2.31-5.2q.12 0 .23.1l.06.05q.1.1.1.35 0 .13-.14.25l-.24.11h-.07a.4.4 0 0 1-.23-.08l-.06-.06-.05-.06a1 1 0 0 1-.05-.3q0-.11.13-.24l.24-.11zm4.36-4.87q.16.05.32.14l.1.07h.01l.34.28.36.34v.01l.56.48.73.55q.32.22.5.4l.12.15.11.18a2 2 0 0 1-.5-.14l-.12-.08-.27-.18-.27-.2-.28-.2-.25-.2-.31-.28-.31-.28-.3-.26-.12-.1-.11-.12-.1-.11q-.14-.22-.21-.45Zm-.51-.05Zm-25.42 38.3.16.1.12.09.13.11.12.14.14.2q.14.16.2.3.1.14.15.32l.03.12.02.1-.16-.08q-.22-.11-.4-.33l-.12-.16-.19-.24-.06-.1-.05-.1-.05-.13-.05-.16-.03-.2zm4.26-1.94q.12.06.24.17l.05.04q.12.12.2.32l.05.14v.05l-.02-.01-.1-.06-.17-.14-.06-.08-.07-.1q-.09-.18-.12-.33Z" fill="#3B1502" stroke="#3B1502"/></svg>