<svg width="65" height="65" viewBox="0 0 65 65" fill="none" xmlns="http://www.w3.org/2000/svg">
<path d="M14.2008 50.7252C11.0222 46.6101 8.68706 42.1731 7.98346 37.03C7.75778 35.3803 7.4645 33.7007 7.87313 32.0225C8.00281 31.4898 7.65636 31.2337 7.2741 30.98C5.90421 30.071 4.71486 28.985 3.89494 27.5343C3.42774 26.7077 3.26838 25.8712 3.55241 24.9319C3.76905 24.2155 4.01505 23.5155 4.27262 22.8133C5.02993 20.7485 6.61793 19.9115 8.65841 20.0113C10.2468 20.089 11.2826 19.6754 12.1817 18.26C13.7167 15.8434 15.4893 13.591 17.9233 11.9261C21.4884 9.48763 25.3579 7.86022 29.6365 7.23968C31.2411 7.00695 32.8582 6.85315 34.4843 6.85503C35.284 6.85595 35.696 6.24996 36.1426 5.75466C37.0882 4.7058 38.0829 3.73882 39.2961 2.98308C41.5518 1.57789 43.248 1.91957 45.4992 3.32326C46.5581 3.98358 46.7207 5.22035 46.9153 6.36664C47.0764 7.31504 47.0903 8.28509 47.3982 9.21313C47.6142 9.8643 47.9823 10.3634 48.5422 10.7589C53.6007 14.3328 57.0315 19.2072 59.3417 24.8299C60.3779 27.3518 60.6209 30.1544 60.4266 32.9217C60.3521 33.983 60.7148 34.7013 61.6503 35.2227C62.4136 35.6482 63.0798 36.2341 63.6854 36.868C65.2948 38.5526 65.2147 40.5156 64.5659 42.5475C63.8636 44.747 62.0396 45.4029 60.0211 45.7668C59.6221 45.8387 59.2017 45.9853 58.8195 45.9235C57.3964 45.6933 56.7468 46.5116 56.0317 47.5745C51.7887 53.8804 45.8296 57.6204 38.3768 59.0172C37.0884 59.2587 35.7606 59.4078 34.4563 59.2451C33.0602 59.071 32.1557 59.6833 31.3444 60.7001C30.6247 61.6019 29.7816 62.3889 28.8766 63.123C27.0722 64.5865 25.241 64.0713 23.4163 63.2795C21.7541 62.5582 21.0113 61.148 20.8901 59.4197C20.8382 58.6809 20.7667 57.9372 20.8121 57.1819C20.8528 56.5063 20.6483 55.8906 19.9188 55.4833C17.7427 54.2681 15.946 52.5732 14.2008 50.7252ZM46.2876 10.7699C43.5008 9.35944 40.5286 8.54784 37.4531 8.09545C34.6759 7.68691 31.9025 7.86819 29.1504 8.32426C25.9122 8.86089 22.8189 9.89039 20.0858 11.7126C15.0141 15.0941 11.6354 19.7706 9.83462 25.5881C8.32645 30.4603 8.27246 35.3711 9.75573 40.2177C11.7221 46.6428 15.258 51.9223 21.4356 55.1211C26.487 57.7368 31.8497 58.8913 37.4749 58.1301C43.7324 57.2835 49.0556 54.4445 53.1727 49.6144C56.1257 46.1501 58.3155 42.2718 59.0673 37.6826C59.3674 35.8505 59.2501 34.0131 59.4185 32.1895C59.5702 30.5474 59.3469 28.9609 59.0159 27.3932C58.3333 24.1598 56.726 21.3207 54.8158 18.6803C52.5378 15.5318 50.0705 12.5348 46.2876 10.7699ZM21.9406 59.3908C22.2772 62.3475 25.7653 63.9482 28.1928 62.2887C29.4199 61.4498 30.3056 60.3031 31.3546 59.1495C28.0588 58.6215 24.93 57.8669 21.7821 56.5397C21.8416 57.5717 21.8892 58.3977 21.9406 59.3908ZM37.8913 5.38505C37.4967 5.85342 37.1021 6.32179 36.5608 6.96415C40.0675 7.36697 43.2232 8.30346 46.4432 9.74041C46.1239 8.75647 46.097 8.01406 46.0047 7.27927C45.8479 6.03078 45.787 4.67348 44.5012 3.92431C42.9685 3.03132 41.4007 2.77954 39.8445 3.87574C39.2081 4.32407 38.6057 4.82053 37.8913 5.38505ZM60.5867 35.798C60.3392 35.5885 60.2816 35.7379 60.2593 35.9674C59.9867 38.7817 59.2897 41.4818 58.0834 44.0468C57.9815 44.2637 57.84 44.4889 57.9434 44.788C58.6439 45.0751 59.3377 44.7913 60.032 44.7065C61.9953 44.4667 63.2212 43.4238 63.7088 41.6015C64.2567 39.5543 63.7941 38.1913 62.1115 36.92C61.6382 36.5624 61.1538 36.2194 60.5867 35.798ZM4.73116 24.3949C4.19304 26.5431 5.70251 29.2335 7.88019 29.8314C8.27554 26.7747 9.26534 23.8914 10.4899 21.0477C6.7703 20.8692 5.75405 21.4549 4.73116 24.3949Z" fill="#3B1502"/>
<path d="M25.9888 2.06455C26.7499 2.30695 27.0902 3.00008 27.753 3.3807C27.8698 2.95002 27.9519 2.57163 28.0756 2.20716C28.3119 1.5106 28.6038 0.842241 29.2226 0.379308C30.2032 -0.35421 31.1372 0.00312876 31.249 1.21803C31.3297 2.09414 31.1471 2.97047 30.8943 3.81805C30.8244 4.05276 30.688 4.31442 30.39 4.24583C30.0375 4.16474 30.0495 3.83789 30.1065 3.5712C30.2849 2.73628 30.3913 1.90491 30.1571 0.86444C28.9386 1.95019 28.7232 3.44323 28.0226 4.68852C27.0924 4.30753 26.7262 3.27752 25.7558 2.93792C25.9005 3.89492 26.8354 4.46407 26.8356 5.40002C26.3471 5.64318 26.0948 5.37512 25.901 5.12299C25.4925 4.59131 25.132 4.01986 24.9321 3.37362C24.6486 2.45671 24.905 2.12349 25.9888 2.06455Z" fill="#3B1502"/>
<path d="M59.2189 10.8646C59.5198 11.1757 59.5803 11.4747 59.4131 11.8077C58.9438 12.7426 58.3619 13.5791 57.5572 14.2127C57.358 14.3695 57.1344 14.5263 56.912 14.2543C56.703 13.9988 56.817 13.7677 56.9947 13.5587C57.4459 13.0279 57.9111 12.5093 58.3325 11.7246C57.4766 12.1557 56.7492 12.4896 56.1392 13.077C55.8994 13.308 55.5934 13.6328 55.2754 13.2402C54.9533 12.8428 55.3042 12.5715 55.5507 12.3509C56.5948 11.4165 57.675 10.5593 59.2189 10.8646Z" fill="#3B1502"/>
<path d="M1.70557 41.5129C2.40661 39.9029 4.27459 38.3405 5.45938 38.4777C4.79498 39.6111 3.59388 40.1292 2.82289 41.1229C3.74765 41.4779 4.59087 40.5512 5.68515 41.0613C4.81083 41.812 3.92487 42.1837 2.89338 42.2505C2.35628 42.2853 1.83836 42.2505 1.70557 41.5129Z" fill="#3B1502"/>
<path d="M3.59812 34.1619C4.10756 34.6691 3.63871 34.753 3.34978 34.8174C2.75368 34.9502 2.14303 35.0168 1.48609 35.1187C2.16143 35.9974 3.53169 35.2673 4.16909 36.3982C2.71308 36.7914 1.46331 36.5062 0.32172 35.7444C-0.232239 35.3747 -0.0451902 34.7293 0.686124 34.3849C1.59679 33.956 2.56979 34.1575 3.59812 34.1619Z" fill="#3B1502"/>
<path d="M55.0991 7.01172C56.0483 7.38197 55.5964 8.17002 55.6678 8.77358C55.7285 9.2869 55.5359 9.78433 55.3056 10.2431C55.2026 10.4482 55.038 10.6256 54.7908 10.5401C54.5444 10.455 54.5323 10.2232 54.5455 9.98326C54.5762 9.42522 54.8957 8.90009 54.7604 8.23635C53.7654 8.71564 53.8444 10.0524 52.9504 10.6123C52.5754 9.0024 53.5789 7.34739 55.0991 7.01172Z" fill="#3B1502"/>
<path d="M13.544 58.0421C13.9405 57.3377 14.2587 56.6545 15.2272 56.4727C15.3494 57.566 13.9787 58.1117 14.2418 59.2313C14.81 59.0377 15.0656 58.5949 15.3995 58.2385C15.7114 57.9055 15.9288 57.4581 16.475 57.3881C16.8285 57.7166 16.6442 58.0462 16.467 58.3183C16.0012 59.0335 15.4022 59.6416 14.6155 60.0394C13.7061 60.4994 13.2952 60.2505 13.2663 59.2767C13.2541 58.8651 13.3396 58.4805 13.544 58.0421Z" fill="#3B1502"/>
<path d="M41.4398 63.3816C41.5483 62.5703 41.365 61.793 41.5457 61.0459C41.8867 60.9292 41.9423 61.2407 42.0123 61.4555C42.2818 62.2838 42.2997 63.1529 42.2128 64.0163C42.172 64.4218 42.0591 64.8739 41.6457 64.9823C41.2692 65.081 41.0414 64.7509 40.8335 64.4447C40.0894 63.3484 39.9752 62.4738 40.4936 61.6982C41.0795 62.0785 40.7874 63.1094 41.4398 63.3816Z" fill="#3B1502"/>
<path d="M25.7521 11.4513C30.5072 9.79069 35.3365 9.21729 40.0764 10.7387C49.4161 13.7364 55.1899 20.0908 56.9082 29.9696C57.6494 34.2313 57.0997 38.3583 55.3767 42.2466C52.3416 49.0961 47.1671 53.7284 39.975 55.6496C33.9833 57.2502 28.08 56.5078 22.5659 53.4793C16.6798 50.2464 12.8957 45.3245 11.352 38.7721C10.7223 36.099 10.6723 33.3204 11.0037 30.5663C11.562 25.9255 13.26 21.7146 16.1481 18.0937C18.6392 14.9705 21.8355 12.7038 25.7521 11.4513ZM45.9598 14.5187C44.2383 13.3885 42.5008 12.2559 40.4848 11.7557C34.6984 10.3199 29.0737 10.5225 23.6458 13.3474C17.4777 16.5576 13.8852 21.6769 12.2607 28.3487C11.7067 30.6235 11.7951 32.9247 11.8728 35.2433C11.9581 37.7917 12.5258 40.2316 13.5613 42.4975C18.0938 52.4157 28.6161 56.9502 38.4543 55.0091C44.1017 53.8949 48.6622 50.92 52.0117 46.1122C57.0234 38.9183 57.4761 31.3429 53.9113 23.4645C52.2195 19.7255 49.4311 16.8827 45.9598 14.5187Z" fill="#3B1502"/>
<path d="M47.8181 29.2628C47.4269 27.9707 46.8268 26.8389 46.2746 25.605C46.9941 25.4799 47.2274 25.9134 47.4791 26.2739C48.5526 27.8116 48.9195 29.5988 49.1591 31.4111C49.4502 33.6144 49.1552 35.7587 48.4849 37.8789C46.7653 43.3177 42.9178 46.3204 37.6432 47.7229C36.6659 47.9827 35.6763 48.0034 34.6833 47.8403C34.6347 47.2109 35.0271 47.2605 35.3461 47.2414C40.2814 46.947 43.8959 44.3372 46.6505 40.4137C47.6176 39.0363 47.9532 37.2929 48.24 35.614C48.602 33.4948 48.7163 31.3771 47.8181 29.2628Z" fill="#3B1502"/>
<path d="M18.9572 30.0948C18.5342 33.2462 19.0103 36.1659 20.4441 38.9296C20.6073 39.2441 20.5893 39.2531 20.5214 39.7962C18.651 39.075 17.2335 32.3286 18.4659 28.3605C19.6706 24.4812 23.594 20.1231 25.5633 20.4883C25.6794 20.9841 25.2716 21.1352 24.964 21.3235C21.6579 23.3487 19.7732 26.3205 18.9572 30.0948Z" fill="#3B1502"/>
<path d="M41.8082 30.6238C41.5071 29.4042 41.069 28.3412 40.2431 27.471C40.0919 27.3117 39.9229 27.155 39.8223 26.9651C39.6366 26.6146 38.9959 26.2557 39.4866 25.8714C39.9189 25.5327 40.2285 26.1542 40.5098 26.4368C41.5104 27.442 42.098 28.6906 42.4491 30.047C43.2338 33.0787 42.8382 35.9078 40.886 38.4236C38.8731 41.0177 36.0908 41.667 32.9959 41.4685C32.7106 41.4502 32.7126 41.4189 32.2153 40.9063C33.369 40.6721 34.4916 40.8479 35.5921 40.6448C38.8257 40.0481 41.3273 37.5597 41.9116 34.3331C42.1354 33.0972 42.0854 31.9045 41.8082 30.6238Z" fill="#3B1502"/>
<path d="M26.0997 25.3486C26.5887 25.0791 26.9685 24.7111 27.8574 24.8592C25.4817 26.6696 24.0338 28.803 23.469 31.4658C22.9015 34.141 23.9288 36.5205 25.0657 39.038C21.1934 37.5659 21.9929 28.7568 26.0997 25.3486Z" fill="#3B1502"/>
<path d="M39.3833 17.5797C41.2692 18.3631 42.9527 19.3174 44.3438 20.7777C43.9094 21.251 43.6013 20.9699 43.3283 20.7442C41.1329 18.9296 38.5872 17.919 35.7849 17.4838C35.4579 17.433 35.4599 17.4205 35.0581 17.0311C35.7067 16.4357 36.823 16.5724 39.3833 17.5797Z" fill="#3B1502"/>
<path d="M33.3525 37.517C33.5611 37.1411 33.9408 37.1314 34.2779 37.0329C37.1061 36.2058 37.922 35.0439 37.6226 32.2403C37.5947 31.9791 37.4978 31.715 37.8732 31.6534C38.1744 31.604 38.2903 31.8723 38.3219 32.0647C38.5608 33.5188 38.6446 34.9873 37.4859 36.1468C36.4341 37.1995 35.1346 37.8372 33.5351 37.6908C33.48 37.6857 33.431 37.6206 33.3525 37.517Z" fill="#3B1502"/>
<path d="M41.2372 21.6087C41.7851 22.0067 42.2819 22.3558 42.7596 22.7305C42.9317 22.8654 43.1129 23.0652 42.9604 23.3127C42.7739 23.6154 42.5311 23.4912 42.3043 23.3403C41.2973 22.6697 40.3573 21.8846 39.1943 21.4845C38.4514 21.2288 37.7192 20.9404 36.9536 20.6561C37.0698 19.931 37.5494 20.0686 37.9589 20.1673C39.1081 20.4445 40.1804 20.9209 41.2372 21.6087Z" fill="#3B1502"/>
<path d="M28.979 30.362C28.2487 31.6289 27.9691 32.925 27.8762 34.2999C27.0654 33.5145 27.2539 32.623 27.5001 31.7555C27.9127 30.302 28.601 29.0104 30.3206 28.4253C30.1108 29.1847 29.3216 29.6065 28.979 30.362Z" fill="#3B1502"/>
<path d="M28.0196 48.446C26.6861 47.9478 25.3854 47.5277 24.8252 46.0498C26.5091 47.206 28.3098 48.0655 30.3208 48.4788C29.5307 48.9003 28.8126 48.6314 28.0196 48.446Z" fill="#3B1502"/>
<path d="M31.2376 42.7087C32.5387 42.8686 33.7646 43.0111 35.0581 43.1614C34.1056 44.0053 30.2629 43.489 29.752 42.502C30.2643 42.3296 30.6991 42.6235 31.2376 42.7087Z" fill="#3B1502"/>
<path d="M33.7319 35.4375C33.8116 34.6129 34.8239 34.5064 35.0735 33.7319C35.5615 34.6054 34.9978 35.2767 33.7319 35.4375Z" fill="#3B1502"/>
<path d="M40.3967 51.3039C45.19 49.7244 48.907 46.7693 51.4802 42.3367C55.0645 36.4979 55.2454 30.4215 52.3395 24.5178C47.788 15.2708 38.3498 11.7955 29.6248 14.0793C29.6248 14.0793 29.249 15.0154 29.5076 14.9473C33.6309 14.0614 35.5098 14.1043 38.654 14.9344C42.8585 16.0445 46.5322 17.9615 49.2763 21.3718C50.9707 23.4775 52.1289 25.8822 52.8159 28.5019C54.1113 36.0173 52.133 42.1996 46.2019 47.0027C44.0608 48.7365 41.7717 50.2328 39.0976 50.8985C33.1956 52.3679 27.7215 51.2147 22.7574 47.8105C19.1901 45.3641 17.0968 41.876 15.8595 37.7892C13.1269 28.7634 18.1561 20.2981 25.4234 16.5413C26.0951 16.1941 27.0349 15.7987 27.2119 15.683C27.3889 15.5673 27.4772 14.8524 27.2588 14.8109C27.0404 14.7693 25.1817 15.6799 24.1897 16.243C16.8721 20.3967 13.5235 27.0049 14.5298 35.494C15.0537 39.9129 16.8442 43.8967 20.117 46.8208C25.9237 52.0087 32.7426 53.8262 40.3967 51.3039Z" fill="#3B1502"/>
<path d="M13.3613 8.94771C13.4428 9.05701 13.5234 9.17375 13.6165 9.27411C13.7075 9.37293 13.8313 9.45619 13.9546 9.51025C14.0802 9.56764 14.1903 9.59246 14.33 9.60581C14.3727 9.60898 14.5034 9.61079 14.5344 9.56986C14.6287 9.44324 14.6273 9.26236 14.6047 9.10091C14.5969 9.0453 14.5857 8.99199 14.5772 8.94381C14.5217 8.67905 14.3353 8.47653 14.1808 8.26587C14.0945 8.1481 14.0187 8.02702 13.9242 7.9159C13.8432 7.82299 13.7328 7.74334 13.6234 7.68368C13.5281 7.63301 13.4253 7.59437 13.3178 7.57468C13.2483 7.56429 13.1236 7.53969 13.065 7.59363C13.0113 7.64322 12.9827 7.74051 12.9704 7.80991C12.9447 7.95435 12.9502 8.08528 12.9757 8.22803C13.0241 8.50841 13.1979 8.72551 13.3613 8.94771Z" fill="#3B1502"/>
<path d="M10.8827 13.1963C10.9381 13.2507 10.9917 13.3054 11.0487 13.3578C11.1965 13.4944 11.3418 13.6533 11.5255 13.7446C11.7033 13.8331 11.9087 13.8702 12.1057 13.8334L12.1075 13.8332C12.1058 13.8206 12.104 13.8081 12.1022 13.7955C12.0799 13.6359 12.0091 13.4848 11.9123 13.3575C11.8695 13.3013 11.8249 13.2454 11.7707 13.1999C11.7518 13.1825 11.7312 13.1671 11.7122 13.1496C11.634 13.0764 11.5573 13.0012 11.4773 12.9283C11.4203 12.8759 11.3683 12.8192 11.3147 12.7645C11.248 12.6952 11.1834 12.6402 11.1053 12.5817C11.0293 12.5246 10.9399 12.4896 10.8505 12.4546C10.7572 12.4183 10.65 12.4004 10.5491 12.4017C10.5491 12.4017 10.5473 12.4019 10.5457 12.404C10.5196 12.6107 10.5853 12.8173 10.6992 12.9879C10.7507 13.0667 10.8148 13.1308 10.8809 13.1966L10.8827 13.1963Z" fill="#3B1502"/>
</svg>
